<svg width="665" height="526" viewBox="0 0 665 526" fill="none" xmlns="http://www.w3.org/2000/svg">
<g filter="url(#filter0_d_2286_2721)">
<path d="M498.926 314.449L512.989 317.009L516.07 324.124L502.007 321.563C494.806 320.252 489.321 315.718 486.765 309.817L483.684 302.703C486.24 308.604 491.725 313.137 498.926 314.449Z" fill="#004FAB"/>
<path d="M516.197 324.474C516.26 324.451 516.316 324.411 516.36 324.357C516.445 324.25 516.464 324.104 516.41 323.979L513.329 316.865C513.28 316.752 513.178 316.67 513.056 316.648L498.993 314.087C492.212 312.852 486.616 308.542 484.024 302.559C483.943 302.371 483.72 302.287 483.538 302.366C483.35 302.448 483.263 302.665 483.345 302.853C483.346 302.855 483.346 302.856 483.348 302.858L486.426 309.967C489.116 316.179 494.916 320.651 501.941 321.93L516.004 324.491C516.07 324.502 516.136 324.496 516.197 324.474ZM512.729 317.34L515.455 323.637L502.074 321.201C495.293 319.966 489.697 315.656 487.105 309.672L486.138 307.439C489.228 311.229 493.716 313.878 498.86 314.815L512.729 317.34Z" fill="#007EE5"/>
<path d="M520.946 334.9C522.139 335.118 523.478 334.784 524.481 333.812L537.184 321.418L540.264 328.532L527.562 340.926C526.559 341.898 525.219 342.232 524.026 342.014C522.915 341.812 521.93 341.132 521.459 340.045L518.378 332.93C518.849 334.017 519.834 334.698 520.946 334.9Z" fill="#004FAB"/>
<path d="M526.239 342.182C526.821 341.97 527.362 341.636 527.82 341.192L540.523 328.797C540.633 328.69 540.665 328.525 540.605 328.384L537.524 321.27C537.475 321.159 537.375 321.078 537.256 321.054C537.136 321.03 537.013 321.067 536.926 321.152L524.224 333.546C523.367 334.375 522.167 334.746 521.013 334.535C519.954 334.343 519.118 333.704 518.719 332.783C518.638 332.595 518.414 332.513 518.232 332.591C518.044 332.672 517.958 332.89 518.039 333.077L521.12 340.192C521.62 341.344 522.655 342.141 523.961 342.379C524.73 342.518 525.516 342.445 526.239 342.182ZM539.824 328.445L527.304 340.661C526.447 341.49 525.246 341.86 524.093 341.65C523.034 341.457 522.198 340.818 521.799 339.897L519.593 334.803C519.979 335.022 520.412 335.179 520.879 335.264C522.269 335.516 523.711 335.073 524.74 334.077L537.058 322.058L539.824 328.445Z" fill="#007EE5"/>
<path d="M603.465 333.487C615.399 335.66 627.529 328.162 630.547 316.729L648.054 250.416C649.251 245.886 648.836 241.42 647.157 237.543L650.238 244.657C651.917 248.534 652.331 253 651.135 257.531L633.628 323.843C630.61 335.276 618.48 342.774 606.546 340.601L540.265 328.531L537.184 321.417L603.465 333.487Z" fill="#004FAB"/>
<path d="M619.013 339.863C626.166 337.26 632.009 331.423 633.986 323.937L651.493 257.624C652.673 253.153 652.357 248.618 650.578 244.509L647.497 237.395C647.416 237.207 647.198 237.12 647.01 237.203C646.822 237.284 646.736 237.502 646.818 237.69C648.53 241.644 648.834 246.012 647.697 250.321L630.19 316.634C627.225 327.863 615.266 335.259 603.532 333.122L537.251 321.052C537.116 321.028 536.979 321.08 536.895 321.186C536.81 321.293 536.791 321.438 536.845 321.563L539.926 328.677C539.975 328.791 540.077 328.872 540.199 328.895L606.479 340.965C610.769 341.746 615.088 341.291 619.013 339.863ZM648.94 242.591L649.898 244.803C651.611 248.758 651.915 253.126 650.777 257.435L633.27 323.748C630.306 334.976 618.348 342.373 606.612 340.236L540.526 328.201L537.799 321.904L603.399 333.85C615.505 336.054 627.845 328.416 630.905 316.822L648.412 250.51C649.113 247.859 649.286 245.185 648.94 242.591Z" fill="#007EE5"/>
<path d="M527.361 206.746C515.427 204.573 503.314 212.073 500.296 223.507L482.788 289.82C479.77 301.253 486.992 312.276 498.926 314.449L512.989 317.01L518.282 332.681C518.704 333.912 519.751 334.681 520.944 334.898C522.138 335.115 523.478 334.782 524.481 333.81L537.184 321.416L603.465 333.486C615.399 335.66 627.528 328.161 630.546 316.728L648.054 250.415C651.073 238.982 643.832 227.957 631.898 225.784L527.361 206.746Z" fill="#1A345A"/>
<path d="M615.932 332.749C623.085 330.146 628.928 324.31 630.905 316.823L648.412 250.511C649.871 244.985 649.031 239.357 646.048 234.664C642.951 229.793 637.95 226.51 631.966 225.42L527.427 206.382C515.33 204.179 502.999 211.819 499.938 223.414L482.43 289.727C480.97 295.257 481.809 300.889 484.793 305.582C487.885 310.447 492.881 313.725 498.86 314.814L512.708 317.336L517.932 332.8C518.373 334.087 519.474 335.007 520.879 335.264C522.268 335.516 523.711 335.072 524.739 334.077L537.306 321.815L603.399 333.851C607.688 334.633 612.007 334.178 615.932 332.749ZM527.294 207.111L631.833 226.148C637.612 227.201 642.438 230.366 645.423 235.06C648.294 239.578 649.102 244.997 647.696 250.322L630.189 316.635C627.224 327.863 615.266 335.26 603.531 333.123L537.25 321.053C537.132 321.031 537.011 321.068 536.925 321.152L524.223 333.546C523.366 334.375 522.166 334.745 521.012 334.535C519.875 334.328 518.985 333.59 518.633 332.562L513.341 316.892C513.297 316.765 513.188 316.671 513.056 316.646L498.993 314.085C493.22 313.034 488.399 309.873 485.419 305.185C482.547 300.668 481.74 295.245 483.147 289.915L500.654 223.603C503.618 212.374 515.569 204.976 527.294 207.111Z" fill="#007EE5"/>
<path d="M517.257 255.158L519.277 243.699L521.006 244.004L520.128 248.984L525.841 249.991L526.719 245.011L528.454 245.317L526.433 256.776L524.699 256.471L525.58 251.474L519.867 250.466L518.986 255.463L517.257 255.158ZM532.233 257.978C531.427 257.836 530.757 257.527 530.221 257.052C529.686 256.577 529.311 255.978 529.096 255.255C528.881 254.533 528.852 253.728 529.008 252.84C529.165 251.948 529.469 251.198 529.919 250.589C530.368 249.98 530.926 249.543 531.592 249.28C532.258 249.016 532.993 248.956 533.799 249.098C534.605 249.24 535.275 249.549 535.811 250.024C536.346 250.499 536.721 251.1 536.935 251.826C537.15 252.552 537.178 253.361 537.021 254.253C536.864 255.141 536.562 255.887 536.113 256.493C535.663 257.098 535.106 257.533 534.44 257.796C533.775 258.059 533.039 258.12 532.233 257.978ZM532.486 256.574C533.009 256.667 533.466 256.605 533.858 256.389C534.249 256.174 534.568 255.851 534.813 255.421C535.062 254.992 535.235 254.501 535.332 253.949C535.429 253.401 535.434 252.882 535.347 252.394C535.264 251.902 535.076 251.487 534.782 251.146C534.488 250.806 534.08 250.59 533.558 250.498C533.032 250.405 532.571 250.468 532.175 250.687C531.782 250.906 531.461 251.232 531.212 251.665C530.967 252.095 530.796 252.584 530.699 253.132C530.602 253.684 530.595 254.204 530.678 254.692C530.765 255.18 530.956 255.593 531.25 255.93C531.548 256.267 531.96 256.482 532.486 256.574ZM539.566 259.092L538.552 250.051L540.281 250.356L540.853 256.965L540.937 256.98L543.739 250.966L545.468 251.271L546.039 257.851L546.123 257.865L548.904 251.877L550.633 252.182L546.594 260.331L544.887 260.03L544.236 253.517L544.107 253.494L541.267 259.392L539.566 259.092ZM558.118 262.542C557.287 262.396 556.604 262.081 556.069 261.598C555.54 261.112 555.173 260.507 554.97 259.783C554.767 259.059 554.741 258.266 554.893 257.404C555.047 256.531 555.347 255.79 555.793 255.18C556.24 254.566 556.795 254.124 557.458 253.852C558.122 253.581 558.858 253.516 559.667 253.659C560.32 253.774 560.881 253.998 561.349 254.331C561.818 254.66 562.171 255.068 562.408 255.556C562.649 256.045 562.748 256.583 562.706 257.172L561.078 256.885C561.059 256.466 560.915 256.083 560.646 255.736C560.38 255.389 559.98 255.168 559.447 255.074C558.98 254.992 558.55 255.043 558.156 255.227C557.767 255.409 557.435 255.708 557.161 256.125C556.888 256.539 556.698 257.051 556.59 257.663C556.48 258.29 556.479 258.847 556.589 259.336C556.699 259.825 556.906 260.224 557.209 260.536C557.515 260.847 557.905 261.045 558.379 261.128C558.696 261.184 558.994 261.177 559.271 261.107C559.554 261.034 559.802 260.902 560.016 260.713C560.234 260.525 560.405 260.282 560.531 259.985L562.159 260.272C562.002 260.817 561.733 261.281 561.354 261.665C560.975 262.048 560.51 262.32 559.958 262.48C559.411 262.641 558.797 262.662 558.118 262.542ZM565.763 263.907C565.219 263.811 564.744 263.624 564.339 263.345C563.935 263.062 563.639 262.704 563.45 262.271C563.265 261.838 563.222 261.34 563.321 260.777C563.406 260.292 563.57 259.909 563.812 259.629C564.054 259.348 564.349 259.144 564.698 259.018C565.048 258.891 565.426 258.815 565.835 258.791C566.243 258.767 566.654 258.766 567.07 258.79C567.595 258.821 568.021 258.846 568.349 258.865C568.677 258.881 568.921 258.856 569.083 258.793C569.244 258.729 569.342 258.596 569.378 258.395L569.385 258.355C569.471 257.867 569.4 257.464 569.171 257.146C568.946 256.83 568.563 256.624 568.022 256.529C567.459 256.429 566.993 256.476 566.624 256.669C566.26 256.858 565.99 257.093 565.813 257.374L564.304 256.738C564.583 256.249 564.929 255.876 565.344 255.618C565.763 255.357 566.22 255.195 566.716 255.133C567.212 255.066 567.72 255.079 568.238 255.17C568.582 255.231 568.938 255.336 569.308 255.486C569.682 255.633 570.018 255.842 570.316 256.114C570.618 256.386 570.843 256.739 570.989 257.173C571.137 257.603 571.155 258.131 571.045 258.758L570.038 264.465L568.404 264.177L568.611 263.002L568.544 262.99C568.398 263.187 568.198 263.371 567.945 263.542C567.692 263.713 567.383 263.837 567.02 263.916C566.656 263.994 566.237 263.991 565.763 263.907ZM566.364 262.629C566.826 262.71 567.238 262.689 567.598 262.564C567.963 262.439 568.256 262.245 568.48 261.981C568.708 261.713 568.852 261.41 568.912 261.07L569.107 259.962C569.037 260.011 568.911 260.047 568.731 260.069C568.554 260.088 568.354 260.097 568.131 260.096C567.909 260.091 567.693 260.086 567.482 260.08C567.273 260.07 567.097 260.062 566.956 260.056C566.624 260.04 566.315 260.057 566.03 260.106C565.748 260.157 565.51 260.259 565.318 260.413C565.129 260.565 565.009 260.79 564.956 261.088C564.883 261.502 564.981 261.843 565.25 262.109C565.519 262.372 565.89 262.545 566.364 262.629ZM574.666 260.019L573.766 265.122L572.093 264.827L573.609 256.233L575.215 256.516L574.968 257.915L575.074 257.934C575.352 257.513 575.726 257.202 576.197 257.001C576.67 256.8 577.23 256.756 577.875 256.87C578.461 256.973 578.952 257.187 579.349 257.51C579.746 257.83 580.024 258.252 580.182 258.776C580.339 259.3 580.356 259.917 580.231 260.626L579.267 266.092L577.594 265.797L578.522 260.532C578.632 259.909 578.555 259.394 578.293 258.986C578.031 258.574 577.616 258.318 577.049 258.218C576.661 258.15 576.301 258.173 575.97 258.288C575.642 258.403 575.361 258.607 575.129 258.901C574.901 259.191 574.746 259.564 574.666 260.019ZM589.218 256.031L587.197 267.491L585.468 267.186L587.489 255.726L589.218 256.031ZM595.977 263.777L595.077 268.88L593.404 268.585L595.425 257.126L597.076 257.417L596.324 261.68L596.43 261.699C596.713 261.272 597.086 260.959 597.548 260.76C598.01 260.56 598.575 260.52 599.242 260.637C599.832 260.741 600.325 260.953 600.723 261.273C601.124 261.594 601.403 262.016 601.561 262.54C601.723 263.061 601.741 263.68 601.614 264.396L600.65 269.863L598.977 269.568L599.906 264.302C600.017 263.672 599.941 263.155 599.677 262.751C599.415 262.343 598.994 262.088 598.416 261.986C598.021 261.916 597.651 261.938 597.309 262.05C596.969 262.164 596.682 262.367 596.445 262.66C596.213 262.949 596.057 263.322 595.977 263.777ZM606.383 271.053C605.537 270.903 604.839 270.594 604.291 270.124C603.748 269.651 603.368 269.055 603.152 268.337C602.941 267.615 602.914 266.808 603.071 265.917C603.227 265.036 603.528 264.289 603.974 263.676C604.425 263.063 604.98 262.62 605.639 262.348C606.303 262.076 607.033 262.011 607.832 262.152C608.317 262.237 608.772 262.4 609.199 262.641C609.626 262.882 609.99 263.206 610.291 263.613C610.593 264.02 610.8 264.516 610.912 265.101C611.025 265.682 611.012 266.363 610.875 267.142L610.77 267.736L603.938 266.531L604.159 265.277L609.352 266.193C609.429 265.753 609.409 265.347 609.289 264.976C609.171 264.602 608.967 264.287 608.677 264.032C608.391 263.777 608.032 263.612 607.599 263.536C607.129 263.453 606.698 263.496 606.307 263.666C605.92 263.832 605.599 264.083 605.343 264.419C605.092 264.752 604.929 265.132 604.853 265.561L604.681 266.541C604.579 267.115 604.594 267.622 604.724 268.06C604.858 268.499 605.09 268.857 605.418 269.134C605.746 269.408 606.155 269.587 606.644 269.673C606.961 269.729 607.258 269.736 607.535 269.692C607.812 269.645 608.062 269.547 608.285 269.397C608.507 269.248 608.693 269.048 608.841 268.797L610.374 269.362C610.165 269.806 609.865 270.174 609.475 270.467C609.089 270.757 608.633 270.955 608.107 271.062C607.584 271.166 607.01 271.163 606.383 271.053ZM615.478 260.662L613.457 272.121L611.784 271.826L613.805 260.366L615.478 260.662ZM614.967 275.71L617.05 263.893L618.684 264.181L618.439 265.574L618.578 265.599C618.707 265.437 618.883 265.254 619.108 265.052C619.332 264.849 619.622 264.688 619.977 264.57C620.333 264.448 620.778 264.435 621.311 264.529C622.005 264.651 622.594 264.936 623.076 265.382C623.559 265.829 623.897 266.41 624.09 267.125C624.287 267.84 624.304 268.662 624.14 269.591C623.976 270.52 623.681 271.289 623.254 271.898C622.828 272.504 622.313 272.938 621.709 273.201C621.106 273.46 620.457 273.528 619.763 273.406C619.241 273.314 618.829 273.151 618.528 272.917C618.231 272.684 618.01 272.433 617.865 272.166C617.72 271.898 617.613 271.663 617.544 271.463L617.444 271.445L616.64 276.005L614.967 275.71ZM617.932 268.479C617.825 269.083 617.82 269.629 617.915 270.115C618.01 270.601 618.201 271.002 618.487 271.318C618.775 271.63 619.159 271.828 619.64 271.913C620.14 272.001 620.581 271.943 620.964 271.737C621.347 271.527 621.664 271.208 621.917 270.78C622.173 270.352 622.352 269.851 622.453 269.276C622.553 268.709 622.557 268.185 622.465 267.703C622.377 267.222 622.186 266.821 621.893 266.5C621.603 266.18 621.206 265.976 620.703 265.887C620.218 265.801 619.785 265.854 619.406 266.045C619.03 266.236 618.716 266.54 618.466 266.958C618.215 267.375 618.037 267.882 617.932 268.479ZM549.798 288.59C549.548 288.546 549.324 288.485 549.126 288.408C548.928 288.334 548.782 288.266 548.689 288.204L549.334 286.904C549.625 287.04 549.891 287.123 550.132 287.154C550.373 287.185 550.599 287.133 550.811 286.997C551.028 286.862 551.24 286.617 551.449 286.261L551.757 285.727L550.147 276.466L551.938 276.782L552.938 283.835L553.028 283.851L556.38 277.565L558.177 277.882L552.917 286.999C552.674 287.418 552.398 287.76 552.09 288.025C551.781 288.293 551.437 288.475 551.059 288.57C550.681 288.665 550.26 288.671 549.798 288.59ZM561.358 287.484C560.552 287.341 559.881 287.033 559.346 286.558C558.81 286.082 558.435 285.484 558.22 284.761C558.005 284.038 557.976 283.233 558.133 282.345C558.29 281.454 558.593 280.704 559.043 280.094C559.493 279.485 560.05 279.049 560.716 278.785C561.382 278.522 562.118 278.461 562.923 278.604C563.729 278.746 564.4 279.054 564.935 279.529C565.471 280.005 565.845 280.605 566.06 281.332C566.274 282.058 566.303 282.867 566.145 283.758C565.989 284.646 565.686 285.393 565.237 285.998C564.788 286.604 564.23 287.038 563.565 287.302C562.899 287.565 562.163 287.626 561.358 287.484ZM561.611 286.08C562.133 286.172 562.59 286.11 562.982 285.895C563.374 285.679 563.692 285.357 563.937 284.927C564.186 284.498 564.359 284.007 564.456 283.455C564.553 282.906 564.558 282.388 564.471 281.9C564.388 281.408 564.2 280.992 563.906 280.652C563.613 280.312 563.204 280.095 562.682 280.003C562.156 279.911 561.695 279.974 561.299 280.192C560.906 280.411 560.585 280.738 560.336 281.17C560.091 281.6 559.92 282.09 559.823 282.638C559.726 283.19 559.719 283.71 559.802 284.198C559.889 284.686 560.08 285.099 560.374 285.435C560.673 285.772 561.085 285.987 561.611 286.08ZM573.162 285.711L574.049 280.681L575.727 280.977L574.212 289.571L572.567 289.281L572.829 287.793L572.74 287.777C572.461 288.201 572.076 288.527 571.586 288.756C571.1 288.982 570.534 289.038 569.889 288.924C569.337 288.827 568.87 288.62 568.487 288.302C568.109 287.982 567.841 287.559 567.684 287.035C567.53 286.512 567.515 285.896 567.64 285.187L568.604 279.721L570.277 280.016L569.349 285.281C569.245 285.867 569.326 286.362 569.589 286.766C569.852 287.17 570.243 287.418 570.762 287.509C571.075 287.564 571.4 287.541 571.738 287.439C572.079 287.337 572.38 287.146 572.641 286.865C572.906 286.585 573.079 286.2 573.162 285.711ZM578.697 286.964L578.716 286.858C578.846 286.165 579.012 285.625 579.215 285.238C579.422 284.851 579.67 284.553 579.961 284.343C580.252 284.132 580.59 283.953 580.973 283.806C581.222 283.703 581.452 283.58 581.662 283.436C581.872 283.293 582.049 283.116 582.193 282.907C582.338 282.698 582.435 282.455 582.483 282.179C582.542 281.847 582.514 281.546 582.4 281.276C582.286 281.006 582.11 280.783 581.872 280.606C581.639 280.427 581.363 280.309 581.046 280.253C580.759 280.202 580.474 280.214 580.192 280.287C579.91 280.36 579.661 280.509 579.444 280.732C579.229 280.952 579.073 281.257 578.977 281.648L577.276 281.348C577.42 280.681 577.69 280.144 578.085 279.736C578.481 279.325 578.957 279.046 579.514 278.898C580.074 278.751 580.668 278.732 581.295 278.843C581.981 278.964 582.559 279.198 583.028 279.547C583.498 279.891 583.835 280.318 584.037 280.826C584.244 281.332 584.294 281.889 584.187 282.497C584.113 282.915 583.982 283.28 583.792 283.593C583.603 283.902 583.364 284.166 583.075 284.384C582.791 284.603 582.463 284.784 582.091 284.926C581.739 285.068 581.446 285.227 581.211 285.405C580.979 285.584 580.793 285.81 580.652 286.086C580.511 286.361 580.399 286.712 580.316 287.14L580.298 287.246L578.697 286.964ZM578.942 290.515C578.636 290.461 578.392 290.307 578.211 290.051C578.029 289.792 577.966 289.508 578.021 289.199C578.074 288.893 578.231 288.651 578.489 288.473C578.748 288.292 579.03 288.228 579.336 288.282C579.638 288.336 579.88 288.492 580.061 288.751C580.247 289.006 580.313 289.287 580.259 289.593C580.223 289.798 580.137 289.978 580.002 290.131C579.872 290.281 579.714 290.391 579.528 290.463C579.343 290.534 579.147 290.551 578.942 290.515Z" fill="#007EE5"/>
</g>
<g filter="url(#filter1_d_2286_2721)">
<path d="M541.816 163.603L531.766 166.356L529.981 171.718L540.031 168.965C545.177 167.555 548.872 163.915 550.353 159.467L552.138 154.105C550.657 158.553 546.962 162.193 541.816 163.603Z" fill="#004FAB"/>
<path d="M529.911 171.979C529.863 171.966 529.82 171.941 529.785 171.904C529.717 171.832 529.694 171.728 529.725 171.633L531.509 166.271C531.538 166.186 531.607 166.12 531.694 166.096L541.744 163.343C546.59 162.015 550.38 158.53 551.881 154.02C551.928 153.878 552.085 153.804 552.223 153.849C552.364 153.897 552.442 154.049 552.394 154.191C552.394 154.191 552.393 154.193 552.392 154.195L550.608 159.553C549.049 164.235 545.121 167.851 540.101 169.226L530.053 171.979C530.005 171.991 529.956 171.991 529.911 171.979ZM531.976 166.578L530.397 171.324L539.959 168.705C544.804 167.377 548.594 163.892 550.096 159.382L550.657 157.699C548.653 160.647 545.563 162.856 541.886 163.863L531.976 166.578Z" fill="#007EE5"/>
<path d="M527.124 179.853C526.272 180.087 525.278 179.93 524.487 179.288L514.476 171.094L512.691 176.456L522.702 184.65C523.493 185.292 524.486 185.449 525.339 185.215C526.133 184.998 526.806 184.441 527.079 183.622L528.864 178.26C528.591 179.079 527.919 179.636 527.124 179.853Z" fill="#004FAB"/>
<path d="M523.744 185.478C523.308 185.361 522.894 185.152 522.533 184.859L512.52 176.665C512.433 176.594 512.399 176.477 512.434 176.371L514.22 171.009C514.248 170.925 514.315 170.86 514.4 170.835C514.486 170.81 514.579 170.829 514.647 170.885L524.658 179.079C525.333 179.626 526.229 179.819 527.054 179.593C527.81 179.386 528.377 178.869 528.608 178.175C528.655 178.033 528.812 177.959 528.95 178.004C529.091 178.051 529.167 178.204 529.119 178.345L527.335 183.707C527.046 184.576 526.344 185.22 525.411 185.476C524.861 185.626 524.286 185.623 523.744 185.478ZM513.006 176.365L522.874 184.441C523.549 184.988 524.445 185.181 525.269 184.955C526.025 184.748 526.591 184.231 526.822 183.537L528.101 179.697C527.834 179.881 527.531 180.022 527.197 180.114C526.204 180.385 525.127 180.154 524.317 179.497L514.608 171.551L513.006 176.365Z" fill="#007EE5"/>
<path d="M467.109 184.07C458.581 186.406 449.296 181.732 446.378 173.621L429.451 126.577C428.294 123.364 428.312 120.094 429.284 117.172L427.499 122.534C426.526 125.456 426.509 128.726 427.666 131.94L444.592 178.983C447.511 187.094 456.796 191.768 465.324 189.432L512.69 176.456L514.476 171.094L467.109 184.07Z" fill="#004FAB"/>
<path d="M456.224 189.689C450.864 188.253 446.25 184.386 444.339 179.075L427.412 132.031C426.271 128.86 426.212 125.546 427.243 122.449L429.029 117.087C429.076 116.946 429.229 116.869 429.37 116.917C429.512 116.964 429.588 117.117 429.541 117.258C428.548 120.239 428.605 123.43 429.705 126.487L446.632 173.531C449.498 181.496 458.652 186.108 467.038 183.81L514.404 170.834C514.5 170.808 514.603 170.837 514.671 170.909C514.74 170.981 514.763 171.085 514.731 171.18L512.946 176.542C512.918 176.627 512.848 176.693 512.762 176.717L465.396 189.694C462.331 190.533 459.165 190.477 456.224 189.689ZM428.311 120.953L427.756 122.62C426.763 125.6 426.82 128.792 427.92 131.848L444.847 178.892C447.712 186.858 456.867 191.47 465.253 189.173L512.48 176.234L514.06 171.488L467.181 184.331C458.529 186.701 449.083 181.938 446.124 173.713L429.197 126.669C428.52 124.789 428.224 122.858 428.311 120.953Z" fill="#007EE5"/>
<path d="M514.325 87.199C522.853 84.8627 532.125 89.5401 535.044 97.6514L551.971 144.695C554.89 152.806 550.345 161.269 541.817 163.606L531.767 166.359L528.919 178.075C528.691 178.996 527.979 179.621 527.126 179.855C526.273 180.088 525.279 179.931 524.489 179.289L514.477 171.096L467.109 184.072C458.581 186.409 449.297 181.734 446.379 173.623L429.452 126.58C426.534 118.469 431.09 110.002 439.619 107.666L514.325 87.199Z" fill="#1A345A"/>
<path d="M458.009 184.325C452.649 182.889 448.035 179.022 446.124 173.711L429.197 126.668C427.786 122.747 428.038 118.608 429.907 115.01C431.846 111.276 435.269 108.575 439.546 107.403L514.252 86.9359C522.897 84.5675 532.337 89.3321 535.297 97.5573L552.224 144.601C553.635 148.524 553.384 152.667 551.515 156.265C549.579 159.994 546.159 162.693 541.886 163.864L531.99 166.575L529.179 178.136C528.941 179.098 528.199 179.837 527.196 180.112C526.203 180.384 525.127 180.154 524.317 179.496L514.412 171.39L467.18 184.33C464.115 185.17 460.95 185.113 458.009 184.325ZM514.395 87.4564L439.689 107.923C435.559 109.055 432.255 111.66 430.386 115.259C428.588 118.722 428.346 122.709 429.705 126.486L446.631 173.53C449.498 181.495 458.652 186.107 467.038 183.81L514.404 170.832C514.488 170.809 514.579 170.828 514.646 170.884L524.658 179.077C525.333 179.625 526.228 179.817 527.053 179.591C527.865 179.368 528.464 178.776 528.655 178.007L531.503 166.293C531.526 166.198 531.599 166.121 531.694 166.095L541.743 163.342C545.869 162.212 549.169 159.611 551.036 156.017C552.834 152.554 553.075 148.565 551.715 144.784L534.789 97.74C531.923 89.7741 522.774 85.1611 514.395 87.4564Z" fill="#007EE5"/>
<path d="M475.128 145.026L472.351 133.726L474.036 133.233L475.243 138.144L480.812 136.517L479.605 131.607L481.295 131.113L484.073 142.413L482.382 142.907L481.171 137.98L475.603 139.606L476.814 144.534L475.128 145.026ZM489.88 140.9C489.054 141.141 488.3 141.17 487.616 140.988C486.934 140.8 486.352 140.428 485.868 139.872C485.387 139.311 485.039 138.59 484.823 137.711C484.61 136.843 484.581 136.031 484.739 135.276C484.9 134.519 485.223 133.87 485.71 133.33C486.201 132.789 486.835 132.404 487.613 132.177C488.086 132.039 488.563 131.984 489.046 132.013C489.528 132.041 489.987 132.173 490.423 132.409C490.859 132.644 491.245 133.002 491.582 133.484C491.917 133.961 492.18 134.584 492.368 135.353L492.512 135.938L485.853 137.883L485.549 136.647L490.61 135.169C490.504 134.735 490.322 134.376 490.065 134.092C489.808 133.805 489.497 133.61 489.132 133.507C488.772 133.404 488.381 133.413 487.959 133.537C487.501 133.67 487.129 133.901 486.843 134.229C486.56 134.552 486.371 134.923 486.275 135.341C486.181 135.755 486.187 136.173 486.291 136.596L486.528 137.562C486.667 138.128 486.884 138.582 487.178 138.922C487.476 139.26 487.828 139.483 488.236 139.588C488.643 139.69 489.085 139.671 489.561 139.532C489.87 139.442 490.141 139.316 490.374 139.153C490.606 138.987 490.792 138.786 490.933 138.552C491.075 138.317 491.162 138.053 491.195 137.76L492.807 137.59C492.797 138.086 492.674 138.554 492.439 138.993C492.207 139.428 491.874 139.811 491.441 140.142C491.011 140.469 490.49 140.722 489.88 140.9ZM493.925 127.423L496.703 138.723L495.072 139.2L492.295 127.9L493.925 127.423ZM497.581 126.355L500.358 137.655L498.728 138.132L495.95 126.832L497.581 126.355ZM505.954 136.204C505.169 136.434 504.438 136.452 503.764 136.259C503.089 136.065 502.509 135.689 502.024 135.129C501.54 134.568 501.19 133.85 500.975 132.975C500.759 132.096 500.732 131.28 500.893 130.527C501.055 129.774 501.384 129.13 501.88 128.595C502.376 128.059 503.016 127.677 503.802 127.448C504.587 127.218 505.317 127.2 505.992 127.393C506.667 127.586 507.247 127.965 507.733 128.529C508.218 129.093 508.569 129.814 508.785 130.694C509 131.569 509.026 132.381 508.864 133.131C508.701 133.88 508.372 134.522 507.876 135.057C507.38 135.592 506.739 135.975 505.954 136.204ZM505.619 134.818C506.128 134.669 506.516 134.41 506.784 134.04C507.052 133.67 507.21 133.235 507.259 132.736C507.311 132.236 507.27 131.714 507.136 131.169C507.004 130.628 506.8 130.156 506.525 129.751C506.253 129.342 505.916 129.048 505.513 128.87C505.111 128.692 504.655 128.677 504.146 128.826C503.634 128.975 503.242 129.238 502.972 129.612C502.705 129.986 502.546 130.425 502.494 130.928C502.446 131.428 502.488 131.948 502.621 132.488C502.754 133.033 502.957 133.508 503.228 133.914C503.503 134.318 503.841 134.608 504.242 134.782C504.647 134.956 505.106 134.967 505.619 134.818Z" fill="#007EE5"/>
</g>
<path d="M5.22 275.096L10.3222 247.818L20.1479 223.285L31.2941 198.745L46.9685 177.415L68.3385 159.707L83.1085 140.723L102.418 124.877L124.969 115.356L150.968 111.66L168.315 102.37L193.191 106.79L219.426 117.709L246.159 134.965L272.436 158.111L285.772 189.488L297.095 225.201L305.938 263.966L311.939 304.347L314.878 344.805L314.646 383.813L311.284 419.916L304.997 451.857L296.074 478.588L284.913 499.333L271.962 513.603L257.723 521.182M303.254 108.256L299.406 111.374L292.897 120.781L283.839 136.455L272.434 158.084M272.434 158.084L309.814 171.689L310.879 172.243L344.034 189.611L373.918 211.15L398.47 235.486L416.97 261.714L411.271 281.875L400.592 300.274L410.807 332.665L414.806 363.741L412.613 392.487L404.479 418.033L390.859 439.663L371.819 460.676L347.329 478.055L318.068 491.099L284.922 499.273L248.967 502.187L211.438 499.651L173.652 491.697L136.967 478.575L102.697 460.751L72.0575 438.898L46.0945 413.831L25.6399 386.469L11.2938 357.796L3.3872 328.805L6.6657 303.937L16.7022 278.647L33.3753 253.764L56.3035 230.159L84.8355 208.709L118.03 190.236L154.758 175.455L193.699 164.936L233.414 159.077L272.438 158.073L310.18 166.882L344.616 180.133L374.602 197.28L399.178 217.643L398.482 235.49L393.523 252.348L384.383 267.685L371.249 280.979L354.46 291.765M272.434 158.084L233.245 149.274L193.66 145.631L155.111 147.23L118.972 153.956L86.4725 165.488L58.6655 181.327L36.3589 200.832L20.1222 223.25L15.1444 250.15L5.1943 275.061L6.6471 303.917L14.8125 333.463L29.584 362.725L50.6315 390.675L77.3435 416.321L108.855 438.697L144.098 456.977L181.812 470.474L220.641 478.692L259.178 481.377L296.069 478.496L330.051 470.243L360.009 457.005L385.047 439.352L404.473 417.98L417.835 393.683L425.822 368.506L427.523 340.9L422.689 311.696L411.28 281.814L393.521 252.284L369.902 224.153L341.163 198.448L308.288 176.126L272.431 158.019L232.734 154.016L192.513 155.006L153.233 160.935L116.314 171.562L83.0535 186.453L54.5675 205.001L31.7309 226.489L15.1609 250.104L16.7114 278.587L24.9212 307.765L39.706 336.674L60.7245 364.318L87.3675 389.696L118.77 411.879L153.861 430.014L191.395 443.445L230.025 451.68L268.35 454.455L305.016 451.735L338.775 443.708L368.526 430.754L393.368 413.426L412.626 392.415L425.841 368.487L432.801 342.475L434.233 316.064L434.874 290.004L429.827 265.216L429.645 263.678L429.607 263.498L424.754 240.291L414.672 216.05L404.452 197.072L391.154 176.282L381.659 165.543L373.941 156.82L362.426 146.996L362.188 146.769L353.345 139.199L344.889 132.012L324.999 118.961L303.249 108.165L280.241 99.9182L256.585 94.4317L232.926 91.875L221.814 92.0547L210.197 92.2815L209.854 92.3101L194.714 92.5852L183.201 94.4244L169.053 96.6863L145.572 104.294L125.6 112.462L102.402 124.782L83.8985 139.641L83.7895 139.73L82.6485 140.825L63.0085 156.769L46.9515 177.319L36.3568 200.767L31.7237 226.474L33.3774 253.688L41.4325 281.568L55.7995 309.198L76.1355 335.622L101.849 359.894L132.115 381.124L165.897 398.528L202.013 411.455L239.159 419.445M354.46 291.765L365.318 329.383L371.34 365.944L372.38 400.155L368.516 430.852L360.022 457.074L347.322 478.078L330.978 493.366L311.728 502.296L303.28 505.775L271.975 513.569L238.066 516.383L202.703 514.047L167.119 506.587L132.586 494.235L100.335 477.441L71.5035 456.809L47.0525 433.112L27.7786 407.216L25.6502 386.511L29.5973 362.794L39.707 336.776L55.8075 309.317L77.4885 281.366L104.059 253.941L134.595 228.074L167.987 204.77L202.975 184.889L238.23 169.163L272.447 158.115L307.427 156.932L339.009 160.58L366.186 168.808L371.973 183.049L395.674 199.382L399.171 217.666L417.65 240.469L416.973 261.741L428.954 288.926L422.676 311.768L410.799 332.688L393.546 350.972L371.324 365.951L344.758 377.044L314.654 383.79L281.97 385.873L247.822 383.159L213.395 375.685L179.916 363.705L148.57 347.624L120.444 328.042L96.4935 305.679L77.4855 281.339L63.9795 255.879L56.3065 230.186L54.5645 205.077L58.6685 181.353L68.3275 159.703L94.8735 146.311L125.847 137.808L160.292 134.613L197.07 136.965L202.65 129.267L210.178 122.791L219.419 117.693L230.087 114.126L251.579 133.085L272.422 158.08L291.842 188.356L309.087 222.884L323.487 260.446L334.475 299.647L341.646 338.995L344.751 377.029L343.743 412.363L338.745 443.787L330.046 470.292L318.049 491.118L303.27 505.771L286.283 514.002L267.245 518.759L257.711 521.14L226.827 523.736L194.668 521.632L162.339 514.87L130.979 503.647L101.68 488.376L75.4775 469.597L71.2145 465.447L53.2475 447.988L47.3975 440.111L35.6856 424.354L27.7827 407.205L23.4555 399.153L14.2408 380.016L10.2259 365.267L6.7469 352.493L3.3903 328.832L2.664 314.052L2 300.472L5.2087 275.091M354.46 291.765L339.111 254.484M354.46 291.765L334.499 299.655L311.969 304.333L287.585 305.596L262.155 303.368L236.529 297.702L211.594 288.767L188.193 276.883L167.115 262.453L149.068 245.989L134.615 228.056L124.184 209.27L118.044 190.267L116.324 171.642L118.986 153.987L125.859 137.812L136.647 123.575L168.587 123.462L202.66 129.271L237.693 140.921L272.444 158.088L309.376 161.917L342.924 170.364L371.992 183.03L374.608 197.295L373.926 211.166L369.915 224.222L362.645 236.04L352.285 246.248L339.111 254.484M239.159 419.445L276.008 422.233L311.266 419.794L343.723 412.279L372.341 400.051L396.237 383.634L414.771 363.664L427.493 340.876L434.189 316.047L428.931 288.815L429.577 264.779L424.716 240.29L413.361 218.632L404.413 197.071L388.141 181.074L376.917 163.485L362.341 146.979L344.852 132.011L332.21 130.098L315.617 133.762L295.487 143.101L272.391 157.992L247.065 178.088L220.401 202.778M239.159 419.445L229.978 451.664L220.607 478.642L211.391 499.57L202.641 513.935L194.63 521.528L187.586 522.382M239.159 419.445L247.793 383.06L255.539 343.842L262.1 303.271L267.214 262.916L270.699 224.323L272.443 188.937L272.413 158L270.667 132.518L267.316 113.199L262.547 100.454L256.565 94.4502M339.111 254.484L319.82 218.93L297.314 186.405L272.456 158.092L241.495 137.581L210.204 122.788L179.688 114.1L168.599 123.466L160.314 134.621L155.125 147.261L153.242 161.015L154.772 175.486L159.729 190.218L167.995 204.748L179.352 218.597L193.453 231.307L209.854 242.448L228.027 251.636L247.383 258.565L267.257 263.008L287.003 264.819L305.956 263.948L323.51 260.455L339.111 254.484ZM220.401 202.778L193.383 231.218L167.046 262.363L142.393 295.031L120.382 327.968L101.803 359.915L87.3025 389.698L77.2915 416.29L71.9915 438.835L71.4225 456.716L75.4185 469.511L83.6645 477.031L93.3795 483.997L101.847 490.062L106.527 493.417L115.231 497.955L132.058 506.729L159.386 516.509L161.089 516.86L177.956 520.388L187.566 522.401L193.317 522.778L203.694 523.458L215.621 524.24L226.763 523.662L237.977 516.312L248.882 502.143L259.107 481.364L268.25 454.483L275.953 422.277L281.888 385.818L285.789 346.403L287.484 305.521L286.913 264.748L284.1 225.629L279.178 189.635L272.362 158.033L263.973 131.848L254.344 111.844L243.848 98.4749L225.729 98.8436L208.66 101.604L188.102 95.8369L168.252 102.296L145.51 104.323L124.902 115.293L107.805 129.385L94.8175 146.253L86.4315 165.46L83.0075 186.474L84.7825 208.677L91.8145 231.384L104.001 253.856L121.033 275.326L142.396 295.057L167.426 312.347L195.276 326.567L224.982 337.2L255.522 343.887L285.823 346.416L314.837 344.739L341.609 338.956L365.271 329.34L385.107 316.27L400.551 300.246M220.401 202.778L231.607 210.325L243.993 216.562L257.164 221.279L270.685 224.331L284.132 225.615L297.056 225.097L309.064 222.811L319.766 218.834L328.84 213.317L336.029 206.435L341.122 198.42L343.987 189.529L344.569 180.051L342.87 170.267L338.964 160.461L332.983 150.937L304.355 151.936L272.397 158.007M220.401 202.778L210.736 194.165L202.913 184.777L197.163 174.901L193.647 164.866L192.456 154.986L193.608 145.561L197.026 136.872M272.397 158.007L300.349 147.329L325.124 141.97L345.965 141.927L357.396 154.907L366.142 168.715L388.145 181.101L395.642 199.293L413.363 218.659L417.613 240.392L429.781 265.238L434.827 290.026M272.397 158.007L242.172 173.772L210.746 194.169L179.298 218.5L149.013 245.892L121.046 275.292L96.4505 305.587L76.1085 335.625L60.6785 364.302L50.5985 390.625L46.0475 413.75L46.9905 433L53.1935 447.892M272.397 158.007L258.984 185.011L244.009 216.555L227.995 251.547L211.551 288.674L195.304 326.526L179.895 363.621L165.904 398.543L153.839 430.006L144.089 456.935L136.946 478.491L132.562 494.124L130.977 503.545L132.115 506.711M159.416 516.533L162.309 514.808L167.068 506.517L173.604 491.654L181.778 470.461L191.347 443.466L201.996 411.5L213.361 375.635L224.997 337.193L236.474 297.643L247.337 258.51L257.167 221.305L265.624 187.415L272.404 158.022L257.578 132.005L241.84 112.119L225.757 98.8405L209.875 92.3564L188.13 95.8338L169.022 96.7006M324.978 118.979L316.557 119.818L304.784 126.631L289.938 139.43L272.409 158.011L252.749 181.884L231.629 210.333L209.822 242.36L188.15 276.791L167.454 312.306L148.538 347.535L132.11 381.136L118.736 411.866L108.845 438.655L102.673 460.678L100.311 477.33L101.679 488.273L106.574 493.395M297.283 186.317L301.927 183.578L305.624 180.137L308.28 176.111L309.811 171.624L310.167 166.813L309.355 161.833L307.414 156.825L304.393 151.937L300.391 147.318L295.525 143.102L289.952 139.423L283.829 136.375L277.34 134.051L270.677 132.522L264.029 131.831L257.594 131.997L251.577 133.02L246.142 134.869L241.458 137.504L237.672 140.837L234.893 144.779L233.228 149.216L232.723 154.012L233.396 159.019L235.241 164.081L238.206 169.052L242.198 173.769L247.103 178.089L252.766 181.877L259.012 185.008L265.647 187.385L272.458 188.93L279.228 189.602L285.76 189.381L291.837 188.264L297.286 186.305M272.428 157.993L277.344 134.04L280.286 116.179L281.227 104.77L280.224 99.9254M400.53 300.2L384.312 267.595L362.574 235.951L336.017 206.431L305.579 180.12L272.379 157.988L234.848 144.763L233.672 144.514L197.02 136.857M391.077 176.28L376.896 163.476L357.37 154.872L332.965 150.918L325.108 141.939L315.607 133.757L304.743 126.604L292.842 120.685L280.241 116.162L267.29 113.164L254.365 111.787L241.833 112.065L230.052 114.011L208.669 101.543L193.141 106.644L179.619 113.973L150.915 111.525L136.605 123.444L107.818 129.313L82.6075 140.797L62.9675 156.741M286.251 513.875L302.1 506.767L306.322 504.873L311.674 502.161L330.926 493.231L343.389 484.378L354.167 476.716L371.768 460.568L385.007 439.286L393.305 413.39L396.223 383.603L393.504 350.842L385.098 316.19L371.191 280.856L352.228 246.125L328.84 213.279L301.895 183.528L272.391 157.954L235.208 164.031L197.168 174.852L159.678 190.072L124.119 209.131L91.8205 231.297L63.9305 255.733L41.3885 281.514L24.8698 307.695L14.7735 333.359L11.2405 357.662L14.1689 379.861L23.3836 398.998L25.7949 404.472L27.8727 408.645L35.6178 424.188M373.947 156.912L362.43 147.088L346.005 141.993L332.253 130.19L316.572 119.887L299.41 111.363L281.236 104.85L262.56 100.523L243.901 98.5068L232.913 91.947L209.84 92.3821L194.699 92.6571" stroke="#004FAB" stroke-width="2.4" stroke-linecap="round" stroke-linejoin="round"/>
<g filter="url(#filter2_d_2286_2721)">
<path d="M152 231.378C152 253.491 123.946 275.603 123.946 275.603C123.946 275.603 95.8923 253.491 95.8923 231.378C95.8923 223.559 98.8473 216.06 104.109 210.53C109.37 205.001 116.505 201.895 123.946 201.895C131.386 201.895 138.522 205.001 143.783 210.53C149.044 216.06 152 223.559 152 231.378Z" fill="#004FAB"/>
<path d="M123.946 275.604C124.121 275.827 124.121 275.827 124.122 275.827L124.123 275.826L124.127 275.823L124.142 275.81L124.203 275.762C124.257 275.719 124.337 275.655 124.44 275.57C124.647 275.402 124.949 275.153 125.334 274.828C126.104 274.178 127.203 273.225 128.521 272.012C131.157 269.588 134.673 266.125 138.189 261.967C145.21 253.666 152.283 242.543 152.283 231.379C152.283 223.489 149.301 215.919 143.988 210.336C138.675 204.752 131.466 201.613 123.946 201.613C116.426 201.613 109.216 204.752 103.903 210.336C98.5914 215.919 95.6084 223.489 95.6084 231.379C95.6084 242.543 102.681 253.666 109.702 261.967C113.219 266.125 116.734 269.588 119.37 272.012C120.689 273.225 121.788 274.178 122.557 274.828C122.942 275.153 123.245 275.402 123.452 275.57C123.555 275.655 123.634 275.719 123.688 275.762L123.749 275.81L123.765 275.823L123.769 275.826L123.77 275.827M123.946 275.604C123.77 275.827 123.77 275.827 123.77 275.827M123.946 275.604L124.121 275.827C124.018 275.908 123.873 275.908 123.77 275.827M123.946 275.604L123.77 275.827" stroke="#0F5096" stroke-width="0.566987" stroke-linecap="round" stroke-linejoin="round"/>
</g>
<path d="M144.351 230.355C144.351 219.31 135.396 210.355 124.351 210.355C113.305 210.355 104.351 219.31 104.351 230.355C104.351 241.401 113.305 250.355 124.351 250.355C135.396 250.355 144.351 241.401 144.351 230.355Z" fill="white"/>
<circle cx="116.586" cy="230.092" r="3.06819" fill="#007EE5"/>
<circle cx="124.768" cy="230.092" r="3.06819" fill="#007EE5"/>
<circle cx="132.95" cy="230.092" r="3.06819" fill="#007EE5"/>
<g filter="url(#filter3_d_2286_2721)">
<path d="M389.625 251.438C389.625 267.376 369.404 283.315 369.404 283.315C369.404 283.315 349.183 267.376 349.183 251.438C349.183 245.802 351.313 240.397 355.106 236.411C358.898 232.426 364.041 230.188 369.404 230.188C374.767 230.188 379.91 232.426 383.702 236.411C387.494 240.397 389.625 245.802 389.625 251.438Z" fill="#004FAB"/>
<path d="M369.404 283.316C369.53 283.476 369.531 283.476 369.531 283.476V283.475L369.534 283.473L369.546 283.464L369.59 283.429C369.607 283.415 369.628 283.398 369.653 283.378C369.683 283.354 369.719 283.325 369.76 283.291C369.909 283.17 370.127 282.99 370.405 282.756C370.959 282.287 371.752 281.601 372.702 280.727C374.602 278.979 377.136 276.483 379.67 273.486C384.731 267.503 389.829 259.485 389.829 251.439C389.829 245.752 387.68 240.296 383.85 236.271C380.021 232.247 374.824 229.984 369.404 229.984C363.983 229.984 358.787 232.247 354.958 236.271C351.128 240.296 348.979 245.752 348.979 251.439C348.979 259.485 354.077 267.503 359.137 273.486C361.672 276.483 364.206 278.979 366.106 280.727C367.056 281.601 367.848 282.287 368.403 282.756C368.681 282.99 368.899 283.17 369.048 283.291C369.122 283.352 369.179 283.398 369.218 283.429L369.262 283.464L369.273 283.473L369.276 283.475L369.277 283.476M369.404 283.316C369.277 283.476 369.277 283.476 369.277 283.476M369.404 283.316L369.53 283.476C369.456 283.535 369.352 283.535 369.277 283.476M369.404 283.316L369.277 283.476" stroke="#0F5096" stroke-width="0.408675" stroke-linecap="round" stroke-linejoin="round"/>
</g>
<path d="M383.351 250.855C383.351 243.4 377.306 237.355 369.851 237.355C362.395 237.355 356.351 243.4 356.351 250.855C356.351 258.311 362.395 264.355 369.851 264.355C377.306 264.355 383.351 258.311 383.351 250.855Z" fill="white"/>
<circle cx="364.609" cy="250.676" r="2.07103" fill="#007EE5"/>
<circle cx="370.132" cy="250.676" r="2.07103" fill="#007EE5"/>
<circle cx="375.655" cy="250.676" r="2.07103" fill="#007EE5"/>
<g filter="url(#filter4_d_2286_2721)">
<path d="M225.204 264.746C225.204 276.755 209.967 288.765 209.967 288.765C209.967 288.765 194.731 276.755 194.731 264.746C194.731 260.499 196.337 256.427 199.194 253.424C202.051 250.421 205.927 248.734 209.967 248.734C214.008 248.734 217.884 250.421 220.741 253.424C223.598 256.427 225.204 260.499 225.204 264.746Z" fill="#004FAB"/>
<path d="M209.967 288.767C210.063 288.888 210.063 288.888 210.063 288.888M209.967 288.767C209.872 288.888 209.872 288.888 209.872 288.888M209.967 288.767L210.063 288.888M209.967 288.767L209.872 288.888M210.063 288.888L210.064 288.887L210.066 288.885L210.074 288.879L210.107 288.852C210.121 288.841 210.137 288.828 210.156 288.813C210.179 288.795 210.205 288.773 210.236 288.748C210.348 288.657 210.512 288.521 210.722 288.345C211.14 287.992 211.736 287.474 212.452 286.816C213.884 285.499 215.793 283.618 217.703 281.36C221.516 276.852 225.358 270.811 225.358 264.748C225.358 260.463 223.738 256.352 220.853 253.32C217.967 250.287 214.052 248.582 209.967 248.582C205.883 248.582 201.968 250.287 199.082 253.32C196.197 256.352 194.577 260.463 194.577 264.748C194.577 270.811 198.419 276.852 202.232 281.36C204.142 283.618 206.051 285.499 207.483 286.816C208.199 287.474 208.795 287.992 209.213 288.345C209.423 288.521 209.587 288.657 209.699 288.748C209.755 288.794 209.798 288.829 209.828 288.852L209.861 288.879L209.869 288.885L209.871 288.887L209.872 288.888M210.063 288.888C210.007 288.932 209.928 288.932 209.872 288.888" stroke="#0F5096" stroke-width="0.30793" stroke-linecap="round" stroke-linejoin="round"/>
</g>
<path d="M220.351 263.855C220.351 258.056 215.65 253.355 209.851 253.355C204.052 253.355 199.351 258.056 199.351 263.855C199.351 269.654 204.052 274.355 209.851 274.355C215.65 274.355 220.351 269.654 220.351 263.855Z" fill="white"/>
<circle cx="205.774" cy="263.716" r="1.6108" fill="#007EE5"/>
<circle cx="210.07" cy="263.716" r="1.6108" fill="#007EE5"/>
<circle cx="214.365" cy="263.716" r="1.6108" fill="#007EE5"/>
<g filter="url(#filter5_d_2286_2721)">
<path d="M171.204 85.7467C171.204 97.756 155.967 109.765 155.967 109.765C155.967 109.765 140.731 97.756 140.731 85.7467C140.731 81.5 142.337 77.4272 145.194 74.4243C148.051 71.4214 151.927 69.7344 155.967 69.7344C160.008 69.7344 163.884 71.4214 166.741 74.4243C169.598 77.4272 171.204 81.5 171.204 85.7467Z" fill="#004FAB"/>
<path d="M155.967 109.767C156.063 109.888 156.063 109.888 156.063 109.888M155.967 109.767C155.872 109.888 155.872 109.888 155.872 109.888M155.967 109.767L156.063 109.888M155.967 109.767L155.872 109.888M156.063 109.888L156.064 109.887L156.066 109.885L156.074 109.879L156.107 109.852C156.121 109.841 156.137 109.828 156.156 109.813C156.179 109.795 156.205 109.773 156.236 109.748C156.348 109.657 156.512 109.521 156.722 109.345C157.14 108.992 157.736 108.474 158.452 107.816C159.884 106.499 161.793 104.618 163.703 102.36C167.516 97.8522 171.358 91.811 171.358 85.7483C171.358 81.4631 169.738 77.352 166.853 74.3197C163.967 71.2872 160.052 69.582 155.967 69.582C151.883 69.582 147.968 71.2872 145.082 74.3197C142.197 77.352 140.577 81.4631 140.577 85.7483C140.577 91.811 144.419 97.8522 148.232 102.36C150.142 104.618 152.051 106.499 153.483 107.816C154.199 108.474 154.795 108.992 155.213 109.345C155.423 109.521 155.587 109.657 155.699 109.748C155.755 109.794 155.798 109.829 155.828 109.852L155.861 109.879L155.869 109.885L155.871 109.887L155.872 109.888M156.063 109.888C156.007 109.932 155.928 109.932 155.872 109.888" stroke="#0F5096" stroke-width="0.30793" stroke-linecap="round" stroke-linejoin="round"/>
</g>
<path d="M167.351 85.3555C167.351 79.2803 162.426 74.3555 156.351 74.3555C150.275 74.3555 145.351 79.2803 145.351 85.3555C145.351 91.4306 150.275 96.3555 156.351 96.3555C162.426 96.3555 167.351 91.4306 167.351 85.3555Z" fill="white"/>
<circle cx="152.08" cy="85.2109" r="1.68751" fill="#007EE5"/>
<circle cx="156.58" cy="85.2109" r="1.68751" fill="#007EE5"/>
<circle cx="161.08" cy="85.2109" r="1.68751" fill="#007EE5"/>
<g filter="url(#filter6_d_2286_2721)">
<path d="M325.203 90.7024C325.203 128.354 277.435 166.006 277.435 166.006C277.435 166.006 229.667 128.354 229.667 90.7024C229.667 77.3879 234.7 64.6187 243.658 55.2039C252.616 45.7891 264.766 40.5 277.435 40.5C290.104 40.5 302.254 45.7891 311.212 55.2039C320.171 64.6187 325.203 77.3879 325.203 90.7024Z" fill="#004FAB"/>
<path d="M277.435 166.006L277.125 166.398C277.307 166.541 277.564 166.541 277.745 166.398M277.435 166.006L277.745 166.398M277.435 166.006C277.744 166.398 277.744 166.398 277.745 166.398M277.435 166.006C277.125 166.398 277.125 166.398 277.124 166.398L277.124 166.396L277.116 166.391L277.09 166.37C277.067 166.351 277.032 166.323 276.986 166.287C276.895 166.213 276.758 166.105 276.582 165.961C276.23 165.674 275.716 165.25 275.06 164.696C273.75 163.589 271.878 161.967 269.633 159.902C265.144 155.774 259.157 149.876 253.169 142.796C241.213 128.661 229.167 109.716 229.167 90.7024C229.167 77.2631 234.247 64.3695 243.296 54.8593C252.346 45.3482 264.625 40 277.435 40C290.245 40 302.524 45.3482 311.574 54.8593C320.624 64.3695 325.703 77.2631 325.703 90.7024C325.703 109.716 313.657 128.661 301.702 142.796C295.714 149.876 289.726 155.774 285.237 159.902C282.992 161.967 281.121 163.589 279.81 164.696C279.154 165.25 278.64 165.674 278.288 165.961C278.112 166.105 277.976 166.213 277.884 166.287C277.851 166.313 277.824 166.335 277.802 166.352L277.78 166.37L277.754 166.391L277.747 166.396L277.745 166.398" stroke="#0F5096" stroke-linecap="round" stroke-linejoin="round"/>
</g>
<path d="M311.351 89.3555C311.351 70.5778 296.128 55.3555 277.351 55.3555C258.573 55.3555 243.351 70.5778 243.351 89.3555C243.351 108.133 258.573 123.355 277.351 123.355C296.128 123.355 311.351 108.133 311.351 89.3555Z" fill="white"/>
<circle cx="264.15" cy="88.9073" r="5.21593" fill="#007EE5"/>
<circle cx="278.059" cy="88.9073" r="5.21593" fill="#007EE5"/>
<circle cx="291.968" cy="88.9073" r="5.21593" fill="#007EE5"/>
<defs>
<filter id="filter0_d_2286_2721" x="469.729" y="194.004" width="194.464" height="160.445" filterUnits="userSpaceOnUse" color-interpolation-filters="sRGB">
<feFlood flood-opacity="0" result="BackgroundImageFix"/>
<feColorMatrix in="SourceAlpha" type="matrix" values="0 0 0 0 0 0 0 0 0 0 0 0 0 0 0 0 0 0 127 0" result="hardAlpha"/>
<feOffset/>
<feGaussianBlur stdDeviation="6"/>
<feColorMatrix type="matrix" values="0 0 0 0 0.814727 0 0 0 0 0.899872 0 0 0 0 0.999823 0 0 0 0.22 0"/>
<feBlend mode="normal" in2="BackgroundImageFix" result="effect1_dropShadow_2286_2721"/>
<feBlend mode="normal" in="SourceGraphic" in2="effect1_dropShadow_2286_2721" result="shape"/>
</filter>
<filter id="filter1_d_2286_2721" x="414.511" y="74.3281" width="150.615" height="127.973" filterUnits="userSpaceOnUse" color-interpolation-filters="sRGB">
<feFlood flood-opacity="0" result="BackgroundImageFix"/>
<feColorMatrix in="SourceAlpha" type="matrix" values="0 0 0 0 0 0 0 0 0 0 0 0 0 0 0 0 0 0 127 0" result="hardAlpha"/>
<feOffset/>
<feGaussianBlur stdDeviation="6"/>
<feColorMatrix type="matrix" values="0 0 0 0 0.814727 0 0 0 0 0.899872 0 0 0 0 0.999823 0 0 0 0.18 0"/>
<feBlend mode="normal" in2="BackgroundImageFix" result="effect1_dropShadow_2286_2721"/>
<feBlend mode="normal" in="SourceGraphic" in2="effect1_dropShadow_2286_2721" result="shape"/>
</filter>
<filter id="filter2_d_2286_2721" x="66.9756" y="178.649" width="113.941" height="131.543" filterUnits="userSpaceOnUse" color-interpolation-filters="sRGB">
<feFlood flood-opacity="0" result="BackgroundImageFix"/>
<feColorMatrix in="SourceAlpha" type="matrix" values="0 0 0 0 0 0 0 0 0 0 0 0 0 0 0 0 0 0 127 0" result="hardAlpha"/>
<feOffset dy="5.66987"/>
<feGaussianBlur stdDeviation="14.1747"/>
<feComposite in2="hardAlpha" operator="out"/>
<feColorMatrix type="matrix" values="0 0 0 0 0 0 0 0 0 0 0 0 0 0 0 0 0 0 0.07 0"/>
<feBlend mode="normal" in2="BackgroundImageFix" result="effect1_dropShadow_2286_2721"/>
<feBlend mode="normal" in="SourceGraphic" in2="effect1_dropShadow_2286_2721" result="shape"/>
</filter>
<filter id="filter3_d_2286_2721" x="328.34" y="213.434" width="82.1264" height="94.8129" filterUnits="userSpaceOnUse" color-interpolation-filters="sRGB">
<feFlood flood-opacity="0" result="BackgroundImageFix"/>
<feColorMatrix in="SourceAlpha" type="matrix" values="0 0 0 0 0 0 0 0 0 0 0 0 0 0 0 0 0 0 127 0" result="hardAlpha"/>
<feOffset dy="4.08675"/>
<feGaussianBlur stdDeviation="10.2169"/>
<feComposite in2="hardAlpha" operator="out"/>
<feColorMatrix type="matrix" values="0 0 0 0 0 0 0 0 0 0 0 0 0 0 0 0 0 0 0.07 0"/>
<feBlend mode="normal" in2="BackgroundImageFix" result="effect1_dropShadow_2286_2721"/>
<feBlend mode="normal" in="SourceGraphic" in2="effect1_dropShadow_2286_2721" result="shape"/>
</filter>
<filter id="filter4_d_2286_2721" x="179.026" y="236.112" width="61.8821" height="71.4375" filterUnits="userSpaceOnUse" color-interpolation-filters="sRGB">
<feFlood flood-opacity="0" result="BackgroundImageFix"/>
<feColorMatrix in="SourceAlpha" type="matrix" values="0 0 0 0 0 0 0 0 0 0 0 0 0 0 0 0 0 0 127 0" result="hardAlpha"/>
<feOffset dy="3.0793"/>
<feGaussianBlur stdDeviation="7.69825"/>
<feComposite in2="hardAlpha" operator="out"/>
<feColorMatrix type="matrix" values="0 0 0 0 0 0 0 0 0 0 0 0 0 0 0 0 0 0 0.07 0"/>
<feBlend mode="normal" in2="BackgroundImageFix" result="effect1_dropShadow_2286_2721"/>
<feBlend mode="normal" in="SourceGraphic" in2="effect1_dropShadow_2286_2721" result="shape"/>
</filter>
<filter id="filter5_d_2286_2721" x="125.026" y="57.1125" width="61.8821" height="71.4375" filterUnits="userSpaceOnUse" color-interpolation-filters="sRGB">
<feFlood flood-opacity="0" result="BackgroundImageFix"/>
<feColorMatrix in="SourceAlpha" type="matrix" values="0 0 0 0 0 0 0 0 0 0 0 0 0 0 0 0 0 0 127 0" result="hardAlpha"/>
<feOffset dy="3.0793"/>
<feGaussianBlur stdDeviation="7.69825"/>
<feComposite in2="hardAlpha" operator="out"/>
<feColorMatrix type="matrix" values="0 0 0 0 0 0 0 0 0 0 0 0 0 0 0 0 0 0 0.07 0"/>
<feBlend mode="normal" in2="BackgroundImageFix" result="effect1_dropShadow_2286_2721"/>
<feBlend mode="normal" in="SourceGraphic" in2="effect1_dropShadow_2286_2721" result="shape"/>
</filter>
<filter id="filter6_d_2286_2721" x="180.395" y="0.882711" width="194.08" height="224.047" filterUnits="userSpaceOnUse" color-interpolation-filters="sRGB">
<feFlood flood-opacity="0" result="BackgroundImageFix"/>
<feColorMatrix in="SourceAlpha" type="matrix" values="0 0 0 0 0 0 0 0 0 0 0 0 0 0 0 0 0 0 127 0" result="hardAlpha"/>
<feOffset dy="9.65431"/>
<feGaussianBlur stdDeviation="24.1358"/>
<feComposite in2="hardAlpha" operator="out"/>
<feColorMatrix type="matrix" values="0 0 0 0 0 0 0 0 0 0 0 0 0 0 0 0 0 0 0.07 0"/>
<feBlend mode="normal" in2="BackgroundImageFix" result="effect1_dropShadow_2286_2721"/>
<feBlend mode="normal" in="SourceGraphic" in2="effect1_dropShadow_2286_2721" result="shape"/>
</filter>
</defs>
</svg>
