<svg width="724" height="585" viewBox="0 0 724 585" fill="none" xmlns="http://www.w3.org/2000/svg">
  <g filter="url(#filter0_d_277_41540)">
    <path
      d="M557.575 314.092L571.638 316.652L574.719 323.767L560.656 321.206C553.455 319.895 547.97 315.361 545.414 309.46L542.333 302.346C544.889 308.247 550.374 312.78 557.575 314.092Z"
      fill="#102A4C" />
    <path
      d="M574.846 324.116C574.909 324.093 574.965 324.053 575.009 323.999C575.094 323.892 575.113 323.746 575.059 323.621L571.978 316.507C571.929 316.394 571.827 316.312 571.705 316.29L557.642 313.729C550.861 312.494 545.265 308.184 542.673 302.201C542.592 302.013 542.369 301.929 542.187 302.008C541.999 302.09 541.912 302.307 541.994 302.495C541.995 302.497 541.995 302.498 541.997 302.5L545.075 309.609C547.765 315.821 553.565 320.293 560.59 321.572L574.653 324.133C574.719 324.144 574.785 324.138 574.846 324.116ZM571.378 316.982L574.104 323.279L560.723 320.843C553.942 319.608 548.346 315.298 545.754 309.314L544.787 307.081C547.877 310.871 552.365 313.52 557.509 314.457L571.378 316.982Z"
      fill="#1276E2" />
    <path
      d="M579.595 334.542C580.788 334.76 582.127 334.426 583.13 333.454L595.833 321.06L598.913 328.174L586.211 340.568C585.208 341.54 583.868 341.874 582.675 341.656C581.564 341.454 580.579 340.774 580.108 339.687L577.027 332.572C577.498 333.659 578.483 334.34 579.595 334.542Z"
      fill="#102A4C" />
    <path
      d="M584.888 341.823C585.47 341.611 586.011 341.277 586.469 340.833L599.172 328.438C599.282 328.331 599.314 328.166 599.254 328.025L596.173 320.911C596.124 320.8 596.024 320.719 595.905 320.695C595.785 320.671 595.662 320.708 595.575 320.793L582.873 333.187C582.016 334.016 580.816 334.387 579.662 334.176C578.603 333.984 577.767 333.345 577.368 332.424C577.287 332.236 577.063 332.154 576.881 332.232C576.693 332.313 576.607 332.531 576.688 332.718L579.769 339.833C580.269 340.985 581.304 341.782 582.61 342.02C583.379 342.159 584.165 342.086 584.888 341.823ZM598.473 328.086L585.953 340.302C585.096 341.131 583.895 341.501 582.742 341.291C581.683 341.098 580.847 340.459 580.448 339.538L578.242 334.444C578.628 334.663 579.061 334.82 579.528 334.905C580.918 335.157 582.36 334.714 583.389 333.718L595.707 321.699L598.473 328.086Z"
      fill="#1276E2" />
    <path
      d="M662.114 333.129C674.048 335.302 686.178 327.804 689.196 316.371L706.703 250.058C707.9 245.528 707.485 241.062 705.806 237.185L708.887 244.299C710.566 248.176 710.98 252.642 709.784 257.173L692.277 323.485C689.259 334.918 677.129 342.416 665.195 340.243L598.914 328.173L595.833 321.059L662.114 333.129Z"
      fill="#102A4C" />
    <path
      d="M677.662 339.506C684.815 336.903 690.658 331.066 692.635 323.58L710.142 257.267C711.322 252.796 711.006 248.261 709.227 244.152L706.146 237.038C706.065 236.85 705.847 236.763 705.659 236.846C705.471 236.927 705.385 237.145 705.467 237.333C707.179 241.287 707.483 245.655 706.346 249.964L688.839 316.277C685.874 327.506 673.915 334.902 662.181 332.765L595.9 320.695C595.765 320.671 595.628 320.723 595.544 320.829C595.459 320.936 595.44 321.081 595.494 321.206L598.575 328.32C598.624 328.434 598.726 328.515 598.848 328.538L665.128 340.608C669.418 341.389 673.737 340.934 677.662 339.506ZM707.589 242.234L708.547 244.446C710.26 248.401 710.564 252.769 709.426 257.078L691.919 323.391C688.955 334.619 676.997 342.016 665.261 339.879L599.175 327.844L596.448 321.547L662.048 333.493C674.154 335.697 686.494 328.059 689.554 316.465L707.061 250.153C707.762 247.502 707.935 244.828 707.589 242.234Z"
      fill="#1276E2" />
    <path
      d="M586.01 206.39C574.076 204.217 561.963 211.717 558.945 223.151L541.437 289.464C538.419 300.897 545.641 311.92 557.575 314.093L571.638 316.654L576.931 332.325C577.353 333.556 578.401 334.325 579.594 334.542C580.788 334.759 582.127 334.426 583.13 333.454L595.833 321.06L662.114 333.13C674.048 335.304 686.178 327.805 689.196 316.372L706.703 250.059C709.722 238.626 702.482 227.601 690.548 225.428L586.01 206.39Z"
      fill="#0F1B2D" />
    <path
      d="M674.581 332.392C681.734 329.789 687.577 323.953 689.554 316.466L707.061 250.154C708.52 244.628 707.68 239 704.697 234.307C701.6 229.436 696.599 226.153 690.615 225.063L586.076 206.025C573.979 203.822 561.648 211.462 558.587 223.057L541.079 289.37C539.619 294.9 540.458 300.532 543.442 305.225C546.534 310.09 551.53 313.368 557.509 314.457L571.357 316.979L576.581 332.443C577.022 333.73 578.123 334.65 579.528 334.907C580.917 335.159 582.36 334.715 583.388 333.72L595.955 321.458L662.048 333.494C666.337 334.276 670.656 333.821 674.581 332.392ZM586.01 206.39L585.943 206.754L690.482 225.791C696.261 226.844 701.087 230.009 704.072 234.703C706.943 239.221 707.751 244.64 706.345 249.965L688.838 316.278C685.873 327.506 673.915 334.903 662.18 332.766L595.899 320.696C595.781 320.674 595.66 320.711 595.574 320.795L582.872 333.189C582.015 334.018 580.815 334.388 579.661 334.178C578.524 333.971 577.634 333.233 577.282 332.205L571.99 316.535C571.946 316.408 571.837 316.314 571.705 316.289L557.642 313.728C551.869 312.677 547.048 309.516 544.068 304.828C541.196 300.311 540.389 294.888 541.796 289.558L559.303 223.246C562.267 212.017 574.218 204.619 585.943 206.754L586.01 206.39Z"
      fill="#1276E2" />
    <path
      d="M575.906 254.802L577.926 243.343L579.655 243.648L578.777 248.628L584.49 249.635L585.368 244.655L587.103 244.961L585.082 256.42L583.348 256.115L584.229 251.118L578.516 250.11L577.635 255.107L575.906 254.802ZM590.882 257.622C590.076 257.48 589.406 257.171 588.87 256.696C588.335 256.221 587.96 255.622 587.745 254.899C587.53 254.177 587.501 253.372 587.657 252.484C587.814 251.592 588.118 250.842 588.568 250.233C589.017 249.624 589.575 249.187 590.241 248.924C590.907 248.66 591.642 248.6 592.448 248.742C593.254 248.884 593.924 249.193 594.46 249.668C594.995 250.143 595.37 250.744 595.584 251.47C595.799 252.196 595.827 253.005 595.67 253.897C595.513 254.785 595.211 255.531 594.762 256.137C594.312 256.742 593.755 257.177 593.089 257.44C592.424 257.703 591.688 257.764 590.882 257.622ZM591.135 256.218C591.658 256.311 592.115 256.249 592.507 256.033C592.898 255.818 593.217 255.495 593.462 255.065C593.711 254.636 593.884 254.145 593.981 253.593C594.078 253.045 594.083 252.526 593.996 252.038C593.913 251.546 593.725 251.131 593.431 250.79C593.137 250.45 592.729 250.234 592.207 250.142C591.681 250.049 591.22 250.112 590.824 250.331C590.431 250.55 590.11 250.876 589.861 251.309C589.616 251.739 589.445 252.228 589.348 252.776C589.251 253.328 589.244 253.848 589.327 254.336C589.414 254.824 589.605 255.237 589.899 255.574C590.197 255.911 590.609 256.126 591.135 256.218ZM598.215 258.736L597.201 249.695L598.93 250L599.502 256.609L599.586 256.624L602.388 250.61L604.117 250.915L604.688 257.495L604.772 257.509L607.553 251.521L609.282 251.826L605.243 259.975L603.536 259.674L602.885 253.161L602.756 253.138L599.916 259.036L598.215 258.736ZM616.767 262.186C615.936 262.04 615.253 261.725 614.718 261.242C614.189 260.756 613.822 260.151 613.619 259.427C613.416 258.703 613.39 257.91 613.542 257.048C613.696 256.175 613.996 255.434 614.442 254.824C614.889 254.21 615.444 253.768 616.107 253.496C616.771 253.225 617.507 253.16 618.316 253.303C618.969 253.418 619.53 253.642 619.998 253.975C620.467 254.304 620.82 254.712 621.057 255.2C621.298 255.689 621.397 256.227 621.355 256.816L619.727 256.529C619.708 256.11 619.564 255.727 619.295 255.38C619.029 255.033 618.629 254.812 618.096 254.718C617.629 254.636 617.199 254.687 616.805 254.871C616.416 255.053 616.084 255.352 615.81 255.769C615.537 256.183 615.347 256.695 615.239 257.307C615.129 257.934 615.128 258.491 615.238 258.98C615.348 259.469 615.555 259.868 615.858 260.18C616.164 260.491 616.554 260.689 617.028 260.772C617.345 260.828 617.643 260.821 617.92 260.751C618.203 260.678 618.451 260.546 618.665 260.357C618.883 260.169 619.054 259.926 619.18 259.629L620.808 259.916C620.651 260.461 620.382 260.925 620.003 261.309C619.624 261.692 619.159 261.964 618.607 262.124C618.06 262.285 617.446 262.306 616.767 262.186ZM624.412 263.551C623.868 263.455 623.393 263.268 622.988 262.989C622.584 262.706 622.288 262.348 622.099 261.915C621.914 261.482 621.871 260.984 621.97 260.421C622.055 259.936 622.219 259.553 622.461 259.273C622.703 258.992 622.998 258.788 623.347 258.662C623.697 258.535 624.075 258.459 624.484 258.435C624.892 258.411 625.303 258.41 625.719 258.434C626.244 258.465 626.67 258.49 626.998 258.509C627.326 258.525 627.57 258.5 627.732 258.437C627.893 258.373 627.991 258.24 628.027 258.039L628.034 257.999C628.12 257.511 628.049 257.108 627.82 256.79C627.595 256.474 627.212 256.268 626.671 256.173C626.108 256.073 625.642 256.12 625.273 256.313C624.909 256.502 624.639 256.737 624.462 257.018L622.953 256.382C623.232 255.893 623.578 255.52 623.993 255.262C624.412 255.001 624.869 254.839 625.365 254.777C625.861 254.71 626.369 254.723 626.887 254.814C627.231 254.875 627.587 254.98 627.957 255.13C628.331 255.277 628.667 255.486 628.965 255.758C629.267 256.03 629.492 256.383 629.638 256.817C629.786 257.247 629.804 257.775 629.694 258.402L628.687 264.109L627.053 263.821L627.26 262.646L627.193 262.634C627.047 262.831 626.847 263.015 626.594 263.186C626.341 263.357 626.032 263.481 625.669 263.56C625.305 263.638 624.886 263.635 624.412 263.551ZM625.013 262.273C625.475 262.354 625.887 262.333 626.247 262.208C626.612 262.083 626.905 261.889 627.129 261.625C627.357 261.357 627.501 261.054 627.561 260.714L627.756 259.606C627.686 259.655 627.56 259.691 627.38 259.713C627.203 259.732 627.003 259.741 626.78 259.74C626.558 259.735 626.342 259.73 626.131 259.724C625.922 259.714 625.746 259.706 625.605 259.7C625.273 259.684 624.964 259.701 624.679 259.75C624.397 259.801 624.159 259.903 623.967 260.057C623.778 260.209 623.658 260.434 623.605 260.732C623.532 261.146 623.63 261.487 623.899 261.753C624.168 262.016 624.539 262.189 625.013 262.273ZM633.315 259.663L632.415 264.766L630.742 264.471L632.258 255.877L633.864 256.16L633.617 257.559L633.723 257.578C634.001 257.157 634.375 256.846 634.846 256.645C635.319 256.444 635.879 256.4 636.524 256.514C637.11 256.617 637.601 256.831 637.998 257.154C638.395 257.474 638.673 257.896 638.831 258.42C638.988 258.944 639.005 259.561 638.88 260.27L637.916 265.736L636.243 265.441L637.171 260.176C637.281 259.553 637.204 259.038 636.942 258.63C636.68 258.218 636.265 257.962 635.698 257.862C635.31 257.794 634.95 257.817 634.619 257.932C634.291 258.047 634.01 258.251 633.778 258.545C633.55 258.835 633.395 259.208 633.315 259.663ZM647.867 255.675L645.846 267.135L644.117 266.83L646.138 255.37L647.867 255.675ZM654.626 263.421L653.726 268.524L652.053 268.229L654.074 256.77L655.725 257.061L654.973 261.324L655.079 261.343C655.362 260.916 655.735 260.603 656.197 260.404C656.659 260.204 657.224 260.164 657.891 260.281C658.481 260.385 658.974 260.597 659.372 260.917C659.773 261.238 660.052 261.66 660.21 262.184C660.372 262.705 660.39 263.324 660.263 264.04L659.299 269.507L657.626 269.212L658.555 263.946C658.666 263.316 658.59 262.799 658.326 262.395C658.064 261.987 657.643 261.732 657.065 261.63C656.67 261.56 656.3 261.582 655.958 261.694C655.618 261.808 655.331 262.011 655.094 262.304C654.862 262.593 654.706 262.966 654.626 263.421ZM665.032 270.697C664.186 270.547 663.488 270.238 662.94 269.768C662.397 269.295 662.017 268.699 661.801 267.981C661.59 267.259 661.563 266.452 661.72 265.561C661.876 264.68 662.177 263.933 662.623 263.32C663.074 262.707 663.629 262.264 664.288 261.992C664.952 261.72 665.682 261.655 666.481 261.796C666.966 261.881 667.421 262.044 667.848 262.285C668.275 262.526 668.639 262.85 668.94 263.257C669.242 263.664 669.449 264.16 669.561 264.745C669.674 265.326 669.661 266.007 669.524 266.786L669.419 267.38L662.587 266.175L662.808 264.921L668.001 265.837C668.078 265.397 668.058 264.991 667.938 264.62C667.82 264.246 667.616 263.931 667.326 263.676C667.04 263.421 666.681 263.256 666.248 263.18C665.778 263.097 665.347 263.14 664.956 263.31C664.569 263.476 664.248 263.727 663.992 264.063C663.741 264.396 663.578 264.776 663.502 265.205L663.33 266.185C663.228 266.759 663.243 267.266 663.373 267.704C663.507 268.143 663.739 268.501 664.067 268.778C664.395 269.052 664.804 269.231 665.293 269.317C665.61 269.373 665.907 269.38 666.184 269.336C666.461 269.289 666.711 269.191 666.934 269.041C667.156 268.892 667.342 268.692 667.49 268.441L669.023 269.006C668.814 269.45 668.514 269.818 668.124 270.111C667.738 270.401 667.282 270.599 666.756 270.706C666.233 270.81 665.659 270.807 665.032 270.697ZM674.127 260.306L672.106 271.765L670.433 271.47L672.454 260.01L674.127 260.306ZM673.616 275.354L675.699 263.537L677.333 263.825L677.088 265.218L677.227 265.243C677.356 265.081 677.532 264.898 677.757 264.696C677.981 264.493 678.271 264.332 678.626 264.214C678.982 264.092 679.427 264.079 679.96 264.173C680.654 264.295 681.243 264.58 681.725 265.026C682.208 265.473 682.546 266.054 682.739 266.769C682.936 267.484 682.953 268.306 682.789 269.235C682.625 270.164 682.33 270.933 681.903 271.542C681.477 272.148 680.962 272.582 680.358 272.845C679.755 273.104 679.106 273.172 678.412 273.05C677.89 272.958 677.478 272.795 677.177 272.561C676.88 272.328 676.659 272.077 676.514 271.81C676.369 271.542 676.262 271.307 676.193 271.107L676.093 271.089L675.289 275.649L673.616 275.354ZM676.581 268.123C676.474 268.727 676.469 269.273 676.564 269.759C676.659 270.245 676.85 270.646 677.136 270.962C677.424 271.274 677.808 271.472 678.289 271.557C678.789 271.645 679.23 271.587 679.613 271.381C679.996 271.171 680.313 270.852 680.566 270.424C680.822 269.996 681.001 269.495 681.102 268.92C681.202 268.353 681.206 267.829 681.114 267.347C681.026 266.866 680.835 266.465 680.542 266.144C680.252 265.824 679.855 265.62 679.352 265.531C678.867 265.445 678.434 265.498 678.055 265.689C677.679 265.88 677.365 266.184 677.115 266.602C676.864 267.019 676.686 267.526 676.581 268.123ZM608.447 288.234C608.197 288.19 607.973 288.129 607.775 288.052C607.577 287.978 607.431 287.91 607.338 287.848L607.983 286.548C608.274 286.684 608.54 286.767 608.781 286.798C609.022 286.829 609.248 286.777 609.46 286.641C609.677 286.506 609.889 286.261 610.098 285.905L610.406 285.371L608.796 276.11L610.587 276.426L611.587 283.479L611.677 283.495L615.029 277.209L616.826 277.526L611.566 286.643C611.323 287.062 611.047 287.404 610.739 287.669C610.43 287.937 610.086 288.119 609.708 288.214C609.33 288.309 608.909 288.315 608.447 288.234ZM620.007 287.128C619.201 286.985 618.53 286.677 617.995 286.202C617.459 285.726 617.084 285.128 616.869 284.405C616.654 283.682 616.625 282.877 616.782 281.989C616.939 281.098 617.242 280.348 617.692 279.738C618.142 279.129 618.699 278.693 619.365 278.429C620.031 278.166 620.767 278.105 621.572 278.248C622.378 278.39 623.049 278.698 623.584 279.173C624.12 279.649 624.494 280.249 624.709 280.976C624.923 281.702 624.952 282.511 624.794 283.402C624.638 284.29 624.335 285.037 623.886 285.642C623.437 286.248 622.879 286.682 622.214 286.946C621.548 287.209 620.812 287.27 620.007 287.128ZM620.26 285.724C620.782 285.816 621.239 285.754 621.631 285.539C622.023 285.323 622.341 285.001 622.586 284.571C622.835 284.142 623.008 283.651 623.105 283.099C623.202 282.55 623.207 282.032 623.12 281.544C623.037 281.052 622.849 280.636 622.555 280.296C622.262 279.956 621.853 279.739 621.331 279.647C620.805 279.555 620.344 279.618 619.948 279.836C619.555 280.055 619.234 280.382 618.985 280.814C618.74 281.244 618.569 281.734 618.472 282.282C618.375 282.834 618.368 283.354 618.451 283.842C618.538 284.33 618.729 284.743 619.023 285.079C619.322 285.416 619.734 285.631 620.26 285.724ZM631.811 285.355L632.698 280.325L634.376 280.621L632.861 289.215L631.216 288.925L631.478 287.437L631.389 287.421C631.11 287.845 630.725 288.171 630.235 288.4C629.749 288.626 629.183 288.682 628.538 288.568C627.986 288.471 627.519 288.264 627.136 287.946C626.758 287.626 626.49 287.203 626.333 286.679C626.179 286.156 626.164 285.54 626.289 284.831L627.253 279.365L628.926 279.66L627.998 284.925C627.894 285.511 627.975 286.006 628.238 286.41C628.501 286.814 628.892 287.062 629.411 287.153C629.724 287.208 630.049 287.185 630.387 287.083C630.728 286.981 631.029 286.79 631.29 286.509C631.555 286.229 631.728 285.844 631.811 285.355ZM637.346 286.608L637.365 286.502C637.495 285.809 637.661 285.269 637.864 284.882C638.071 284.495 638.319 284.197 638.61 283.987C638.901 283.776 639.239 283.597 639.622 283.45C639.871 283.347 640.101 283.224 640.311 283.08C640.521 282.937 640.698 282.76 640.842 282.551C640.987 282.342 641.084 282.099 641.132 281.823C641.191 281.491 641.163 281.19 641.049 280.92C640.935 280.65 640.759 280.427 640.521 280.25C640.288 280.071 640.012 279.953 639.695 279.897C639.408 279.846 639.123 279.858 638.841 279.931C638.559 280.004 638.31 280.153 638.093 280.376C637.878 280.596 637.722 280.901 637.626 281.292L635.925 280.992C636.069 280.325 636.339 279.788 636.734 279.38C637.13 278.969 637.606 278.69 638.163 278.542C638.723 278.395 639.317 278.376 639.944 278.487C640.63 278.608 641.208 278.842 641.677 279.191C642.147 279.535 642.484 279.962 642.686 280.47C642.893 280.976 642.943 281.533 642.836 282.141C642.762 282.559 642.631 282.924 642.441 283.237C642.252 283.546 642.013 283.81 641.724 284.028C641.44 284.247 641.112 284.428 640.74 284.57C640.388 284.712 640.095 284.871 639.86 285.049C639.628 285.228 639.442 285.454 639.301 285.73C639.16 286.005 639.048 286.356 638.965 286.784L638.947 286.89L637.346 286.608ZM637.591 290.159C637.285 290.105 637.041 289.951 636.86 289.695C636.678 289.436 636.615 289.152 636.67 288.843C636.723 288.537 636.88 288.295 637.138 288.117C637.397 287.936 637.679 287.872 637.985 287.926C638.287 287.98 638.529 288.136 638.71 288.395C638.896 288.65 638.962 288.931 638.908 289.237C638.872 289.442 638.786 289.622 638.651 289.775C638.521 289.925 638.363 290.035 638.177 290.107C637.992 290.178 637.796 290.195 637.591 290.159Z"
      fill="#1276E2" />
  </g>
  <g filter="url(#filter1_d_277_41540)">
    <path
      d="M600.466 163.248L590.416 166.001L588.631 171.363L598.681 168.61C603.827 167.2 607.522 163.56 609.003 159.112L610.788 153.75C609.307 158.198 605.612 161.838 600.466 163.248Z"
      fill="#102A4C" />
    <path
      d="M588.561 171.624C588.513 171.611 588.469 171.586 588.434 171.549C588.366 171.477 588.343 171.373 588.374 171.278L590.159 165.916C590.188 165.831 590.257 165.765 590.344 165.741L600.394 162.988C605.24 161.66 609.03 158.175 610.531 153.665C610.578 153.523 610.735 153.449 610.873 153.494C611.014 153.542 611.091 153.694 611.043 153.836C611.043 153.837 611.043 153.838 611.042 153.84L609.258 159.198C607.699 163.88 603.771 167.496 598.751 168.871L588.702 171.624C588.654 171.636 588.606 171.636 588.561 171.624ZM590.626 166.223L589.046 170.969L598.609 168.35C603.454 167.022 607.244 163.537 608.746 159.027L609.307 157.344C607.303 160.292 604.213 162.501 600.536 163.508L590.626 166.223Z"
      fill="#1F93FF" />
    <path
      d="M585.774 179.496C584.922 179.73 583.928 179.573 583.137 178.931L573.126 170.737L571.341 176.099L581.352 184.293C582.143 184.935 583.136 185.092 583.989 184.858C584.783 184.641 585.456 184.084 585.729 183.265L587.514 177.903C587.241 178.722 586.569 179.279 585.774 179.496Z"
      fill="#102A4C" />
    <path
      d="M582.393 185.12C581.957 185.003 581.543 184.794 581.182 184.501L571.17 176.307C571.083 176.236 571.049 176.119 571.084 176.013L572.87 170.651C572.898 170.567 572.965 170.502 573.05 170.477C573.136 170.452 573.228 170.471 573.296 170.527L583.308 178.721C583.983 179.268 584.878 179.461 585.703 179.235C586.459 179.028 587.026 178.511 587.257 177.817C587.304 177.675 587.461 177.601 587.599 177.646C587.74 177.693 587.817 177.846 587.769 177.987L585.984 183.349C585.695 184.218 584.993 184.862 584.06 185.118C583.51 185.268 582.935 185.265 582.393 185.12ZM571.655 176.007L581.523 184.083C582.198 184.63 583.094 184.823 583.918 184.597C584.674 184.39 585.241 183.873 585.472 183.179L586.751 179.339C586.484 179.523 586.18 179.664 585.846 179.756C584.853 180.027 583.777 179.796 582.967 179.139L573.258 171.193L571.655 176.007Z"
      fill="#1F93FF" />
    <path
      d="M525.759 183.714C517.231 186.05 507.946 181.376 505.028 173.265L488.101 126.221C486.944 123.008 486.962 119.738 487.934 116.816L486.149 122.178C485.176 125.1 485.159 128.37 486.316 131.584L503.242 178.627C506.161 186.738 515.446 191.412 523.974 189.076L571.34 176.1L573.126 170.738L525.759 183.714Z"
      fill="#102A4C" />
    <path
      d="M514.874 189.331C509.514 187.895 504.9 184.028 502.989 178.717L486.062 131.673C484.921 128.502 484.862 125.188 485.893 122.091L487.679 116.729C487.726 116.588 487.879 116.511 488.02 116.559C488.162 116.606 488.238 116.759 488.191 116.9C487.198 119.881 487.255 123.072 488.355 126.129L505.282 173.173C508.148 181.138 517.302 185.75 525.688 183.452L573.054 170.476C573.15 170.45 573.253 170.479 573.321 170.551C573.39 170.623 573.413 170.727 573.381 170.822L571.596 176.184C571.568 176.269 571.498 176.335 571.412 176.359L524.046 189.336C520.981 190.175 517.815 190.119 514.874 189.331ZM486.961 120.595L486.406 122.262C485.413 125.242 485.47 128.434 486.57 131.49L503.497 178.534C506.362 186.5 515.517 191.112 523.903 188.815L571.13 175.876L572.71 171.13L525.831 183.973C517.179 186.343 507.733 181.58 504.774 173.355L487.847 126.311C487.17 124.431 486.874 122.5 486.961 120.595Z"
      fill="#1F93FF" />
    <path
      d="M572.974 86.8408C581.502 84.5045 590.774 89.1819 593.693 97.2932L610.62 144.337C613.539 152.448 608.994 160.911 600.466 163.248L590.416 166.001L587.568 177.717C587.34 178.638 586.628 179.263 585.775 179.497C584.922 179.73 583.928 179.573 583.138 178.931L573.126 170.738L525.759 183.714C517.231 186.051 507.946 181.376 505.028 173.265L488.101 126.222C485.183 118.111 489.739 109.644 498.268 107.308L572.974 86.8408Z"
      fill="#0F1B2D" />
    <path
      d="M516.659 183.969C511.299 182.533 506.685 178.666 504.774 173.355L487.847 126.312C486.436 122.391 486.688 118.251 488.557 114.653C490.496 110.919 493.919 108.218 498.196 107.046L572.902 86.5794C581.547 84.211 590.987 88.9756 593.947 97.2008L610.874 144.245C612.285 148.168 612.034 152.311 610.165 155.909C608.229 159.638 604.809 162.336 600.536 163.507L590.64 166.218L587.829 177.78C587.591 178.742 586.849 179.481 585.846 179.756C584.853 180.028 583.777 179.797 582.967 179.139L573.062 171.034L525.83 183.973C522.765 184.813 519.6 184.757 516.659 183.969ZM572.974 86.8396L573.045 87.0999L498.339 107.566C494.209 108.698 490.905 111.303 489.036 114.902C487.238 118.365 486.996 122.352 488.355 126.129L505.281 173.173C508.148 181.138 517.302 185.75 525.688 183.453L573.054 170.476C573.138 170.453 573.229 170.472 573.296 170.528L583.308 178.721C583.983 179.269 584.878 179.461 585.703 179.235C586.515 179.012 587.114 178.42 587.305 177.651L590.153 165.936C590.176 165.841 590.249 165.765 590.344 165.739L600.393 162.986C604.519 161.856 607.819 159.254 609.686 155.66C611.484 152.197 611.725 148.208 610.365 144.427L593.439 97.3835C590.573 89.4176 581.424 84.8048 573.045 87.1001L572.974 86.8396Z"
      fill="#1F93FF" />
    <path
      d="M532.839 149.82L530.062 138.52L531.747 138.027L532.954 142.938L538.523 141.311L537.316 136.401L539.006 135.907L541.784 147.207L540.093 147.701L538.882 142.774L533.314 144.4L534.525 149.328L532.839 149.82ZM547.591 145.694C546.765 145.935 546.011 145.964 545.327 145.782C544.645 145.594 544.063 145.222 543.579 144.666C543.098 144.105 542.75 143.384 542.534 142.505C542.321 141.637 542.292 140.825 542.45 140.07C542.611 139.313 542.934 138.664 543.421 138.124C543.912 137.583 544.546 137.198 545.324 136.971C545.797 136.833 546.274 136.778 546.757 136.807C547.239 136.835 547.698 136.967 548.134 137.203C548.57 137.438 548.956 137.796 549.293 138.278C549.628 138.755 549.891 139.378 550.079 140.147L550.223 140.732L543.564 142.677L543.26 141.441L548.321 139.963C548.215 139.529 548.033 139.17 547.776 138.886C547.519 138.599 547.208 138.404 546.843 138.301C546.483 138.198 546.092 138.207 545.67 138.331C545.212 138.464 544.84 138.695 544.554 139.023C544.271 139.346 544.082 139.717 543.986 140.135C543.892 140.549 543.898 140.967 544.002 141.39L544.239 142.356C544.378 142.922 544.595 143.376 544.889 143.716C545.187 144.054 545.539 144.277 545.947 144.382C546.354 144.484 546.796 144.465 547.272 144.326C547.581 144.236 547.852 144.11 548.085 143.947C548.317 143.781 548.503 143.58 548.644 143.346C548.786 143.111 548.873 142.847 548.906 142.554L550.518 142.384C550.508 142.88 550.385 143.348 550.15 143.787C549.918 144.222 549.585 144.605 549.152 144.936C548.722 145.263 548.201 145.516 547.591 145.694ZM551.636 132.217L554.414 143.517L552.783 143.994L550.006 132.694L551.636 132.217ZM555.292 131.149L558.069 142.449L556.439 142.926L553.661 131.626L555.292 131.149ZM563.665 140.998C562.88 141.228 562.149 141.246 561.475 141.053C560.8 140.859 560.22 140.483 559.735 139.923C559.251 139.362 558.901 138.644 558.686 137.769C558.47 136.89 558.443 136.074 558.604 135.321C558.766 134.568 559.095 133.924 559.591 133.389C560.087 132.853 560.727 132.471 561.513 132.242C562.298 132.012 563.028 131.994 563.703 132.187C564.378 132.38 564.958 132.759 565.444 133.323C565.929 133.887 566.28 134.608 566.496 135.488C566.711 136.363 566.737 137.175 566.575 137.925C566.412 138.674 566.083 139.316 565.587 139.851C565.091 140.386 564.45 140.769 563.665 140.998ZM563.33 139.612C563.839 139.463 564.227 139.204 564.495 138.834C564.763 138.464 564.921 138.029 564.97 137.53C565.022 137.03 564.981 136.508 564.847 135.963C564.715 135.422 564.511 134.95 564.236 134.545C563.964 134.136 563.627 133.842 563.224 133.664C562.822 133.486 562.366 133.471 561.857 133.62C561.345 133.769 560.953 134.032 560.683 134.406C560.416 134.78 560.257 135.219 560.205 135.722C560.157 136.222 560.199 136.742 560.332 137.282C560.465 137.827 560.668 138.302 560.939 138.708C561.214 139.112 561.552 139.402 561.953 139.576C562.358 139.75 562.817 139.761 563.33 139.612Z"
      fill="#1276E2" />
  </g>
  <path
    d="M63.8695 274.74L68.9717 247.462L78.7974 222.929L89.9436 198.389L105.618 177.059L126.988 159.351L141.758 140.367L161.068 124.521L183.619 115L209.618 111.304L226.965 102.014L251.841 106.434L278.076 117.353L304.808 134.609L331.086 157.755L344.422 189.132L355.745 224.845L364.587 263.61L370.588 303.991L373.527 344.449L373.295 383.457L369.934 419.56L363.647 451.501L354.724 478.232L343.563 498.977L330.612 513.247L316.372 520.826M361.904 107.9L358.056 111.018L351.547 120.425L342.488 136.099L331.083 157.728M331.083 157.728L368.463 171.333L369.528 171.887L402.684 189.255L432.568 210.794L457.12 235.13L475.62 261.358L469.92 281.519L459.242 299.918L469.457 332.309L473.456 363.385L471.263 392.131L463.129 417.677L449.509 439.307L430.469 460.32L405.979 477.699L376.718 490.743L343.572 498.917L307.617 501.831L270.087 499.295L232.302 491.341L195.617 478.219L161.347 460.395L130.707 438.542L104.744 413.475L84.2894 386.113L69.9433 357.44L62.0367 328.449L65.3152 303.581L75.3517 278.291L92.0248 253.408L114.953 229.803L143.485 208.353L176.68 189.88L213.408 175.099L252.349 164.58L292.064 158.721L331.087 157.717L368.83 166.526L403.266 179.777L433.251 196.924L457.828 217.287L457.131 235.134L452.173 251.992L443.032 267.329L429.899 280.623L413.109 291.409M331.083 157.728L291.894 148.918L252.309 145.275L213.761 146.874L177.622 153.6L145.122 165.132L117.315 180.971L95.0084 200.476L78.7717 222.894L73.7939 249.794L63.8438 274.705L65.2966 303.561L73.462 333.107L88.2335 362.369L109.281 390.319L135.993 415.965L167.505 438.341L202.748 456.621L240.462 470.118L279.29 478.336L317.828 481.021L354.719 478.14L388.7 469.887L418.659 456.649L443.696 438.996L463.123 417.624L476.485 393.327L484.471 368.15L486.173 340.544L481.339 311.34L469.93 281.458L452.171 251.928L428.552 223.797L399.813 198.092L366.937 175.77L331.081 157.663L291.384 153.66L251.163 154.65L211.883 160.579L174.964 171.206L141.703 186.097L113.217 204.645L90.3804 226.133L73.8104 249.748L75.3609 278.231L83.5707 307.409L98.3555 336.318L119.374 363.962L146.017 389.34L177.42 411.523L212.511 429.658L250.044 443.089L288.674 451.324L327 454.099L363.665 451.379L397.424 443.352L427.176 430.398L452.018 413.07L471.276 392.059L484.491 368.131L491.45 342.119L492.883 315.708L493.523 289.648L488.477 264.86L488.294 263.322L488.257 263.142L483.404 239.935L473.321 215.694L463.101 196.716L449.803 175.926L440.309 165.187L432.591 156.464L421.075 146.64L420.837 146.413L411.995 138.843L403.539 131.656L383.648 118.605L361.899 107.809L338.89 99.562L315.234 94.0755L291.575 91.5188L280.463 91.6985L268.847 91.9253L268.504 91.9539L253.363 92.229L241.851 94.0682L227.703 96.3301L204.222 103.938L184.25 112.106L161.052 124.426L142.548 139.285L142.439 139.374L141.298 140.469L121.658 156.413L105.601 176.963L95.0063 200.411L90.3732 226.118L92.0269 253.332L100.082 281.212L114.449 308.842L134.785 335.266L160.499 359.538L190.764 380.768L224.547 398.172L260.663 411.099L297.808 419.089M63.8582 274.735L60.6495 300.116L61.3135 313.696L62.0398 328.476L65.3964 352.137L68.8754 364.911L72.8903 379.66L82.105 398.797L86.4322 406.849L94.3351 423.998L106.047 439.755L111.897 447.632L129.864 465.091L134.127 469.241L160.33 488.02L189.628 503.291L220.988 514.514L253.318 521.276L285.476 523.38L316.361 520.784L325.894 518.403L344.932 513.646L361.919 505.415L376.699 490.762L388.695 469.936L397.395 443.431L402.393 412.007L403.401 376.673L400.296 338.639L393.125 299.291L382.137 260.09L367.737 222.528L350.492 188L331.072 157.724L310.229 132.729L288.737 113.77L278.069 117.337L268.828 122.435L261.299 128.911L255.72 136.609L218.942 134.257L184.497 137.452L153.523 145.955L126.977 159.347L117.318 180.997L113.214 204.721L114.956 229.83L122.629 255.523L136.135 280.983L155.143 305.323L179.094 327.686L207.22 347.268L238.566 363.349L272.044 375.329L306.471 382.803L340.62 385.517L373.303 383.434L403.408 376.688L429.974 365.595L452.195 350.616L469.449 332.332L481.326 311.412L487.604 288.57L475.623 261.385L476.299 240.113L457.82 217.31L454.324 199.026L430.622 182.693L424.836 168.452L397.659 160.224L366.077 156.576L331.097 157.759L296.88 168.807L261.625 184.533L226.637 204.414L193.245 227.718L162.709 253.585L136.138 281.01L114.457 308.961L98.3565 336.42L88.2468 362.438L84.2997 386.155L86.4281 406.86L105.702 432.756L130.153 456.453L158.985 477.085L191.236 493.879L225.769 506.231L261.353 513.691L296.716 516.027L330.625 513.213L361.93 505.419L370.377 501.94L389.628 493.01L405.971 477.722L418.672 456.718L427.166 430.496L431.03 399.799L429.99 365.588L423.968 329.027L413.109 291.409M413.109 291.409L397.761 254.128M413.109 291.409L393.148 299.299L370.619 303.977L346.235 305.24L320.805 303.012L295.179 297.346L270.244 288.411L246.843 276.527L225.765 262.097L207.718 245.633L193.265 227.7L182.834 208.914L176.694 189.911L174.973 171.286L177.636 153.631L184.509 137.456L195.297 123.219L227.237 123.106L261.31 128.915L296.342 140.565L331.094 157.732L368.026 161.561L401.574 170.008L430.642 182.674L433.258 196.939L432.575 210.81L428.565 223.866L421.294 235.684L410.935 245.892L397.761 254.128M397.761 254.128L378.47 218.574L355.964 186.049L331.106 157.736L300.144 137.225L268.854 122.432L238.338 113.744L227.249 123.11L218.964 134.265L213.775 146.905L211.892 160.659L213.422 175.13L218.378 189.862L226.645 204.392L238.002 218.241L252.103 230.951L268.504 242.092L286.677 251.28L306.032 258.209L325.906 262.652L345.652 264.463L364.606 263.592L382.16 260.099L397.761 254.128ZM297.808 419.089L334.657 421.877L369.915 419.438L402.373 411.923L430.991 399.695L454.887 383.278L473.42 363.308L486.143 340.52L492.838 315.691L487.581 288.459L488.226 264.423L483.366 239.934L472.01 218.276L463.063 196.715L446.791 180.718L435.567 163.129L420.991 146.623L403.501 131.655L390.859 129.742L374.267 133.406L354.137 142.745L331.04 157.636L305.715 177.732L279.051 202.422M297.808 419.089L288.628 451.308L279.257 478.286L270.04 499.214L261.291 513.579L253.279 521.172L246.236 522.026M297.808 419.089L306.443 382.704L314.189 343.486L320.75 302.915L325.863 262.56L329.349 223.967L331.092 188.581L331.062 157.644L329.316 132.162L325.966 112.843L321.196 100.098L315.215 94.094M279.051 202.422L252.033 230.862L225.695 262.007L201.043 294.675L179.032 327.612L160.453 359.559L145.952 389.342L135.941 415.934L130.641 438.479L130.072 456.36L134.068 469.155L142.314 476.675L152.029 483.641L160.497 489.706L165.177 493.061L173.881 497.599L190.708 506.373L218.036 516.153L219.739 516.504L236.606 520.032L246.216 522.045L251.967 522.422L262.344 523.102L274.271 523.884L285.413 523.306L296.626 515.956L307.531 501.787L317.756 481.008L326.9 454.127L334.603 421.921L340.538 385.462L344.439 346.047L346.134 305.165L345.562 264.392L342.75 225.273L337.828 189.279L331.012 157.677L322.622 131.492L312.993 111.488L302.498 98.1187L284.379 98.4874L267.31 101.248L246.752 95.4807L226.902 101.94L204.16 103.967L183.552 114.937L166.455 129.029L153.467 145.897L145.081 165.104L141.657 186.118L143.432 208.321L150.464 231.028L162.651 253.5L179.682 274.97L201.046 294.701L226.076 311.991L253.926 326.211L283.632 336.844L314.172 343.531L344.473 346.06L373.487 344.383L400.259 338.6L423.92 328.984L443.756 315.914L459.201 299.89M279.051 202.422L290.257 209.969L302.643 216.206L315.814 220.923L329.334 223.975L342.781 225.259L355.706 224.741L367.713 222.455L378.415 218.478L387.489 212.961L394.679 206.079L399.772 198.064L402.637 189.173L403.219 179.695L401.519 169.911L397.613 160.105L391.633 150.581L363.005 151.58L331.047 157.651M279.051 202.422L269.385 193.809L261.563 184.421L255.813 174.545L252.297 164.51L251.106 154.63L252.258 145.205L255.676 136.516M218.066 516.177L220.959 514.452L225.718 506.161L232.254 491.298L240.428 470.105L249.997 443.11L260.646 411.144L272.011 375.279L283.647 336.837L295.124 297.287L305.987 258.154L315.817 220.949L324.273 187.059L331.054 157.666L316.228 131.649L300.489 111.763L284.406 98.4843L268.525 92.0002L246.779 95.4776L227.672 96.3444M493.476 289.67L488.431 264.882L476.263 240.036L472.013 218.303L454.292 198.937L446.794 180.745L424.792 168.359L416.045 154.551L404.615 141.571L383.773 141.614L358.999 146.973L331.047 157.651M331.047 157.651L300.822 173.416L269.396 193.813L237.948 218.144L207.663 245.536L179.695 274.936L155.1 305.231L134.758 335.269L119.328 363.946L109.248 390.269L104.697 413.394L105.64 432.644L111.843 447.536M331.047 157.651L317.634 184.655L302.659 216.199L286.645 251.191L270.201 288.318L253.954 326.17L238.545 363.265L224.554 398.187L212.488 429.65L202.738 456.579L195.596 478.135L191.212 493.768L189.626 503.189L190.765 506.355M383.628 118.623L375.207 119.462L363.434 126.275L348.587 139.074L331.058 157.655L311.399 181.528L290.279 209.977L268.472 242.004L246.8 276.435L226.104 311.95L207.188 347.179L190.76 380.78L177.386 411.51L167.495 438.299L161.323 460.322L158.961 476.974L160.329 487.917L165.223 493.039M355.932 185.961L360.577 183.222L364.274 179.781L366.93 175.755L368.461 171.268L368.817 166.457L368.005 161.477L366.064 156.469L363.043 151.581L359.041 146.962L354.175 142.746L348.602 139.067L342.479 136.019L335.99 133.695L329.327 132.166L322.679 131.475L316.244 131.641L310.227 132.664L304.792 134.513L300.108 137.148L296.322 140.481L293.543 144.423L291.877 148.86L291.373 153.656L292.046 158.663L293.891 163.725L296.856 168.696L300.848 173.413L305.753 177.733L311.415 181.521L317.661 184.652L324.297 187.029L331.108 188.574L337.878 189.246L344.41 189.025L350.487 187.908L355.936 185.949M331.078 157.637L335.994 133.684L338.936 115.823L339.876 104.414L338.874 99.5692M459.18 299.844L442.962 267.239L421.224 235.595L394.667 206.075L364.229 179.764L331.029 157.632L293.498 144.407L292.321 144.158L255.669 136.501M449.727 175.924L435.545 163.12L416.019 154.516L391.614 150.562L383.758 141.583L374.256 133.401L363.393 126.248L351.492 120.329L338.891 115.806L325.94 112.808L313.014 111.431L300.483 111.709L288.702 113.655L267.319 101.187L251.791 106.288L238.269 113.617L209.565 111.169L195.255 123.088L166.468 128.957L141.257 140.441L121.617 156.385M344.901 513.519L360.75 506.411L364.972 504.517L370.324 501.805L389.575 492.875L402.039 484.022L412.816 476.36L430.418 460.212L443.656 438.93L451.955 413.034L454.873 383.247L452.153 350.486L443.747 315.834L429.841 280.5L410.878 245.769L387.49 212.923L360.544 183.172L331.041 157.598L293.858 163.675L255.818 174.496L218.328 189.716L182.769 208.775L150.47 230.941L122.58 255.377L100.038 281.158L83.5193 307.339L73.423 333.003L69.89 357.306L72.8184 379.505L82.0331 398.642L84.4444 404.116L86.5222 408.289L94.2673 423.832M432.596 156.556L421.08 146.732L404.655 141.637L390.902 129.834L375.221 119.531L358.06 111.007L339.885 104.494L321.21 100.167L302.551 98.1506L291.562 91.5908L268.49 92.0259L253.349 92.3009"
    stroke="#123D6F" stroke-width="2.4" stroke-linecap="round" stroke-linejoin="round" />
  <g filter="url(#filter2_d_277_41540)">
    <g filter="url(#filter3_d_277_41540)">
      <path
        d="M210.65 231.024C210.65 253.137 182.596 275.249 182.596 275.249C182.596 275.249 154.542 253.137 154.542 231.024C154.542 223.205 157.497 215.706 162.759 210.176C168.02 204.647 175.155 201.541 182.596 201.541C190.036 201.541 197.172 204.647 202.433 210.176C207.694 215.706 210.65 223.205 210.65 231.024Z"
        fill="#11253F" />
      <path
        d="M182.596 275.249C182.771 275.472 182.771 275.472 182.772 275.472L182.773 275.471L182.777 275.468L182.792 275.455L182.853 275.407C182.907 275.364 182.987 275.3 183.09 275.215C183.297 275.047 183.599 274.798 183.984 274.473C184.754 273.823 185.853 272.87 187.171 271.657C189.807 269.233 193.323 265.77 196.839 261.612C203.86 253.311 210.933 242.188 210.933 231.024C210.933 223.134 207.951 215.564 202.638 209.981C197.325 204.397 190.116 201.258 182.596 201.258C175.076 201.258 167.866 204.397 162.553 209.981C157.241 215.564 154.258 223.134 154.258 231.024C154.258 242.188 161.331 253.311 168.352 261.612C171.869 265.77 175.384 269.233 178.02 271.657C179.339 272.87 180.438 273.823 181.207 274.473C181.592 274.798 181.895 275.047 182.102 275.215C182.205 275.3 182.284 275.364 182.338 275.407L182.399 275.455L182.415 275.468L182.419 275.471L182.42 275.472C182.42 275.472 182.42 275.472 182.596 275.249ZM182.596 275.249L182.771 275.472C182.668 275.553 182.523 275.553 182.42 275.472L182.596 275.249Z"
        stroke="#0F5096" stroke-width="0.566987" stroke-linecap="round" stroke-linejoin="round" />
    </g>
    <g clip-path="url(#clip0_277_41540)">
      <path
        d="M200.257 229.501C200.257 239.308 192.307 247.258 182.5 247.258C172.693 247.258 164.743 239.308 164.743 229.501C164.743 219.694 172.693 211.744 182.5 211.744C192.307 211.744 200.257 219.694 200.257 229.501Z"
        fill="#47A7F6" stroke="white" stroke-width="0.0694987" />
      <path
        d="M189.924 237.341H181.675C177.129 237.341 173.428 233.641 173.428 229.093C173.428 224.546 177.129 220.846 181.675 220.846C186.224 220.846 189.924 224.546 189.924 229.093V237.341Z"
        fill="white" stroke="white" stroke-width="0.416992" />
    </g>
  </g>
  <g filter="url(#filter4_d_277_41540)">
    <g filter="url(#filter5_d_277_41540)">
      <path
        d="M448.274 251.083C448.274 267.021 428.053 282.96 428.053 282.96C428.053 282.96 407.832 267.021 407.832 251.083C407.832 245.447 409.962 240.042 413.755 236.056C417.547 232.071 422.69 229.832 428.053 229.832C433.416 229.832 438.559 232.071 442.351 236.056C446.143 240.042 448.274 245.447 448.274 251.083Z"
        fill="#11253F" />
      <path
        d="M428.053 282.96C428.179 283.12 428.18 283.12 428.18 283.12L428.18 283.119L428.183 283.117L428.195 283.108L428.239 283.073C428.256 283.059 428.277 283.042 428.302 283.022C428.332 282.998 428.368 282.969 428.409 282.935C428.558 282.814 428.776 282.634 429.054 282.4C429.608 281.931 430.401 281.245 431.351 280.371C433.251 278.623 435.785 276.127 438.319 273.13C443.38 267.147 448.478 259.129 448.478 251.083C448.478 245.396 446.329 239.94 442.499 235.915C438.67 231.891 433.473 229.628 428.053 229.628C422.632 229.628 417.436 231.891 413.607 235.915C409.777 239.94 407.628 245.396 407.628 251.083C407.628 259.129 412.726 267.147 417.786 273.13C420.321 276.127 422.855 278.623 424.755 280.371C425.705 281.245 426.497 281.931 427.052 282.4C427.33 282.634 427.548 282.814 427.697 282.935C427.771 282.996 427.828 283.042 427.867 283.073L427.911 283.108L427.922 283.117L427.925 283.119L427.926 283.12C427.926 283.12 427.926 283.12 428.053 282.96ZM428.053 282.96L428.179 283.12C428.105 283.179 428.001 283.179 427.926 283.12L428.053 282.96Z"
        stroke="#0F5096" stroke-width="0.408675" stroke-linecap="round" stroke-linejoin="round" />
    </g>
    <g clip-path="url(#clip1_277_41540)">
      <path
        d="M440.783 249.984C440.783 257.052 435.053 262.783 427.984 262.783C420.915 262.783 415.185 257.052 415.185 249.984C415.185 242.915 420.915 237.185 427.984 237.185C435.053 237.185 440.783 242.915 440.783 249.984Z"
        fill="#47A7F6" stroke="white" stroke-width="0.0500935" />
      <path
        d="M433.335 255.634H427.39C424.112 255.634 421.445 252.966 421.445 249.688C421.445 246.411 424.112 243.744 427.39 243.744C430.668 243.744 433.335 246.411 433.335 249.688V255.634Z"
        fill="white" stroke="white" stroke-width="0.300561" />
    </g>
  </g>
  <g filter="url(#filter6_d_277_41540)">
    <g filter="url(#filter7_d_277_41540)">
      <path
        d="M283.853 264.393C283.853 276.402 268.616 288.412 268.616 288.412C268.616 288.412 253.38 276.402 253.38 264.393C253.38 260.146 254.986 256.074 257.843 253.071C260.7 250.068 264.576 248.381 268.616 248.381C272.657 248.381 276.533 250.068 279.39 253.071C282.247 256.074 283.853 260.146 283.853 264.393Z"
        fill="#11253F" />
      <path
        d="M268.616 288.412C268.712 288.533 268.712 288.533 268.712 288.533L268.713 288.532L268.715 288.53L268.723 288.524L268.756 288.497C268.77 288.486 268.786 288.473 268.805 288.458C268.828 288.44 268.854 288.418 268.885 288.393C268.997 288.302 269.161 288.166 269.371 287.99C269.789 287.637 270.385 287.119 271.101 286.461C272.533 285.144 274.442 283.263 276.352 281.005C280.165 276.497 284.007 270.456 284.007 264.393C284.007 260.108 282.387 255.997 279.502 252.965C276.616 249.932 272.701 248.227 268.616 248.227C264.532 248.227 260.617 249.932 257.731 252.965C254.846 255.997 253.226 260.108 253.226 264.393C253.226 270.456 257.068 276.497 260.881 281.005C262.791 283.263 264.7 285.144 266.132 286.461C266.848 287.119 267.444 287.637 267.862 287.99C268.072 288.166 268.236 288.302 268.348 288.393C268.404 288.439 268.447 288.474 268.477 288.497L268.51 288.524L268.518 288.53L268.52 288.532L268.521 288.533C268.521 288.533 268.521 288.533 268.616 288.412ZM268.616 288.412L268.712 288.533C268.656 288.577 268.577 288.577 268.521 288.533L268.616 288.412Z"
        stroke="#0F5096" stroke-width="0.30793" stroke-linecap="round" stroke-linejoin="round" />
    </g>
    <g clip-path="url(#clip2_277_41540)">
      <path
        d="M278.208 263.565C278.208 268.891 273.891 273.209 268.564 273.209C263.238 273.209 258.921 268.891 258.921 263.565C258.921 258.239 263.238 253.921 268.564 253.921C273.891 253.921 278.208 258.239 278.208 263.565Z"
        fill="#47A7F6" stroke="white" stroke-width="0.0377447" />
      <path
        d="M272.596 267.822H268.117C265.647 267.822 263.638 265.812 263.638 263.342C263.638 260.873 265.647 258.863 268.117 258.863C270.587 258.863 272.596 260.873 272.596 263.342V267.822Z"
        fill="white" stroke="white" stroke-width="0.226468" />
    </g>
  </g>
  <g filter="url(#filter8_d_277_41540)">
    <g filter="url(#filter9_d_277_41540)">
      <path
        d="M229.853 85.3932C229.853 97.4025 214.616 109.412 214.616 109.412C214.616 109.412 199.38 97.4025 199.38 85.3932C199.38 81.1465 200.986 77.0737 203.843 74.0708C206.7 71.0679 210.576 69.3809 214.616 69.3809C218.657 69.3809 222.533 71.0679 225.39 74.0708C228.247 77.0737 229.853 81.1465 229.853 85.3932Z"
        fill="#11253F" />
      <path
        d="M214.616 109.412C214.712 109.533 214.712 109.533 214.712 109.533L214.713 109.532L214.715 109.53L214.723 109.524L214.756 109.497C214.77 109.486 214.786 109.473 214.805 109.458C214.828 109.44 214.854 109.418 214.885 109.393C214.997 109.302 215.161 109.166 215.371 108.99C215.789 108.637 216.385 108.119 217.101 107.461C218.533 106.144 220.442 104.263 222.352 102.005C226.165 97.4971 230.007 91.4559 230.007 85.3932C230.007 81.108 228.387 76.9969 225.502 73.9646C222.616 70.9321 218.701 69.2269 214.616 69.2269C210.532 69.2269 206.617 70.9321 203.731 73.9646C200.846 76.9969 199.226 81.108 199.226 85.3932C199.226 91.4559 203.068 97.4971 206.881 102.005C208.791 104.263 210.7 106.144 212.132 107.461C212.848 108.119 213.444 108.637 213.862 108.99C214.072 109.166 214.236 109.302 214.348 109.393C214.404 109.439 214.447 109.474 214.477 109.497L214.51 109.524L214.518 109.53L214.52 109.532L214.521 109.533C214.521 109.533 214.521 109.533 214.616 109.412ZM214.616 109.412L214.712 109.533C214.656 109.577 214.577 109.577 214.521 109.533L214.616 109.412Z"
        stroke="#0F5096" stroke-width="0.30793" stroke-linecap="round" stroke-linejoin="round" />
    </g>
    <g clip-path="url(#clip3_277_41540)">
      <path
        d="M224.208 84.565C224.208 89.8911 219.891 94.2087 214.564 94.2087C209.238 94.2087 204.921 89.8911 204.921 84.565C204.921 79.2389 209.238 74.9212 214.564 74.9212C219.891 74.9212 224.208 79.2389 224.208 84.565Z"
        fill="#47A7F6" stroke="white" stroke-width="0.0377447" />
      <path
        d="M218.596 88.822H214.117C211.647 88.822 209.638 86.8123 209.638 84.3422C209.638 81.873 211.647 79.8633 214.117 79.8633C216.587 79.8633 218.596 81.873 218.596 84.3422V88.822Z"
        fill="white" stroke="white" stroke-width="0.226468" />
    </g>
  </g>
  <g filter="url(#filter10_d_277_41540)">
    <g filter="url(#filter11_d_277_41540)">
      <path
        d="M383.853 90.345C383.853 127.997 336.085 165.649 336.085 165.649C336.085 165.649 288.316 127.997 288.316 90.345C288.316 77.0305 293.349 64.2613 302.307 54.8465C311.265 45.4317 323.416 40.1426 336.085 40.1426C348.754 40.1426 360.904 45.4317 369.862 54.8465C378.821 64.2613 383.853 77.0305 383.853 90.345Z"
        fill="#11253F" />
      <path
        d="M336.085 165.649L335.775 166.041C335.957 166.184 336.213 166.184 336.394 166.041L336.085 165.649ZM336.085 165.649C336.394 166.041 336.394 166.041 336.395 166.041L336.397 166.039L336.404 166.034L336.43 166.013L336.452 165.995C336.474 165.978 336.501 165.956 336.534 165.93C336.626 165.856 336.761 165.748 336.937 165.604C337.289 165.317 337.804 164.893 338.46 164.339C339.771 163.232 341.642 161.61 343.887 159.545C348.376 155.417 354.363 149.519 360.351 142.439C372.306 128.304 384.353 109.359 384.353 90.345C384.353 76.9057 379.274 64.0121 370.224 54.5019C361.174 44.9908 348.895 39.6426 336.085 39.6426C323.275 39.6426 310.995 44.9908 301.945 54.5019C292.896 64.0121 287.816 76.9057 287.816 90.345C287.816 109.359 299.863 128.304 311.819 142.439C317.807 149.519 323.793 155.417 328.282 159.545C330.527 161.61 332.399 163.232 333.709 164.339C334.365 164.893 334.88 165.317 335.232 165.604C335.408 165.748 335.544 165.856 335.635 165.93C335.681 165.966 335.716 165.994 335.739 166.013L335.766 166.034L335.773 166.039L335.774 166.041C335.775 166.041 335.775 166.041 336.085 165.649Z"
        stroke="#0F5096" stroke-linecap="round" stroke-linejoin="round" />
    </g>
    <rect x="304" y="56" width="64" height="64" rx="32" fill="#47A7F6" />
    <path
      d="M350.834 102.834H335.999C327.821 102.834 321.166 96.1786 321.166 87.9986C321.166 79.8213 327.821 73.1655 335.999 73.1655C344.179 73.1655 350.834 79.8213 350.834 87.9986V102.834Z"
      fill="white" stroke="white" stroke-width="0.75" />
  </g>
  <defs>
    <filter id="filter0_d_277_41540" x="527" y="189" width="201" height="167"
      filterUnits="userSpaceOnUse" color-interpolation-filters="sRGB">
      <feFlood flood-opacity="0" result="BackgroundImageFix" />
      <feColorMatrix in="SourceAlpha" type="matrix"
        values="0 0 0 0 0 0 0 0 0 0 0 0 0 0 0 0 0 0 127 0" result="hardAlpha" />
      <feMorphology radius="1" operator="dilate" in="SourceAlpha"
        result="effect1_dropShadow_277_41540" />
      <feOffset />
      <feGaussianBlur stdDeviation="6" />
      <feColorMatrix type="matrix"
        values="0 0 0 0 0.814727 0 0 0 0 0.899872 0 0 0 0 0.999823 0 0 0 0.3 0" />
      <feBlend mode="normal" in2="BackgroundImageFix" result="effect1_dropShadow_277_41540" />
      <feBlend mode="normal" in="SourceGraphic" in2="effect1_dropShadow_277_41540" result="shape" />
    </filter>
    <filter id="filter1_d_277_41540" x="471" y="72" width="155" height="134"
      filterUnits="userSpaceOnUse" color-interpolation-filters="sRGB">
      <feFlood flood-opacity="0" result="BackgroundImageFix" />
      <feColorMatrix in="SourceAlpha" type="matrix"
        values="0 0 0 0 0 0 0 0 0 0 0 0 0 0 0 0 0 0 127 0" result="hardAlpha" />
      <feMorphology radius="1" operator="dilate" in="SourceAlpha"
        result="effect1_dropShadow_277_41540" />
      <feOffset />
      <feGaussianBlur stdDeviation="6" />
      <feColorMatrix type="matrix"
        values="0 0 0 0 0.814727 0 0 0 0 0.899872 0 0 0 0 0.999823 0 0 0 0.3 0" />
      <feBlend mode="normal" in2="BackgroundImageFix" result="effect1_dropShadow_277_41540" />
      <feBlend mode="normal" in="SourceGraphic" in2="effect1_dropShadow_277_41540" result="shape" />
    </filter>
    <filter id="filter2_d_277_41540" x="139" y="186" width="87" height="104.792"
      filterUnits="userSpaceOnUse" color-interpolation-filters="sRGB">
      <feFlood flood-opacity="0" result="BackgroundImageFix" />
      <feColorMatrix in="SourceAlpha" type="matrix"
        values="0 0 0 0 0 0 0 0 0 0 0 0 0 0 0 0 0 0 127 0" result="hardAlpha" />
      <feMorphology radius="1" operator="dilate" in="SourceAlpha"
        result="effect1_dropShadow_277_41540" />
      <feOffset />
      <feGaussianBlur stdDeviation="6" />
      <feColorMatrix type="matrix"
        values="0 0 0 0 0.814727 0 0 0 0 0.899872 0 0 0 0 0.999823 0 0 0 0.3 0" />
      <feBlend mode="normal" in2="BackgroundImageFix" result="effect1_dropShadow_277_41540" />
      <feBlend mode="normal" in="SourceGraphic" in2="effect1_dropShadow_277_41540" result="shape" />
    </filter>
    <filter id="filter3_d_277_41540" x="125.625" y="178.295" width="113.941" height="131.541"
      filterUnits="userSpaceOnUse" color-interpolation-filters="sRGB">
      <feFlood flood-opacity="0" result="BackgroundImageFix" />
      <feColorMatrix in="SourceAlpha" type="matrix"
        values="0 0 0 0 0 0 0 0 0 0 0 0 0 0 0 0 0 0 127 0" result="hardAlpha" />
      <feOffset dy="5.66987" />
      <feGaussianBlur stdDeviation="14.1747" />
      <feComposite in2="hardAlpha" operator="out" />
      <feColorMatrix type="matrix" values="0 0 0 0 0 0 0 0 0 0 0 0 0 0 0 0 0 0 0.07 0" />
      <feBlend mode="normal" in2="BackgroundImageFix" result="effect1_dropShadow_277_41540" />
      <feBlend mode="normal" in="SourceGraphic" in2="effect1_dropShadow_277_41540" result="shape" />
    </filter>
    <filter id="filter4_d_277_41540" x="393" y="215" width="69.9678" height="82.7917"
      filterUnits="userSpaceOnUse" color-interpolation-filters="sRGB">
      <feFlood flood-opacity="0" result="BackgroundImageFix" />
      <feColorMatrix in="SourceAlpha" type="matrix"
        values="0 0 0 0 0 0 0 0 0 0 0 0 0 0 0 0 0 0 127 0" result="hardAlpha" />
      <feMorphology radius="1" operator="dilate" in="SourceAlpha"
        result="effect1_dropShadow_277_41540" />
      <feOffset />
      <feGaussianBlur stdDeviation="6" />
      <feColorMatrix type="matrix"
        values="0 0 0 0 0.814727 0 0 0 0 0.899872 0 0 0 0 0.999823 0 0 0 0.3 0" />
      <feBlend mode="normal" in2="BackgroundImageFix" result="effect1_dropShadow_277_41540" />
      <feBlend mode="normal" in="SourceGraphic" in2="effect1_dropShadow_277_41540" result="shape" />
    </filter>
    <filter id="filter5_d_277_41540" x="386.99" y="213.076" width="82.1266" height="94.8125"
      filterUnits="userSpaceOnUse" color-interpolation-filters="sRGB">
      <feFlood flood-opacity="0" result="BackgroundImageFix" />
      <feColorMatrix in="SourceAlpha" type="matrix"
        values="0 0 0 0 0 0 0 0 0 0 0 0 0 0 0 0 0 0 127 0" result="hardAlpha" />
      <feOffset dy="4.08675" />
      <feGaussianBlur stdDeviation="10.2169" />
      <feComposite in2="hardAlpha" operator="out" />
      <feColorMatrix type="matrix" values="0 0 0 0 0 0 0 0 0 0 0 0 0 0 0 0 0 0 0.07 0" />
      <feBlend mode="normal" in2="BackgroundImageFix" result="effect1_dropShadow_277_41540" />
      <feBlend mode="normal" in="SourceGraphic" in2="effect1_dropShadow_277_41540" result="shape" />
    </filter>
    <filter id="filter6_d_277_41540" x="239" y="234" width="59.129" height="68.7917"
      filterUnits="userSpaceOnUse" color-interpolation-filters="sRGB">
      <feFlood flood-opacity="0" result="BackgroundImageFix" />
      <feColorMatrix in="SourceAlpha" type="matrix"
        values="0 0 0 0 0 0 0 0 0 0 0 0 0 0 0 0 0 0 127 0" result="hardAlpha" />
      <feMorphology radius="1" operator="dilate" in="SourceAlpha"
        result="effect1_dropShadow_277_41540" />
      <feOffset />
      <feGaussianBlur stdDeviation="6" />
      <feColorMatrix type="matrix"
        values="0 0 0 0 0.814727 0 0 0 0 0.899872 0 0 0 0 0.999823 0 0 0 0.3 0" />
      <feBlend mode="normal" in2="BackgroundImageFix" result="effect1_dropShadow_277_41540" />
      <feBlend mode="normal" in="SourceGraphic" in2="effect1_dropShadow_277_41540" result="shape" />
    </filter>
    <filter id="filter7_d_277_41540" x="237.676" y="235.756" width="61.8811" height="71.4397"
      filterUnits="userSpaceOnUse" color-interpolation-filters="sRGB">
      <feFlood flood-opacity="0" result="BackgroundImageFix" />
      <feColorMatrix in="SourceAlpha" type="matrix"
        values="0 0 0 0 0 0 0 0 0 0 0 0 0 0 0 0 0 0 127 0" result="hardAlpha" />
      <feOffset dy="3.0793" />
      <feGaussianBlur stdDeviation="7.69825" />
      <feComposite in2="hardAlpha" operator="out" />
      <feColorMatrix type="matrix" values="0 0 0 0 0 0 0 0 0 0 0 0 0 0 0 0 0 0 0.07 0" />
      <feBlend mode="normal" in2="BackgroundImageFix" result="effect1_dropShadow_277_41540" />
      <feBlend mode="normal" in="SourceGraphic" in2="effect1_dropShadow_277_41540" result="shape" />
    </filter>
    <filter id="filter8_d_277_41540" x="185" y="55" width="59.129" height="68.7917"
      filterUnits="userSpaceOnUse" color-interpolation-filters="sRGB">
      <feFlood flood-opacity="0" result="BackgroundImageFix" />
      <feColorMatrix in="SourceAlpha" type="matrix"
        values="0 0 0 0 0 0 0 0 0 0 0 0 0 0 0 0 0 0 127 0" result="hardAlpha" />
      <feMorphology radius="1" operator="dilate" in="SourceAlpha"
        result="effect1_dropShadow_277_41540" />
      <feOffset />
      <feGaussianBlur stdDeviation="6" />
      <feColorMatrix type="matrix"
        values="0 0 0 0 0.814727 0 0 0 0 0.899872 0 0 0 0 0.999823 0 0 0 0.3 0" />
      <feBlend mode="normal" in2="BackgroundImageFix" result="effect1_dropShadow_277_41540" />
      <feBlend mode="normal" in="SourceGraphic" in2="effect1_dropShadow_277_41540" result="shape" />
    </filter>
    <filter id="filter9_d_277_41540" x="183.676" y="56.7558" width="61.8811" height="71.4397"
      filterUnits="userSpaceOnUse" color-interpolation-filters="sRGB">
      <feFlood flood-opacity="0" result="BackgroundImageFix" />
      <feColorMatrix in="SourceAlpha" type="matrix"
        values="0 0 0 0 0 0 0 0 0 0 0 0 0 0 0 0 0 0 127 0" result="hardAlpha" />
      <feOffset dy="3.0793" />
      <feGaussianBlur stdDeviation="7.69825" />
      <feComposite in2="hardAlpha" operator="out" />
      <feColorMatrix type="matrix" values="0 0 0 0 0 0 0 0 0 0 0 0 0 0 0 0 0 0 0.07 0" />
      <feBlend mode="normal" in2="BackgroundImageFix" result="effect1_dropShadow_277_41540" />
      <feBlend mode="normal" in="SourceGraphic" in2="effect1_dropShadow_277_41540" result="shape" />
    </filter>
    <filter id="filter10_d_277_41540" x="271" y="23" width="129.581" height="159.792"
      filterUnits="userSpaceOnUse" color-interpolation-filters="sRGB">
      <feFlood flood-opacity="0" result="BackgroundImageFix" />
      <feColorMatrix in="SourceAlpha" type="matrix"
        values="0 0 0 0 0 0 0 0 0 0 0 0 0 0 0 0 0 0 127 0" result="hardAlpha" />
      <feMorphology radius="1" operator="dilate" in="SourceAlpha"
        result="effect1_dropShadow_277_41540" />
      <feOffset />
      <feGaussianBlur stdDeviation="6" />
      <feColorMatrix type="matrix"
        values="0 0 0 0 0.814727 0 0 0 0 0.899872 0 0 0 0 0.999823 0 0 0 0.3 0" />
      <feBlend mode="normal" in2="BackgroundImageFix" result="effect1_dropShadow_277_41540" />
      <feBlend mode="normal" in="SourceGraphic" in2="effect1_dropShadow_277_41540" result="shape" />
    </filter>
    <filter id="filter11_d_277_41540" x="239.044" y="0.525357" width="194.08" height="224.049"
      filterUnits="userSpaceOnUse" color-interpolation-filters="sRGB">
      <feFlood flood-opacity="0" result="BackgroundImageFix" />
      <feColorMatrix in="SourceAlpha" type="matrix"
        values="0 0 0 0 0 0 0 0 0 0 0 0 0 0 0 0 0 0 127 0" result="hardAlpha" />
      <feOffset dy="9.65431" />
      <feGaussianBlur stdDeviation="24.1358" />
      <feComposite in2="hardAlpha" operator="out" />
      <feColorMatrix type="matrix" values="0 0 0 0 0 0 0 0 0 0 0 0 0 0 0 0 0 0 0.07 0" />
      <feBlend mode="normal" in2="BackgroundImageFix" result="effect1_dropShadow_277_41540" />
      <feBlend mode="normal" in="SourceGraphic" in2="effect1_dropShadow_277_41540" result="shape" />
    </filter>
    <clipPath id="clip0_277_41540">
      <rect width="35.5833" height="35.5833" fill="white" transform="translate(164.708 211.709)" />
    </clipPath>
    <clipPath id="clip1_277_41540">
      <rect width="25.6478" height="25.6478" fill="white" transform="translate(415.16 237.16)" />
    </clipPath>
    <clipPath id="clip2_277_41540">
      <rect width="19.3253" height="19.3253" fill="white" transform="translate(258.902 253.902)" />
    </clipPath>
    <clipPath id="clip3_277_41540">
      <rect width="19.3253" height="19.3253" fill="white" transform="translate(204.902 74.9023)" />
    </clipPath>
  </defs>
</svg>
