<svg width="697" height="526" viewBox="0 0 697 526" fill="none" xmlns="http://www.w3.org/2000/svg">
<g filter="url(#filter0_d_279_292)">
<path d="M498.575 314.092L512.638 316.652L515.718 323.767L501.656 321.206C494.455 319.895 488.969 315.361 486.414 309.46L483.333 302.346C485.889 308.247 491.374 312.78 498.575 314.092Z" fill="#E1F0FF"/>
<path d="M515.845 324.116C515.909 324.093 515.965 324.053 516.009 323.999C516.094 323.892 516.113 323.746 516.059 323.621L512.978 316.507C512.929 316.394 512.826 316.312 512.705 316.29L498.642 313.729C491.861 312.494 486.265 308.184 483.673 302.201C483.592 302.013 483.369 301.929 483.186 302.008C482.999 302.09 482.912 302.307 482.994 302.495C482.995 302.497 482.995 302.498 482.996 302.5L486.075 309.609C488.765 315.821 494.565 320.293 501.59 321.572L515.653 324.133C515.719 324.144 515.785 324.138 515.845 324.116ZM512.377 316.982L515.104 323.279L501.723 320.843C494.942 319.608 489.346 315.298 486.754 309.314L485.787 307.081C488.877 310.871 493.365 313.52 498.509 314.457L512.377 316.982Z" fill="#5EB0EF"/>
<path d="M520.594 334.542C521.788 334.76 523.126 334.426 524.13 333.454L536.833 321.06L539.913 328.174L527.211 340.568C526.207 341.54 524.868 341.874 523.675 341.656C522.564 341.454 521.578 340.774 521.108 339.687L518.027 332.572C518.498 333.659 519.483 334.34 520.594 334.542Z" fill="#E1F0FF"/>
<path d="M525.888 341.823C526.47 341.611 527.011 341.277 527.469 340.833L540.172 328.438C540.282 328.331 540.314 328.166 540.253 328.025L537.173 320.911C537.124 320.8 537.024 320.719 536.905 320.695C536.785 320.671 536.662 320.708 536.575 320.793L523.873 333.187C523.016 334.016 521.816 334.387 520.661 334.176C519.603 333.984 518.767 333.345 518.368 332.424C518.287 332.236 518.063 332.154 517.881 332.232C517.693 332.313 517.607 332.531 517.688 332.718L520.769 339.833C521.268 340.985 522.304 341.782 523.61 342.02C524.379 342.159 525.165 342.086 525.888 341.823ZM539.473 328.086L526.953 340.302C526.096 341.131 524.895 341.501 523.742 341.291C522.683 341.098 521.847 340.459 521.448 339.538L519.242 334.444C519.628 334.663 520.06 334.82 520.528 334.905C521.918 335.157 523.36 334.714 524.389 333.718L536.707 321.699L539.473 328.086Z" fill="#5EB0EF"/>
<path d="M603.114 333.129C615.048 335.302 627.178 327.804 630.196 316.371L647.703 250.058C648.9 245.528 648.485 241.062 646.806 237.185L649.887 244.299C651.566 248.176 651.98 252.642 650.784 257.173L633.277 323.485C630.259 334.918 618.129 342.416 606.195 340.243L539.914 328.173L536.833 321.059L603.114 333.129Z" fill="#E1F0FF"/>
<path d="M618.662 339.506C625.815 336.903 631.658 331.066 633.635 323.58L651.142 257.267C652.322 252.796 652.006 248.261 650.227 244.152L647.146 237.038C647.065 236.85 646.847 236.763 646.659 236.846C646.471 236.927 646.385 237.145 646.467 237.333C648.179 241.287 648.483 245.655 647.346 249.964L629.839 316.277C626.874 327.506 614.915 334.902 603.181 332.765L536.9 320.695C536.765 320.671 536.628 320.723 536.544 320.829C536.459 320.936 536.44 321.081 536.494 321.206L539.575 328.32C539.624 328.434 539.726 328.515 539.848 328.538L606.128 340.608C610.418 341.389 614.737 340.934 618.662 339.506ZM648.589 242.234L649.547 244.446C651.26 248.401 651.564 252.769 650.426 257.078L632.919 323.391C629.955 334.619 617.997 342.016 606.261 339.879L540.175 327.844L537.448 321.547L603.048 333.493C615.154 335.697 627.494 328.059 630.554 316.465L648.061 250.153C648.762 247.502 648.935 244.828 648.589 242.234Z" fill="#5EB0EF"/>
<path d="M527.01 206.39C515.076 204.217 502.963 211.717 499.945 223.151L482.437 289.464C479.419 300.897 486.641 311.92 498.575 314.093L512.638 316.654L517.931 332.325C518.353 333.556 519.401 334.325 520.594 334.542C521.788 334.759 523.127 334.426 524.13 333.454L536.833 321.06L603.114 333.13C615.048 335.304 627.178 327.805 630.196 316.372L647.703 250.059C650.722 238.626 643.482 227.601 631.548 225.428L527.01 206.39Z" fill="#F5FAFF"/>
<path d="M615.581 332.392C622.734 329.789 628.577 323.953 630.554 316.466L648.061 250.154C649.52 244.628 648.68 239 645.697 234.307C642.6 229.436 637.599 226.153 631.615 225.063L527.076 206.025C514.979 203.822 502.648 211.462 499.587 223.057L482.079 289.37C480.619 294.9 481.458 300.532 484.442 305.225C487.534 310.09 492.53 313.368 498.509 314.457L512.357 316.979L517.581 332.443C518.022 333.73 519.123 334.65 520.528 334.907C521.917 335.159 523.36 334.715 524.388 333.72L536.955 321.458L603.048 333.494C607.337 334.276 611.656 333.821 615.581 332.392ZM527.01 206.39L526.943 206.754L631.482 225.791C637.261 226.844 642.087 230.009 645.072 234.703C647.943 239.221 648.751 244.64 647.345 249.965L629.838 316.278C626.873 327.506 614.915 334.903 603.18 332.766L536.899 320.696C536.781 320.674 536.66 320.711 536.574 320.795L523.872 333.189C523.015 334.018 521.815 334.388 520.661 334.178C519.524 333.971 518.634 333.233 518.282 332.205L512.99 316.535C512.946 316.408 512.837 316.314 512.705 316.289L498.642 313.728C492.869 312.677 488.048 309.516 485.068 304.828C482.196 300.311 481.389 294.888 482.796 289.558L500.303 223.246C503.267 212.017 515.218 204.619 526.943 206.754L527.01 206.39Z" fill="#5EB0EF"/>
<path d="M516.906 254.802L518.926 243.343L520.655 243.648L519.777 248.628L525.49 249.635L526.368 244.655L528.103 244.961L526.082 256.42L524.348 256.115L525.229 251.118L519.516 250.11L518.635 255.107L516.906 254.802ZM531.882 257.622C531.077 257.48 530.406 257.171 529.871 256.696C529.335 256.221 528.96 255.622 528.745 254.899C528.53 254.177 528.501 253.372 528.657 252.484C528.815 251.592 529.118 250.842 529.568 250.233C530.018 249.624 530.575 249.187 531.241 248.924C531.907 248.66 532.642 248.6 533.448 248.742C534.254 248.884 534.924 249.193 535.46 249.668C535.995 250.143 536.37 250.744 536.585 251.47C536.799 252.196 536.827 253.005 536.67 253.897C536.514 254.785 536.211 255.531 535.762 256.137C535.313 256.742 534.755 257.177 534.09 257.44C533.424 257.703 532.688 257.764 531.882 257.622ZM532.136 256.218C532.658 256.311 533.115 256.249 533.507 256.033C533.899 255.818 534.217 255.495 534.462 255.065C534.711 254.636 534.884 254.145 534.981 253.593C535.078 253.045 535.083 252.526 534.996 252.038C534.913 251.546 534.725 251.131 534.431 250.79C534.137 250.45 533.729 250.234 533.207 250.142C532.681 250.049 532.22 250.112 531.824 250.331C531.431 250.55 531.11 250.876 530.861 251.309C530.616 251.739 530.445 252.228 530.348 252.776C530.251 253.328 530.244 253.848 530.327 254.336C530.414 254.824 530.605 255.237 530.899 255.574C531.197 255.911 531.61 256.126 532.136 256.218ZM539.215 258.736L538.201 249.695L539.93 250L540.502 256.609L540.586 256.624L543.389 250.61L545.118 250.915L545.688 257.495L545.772 257.509L548.553 251.521L550.282 251.826L546.243 259.975L544.536 259.674L543.885 253.161L543.756 253.138L540.916 259.036L539.215 258.736ZM557.768 262.186C556.936 262.04 556.253 261.725 555.718 261.242C555.189 260.756 554.822 260.151 554.619 259.427C554.416 258.703 554.391 257.91 554.543 257.048C554.696 256.175 554.996 255.434 555.442 254.824C555.889 254.21 556.444 253.768 557.107 253.496C557.771 253.225 558.507 253.16 559.317 253.303C559.969 253.418 560.53 253.642 560.998 253.975C561.467 254.304 561.82 254.712 562.057 255.2C562.298 255.689 562.397 256.227 562.355 256.816L560.727 256.529C560.708 256.11 560.564 255.727 560.295 255.38C560.029 255.033 559.629 254.812 559.096 254.718C558.63 254.636 558.199 254.687 557.805 254.871C557.416 255.053 557.084 255.352 556.81 255.769C556.538 256.183 556.347 256.695 556.239 257.307C556.129 257.934 556.129 258.491 556.239 258.98C556.349 259.469 556.555 259.868 556.858 260.18C557.164 260.491 557.555 260.689 558.028 260.772C558.345 260.828 558.643 260.821 558.921 260.751C559.203 260.678 559.451 260.546 559.665 260.357C559.883 260.169 560.055 259.926 560.18 259.629L561.808 259.916C561.651 260.461 561.382 260.925 561.003 261.309C560.624 261.692 560.159 261.964 559.607 262.124C559.06 262.285 558.446 262.306 557.768 262.186ZM565.412 263.551C564.868 263.455 564.393 263.268 563.988 262.989C563.584 262.706 563.288 262.348 563.099 261.915C562.914 261.482 562.871 260.984 562.97 260.421C563.056 259.936 563.219 259.553 563.461 259.273C563.703 258.992 563.998 258.788 564.348 258.662C564.697 258.535 565.076 258.459 565.484 258.435C565.892 258.411 566.303 258.41 566.719 258.434C567.244 258.465 567.67 258.49 567.998 258.509C568.326 258.525 568.57 258.5 568.732 258.437C568.893 258.373 568.991 258.24 569.027 258.039L569.034 257.999C569.12 257.511 569.049 257.108 568.82 256.79C568.595 256.474 568.212 256.268 567.671 256.173C567.108 256.073 566.642 256.12 566.273 256.313C565.909 256.502 565.639 256.737 565.462 257.018L563.953 256.382C564.232 255.893 564.578 255.52 564.993 255.262C565.412 255.001 565.87 254.839 566.365 254.777C566.862 254.71 567.369 254.723 567.888 254.814C568.231 254.875 568.587 254.98 568.957 255.13C569.331 255.277 569.667 255.486 569.966 255.758C570.268 256.03 570.492 256.383 570.638 256.817C570.786 257.247 570.804 257.775 570.694 258.402L569.687 264.109L568.053 263.821L568.261 262.646L568.193 262.634C568.047 262.831 567.847 263.015 567.594 263.186C567.341 263.357 567.032 263.481 566.669 263.56C566.305 263.638 565.886 263.635 565.412 263.551ZM566.013 262.273C566.475 262.354 566.887 262.333 567.247 262.208C567.612 262.083 567.906 261.889 568.129 261.625C568.357 261.357 568.501 261.054 568.561 260.714L568.756 259.606C568.686 259.655 568.56 259.691 568.38 259.713C568.203 259.732 568.004 259.741 567.781 259.74C567.558 259.735 567.342 259.73 567.132 259.724C566.922 259.714 566.746 259.706 566.605 259.7C566.273 259.684 565.964 259.701 565.679 259.75C565.397 259.801 565.159 259.903 564.967 260.057C564.779 260.209 564.658 260.434 564.606 260.732C564.533 261.146 564.63 261.487 564.899 261.753C565.168 262.016 565.539 262.189 566.013 262.273ZM574.315 259.663L573.415 264.766L571.742 264.471L573.258 255.877L574.864 256.16L574.617 257.559L574.723 257.578C575.001 257.157 575.375 256.846 575.846 256.645C576.32 256.444 576.879 256.4 577.525 256.514C578.11 256.617 578.601 256.831 578.998 257.154C579.396 257.474 579.673 257.896 579.831 258.42C579.988 258.944 580.005 259.561 579.88 260.27L578.916 265.736L577.243 265.441L578.171 260.176C578.281 259.553 578.205 259.038 577.942 258.63C577.68 258.218 577.265 257.962 576.698 257.862C576.31 257.794 575.95 257.817 575.619 257.932C575.291 258.047 575.01 258.251 574.778 258.545C574.55 258.835 574.395 259.208 574.315 259.663ZM588.867 255.675L586.846 267.135L585.117 266.83L587.138 255.37L588.867 255.675ZM595.626 263.421L594.726 268.524L593.053 268.229L595.074 256.77L596.725 257.061L595.973 261.324L596.079 261.343C596.362 260.916 596.735 260.603 597.197 260.404C597.659 260.204 598.224 260.164 598.891 260.281C599.481 260.385 599.974 260.597 600.372 260.917C600.773 261.238 601.052 261.66 601.21 262.184C601.372 262.705 601.39 263.324 601.263 264.04L600.3 269.507L598.626 269.212L599.555 263.946C599.666 263.316 599.59 262.799 599.327 262.395C599.064 261.987 598.643 261.732 598.065 261.63C597.67 261.56 597.301 261.582 596.958 261.694C596.618 261.808 596.331 262.011 596.094 262.304C595.863 262.593 595.706 262.966 595.626 263.421ZM606.032 270.697C605.186 270.547 604.488 270.238 603.94 269.768C603.397 269.295 603.017 268.699 602.802 267.981C602.59 267.259 602.563 266.452 602.721 265.561C602.876 264.68 603.177 263.933 603.623 263.32C604.074 262.707 604.629 262.264 605.288 261.992C605.952 261.72 606.682 261.655 607.481 261.796C607.966 261.881 608.422 262.044 608.848 262.285C609.275 262.526 609.639 262.85 609.941 263.257C610.242 263.664 610.449 264.16 610.561 264.745C610.674 265.326 610.661 266.007 610.524 266.786L610.419 267.38L603.587 266.175L603.808 264.921L609.001 265.837C609.079 265.397 609.058 264.991 608.939 264.62C608.82 264.246 608.616 263.931 608.326 263.676C608.04 263.421 607.681 263.256 607.248 263.18C606.778 263.097 606.347 263.14 605.956 263.31C605.569 263.476 605.248 263.727 604.992 264.063C604.741 264.396 604.578 264.776 604.502 265.205L604.33 266.185C604.229 266.759 604.243 267.266 604.373 267.704C604.508 268.143 604.739 268.501 605.067 268.778C605.396 269.052 605.804 269.231 606.293 269.317C606.61 269.373 606.907 269.38 607.184 269.336C607.461 269.289 607.711 269.191 607.934 269.041C608.156 268.892 608.342 268.692 608.49 268.441L610.023 269.006C609.814 269.45 609.514 269.818 609.124 270.111C608.739 270.401 608.282 270.599 607.756 270.706C607.234 270.81 606.659 270.807 606.032 270.697ZM615.127 260.306L613.106 271.765L611.433 271.47L613.454 260.01L615.127 260.306ZM614.616 275.354L616.699 263.537L618.333 263.825L618.088 265.218L618.228 265.243C618.356 265.081 618.532 264.898 618.757 264.696C618.981 264.493 619.271 264.332 619.626 264.214C619.982 264.092 620.427 264.079 620.961 264.173C621.654 264.295 622.243 264.58 622.726 265.026C623.208 265.473 623.546 266.054 623.739 266.769C623.936 267.484 623.953 268.306 623.789 269.235C623.625 270.164 623.33 270.933 622.903 271.542C622.477 272.148 621.962 272.582 621.358 272.845C620.755 273.104 620.106 273.172 619.413 273.05C618.89 272.958 618.479 272.795 618.178 272.561C617.88 272.328 617.659 272.077 617.514 271.81C617.369 271.542 617.262 271.307 617.194 271.107L617.093 271.089L616.289 275.649L614.616 275.354ZM617.581 268.123C617.475 268.727 617.469 269.273 617.564 269.759C617.659 270.245 617.85 270.646 618.136 270.962C618.424 271.274 618.808 271.472 619.289 271.557C619.789 271.645 620.23 271.587 620.613 271.381C620.996 271.171 621.314 270.852 621.566 270.424C621.822 269.996 622.001 269.495 622.102 268.92C622.202 268.353 622.206 267.829 622.114 267.347C622.026 266.866 621.835 266.465 621.542 266.144C621.252 265.824 620.855 265.62 620.352 265.531C619.867 265.445 619.435 265.498 619.055 265.689C618.679 265.88 618.365 266.184 618.115 266.602C617.864 267.019 617.686 267.526 617.581 268.123ZM549.447 288.234C549.197 288.19 548.973 288.129 548.775 288.052C548.577 287.978 548.431 287.91 548.338 287.848L548.983 286.548C549.274 286.684 549.54 286.767 549.781 286.798C550.022 286.829 550.248 286.777 550.461 286.641C550.677 286.506 550.889 286.261 551.098 285.905L551.406 285.371L549.796 276.11L551.587 276.426L552.587 283.479L552.677 283.495L556.03 277.209L557.826 277.526L552.566 286.643C552.323 287.062 552.047 287.404 551.739 287.669C551.43 287.937 551.087 288.119 550.708 288.214C550.33 288.309 549.91 288.315 549.447 288.234ZM561.007 287.128C560.201 286.985 559.53 286.677 558.995 286.202C558.459 285.726 558.084 285.128 557.869 284.405C557.654 283.682 557.625 282.877 557.782 281.989C557.939 281.098 558.242 280.348 558.692 279.738C559.142 279.129 559.7 278.693 560.365 278.429C561.031 278.166 561.767 278.105 562.572 278.248C563.378 278.39 564.049 278.698 564.584 279.173C565.12 279.649 565.495 280.249 565.709 280.976C565.923 281.702 565.952 282.511 565.794 283.402C565.638 284.29 565.335 285.037 564.886 285.642C564.437 286.248 563.88 286.682 563.214 286.946C562.548 287.209 561.812 287.27 561.007 287.128ZM561.26 285.724C561.782 285.816 562.239 285.754 562.631 285.539C563.023 285.323 563.341 285.001 563.586 284.571C563.835 284.142 564.008 283.651 564.106 283.099C564.202 282.55 564.207 282.032 564.12 281.544C564.038 281.052 563.849 280.636 563.556 280.296C563.262 279.956 562.854 279.739 562.331 279.647C561.805 279.555 561.344 279.618 560.948 279.836C560.556 280.055 560.235 280.382 559.985 280.814C559.74 281.244 559.569 281.734 559.473 282.282C559.375 282.834 559.368 283.354 559.451 283.842C559.538 284.33 559.729 284.743 560.024 285.079C560.322 285.416 560.734 285.631 561.26 285.724ZM572.811 285.355L573.698 280.325L575.376 280.621L573.861 289.215L572.216 288.925L572.478 287.437L572.389 287.421C572.11 287.845 571.726 288.171 571.235 288.4C570.749 288.626 570.184 288.682 569.538 288.568C568.986 288.471 568.519 288.264 568.136 287.946C567.758 287.626 567.49 287.203 567.333 286.679C567.179 286.156 567.164 285.54 567.289 284.831L568.253 279.365L569.926 279.66L568.998 284.925C568.895 285.511 568.975 286.006 569.238 286.41C569.501 286.814 569.892 287.062 570.411 287.153C570.724 287.208 571.049 287.185 571.387 287.083C571.728 286.981 572.029 286.79 572.29 286.509C572.555 286.229 572.728 285.844 572.811 285.355ZM578.346 286.608L578.365 286.502C578.495 285.809 578.661 285.269 578.864 284.882C579.071 284.495 579.32 284.197 579.611 283.987C579.901 283.776 580.239 283.597 580.623 283.45C580.871 283.347 581.101 283.224 581.311 283.08C581.521 282.937 581.698 282.76 581.843 282.551C581.987 282.342 582.084 282.099 582.132 281.823C582.191 281.491 582.163 281.19 582.049 280.92C581.935 280.65 581.759 280.427 581.521 280.25C581.288 280.071 581.012 279.953 580.695 279.897C580.408 279.846 580.123 279.858 579.841 279.931C579.559 280.004 579.31 280.153 579.093 280.376C578.878 280.596 578.722 280.901 578.626 281.292L576.925 280.992C577.07 280.325 577.339 279.788 577.734 279.38C578.13 278.969 578.606 278.69 579.163 278.542C579.723 278.395 580.317 278.376 580.944 278.487C581.63 278.608 582.208 278.842 582.677 279.191C583.148 279.535 583.484 279.962 583.686 280.47C583.893 280.976 583.943 281.533 583.836 282.141C583.762 282.559 583.631 282.924 583.441 283.237C583.252 283.546 583.013 283.81 582.725 284.028C582.44 284.247 582.112 284.428 581.74 284.57C581.389 284.712 581.095 284.871 580.86 285.049C580.628 285.228 580.442 285.454 580.301 285.73C580.16 286.005 580.049 286.356 579.965 286.784L579.947 286.89L578.346 286.608ZM578.591 290.159C578.286 290.105 578.042 289.951 577.86 289.695C577.678 289.436 577.615 289.152 577.67 288.843C577.724 288.537 577.88 288.295 578.138 288.117C578.397 287.936 578.679 287.872 578.985 287.926C579.287 287.98 579.529 288.136 579.71 288.395C579.896 288.65 579.962 288.931 579.908 289.237C579.872 289.442 579.786 289.622 579.652 289.775C579.521 289.925 579.363 290.035 579.178 290.107C578.992 290.178 578.797 290.195 578.591 290.159Z" fill="#5EB0EF"/>
</g>
<g filter="url(#filter1_d_279_292)">
<path d="M541.466 163.248L531.416 166.001L529.631 171.363L539.681 168.61C544.827 167.2 548.522 163.56 550.003 159.112L551.788 153.75C550.307 158.198 546.612 161.838 541.466 163.248Z" fill="#E1F0FF"/>
<path d="M529.561 171.624C529.513 171.611 529.469 171.586 529.435 171.549C529.366 171.477 529.343 171.373 529.374 171.278L531.159 165.916C531.188 165.831 531.257 165.765 531.344 165.741L541.394 162.988C546.24 161.66 550.03 158.175 551.532 153.665C551.578 153.523 551.735 153.449 551.873 153.494C552.014 153.542 552.091 153.694 552.044 153.836C552.043 153.837 552.043 153.838 552.042 153.84L550.258 159.198C548.699 163.88 544.772 167.496 539.751 168.871L529.702 171.624C529.655 171.636 529.606 171.636 529.561 171.624ZM531.626 166.223L530.046 170.969L539.609 168.35C544.455 167.022 548.244 163.537 549.746 159.027L550.307 157.344C548.303 160.292 545.213 162.501 541.537 163.508L531.626 166.223Z" fill="#1F93FF"/>
<path d="M526.775 179.496C525.922 179.73 524.928 179.573 524.138 178.931L514.126 170.737L512.341 176.099L522.352 184.293C523.143 184.935 524.137 185.092 524.989 184.858C525.784 184.641 526.456 184.084 526.729 183.265L528.514 177.903C528.241 178.722 527.569 179.279 526.775 179.496Z" fill="#E1F0FF"/>
<path d="M523.393 185.12C522.957 185.003 522.543 184.794 522.182 184.501L512.17 176.307C512.083 176.236 512.049 176.119 512.084 176.013L513.87 170.651C513.898 170.567 513.965 170.502 514.05 170.477C514.136 170.452 514.228 170.471 514.297 170.527L524.308 178.721C524.983 179.268 525.878 179.461 526.703 179.235C527.459 179.028 528.026 178.511 528.257 177.817C528.304 177.675 528.461 177.601 528.599 177.646C528.74 177.693 528.817 177.846 528.769 177.987L526.984 183.349C526.695 184.218 525.993 184.862 525.06 185.118C524.51 185.268 523.935 185.265 523.393 185.12ZM512.655 176.007L522.523 184.083C523.198 184.63 524.094 184.823 524.918 184.597C525.675 184.39 526.241 183.873 526.472 183.179L527.751 179.339C527.484 179.523 527.18 179.664 526.846 179.756C525.853 180.027 524.778 179.796 523.967 179.139L514.258 171.193L512.655 176.007Z" fill="#1F93FF"/>
<path d="M466.759 183.714C458.231 186.05 448.946 181.376 446.028 173.265L429.101 126.221C427.944 123.008 427.962 119.738 428.935 116.816L427.149 122.178C426.176 125.1 426.159 128.37 427.316 131.584L444.243 178.627C447.161 186.738 456.446 191.412 464.974 189.076L512.341 176.1L514.126 170.738L466.759 183.714Z" fill="#E1F0FF"/>
<path d="M455.874 189.331C450.514 187.895 445.9 184.028 443.989 178.717L427.062 131.673C425.921 128.502 425.862 125.188 426.894 122.091L428.679 116.729C428.726 116.588 428.879 116.511 429.02 116.559C429.162 116.606 429.238 116.759 429.191 116.9C428.198 119.881 428.255 123.072 429.355 126.129L446.282 173.173C449.148 181.138 458.302 185.75 466.688 183.452L514.054 170.476C514.15 170.45 514.253 170.479 514.321 170.551C514.39 170.623 514.413 170.727 514.382 170.822L512.596 176.184C512.568 176.269 512.499 176.335 512.412 176.359L465.046 189.336C461.981 190.175 458.815 190.119 455.874 189.331ZM427.961 120.595L427.406 122.262C426.413 125.242 426.47 128.434 427.57 131.49L444.497 178.534C447.363 186.5 456.517 191.112 464.903 188.815L512.13 175.876L513.71 171.13L466.831 183.973C458.18 186.343 448.733 181.58 445.774 173.355L428.847 126.311C428.17 124.431 427.875 122.5 427.961 120.595Z" fill="#1F93FF"/>
<path d="M513.974 86.8408C522.502 84.5045 531.775 89.1819 534.693 97.2932L551.62 144.337C554.539 152.448 549.994 160.911 541.466 163.248L531.416 166.001L528.568 177.717C528.34 178.638 527.628 179.263 526.775 179.497C525.922 179.73 524.928 179.573 524.138 178.931L514.126 170.738L466.76 183.714C458.231 186.051 448.946 181.376 446.028 173.265L429.101 126.222C426.183 118.111 430.74 109.644 439.268 107.308L513.974 86.8408Z" fill="#F5FAFF"/>
<path d="M457.659 183.969C452.299 182.533 447.685 178.666 445.774 173.355L428.847 126.312C427.436 122.391 427.689 118.251 429.557 114.653C431.496 110.919 434.92 108.218 439.196 107.046L513.902 86.5794C522.547 84.211 531.987 88.9756 534.947 97.2008L551.874 144.245C553.285 148.168 553.034 152.311 551.165 155.909C549.229 159.638 545.809 162.336 541.537 163.507L531.64 166.218L528.83 177.78C528.591 178.742 527.85 179.481 526.846 179.756C525.853 180.028 524.777 179.797 523.967 179.139L514.062 171.034L466.83 183.973C463.765 184.813 460.6 184.757 457.659 183.969ZM513.974 86.8396L514.045 87.0999L439.339 107.566C435.209 108.698 431.905 111.303 430.036 114.902C428.238 118.365 427.996 122.352 429.355 126.129L446.282 173.173C449.148 181.138 458.302 185.75 466.688 183.453L514.054 170.476C514.138 170.453 514.229 170.472 514.296 170.528L524.308 178.721C524.983 179.269 525.878 179.461 526.703 179.235C527.515 179.012 528.114 178.42 528.305 177.651L531.153 165.936C531.176 165.841 531.249 165.765 531.344 165.739L541.394 162.986C545.519 161.856 548.819 159.254 550.686 155.66C552.484 152.197 552.725 148.208 551.365 144.427L534.439 97.3835C531.573 89.4176 522.424 84.8048 514.045 87.1001L513.974 86.8396Z" fill="#1F93FF"/>
<path d="M473.839 149.82L471.062 138.52L472.747 138.027L473.954 142.938L479.523 141.311L478.316 136.401L480.006 135.907L482.784 147.207L481.093 147.701L479.882 142.774L474.313 144.4L475.524 149.328L473.839 149.82ZM488.59 145.694C487.765 145.935 487.01 145.964 486.326 145.782C485.645 145.594 485.063 145.222 484.579 144.666C484.098 144.105 483.75 143.384 483.534 142.505C483.32 141.637 483.292 140.825 483.45 140.07C483.61 139.313 483.934 138.664 484.421 138.124C484.911 137.583 485.546 137.198 486.324 136.971C486.797 136.833 487.274 136.778 487.757 136.807C488.239 136.835 488.698 136.967 489.134 137.203C489.57 137.438 489.956 137.796 490.293 138.278C490.628 138.755 490.89 139.378 491.079 140.147L491.223 140.732L484.564 142.677L484.26 141.441L489.321 139.963C489.215 139.529 489.033 139.17 488.776 138.886C488.518 138.599 488.207 138.404 487.843 138.301C487.483 138.198 487.091 138.207 486.67 138.331C486.212 138.464 485.84 138.695 485.554 139.023C485.271 139.346 485.081 139.717 484.986 140.135C484.892 140.549 484.898 140.967 485.002 141.39L485.239 142.356C485.378 142.922 485.595 143.376 485.889 143.716C486.186 144.054 486.539 144.277 486.947 144.382C487.354 144.484 487.796 144.465 488.272 144.326C488.581 144.236 488.852 144.11 489.085 143.947C489.317 143.781 489.503 143.58 489.644 143.346C489.785 143.111 489.872 142.847 489.906 142.554L491.518 142.384C491.508 142.88 491.385 143.348 491.15 143.787C490.918 144.222 490.585 144.605 490.152 144.936C489.722 145.263 489.201 145.516 488.59 145.694ZM492.636 132.217L495.414 143.517L493.783 143.994L491.006 132.694L492.636 132.217ZM496.292 131.149L499.069 142.449L497.438 142.926L494.661 131.626L496.292 131.149ZM504.665 140.998C503.879 141.228 503.149 141.246 502.474 141.053C501.8 140.859 501.22 140.483 500.735 139.923C500.251 139.362 499.901 138.644 499.686 137.769C499.47 136.89 499.443 136.074 499.604 135.321C499.766 134.568 500.095 133.924 500.591 133.389C501.087 132.853 501.727 132.471 502.513 132.242C503.298 132.012 504.028 131.994 504.703 132.187C505.378 132.38 505.958 132.759 506.443 133.323C506.929 133.887 507.28 134.608 507.496 135.488C507.711 136.363 507.737 137.175 507.574 137.925C507.412 138.674 507.083 139.316 506.587 139.851C506.091 140.386 505.45 140.769 504.665 140.998ZM504.33 139.612C504.839 139.463 505.227 139.204 505.495 138.834C505.762 138.464 505.921 138.029 505.969 137.53C506.022 137.03 505.981 136.508 505.847 135.963C505.714 135.422 505.511 134.95 505.236 134.545C504.964 134.136 504.626 133.842 504.224 133.664C503.822 133.486 503.366 133.471 502.857 133.62C502.344 133.769 501.953 134.032 501.683 134.406C501.416 134.78 501.257 135.219 501.205 135.722C501.157 136.222 501.199 136.742 501.332 137.282C501.465 137.827 501.668 138.302 501.939 138.708C502.214 139.112 502.552 139.402 502.953 139.576C503.358 139.75 503.817 139.761 504.33 139.612Z" fill="#5EB0EF"/>
</g>
<path d="M4.86949 274.74L9.97172 247.462L19.7974 222.929L30.9436 198.389L46.6178 177.059L67.9884 159.351L82.7575 140.367L102.068 124.521L124.619 115L150.618 111.304L167.965 102.014L192.841 106.434L219.076 117.353L245.808 134.609L272.086 157.755L285.422 189.132L296.745 224.845L305.587 263.61L311.588 303.991L314.527 344.449L314.295 383.457L310.934 419.56L304.647 451.501L295.724 478.232L284.563 498.977L271.612 513.247L257.372 520.826M302.904 107.9L299.056 111.018L292.547 120.425L283.488 136.099L272.083 157.728M272.083 157.728L309.463 171.333L310.528 171.887L343.684 189.255L373.568 210.794L398.12 235.13L416.62 261.358L410.92 281.519L400.242 299.918L410.457 332.309L414.456 363.385L412.263 392.131L404.129 417.677L390.509 439.307L371.469 460.32L346.979 477.699L317.718 490.743L284.572 498.917L248.617 501.831L211.087 499.295L173.302 491.341L136.617 478.219L102.347 460.395L71.7074 438.542L45.7444 413.475L25.2894 386.113L10.9433 357.44L3.0367 328.449L6.31516 303.581L16.3517 278.291L33.0248 253.408L55.953 229.803L84.4845 208.353L117.68 189.88L154.408 175.099L193.349 164.58L233.064 158.721L272.087 157.717L309.83 166.526L344.266 179.777L374.251 196.924L398.828 217.287L398.131 235.134L393.173 251.992L384.032 267.329L370.899 280.623L354.109 291.409M272.083 157.728L232.894 148.918L193.309 145.275L154.761 146.874L118.622 153.6L86.122 165.132L58.3146 180.971L36.0084 200.476L19.7717 222.894L14.7939 249.794L4.8438 274.705L6.29664 303.561L14.462 333.107L29.2335 362.369L50.2812 390.319L76.9932 415.965L108.505 438.341L143.748 456.621L181.462 470.118L220.29 478.336L258.828 481.021L295.719 478.14L329.7 469.887L359.659 456.649L384.696 438.996L404.123 417.624L417.485 393.327L425.471 368.15L427.173 340.544L422.339 311.34L410.93 281.458L393.171 251.928L369.552 223.797L340.813 198.092L307.937 175.77L272.081 157.663L232.384 153.66L192.163 154.65L152.883 160.579L115.964 171.206L82.7029 186.097L54.2165 204.645L31.3804 226.133L14.8104 249.748L16.3609 278.231L24.5707 307.409L39.3555 336.318L60.3736 363.962L87.0168 389.34L118.42 411.523L153.511 429.658L191.044 443.089L229.674 451.324L268 454.099L304.665 451.379L338.424 443.352L368.176 430.398L393.018 413.07L412.276 392.059L425.491 368.131L432.45 342.119L433.883 315.708L434.523 289.648L429.477 264.86L429.294 263.322L429.257 263.142L424.404 239.935L414.321 215.694L404.101 196.716L390.803 175.926L381.309 165.187L373.591 156.464L362.075 146.64L361.837 146.413L352.995 138.843L344.539 131.656L324.648 118.605L302.899 107.809L279.89 99.562L256.234 94.0755L232.575 91.5188L221.463 91.6985L209.847 91.9253L209.504 91.9539L194.363 92.229L182.851 94.0682L168.703 96.3301L145.222 103.938L125.25 112.106L102.052 124.426L83.5481 139.285L83.4392 139.374L82.2981 140.469L62.6576 156.413L46.6014 176.963L36.0063 200.411L31.3732 226.118L33.0269 253.332L41.0818 281.212L55.4488 308.842L75.7848 335.266L101.499 359.538L131.764 380.768L165.547 398.172L201.663 411.099L238.808 419.089M4.85821 274.735L1.6495 300.116L2.31349 313.696L3.03978 328.476L6.39639 352.137L9.87542 364.911L13.8903 379.66L23.105 398.797L27.4322 406.849L35.3351 423.998L47.047 439.755L52.8972 447.632L70.8641 465.091L75.1267 469.241L101.33 488.02L130.628 503.291L161.988 514.514L194.318 521.276L226.476 523.38L257.361 520.784L266.894 518.403L285.932 513.646L302.919 505.415L317.699 490.762L329.695 469.936L338.395 443.431L343.393 412.007L344.401 376.673L341.296 338.639L334.125 299.291L323.137 260.09L308.737 222.528L291.492 188L272.072 157.724L251.229 132.729L229.737 113.77L219.069 117.337L209.828 122.435L202.299 128.911L196.72 136.609L159.942 134.257L125.497 137.452L94.5228 145.955L67.9771 159.347L58.3177 180.997L54.2144 204.721L55.9561 229.83L63.6294 255.523L77.1348 280.983L96.1426 305.323L120.094 327.686L148.22 347.268L179.566 363.349L213.044 375.329L247.471 382.803L281.62 385.517L314.303 383.434L344.408 376.688L370.974 365.595L393.195 350.616L410.449 332.332L422.326 311.412L428.604 288.57L416.623 261.385L417.299 240.113L398.82 217.31L395.324 199.026L371.622 182.693L365.836 168.452L338.659 160.224L307.077 156.576L272.097 157.759L237.88 168.807L202.625 184.533L167.637 204.414L134.245 227.718L103.709 253.585L77.1378 281.01L55.4569 308.961L39.3565 336.42L29.2468 362.438L25.2997 386.155L27.4281 406.86L46.7017 432.756L71.1533 456.453L99.9848 477.085L132.236 493.879L166.769 506.231L202.353 513.691L237.716 516.027L271.625 513.213L302.93 505.419L311.377 501.94L330.628 493.01L346.971 477.722L359.672 456.718L368.166 430.496L372.03 399.799L370.99 365.588L364.968 329.027L354.109 291.409M354.109 291.409L338.761 254.128M354.109 291.409L334.148 299.299L311.619 303.977L287.235 305.24L261.805 303.012L236.179 297.346L211.244 288.411L187.843 276.527L166.765 262.097L148.718 245.633L134.265 227.7L123.834 208.914L117.694 189.911L115.973 171.286L118.636 153.631L125.509 137.456L136.297 123.219L168.237 123.106L202.31 128.915L237.342 140.565L272.094 157.732L309.026 161.561L342.574 170.008L371.642 182.674L374.258 196.939L373.575 210.81L369.565 223.866L362.294 235.684L351.935 245.892L338.761 254.128M338.761 254.128L319.47 218.574L296.964 186.049L272.106 157.736L241.144 137.225L209.854 122.432L179.338 113.744L168.249 123.11L159.964 134.265L154.775 146.905L152.892 160.659L154.422 175.13L159.378 189.862L167.645 204.392L179.002 218.241L193.103 230.951L209.504 242.092L227.677 251.28L247.032 258.209L266.906 262.652L286.652 264.463L305.606 263.592L323.16 260.099L338.761 254.128ZM238.808 419.089L275.657 421.877L310.915 419.438L343.373 411.923L371.991 399.695L395.887 383.278L414.42 363.308L427.143 340.52L433.838 315.691L428.581 288.459L429.226 264.423L424.366 239.934L413.01 218.276L404.063 196.715L387.791 180.718L376.567 163.129L361.991 146.623L344.501 131.655L331.859 129.742L315.267 133.406L295.137 142.745L272.04 157.636L246.715 177.732L220.051 202.422M238.808 419.089L229.628 451.308L220.257 478.286L211.04 499.214L202.291 513.579L194.279 521.172L187.236 522.026M238.808 419.089L247.443 382.704L255.189 343.486L261.75 302.915L266.863 262.56L270.349 223.967L272.092 188.581L272.062 157.644L270.316 132.162L266.966 112.843L262.196 100.098L256.215 94.094M220.051 202.422L193.033 230.862L166.695 262.007L142.043 294.675L120.032 327.612L101.453 359.559L86.952 389.342L76.9408 415.934L71.6406 438.479L71.0722 456.36L75.0681 469.155L83.314 476.675L93.0286 483.641L101.497 489.706L106.177 493.061L114.881 497.599L131.708 506.373L159.036 516.153L160.739 516.504L177.606 520.032L187.216 522.045L192.967 522.422L203.344 523.102L215.271 523.884L226.413 523.306L237.626 515.956L248.531 501.787L258.756 481.008L267.9 454.127L275.603 421.921L281.538 385.462L285.439 346.047L287.134 305.165L286.562 264.392L283.75 225.273L278.828 189.279L272.012 157.677L263.622 131.492L253.993 111.488L243.498 98.1187L225.379 98.4874L208.31 101.248L187.752 95.4807L167.902 101.94L145.16 103.967L124.552 114.937L107.455 129.029L94.4673 145.897L86.0809 165.104L82.6567 186.118L84.4321 208.321L91.464 231.028L103.651 253.5L120.682 274.97L142.046 294.701L167.076 311.991L194.926 326.211L224.632 336.844L255.172 343.531L285.473 346.06L314.487 344.383L341.259 338.6L364.92 328.984L384.756 315.914L400.201 299.89M220.051 202.422L231.257 209.969L243.643 216.206L256.814 220.923L270.334 223.975L283.781 225.259L296.706 224.741L308.713 222.455L319.415 218.478L328.489 212.961L335.679 206.079L340.772 198.064L343.637 189.173L344.219 179.695L342.519 169.911L338.613 160.105L332.633 150.581L304.005 151.58L272.047 157.651M220.051 202.422L210.385 193.809L202.563 184.421L196.813 174.545L193.297 164.51L192.106 154.63L193.258 145.205L196.676 136.516M159.066 516.177L161.959 514.452L166.718 506.161L173.254 491.298L181.428 470.105L190.997 443.11L201.646 411.144L213.011 375.279L224.647 336.837L236.124 297.287L246.987 258.154L256.817 220.949L265.273 187.059L272.054 157.666L257.228 131.649L241.489 111.763L225.406 98.4843L209.525 92.0002L187.779 95.4776L168.672 96.3444M434.476 289.67L429.431 264.882L417.263 240.036L413.013 218.303L395.292 198.937L387.794 180.745L365.792 168.359L357.045 154.551L345.615 141.571L324.773 141.614L299.999 146.973L272.047 157.651M272.047 157.651L241.822 173.416L210.396 193.813L178.948 218.144L148.663 245.536L120.695 274.936L96.0995 305.231L75.7581 335.269L60.3284 363.946L50.2484 390.269L45.6972 413.394L46.64 432.644L52.8428 447.536M272.047 157.651L258.634 184.655L243.659 216.199L227.645 251.191L211.201 288.318L194.954 326.17L179.545 363.265L165.554 398.187L153.488 429.65L143.738 456.579L136.596 478.135L132.212 493.768L130.626 503.189L131.765 506.355M324.628 118.623L316.207 119.462L304.434 126.275L289.587 139.074L272.058 157.655L252.399 181.528L231.279 209.977L209.472 242.004L187.8 276.435L167.104 311.95L148.188 347.179L131.76 380.78L118.386 411.51L108.495 438.299L102.323 460.322L99.9612 476.974L101.329 487.917L106.223 493.039M296.932 185.961L301.577 183.222L305.274 179.781L307.93 175.755L309.461 171.268L309.817 166.457L309.005 161.477L307.064 156.469L304.043 151.581L300.041 146.962L295.175 142.746L289.602 139.067L283.479 136.019L276.99 133.695L270.327 132.166L263.679 131.475L257.244 131.641L251.227 132.664L245.792 134.513L241.108 137.148L237.322 140.481L234.543 144.423L232.877 148.86L232.373 153.656L233.046 158.663L234.891 163.725L237.856 168.696L241.848 173.413L246.753 177.733L252.415 181.521L258.661 184.652L265.297 187.029L272.108 188.574L278.878 189.246L285.41 189.025L291.487 187.908L296.936 185.949M272.078 157.637L276.994 133.684L279.936 115.823L280.876 104.414L279.874 99.5692M400.18 299.844L383.962 267.239L362.224 235.595L335.667 206.075L305.229 179.764L272.029 157.632L234.498 144.407L233.321 144.158L196.669 136.501M390.727 175.924L376.545 163.12L357.019 154.516L332.614 150.562L324.758 141.583L315.256 133.401L304.393 126.248L292.492 120.329L279.891 115.806L266.94 112.808L254.014 111.431L241.483 111.709L229.702 113.655L208.319 101.187L192.791 106.288L179.269 113.617L150.565 111.169L136.255 123.088L107.468 128.957L82.257 140.441L62.6166 156.385M285.901 513.519L301.75 506.411L305.972 504.517L311.324 501.805L330.575 492.875L343.039 484.022L353.816 476.36L371.418 460.212L384.656 438.93L392.955 413.034L395.873 383.247L393.153 350.486L384.747 315.834L370.841 280.5L351.878 245.769L328.49 212.923L301.544 183.172L272.041 157.598L234.858 163.675L196.818 174.496L159.328 189.716L123.769 208.775L91.4702 230.941L63.5801 255.377L41.0376 281.158L24.5193 307.339L14.423 333.003L10.89 357.306L13.8184 379.505L23.0331 398.642L25.4444 404.116L27.5222 408.289L35.2673 423.832M373.596 156.556L362.08 146.732L345.655 141.637L331.902 129.834L316.221 119.531L299.06 111.007L280.885 104.494L262.21 100.167L243.551 98.1506L232.562 91.5908L209.49 92.0259L194.349 92.3009" stroke="#B7D9F8" stroke-width="2.4" stroke-linecap="round" stroke-linejoin="round"/>
<g filter="url(#filter2_d_279_292)">
<g filter="url(#filter3_d_279_292)">
<path d="M151.65 231.024C151.65 253.137 123.596 275.249 123.596 275.249C123.596 275.249 95.5417 253.137 95.5417 231.024C95.5417 223.205 98.4974 215.706 103.759 210.176C109.02 204.647 116.155 201.541 123.596 201.541C131.036 201.541 138.172 204.647 143.433 210.176C148.694 215.706 151.65 223.205 151.65 231.024Z" fill="#EDF6FF"/>
<path d="M123.596 275.249C123.771 275.472 123.771 275.472 123.772 275.472L123.773 275.471L123.777 275.468L123.792 275.455L123.853 275.407C123.907 275.364 123.987 275.3 124.09 275.215C124.297 275.047 124.599 274.798 124.984 274.473C125.754 273.823 126.853 272.87 128.171 271.657C130.807 269.233 134.323 265.77 137.839 261.612C144.86 253.311 151.933 242.188 151.933 231.024C151.933 223.134 148.951 215.564 143.638 209.981C138.325 204.397 131.116 201.258 123.596 201.258C116.076 201.258 108.866 204.397 103.553 209.981C98.2406 215.564 95.2583 223.134 95.2583 231.024C95.2583 242.188 102.331 253.311 109.352 261.612C112.869 265.77 116.384 269.233 119.02 271.657C120.339 272.87 121.438 273.823 122.207 274.473C122.592 274.798 122.895 275.047 123.102 275.215C123.205 275.3 123.284 275.364 123.338 275.407L123.399 275.455L123.415 275.468L123.419 275.471L123.42 275.472C123.42 275.472 123.42 275.472 123.596 275.249ZM123.596 275.249L123.771 275.472C123.668 275.553 123.523 275.553 123.42 275.472L123.596 275.249Z" stroke="#96C7F2" stroke-width="0.566987" stroke-linecap="round" stroke-linejoin="round"/>
</g>
<g clip-path="url(#clip0_279_292)">
<path d="M141.257 229.501C141.257 239.308 133.307 247.258 123.5 247.258C113.693 247.258 105.743 239.308 105.743 229.501C105.743 219.694 113.693 211.744 123.5 211.744C133.307 211.744 141.257 219.694 141.257 229.501Z" fill="#47A7F6" stroke="white" stroke-width="0.0694987"/>
<path d="M130.924 237.341H122.675C118.129 237.341 114.428 233.641 114.428 229.093C114.428 224.546 118.129 220.846 122.675 220.846C127.224 220.846 130.924 224.546 130.924 229.093V237.341Z" fill="white" stroke="white" stroke-width="0.416992"/>
</g>
</g>
<g filter="url(#filter4_d_279_292)">
<g filter="url(#filter5_d_279_292)">
<path d="M389.274 251.083C389.274 267.021 369.053 282.96 369.053 282.96C369.053 282.96 348.832 267.021 348.832 251.083C348.832 245.447 350.962 240.042 354.755 236.056C358.547 232.071 363.69 229.832 369.053 229.832C374.416 229.832 379.559 232.071 383.351 236.056C387.143 240.042 389.274 245.447 389.274 251.083Z" fill="#EDF6FF"/>
<path d="M369.053 282.96C369.179 283.12 369.18 283.12 369.18 283.12L369.18 283.119L369.183 283.117L369.195 283.108L369.239 283.073C369.256 283.059 369.277 283.042 369.302 283.022C369.332 282.998 369.368 282.969 369.409 282.935C369.558 282.814 369.776 282.634 370.054 282.4C370.608 281.931 371.401 281.245 372.351 280.371C374.251 278.623 376.785 276.127 379.319 273.13C384.38 267.147 389.478 259.129 389.478 251.083C389.478 245.396 387.329 239.94 383.499 235.915C379.67 231.891 374.473 229.628 369.053 229.628C363.632 229.628 358.436 231.891 354.607 235.915C350.777 239.94 348.628 245.396 348.628 251.083C348.628 259.129 353.726 267.147 358.786 273.13C361.321 276.127 363.855 278.623 365.755 280.371C366.705 281.245 367.497 281.931 368.052 282.4C368.33 282.634 368.548 282.814 368.697 282.935C368.771 282.996 368.828 283.042 368.867 283.073L368.911 283.108L368.922 283.117L368.925 283.119L368.926 283.12C368.926 283.12 368.926 283.12 369.053 282.96ZM369.053 282.96L369.179 283.12C369.105 283.179 369.001 283.179 368.926 283.12L369.053 282.96Z" stroke="#96C7F2" stroke-width="0.408675" stroke-linecap="round" stroke-linejoin="round"/>
</g>
<g clip-path="url(#clip1_279_292)">
<path d="M381.783 249.984C381.783 257.053 376.052 262.783 368.984 262.783C361.915 262.783 356.185 257.053 356.185 249.984C356.185 242.915 361.915 237.185 368.984 237.185C376.052 237.185 381.783 242.915 381.783 249.984Z" fill="#47A7F6" stroke="white" stroke-width="0.0500935"/>
<path d="M374.335 255.634H368.389C365.112 255.634 362.445 252.966 362.445 249.688C362.445 246.411 365.112 243.744 368.39 243.744C371.668 243.744 374.335 246.411 374.335 249.688V255.634Z" fill="white" stroke="white" stroke-width="0.300561"/>
</g>
</g>
<g filter="url(#filter6_d_279_292)">
<g filter="url(#filter7_d_279_292)">
<path d="M224.853 264.393C224.853 276.402 209.616 288.412 209.616 288.412C209.616 288.412 194.38 276.402 194.38 264.393C194.38 260.146 195.986 256.074 198.843 253.071C201.7 250.068 205.576 248.381 209.616 248.381C213.657 248.381 217.533 250.068 220.39 253.071C223.247 256.074 224.853 260.146 224.853 264.393Z" fill="#EDF6FF"/>
<path d="M209.616 288.412C209.712 288.533 209.712 288.533 209.712 288.533L209.713 288.532L209.715 288.53L209.723 288.524L209.756 288.497C209.77 288.486 209.786 288.473 209.805 288.458C209.828 288.44 209.854 288.418 209.885 288.393C209.997 288.302 210.161 288.166 210.371 287.99C210.789 287.637 211.385 287.119 212.101 286.461C213.533 285.144 215.442 283.263 217.352 281.005C221.165 276.497 225.007 270.456 225.007 264.393C225.007 260.108 223.387 255.997 220.502 252.965C217.616 249.932 213.701 248.227 209.616 248.227C205.532 248.227 201.617 249.932 198.731 252.965C195.846 255.997 194.226 260.108 194.226 264.393C194.226 270.456 198.068 276.497 201.881 281.005C203.791 283.263 205.7 285.144 207.132 286.461C207.848 287.119 208.444 287.637 208.862 287.99C209.072 288.166 209.236 288.302 209.348 288.393C209.404 288.439 209.447 288.474 209.477 288.497L209.51 288.524L209.518 288.53L209.52 288.532L209.521 288.533C209.521 288.533 209.521 288.533 209.616 288.412ZM209.616 288.412L209.712 288.533C209.656 288.577 209.577 288.577 209.521 288.533L209.616 288.412Z" stroke="#96C7F2" stroke-width="0.30793" stroke-linecap="round" stroke-linejoin="round"/>
</g>
<g clip-path="url(#clip2_279_292)">
<path d="M219.208 263.565C219.208 268.891 214.891 273.209 209.564 273.209C204.238 273.209 199.921 268.891 199.921 263.565C199.921 258.239 204.238 253.921 209.564 253.921C214.891 253.921 219.208 258.239 219.208 263.565Z" fill="#47A7F6" stroke="white" stroke-width="0.0377447"/>
<path d="M213.596 267.822H209.117C206.647 267.822 204.638 265.812 204.638 263.342C204.638 260.873 206.647 258.863 209.117 258.863C211.587 258.863 213.596 260.873 213.596 263.342V267.822Z" fill="white" stroke="white" stroke-width="0.226468"/>
</g>
</g>
<g filter="url(#filter8_d_279_292)">
<g filter="url(#filter9_d_279_292)">
<path d="M170.853 85.3932C170.853 97.4025 155.616 109.412 155.616 109.412C155.616 109.412 140.38 97.4025 140.38 85.3932C140.38 81.1465 141.986 77.0737 144.843 74.0708C147.7 71.0679 151.576 69.3809 155.616 69.3809C159.657 69.3809 163.533 71.0679 166.39 74.0708C169.247 77.0737 170.853 81.1465 170.853 85.3932Z" fill="#EDF6FF"/>
<path d="M155.616 109.412C155.712 109.533 155.712 109.533 155.712 109.533L155.713 109.532L155.715 109.53L155.723 109.524L155.756 109.497C155.77 109.486 155.786 109.473 155.805 109.458C155.828 109.44 155.854 109.418 155.885 109.393C155.997 109.302 156.161 109.166 156.371 108.99C156.789 108.637 157.385 108.119 158.101 107.461C159.533 106.144 161.442 104.263 163.352 102.005C167.165 97.4971 171.007 91.4559 171.007 85.3932C171.007 81.108 169.387 76.9969 166.502 73.9646C163.616 70.9321 159.701 69.2269 155.616 69.2269C151.532 69.2269 147.617 70.9321 144.731 73.9646C141.846 76.9969 140.226 81.108 140.226 85.3932C140.226 91.4559 144.068 97.4971 147.881 102.005C149.791 104.263 151.7 106.144 153.132 107.461C153.848 108.119 154.444 108.637 154.862 108.99C155.072 109.166 155.236 109.302 155.348 109.393C155.404 109.439 155.447 109.474 155.477 109.497L155.51 109.524L155.518 109.53L155.52 109.532L155.521 109.533C155.521 109.533 155.521 109.533 155.616 109.412ZM155.616 109.412L155.712 109.533C155.656 109.577 155.577 109.577 155.521 109.533L155.616 109.412Z" stroke="#96C7F2" stroke-width="0.30793" stroke-linecap="round" stroke-linejoin="round"/>
</g>
<g clip-path="url(#clip3_279_292)">
<path d="M165.208 84.565C165.208 89.8911 160.891 94.2087 155.564 94.2087C150.238 94.2087 145.921 89.8911 145.921 84.565C145.921 79.2389 150.238 74.9212 155.564 74.9212C160.891 74.9212 165.208 79.2389 165.208 84.565Z" fill="#47A7F6" stroke="white" stroke-width="0.0377447"/>
<path d="M159.596 88.822H155.117C152.647 88.822 150.638 86.8123 150.638 84.3422C150.638 81.873 152.647 79.8633 155.117 79.8633C157.587 79.8633 159.596 81.873 159.596 84.3422V88.822Z" fill="white" stroke="white" stroke-width="0.226468"/>
</g>
</g>
<g filter="url(#filter10_d_279_292)">
<g filter="url(#filter11_d_279_292)">
<path d="M324.853 90.345C324.853 127.997 277.085 165.649 277.085 165.649C277.085 165.649 229.316 127.997 229.316 90.345C229.316 77.0305 234.349 64.2613 243.307 54.8465C252.265 45.4317 264.416 40.1426 277.085 40.1426C289.754 40.1426 301.904 45.4317 310.862 54.8465C319.821 64.2613 324.853 77.0305 324.853 90.345Z" fill="#EDF6FF"/>
<path d="M277.085 165.649L276.775 166.041C276.957 166.184 277.213 166.184 277.394 166.041L277.085 165.649ZM277.085 165.649C277.394 166.041 277.394 166.041 277.395 166.041L277.397 166.039L277.404 166.034L277.43 166.013L277.452 165.995C277.474 165.978 277.501 165.956 277.534 165.93C277.626 165.856 277.761 165.748 277.937 165.604C278.289 165.317 278.804 164.893 279.46 164.339C280.771 163.232 282.642 161.61 284.887 159.545C289.376 155.417 295.363 149.519 301.351 142.439C313.306 128.304 325.353 109.359 325.353 90.345C325.353 76.9057 320.274 64.0121 311.224 54.5019C302.174 44.9908 289.895 39.6426 277.085 39.6426C264.275 39.6426 251.995 44.9908 242.945 54.5019C233.896 64.0121 228.816 76.9057 228.816 90.345C228.816 109.359 240.863 128.304 252.819 142.439C258.807 149.519 264.793 155.417 269.282 159.545C271.527 161.61 273.399 163.232 274.709 164.339C275.365 164.893 275.88 165.317 276.232 165.604C276.408 165.748 276.544 165.856 276.635 165.93C276.681 165.966 276.716 165.994 276.739 166.013L276.766 166.034L276.773 166.039L276.774 166.041C276.775 166.041 276.775 166.041 277.085 165.649Z" stroke="#96C7F2" stroke-linecap="round" stroke-linejoin="round"/>
</g>
<rect x="245" y="56" width="64" height="64" rx="32" fill="#47A7F6"/>
<path d="M291.834 102.834H276.999C268.821 102.834 262.166 96.1786 262.166 87.9986C262.166 79.8213 268.821 73.1655 276.999 73.1655C285.179 73.1655 291.834 79.8213 291.834 87.9986V102.834Z" fill="white" stroke="white" stroke-width="0.75"/>
</g>
<defs>
<filter id="filter0_d_279_292" x="468" y="189" width="201" height="167" filterUnits="userSpaceOnUse" color-interpolation-filters="sRGB">
<feFlood flood-opacity="0" result="BackgroundImageFix"/>
<feColorMatrix in="SourceAlpha" type="matrix" values="0 0 0 0 0 0 0 0 0 0 0 0 0 0 0 0 0 0 127 0" result="hardAlpha"/>
<feMorphology radius="1" operator="dilate" in="SourceAlpha" result="effect1_dropShadow_279_292"/>
<feOffset/>
<feGaussianBlur stdDeviation="6"/>
<feColorMatrix type="matrix" values="0 0 0 0 0.814727 0 0 0 0 0.899872 0 0 0 0 0.999823 0 0 0 0.3 0"/>
<feBlend mode="normal" in2="BackgroundImageFix" result="effect1_dropShadow_279_292"/>
<feBlend mode="normal" in="SourceGraphic" in2="effect1_dropShadow_279_292" result="shape"/>
</filter>
<filter id="filter1_d_279_292" x="412" y="72" width="155" height="134" filterUnits="userSpaceOnUse" color-interpolation-filters="sRGB">
<feFlood flood-opacity="0" result="BackgroundImageFix"/>
<feColorMatrix in="SourceAlpha" type="matrix" values="0 0 0 0 0 0 0 0 0 0 0 0 0 0 0 0 0 0 127 0" result="hardAlpha"/>
<feMorphology radius="1" operator="dilate" in="SourceAlpha" result="effect1_dropShadow_279_292"/>
<feOffset/>
<feGaussianBlur stdDeviation="6"/>
<feColorMatrix type="matrix" values="0 0 0 0 0.814727 0 0 0 0 0.899872 0 0 0 0 0.999823 0 0 0 0.3 0"/>
<feBlend mode="normal" in2="BackgroundImageFix" result="effect1_dropShadow_279_292"/>
<feBlend mode="normal" in="SourceGraphic" in2="effect1_dropShadow_279_292" result="shape"/>
</filter>
<filter id="filter2_d_279_292" x="80" y="186" width="87" height="104.792" filterUnits="userSpaceOnUse" color-interpolation-filters="sRGB">
<feFlood flood-opacity="0" result="BackgroundImageFix"/>
<feColorMatrix in="SourceAlpha" type="matrix" values="0 0 0 0 0 0 0 0 0 0 0 0 0 0 0 0 0 0 127 0" result="hardAlpha"/>
<feMorphology radius="1" operator="dilate" in="SourceAlpha" result="effect1_dropShadow_279_292"/>
<feOffset/>
<feGaussianBlur stdDeviation="6"/>
<feColorMatrix type="matrix" values="0 0 0 0 0.814727 0 0 0 0 0.899872 0 0 0 0 0.999823 0 0 0 0.3 0"/>
<feBlend mode="normal" in2="BackgroundImageFix" result="effect1_dropShadow_279_292"/>
<feBlend mode="normal" in="SourceGraphic" in2="effect1_dropShadow_279_292" result="shape"/>
</filter>
<filter id="filter3_d_279_292" x="66.6255" y="178.295" width="113.941" height="131.541" filterUnits="userSpaceOnUse" color-interpolation-filters="sRGB">
<feFlood flood-opacity="0" result="BackgroundImageFix"/>
<feColorMatrix in="SourceAlpha" type="matrix" values="0 0 0 0 0 0 0 0 0 0 0 0 0 0 0 0 0 0 127 0" result="hardAlpha"/>
<feOffset dy="5.66987"/>
<feGaussianBlur stdDeviation="14.1747"/>
<feComposite in2="hardAlpha" operator="out"/>
<feColorMatrix type="matrix" values="0 0 0 0 0 0 0 0 0 0 0 0 0 0 0 0 0 0 0.07 0"/>
<feBlend mode="normal" in2="BackgroundImageFix" result="effect1_dropShadow_279_292"/>
<feBlend mode="normal" in="SourceGraphic" in2="effect1_dropShadow_279_292" result="shape"/>
</filter>
<filter id="filter4_d_279_292" x="334" y="215" width="69.9678" height="82.7916" filterUnits="userSpaceOnUse" color-interpolation-filters="sRGB">
<feFlood flood-opacity="0" result="BackgroundImageFix"/>
<feColorMatrix in="SourceAlpha" type="matrix" values="0 0 0 0 0 0 0 0 0 0 0 0 0 0 0 0 0 0 127 0" result="hardAlpha"/>
<feMorphology radius="1" operator="dilate" in="SourceAlpha" result="effect1_dropShadow_279_292"/>
<feOffset/>
<feGaussianBlur stdDeviation="6"/>
<feColorMatrix type="matrix" values="0 0 0 0 0.814727 0 0 0 0 0.899872 0 0 0 0 0.999823 0 0 0 0.3 0"/>
<feBlend mode="normal" in2="BackgroundImageFix" result="effect1_dropShadow_279_292"/>
<feBlend mode="normal" in="SourceGraphic" in2="effect1_dropShadow_279_292" result="shape"/>
</filter>
<filter id="filter5_d_279_292" x="327.99" y="213.076" width="82.1265" height="94.8125" filterUnits="userSpaceOnUse" color-interpolation-filters="sRGB">
<feFlood flood-opacity="0" result="BackgroundImageFix"/>
<feColorMatrix in="SourceAlpha" type="matrix" values="0 0 0 0 0 0 0 0 0 0 0 0 0 0 0 0 0 0 127 0" result="hardAlpha"/>
<feOffset dy="4.08675"/>
<feGaussianBlur stdDeviation="10.2169"/>
<feComposite in2="hardAlpha" operator="out"/>
<feColorMatrix type="matrix" values="0 0 0 0 0 0 0 0 0 0 0 0 0 0 0 0 0 0 0.07 0"/>
<feBlend mode="normal" in2="BackgroundImageFix" result="effect1_dropShadow_279_292"/>
<feBlend mode="normal" in="SourceGraphic" in2="effect1_dropShadow_279_292" result="shape"/>
</filter>
<filter id="filter6_d_279_292" x="180" y="234" width="59.1292" height="68.7916" filterUnits="userSpaceOnUse" color-interpolation-filters="sRGB">
<feFlood flood-opacity="0" result="BackgroundImageFix"/>
<feColorMatrix in="SourceAlpha" type="matrix" values="0 0 0 0 0 0 0 0 0 0 0 0 0 0 0 0 0 0 127 0" result="hardAlpha"/>
<feMorphology radius="1" operator="dilate" in="SourceAlpha" result="effect1_dropShadow_279_292"/>
<feOffset/>
<feGaussianBlur stdDeviation="6"/>
<feColorMatrix type="matrix" values="0 0 0 0 0.814727 0 0 0 0 0.899872 0 0 0 0 0.999823 0 0 0 0.3 0"/>
<feBlend mode="normal" in2="BackgroundImageFix" result="effect1_dropShadow_279_292"/>
<feBlend mode="normal" in="SourceGraphic" in2="effect1_dropShadow_279_292" result="shape"/>
</filter>
<filter id="filter7_d_279_292" x="178.676" y="235.756" width="61.8811" height="71.4399" filterUnits="userSpaceOnUse" color-interpolation-filters="sRGB">
<feFlood flood-opacity="0" result="BackgroundImageFix"/>
<feColorMatrix in="SourceAlpha" type="matrix" values="0 0 0 0 0 0 0 0 0 0 0 0 0 0 0 0 0 0 127 0" result="hardAlpha"/>
<feOffset dy="3.0793"/>
<feGaussianBlur stdDeviation="7.69825"/>
<feComposite in2="hardAlpha" operator="out"/>
<feColorMatrix type="matrix" values="0 0 0 0 0 0 0 0 0 0 0 0 0 0 0 0 0 0 0.07 0"/>
<feBlend mode="normal" in2="BackgroundImageFix" result="effect1_dropShadow_279_292"/>
<feBlend mode="normal" in="SourceGraphic" in2="effect1_dropShadow_279_292" result="shape"/>
</filter>
<filter id="filter8_d_279_292" x="126" y="55" width="59.1292" height="68.7916" filterUnits="userSpaceOnUse" color-interpolation-filters="sRGB">
<feFlood flood-opacity="0" result="BackgroundImageFix"/>
<feColorMatrix in="SourceAlpha" type="matrix" values="0 0 0 0 0 0 0 0 0 0 0 0 0 0 0 0 0 0 127 0" result="hardAlpha"/>
<feMorphology radius="1" operator="dilate" in="SourceAlpha" result="effect1_dropShadow_279_292"/>
<feOffset/>
<feGaussianBlur stdDeviation="6"/>
<feColorMatrix type="matrix" values="0 0 0 0 0.814727 0 0 0 0 0.899872 0 0 0 0 0.999823 0 0 0 0.3 0"/>
<feBlend mode="normal" in2="BackgroundImageFix" result="effect1_dropShadow_279_292"/>
<feBlend mode="normal" in="SourceGraphic" in2="effect1_dropShadow_279_292" result="shape"/>
</filter>
<filter id="filter9_d_279_292" x="124.676" y="56.7557" width="61.8811" height="71.4399" filterUnits="userSpaceOnUse" color-interpolation-filters="sRGB">
<feFlood flood-opacity="0" result="BackgroundImageFix"/>
<feColorMatrix in="SourceAlpha" type="matrix" values="0 0 0 0 0 0 0 0 0 0 0 0 0 0 0 0 0 0 127 0" result="hardAlpha"/>
<feOffset dy="3.0793"/>
<feGaussianBlur stdDeviation="7.69825"/>
<feComposite in2="hardAlpha" operator="out"/>
<feColorMatrix type="matrix" values="0 0 0 0 0 0 0 0 0 0 0 0 0 0 0 0 0 0 0.07 0"/>
<feBlend mode="normal" in2="BackgroundImageFix" result="effect1_dropShadow_279_292"/>
<feBlend mode="normal" in="SourceGraphic" in2="effect1_dropShadow_279_292" result="shape"/>
</filter>
<filter id="filter10_d_279_292" x="212" y="23" width="129.581" height="159.792" filterUnits="userSpaceOnUse" color-interpolation-filters="sRGB">
<feFlood flood-opacity="0" result="BackgroundImageFix"/>
<feColorMatrix in="SourceAlpha" type="matrix" values="0 0 0 0 0 0 0 0 0 0 0 0 0 0 0 0 0 0 127 0" result="hardAlpha"/>
<feMorphology radius="1" operator="dilate" in="SourceAlpha" result="effect1_dropShadow_279_292"/>
<feOffset/>
<feGaussianBlur stdDeviation="6"/>
<feColorMatrix type="matrix" values="0 0 0 0 0.814727 0 0 0 0 0.899872 0 0 0 0 0.999823 0 0 0 0.3 0"/>
<feBlend mode="normal" in2="BackgroundImageFix" result="effect1_dropShadow_279_292"/>
<feBlend mode="normal" in="SourceGraphic" in2="effect1_dropShadow_279_292" result="shape"/>
</filter>
<filter id="filter11_d_279_292" x="180.044" y="0.525357" width="194.08" height="224.049" filterUnits="userSpaceOnUse" color-interpolation-filters="sRGB">
<feFlood flood-opacity="0" result="BackgroundImageFix"/>
<feColorMatrix in="SourceAlpha" type="matrix" values="0 0 0 0 0 0 0 0 0 0 0 0 0 0 0 0 0 0 127 0" result="hardAlpha"/>
<feOffset dy="9.65431"/>
<feGaussianBlur stdDeviation="24.1358"/>
<feComposite in2="hardAlpha" operator="out"/>
<feColorMatrix type="matrix" values="0 0 0 0 0 0 0 0 0 0 0 0 0 0 0 0 0 0 0.07 0"/>
<feBlend mode="normal" in2="BackgroundImageFix" result="effect1_dropShadow_279_292"/>
<feBlend mode="normal" in="SourceGraphic" in2="effect1_dropShadow_279_292" result="shape"/>
</filter>
<clipPath id="clip0_279_292">
<rect width="35.5833" height="35.5833" fill="white" transform="translate(105.708 211.709)"/>
</clipPath>
<clipPath id="clip1_279_292">
<rect width="25.6478" height="25.6478" fill="white" transform="translate(356.16 237.16)"/>
</clipPath>
<clipPath id="clip2_279_292">
<rect width="19.3253" height="19.3253" fill="white" transform="translate(199.902 253.902)"/>
</clipPath>
<clipPath id="clip3_279_292">
<rect width="19.3253" height="19.3253" fill="white" transform="translate(145.902 74.9023)"/>
</clipPath>
</defs>
</svg>
