<?xml version="1.0" encoding="UTF-8"?>
<svg width="504px" height="504px" viewBox="0 0 504 504" version="1.1" xmlns="http://www.w3.org/2000/svg" xmlns:xlink="http://www.w3.org/1999/xlink">
    <!-- Generator: Sketch 44 (41411) - http://www.bohemiancoding.com/sketch -->
    <title>email</title>
    <desc>Created with Sketch.</desc>
    <defs></defs>
    <g id="Page-1" stroke="none" stroke-width="1" fill="none" fill-rule="evenodd">
        <g id="email" fill-rule="nonzero">
            <g id="Group" transform="translate(3.000000, 4.000000)">
                <path d="M427.9,230.65 L427.9,230.65 L311,320.25 L274.3,348.45 C274.3,348.45 261.5,359.55 248.7,359.55 C235.9,359.55 223.1,348.45 223.1,348.45 L185.6,320.25 L69.5,230.65 L69.5,230.65 L69.5,111.25 L69.5,34.45 C69.5,16.55 84.9,0.35 103.6,0.35 L393.7,0.35 C411.6,0.35 427.8,15.75 427.8,34.45 L427.8,111.25 L427.8,230.65 L427.9,230.65 Z" id="Shape" fill="#ECF4F7"></path>
                <g transform="translate(2.000000, 111.000000)" id="SVGCleanerId_0" fill="#AAB1BA">
                    <path d="M67.5,0.25 L67.5,119.75 L67.5,119.75 L0.9,69.35 L0.1,69.35 C1.8,51.45 10.3,34.35 25.7,25.85 L67.5,0.25 Z M494.2,70.15 L491.6,70.15 L425.9,119.65 L425.9,119.65 L425.9,0.25 L468.6,25.85 C483.9,35.25 492.5,51.45 494.2,70.15 Z"></path>
                </g>
                <g transform="translate(2.000000, 111.000000)" id="SVGCleanerId_0_1_" fill="#AAB1BA">
                    <path d="M67.5,0.25 L67.5,119.75 L67.5,119.75 L0.9,69.35 L0.1,69.35 C1.8,51.45 10.3,34.35 25.7,25.85 L67.5,0.25 Z M494.2,70.15 L491.6,70.15 L425.9,119.65 L425.9,119.65 L425.9,0.25 L468.6,25.85 C483.9,35.25 492.5,51.45 494.2,70.15 Z"></path>
                </g>
                <path d="M470.6,136.85 L427.9,111.25 L427.9,230.75 L311.8,319.45 L275.1,347.65 C275.1,347.65 262.3,358.75 249.5,358.75 C236.7,358.75 223.9,347.65 223.9,347.65 L194.3,325.45 L185.5,318.65 L69.5,230.65 L69.5,111.25 L27.7,136.85 C12.4,145.35 3.9,162.25 2.1,180.05 L0.4,179.45 C0.4,182.05 0.4,184.55 0.4,187.15 L0.4,460.25 C0.4,463.65 1.3,467.05 2.1,470.45 C6.4,484.95 20,495.15 35.4,495.15 L462.1,495.15 C478.3,495.15 492,484.05 495.4,469.55 C496.3,466.95 496.3,463.55 496.3,461.05 L496.3,188.05 C496.3,185.45 496.3,183.75 496.3,181.25 C494.5,162.45 485.9,146.25 470.6,136.85 Z" id="Shape" fill="#FFD0A1"></path>
                <g transform="translate(2.000000, 111.000000)" id="SVGCleanerId_0_2_" fill="#AAB1BA">
                    <path d="M67.5,0.25 L67.5,119.75 L67.5,119.75 L0.9,69.35 L0.1,69.35 C1.8,51.45 10.3,34.35 25.7,25.85 L67.5,0.25 Z M494.2,70.15 L491.6,70.15 L425.9,119.65 L425.9,119.65 L425.9,0.25 L468.6,25.85 C483.9,35.25 492.5,51.45 494.2,70.15 Z"></path>
                </g>
            </g>
            <path d="M465,503.45 L38.4,503.45 C17.1,503.45 0,486.35 0,465.05 L0,192.05 C0,169.05 11.1,146.85 27.3,137.45 L35.8,131.45 C37.5,129.75 40.1,130.55 41.8,132.35 C43.5,134.15 42.7,136.65 40.9,138.35 L32.4,144.35 C16.2,153.75 8.5,175.05 8.5,192.15 L8.5,465.25 C8.5,482.35 21.3,495.15 38.4,495.15 L465.1,495.15 C482.2,495.15 495,482.35 495,465.25 L495,192.05 C495,170.75 486.5,153.65 471.1,144.25 L462.6,138.25 C460.9,136.55 460,133.95 461.7,132.25 C463.4,130.55 466,129.65 467.7,131.35 L476.2,137.35 C493.3,148.45 503.5,168.05 503.5,191.95 L503.5,465.05 C503.4,486.45 486.4,503.45 465,503.45 Z M465,452.25 C464.1,452.25 463.3,452.25 462.4,451.35 L342.9,357.45 C341.2,355.75 340.3,353.15 342,351.45 C343.7,349.75 346.3,348.85 348,350.55 L467.5,444.45 C469.2,446.15 470.1,448.75 468.4,450.45 C467.6,451.45 465.9,452.25 465,452.25 Z M38.4,452.25 C37.5,452.25 35.8,451.35 35,450.55 C33.3,448.85 34.1,446.25 35.9,444.55 L155.3,350.75 C157,349.05 159.6,349.85 161.3,351.65 C163,353.35 162.2,355.95 160.4,357.65 L40.9,451.45 C40.1,452.25 39.2,452.25 38.4,452.25 Z M251.7,366.95 C238,366.95 223.5,355.05 223.5,355.05 L36.7,212.45 C35,210.75 34.1,208.15 35.8,206.45 C37.5,204.75 40.1,203.85 41.8,205.55 L69.1,226.05 L69.1,38.45 C69.1,17.95 87,0.05 107.5,0.05 L397.6,0.05 C418.1,0.05 436,17.95 436,38.45 L436,226.15 L463.3,205.65 C465,203.95 467.6,204.75 469.3,206.55 C471,208.35 470.2,210.85 468.4,212.55 L280.7,355.05 C279,355.85 265.4,366.95 251.7,366.95 Z M76.8,232.95 L228.7,348.15 C228.7,348.15 240.6,358.35 251.7,358.35 C262.8,358.35 274.7,348.95 274.7,348.95 L426.6,232.85 L426.6,38.45 C426.6,22.25 412.9,8.55 396.7,8.55 L106.6,8.55 C90.4,8.55 76.7,22.25 76.7,38.45 L76.7,232.95 L76.8,232.95 Z M294.4,298.65 L209.1,298.65 C206.5,298.65 204.8,296.95 204.8,294.35 C204.8,291.75 206.5,290.05 209.1,290.05 L294.4,290.05 C297,290.05 298.7,291.75 298.7,294.35 C298.6,296.95 296.9,298.65 294.4,298.65 Z M345.6,247.45 L311.5,247.45 C308.9,247.45 307.2,245.75 307.2,243.15 C307.2,240.55 308.9,238.85 311.5,238.85 L345.6,238.85 C348.2,238.85 349.9,240.55 349.9,243.15 C349.9,245.75 348.1,247.45 345.6,247.45 Z M277.3,247.45 L157.8,247.45 C155.2,247.45 153.5,245.75 153.5,243.15 C153.5,240.55 155.2,238.85 157.8,238.85 L277.3,238.85 C279.9,238.85 281.6,240.55 281.6,243.15 C281.6,245.75 279.9,247.45 277.3,247.45 Z M345.6,196.25 L243.2,196.25 C240.6,196.25 238.9,194.55 238.9,191.95 C238.9,189.35 240.6,187.65 243.2,187.65 L345.6,187.65 C348.2,187.65 349.9,189.35 349.9,191.95 C349.8,194.55 348.1,196.25 345.6,196.25 Z M209,196.25 L157.8,196.25 C155.2,196.25 153.5,194.55 153.5,191.95 C153.5,189.35 155.2,187.65 157.8,187.65 L209,187.65 C211.6,187.65 213.3,189.35 213.3,191.95 C213.3,194.55 211.6,196.25 209,196.25 Z M260.2,128.05 L157.8,128.05 C155.2,128.05 153.5,126.35 153.5,123.75 C153.5,121.15 155.2,119.45 157.8,119.45 L260.2,119.45 C262.8,119.45 264.5,121.15 264.5,123.75 C264.5,126.35 262.8,128.05 260.2,128.05 Z" id="Shape" fill="#51565F"></path>
        </g>
    </g>
</svg>