<svg xmlns="http://www.w3.org/2000/svg" viewBox="0 0 200 120" class="w-full h-auto block" aria-hidden="true">
  <rect x="0" y="0" width="200" height="14" fill="currentColor" opacity="0.1"/>
  <rect x="6" y="5" width="20" height="4" rx="1" fill="currentColor" opacity="0.3"/>
  <rect x="0" y="14" width="50" height="106" fill="currentColor" opacity="0.07"/>
  <rect x="6" y="22" width="38" height="4" rx="1" fill="currentColor" opacity="0.25"/>
  <rect x="6" y="32" width="30" height="3" rx="1" fill="currentColor" opacity="0.18"/>
  <rect x="6" y="40" width="35" height="3" rx="1" fill="currentColor" opacity="0.18"/>
  <rect x="6" y="48" width="28" height="3" rx="1" fill="currentColor" opacity="0.18"/>
  <rect x="6" y="56" width="32" height="3" rx="1" fill="currentColor" opacity="0.18"/>
  <rect x="60" y="25" width="80" height="6" rx="1" fill="currentColor" opacity="0.35"/>
  <rect x="60" y="38" width="120" height="8" rx="2" fill="currentColor" opacity="0.18"/>
  <rect x="60" y="55" width="37" height="22" rx="2" fill="currentColor" opacity="0.12"/>
  <rect x="101" y="55" width="37" height="22" rx="2" fill="currentColor" opacity="0.12"/>
  <rect x="142" y="55" width="37" height="22" rx="2" fill="currentColor" opacity="0.12"/>
  <rect x="60" y="82" width="37" height="22" rx="2" fill="currentColor" opacity="0.12"/>
  <rect x="101" y="82" width="37" height="22" rx="2" fill="currentColor" opacity="0.12"/>
  <rect x="142" y="82" width="37" height="22" rx="2" fill="currentColor" opacity="0.12"/>
</svg>
