<?xml version="1.0" encoding="UTF-8"?>
<svg width="1410px" height="302px" viewBox="0 0 1410 302" version="1.1" xmlns="http://www.w3.org/2000/svg" xmlns:xlink="http://www.w3.org/1999/xlink">
    <!-- Generator: Sketch 57.1 (83088) - https://sketch.com -->
    <title>logo</title>
    <desc>Created with Sketch.</desc>
    <g id="Page-1" stroke="none" stroke-width="1" fill="none" fill-rule="evenodd">
        <g id="logo" transform="translate(5.000000, 0.000000)">
            <path d="M199.996,297 L99.99,297 C44.863,297 0,252.133 0,196.991 C0,141.867 44.863,97 99.991,97 C155.133,97 199.996,141.867 199.996,196.991 L199.996,297 Z M99.783,111 C52.48,111 14,149.48 14,196.783 C14,244.086 52.48,282.58 99.783,282.58 L185.58,282.58 L185.58,196.783 C185.58,149.48 147.082,111 99.783,111 Z" id="Fill-1" stroke="#273445" stroke-width="9" fill="#273444" fill-rule="nonzero"></path>
            <path d="M333.12,208.04 C330.719988,204.359982 327.120024,201.280012 322.32,198.8 C317.519976,196.319988 312.400027,195.08 306.96,195.08 C301.03997,195.08 295.800023,196.199989 291.24,198.44 C286.679977,200.680011 282.800016,203.679981 279.6,207.44 C276.399984,211.200019 273.960008,215.559975 272.28,220.52 C270.599992,225.480025 269.76,230.679973 269.76,236.12 C269.76,241.560027 270.599992,246.759975 272.28,251.72 C273.960008,256.680025 276.399984,261.039981 279.6,264.8 C282.800016,268.560019 286.719977,271.559989 291.36,273.8 C296.000023,276.040011 301.27997,277.16 307.2,277.16 C312.960029,277.16 318.199976,276.040011 322.92,273.8 C327.640024,271.559989 331.519985,268.520019 334.56,264.68 L349.68,278.36 C344.879976,283.960028 338.880036,288.319984 331.68,291.44 C324.479964,294.560016 316.320046,296.12 307.2,296.12 C298.399956,296.12 290.280037,294.680014 282.84,291.8 C275.399963,288.919986 268.960027,284.880026 263.52,279.68 C258.079973,274.479974 253.800016,268.200037 250.68,260.84 C247.559984,253.479963 246,245.240046 246,236.12 C246,227.159955 247.519985,219.000037 250.56,211.64 C253.600015,204.279963 257.839973,197.960026 263.28,192.68 C268.720027,187.399974 275.159963,183.320014 282.6,180.44 C290.040037,177.559986 298.079957,176.12 306.72,176.12 C314.72004,176.12 322.67996,177.719984 330.6,180.92 C338.52004,184.120016 344.799977,188.75997 349.44,194.84 L333.12,208.04 Z M395.52,196.52 C398.240014,190.919972 402.879967,186.12002 409.44,182.12 C416.000033,178.11998 423.359959,176.12 431.52,176.12 C438.880037,176.12 445.199974,177.359988 450.48,179.84 C455.760026,182.320012 460.159982,185.639979 463.68,189.8 C467.200018,193.960021 469.799992,198.839972 471.48,204.44 C473.160008,210.040028 474,216.039968 474,222.44 L474,293 L451.44,293 L451.44,230.12 C451.44,225.479977 451.080004,221.080021 450.36,216.92 C449.639996,212.759979 448.32001,209.080016 446.4,205.88 C444.48,202.679984 441.880016,200.12001 438.6,198.2 C435.319984,196.27999 431.040026,195.32 425.76,195.32 C416.799955,195.32 409.440029,198.719966 403.68,205.52 C397.919971,212.320034 395.04,221.399943 395.04,232.76 L395.04,293 L372.48,293 L372.48,111.56 L395.04,111.56 L395.04,196.52 L395.52,196.52 Z M582.96,219.32 C582.96,210.839958 580.400026,204.56002 575.28,200.48 C570.159974,196.39998 563.360042,194.36 554.88,194.36 C548.479968,194.36 542.440028,195.599988 536.76,198.08 C531.079972,200.560012 526.320019,203.719981 522.48,207.56 L510.48,193.16 C516.080028,187.879974 522.91996,183.720015 531,180.68 C539.08004,177.639985 547.759954,176.12 557.04,176.12 C565.200041,176.12 572.27997,177.279988 578.28,179.6 C584.28003,181.920012 589.199981,185.07998 593.04,189.08 C596.880019,193.08002 599.76,197.799973 601.68,203.24 C603.60001,208.680027 604.56,214.519969 604.56,220.76 L604.56,270.44 C604.56,274.280019 604.679999,278.319979 604.92,282.56 C605.160001,286.800021 605.599997,290.279986 606.24,293 L585.84,293 C584.559994,287.559973 583.92,282.120027 583.92,276.68 L583.2,276.68 C579.039979,282.76003 573.800032,287.479983 567.48,290.84 C561.159968,294.200017 553.680043,295.88 545.04,295.88 C540.559978,295.88 535.880024,295.280006 531,294.08 C526.119976,292.879994 521.68002,290.920014 517.68,288.2 C513.67998,285.479986 510.360013,281.880022 507.72,277.4 C505.079987,272.919978 503.76,267.400033 503.76,260.84 C503.76,252.199957 506.079977,245.360025 510.72,240.32 C515.360023,235.279975 521.439962,231.440013 528.96,228.8 C536.480038,226.159987 544.959953,224.440004 554.4,223.64 C563.840047,222.839996 573.359952,222.44 582.96,222.44 L582.96,219.32 Z M577.44,238.76 C571.839972,238.76 566.04003,238.999998 560.04,239.48 C554.03997,239.960002 548.600024,240.919993 543.72,242.36 C538.839976,243.800007 534.800016,245.959986 531.6,248.84 C528.399984,251.720014 526.8,255.559976 526.8,260.36 C526.8,263.720017 527.479993,266.519989 528.84,268.76 C530.200007,271.000011 531.999989,272.839993 534.24,274.28 C536.480011,275.720007 538.959986,276.719997 541.68,277.28 C544.400014,277.840003 547.199986,278.12 550.08,278.12 C560.640053,278.12 568.759972,274.960032 574.44,268.64 C580.120028,262.319968 582.96,254.360048 582.96,244.76 L582.96,238.76 L577.44,238.76 Z M695.52,197.72 L665.28,197.72 L665.28,257 C665.28,263.880034 666.559987,268.799985 669.12,271.76 C671.680013,274.720015 675.759972,276.2 681.36,276.2 C683.44001,276.2 685.679988,275.960002 688.08,275.48 C690.480012,274.999998 692.63999,274.280005 694.56,273.32 L695.28,291.8 C692.559986,292.760005 689.560016,293.519997 686.28,294.08 C682.999984,294.640003 679.600018,294.92 676.08,294.92 C665.359946,294.92 657.160028,291.96003 651.48,286.04 C645.799972,280.11997 642.96,271.240059 642.96,259.4 L642.96,197.72 L621.12,197.72 L621.12,179.24 L642.96,179.24 L642.96,146.6 L665.28,146.6 L665.28,179.24 L695.52,179.24 L695.52,197.72 Z M727.2,179.24 L752.88,266.12 L753.36,266.12 L780.48,179.24 L804.24,179.24 L831.84,266.12 L832.32,266.12 L858,179.24 L881.76,179.24 L844.08,293 L820.56,293 L792.48,207.56 L792,207.56 L764.16,293 L740.64,293 L702.72,179.24 L727.2,179.24 Z M1019.52,235.88 C1019.52,244.680044 1017.96002,252.759963 1014.84,260.12 C1011.71998,267.480037 1007.40003,273.839973 1001.88,279.2 C996.359972,284.560027 989.840038,288.719985 982.32,291.68 C974.799962,294.640015 966.720043,296.12 958.08,296.12 C949.439957,296.12 941.360038,294.640015 933.84,291.68 C926.319962,288.719985 919.840027,284.560027 914.4,279.2 C908.959973,273.839973 904.680016,267.480037 901.56,260.12 C898.439984,252.759963 896.88,244.680044 896.88,235.88 C896.88,227.079956 898.439984,219.040036 901.56,211.76 C904.680016,204.479964 908.959973,198.200026 914.4,192.92 C919.840027,187.639974 926.319962,183.520015 933.84,180.56 C941.360038,177.599985 949.439957,176.12 958.08,176.12 C966.720043,176.12 974.799962,177.599985 982.32,180.56 C989.840038,183.520015 996.359972,187.639974 1001.88,192.92 C1007.40003,198.200026 1011.71998,204.479964 1014.84,211.76 C1017.96002,219.040036 1019.52,227.079956 1019.52,235.88 Z M996,235.88 C996,230.439973 995.16,225.240025 993.48,220.28 C991.799992,215.319975 989.360016,210.960019 986.16,207.2 C982.959984,203.439981 979.000024,200.440011 974.28,198.2 C969.559976,195.959989 964.16003,194.84 958.08,194.84 C951.99997,194.84 946.600024,195.959989 941.88,198.2 C937.159976,200.440011 933.200016,203.439981 930,207.2 C926.799984,210.960019 924.360008,215.319975 922.68,220.28 C920.999992,225.240025 920.16,230.439973 920.16,235.88 C920.16,241.320027 920.999992,246.519975 922.68,251.48 C924.360008,256.440025 926.799984,260.839981 930,264.68 C933.200016,268.520019 937.159976,271.559989 941.88,273.8 C946.600024,276.040011 951.99997,277.16 958.08,277.16 C964.16003,277.16 969.559976,276.040011 974.28,273.8 C979.000024,271.559989 982.959984,268.520019 986.16,264.68 C989.360016,260.839981 991.799992,256.440025 993.48,251.48 C995.16,246.519975 996,241.320027 996,235.88 Z M1165.92,235.88 C1165.92,244.680044 1164.36002,252.759963 1161.24,260.12 C1158.11998,267.480037 1153.80003,273.839973 1148.28,279.2 C1142.75997,284.560027 1136.24004,288.719985 1128.72,291.68 C1121.19996,294.640015 1113.12004,296.12 1104.48,296.12 C1095.83996,296.12 1087.76004,294.640015 1080.24,291.68 C1072.71996,288.719985 1066.24003,284.560027 1060.8,279.2 C1055.35997,273.839973 1051.08002,267.480037 1047.96,260.12 C1044.83998,252.759963 1043.28,244.680044 1043.28,235.88 C1043.28,227.079956 1044.83998,219.040036 1047.96,211.76 C1051.08002,204.479964 1055.35997,198.200026 1060.8,192.92 C1066.24003,187.639974 1072.71996,183.520015 1080.24,180.56 C1087.76004,177.599985 1095.83996,176.12 1104.48,176.12 C1113.12004,176.12 1121.19996,177.599985 1128.72,180.56 C1136.24004,183.520015 1142.75997,187.639974 1148.28,192.92 C1153.80003,198.200026 1158.11998,204.479964 1161.24,211.76 C1164.36002,219.040036 1165.92,227.079956 1165.92,235.88 Z M1142.4,235.88 C1142.4,230.439973 1141.56,225.240025 1139.88,220.28 C1138.19999,215.319975 1135.76002,210.960019 1132.56,207.2 C1129.35998,203.439981 1125.40002,200.440011 1120.68,198.2 C1115.95998,195.959989 1110.56003,194.84 1104.48,194.84 C1098.39997,194.84 1093.00002,195.959989 1088.28,198.2 C1083.55998,200.440011 1079.60002,203.439981 1076.4,207.2 C1073.19998,210.960019 1070.76001,215.319975 1069.08,220.28 C1067.39999,225.240025 1066.56,230.439973 1066.56,235.88 C1066.56,241.320027 1067.39999,246.519975 1069.08,251.48 C1070.76001,256.440025 1073.19998,260.839981 1076.4,264.68 C1079.60002,268.520019 1083.55998,271.559989 1088.28,273.8 C1093.00002,276.040011 1098.39997,277.16 1104.48,277.16 C1110.56003,277.16 1115.95998,276.040011 1120.68,273.8 C1125.40002,271.559989 1129.35998,268.520019 1132.56,264.68 C1135.76002,260.839981 1138.19999,256.440025 1139.88,251.48 C1141.56,246.519975 1142.4,241.320027 1142.4,235.88 Z M1252.8,197.72 L1222.56,197.72 L1222.56,257 C1222.56,263.880034 1223.83999,268.799985 1226.4,271.76 C1228.96001,274.720015 1233.03997,276.2 1238.64,276.2 C1240.72001,276.2 1242.95999,275.960002 1245.36,275.48 C1247.76001,274.999998 1249.91999,274.280005 1251.84,273.32 L1252.56,291.8 C1249.83999,292.760005 1246.84002,293.519997 1243.56,294.08 C1240.27998,294.640003 1236.88002,294.92 1233.36,294.92 C1222.63995,294.92 1214.44003,291.96003 1208.76,286.04 C1203.07997,280.11997 1200.24,271.240059 1200.24,259.4 L1200.24,197.72 L1178.4,197.72 L1178.4,179.24 L1200.24,179.24 L1200.24,146.6 L1222.56,146.6 L1222.56,179.24 L1252.8,179.24 L1252.8,197.72 Z" id="chatwoot" stroke="#273445" stroke-width="5" fill="#273444" fill-rule="nonzero"></path>
            <g id="beta-tag" transform="translate(1245.000000, 0.000000)">
                <rect id="bg" fill="#47A7F6" fill-rule="nonzero" x="0" y="0" width="160" height="160" rx="80"></rect>
                <text id="β" fill="#FFFFFF" font-family="AvenirNext-Medium, Avenir Next" font-size="90" font-weight="400">
                    <tspan x="51" y="108">β</tspan>
                </text>
            </g>
        </g>
    </g>
</svg>