<svg width="288" height="120" viewBox="0 0 288 120" fill="none" xmlns="http://www.w3.org/2000/svg">
<g clip-path="url(#clip0_153_44552)">
<rect width="288" height="120" rx="8" fill="#2E3035"/>
<circle cx="8" r="1" fill="#123D75"/>
<circle cx="16" r="1" fill="#123D75"/>
<circle cx="24" r="1" fill="#123D75"/>
<circle cx="32" r="1" fill="#123D75"/>
<circle cx="40" r="1" fill="#123D75"/>
<circle cx="48" r="1" fill="#123D75"/>
<circle cx="56" r="1" fill="#123D75"/>
<circle cx="64" r="1" fill="#123D75"/>
<circle cx="72" r="1" fill="#123D75"/>
<circle cx="80" r="1" fill="#123D75"/>
<circle cx="88" r="1" fill="#123D75"/>
<circle cx="96" r="1" fill="#123D75"/>
<circle cx="104" r="1" fill="#123D75"/>
<circle cx="112" r="1" fill="#123D75"/>
<circle cx="120" r="1" fill="#123D75"/>
<circle cx="128" r="1" fill="#123D75"/>
<circle cx="136" r="1" fill="#123D75"/>
<circle cx="144" r="1" fill="#123D75"/>
<circle cx="152" r="1" fill="#123D75"/>
<circle cx="160" r="1" fill="#123D75"/>
<circle cx="168" r="1" fill="#123D75"/>
<circle cx="176" r="1" fill="#123D75"/>
<circle cx="184" r="1" fill="#123D75"/>
<circle cx="192" r="1" fill="#123D75"/>
<circle cx="200" r="1" fill="#123D75"/>
<circle cx="208" r="1" fill="#123D75"/>
<circle cx="216" r="1" fill="#123D75"/>
<circle cx="224" r="1" fill="#123D75"/>
<circle cx="232" r="1" fill="#123D75"/>
<circle cx="240" r="1" fill="#123D75"/>
<circle cx="248" r="1" fill="#123D75"/>
<circle cx="256" r="1" fill="#123D75"/>
<circle cx="264" r="1" fill="#123D75"/>
<circle cx="272" r="1" fill="#123D75"/>
<circle cx="280" r="1" fill="#123D75"/>
<circle cx="8" cy="8" r="1" fill="#123D75"/>
<circle cx="16" cy="8" r="1" fill="#123D75"/>
<circle cx="24" cy="8" r="1" fill="#123D75"/>
<circle cx="32" cy="8" r="1" fill="#123D75"/>
<circle cx="40" cy="8" r="1" fill="#123D75"/>
<circle cx="48" cy="8" r="1" fill="#123D75"/>
<circle cx="56" cy="8" r="1" fill="#123D75"/>
<circle cx="64" cy="8" r="1" fill="#123D75"/>
<circle cx="72" cy="8" r="1" fill="#123D75"/>
<circle cx="80" cy="8" r="1" fill="#123D75"/>
<circle cx="88" cy="8" r="1" fill="#123D75"/>
<circle cx="96" cy="8" r="1" fill="#123D75"/>
<circle cx="104" cy="8" r="1" fill="#123D75"/>
<circle cx="112" cy="8" r="1" fill="#123D75"/>
<circle cx="120" cy="8" r="1" fill="#123D75"/>
<circle cx="128" cy="8" r="1" fill="#123D75"/>
<circle cx="136" cy="8" r="1" fill="#123D75"/>
<circle cx="144" cy="8" r="1" fill="#123D75"/>
<circle cx="152" cy="8" r="1" fill="#123D75"/>
<circle cx="160" cy="8" r="1" fill="#123D75"/>
<circle cx="168" cy="8" r="1" fill="#123D75"/>
<circle cx="176" cy="8" r="1" fill="#123D75"/>
<circle cx="184" cy="8" r="1" fill="#123D75"/>
<circle cx="192" cy="8" r="1" fill="#123D75"/>
<circle cx="200" cy="8" r="1" fill="#123D75"/>
<circle cx="208" cy="8" r="1" fill="#123D75"/>
<circle cx="216" cy="8" r="1" fill="#123D75"/>
<circle cx="224" cy="8" r="1" fill="#123D75"/>
<circle cx="232" cy="8" r="1" fill="#123D75"/>
<circle cx="240" cy="8" r="1" fill="#123D75"/>
<circle cx="248" cy="8" r="1" fill="#123D75"/>
<circle cx="256" cy="8" r="1" fill="#123D75"/>
<circle cx="264" cy="8" r="1" fill="#123D75"/>
<circle cx="272" cy="8" r="1" fill="#123D75"/>
<circle cx="280" cy="8" r="1" fill="#123D75"/>
<circle cx="8" cy="16" r="1" fill="#123D75"/>
<circle cx="16" cy="16" r="1" fill="#123D75"/>
<circle cx="24" cy="16" r="1" fill="#123D75"/>
<circle cx="32" cy="16" r="1" fill="#123D75"/>
<circle cx="40" cy="16" r="1" fill="#123D75"/>
<circle cx="48" cy="16" r="1" fill="#123D75"/>
<circle cx="56" cy="16" r="1" fill="#123D75"/>
<circle cx="64" cy="16" r="1" fill="#123D75"/>
<circle cx="72" cy="16" r="1" fill="#123D75"/>
<circle cx="80" cy="16" r="1" fill="#123D75"/>
<circle cx="88" cy="16" r="1" fill="#123D75"/>
<circle cx="96" cy="16" r="1" fill="#123D75"/>
<circle cx="104" cy="16" r="1" fill="#123D75"/>
<circle cx="112" cy="16" r="1" fill="#123D75"/>
<circle cx="120" cy="16" r="1" fill="#123D75"/>
<circle cx="128" cy="16" r="1" fill="#123D75"/>
<circle cx="136" cy="16" r="1" fill="#123D75"/>
<circle cx="144" cy="16" r="1" fill="#123D75"/>
<circle cx="152" cy="16" r="1" fill="#123D75"/>
<circle cx="160" cy="16" r="1" fill="#123D75"/>
<circle cx="168" cy="16" r="1" fill="#123D75"/>
<circle cx="176" cy="16" r="1" fill="#123D75"/>
<circle cx="184" cy="16" r="1" fill="#123D75"/>
<circle cx="192" cy="16" r="1" fill="#123D75"/>
<circle cx="200" cy="16" r="1" fill="#123D75"/>
<circle cx="208" cy="16" r="1" fill="#123D75"/>
<circle cx="216" cy="16" r="1" fill="#123D75"/>
<circle cx="224" cy="16" r="1" fill="#123D75"/>
<circle cx="232" cy="16" r="1" fill="#123D75"/>
<circle cx="240" cy="16" r="1" fill="#123D75"/>
<circle cx="248" cy="16" r="1" fill="#123D75"/>
<circle cx="256" cy="16" r="1" fill="#123D75"/>
<circle cx="264" cy="16" r="1" fill="#123D75"/>
<circle cx="272" cy="16" r="1" fill="#123D75"/>
<circle cx="280" cy="16" r="1" fill="#123D75"/>
<circle cx="8" cy="24" r="1" fill="#123D75"/>
<circle cx="16" cy="24" r="1" fill="#123D75"/>
<circle cx="24" cy="24" r="1" fill="#123D75"/>
<circle cx="32" cy="24" r="1" fill="#123D75"/>
<circle cx="40" cy="24" r="1" fill="#123D75"/>
<circle cx="48" cy="24" r="1" fill="#123D75"/>
<circle cx="56" cy="24" r="1" fill="#123D75"/>
<circle cx="64" cy="24" r="1" fill="#123D75"/>
<circle cx="72" cy="24" r="1" fill="#123D75"/>
<circle cx="80" cy="24" r="1" fill="#123D75"/>
<circle cx="88" cy="24" r="1" fill="#123D75"/>
<circle cx="96" cy="24" r="1" fill="#123D75"/>
<circle cx="104" cy="24" r="1" fill="#123D75"/>
<circle cx="112" cy="24" r="1" fill="#123D75"/>
<circle cx="120" cy="24" r="1" fill="#123D75"/>
<circle cx="128" cy="24" r="1" fill="#123D75"/>
<circle cx="136" cy="24" r="1" fill="#123D75"/>
<circle cx="144" cy="24" r="1" fill="#123D75"/>
<circle cx="152" cy="24" r="1" fill="#123D75"/>
<circle cx="160" cy="24" r="1" fill="#123D75"/>
<circle cx="168" cy="24" r="1" fill="#123D75"/>
<circle cx="176" cy="24" r="1" fill="#123D75"/>
<circle cx="184" cy="24" r="1" fill="#123D75"/>
<circle cx="192" cy="24" r="1" fill="#123D75"/>
<circle cx="200" cy="24" r="1" fill="#123D75"/>
<circle cx="208" cy="24" r="1" fill="#123D75"/>
<circle cx="216" cy="24" r="1" fill="#123D75"/>
<circle cx="224" cy="24" r="1" fill="#123D75"/>
<circle cx="232" cy="24" r="1" fill="#123D75"/>
<circle cx="240" cy="24" r="1" fill="#123D75"/>
<circle cx="248" cy="24" r="1" fill="#123D75"/>
<circle cx="256" cy="24" r="1" fill="#123D75"/>
<circle cx="264" cy="24" r="1" fill="#123D75"/>
<circle cx="272" cy="24" r="1" fill="#123D75"/>
<circle cx="280" cy="24" r="1" fill="#123D75"/>
<circle cx="8" cy="32" r="1" fill="#123D75"/>
<circle cx="16" cy="32" r="1" fill="#123D75"/>
<circle cx="24" cy="32" r="1" fill="#123D75"/>
<circle cx="32" cy="32" r="1" fill="#123D75"/>
<circle cx="40" cy="32" r="1" fill="#123D75"/>
<circle cx="48" cy="32" r="1" fill="#123D75"/>
<circle cx="56" cy="32" r="1" fill="#123D75"/>
<circle cx="64" cy="32" r="1" fill="#123D75"/>
<circle cx="72" cy="32" r="1" fill="#123D75"/>
<circle cx="80" cy="32" r="1" fill="#123D75"/>
<circle cx="88" cy="32" r="1" fill="#123D75"/>
<circle cx="96" cy="32" r="1" fill="#123D75"/>
<circle cx="104" cy="32" r="1" fill="#123D75"/>
<circle cx="112" cy="32" r="1" fill="#123D75"/>
<circle cx="120" cy="32" r="1" fill="#123D75"/>
<circle cx="128" cy="32" r="1" fill="#123D75"/>
<circle cx="136" cy="32" r="1" fill="#123D75"/>
<circle cx="144" cy="32" r="1" fill="#123D75"/>
<circle cx="152" cy="32" r="1" fill="#123D75"/>
<circle cx="160" cy="32" r="1" fill="#123D75"/>
<circle cx="168" cy="32" r="1" fill="#123D75"/>
<circle cx="176" cy="32" r="1" fill="#123D75"/>
<circle cx="184" cy="32" r="1" fill="#123D75"/>
<circle cx="192" cy="32" r="1" fill="#123D75"/>
<circle cx="200" cy="32" r="1" fill="#123D75"/>
<circle cx="208" cy="32" r="1" fill="#123D75"/>
<circle cx="216" cy="32" r="1" fill="#123D75"/>
<circle cx="224" cy="32" r="1" fill="#123D75"/>
<circle cx="232" cy="32" r="1" fill="#123D75"/>
<circle cx="240" cy="32" r="1" fill="#123D75"/>
<circle cx="248" cy="32" r="1" fill="#123D75"/>
<circle cx="256" cy="32" r="1" fill="#123D75"/>
<circle cx="264" cy="32" r="1" fill="#123D75"/>
<circle cx="272" cy="32" r="1" fill="#123D75"/>
<circle cx="280" cy="32" r="1" fill="#123D75"/>
<circle cx="8" cy="40" r="1" fill="#123D75"/>
<circle cx="16" cy="40" r="1" fill="#123D75"/>
<circle cx="24" cy="40" r="1" fill="#123D75"/>
<circle cx="32" cy="40" r="1" fill="#123D75"/>
<circle cx="40" cy="40" r="1" fill="#123D75"/>
<circle cx="48" cy="40" r="1" fill="#123D75"/>
<circle cx="56" cy="40" r="1" fill="#123D75"/>
<circle cx="64" cy="40" r="1" fill="#123D75"/>
<circle cx="72" cy="40" r="1" fill="#123D75"/>
<circle cx="80" cy="40" r="1" fill="#123D75"/>
<circle cx="88" cy="40" r="1" fill="#123D75"/>
<circle cx="96" cy="40" r="1" fill="#123D75"/>
<circle cx="104" cy="40" r="1" fill="#123D75"/>
<circle cx="112" cy="40" r="1" fill="#123D75"/>
<circle cx="120" cy="40" r="1" fill="#123D75"/>
<circle cx="128" cy="40" r="1" fill="#123D75"/>
<circle cx="136" cy="40" r="1" fill="#123D75"/>
<circle cx="144" cy="40" r="1" fill="#123D75"/>
<circle cx="152" cy="40" r="1" fill="#123D75"/>
<circle cx="160" cy="40" r="1" fill="#123D75"/>
<circle cx="168" cy="40" r="1" fill="#123D75"/>
<circle cx="176" cy="40" r="1" fill="#123D75"/>
<circle cx="184" cy="40" r="1" fill="#123D75"/>
<circle cx="192" cy="40" r="1" fill="#123D75"/>
<circle cx="200" cy="40" r="1" fill="#123D75"/>
<circle cx="208" cy="40" r="1" fill="#123D75"/>
<circle cx="216" cy="40" r="1" fill="#123D75"/>
<circle cx="224" cy="40" r="1" fill="#123D75"/>
<circle cx="232" cy="40" r="1" fill="#123D75"/>
<circle cx="240" cy="40" r="1" fill="#123D75"/>
<circle cx="248" cy="40" r="1" fill="#123D75"/>
<circle cx="256" cy="40" r="1" fill="#123D75"/>
<circle cx="264" cy="40" r="1" fill="#123D75"/>
<circle cx="272" cy="40" r="1" fill="#123D75"/>
<circle cx="280" cy="40" r="1" fill="#123D75"/>
<circle cx="8" cy="48" r="1" fill="#123D75"/>
<circle cx="16" cy="48" r="1" fill="#123D75"/>
<circle cx="24" cy="48" r="1" fill="#123D75"/>
<circle cx="32" cy="48" r="1" fill="#123D75"/>
<circle cx="40" cy="48" r="1" fill="#123D75"/>
<circle cx="48" cy="48" r="1" fill="#123D75"/>
<circle cx="56" cy="48" r="1" fill="#123D75"/>
<circle cx="64" cy="48" r="1" fill="#123D75"/>
<circle cx="72" cy="48" r="1" fill="#123D75"/>
<circle cx="80" cy="48" r="1" fill="#123D75"/>
<circle cx="88" cy="48" r="1" fill="#123D75"/>
<circle cx="96" cy="48" r="1" fill="#123D75"/>
<circle cx="104" cy="48" r="1" fill="#123D75"/>
<circle cx="112" cy="48" r="1" fill="#123D75"/>
<circle cx="120" cy="48" r="1" fill="#123D75"/>
<circle cx="128" cy="48" r="1" fill="#123D75"/>
<circle cx="136" cy="48" r="1" fill="#123D75"/>
<circle cx="144" cy="48" r="1" fill="#123D75"/>
<circle cx="152" cy="48" r="1" fill="#123D75"/>
<circle cx="160" cy="48" r="1" fill="#123D75"/>
<circle cx="168" cy="48" r="1" fill="#123D75"/>
<circle cx="176" cy="48" r="1" fill="#123D75"/>
<circle cx="184" cy="48" r="1" fill="#123D75"/>
<circle cx="192" cy="48" r="1" fill="#123D75"/>
<circle cx="200" cy="48" r="1" fill="#123D75"/>
<circle cx="208" cy="48" r="1" fill="#123D75"/>
<circle cx="216" cy="48" r="1" fill="#123D75"/>
<circle cx="224" cy="48" r="1" fill="#123D75"/>
<circle cx="232" cy="48" r="1" fill="#123D75"/>
<circle cx="240" cy="48" r="1" fill="#123D75"/>
<circle cx="248" cy="48" r="1" fill="#123D75"/>
<circle cx="256" cy="48" r="1" fill="#123D75"/>
<circle cx="264" cy="48" r="1" fill="#123D75"/>
<circle cx="272" cy="48" r="1" fill="#123D75"/>
<circle cx="280" cy="48" r="1" fill="#123D75"/>
<circle cx="8" cy="56" r="1" fill="#123D75"/>
<circle cx="16" cy="56" r="1" fill="#123D75"/>
<circle cx="24" cy="56" r="1" fill="#123D75"/>
<circle cx="32" cy="56" r="1" fill="#123D75"/>
<circle cx="40" cy="56" r="1" fill="#123D75"/>
<circle cx="48" cy="56" r="1" fill="#123D75"/>
<circle cx="56" cy="56" r="1" fill="#123D75"/>
<circle cx="64" cy="56" r="1" fill="#123D75"/>
<circle cx="72" cy="56" r="1" fill="#123D75"/>
<circle cx="80" cy="56" r="1" fill="#123D75"/>
<circle cx="88" cy="56" r="1" fill="#123D75"/>
<circle cx="96" cy="56" r="1" fill="#123D75"/>
<circle cx="104" cy="56" r="1" fill="#123D75"/>
<circle cx="112" cy="56" r="1" fill="#123D75"/>
<circle cx="120" cy="56" r="1" fill="#123D75"/>
<circle cx="128" cy="56" r="1" fill="#123D75"/>
<circle cx="136" cy="56" r="1" fill="#123D75"/>
<circle cx="144" cy="56" r="1" fill="#123D75"/>
<circle cx="152" cy="56" r="1" fill="#123D75"/>
<circle cx="160" cy="56" r="1" fill="#123D75"/>
<circle cx="168" cy="56" r="1" fill="#123D75"/>
<circle cx="176" cy="56" r="1" fill="#123D75"/>
<circle cx="184" cy="56" r="1" fill="#123D75"/>
<circle cx="192" cy="56" r="1" fill="#123D75"/>
<circle cx="200" cy="56" r="1" fill="#123D75"/>
<circle cx="208" cy="56" r="1" fill="#123D75"/>
<circle cx="216" cy="56" r="1" fill="#123D75"/>
<circle cx="224" cy="56" r="1" fill="#123D75"/>
<circle cx="232" cy="56" r="1" fill="#123D75"/>
<circle cx="240" cy="56" r="1" fill="#123D75"/>
<circle cx="248" cy="56" r="1" fill="#123D75"/>
<circle cx="256" cy="56" r="1" fill="#123D75"/>
<circle cx="264" cy="56" r="1" fill="#123D75"/>
<circle cx="272" cy="56" r="1" fill="#123D75"/>
<circle cx="280" cy="56" r="1" fill="#123D75"/>
<circle cx="8" cy="64" r="1" fill="#123D75"/>
<circle cx="16" cy="64" r="1" fill="#123D75"/>
<circle cx="24" cy="64" r="1" fill="#123D75"/>
<circle cx="32" cy="64" r="1" fill="#123D75"/>
<circle cx="40" cy="64" r="1" fill="#123D75"/>
<circle cx="48" cy="64" r="1" fill="#123D75"/>
<circle cx="56" cy="64" r="1" fill="#123D75"/>
<circle cx="64" cy="64" r="1" fill="#123D75"/>
<circle cx="72" cy="64" r="1" fill="#123D75"/>
<circle cx="80" cy="64" r="1" fill="#123D75"/>
<circle cx="88" cy="64" r="1" fill="#123D75"/>
<circle cx="96" cy="64" r="1" fill="#123D75"/>
<circle cx="104" cy="64" r="1" fill="#123D75"/>
<circle cx="112" cy="64" r="1" fill="#123D75"/>
<circle cx="120" cy="64" r="1" fill="#123D75"/>
<circle cx="128" cy="64" r="1" fill="#123D75"/>
<circle cx="136" cy="64" r="1" fill="#123D75"/>
<circle cx="144" cy="64" r="1" fill="#123D75"/>
<circle cx="152" cy="64" r="1" fill="#123D75"/>
<circle cx="160" cy="64" r="1" fill="#123D75"/>
<circle cx="168" cy="64" r="1" fill="#123D75"/>
<circle cx="176" cy="64" r="1" fill="#123D75"/>
<circle cx="184" cy="64" r="1" fill="#123D75"/>
<circle cx="192" cy="64" r="1" fill="#123D75"/>
<circle cx="200" cy="64" r="1" fill="#123D75"/>
<circle cx="208" cy="64" r="1" fill="#123D75"/>
<circle cx="216" cy="64" r="1" fill="#123D75"/>
<circle cx="224" cy="64" r="1" fill="#123D75"/>
<circle cx="232" cy="64" r="1" fill="#123D75"/>
<circle cx="240" cy="64" r="1" fill="#123D75"/>
<circle cx="248" cy="64" r="1" fill="#123D75"/>
<circle cx="256" cy="64" r="1" fill="#123D75"/>
<circle cx="264" cy="64" r="1" fill="#123D75"/>
<circle cx="272" cy="64" r="1" fill="#123D75"/>
<circle cx="280" cy="64" r="1" fill="#123D75"/>
<circle cx="8" cy="72" r="1" fill="#123D75"/>
<circle cx="16" cy="72" r="1" fill="#123D75"/>
<circle cx="24" cy="72" r="1" fill="#123D75"/>
<circle cx="32" cy="72" r="1" fill="#123D75"/>
<circle cx="40" cy="72" r="1" fill="#123D75"/>
<circle cx="48" cy="72" r="1" fill="#123D75"/>
<circle cx="56" cy="72" r="1" fill="#123D75"/>
<circle cx="64" cy="72" r="1" fill="#123D75"/>
<circle cx="72" cy="72" r="1" fill="#123D75"/>
<circle cx="80" cy="72" r="1" fill="#123D75"/>
<circle cx="88" cy="72" r="1" fill="#123D75"/>
<circle cx="96" cy="72" r="1" fill="#123D75"/>
<circle cx="104" cy="72" r="1" fill="#123D75"/>
<circle cx="112" cy="72" r="1" fill="#123D75"/>
<circle cx="120" cy="72" r="1" fill="#123D75"/>
<circle cx="128" cy="72" r="1" fill="#123D75"/>
<circle cx="136" cy="72" r="1" fill="#123D75"/>
<circle cx="144" cy="72" r="1" fill="#123D75"/>
<circle cx="152" cy="72" r="1" fill="#123D75"/>
<circle cx="160" cy="72" r="1" fill="#123D75"/>
<circle cx="168" cy="72" r="1" fill="#123D75"/>
<circle cx="176" cy="72" r="1" fill="#123D75"/>
<circle cx="184" cy="72" r="1" fill="#123D75"/>
<circle cx="192" cy="72" r="1" fill="#123D75"/>
<circle cx="200" cy="72" r="1" fill="#123D75"/>
<circle cx="208" cy="72" r="1" fill="#123D75"/>
<circle cx="216" cy="72" r="1" fill="#123D75"/>
<circle cx="224" cy="72" r="1" fill="#123D75"/>
<circle cx="232" cy="72" r="1" fill="#123D75"/>
<circle cx="240" cy="72" r="1" fill="#123D75"/>
<circle cx="248" cy="72" r="1" fill="#123D75"/>
<circle cx="256" cy="72" r="1" fill="#123D75"/>
<circle cx="264" cy="72" r="1" fill="#123D75"/>
<circle cx="272" cy="72" r="1" fill="#123D75"/>
<circle cx="280" cy="72" r="1" fill="#123D75"/>
<circle cx="8" cy="80" r="1" fill="#123D75"/>
<circle cx="16" cy="80" r="1" fill="#123D75"/>
<circle cx="24" cy="80" r="1" fill="#123D75"/>
<circle cx="32" cy="80" r="1" fill="#123D75"/>
<circle cx="40" cy="80" r="1" fill="#123D75"/>
<circle cx="48" cy="80" r="1" fill="#123D75"/>
<circle cx="56" cy="80" r="1" fill="#123D75"/>
<circle cx="64" cy="80" r="1" fill="#123D75"/>
<circle cx="72" cy="80" r="1" fill="#123D75"/>
<circle cx="80" cy="80" r="1" fill="#123D75"/>
<circle cx="88" cy="80" r="1" fill="#123D75"/>
<circle cx="96" cy="80" r="1" fill="#123D75"/>
<circle cx="104" cy="80" r="1" fill="#123D75"/>
<circle cx="112" cy="80" r="1" fill="#123D75"/>
<circle cx="120" cy="80" r="1" fill="#123D75"/>
<circle cx="128" cy="80" r="1" fill="#123D75"/>
<circle cx="136" cy="80" r="1" fill="#123D75"/>
<circle cx="144" cy="80" r="1" fill="#123D75"/>
<circle cx="152" cy="80" r="1" fill="#123D75"/>
<circle cx="160" cy="80" r="1" fill="#123D75"/>
<circle cx="168" cy="80" r="1" fill="#123D75"/>
<circle cx="176" cy="80" r="1" fill="#123D75"/>
<circle cx="184" cy="80" r="1" fill="#123D75"/>
<circle cx="192" cy="80" r="1" fill="#123D75"/>
<circle cx="200" cy="80" r="1" fill="#123D75"/>
<circle cx="208" cy="80" r="1" fill="#123D75"/>
<circle cx="216" cy="80" r="1" fill="#123D75"/>
<circle cx="224" cy="80" r="1" fill="#123D75"/>
<circle cx="232" cy="80" r="1" fill="#123D75"/>
<circle cx="240" cy="80" r="1" fill="#123D75"/>
<circle cx="248" cy="80" r="1" fill="#123D75"/>
<circle cx="256" cy="80" r="1" fill="#123D75"/>
<circle cx="264" cy="80" r="1" fill="#123D75"/>
<circle cx="272" cy="80" r="1" fill="#123D75"/>
<circle cx="280" cy="80" r="1" fill="#123D75"/>
<circle cx="8" cy="88" r="1" fill="#123D75"/>
<circle cx="16" cy="88" r="1" fill="#123D75"/>
<circle cx="24" cy="88" r="1" fill="#123D75"/>
<circle cx="32" cy="88" r="1" fill="#123D75"/>
<circle cx="40" cy="88" r="1" fill="#123D75"/>
<circle cx="48" cy="88" r="1" fill="#123D75"/>
<circle cx="56" cy="88" r="1" fill="#123D75"/>
<circle cx="64" cy="88" r="1" fill="#123D75"/>
<circle cx="72" cy="88" r="1" fill="#123D75"/>
<circle cx="80" cy="88" r="1" fill="#123D75"/>
<circle cx="88" cy="88" r="1" fill="#123D75"/>
<circle cx="96" cy="88" r="1" fill="#123D75"/>
<circle cx="104" cy="88" r="1" fill="#123D75"/>
<circle cx="112" cy="88" r="1" fill="#123D75"/>
<circle cx="120" cy="88" r="1" fill="#123D75"/>
<circle cx="128" cy="88" r="1" fill="#123D75"/>
<circle cx="136" cy="88" r="1" fill="#123D75"/>
<circle cx="144" cy="88" r="1" fill="#123D75"/>
<circle cx="152" cy="88" r="1" fill="#123D75"/>
<circle cx="160" cy="88" r="1" fill="#123D75"/>
<circle cx="168" cy="88" r="1" fill="#123D75"/>
<circle cx="176" cy="88" r="1" fill="#123D75"/>
<circle cx="184" cy="88" r="1" fill="#123D75"/>
<circle cx="192" cy="88" r="1" fill="#123D75"/>
<circle cx="200" cy="88" r="1" fill="#123D75"/>
<circle cx="208" cy="88" r="1" fill="#123D75"/>
<circle cx="216" cy="88" r="1" fill="#123D75"/>
<circle cx="224" cy="88" r="1" fill="#123D75"/>
<circle cx="232" cy="88" r="1" fill="#123D75"/>
<circle cx="240" cy="88" r="1" fill="#123D75"/>
<circle cx="248" cy="88" r="1" fill="#123D75"/>
<circle cx="256" cy="88" r="1" fill="#123D75"/>
<circle cx="264" cy="88" r="1" fill="#123D75"/>
<circle cx="272" cy="88" r="1" fill="#123D75"/>
<circle cx="280" cy="88" r="1" fill="#123D75"/>
<circle cx="8" cy="96" r="1" fill="#123D75"/>
<circle cx="16" cy="96" r="1" fill="#123D75"/>
<circle cx="24" cy="96" r="1" fill="#123D75"/>
<circle cx="32" cy="96" r="1" fill="#123D75"/>
<circle cx="40" cy="96" r="1" fill="#123D75"/>
<circle cx="48" cy="96" r="1" fill="#123D75"/>
<circle cx="56" cy="96" r="1" fill="#123D75"/>
<circle cx="64" cy="96" r="1" fill="#123D75"/>
<circle cx="72" cy="96" r="1" fill="#123D75"/>
<circle cx="80" cy="96" r="1" fill="#123D75"/>
<circle cx="88" cy="96" r="1" fill="#123D75"/>
<circle cx="96" cy="96" r="1" fill="#123D75"/>
<circle cx="104" cy="96" r="1" fill="#123D75"/>
<circle cx="112" cy="96" r="1" fill="#123D75"/>
<circle cx="120" cy="96" r="1" fill="#123D75"/>
<circle cx="128" cy="96" r="1" fill="#123D75"/>
<circle cx="136" cy="96" r="1" fill="#123D75"/>
<circle cx="144" cy="96" r="1" fill="#123D75"/>
<circle cx="152" cy="96" r="1" fill="#123D75"/>
<circle cx="160" cy="96" r="1" fill="#123D75"/>
<circle cx="168" cy="96" r="1" fill="#123D75"/>
<circle cx="176" cy="96" r="1" fill="#123D75"/>
<circle cx="184" cy="96" r="1" fill="#123D75"/>
<circle cx="192" cy="96" r="1" fill="#123D75"/>
<circle cx="200" cy="96" r="1" fill="#123D75"/>
<circle cx="208" cy="96" r="1" fill="#123D75"/>
<circle cx="216" cy="96" r="1" fill="#123D75"/>
<circle cx="224" cy="96" r="1" fill="#123D75"/>
<circle cx="232" cy="96" r="1" fill="#123D75"/>
<circle cx="240" cy="96" r="1" fill="#123D75"/>
<circle cx="248" cy="96" r="1" fill="#123D75"/>
<circle cx="256" cy="96" r="1" fill="#123D75"/>
<circle cx="264" cy="96" r="1" fill="#123D75"/>
<circle cx="272" cy="96" r="1" fill="#123D75"/>
<circle cx="280" cy="96" r="1" fill="#123D75"/>
<circle cx="8" cy="104" r="1" fill="#123D75"/>
<circle cx="16" cy="104" r="1" fill="#123D75"/>
<circle cx="24" cy="104" r="1" fill="#123D75"/>
<circle cx="32" cy="104" r="1" fill="#123D75"/>
<circle cx="40" cy="104" r="1" fill="#123D75"/>
<circle cx="48" cy="104" r="1" fill="#123D75"/>
<circle cx="56" cy="104" r="1" fill="#123D75"/>
<circle cx="64" cy="104" r="1" fill="#123D75"/>
<circle cx="72" cy="104" r="1" fill="#123D75"/>
<circle cx="80" cy="104" r="1" fill="#123D75"/>
<circle cx="88" cy="104" r="1" fill="#123D75"/>
<circle cx="96" cy="104" r="1" fill="#123D75"/>
<circle cx="104" cy="104" r="1" fill="#123D75"/>
<circle cx="112" cy="104" r="1" fill="#123D75"/>
<circle cx="120" cy="104" r="1" fill="#123D75"/>
<circle cx="128" cy="104" r="1" fill="#123D75"/>
<circle cx="136" cy="104" r="1" fill="#123D75"/>
<circle cx="144" cy="104" r="1" fill="#123D75"/>
<circle cx="152" cy="104" r="1" fill="#123D75"/>
<circle cx="160" cy="104" r="1" fill="#123D75"/>
<circle cx="168" cy="104" r="1" fill="#123D75"/>
<circle cx="176" cy="104" r="1" fill="#123D75"/>
<circle cx="184" cy="104" r="1" fill="#123D75"/>
<circle cx="192" cy="104" r="1" fill="#123D75"/>
<circle cx="200" cy="104" r="1" fill="#123D75"/>
<circle cx="208" cy="104" r="1" fill="#123D75"/>
<circle cx="216" cy="104" r="1" fill="#123D75"/>
<circle cx="224" cy="104" r="1" fill="#123D75"/>
<circle cx="232" cy="104" r="1" fill="#123D75"/>
<circle cx="240" cy="104" r="1" fill="#123D75"/>
<circle cx="248" cy="104" r="1" fill="#123D75"/>
<circle cx="256" cy="104" r="1" fill="#123D75"/>
<circle cx="264" cy="104" r="1" fill="#123D75"/>
<circle cx="272" cy="104" r="1" fill="#123D75"/>
<circle cx="280" cy="104" r="1" fill="#123D75"/>
<circle cx="8" cy="112" r="1" fill="#123D75"/>
<circle cx="16" cy="112" r="1" fill="#123D75"/>
<circle cx="24" cy="112" r="1" fill="#123D75"/>
<circle cx="32" cy="112" r="1" fill="#123D75"/>
<circle cx="40" cy="112" r="1" fill="#123D75"/>
<circle cx="48" cy="112" r="1" fill="#123D75"/>
<circle cx="56" cy="112" r="1" fill="#123D75"/>
<circle cx="64" cy="112" r="1" fill="#123D75"/>
<circle cx="72" cy="112" r="1" fill="#123D75"/>
<circle cx="80" cy="112" r="1" fill="#123D75"/>
<circle cx="88" cy="112" r="1" fill="#123D75"/>
<circle cx="96" cy="112" r="1" fill="#123D75"/>
<circle cx="104" cy="112" r="1" fill="#123D75"/>
<circle cx="112" cy="112" r="1" fill="#123D75"/>
<circle cx="120" cy="112" r="1" fill="#123D75"/>
<circle cx="128" cy="112" r="1" fill="#123D75"/>
<circle cx="136" cy="112" r="1" fill="#123D75"/>
<circle cx="144" cy="112" r="1" fill="#123D75"/>
<circle cx="152" cy="112" r="1" fill="#123D75"/>
<circle cx="160" cy="112" r="1" fill="#123D75"/>
<circle cx="168" cy="112" r="1" fill="#123D75"/>
<circle cx="176" cy="112" r="1" fill="#123D75"/>
<circle cx="184" cy="112" r="1" fill="#123D75"/>
<circle cx="192" cy="112" r="1" fill="#123D75"/>
<circle cx="200" cy="112" r="1" fill="#123D75"/>
<circle cx="208" cy="112" r="1" fill="#123D75"/>
<circle cx="216" cy="112" r="1" fill="#123D75"/>
<circle cx="224" cy="112" r="1" fill="#123D75"/>
<circle cx="232" cy="112" r="1" fill="#123D75"/>
<circle cx="240" cy="112" r="1" fill="#123D75"/>
<circle cx="248" cy="112" r="1" fill="#123D75"/>
<circle cx="256" cy="112" r="1" fill="#123D75"/>
<circle cx="264" cy="112" r="1" fill="#123D75"/>
<circle cx="272" cy="112" r="1" fill="#123D75"/>
<circle cx="280" cy="112" r="1" fill="#123D75"/>
<circle cx="120" cy="120" r="1" fill="#123D75"/>
<circle cx="128" cy="120" r="1" fill="#123D75"/>
<circle cx="136" cy="120" r="1" fill="#123D75"/>
<circle cx="144" cy="120" r="1" fill="#123D75"/>
<circle cx="152" cy="120" r="1" fill="#123D75"/>
<circle cx="160" cy="120" r="1" fill="#123D75"/>
<circle cx="168" cy="120" r="1" fill="#123D75"/>
<rect width="288" height="120" fill="url(#paint0_radial_153_44552)"/>
<path d="M102 61.3906C102 56.7675 105.906 53.0198 110.724 53.0198H112.905V73.8618C112.905 75.0646 111.93 76.0396 110.727 76.0396C105.907 76.0396 102 72.2905 102 67.6658V61.3906Z" fill="#2781F6"/>
<path d="M115.529 61.3906C115.529 56.7675 115.995 53.0198 111.177 53.0198H108.996V76.0396H111.174C115.994 76.0396 115.529 72.2905 115.529 67.6658V61.3906Z" fill="#2781F6"/>
<path d="M175.121 59.7904C175.121 51.8895 171.555 44.3122 165.206 38.7254C158.858 33.1386 150.247 30 141.269 30C132.29 30 123.68 33.1386 117.331 38.7254C110.983 44.3122 107.416 51.8895 107.416 59.7904H112.283C112.283 53.0253 115.337 46.5373 120.773 41.7537C126.208 36.9701 133.581 34.2827 141.269 34.2827C148.956 34.2827 156.329 36.9701 161.765 41.7537C167.201 46.5373 170.255 53.0253 170.255 59.7904H175.121Z" fill="#2781F6"/>
<path d="M125.357 59.0721C125.357 57.5473 126.594 56.3112 128.118 56.3112C129.643 56.3112 130.879 57.5473 130.879 59.0721V65.4531C130.879 66.978 129.643 68.2141 128.118 68.2141C126.594 68.2141 125.357 66.978 125.357 65.4531V59.0721Z" fill="#464B50"/>
<path d="M134.191 59.0721C134.191 57.5473 135.428 56.3112 136.952 56.3112C138.477 56.3112 139.713 57.5473 139.713 59.0721V65.4531C139.713 66.978 138.477 68.2141 136.952 68.2141C135.428 68.2141 134.191 66.978 134.191 65.4531V59.0721Z" fill="#464B50"/>
<path fill-rule="evenodd" clip-rule="evenodd" d="M155.629 48.7364C145.348 47.2857 136.967 47.2285 126.454 48.73C123.797 49.1095 122.039 49.366 120.698 49.7578C119.455 50.1211 118.748 50.5542 118.163 51.2077C116.953 52.5609 116.793 54.0914 116.628 59.4291C116.466 64.675 116.787 69.3765 117.396 74.6664C117.72 77.4853 117.943 79.3877 118.299 80.834C118.637 82.2059 119.046 82.9435 119.614 83.5082C120.186 84.0774 120.92 84.4788 122.267 84.8046C123.692 85.1492 125.561 85.3575 128.339 85.6606C137.323 86.6408 144.048 86.6359 153.065 85.6658C155.877 85.3633 157.777 85.1548 159.223 84.8126C160.596 84.4874 161.335 84.0888 161.899 83.5358C162.452 82.9946 162.874 82.2478 163.241 80.8076C163.623 79.3049 163.883 77.3165 164.259 74.3956C164.931 69.1841 165.414 64.6073 165.433 59.5934C165.453 54.2327 165.344 52.7074 164.119 51.2927C163.528 50.6094 162.809 50.1601 161.537 49.7859C160.164 49.3818 158.359 49.1214 155.629 48.7364ZM125.812 44.2353C136.763 42.6712 145.574 42.7324 156.264 44.2406L156.42 44.2626C158.951 44.6196 161.089 44.9212 162.819 45.4303C164.686 45.9797 166.247 46.8138 167.552 48.3213C170.014 51.1651 169.997 54.5392 169.976 59.0219C169.975 59.216 169.974 59.4121 169.974 59.6104C169.954 64.9117 169.441 69.712 168.763 74.9758L168.745 75.115C168.391 77.8619 168.099 80.1255 167.641 81.9268C167.159 83.821 166.439 85.445 165.076 86.7798C163.725 88.103 162.128 88.7906 160.268 89.2308C158.512 89.6465 156.327 89.8815 153.693 90.1648L153.551 90.18C144.213 91.1846 137.16 91.1903 127.846 90.1741L127.702 90.1584C125.105 89.8751 122.943 89.6392 121.199 89.2176C119.347 88.7694 117.76 88.0679 116.413 86.7281C115.061 85.3838 114.35 83.7863 113.891 81.9199C113.457 80.1595 113.205 77.9676 112.901 75.3282L112.885 75.1853C112.261 69.7601 111.919 64.8253 112.09 59.2888C112.096 59.088 112.102 58.8893 112.108 58.6928C112.241 54.2436 112.341 50.9062 114.78 48.1802C116.074 46.7339 117.604 45.932 119.424 45.3998C121.113 44.9062 123.196 44.6089 125.66 44.257C125.711 44.2498 125.761 44.2425 125.812 44.2353Z" fill="#464B50"/>
<path d="M166.452 62.9736C166.452 57.9954 170.488 53.9597 175.466 53.9597H176.96V78.7478H175.469C170.489 78.7478 166.452 74.7108 166.452 69.7308V62.9736Z" fill="#2781F6"/>
<path d="M183.701 62.9736C183.701 57.9954 179.666 53.9597 174.687 53.9597H173.193V78.7478H174.684C179.664 78.7478 183.701 74.7108 183.701 69.7308V62.9736Z" fill="#2781F6"/>
<path d="M174.913 67.4689C174.913 67.4689 175.069 76.7166 173.174 83.4872C171.28 90.2577 166.405 92.1592 161.178 93.643C155.95 95.1268 152.338 94.9971 152.338 94.9971" stroke="#2781F6" stroke-width="3.3773" stroke-linecap="round"/>
</g>
<defs>
<radialGradient id="paint0_radial_153_44552" cx="0" cy="0" r="1" gradientUnits="userSpaceOnUse" gradientTransform="translate(144 60) rotate(90) scale(60 144)">
<stop offset="0.369462" stop-color="#2E3035" stop-opacity="0.9"/>
<stop offset="0.77" stop-color="#2E3035" stop-opacity="0"/>
<stop offset="0.99" stop-color="#2E3035" stop-opacity="0.7"/>
</radialGradient>
<clipPath id="clip0_153_44552">
<rect width="288" height="120" rx="8" fill="white"/>
</clipPath>
</defs>
</svg>
