<svg width="120" height="104" viewBox="0 0 120 104" fill="none" xmlns="http://www.w3.org/2000/svg">
<g clip-path="url(#clip0_160_16404)">
<rect width="120" height="104" rx="8" fill="#FCFCFD"/>
<path d="M54.4477 26.5243C54.2821 25.4105 55.0508 24.3732 56.1646 24.2076C57.2785 24.042 58.3157 24.8107 58.4813 25.9245L59.1744 30.5856C59.34 31.6994 58.5713 32.7366 57.4575 32.9023C56.3436 33.0679 55.3064 32.2992 55.1408 31.1854L54.4477 26.5243Z" fill="black"/>
<path d="M60.9011 25.5647C60.7355 24.4509 61.5042 23.4136 62.6181 23.248C63.7319 23.0824 64.7691 23.8511 64.9347 24.9649L65.6278 29.626C65.7934 30.7398 65.0247 31.7771 63.9109 31.9427C62.797 32.1083 61.7598 31.3396 61.5942 30.2258L60.9011 25.5647Z" fill="black"/>
<path fill-rule="evenodd" clip-rule="evenodd" d="M75.4378 15.6863C67.77 15.7434 61.6417 16.6119 54.1257 18.8505C52.2258 19.4164 50.9694 19.7947 50.0327 20.2265C49.1642 20.6269 48.6948 21.0201 48.3387 21.5609C47.6012 22.6809 47.6509 23.8162 48.1101 27.7331C48.5614 31.5827 49.3067 34.982 50.3258 38.78C50.8688 40.8039 51.2384 42.1693 51.6557 43.187C52.0516 44.1525 52.4303 44.6469 52.9065 44.9977C53.3866 45.3513 53.9662 45.5648 54.9853 45.6565C56.0633 45.7534 57.4513 45.7026 59.5134 45.6223C66.1825 45.3625 71.0944 44.6284 77.576 42.9403C79.5969 42.414 80.9619 42.0554 81.9808 41.6484C82.9489 41.2617 83.4451 40.8903 83.7975 40.425C84.1425 39.9696 84.3699 39.3782 84.4811 38.2864C84.5971 37.1472 84.5711 35.6666 84.5287 33.4921C84.4531 29.6123 84.3092 26.2166 83.7784 22.5521C83.2108 18.6342 82.965 17.5319 81.9169 16.6315C81.4107 16.1966 80.8366 15.9465 79.8673 15.8113C78.8205 15.6652 77.4732 15.6711 75.4378 15.6863ZM53.1686 15.637C60.9981 13.3051 67.4409 12.3928 75.4129 12.3334L75.5295 12.3325C77.417 12.3184 79.0117 12.3065 80.3306 12.4904C81.754 12.689 82.985 13.1287 84.1018 14.0882C86.2086 15.8981 86.5634 18.3644 87.0347 21.6412C87.0551 21.7831 87.0757 21.9265 87.0967 22.0714C87.658 25.946 87.8047 29.5081 87.8811 33.4268L87.8831 33.5304C87.923 35.5754 87.9558 37.2605 87.8168 38.6261C87.6706 40.062 87.321 41.3265 86.4703 42.4496C85.627 43.5629 84.5353 44.2385 83.2246 44.7621C81.9869 45.2565 80.4161 45.6656 78.5228 46.1586L78.4211 46.1851C71.709 47.9332 66.5576 48.7034 59.6439 48.9727L59.5372 48.9769C57.6093 49.052 56.0039 49.1146 54.6849 48.9959C53.2827 48.8698 52.0479 48.5296 50.918 47.6974C49.7843 46.8623 49.092 45.7725 48.5534 44.4591C48.0455 43.2203 47.6233 41.6466 47.1149 39.7515L47.0873 39.6489C46.0422 35.7539 45.2562 32.1864 44.7799 28.1236C44.7626 27.9761 44.7454 27.8304 44.7284 27.6862C44.3423 24.4218 44.0527 21.9731 45.5383 19.717C46.3265 18.5199 47.3567 17.768 48.629 17.1815C49.809 16.6375 51.2978 16.1942 53.0599 15.6694C53.096 15.6587 53.1322 15.6479 53.1686 15.637Z" fill="black"/>
<path d="M52.6139 31.385L45.538 32.5217C43.584 32.8356 42.2545 34.6741 42.5684 36.6281L43.1367 40.166C43.4506 42.12 45.2891 43.4495 47.243 43.1357L54.319 41.9989C56.2729 41.6851 57.6025 39.8466 57.2886 37.8926L56.7202 34.3546C56.4064 32.4007 54.5679 31.0711 52.6139 31.385Z" stroke="#B77FFF" stroke-width="2.4" stroke-linecap="round" stroke-linejoin="round"/>
<path d="M64.0798 34.9869C63.9291 34.0486 63.4095 33.209 62.6352 32.6527C61.861 32.0965 60.8956 31.8692 59.9514 32.0209C59.0072 32.1725 58.1616 32.6908 57.6005 33.4615C57.0394 34.2323 56.8089 35.1924 56.9596 36.1307" stroke="#B77FFF" stroke-width="2.4" stroke-linecap="round" stroke-linejoin="round"/>
<path d="M73.8418 27.9749L66.7658 29.1116C64.8118 29.4255 63.4823 31.264 63.7962 33.218L64.3645 36.7559C64.6784 38.7099 66.5169 40.0395 68.4709 39.7256L75.5468 38.5889C77.5008 38.275 78.8303 36.4365 78.5164 34.4825L77.9481 30.9446C77.6342 28.9906 75.7957 27.661 73.8418 27.9749Z" stroke="#B77FFF" stroke-width="2.4" stroke-linecap="round" stroke-linejoin="round"/>
<path d="M28.5001 -26L128.5 -2.5L49.5001 75.9995L31.9999 70.5L28.5001 -26Z" fill="url(#paint0_linear_160_16404)" fill-opacity="0.3"/>
<path d="M41.3586 88.2861L42.7447 88.7517L42.931 87.3015L45.9797 63.5739C46.1801 62.0143 45.3058 60.5152 43.8496 59.9217L29.967 54.2642C28.5485 53.6862 26.9673 54.6084 26.7721 56.1276L23.6587 80.3586C23.5168 81.4628 24.1747 82.5133 25.2299 82.8679L41.3586 88.2861Z" fill="#E1D9FF" stroke="#473896" stroke-width="2.4"/>
<path d="M45.0701 88.506L43.6114 88.6061L43.7977 87.1558L46.8465 63.4282C47.0469 61.8686 48.2718 60.6393 49.8307 60.4332L64.6927 58.4691C66.2112 58.2684 67.5079 59.5605 67.3127 61.0797L64.1992 85.3107C64.0574 86.4148 63.1553 87.2649 62.0447 87.3412L45.0701 88.506Z" fill="#E1D9FF" stroke="#473896" stroke-width="2.4"/>
<path d="M38.1722 92.2769L39.5583 92.7425L39.7446 91.2923L42.9045 66.6998C43.0393 65.6501 42.4508 64.6411 41.4707 64.2417L26.7806 58.2551C25.3621 57.677 23.7809 58.5993 23.5857 60.1185L20.4723 84.3495C20.3304 85.4536 20.9883 86.5042 22.0435 86.8587L38.1722 92.2769Z" fill="#E1D9FF" stroke="#473896" stroke-width="2.4"/>
<path d="M47.3646 93.4581L45.9059 93.5581L46.0922 92.1079L49.2521 67.5154C49.387 66.4657 50.2115 65.6382 51.2607 65.4996L66.9871 63.4212C68.5057 63.2205 69.8024 64.5126 69.6072 66.0318L66.4937 90.2628C66.3519 91.3669 65.4498 92.217 64.3392 92.2932L47.3646 93.4581Z" fill="#E1D9FF" stroke="#473896" stroke-width="2.4"/>
<path d="M43.0765 65.8092L41.8863 65.6562L41.7334 66.8465L38.6068 91.1797C38.4426 92.4579 39.3456 93.6272 40.6237 93.7914L44.61 94.3036C45.8882 94.4678 47.0575 93.5648 47.2217 92.2867L50.3483 67.9534L50.5012 66.7632L49.311 66.6102L43.0765 65.8092Z" fill="#E1D9FF" stroke="#473896" stroke-width="2.4"/>
</g>
<rect x="0.5" y="0.5" width="119" height="103" rx="7.5" stroke="#ECECEC"/>
<defs>
<linearGradient id="paint0_linear_160_16404" x1="37.0001" y1="71.5" x2="103" y2="-1.00003" gradientUnits="userSpaceOnUse">
<stop stop-color="#CC8AFF" stop-opacity="0.9"/>
<stop offset="1" stop-color="#CC8AFF" stop-opacity="0.1"/>
</linearGradient>
<clipPath id="clip0_160_16404">
<rect width="120" height="104" rx="8" fill="white"/>
</clipPath>
</defs>
</svg>
