<svg width="120" height="104" viewBox="0 0 120 104" fill="none" xmlns="http://www.w3.org/2000/svg">
<g clip-path="url(#clip0_156_14208)">
<rect width="120" height="104" rx="8" fill="#1B1B1F"/>
<path d="M54.4477 26.5242C54.2821 25.4104 55.0508 24.3732 56.1646 24.2076C57.2785 24.0419 58.3157 24.8106 58.4813 25.9245L59.1744 30.5855C59.34 31.6994 58.5713 32.7366 57.4575 32.9022C56.3436 33.0678 55.3064 32.2991 55.1408 31.1853L54.4477 26.5242Z" fill="#E2DDFE"/>
<path d="M60.9011 25.5647C60.7355 24.4508 61.5042 23.4136 62.6181 23.248C63.7319 23.0823 64.7691 23.851 64.9347 24.9649L65.6278 29.6259C65.7934 30.7398 65.0247 31.777 63.9109 31.9426C62.797 32.1082 61.7598 31.3395 61.5942 30.2257L60.9011 25.5647Z" fill="#E2DDFE"/>
<path fill-rule="evenodd" clip-rule="evenodd" d="M75.4378 15.6862C67.77 15.7433 61.6417 16.6118 54.1257 18.8504C52.2258 19.4163 50.9694 19.7946 50.0327 20.2264C49.1642 20.6268 48.6948 21.02 48.3387 21.5609C47.6012 22.6808 47.6509 23.8161 48.1101 27.7331C48.5614 31.5826 49.3067 34.982 50.3258 38.78C50.8688 40.8038 51.2384 42.1692 51.6557 43.187C52.0516 44.1524 52.4303 44.6468 52.9065 44.9976C53.3866 45.3512 53.9662 45.5647 54.9853 45.6564C56.0633 45.7534 57.4513 45.7025 59.5134 45.6222C66.1825 45.3624 71.0944 44.6284 77.576 42.9403C79.5969 42.414 80.9619 42.0553 81.9808 41.6483C82.9489 41.2616 83.4451 40.8902 83.7975 40.425C84.1425 39.9695 84.3699 39.3782 84.4811 38.2864C84.5971 37.1472 84.5711 35.6665 84.5287 33.492C84.4531 29.6123 84.3092 26.2165 83.7784 22.5521C83.2108 18.6341 82.965 17.5318 81.9169 16.6314C81.4107 16.1965 80.8366 15.9464 79.8673 15.8112C78.8205 15.6652 77.4732 15.6711 75.4378 15.6862ZM53.1686 15.637C60.9981 13.305 67.4409 12.3927 75.4129 12.3333L75.5295 12.3325C77.417 12.3183 79.0117 12.3064 80.3306 12.4904C81.754 12.6889 82.985 13.1286 84.1018 14.0881C86.2086 15.898 86.5634 18.3644 87.0347 21.6412C87.0551 21.783 87.0757 21.9264 87.0967 22.0714C87.658 25.9459 87.8047 29.5081 87.8811 33.4267L87.8831 33.5304C87.923 35.5753 87.9558 37.2604 87.8168 38.626C87.6706 40.0619 87.321 41.3264 86.4703 42.4495C85.627 43.5628 84.5353 44.2385 83.2246 44.762C81.9869 45.2565 80.4161 45.6655 78.5228 46.1585L78.4211 46.185C71.709 47.9331 66.5576 48.7033 59.6439 48.9726L59.5372 48.9768C57.6093 49.052 56.0039 49.1146 54.6849 48.9959C53.2827 48.8697 52.0479 48.5296 50.918 47.6973C49.7843 46.8622 49.092 45.7725 48.5534 44.459C48.0455 43.2202 47.6233 41.6465 47.1149 39.7515L47.0873 39.6489C46.0422 35.7538 45.2562 32.1863 44.7799 28.1235C44.7626 27.9761 44.7454 27.8303 44.7284 27.6861C44.3423 24.4217 44.0527 21.973 45.5383 19.7169C46.3265 18.5199 47.3567 17.7679 48.629 17.1814C49.809 16.6375 51.2978 16.1941 53.0599 15.6693C53.096 15.6586 53.1322 15.6478 53.1686 15.637Z" fill="#E2DDFE"/>
<path d="M52.6139 31.385L45.538 32.5217C43.584 32.8356 42.2545 34.6741 42.5684 36.6281L43.1367 40.166C43.4506 42.12 45.2891 43.4495 47.243 43.1357L54.319 41.9989C56.2729 41.6851 57.6025 39.8466 57.2886 37.8926L56.7202 34.3546C56.4064 32.4007 54.5679 31.0711 52.6139 31.385Z" stroke="#C171FF" stroke-width="2.4" stroke-linecap="round" stroke-linejoin="round"/>
<path d="M64.0798 34.9869C63.9291 34.0486 63.4095 33.209 62.6352 32.6527C61.861 32.0965 60.8956 31.8692 59.9514 32.0209C59.0072 32.1725 58.1616 32.6908 57.6005 33.4615C57.0394 34.2323 56.8089 35.1924 56.9596 36.1307" stroke="#C171FF" stroke-width="2.4" stroke-linecap="round" stroke-linejoin="round"/>
<path d="M73.8418 27.9749L66.7658 29.1116C64.8118 29.4255 63.4823 31.2639 63.7962 33.2179L64.3645 36.7559C64.6784 38.7098 66.5169 40.0394 68.4709 39.7255L75.5468 38.5888C77.5008 38.2749 78.8303 36.4364 78.5164 34.4825L77.9481 30.9445C77.6342 28.9905 75.7957 27.661 73.8418 27.9749Z" stroke="#C171FF" stroke-width="2.4" stroke-linecap="round" stroke-linejoin="round"/>
<path d="M28.5001 -26L128.5 -2.5L49.5001 75.9995L31.9999 70.5L28.5001 -26Z" fill="url(#paint0_linear_156_14208)" fill-opacity="0.3"/>
<path d="M41.3586 88.2861L42.7447 88.7517L42.931 87.3015L45.9797 63.5739C46.1801 62.0143 45.3058 60.5152 43.8496 59.9217L29.967 54.2642C28.5485 53.6862 26.9673 54.6084 26.7721 56.1276L23.6587 80.3586C23.5168 81.4628 24.1747 82.5133 25.2299 82.8679L41.3586 88.2861Z" fill="#3B334A" stroke="#C9C7DD" stroke-width="2.4"/>
<path d="M45.0701 88.506L43.6114 88.6061L43.7977 87.1558L46.8465 63.4282C47.0469 61.8686 48.2718 60.6393 49.8307 60.4332L64.6927 58.4691C66.2112 58.2684 67.5079 59.5605 67.3127 61.0797L64.1992 85.3107C64.0574 86.4148 63.1553 87.2649 62.0447 87.3412L45.0701 88.506Z" fill="#3B334A" stroke="#C9C7DD" stroke-width="2.4"/>
<path d="M38.1722 92.2769L39.5583 92.7425L39.7446 91.2923L42.9045 66.6998C43.0393 65.6501 42.4508 64.6411 41.4707 64.2417L26.7806 58.2551C25.3621 57.677 23.7809 58.5993 23.5857 60.1185L20.4723 84.3495C20.3304 85.4536 20.9883 86.5042 22.0435 86.8587L38.1722 92.2769Z" fill="#3B334A" stroke="#C9C7DD" stroke-width="2.4"/>
<path d="M47.3646 93.4581L45.9059 93.5581L46.0922 92.1079L49.2521 67.5154C49.387 66.4657 50.2115 65.6382 51.2607 65.4996L66.9871 63.4212C68.5057 63.2205 69.8024 64.5126 69.6072 66.0318L66.4937 90.2628C66.3519 91.3669 65.4498 92.217 64.3392 92.2932L47.3646 93.4581Z" fill="#3B334A" stroke="#C9C7DD" stroke-width="2.4"/>
<path d="M43.0765 65.8092L41.8863 65.6562L41.7334 66.8465L38.6068 91.1797C38.4426 92.4579 39.3456 93.6272 40.6237 93.7914L44.61 94.3036C45.8882 94.4678 47.0575 93.5648 47.2217 92.2867L50.3483 67.9534L50.5012 66.7632L49.311 66.6102L43.0765 65.8092Z" fill="#3B334A" stroke="#C9C7DD" stroke-width="2.4"/>
</g>
<defs>
<linearGradient id="paint0_linear_156_14208" x1="37.0001" y1="71.5" x2="103" y2="-1.00003" gradientUnits="userSpaceOnUse">
<stop stop-color="#CC8AFF" stop-opacity="0.9"/>
<stop offset="1" stop-color="#CC8AFF" stop-opacity="0.1"/>
</linearGradient>
<clipPath id="clip0_156_14208">
<rect width="120" height="104" rx="8" fill="white"/>
</clipPath>
</defs>
</svg>
