<svg width="288" height="120" viewBox="0 0 288 120" fill="none" xmlns="http://www.w3.org/2000/svg">
<g clip-path="url(#clip0_302_6503)">
<rect width="288" height="120" rx="8" fill="#2E3035"/>
<circle cx="8" r="1" fill="#473876"/>
<circle cx="16" r="1" fill="#473876"/>
<circle cx="24" r="1" fill="#473876"/>
<circle cx="32" r="1" fill="#473876"/>
<circle cx="40" r="1" fill="#473876"/>
<circle cx="48" r="1" fill="#473876"/>
<circle cx="56" r="1" fill="#473876"/>
<circle cx="64" r="1" fill="#473876"/>
<circle cx="72" r="1" fill="#473876"/>
<circle cx="80" r="1" fill="#473876"/>
<circle cx="88" r="1" fill="#473876"/>
<circle cx="96" r="1" fill="#473876"/>
<circle cx="104" r="1" fill="#473876"/>
<circle cx="112" r="1" fill="#473876"/>
<circle cx="120" r="1" fill="#473876"/>
<circle cx="128" r="1" fill="#473876"/>
<circle cx="136" r="1" fill="#473876"/>
<circle cx="144" r="1" fill="#473876"/>
<circle cx="152" r="1" fill="#473876"/>
<circle cx="160" r="1" fill="#473876"/>
<circle cx="168" r="1" fill="#473876"/>
<circle cx="176" r="1" fill="#473876"/>
<circle cx="184" r="1" fill="#473876"/>
<circle cx="192" r="1" fill="#473876"/>
<circle cx="200" r="1" fill="#473876"/>
<circle cx="208" r="1" fill="#473876"/>
<circle cx="216" r="1" fill="#473876"/>
<circle cx="224" r="1" fill="#473876"/>
<circle cx="232" r="1" fill="#473876"/>
<circle cx="240" r="1" fill="#473876"/>
<circle cx="248" r="1" fill="#473876"/>
<circle cx="256" r="1" fill="#473876"/>
<circle cx="264" r="1" fill="#473876"/>
<circle cx="272" r="1" fill="#473876"/>
<circle cx="280" r="1" fill="#473876"/>
<circle cx="8" cy="8" r="1" fill="#473876"/>
<circle cx="16" cy="8" r="1" fill="#473876"/>
<circle cx="24" cy="8" r="1" fill="#473876"/>
<circle cx="32" cy="8" r="1" fill="#473876"/>
<circle cx="40" cy="8" r="1" fill="#473876"/>
<circle cx="48" cy="8" r="1" fill="#473876"/>
<circle cx="56" cy="8" r="1" fill="#473876"/>
<circle cx="64" cy="8" r="1" fill="#473876"/>
<circle cx="72" cy="8" r="1" fill="#473876"/>
<circle cx="80" cy="8" r="1" fill="#473876"/>
<circle cx="88" cy="8" r="1" fill="#473876"/>
<circle cx="96" cy="8" r="1" fill="#473876"/>
<circle cx="104" cy="8" r="1" fill="#473876"/>
<circle cx="112" cy="8" r="1" fill="#473876"/>
<circle cx="120" cy="8" r="1" fill="#473876"/>
<circle cx="128" cy="8" r="1" fill="#473876"/>
<circle cx="136" cy="8" r="1" fill="#473876"/>
<circle cx="144" cy="8" r="1" fill="#473876"/>
<circle cx="152" cy="8" r="1" fill="#473876"/>
<circle cx="160" cy="8" r="1" fill="#473876"/>
<circle cx="168" cy="8" r="1" fill="#473876"/>
<circle cx="176" cy="8" r="1" fill="#473876"/>
<circle cx="184" cy="8" r="1" fill="#473876"/>
<circle cx="192" cy="8" r="1" fill="#473876"/>
<circle cx="200" cy="8" r="1" fill="#473876"/>
<circle cx="208" cy="8" r="1" fill="#473876"/>
<circle cx="216" cy="8" r="1" fill="#473876"/>
<circle cx="224" cy="8" r="1" fill="#473876"/>
<circle cx="232" cy="8" r="1" fill="#473876"/>
<circle cx="240" cy="8" r="1" fill="#473876"/>
<circle cx="248" cy="8" r="1" fill="#473876"/>
<circle cx="256" cy="8" r="1" fill="#473876"/>
<circle cx="264" cy="8" r="1" fill="#473876"/>
<circle cx="272" cy="8" r="1" fill="#473876"/>
<circle cx="280" cy="8" r="1" fill="#473876"/>
<circle cx="8" cy="16" r="1" fill="#473876"/>
<circle cx="16" cy="16" r="1" fill="#473876"/>
<circle cx="24" cy="16" r="1" fill="#473876"/>
<circle cx="32" cy="16" r="1" fill="#473876"/>
<circle cx="40" cy="16" r="1" fill="#473876"/>
<circle cx="48" cy="16" r="1" fill="#473876"/>
<circle cx="56" cy="16" r="1" fill="#473876"/>
<circle cx="64" cy="16" r="1" fill="#473876"/>
<circle cx="72" cy="16" r="1" fill="#473876"/>
<circle cx="80" cy="16" r="1" fill="#473876"/>
<circle cx="88" cy="16" r="1" fill="#473876"/>
<circle cx="96" cy="16" r="1" fill="#473876"/>
<circle cx="104" cy="16" r="1" fill="#473876"/>
<circle cx="112" cy="16" r="1" fill="#473876"/>
<circle cx="120" cy="16" r="1" fill="#473876"/>
<circle cx="128" cy="16" r="1" fill="#473876"/>
<circle cx="136" cy="16" r="1" fill="#473876"/>
<circle cx="144" cy="16" r="1" fill="#473876"/>
<circle cx="152" cy="16" r="1" fill="#473876"/>
<circle cx="160" cy="16" r="1" fill="#473876"/>
<circle cx="168" cy="16" r="1" fill="#473876"/>
<circle cx="176" cy="16" r="1" fill="#473876"/>
<circle cx="184" cy="16" r="1" fill="#473876"/>
<circle cx="192" cy="16" r="1" fill="#473876"/>
<circle cx="200" cy="16" r="1" fill="#473876"/>
<circle cx="208" cy="16" r="1" fill="#473876"/>
<circle cx="216" cy="16" r="1" fill="#473876"/>
<circle cx="224" cy="16" r="1" fill="#473876"/>
<circle cx="232" cy="16" r="1" fill="#473876"/>
<circle cx="240" cy="16" r="1" fill="#473876"/>
<circle cx="248" cy="16" r="1" fill="#473876"/>
<circle cx="256" cy="16" r="1" fill="#473876"/>
<circle cx="264" cy="16" r="1" fill="#473876"/>
<circle cx="272" cy="16" r="1" fill="#473876"/>
<circle cx="280" cy="16" r="1" fill="#473876"/>
<circle cx="8" cy="24" r="1" fill="#473876"/>
<circle cx="16" cy="24" r="1" fill="#473876"/>
<circle cx="24" cy="24" r="1" fill="#473876"/>
<circle cx="32" cy="24" r="1" fill="#473876"/>
<circle cx="40" cy="24" r="1" fill="#473876"/>
<circle cx="48" cy="24" r="1" fill="#473876"/>
<circle cx="56" cy="24" r="1" fill="#473876"/>
<circle cx="64" cy="24" r="1" fill="#473876"/>
<circle cx="72" cy="24" r="1" fill="#473876"/>
<circle cx="80" cy="24" r="1" fill="#473876"/>
<circle cx="88" cy="24" r="1" fill="#473876"/>
<circle cx="96" cy="24" r="1" fill="#473876"/>
<circle cx="104" cy="24" r="1" fill="#473876"/>
<circle cx="112" cy="24" r="1" fill="#473876"/>
<circle cx="120" cy="24" r="1" fill="#473876"/>
<circle cx="128" cy="24" r="1" fill="#473876"/>
<circle cx="136" cy="24" r="1" fill="#473876"/>
<circle cx="144" cy="24" r="1" fill="#473876"/>
<circle cx="152" cy="24" r="1" fill="#473876"/>
<circle cx="160" cy="24" r="1" fill="#473876"/>
<circle cx="168" cy="24" r="1" fill="#473876"/>
<circle cx="176" cy="24" r="1" fill="#473876"/>
<circle cx="184" cy="24" r="1" fill="#473876"/>
<circle cx="192" cy="24" r="1" fill="#473876"/>
<circle cx="200" cy="24" r="1" fill="#473876"/>
<circle cx="208" cy="24" r="1" fill="#473876"/>
<circle cx="216" cy="24" r="1" fill="#473876"/>
<circle cx="224" cy="24" r="1" fill="#473876"/>
<circle cx="232" cy="24" r="1" fill="#473876"/>
<circle cx="240" cy="24" r="1" fill="#473876"/>
<circle cx="248" cy="24" r="1" fill="#473876"/>
<circle cx="256" cy="24" r="1" fill="#473876"/>
<circle cx="264" cy="24" r="1" fill="#473876"/>
<circle cx="272" cy="24" r="1" fill="#473876"/>
<circle cx="280" cy="24" r="1" fill="#473876"/>
<circle cx="8" cy="32" r="1" fill="#473876"/>
<circle cx="16" cy="32" r="1" fill="#473876"/>
<circle cx="24" cy="32" r="1" fill="#473876"/>
<circle cx="32" cy="32" r="1" fill="#473876"/>
<circle cx="40" cy="32" r="1" fill="#473876"/>
<circle cx="48" cy="32" r="1" fill="#473876"/>
<circle cx="56" cy="32" r="1" fill="#473876"/>
<circle cx="64" cy="32" r="1" fill="#473876"/>
<circle cx="72" cy="32" r="1" fill="#473876"/>
<circle cx="80" cy="32" r="1" fill="#473876"/>
<circle cx="88" cy="32" r="1" fill="#473876"/>
<circle cx="96" cy="32" r="1" fill="#473876"/>
<circle cx="104" cy="32" r="1" fill="#473876"/>
<circle cx="112" cy="32" r="1" fill="#473876"/>
<circle cx="120" cy="32" r="1" fill="#473876"/>
<circle cx="128" cy="32" r="1" fill="#473876"/>
<circle cx="136" cy="32" r="1" fill="#473876"/>
<circle cx="144" cy="32" r="1" fill="#473876"/>
<circle cx="152" cy="32" r="1" fill="#473876"/>
<circle cx="160" cy="32" r="1" fill="#473876"/>
<circle cx="168" cy="32" r="1" fill="#473876"/>
<circle cx="176" cy="32" r="1" fill="#473876"/>
<circle cx="184" cy="32" r="1" fill="#473876"/>
<circle cx="192" cy="32" r="1" fill="#473876"/>
<circle cx="200" cy="32" r="1" fill="#473876"/>
<circle cx="208" cy="32" r="1" fill="#473876"/>
<circle cx="216" cy="32" r="1" fill="#473876"/>
<circle cx="224" cy="32" r="1" fill="#473876"/>
<circle cx="232" cy="32" r="1" fill="#473876"/>
<circle cx="240" cy="32" r="1" fill="#473876"/>
<circle cx="248" cy="32" r="1" fill="#473876"/>
<circle cx="256" cy="32" r="1" fill="#473876"/>
<circle cx="264" cy="32" r="1" fill="#473876"/>
<circle cx="272" cy="32" r="1" fill="#473876"/>
<circle cx="280" cy="32" r="1" fill="#473876"/>
<circle cx="8" cy="40" r="1" fill="#473876"/>
<circle cx="16" cy="40" r="1" fill="#473876"/>
<circle cx="24" cy="40" r="1" fill="#473876"/>
<circle cx="32" cy="40" r="1" fill="#473876"/>
<circle cx="40" cy="40" r="1" fill="#473876"/>
<circle cx="48" cy="40" r="1" fill="#473876"/>
<circle cx="56" cy="40" r="1" fill="#473876"/>
<circle cx="64" cy="40" r="1" fill="#473876"/>
<circle cx="72" cy="40" r="1" fill="#473876"/>
<circle cx="80" cy="40" r="1" fill="#473876"/>
<circle cx="88" cy="40" r="1" fill="#473876"/>
<circle cx="96" cy="40" r="1" fill="#473876"/>
<circle cx="104" cy="40" r="1" fill="#473876"/>
<circle cx="112" cy="40" r="1" fill="#473876"/>
<circle cx="120" cy="40" r="1" fill="#473876"/>
<circle cx="128" cy="40" r="1" fill="#473876"/>
<circle cx="136" cy="40" r="1" fill="#473876"/>
<circle cx="144" cy="40" r="1" fill="#473876"/>
<circle cx="152" cy="40" r="1" fill="#473876"/>
<circle cx="160" cy="40" r="1" fill="#473876"/>
<circle cx="168" cy="40" r="1" fill="#473876"/>
<circle cx="176" cy="40" r="1" fill="#473876"/>
<circle cx="184" cy="40" r="1" fill="#473876"/>
<circle cx="192" cy="40" r="1" fill="#473876"/>
<circle cx="200" cy="40" r="1" fill="#473876"/>
<circle cx="208" cy="40" r="1" fill="#473876"/>
<circle cx="216" cy="40" r="1" fill="#473876"/>
<circle cx="224" cy="40" r="1" fill="#473876"/>
<circle cx="232" cy="40" r="1" fill="#473876"/>
<circle cx="240" cy="40" r="1" fill="#473876"/>
<circle cx="248" cy="40" r="1" fill="#473876"/>
<circle cx="256" cy="40" r="1" fill="#473876"/>
<circle cx="264" cy="40" r="1" fill="#473876"/>
<circle cx="272" cy="40" r="1" fill="#473876"/>
<circle cx="280" cy="40" r="1" fill="#473876"/>
<circle cx="8" cy="48" r="1" fill="#473876"/>
<circle cx="16" cy="48" r="1" fill="#473876"/>
<circle cx="24" cy="48" r="1" fill="#473876"/>
<circle cx="32" cy="48" r="1" fill="#473876"/>
<circle cx="40" cy="48" r="1" fill="#473876"/>
<circle cx="48" cy="48" r="1" fill="#473876"/>
<circle cx="56" cy="48" r="1" fill="#473876"/>
<circle cx="64" cy="48" r="1" fill="#473876"/>
<circle cx="72" cy="48" r="1" fill="#473876"/>
<circle cx="80" cy="48" r="1" fill="#473876"/>
<circle cx="88" cy="48" r="1" fill="#473876"/>
<circle cx="96" cy="48" r="1" fill="#473876"/>
<circle cx="104" cy="48" r="1" fill="#473876"/>
<circle cx="112" cy="48" r="1" fill="#473876"/>
<circle cx="120" cy="48" r="1" fill="#473876"/>
<circle cx="128" cy="48" r="1" fill="#473876"/>
<circle cx="136" cy="48" r="1" fill="#473876"/>
<circle cx="144" cy="48" r="1" fill="#473876"/>
<circle cx="152" cy="48" r="1" fill="#473876"/>
<circle cx="160" cy="48" r="1" fill="#473876"/>
<circle cx="168" cy="48" r="1" fill="#473876"/>
<circle cx="176" cy="48" r="1" fill="#473876"/>
<circle cx="184" cy="48" r="1" fill="#473876"/>
<circle cx="192" cy="48" r="1" fill="#473876"/>
<circle cx="200" cy="48" r="1" fill="#473876"/>
<circle cx="208" cy="48" r="1" fill="#473876"/>
<circle cx="216" cy="48" r="1" fill="#473876"/>
<circle cx="224" cy="48" r="1" fill="#473876"/>
<circle cx="232" cy="48" r="1" fill="#473876"/>
<circle cx="240" cy="48" r="1" fill="#473876"/>
<circle cx="248" cy="48" r="1" fill="#473876"/>
<circle cx="256" cy="48" r="1" fill="#473876"/>
<circle cx="264" cy="48" r="1" fill="#473876"/>
<circle cx="272" cy="48" r="1" fill="#473876"/>
<circle cx="280" cy="48" r="1" fill="#473876"/>
<circle cx="8" cy="56" r="1" fill="#473876"/>
<circle cx="16" cy="56" r="1" fill="#473876"/>
<circle cx="24" cy="56" r="1" fill="#473876"/>
<circle cx="32" cy="56" r="1" fill="#473876"/>
<circle cx="40" cy="56" r="1" fill="#473876"/>
<circle cx="48" cy="56" r="1" fill="#473876"/>
<circle cx="56" cy="56" r="1" fill="#473876"/>
<circle cx="64" cy="56" r="1" fill="#473876"/>
<circle cx="72" cy="56" r="1" fill="#473876"/>
<circle cx="80" cy="56" r="1" fill="#473876"/>
<circle cx="88" cy="56" r="1" fill="#473876"/>
<circle cx="96" cy="56" r="1" fill="#473876"/>
<circle cx="104" cy="56" r="1" fill="#473876"/>
<circle cx="112" cy="56" r="1" fill="#473876"/>
<circle cx="120" cy="56" r="1" fill="#473876"/>
<circle cx="128" cy="56" r="1" fill="#473876"/>
<circle cx="136" cy="56" r="1" fill="#473876"/>
<circle cx="144" cy="56" r="1" fill="#473876"/>
<circle cx="152" cy="56" r="1" fill="#473876"/>
<circle cx="160" cy="56" r="1" fill="#473876"/>
<circle cx="168" cy="56" r="1" fill="#473876"/>
<circle cx="176" cy="56" r="1" fill="#473876"/>
<circle cx="184" cy="56" r="1" fill="#473876"/>
<circle cx="192" cy="56" r="1" fill="#473876"/>
<circle cx="200" cy="56" r="1" fill="#473876"/>
<circle cx="208" cy="56" r="1" fill="#473876"/>
<circle cx="216" cy="56" r="1" fill="#473876"/>
<circle cx="224" cy="56" r="1" fill="#473876"/>
<circle cx="232" cy="56" r="1" fill="#473876"/>
<circle cx="240" cy="56" r="1" fill="#473876"/>
<circle cx="248" cy="56" r="1" fill="#473876"/>
<circle cx="256" cy="56" r="1" fill="#473876"/>
<circle cx="264" cy="56" r="1" fill="#473876"/>
<circle cx="272" cy="56" r="1" fill="#473876"/>
<circle cx="280" cy="56" r="1" fill="#473876"/>
<circle cx="8" cy="64" r="1" fill="#473876"/>
<circle cx="16" cy="64" r="1" fill="#473876"/>
<circle cx="24" cy="64" r="1" fill="#473876"/>
<circle cx="32" cy="64" r="1" fill="#473876"/>
<circle cx="40" cy="64" r="1" fill="#473876"/>
<circle cx="48" cy="64" r="1" fill="#473876"/>
<circle cx="56" cy="64" r="1" fill="#473876"/>
<circle cx="64" cy="64" r="1" fill="#473876"/>
<circle cx="72" cy="64" r="1" fill="#473876"/>
<circle cx="80" cy="64" r="1" fill="#473876"/>
<circle cx="88" cy="64" r="1" fill="#473876"/>
<circle cx="96" cy="64" r="1" fill="#473876"/>
<circle cx="104" cy="64" r="1" fill="#473876"/>
<circle cx="112" cy="64" r="1" fill="#473876"/>
<circle cx="120" cy="64" r="1" fill="#473876"/>
<circle cx="128" cy="64" r="1" fill="#473876"/>
<circle cx="136" cy="64" r="1" fill="#473876"/>
<circle cx="144" cy="64" r="1" fill="#473876"/>
<circle cx="152" cy="64" r="1" fill="#473876"/>
<circle cx="160" cy="64" r="1" fill="#473876"/>
<circle cx="168" cy="64" r="1" fill="#473876"/>
<circle cx="176" cy="64" r="1" fill="#473876"/>
<circle cx="184" cy="64" r="1" fill="#473876"/>
<circle cx="192" cy="64" r="1" fill="#473876"/>
<circle cx="200" cy="64" r="1" fill="#473876"/>
<circle cx="208" cy="64" r="1" fill="#473876"/>
<circle cx="216" cy="64" r="1" fill="#473876"/>
<circle cx="224" cy="64" r="1" fill="#473876"/>
<circle cx="232" cy="64" r="1" fill="#473876"/>
<circle cx="240" cy="64" r="1" fill="#473876"/>
<circle cx="248" cy="64" r="1" fill="#473876"/>
<circle cx="256" cy="64" r="1" fill="#473876"/>
<circle cx="264" cy="64" r="1" fill="#473876"/>
<circle cx="272" cy="64" r="1" fill="#473876"/>
<circle cx="280" cy="64" r="1" fill="#473876"/>
<circle cx="8" cy="72" r="1" fill="#473876"/>
<circle cx="16" cy="72" r="1" fill="#473876"/>
<circle cx="24" cy="72" r="1" fill="#473876"/>
<circle cx="32" cy="72" r="1" fill="#473876"/>
<circle cx="40" cy="72" r="1" fill="#473876"/>
<circle cx="48" cy="72" r="1" fill="#473876"/>
<circle cx="56" cy="72" r="1" fill="#473876"/>
<circle cx="64" cy="72" r="1" fill="#473876"/>
<circle cx="72" cy="72" r="1" fill="#473876"/>
<circle cx="80" cy="72" r="1" fill="#473876"/>
<circle cx="88" cy="72" r="1" fill="#473876"/>
<circle cx="96" cy="72" r="1" fill="#473876"/>
<circle cx="104" cy="72" r="1" fill="#473876"/>
<circle cx="112" cy="72" r="1" fill="#473876"/>
<circle cx="120" cy="72" r="1" fill="#473876"/>
<circle cx="128" cy="72" r="1" fill="#473876"/>
<circle cx="136" cy="72" r="1" fill="#473876"/>
<circle cx="144" cy="72" r="1" fill="#473876"/>
<circle cx="152" cy="72" r="1" fill="#473876"/>
<circle cx="160" cy="72" r="1" fill="#473876"/>
<circle cx="168" cy="72" r="1" fill="#473876"/>
<circle cx="176" cy="72" r="1" fill="#473876"/>
<circle cx="184" cy="72" r="1" fill="#473876"/>
<circle cx="192" cy="72" r="1" fill="#473876"/>
<circle cx="200" cy="72" r="1" fill="#473876"/>
<circle cx="208" cy="72" r="1" fill="#473876"/>
<circle cx="216" cy="72" r="1" fill="#473876"/>
<circle cx="224" cy="72" r="1" fill="#473876"/>
<circle cx="232" cy="72" r="1" fill="#473876"/>
<circle cx="240" cy="72" r="1" fill="#473876"/>
<circle cx="248" cy="72" r="1" fill="#473876"/>
<circle cx="256" cy="72" r="1" fill="#473876"/>
<circle cx="264" cy="72" r="1" fill="#473876"/>
<circle cx="272" cy="72" r="1" fill="#473876"/>
<circle cx="280" cy="72" r="1" fill="#473876"/>
<circle cx="8" cy="80" r="1" fill="#473876"/>
<circle cx="16" cy="80" r="1" fill="#473876"/>
<circle cx="24" cy="80" r="1" fill="#473876"/>
<circle cx="32" cy="80" r="1" fill="#473876"/>
<circle cx="40" cy="80" r="1" fill="#473876"/>
<circle cx="48" cy="80" r="1" fill="#473876"/>
<circle cx="56" cy="80" r="1" fill="#473876"/>
<circle cx="64" cy="80" r="1" fill="#473876"/>
<circle cx="72" cy="80" r="1" fill="#473876"/>
<circle cx="80" cy="80" r="1" fill="#473876"/>
<circle cx="88" cy="80" r="1" fill="#473876"/>
<circle cx="96" cy="80" r="1" fill="#473876"/>
<circle cx="104" cy="80" r="1" fill="#473876"/>
<circle cx="112" cy="80" r="1" fill="#473876"/>
<circle cx="120" cy="80" r="1" fill="#473876"/>
<circle cx="128" cy="80" r="1" fill="#473876"/>
<circle cx="136" cy="80" r="1" fill="#473876"/>
<circle cx="144" cy="80" r="1" fill="#473876"/>
<circle cx="152" cy="80" r="1" fill="#473876"/>
<circle cx="160" cy="80" r="1" fill="#473876"/>
<circle cx="168" cy="80" r="1" fill="#473876"/>
<circle cx="176" cy="80" r="1" fill="#473876"/>
<circle cx="184" cy="80" r="1" fill="#473876"/>
<circle cx="192" cy="80" r="1" fill="#473876"/>
<circle cx="200" cy="80" r="1" fill="#473876"/>
<circle cx="208" cy="80" r="1" fill="#473876"/>
<circle cx="216" cy="80" r="1" fill="#473876"/>
<circle cx="224" cy="80" r="1" fill="#473876"/>
<circle cx="232" cy="80" r="1" fill="#473876"/>
<circle cx="240" cy="80" r="1" fill="#473876"/>
<circle cx="248" cy="80" r="1" fill="#473876"/>
<circle cx="256" cy="80" r="1" fill="#473876"/>
<circle cx="264" cy="80" r="1" fill="#473876"/>
<circle cx="272" cy="80" r="1" fill="#473876"/>
<circle cx="280" cy="80" r="1" fill="#473876"/>
<circle cx="8" cy="88" r="1" fill="#473876"/>
<circle cx="16" cy="88" r="1" fill="#473876"/>
<circle cx="24" cy="88" r="1" fill="#473876"/>
<circle cx="32" cy="88" r="1" fill="#473876"/>
<circle cx="40" cy="88" r="1" fill="#473876"/>
<circle cx="48" cy="88" r="1" fill="#473876"/>
<circle cx="56" cy="88" r="1" fill="#473876"/>
<circle cx="64" cy="88" r="1" fill="#473876"/>
<circle cx="72" cy="88" r="1" fill="#473876"/>
<circle cx="80" cy="88" r="1" fill="#473876"/>
<circle cx="88" cy="88" r="1" fill="#473876"/>
<circle cx="96" cy="88" r="1" fill="#473876"/>
<circle cx="104" cy="88" r="1" fill="#473876"/>
<circle cx="112" cy="88" r="1" fill="#473876"/>
<circle cx="120" cy="88" r="1" fill="#473876"/>
<circle cx="128" cy="88" r="1" fill="#473876"/>
<circle cx="136" cy="88" r="1" fill="#473876"/>
<circle cx="144" cy="88" r="1" fill="#473876"/>
<circle cx="152" cy="88" r="1" fill="#473876"/>
<circle cx="160" cy="88" r="1" fill="#473876"/>
<circle cx="168" cy="88" r="1" fill="#473876"/>
<circle cx="176" cy="88" r="1" fill="#473876"/>
<circle cx="184" cy="88" r="1" fill="#473876"/>
<circle cx="192" cy="88" r="1" fill="#473876"/>
<circle cx="200" cy="88" r="1" fill="#473876"/>
<circle cx="208" cy="88" r="1" fill="#473876"/>
<circle cx="216" cy="88" r="1" fill="#473876"/>
<circle cx="224" cy="88" r="1" fill="#473876"/>
<circle cx="232" cy="88" r="1" fill="#473876"/>
<circle cx="240" cy="88" r="1" fill="#473876"/>
<circle cx="248" cy="88" r="1" fill="#473876"/>
<circle cx="256" cy="88" r="1" fill="#473876"/>
<circle cx="264" cy="88" r="1" fill="#473876"/>
<circle cx="272" cy="88" r="1" fill="#473876"/>
<circle cx="280" cy="88" r="1" fill="#473876"/>
<circle cx="8" cy="96" r="1" fill="#473876"/>
<circle cx="16" cy="96" r="1" fill="#473876"/>
<circle cx="24" cy="96" r="1" fill="#473876"/>
<circle cx="32" cy="96" r="1" fill="#473876"/>
<circle cx="40" cy="96" r="1" fill="#473876"/>
<circle cx="48" cy="96" r="1" fill="#473876"/>
<circle cx="56" cy="96" r="1" fill="#473876"/>
<circle cx="64" cy="96" r="1" fill="#473876"/>
<circle cx="72" cy="96" r="1" fill="#473876"/>
<circle cx="80" cy="96" r="1" fill="#473876"/>
<circle cx="88" cy="96" r="1" fill="#473876"/>
<circle cx="96" cy="96" r="1" fill="#473876"/>
<circle cx="104" cy="96" r="1" fill="#473876"/>
<circle cx="112" cy="96" r="1" fill="#473876"/>
<circle cx="120" cy="96" r="1" fill="#473876"/>
<circle cx="128" cy="96" r="1" fill="#473876"/>
<circle cx="136" cy="96" r="1" fill="#473876"/>
<circle cx="144" cy="96" r="1" fill="#473876"/>
<circle cx="152" cy="96" r="1" fill="#473876"/>
<circle cx="160" cy="96" r="1" fill="#473876"/>
<circle cx="168" cy="96" r="1" fill="#473876"/>
<circle cx="176" cy="96" r="1" fill="#473876"/>
<circle cx="184" cy="96" r="1" fill="#473876"/>
<circle cx="192" cy="96" r="1" fill="#473876"/>
<circle cx="200" cy="96" r="1" fill="#473876"/>
<circle cx="208" cy="96" r="1" fill="#473876"/>
<circle cx="216" cy="96" r="1" fill="#473876"/>
<circle cx="224" cy="96" r="1" fill="#473876"/>
<circle cx="232" cy="96" r="1" fill="#473876"/>
<circle cx="240" cy="96" r="1" fill="#473876"/>
<circle cx="248" cy="96" r="1" fill="#473876"/>
<circle cx="256" cy="96" r="1" fill="#473876"/>
<circle cx="264" cy="96" r="1" fill="#473876"/>
<circle cx="272" cy="96" r="1" fill="#473876"/>
<circle cx="280" cy="96" r="1" fill="#473876"/>
<circle cx="8" cy="104" r="1" fill="#473876"/>
<circle cx="16" cy="104" r="1" fill="#473876"/>
<circle cx="24" cy="104" r="1" fill="#473876"/>
<circle cx="32" cy="104" r="1" fill="#473876"/>
<circle cx="40" cy="104" r="1" fill="#473876"/>
<circle cx="48" cy="104" r="1" fill="#473876"/>
<circle cx="56" cy="104" r="1" fill="#473876"/>
<circle cx="64" cy="104" r="1" fill="#473876"/>
<circle cx="72" cy="104" r="1" fill="#473876"/>
<circle cx="80" cy="104" r="1" fill="#473876"/>
<circle cx="88" cy="104" r="1" fill="#473876"/>
<circle cx="96" cy="104" r="1" fill="#473876"/>
<circle cx="104" cy="104" r="1" fill="#473876"/>
<circle cx="112" cy="104" r="1" fill="#473876"/>
<circle cx="120" cy="104" r="1" fill="#473876"/>
<circle cx="128" cy="104" r="1" fill="#473876"/>
<circle cx="136" cy="104" r="1" fill="#473876"/>
<circle cx="144" cy="104" r="1" fill="#473876"/>
<circle cx="152" cy="104" r="1" fill="#473876"/>
<circle cx="160" cy="104" r="1" fill="#473876"/>
<circle cx="168" cy="104" r="1" fill="#473876"/>
<circle cx="176" cy="104" r="1" fill="#473876"/>
<circle cx="184" cy="104" r="1" fill="#473876"/>
<circle cx="192" cy="104" r="1" fill="#473876"/>
<circle cx="200" cy="104" r="1" fill="#473876"/>
<circle cx="208" cy="104" r="1" fill="#473876"/>
<circle cx="216" cy="104" r="1" fill="#473876"/>
<circle cx="224" cy="104" r="1" fill="#473876"/>
<circle cx="232" cy="104" r="1" fill="#473876"/>
<circle cx="240" cy="104" r="1" fill="#473876"/>
<circle cx="248" cy="104" r="1" fill="#473876"/>
<circle cx="256" cy="104" r="1" fill="#473876"/>
<circle cx="264" cy="104" r="1" fill="#473876"/>
<circle cx="272" cy="104" r="1" fill="#473876"/>
<circle cx="280" cy="104" r="1" fill="#473876"/>
<circle cx="8" cy="112" r="1" fill="#473876"/>
<circle cx="16" cy="112" r="1" fill="#473876"/>
<circle cx="24" cy="112" r="1" fill="#473876"/>
<circle cx="32" cy="112" r="1" fill="#473876"/>
<circle cx="40" cy="112" r="1" fill="#473876"/>
<circle cx="48" cy="112" r="1" fill="#473876"/>
<circle cx="56" cy="112" r="1" fill="#473876"/>
<circle cx="64" cy="112" r="1" fill="#473876"/>
<circle cx="72" cy="112" r="1" fill="#473876"/>
<circle cx="80" cy="112" r="1" fill="#473876"/>
<circle cx="88" cy="112" r="1" fill="#473876"/>
<circle cx="96" cy="112" r="1" fill="#473876"/>
<circle cx="104" cy="112" r="1" fill="#473876"/>
<circle cx="112" cy="112" r="1" fill="#473876"/>
<circle cx="120" cy="112" r="1" fill="#473876"/>
<circle cx="128" cy="112" r="1" fill="#473876"/>
<circle cx="136" cy="112" r="1" fill="#473876"/>
<circle cx="144" cy="112" r="1" fill="#473876"/>
<circle cx="152" cy="112" r="1" fill="#473876"/>
<circle cx="160" cy="112" r="1" fill="#473876"/>
<circle cx="168" cy="112" r="1" fill="#473876"/>
<circle cx="176" cy="112" r="1" fill="#473876"/>
<circle cx="184" cy="112" r="1" fill="#473876"/>
<circle cx="192" cy="112" r="1" fill="#473876"/>
<circle cx="200" cy="112" r="1" fill="#473876"/>
<circle cx="208" cy="112" r="1" fill="#473876"/>
<circle cx="216" cy="112" r="1" fill="#473876"/>
<circle cx="224" cy="112" r="1" fill="#473876"/>
<circle cx="232" cy="112" r="1" fill="#473876"/>
<circle cx="240" cy="112" r="1" fill="#473876"/>
<circle cx="248" cy="112" r="1" fill="#473876"/>
<circle cx="256" cy="112" r="1" fill="#473876"/>
<circle cx="264" cy="112" r="1" fill="#473876"/>
<circle cx="272" cy="112" r="1" fill="#473876"/>
<circle cx="280" cy="112" r="1" fill="#473876"/>
<circle cx="120" cy="120" r="1" fill="#473876"/>
<circle cx="128" cy="120" r="1" fill="#473876"/>
<circle cx="136" cy="120" r="1" fill="#473876"/>
<circle cx="144" cy="120" r="1" fill="#473876"/>
<circle cx="152" cy="120" r="1" fill="#473876"/>
<circle cx="160" cy="120" r="1" fill="#473876"/>
<circle cx="168" cy="120" r="1" fill="#473876"/>
<rect width="288" height="120" fill="url(#paint0_radial_302_6503)"/>
<g clip-path="url(#clip1_302_6503)">
<path d="M145.754 28.3399C145.567 27.0868 146.432 25.9199 147.685 25.7336C148.938 25.5473 150.105 26.4121 150.291 27.6651L151.071 32.9088C151.258 34.1619 150.393 35.3288 149.14 35.5151C147.887 35.7014 146.72 34.8366 146.533 33.5836L145.754 28.3399Z" fill="#E2DDFE"/>
<path d="M153.014 27.2603C152.827 26.0072 153.692 24.8403 154.945 24.654C156.198 24.4677 157.365 25.3325 157.552 26.5856L158.331 31.8292C158.518 33.0823 157.653 34.2492 156.4 34.4355C155.147 34.6218 153.98 33.757 153.794 32.504L153.014 27.2603Z" fill="#E2DDFE"/>
<path fill-rule="evenodd" clip-rule="evenodd" d="M169.368 16.1471C160.741 16.2113 153.847 17.1884 145.391 19.7068C143.254 20.3434 141.841 20.769 140.787 21.2548C139.81 21.7052 139.282 22.1476 138.881 22.756C138.051 24.016 138.107 25.2932 138.624 29.6998C139.132 34.0305 139.97 37.8548 141.117 42.1275C141.727 44.4044 142.143 45.9404 142.613 47.0854C143.058 48.1715 143.484 48.7277 144.02 49.1224C144.56 49.5202 145.212 49.7604 146.359 49.8635C147.571 49.9726 149.133 49.9154 151.453 49.825C158.955 49.5328 164.481 48.707 171.773 46.8079C174.047 46.2158 175.582 45.8123 176.728 45.3544C177.818 44.9194 178.376 44.5015 178.772 43.9781C179.16 43.4658 179.416 42.8005 179.541 41.5722C179.672 40.2906 179.643 38.6249 179.595 36.1786C179.51 31.8139 179.348 27.9937 178.751 23.8711C178.112 19.4634 177.836 18.2234 176.657 17.2104C176.087 16.7212 175.441 16.4398 174.351 16.2877C173.173 16.1234 171.657 16.13 169.368 16.1471ZM144.315 16.0917C153.123 13.4682 160.371 12.4419 169.34 12.3751L169.471 12.3741C171.594 12.3582 173.388 12.3448 174.872 12.5517C176.473 12.7751 177.858 13.2698 179.115 14.3492C181.485 16.3853 181.884 19.16 182.414 22.8464C182.437 23.006 182.46 23.1673 182.484 23.3303C183.115 27.6892 183.28 31.6966 183.366 36.1051L183.369 36.2217C183.413 38.5223 183.45 40.4181 183.294 41.9543C183.129 43.5697 182.736 44.9923 181.779 46.2558C180.83 47.5082 179.602 48.2684 178.128 48.8574C176.735 49.4136 174.968 49.8738 172.838 50.4284L172.724 50.4582C165.173 52.4248 159.377 53.2913 151.599 53.5943L151.479 53.599C149.31 53.6835 147.504 53.7539 146.021 53.6204C144.443 53.4785 143.054 53.0958 141.783 52.1595C140.507 51.22 139.729 49.9941 139.123 48.5165C138.551 47.1228 138.076 45.3524 137.504 43.2205L137.473 43.1051C136.298 38.7231 135.413 34.7097 134.877 30.139C134.858 29.9732 134.839 29.8092 134.819 29.647C134.385 25.9745 134.059 23.2197 135.731 20.6816C136.617 19.3349 137.776 18.489 139.208 17.8292C140.535 17.2172 142.21 16.7184 144.192 16.1281C144.233 16.116 144.274 16.1038 144.315 16.0917Z" fill="#E2DDFE"/>
<path d="M143.691 33.8082L135.73 35.087C133.532 35.4401 132.036 37.5084 132.389 39.7066L133.029 43.6868C133.382 45.885 135.45 47.3808 137.648 47.0276L145.609 45.7488C147.807 45.3957 149.303 43.3274 148.95 41.1292L148.31 37.149C147.957 34.9508 145.889 33.4551 143.691 33.8082Z" stroke="#C171FF" stroke-width="2.7" stroke-linecap="round" stroke-linejoin="round"/>
<path d="M156.59 37.8603C156.42 36.8047 155.836 35.8601 154.965 35.2343C154.094 34.6085 153.008 34.3528 151.945 34.5235C150.883 34.6941 149.932 35.2771 149.301 36.1442C148.669 37.0113 148.41 38.0915 148.58 39.1471" stroke="#C171FF" stroke-width="2.7" stroke-linecap="round" stroke-linejoin="round"/>
<path d="M167.572 29.9718L159.612 31.2506C157.413 31.6037 155.918 33.672 156.271 35.8702L156.91 39.8505C157.263 42.0487 159.332 43.5444 161.53 43.1913L169.49 41.9125C171.688 41.5594 173.184 39.4911 172.831 37.2929L172.192 33.3126C171.838 31.1144 169.77 29.6187 167.572 29.9718Z" stroke="#C171FF" stroke-width="2.7" stroke-linecap="round" stroke-linejoin="round"/>
<path d="M116.063 -31.25L228.562 -4.81252L139.688 83.4994L120 77.3125L116.063 -31.25Z" fill="url(#paint1_linear_302_6503)" fill-opacity="0.3"/>
<path d="M130.528 97.3219L132.088 97.8457L132.297 96.2142L135.727 69.5206C135.953 67.7661 134.969 66.0796 133.331 65.412L117.713 59.0473C116.117 58.397 114.338 59.4345 114.119 61.1436L110.616 88.4035C110.456 89.6456 111.196 90.8275 112.384 91.2264L130.528 97.3219Z" fill="#3B334A" stroke="#C9C7DD" stroke-width="2.7"/>
<path d="M134.704 97.5692L133.063 97.6819L133.272 96.0504L136.702 69.3568C136.928 67.6023 138.306 66.2192 140.06 65.9874L156.779 63.7778C158.488 63.552 159.946 65.0056 159.727 66.7147L156.224 93.9745C156.065 95.2167 155.05 96.1731 153.8 96.2588L134.704 97.5692Z" fill="#3B334A" stroke="#C9C7DD" stroke-width="2.7"/>
<path d="M126.944 101.812L128.503 102.335L128.713 100.704L132.268 73.0373C132.419 71.8564 131.757 70.7212 130.655 70.2719L114.128 63.5369C112.532 62.8866 110.754 63.9242 110.534 65.6333L107.031 92.8931C106.872 94.1353 107.612 95.3172 108.799 95.716L126.944 101.812Z" fill="#3B334A" stroke="#C9C7DD" stroke-width="2.7"/>
<path d="M137.285 103.14L135.644 103.253L135.854 101.621L139.409 73.9548C139.56 72.7739 140.488 71.843 141.668 71.687L159.361 69.3488C161.069 69.123 162.528 70.5766 162.308 72.2857L158.805 99.5456C158.646 100.788 157.631 101.744 156.382 101.83L137.285 103.14Z" fill="#3B334A" stroke="#C9C7DD" stroke-width="2.7"/>
<path d="M132.461 72.0354L131.122 71.8633L130.95 73.2023L127.433 100.577C127.248 102.015 128.264 103.331 129.702 103.515L134.186 104.092C135.624 104.276 136.94 103.26 137.124 101.823L140.642 74.4476L140.814 73.1086L139.475 72.9366L132.461 72.0354Z" fill="#3B334A" stroke="#C9C7DD" stroke-width="2.7"/>
</g>
</g>
<defs>
<radialGradient id="paint0_radial_302_6503" cx="0" cy="0" r="1" gradientUnits="userSpaceOnUse" gradientTransform="translate(144.5 67) rotate(90.5405) scale(53.0024 127.206)">
<stop stop-color="#2E3035" stop-opacity="0.95"/>
<stop offset="0.566518" stop-color="#2E3035" stop-opacity="0"/>
<stop offset="1" stop-color="#2E3035" stop-opacity="0.7"/>
</radialGradient>
<linearGradient id="paint1_linear_302_6503" x1="125.625" y1="78.4375" x2="199.875" y2="-3.12505" gradientUnits="userSpaceOnUse">
<stop stop-color="#CC8AFF" stop-opacity="0.9"/>
<stop offset="1" stop-color="#CC8AFF" stop-opacity="0.1"/>
</linearGradient>
<clipPath id="clip0_302_6503">
<rect width="288" height="120" rx="8" fill="white"/>
</clipPath>
<clipPath id="clip1_302_6503">
<rect x="84" y="-2" width="135" height="117" rx="9" fill="white"/>
</clipPath>
</defs>
</svg>
