<svg width="288" height="120" viewBox="0 0 288 120" fill="none" xmlns="http://www.w3.org/2000/svg">
<g clip-path="url(#clip0_162_8881)">
<rect width="288" height="120" rx="8" fill="#2E3035"/>
<circle cx="8" r="1" fill="#123D75"/>
<circle cx="16" r="1" fill="#123D75"/>
<circle cx="24" r="1" fill="#123D75"/>
<circle cx="32" r="1" fill="#123D75"/>
<circle cx="40" r="1" fill="#123D75"/>
<circle cx="48" r="1" fill="#123D75"/>
<circle cx="56" r="1" fill="#123D75"/>
<circle cx="64" r="1" fill="#123D75"/>
<circle cx="72" r="1" fill="#123D75"/>
<circle cx="80" r="1" fill="#123D75"/>
<circle cx="88" r="1" fill="#123D75"/>
<circle cx="96" r="1" fill="#123D75"/>
<circle cx="104" r="1" fill="#123D75"/>
<circle cx="112" r="1" fill="#123D75"/>
<circle cx="120" r="1" fill="#123D75"/>
<circle cx="128" r="1" fill="#123D75"/>
<circle cx="136" r="1" fill="#123D75"/>
<circle cx="144" r="1" fill="#123D75"/>
<circle cx="152" r="1" fill="#123D75"/>
<circle cx="160" r="1" fill="#123D75"/>
<circle cx="168" r="1" fill="#123D75"/>
<circle cx="176" r="1" fill="#123D75"/>
<circle cx="184" r="1" fill="#123D75"/>
<circle cx="192" r="1" fill="#123D75"/>
<circle cx="200" r="1" fill="#123D75"/>
<circle cx="208" r="1" fill="#123D75"/>
<circle cx="216" r="1" fill="#123D75"/>
<circle cx="224" r="1" fill="#123D75"/>
<circle cx="232" r="1" fill="#123D75"/>
<circle cx="240" r="1" fill="#123D75"/>
<circle cx="248" r="1" fill="#123D75"/>
<circle cx="256" r="1" fill="#123D75"/>
<circle cx="264" r="1" fill="#123D75"/>
<circle cx="272" r="1" fill="#123D75"/>
<circle cx="280" r="1" fill="#123D75"/>
<circle cx="8" cy="8" r="1" fill="#123D75"/>
<circle cx="16" cy="8" r="1" fill="#123D75"/>
<circle cx="24" cy="8" r="1" fill="#123D75"/>
<circle cx="32" cy="8" r="1" fill="#123D75"/>
<circle cx="40" cy="8" r="1" fill="#123D75"/>
<circle cx="48" cy="8" r="1" fill="#123D75"/>
<circle cx="56" cy="8" r="1" fill="#123D75"/>
<circle cx="64" cy="8" r="1" fill="#123D75"/>
<circle cx="72" cy="8" r="1" fill="#123D75"/>
<circle cx="80" cy="8" r="1" fill="#123D75"/>
<circle cx="88" cy="8" r="1" fill="#123D75"/>
<circle cx="96" cy="8" r="1" fill="#123D75"/>
<circle cx="104" cy="8" r="1" fill="#123D75"/>
<circle cx="112" cy="8" r="1" fill="#123D75"/>
<circle cx="120" cy="8" r="1" fill="#123D75"/>
<circle cx="128" cy="8" r="1" fill="#123D75"/>
<circle cx="136" cy="8" r="1" fill="#123D75"/>
<circle cx="144" cy="8" r="1" fill="#123D75"/>
<circle cx="152" cy="8" r="1" fill="#123D75"/>
<circle cx="160" cy="8" r="1" fill="#123D75"/>
<circle cx="168" cy="8" r="1" fill="#123D75"/>
<circle cx="176" cy="8" r="1" fill="#123D75"/>
<circle cx="184" cy="8" r="1" fill="#123D75"/>
<circle cx="192" cy="8" r="1" fill="#123D75"/>
<circle cx="200" cy="8" r="1" fill="#123D75"/>
<circle cx="208" cy="8" r="1" fill="#123D75"/>
<circle cx="216" cy="8" r="1" fill="#123D75"/>
<circle cx="224" cy="8" r="1" fill="#123D75"/>
<circle cx="232" cy="8" r="1" fill="#123D75"/>
<circle cx="240" cy="8" r="1" fill="#123D75"/>
<circle cx="248" cy="8" r="1" fill="#123D75"/>
<circle cx="256" cy="8" r="1" fill="#123D75"/>
<circle cx="264" cy="8" r="1" fill="#123D75"/>
<circle cx="272" cy="8" r="1" fill="#123D75"/>
<circle cx="280" cy="8" r="1" fill="#123D75"/>
<circle cx="8" cy="16" r="1" fill="#123D75"/>
<circle cx="16" cy="16" r="1" fill="#123D75"/>
<circle cx="24" cy="16" r="1" fill="#123D75"/>
<circle cx="32" cy="16" r="1" fill="#123D75"/>
<circle cx="40" cy="16" r="1" fill="#123D75"/>
<circle cx="48" cy="16" r="1" fill="#123D75"/>
<circle cx="56" cy="16" r="1" fill="#123D75"/>
<circle cx="64" cy="16" r="1" fill="#123D75"/>
<circle cx="72" cy="16" r="1" fill="#123D75"/>
<circle cx="80" cy="16" r="1" fill="#123D75"/>
<circle cx="88" cy="16" r="1" fill="#123D75"/>
<circle cx="96" cy="16" r="1" fill="#123D75"/>
<circle cx="104" cy="16" r="1" fill="#123D75"/>
<circle cx="112" cy="16" r="1" fill="#123D75"/>
<circle cx="120" cy="16" r="1" fill="#123D75"/>
<circle cx="128" cy="16" r="1" fill="#123D75"/>
<circle cx="136" cy="16" r="1" fill="#123D75"/>
<circle cx="144" cy="16" r="1" fill="#123D75"/>
<circle cx="152" cy="16" r="1" fill="#123D75"/>
<circle cx="160" cy="16" r="1" fill="#123D75"/>
<circle cx="168" cy="16" r="1" fill="#123D75"/>
<circle cx="176" cy="16" r="1" fill="#123D75"/>
<circle cx="184" cy="16" r="1" fill="#123D75"/>
<circle cx="192" cy="16" r="1" fill="#123D75"/>
<circle cx="200" cy="16" r="1" fill="#123D75"/>
<circle cx="208" cy="16" r="1" fill="#123D75"/>
<circle cx="216" cy="16" r="1" fill="#123D75"/>
<circle cx="224" cy="16" r="1" fill="#123D75"/>
<circle cx="232" cy="16" r="1" fill="#123D75"/>
<circle cx="240" cy="16" r="1" fill="#123D75"/>
<circle cx="248" cy="16" r="1" fill="#123D75"/>
<circle cx="256" cy="16" r="1" fill="#123D75"/>
<circle cx="264" cy="16" r="1" fill="#123D75"/>
<circle cx="272" cy="16" r="1" fill="#123D75"/>
<circle cx="280" cy="16" r="1" fill="#123D75"/>
<circle cx="8" cy="24" r="1" fill="#123D75"/>
<circle cx="16" cy="24" r="1" fill="#123D75"/>
<circle cx="24" cy="24" r="1" fill="#123D75"/>
<circle cx="32" cy="24" r="1" fill="#123D75"/>
<circle cx="40" cy="24" r="1" fill="#123D75"/>
<circle cx="48" cy="24" r="1" fill="#123D75"/>
<circle cx="56" cy="24" r="1" fill="#123D75"/>
<circle cx="64" cy="24" r="1" fill="#123D75"/>
<circle cx="72" cy="24" r="1" fill="#123D75"/>
<circle cx="80" cy="24" r="1" fill="#123D75"/>
<circle cx="88" cy="24" r="1" fill="#123D75"/>
<circle cx="96" cy="24" r="1" fill="#123D75"/>
<circle cx="104" cy="24" r="1" fill="#123D75"/>
<circle cx="112" cy="24" r="1" fill="#123D75"/>
<circle cx="120" cy="24" r="1" fill="#123D75"/>
<circle cx="128" cy="24" r="1" fill="#123D75"/>
<circle cx="136" cy="24" r="1" fill="#123D75"/>
<circle cx="144" cy="24" r="1" fill="#123D75"/>
<circle cx="152" cy="24" r="1" fill="#123D75"/>
<circle cx="160" cy="24" r="1" fill="#123D75"/>
<circle cx="168" cy="24" r="1" fill="#123D75"/>
<circle cx="176" cy="24" r="1" fill="#123D75"/>
<circle cx="184" cy="24" r="1" fill="#123D75"/>
<circle cx="192" cy="24" r="1" fill="#123D75"/>
<circle cx="200" cy="24" r="1" fill="#123D75"/>
<circle cx="208" cy="24" r="1" fill="#123D75"/>
<circle cx="216" cy="24" r="1" fill="#123D75"/>
<circle cx="224" cy="24" r="1" fill="#123D75"/>
<circle cx="232" cy="24" r="1" fill="#123D75"/>
<circle cx="240" cy="24" r="1" fill="#123D75"/>
<circle cx="248" cy="24" r="1" fill="#123D75"/>
<circle cx="256" cy="24" r="1" fill="#123D75"/>
<circle cx="264" cy="24" r="1" fill="#123D75"/>
<circle cx="272" cy="24" r="1" fill="#123D75"/>
<circle cx="280" cy="24" r="1" fill="#123D75"/>
<circle cx="8" cy="32" r="1" fill="#123D75"/>
<circle cx="16" cy="32" r="1" fill="#123D75"/>
<circle cx="24" cy="32" r="1" fill="#123D75"/>
<circle cx="32" cy="32" r="1" fill="#123D75"/>
<circle cx="40" cy="32" r="1" fill="#123D75"/>
<circle cx="48" cy="32" r="1" fill="#123D75"/>
<circle cx="56" cy="32" r="1" fill="#123D75"/>
<circle cx="64" cy="32" r="1" fill="#123D75"/>
<circle cx="72" cy="32" r="1" fill="#123D75"/>
<circle cx="80" cy="32" r="1" fill="#123D75"/>
<circle cx="88" cy="32" r="1" fill="#123D75"/>
<circle cx="96" cy="32" r="1" fill="#123D75"/>
<circle cx="104" cy="32" r="1" fill="#123D75"/>
<circle cx="112" cy="32" r="1" fill="#123D75"/>
<circle cx="120" cy="32" r="1" fill="#123D75"/>
<circle cx="128" cy="32" r="1" fill="#123D75"/>
<circle cx="136" cy="32" r="1" fill="#123D75"/>
<circle cx="144" cy="32" r="1" fill="#123D75"/>
<circle cx="152" cy="32" r="1" fill="#123D75"/>
<circle cx="160" cy="32" r="1" fill="#123D75"/>
<circle cx="168" cy="32" r="1" fill="#123D75"/>
<circle cx="176" cy="32" r="1" fill="#123D75"/>
<circle cx="184" cy="32" r="1" fill="#123D75"/>
<circle cx="192" cy="32" r="1" fill="#123D75"/>
<circle cx="200" cy="32" r="1" fill="#123D75"/>
<circle cx="208" cy="32" r="1" fill="#123D75"/>
<circle cx="216" cy="32" r="1" fill="#123D75"/>
<circle cx="224" cy="32" r="1" fill="#123D75"/>
<circle cx="232" cy="32" r="1" fill="#123D75"/>
<circle cx="240" cy="32" r="1" fill="#123D75"/>
<circle cx="248" cy="32" r="1" fill="#123D75"/>
<circle cx="256" cy="32" r="1" fill="#123D75"/>
<circle cx="264" cy="32" r="1" fill="#123D75"/>
<circle cx="272" cy="32" r="1" fill="#123D75"/>
<circle cx="280" cy="32" r="1" fill="#123D75"/>
<circle cx="8" cy="40" r="1" fill="#123D75"/>
<circle cx="16" cy="40" r="1" fill="#123D75"/>
<circle cx="24" cy="40" r="1" fill="#123D75"/>
<circle cx="32" cy="40" r="1" fill="#123D75"/>
<circle cx="40" cy="40" r="1" fill="#123D75"/>
<circle cx="48" cy="40" r="1" fill="#123D75"/>
<circle cx="56" cy="40" r="1" fill="#123D75"/>
<circle cx="64" cy="40" r="1" fill="#123D75"/>
<circle cx="72" cy="40" r="1" fill="#123D75"/>
<circle cx="80" cy="40" r="1" fill="#123D75"/>
<circle cx="88" cy="40" r="1" fill="#123D75"/>
<circle cx="96" cy="40" r="1" fill="#123D75"/>
<circle cx="104" cy="40" r="1" fill="#123D75"/>
<circle cx="112" cy="40" r="1" fill="#123D75"/>
<circle cx="120" cy="40" r="1" fill="#123D75"/>
<circle cx="128" cy="40" r="1" fill="#123D75"/>
<circle cx="136" cy="40" r="1" fill="#123D75"/>
<circle cx="144" cy="40" r="1" fill="#123D75"/>
<circle cx="152" cy="40" r="1" fill="#123D75"/>
<circle cx="160" cy="40" r="1" fill="#123D75"/>
<circle cx="168" cy="40" r="1" fill="#123D75"/>
<circle cx="176" cy="40" r="1" fill="#123D75"/>
<circle cx="184" cy="40" r="1" fill="#123D75"/>
<circle cx="192" cy="40" r="1" fill="#123D75"/>
<circle cx="200" cy="40" r="1" fill="#123D75"/>
<circle cx="208" cy="40" r="1" fill="#123D75"/>
<circle cx="216" cy="40" r="1" fill="#123D75"/>
<circle cx="224" cy="40" r="1" fill="#123D75"/>
<circle cx="232" cy="40" r="1" fill="#123D75"/>
<circle cx="240" cy="40" r="1" fill="#123D75"/>
<circle cx="248" cy="40" r="1" fill="#123D75"/>
<circle cx="256" cy="40" r="1" fill="#123D75"/>
<circle cx="264" cy="40" r="1" fill="#123D75"/>
<circle cx="272" cy="40" r="1" fill="#123D75"/>
<circle cx="280" cy="40" r="1" fill="#123D75"/>
<circle cx="8" cy="48" r="1" fill="#123D75"/>
<circle cx="16" cy="48" r="1" fill="#123D75"/>
<circle cx="24" cy="48" r="1" fill="#123D75"/>
<circle cx="32" cy="48" r="1" fill="#123D75"/>
<circle cx="40" cy="48" r="1" fill="#123D75"/>
<circle cx="48" cy="48" r="1" fill="#123D75"/>
<circle cx="56" cy="48" r="1" fill="#123D75"/>
<circle cx="64" cy="48" r="1" fill="#123D75"/>
<circle cx="72" cy="48" r="1" fill="#123D75"/>
<circle cx="80" cy="48" r="1" fill="#123D75"/>
<circle cx="88" cy="48" r="1" fill="#123D75"/>
<circle cx="96" cy="48" r="1" fill="#123D75"/>
<circle cx="104" cy="48" r="1" fill="#123D75"/>
<circle cx="112" cy="48" r="1" fill="#123D75"/>
<circle cx="120" cy="48" r="1" fill="#123D75"/>
<circle cx="128" cy="48" r="1" fill="#123D75"/>
<circle cx="136" cy="48" r="1" fill="#123D75"/>
<circle cx="144" cy="48" r="1" fill="#123D75"/>
<circle cx="152" cy="48" r="1" fill="#123D75"/>
<circle cx="160" cy="48" r="1" fill="#123D75"/>
<circle cx="168" cy="48" r="1" fill="#123D75"/>
<circle cx="176" cy="48" r="1" fill="#123D75"/>
<circle cx="184" cy="48" r="1" fill="#123D75"/>
<circle cx="192" cy="48" r="1" fill="#123D75"/>
<circle cx="200" cy="48" r="1" fill="#123D75"/>
<circle cx="208" cy="48" r="1" fill="#123D75"/>
<circle cx="216" cy="48" r="1" fill="#123D75"/>
<circle cx="224" cy="48" r="1" fill="#123D75"/>
<circle cx="232" cy="48" r="1" fill="#123D75"/>
<circle cx="240" cy="48" r="1" fill="#123D75"/>
<circle cx="248" cy="48" r="1" fill="#123D75"/>
<circle cx="256" cy="48" r="1" fill="#123D75"/>
<circle cx="264" cy="48" r="1" fill="#123D75"/>
<circle cx="272" cy="48" r="1" fill="#123D75"/>
<circle cx="280" cy="48" r="1" fill="#123D75"/>
<circle cx="8" cy="56" r="1" fill="#123D75"/>
<circle cx="16" cy="56" r="1" fill="#123D75"/>
<circle cx="24" cy="56" r="1" fill="#123D75"/>
<circle cx="32" cy="56" r="1" fill="#123D75"/>
<circle cx="40" cy="56" r="1" fill="#123D75"/>
<circle cx="48" cy="56" r="1" fill="#123D75"/>
<circle cx="56" cy="56" r="1" fill="#123D75"/>
<circle cx="64" cy="56" r="1" fill="#123D75"/>
<circle cx="72" cy="56" r="1" fill="#123D75"/>
<circle cx="80" cy="56" r="1" fill="#123D75"/>
<circle cx="88" cy="56" r="1" fill="#123D75"/>
<circle cx="96" cy="56" r="1" fill="#123D75"/>
<circle cx="104" cy="56" r="1" fill="#123D75"/>
<circle cx="112" cy="56" r="1" fill="#123D75"/>
<circle cx="120" cy="56" r="1" fill="#123D75"/>
<circle cx="128" cy="56" r="1" fill="#123D75"/>
<circle cx="136" cy="56" r="1" fill="#123D75"/>
<circle cx="144" cy="56" r="1" fill="#123D75"/>
<circle cx="152" cy="56" r="1" fill="#123D75"/>
<circle cx="160" cy="56" r="1" fill="#123D75"/>
<circle cx="168" cy="56" r="1" fill="#123D75"/>
<circle cx="176" cy="56" r="1" fill="#123D75"/>
<circle cx="184" cy="56" r="1" fill="#123D75"/>
<circle cx="192" cy="56" r="1" fill="#123D75"/>
<circle cx="200" cy="56" r="1" fill="#123D75"/>
<circle cx="208" cy="56" r="1" fill="#123D75"/>
<circle cx="216" cy="56" r="1" fill="#123D75"/>
<circle cx="224" cy="56" r="1" fill="#123D75"/>
<circle cx="232" cy="56" r="1" fill="#123D75"/>
<circle cx="240" cy="56" r="1" fill="#123D75"/>
<circle cx="248" cy="56" r="1" fill="#123D75"/>
<circle cx="256" cy="56" r="1" fill="#123D75"/>
<circle cx="264" cy="56" r="1" fill="#123D75"/>
<circle cx="272" cy="56" r="1" fill="#123D75"/>
<circle cx="280" cy="56" r="1" fill="#123D75"/>
<circle cx="8" cy="64" r="1" fill="#123D75"/>
<circle cx="16" cy="64" r="1" fill="#123D75"/>
<circle cx="24" cy="64" r="1" fill="#123D75"/>
<circle cx="32" cy="64" r="1" fill="#123D75"/>
<circle cx="40" cy="64" r="1" fill="#123D75"/>
<circle cx="48" cy="64" r="1" fill="#123D75"/>
<circle cx="56" cy="64" r="1" fill="#123D75"/>
<circle cx="64" cy="64" r="1" fill="#123D75"/>
<circle cx="72" cy="64" r="1" fill="#123D75"/>
<circle cx="80" cy="64" r="1" fill="#123D75"/>
<circle cx="88" cy="64" r="1" fill="#123D75"/>
<circle cx="96" cy="64" r="1" fill="#123D75"/>
<circle cx="104" cy="64" r="1" fill="#123D75"/>
<circle cx="112" cy="64" r="1" fill="#123D75"/>
<circle cx="120" cy="64" r="1" fill="#123D75"/>
<circle cx="128" cy="64" r="1" fill="#123D75"/>
<circle cx="136" cy="64" r="1" fill="#123D75"/>
<circle cx="144" cy="64" r="1" fill="#123D75"/>
<circle cx="152" cy="64" r="1" fill="#123D75"/>
<circle cx="160" cy="64" r="1" fill="#123D75"/>
<circle cx="168" cy="64" r="1" fill="#123D75"/>
<circle cx="176" cy="64" r="1" fill="#123D75"/>
<circle cx="184" cy="64" r="1" fill="#123D75"/>
<circle cx="192" cy="64" r="1" fill="#123D75"/>
<circle cx="200" cy="64" r="1" fill="#123D75"/>
<circle cx="208" cy="64" r="1" fill="#123D75"/>
<circle cx="216" cy="64" r="1" fill="#123D75"/>
<circle cx="224" cy="64" r="1" fill="#123D75"/>
<circle cx="232" cy="64" r="1" fill="#123D75"/>
<circle cx="240" cy="64" r="1" fill="#123D75"/>
<circle cx="248" cy="64" r="1" fill="#123D75"/>
<circle cx="256" cy="64" r="1" fill="#123D75"/>
<circle cx="264" cy="64" r="1" fill="#123D75"/>
<circle cx="272" cy="64" r="1" fill="#123D75"/>
<circle cx="280" cy="64" r="1" fill="#123D75"/>
<circle cx="8" cy="72" r="1" fill="#123D75"/>
<circle cx="16" cy="72" r="1" fill="#123D75"/>
<circle cx="24" cy="72" r="1" fill="#123D75"/>
<circle cx="32" cy="72" r="1" fill="#123D75"/>
<circle cx="40" cy="72" r="1" fill="#123D75"/>
<circle cx="48" cy="72" r="1" fill="#123D75"/>
<circle cx="56" cy="72" r="1" fill="#123D75"/>
<circle cx="64" cy="72" r="1" fill="#123D75"/>
<circle cx="72" cy="72" r="1" fill="#123D75"/>
<circle cx="80" cy="72" r="1" fill="#123D75"/>
<circle cx="88" cy="72" r="1" fill="#123D75"/>
<circle cx="96" cy="72" r="1" fill="#123D75"/>
<circle cx="104" cy="72" r="1" fill="#123D75"/>
<circle cx="112" cy="72" r="1" fill="#123D75"/>
<circle cx="120" cy="72" r="1" fill="#123D75"/>
<circle cx="128" cy="72" r="1" fill="#123D75"/>
<circle cx="136" cy="72" r="1" fill="#123D75"/>
<circle cx="144" cy="72" r="1" fill="#123D75"/>
<circle cx="152" cy="72" r="1" fill="#123D75"/>
<circle cx="160" cy="72" r="1" fill="#123D75"/>
<circle cx="168" cy="72" r="1" fill="#123D75"/>
<circle cx="176" cy="72" r="1" fill="#123D75"/>
<circle cx="184" cy="72" r="1" fill="#123D75"/>
<circle cx="192" cy="72" r="1" fill="#123D75"/>
<circle cx="200" cy="72" r="1" fill="#123D75"/>
<circle cx="208" cy="72" r="1" fill="#123D75"/>
<circle cx="216" cy="72" r="1" fill="#123D75"/>
<circle cx="224" cy="72" r="1" fill="#123D75"/>
<circle cx="232" cy="72" r="1" fill="#123D75"/>
<circle cx="240" cy="72" r="1" fill="#123D75"/>
<circle cx="248" cy="72" r="1" fill="#123D75"/>
<circle cx="256" cy="72" r="1" fill="#123D75"/>
<circle cx="264" cy="72" r="1" fill="#123D75"/>
<circle cx="272" cy="72" r="1" fill="#123D75"/>
<circle cx="280" cy="72" r="1" fill="#123D75"/>
<circle cx="8" cy="80" r="1" fill="#123D75"/>
<circle cx="16" cy="80" r="1" fill="#123D75"/>
<circle cx="24" cy="80" r="1" fill="#123D75"/>
<circle cx="32" cy="80" r="1" fill="#123D75"/>
<circle cx="40" cy="80" r="1" fill="#123D75"/>
<circle cx="48" cy="80" r="1" fill="#123D75"/>
<circle cx="56" cy="80" r="1" fill="#123D75"/>
<circle cx="64" cy="80" r="1" fill="#123D75"/>
<circle cx="72" cy="80" r="1" fill="#123D75"/>
<circle cx="80" cy="80" r="1" fill="#123D75"/>
<circle cx="88" cy="80" r="1" fill="#123D75"/>
<circle cx="96" cy="80" r="1" fill="#123D75"/>
<circle cx="104" cy="80" r="1" fill="#123D75"/>
<circle cx="112" cy="80" r="1" fill="#123D75"/>
<circle cx="120" cy="80" r="1" fill="#123D75"/>
<circle cx="128" cy="80" r="1" fill="#123D75"/>
<circle cx="136" cy="80" r="1" fill="#123D75"/>
<circle cx="144" cy="80" r="1" fill="#123D75"/>
<circle cx="152" cy="80" r="1" fill="#123D75"/>
<circle cx="160" cy="80" r="1" fill="#123D75"/>
<circle cx="168" cy="80" r="1" fill="#123D75"/>
<circle cx="176" cy="80" r="1" fill="#123D75"/>
<circle cx="184" cy="80" r="1" fill="#123D75"/>
<circle cx="192" cy="80" r="1" fill="#123D75"/>
<circle cx="200" cy="80" r="1" fill="#123D75"/>
<circle cx="208" cy="80" r="1" fill="#123D75"/>
<circle cx="216" cy="80" r="1" fill="#123D75"/>
<circle cx="224" cy="80" r="1" fill="#123D75"/>
<circle cx="232" cy="80" r="1" fill="#123D75"/>
<circle cx="240" cy="80" r="1" fill="#123D75"/>
<circle cx="248" cy="80" r="1" fill="#123D75"/>
<circle cx="256" cy="80" r="1" fill="#123D75"/>
<circle cx="264" cy="80" r="1" fill="#123D75"/>
<circle cx="272" cy="80" r="1" fill="#123D75"/>
<circle cx="280" cy="80" r="1" fill="#123D75"/>
<circle cx="8" cy="88" r="1" fill="#123D75"/>
<circle cx="16" cy="88" r="1" fill="#123D75"/>
<circle cx="24" cy="88" r="1" fill="#123D75"/>
<circle cx="32" cy="88" r="1" fill="#123D75"/>
<circle cx="40" cy="88" r="1" fill="#123D75"/>
<circle cx="48" cy="88" r="1" fill="#123D75"/>
<circle cx="56" cy="88" r="1" fill="#123D75"/>
<circle cx="64" cy="88" r="1" fill="#123D75"/>
<circle cx="72" cy="88" r="1" fill="#123D75"/>
<circle cx="80" cy="88" r="1" fill="#123D75"/>
<circle cx="88" cy="88" r="1" fill="#123D75"/>
<circle cx="96" cy="88" r="1" fill="#123D75"/>
<circle cx="104" cy="88" r="1" fill="#123D75"/>
<circle cx="112" cy="88" r="1" fill="#123D75"/>
<circle cx="120" cy="88" r="1" fill="#123D75"/>
<circle cx="128" cy="88" r="1" fill="#123D75"/>
<circle cx="136" cy="88" r="1" fill="#123D75"/>
<circle cx="144" cy="88" r="1" fill="#123D75"/>
<circle cx="152" cy="88" r="1" fill="#123D75"/>
<circle cx="160" cy="88" r="1" fill="#123D75"/>
<circle cx="168" cy="88" r="1" fill="#123D75"/>
<circle cx="176" cy="88" r="1" fill="#123D75"/>
<circle cx="184" cy="88" r="1" fill="#123D75"/>
<circle cx="192" cy="88" r="1" fill="#123D75"/>
<circle cx="200" cy="88" r="1" fill="#123D75"/>
<circle cx="208" cy="88" r="1" fill="#123D75"/>
<circle cx="216" cy="88" r="1" fill="#123D75"/>
<circle cx="224" cy="88" r="1" fill="#123D75"/>
<circle cx="232" cy="88" r="1" fill="#123D75"/>
<circle cx="240" cy="88" r="1" fill="#123D75"/>
<circle cx="248" cy="88" r="1" fill="#123D75"/>
<circle cx="256" cy="88" r="1" fill="#123D75"/>
<circle cx="264" cy="88" r="1" fill="#123D75"/>
<circle cx="272" cy="88" r="1" fill="#123D75"/>
<circle cx="280" cy="88" r="1" fill="#123D75"/>
<circle cx="8" cy="96" r="1" fill="#123D75"/>
<circle cx="16" cy="96" r="1" fill="#123D75"/>
<circle cx="24" cy="96" r="1" fill="#123D75"/>
<circle cx="32" cy="96" r="1" fill="#123D75"/>
<circle cx="40" cy="96" r="1" fill="#123D75"/>
<circle cx="48" cy="96" r="1" fill="#123D75"/>
<circle cx="56" cy="96" r="1" fill="#123D75"/>
<circle cx="64" cy="96" r="1" fill="#123D75"/>
<circle cx="72" cy="96" r="1" fill="#123D75"/>
<circle cx="80" cy="96" r="1" fill="#123D75"/>
<circle cx="88" cy="96" r="1" fill="#123D75"/>
<circle cx="96" cy="96" r="1" fill="#123D75"/>
<circle cx="104" cy="96" r="1" fill="#123D75"/>
<circle cx="112" cy="96" r="1" fill="#123D75"/>
<circle cx="120" cy="96" r="1" fill="#123D75"/>
<circle cx="128" cy="96" r="1" fill="#123D75"/>
<circle cx="136" cy="96" r="1" fill="#123D75"/>
<circle cx="144" cy="96" r="1" fill="#123D75"/>
<circle cx="152" cy="96" r="1" fill="#123D75"/>
<circle cx="160" cy="96" r="1" fill="#123D75"/>
<circle cx="168" cy="96" r="1" fill="#123D75"/>
<circle cx="176" cy="96" r="1" fill="#123D75"/>
<circle cx="184" cy="96" r="1" fill="#123D75"/>
<circle cx="192" cy="96" r="1" fill="#123D75"/>
<circle cx="200" cy="96" r="1" fill="#123D75"/>
<circle cx="208" cy="96" r="1" fill="#123D75"/>
<circle cx="216" cy="96" r="1" fill="#123D75"/>
<circle cx="224" cy="96" r="1" fill="#123D75"/>
<circle cx="232" cy="96" r="1" fill="#123D75"/>
<circle cx="240" cy="96" r="1" fill="#123D75"/>
<circle cx="248" cy="96" r="1" fill="#123D75"/>
<circle cx="256" cy="96" r="1" fill="#123D75"/>
<circle cx="264" cy="96" r="1" fill="#123D75"/>
<circle cx="272" cy="96" r="1" fill="#123D75"/>
<circle cx="280" cy="96" r="1" fill="#123D75"/>
<circle cx="8" cy="104" r="1" fill="#123D75"/>
<circle cx="16" cy="104" r="1" fill="#123D75"/>
<circle cx="24" cy="104" r="1" fill="#123D75"/>
<circle cx="32" cy="104" r="1" fill="#123D75"/>
<circle cx="40" cy="104" r="1" fill="#123D75"/>
<circle cx="48" cy="104" r="1" fill="#123D75"/>
<circle cx="56" cy="104" r="1" fill="#123D75"/>
<circle cx="64" cy="104" r="1" fill="#123D75"/>
<circle cx="72" cy="104" r="1" fill="#123D75"/>
<circle cx="80" cy="104" r="1" fill="#123D75"/>
<circle cx="88" cy="104" r="1" fill="#123D75"/>
<circle cx="96" cy="104" r="1" fill="#123D75"/>
<circle cx="104" cy="104" r="1" fill="#123D75"/>
<circle cx="112" cy="104" r="1" fill="#123D75"/>
<circle cx="120" cy="104" r="1" fill="#123D75"/>
<circle cx="128" cy="104" r="1" fill="#123D75"/>
<circle cx="136" cy="104" r="1" fill="#123D75"/>
<circle cx="144" cy="104" r="1" fill="#123D75"/>
<circle cx="152" cy="104" r="1" fill="#123D75"/>
<circle cx="160" cy="104" r="1" fill="#123D75"/>
<circle cx="168" cy="104" r="1" fill="#123D75"/>
<circle cx="176" cy="104" r="1" fill="#123D75"/>
<circle cx="184" cy="104" r="1" fill="#123D75"/>
<circle cx="192" cy="104" r="1" fill="#123D75"/>
<circle cx="200" cy="104" r="1" fill="#123D75"/>
<circle cx="208" cy="104" r="1" fill="#123D75"/>
<circle cx="216" cy="104" r="1" fill="#123D75"/>
<circle cx="224" cy="104" r="1" fill="#123D75"/>
<circle cx="232" cy="104" r="1" fill="#123D75"/>
<circle cx="240" cy="104" r="1" fill="#123D75"/>
<circle cx="248" cy="104" r="1" fill="#123D75"/>
<circle cx="256" cy="104" r="1" fill="#123D75"/>
<circle cx="264" cy="104" r="1" fill="#123D75"/>
<circle cx="272" cy="104" r="1" fill="#123D75"/>
<circle cx="280" cy="104" r="1" fill="#123D75"/>
<circle cx="8" cy="112" r="1" fill="#123D75"/>
<circle cx="16" cy="112" r="1" fill="#123D75"/>
<circle cx="24" cy="112" r="1" fill="#123D75"/>
<circle cx="32" cy="112" r="1" fill="#123D75"/>
<circle cx="40" cy="112" r="1" fill="#123D75"/>
<circle cx="48" cy="112" r="1" fill="#123D75"/>
<circle cx="56" cy="112" r="1" fill="#123D75"/>
<circle cx="64" cy="112" r="1" fill="#123D75"/>
<circle cx="72" cy="112" r="1" fill="#123D75"/>
<circle cx="80" cy="112" r="1" fill="#123D75"/>
<circle cx="88" cy="112" r="1" fill="#123D75"/>
<circle cx="96" cy="112" r="1" fill="#123D75"/>
<circle cx="104" cy="112" r="1" fill="#123D75"/>
<circle cx="112" cy="112" r="1" fill="#123D75"/>
<circle cx="120" cy="112" r="1" fill="#123D75"/>
<circle cx="128" cy="112" r="1" fill="#123D75"/>
<circle cx="136" cy="112" r="1" fill="#123D75"/>
<circle cx="144" cy="112" r="1" fill="#123D75"/>
<circle cx="152" cy="112" r="1" fill="#123D75"/>
<circle cx="160" cy="112" r="1" fill="#123D75"/>
<circle cx="168" cy="112" r="1" fill="#123D75"/>
<circle cx="176" cy="112" r="1" fill="#123D75"/>
<circle cx="184" cy="112" r="1" fill="#123D75"/>
<circle cx="192" cy="112" r="1" fill="#123D75"/>
<circle cx="200" cy="112" r="1" fill="#123D75"/>
<circle cx="208" cy="112" r="1" fill="#123D75"/>
<circle cx="216" cy="112" r="1" fill="#123D75"/>
<circle cx="224" cy="112" r="1" fill="#123D75"/>
<circle cx="232" cy="112" r="1" fill="#123D75"/>
<circle cx="240" cy="112" r="1" fill="#123D75"/>
<circle cx="248" cy="112" r="1" fill="#123D75"/>
<circle cx="256" cy="112" r="1" fill="#123D75"/>
<circle cx="264" cy="112" r="1" fill="#123D75"/>
<circle cx="272" cy="112" r="1" fill="#123D75"/>
<circle cx="280" cy="112" r="1" fill="#123D75"/>
<circle cx="120" cy="120" r="1" fill="#123D75"/>
<circle cx="128" cy="120" r="1" fill="#123D75"/>
<circle cx="136" cy="120" r="1" fill="#123D75"/>
<circle cx="144" cy="120" r="1" fill="#123D75"/>
<circle cx="152" cy="120" r="1" fill="#123D75"/>
<circle cx="160" cy="120" r="1" fill="#123D75"/>
<circle cx="168" cy="120" r="1" fill="#123D75"/>
<rect width="288" height="120" fill="url(#paint0_linear_162_8881)"/>
<rect x="97" y="-8" width="124" height="100" fill="url(#paint1_radial_162_8881)"/>
<path d="M146.697 30.6221C146.509 29.354 147.384 28.1732 148.652 27.9847C149.92 27.7961 151.101 28.6712 151.289 29.9393L152.078 35.2455C152.267 36.5135 151.392 37.6943 150.124 37.8829C148.856 38.0714 147.675 37.1963 147.486 35.9283L146.697 30.6221Z" fill="#5A6165"/>
<path d="M154.044 29.5296C153.855 28.2616 154.73 27.0808 155.998 26.8922C157.266 26.7037 158.447 27.5788 158.635 28.8468L159.424 34.1531C159.613 35.4211 158.738 36.6019 157.47 36.7904C156.202 36.979 155.021 36.1039 154.833 34.8359L154.044 29.5296Z" fill="#5A6165"/>
<path fill-rule="evenodd" clip-rule="evenodd" d="M170.593 18.2838C161.863 18.3488 154.887 19.3375 146.33 21.886C144.168 22.5302 142.737 22.9609 141.671 23.4524C140.682 23.9082 140.148 24.3559 139.742 24.9716C138.903 26.2466 138.959 27.539 139.482 31.9982C139.996 36.3806 140.844 40.2505 142.004 44.5742C142.623 46.8782 143.043 48.4326 143.519 49.5913C143.969 50.6904 144.4 51.2532 144.942 51.6526C145.489 52.0551 146.149 52.2982 147.309 52.4025C148.536 52.5129 150.116 52.4551 152.464 52.3636C160.056 52.0678 165.648 51.2322 173.027 49.3105C175.327 48.7113 176.881 48.303 178.041 47.8396C179.143 47.3994 179.708 46.9766 180.109 46.4469C180.502 45.9285 180.761 45.2553 180.888 44.0123C181.02 42.7154 180.99 41.0298 180.942 38.5543C180.856 34.1375 180.692 30.2717 180.088 26.1C179.442 21.6397 179.162 20.3849 177.969 19.3598C177.392 18.8647 176.739 18.58 175.635 18.426C174.444 18.2598 172.91 18.2665 170.593 18.2838ZM145.241 18.2277C154.154 15.5729 161.489 14.5344 170.564 14.4668L170.697 14.4658C172.846 14.4497 174.661 14.4361 176.163 14.6455C177.783 14.8716 179.184 15.3721 180.456 16.4644C182.854 18.5249 183.258 21.3326 183.795 25.063C183.818 25.2245 183.842 25.3878 183.865 25.5527C184.504 29.9636 184.671 34.0189 184.758 38.48L184.761 38.598C184.806 40.926 184.843 42.8444 184.685 44.399C184.519 46.0337 184.121 47.4732 183.152 48.7517C182.192 50.0191 180.949 50.7884 179.457 51.3844C178.048 51.9472 176.26 52.4129 174.105 52.9742L173.989 53.0043C166.348 54.9944 160.483 55.8712 152.612 56.1778L152.491 56.1826C150.296 56.2681 148.469 56.3394 146.967 56.2043C145.371 56.0607 143.965 55.6734 142.679 54.7259C141.388 53.7752 140.6 52.5347 139.987 51.0394C139.409 49.6292 138.928 47.8376 138.349 45.6802L138.318 45.5634C137.128 41.1292 136.233 37.0679 135.691 32.4427C135.671 32.2748 135.652 32.1089 135.632 31.9448C135.193 28.2285 134.863 25.4408 136.554 22.8724C137.452 21.5097 138.624 20.6536 140.073 19.9859C141.416 19.3667 143.111 18.8619 145.117 18.2645C145.158 18.2523 145.199 18.24 145.241 18.2277Z" fill="#5A6165"/>
<path d="M144.61 36.1557L136.554 37.4497C134.33 37.8071 132.816 39.9 133.173 42.1245L133.82 46.1522C134.178 48.3766 136.271 49.8902 138.495 49.5329L146.551 48.2388C148.775 47.8815 150.289 45.7885 149.931 43.5641L149.284 39.5364C148.927 37.3119 146.834 35.7983 144.61 36.1557Z" stroke="#2781F6" stroke-width="2.73222" stroke-linecap="round" stroke-linejoin="round"/>
<path d="M157.662 40.2562C157.491 39.188 156.899 38.2321 156.018 37.5988C155.137 36.9656 154.037 36.7069 152.963 36.8795C151.888 37.0522 150.925 37.6422 150.286 38.5196C149.648 39.397 149.385 40.4901 149.557 41.5583" stroke="#2781F6" stroke-width="2.73222" stroke-linecap="round" stroke-linejoin="round"/>
<path d="M168.776 32.2735L160.721 33.5676C158.496 33.9249 156.983 36.0179 157.34 38.2423L157.987 42.27C158.344 44.4945 160.437 46.0081 162.662 45.6507L170.717 44.3567C172.942 43.9993 174.455 41.9064 174.098 39.6819L173.451 35.6542C173.093 33.4298 171 31.9162 168.776 32.2735Z" stroke="#2781F6" stroke-width="2.73222" stroke-linecap="round" stroke-linejoin="round"/>
<path d="M117.158 -29.1729L231 -2.4199L141.065 86.9458L121.142 80.6851L117.158 -29.1729Z" fill="url(#paint2_linear_162_8881)" fill-opacity="0.3"/>
<path d="M131.796 100.933L133.374 101.463L133.586 99.8123L137.057 72.8002C137.285 71.0248 136.29 69.3181 134.632 68.6426L118.828 62.2019C117.213 61.5438 115.413 62.5938 115.191 64.3233L111.646 91.9084C111.485 93.1654 112.234 94.3614 113.435 94.765L131.796 100.933Z" fill="#1D4A86" stroke="#2781F6" stroke-width="2.73222"/>
<path d="M136.021 101.184L134.361 101.298L134.573 99.6465L138.044 72.6344C138.272 70.859 139.666 69.4594 141.441 69.2249L158.36 66.9888C160.089 66.7604 161.565 68.2313 161.343 69.9608L157.799 97.5459C157.637 98.8029 156.61 99.7708 155.346 99.8575L136.021 101.184Z" fill="#1D4A86" stroke="#2781F6" stroke-width="2.73222"/>
<path d="M128.168 105.476L129.746 106.007L129.958 104.356L133.556 76.3589C133.709 75.1638 133.039 74.0151 131.923 73.5604L115.2 66.7451C113.585 66.0871 111.785 67.137 111.563 68.8665L108.018 96.4516C107.857 97.7086 108.606 98.9046 109.807 99.3082L128.168 105.476Z" fill="#0A3163" stroke="#2781F6" stroke-width="2.73222"/>
<path d="M138.633 106.821L136.973 106.935L137.185 105.284L140.782 77.2874C140.936 76.0924 141.874 75.1503 143.069 74.9925L160.972 72.6264C162.701 72.3979 164.177 73.8688 163.955 75.5983L160.41 103.183C160.249 104.44 159.222 105.408 157.958 105.495L138.633 106.821Z" fill="#0A3163" stroke="#2781F6" stroke-width="2.73222"/>
<path d="M133.752 75.345L132.397 75.1709L132.223 76.5258L128.663 104.227C128.476 105.683 129.504 107.014 130.959 107.201L135.498 107.784C136.953 107.971 138.284 106.943 138.471 105.488L142.03 77.786L142.204 76.431L140.849 76.2569L133.752 75.345Z" fill="#0A3163" stroke="#2781F6" stroke-width="2.73222"/>
</g>
<defs>
<linearGradient id="paint0_linear_162_8881" x1="112" y1="179" x2="164" y2="-48" gradientUnits="userSpaceOnUse">
<stop offset="0.214133" stop-color="#2E3035" stop-opacity="0.9"/>
<stop offset="0.372665" stop-color="#2E3035" stop-opacity="0.7"/>
<stop offset="0.636438" stop-color="#2E3035" stop-opacity="0"/>
<stop offset="0.945015" stop-color="#2E3035" stop-opacity="0"/>
</linearGradient>
<radialGradient id="paint1_radial_162_8881" cx="0" cy="0" r="1" gradientUnits="userSpaceOnUse" gradientTransform="translate(159 42) rotate(90) scale(50 62)">
<stop offset="0.328623" stop-color="#2E3035"/>
<stop offset="1" stop-color="#2E3035" stop-opacity="0"/>
</radialGradient>
<linearGradient id="paint2_linear_162_8881" x1="126.834" y1="81.8235" x2="201.97" y2="-0.712299" gradientUnits="userSpaceOnUse">
<stop stop-color="#63A5FF" stop-opacity="0.9"/>
<stop offset="1" stop-color="#4281D8" stop-opacity="0.2"/>
</linearGradient>
<clipPath id="clip0_162_8881">
<rect width="288" height="120" rx="8" fill="white"/>
</clipPath>
</defs>
</svg>
