<svg width="120" height="104" viewBox="0 0 120 104" fill="none" xmlns="http://www.w3.org/2000/svg">
<rect width="120" height="104" rx="8" fill="#1B1B1F"/>
<path d="M35.8884 45.93C35.9931 44.8088 36.9869 43.9847 38.1081 44.0894C39.2293 44.1941 40.0534 45.1879 39.9487 46.3091L39.5107 51.001C39.4061 52.1222 38.4123 52.9463 37.2911 52.8416C36.1699 52.7369 35.3458 51.7432 35.4505 50.6219L35.8884 45.93Z" fill="#E2DDFE"/>
<path d="M42.3841 46.5364C42.4888 45.4152 43.4825 44.5911 44.6038 44.6957C45.725 44.8004 46.5491 45.7942 46.4444 46.9154L46.0064 51.6073C45.9017 52.7285 44.908 53.5526 43.7868 53.4479C42.6655 53.3433 41.8415 52.3495 41.9461 51.2283L42.3841 46.5364Z" fill="#E2DDFE"/>
<path fill-rule="evenodd" clip-rule="evenodd" d="M47.9432 37.1464C40.4828 35.3741 34.3241 34.7567 26.4912 35.1392C24.5112 35.2359 23.2008 35.3038 22.1882 35.4998C21.2492 35.6816 20.6997 35.9516 20.2249 36.392C19.2417 37.3039 19.0193 38.4183 18.5316 42.3318C18.0522 46.1779 17.9658 49.657 18.0501 53.5884C18.095 55.6834 18.1285 57.0975 18.2912 58.1854C18.4455 59.2174 18.6954 59.7878 19.0743 60.242C19.4563 60.6999 19.9683 61.0453 20.9362 61.3773C21.96 61.7285 23.3201 62.01 25.3418 62.4235C31.8806 63.7609 36.8259 64.2189 43.5231 64.1245C45.6112 64.0951 47.0223 64.0722 48.1089 63.9198C49.1413 63.775 49.7117 63.5326 50.1648 63.1647C50.6084 62.8047 50.9703 62.2846 51.3385 61.2507C51.7227 60.172 52.0504 58.7279 52.5276 56.606C53.379 52.82 54.0487 49.4879 54.4067 45.8025C54.7894 41.8622 54.8135 40.7331 54.0102 39.6088C53.6222 39.0658 53.1244 38.686 52.2152 38.3237C51.2334 37.9323 49.9235 37.6169 47.9432 37.1464ZM26.3276 31.7902C34.4873 31.3918 40.9619 32.0416 48.7182 33.8842L48.8317 33.9112C50.6682 34.3474 52.2197 34.7159 53.4567 35.209C54.7917 35.7411 55.8824 36.4616 56.7384 37.6596C58.353 39.9196 58.1096 42.3994 57.7863 45.6941C57.7723 45.8367 57.7581 45.9809 57.7439 46.1266C57.3655 50.0233 56.6588 53.5178 55.7989 57.3416L55.7761 57.4428C55.3274 59.4383 54.9576 61.0827 54.4971 62.3757C54.0128 63.7354 53.3719 64.8801 52.2779 65.768C51.1936 66.6482 49.9723 67.0442 48.5746 67.2402C47.2547 67.4254 45.6317 67.4482 43.6754 67.4757L43.5703 67.4772C36.6351 67.5749 31.4486 67.0949 24.67 65.7085L24.5654 65.6871C22.6751 65.3005 21.1011 64.9786 19.8484 64.5489C18.5167 64.0922 17.3986 63.4675 16.4996 62.3898C15.5976 61.3086 15.185 60.0852 14.9751 58.6813C14.7771 57.3571 14.7422 55.7281 14.7002 53.7665L14.6979 53.6603C14.6114 49.6284 14.6984 45.9764 15.2043 41.9171C15.2227 41.7699 15.2407 41.6242 15.2585 41.4801C15.6617 38.2178 15.9642 35.7706 17.9448 33.9336C18.9956 32.959 20.1753 32.4743 21.5508 32.208C22.8264 31.961 24.3779 31.8853 26.2144 31.7957C26.252 31.7939 26.2898 31.792 26.3276 31.7902Z" fill="#E2DDFE"/>
<path d="M88.3515 46.1887C85.8484 44.8972 82.7723 45.8795 81.4808 48.3826C80.9491 49.4133 81.3535 50.68 82.3842 51.2117L105.49 63.1328C106.521 63.6646 107.788 63.2601 108.319 62.2294C109.611 59.7263 108.629 56.6502 106.125 55.3587L88.3515 46.1887Z" fill="#3B334A" stroke="#C9C7DD" stroke-width="2.2"/>
<path d="M100.6 44.2402C98.0964 42.9488 95.0203 43.9311 93.7288 46.4342C93.1971 47.4649 93.6015 48.7315 94.6322 49.2633L100.745 52.4169C101.775 52.9487 103.042 52.5442 103.574 51.5135C104.865 49.0104 103.883 45.9343 101.38 44.6428L100.6 44.2402Z" fill="#3B334A" stroke="#C9C7DD" stroke-width="2.2"/>
<path d="M87.3803 25.2416C88.2628 25.301 88.8292 24.7875 88.8754 24.101C88.8781 24.0618 88.8807 24.0226 88.8833 23.9834C88.9387 23.1597 89.5039 22.6658 90.5699 22.048C92.1041 21.2055 93.3219 20.3812 93.4525 18.4397C93.6345 15.7333 91.3146 14.1982 88.6474 14.0188C85.941 13.8367 84.0745 14.9326 83.5128 16.2541C83.3963 16.5221 83.3386 16.794 83.3201 17.0686C83.2687 17.8335 83.8489 18.2862 84.4177 18.3245C85.006 18.364 85.3958 18.1341 85.7569 17.7447L86.1167 17.3749C86.8193 16.5948 87.5477 16.3089 88.391 16.3656C89.6658 16.4513 90.4786 17.2546 90.4034 18.3725C90.3335 19.4119 89.6154 19.8364 88.2407 20.6502C87.1512 21.3255 86.1936 22.0885 86.0881 23.6574C86.0868 23.677 86.0828 23.7359 86.0815 23.7555C86.0195 24.6773 86.4781 25.1809 87.3803 25.2416ZM87.0244 29.9458C87.9854 30.0104 88.8801 29.3023 88.9448 28.3412C89.0108 27.3607 88.2372 26.5601 87.2566 26.4941C86.276 26.4281 85.4009 27.1375 85.3362 28.0985C85.2729 29.04 86.0635 29.8811 87.0244 29.9458Z" fill="#C171FF"/>
<path d="M85.5 35.5001V35.5001C84.9783 38.0607 82.7263 39.9001 80.1131 39.9001L74.189 39.9001C72.1482 39.9001 70.1922 40.7164 68.7568 42.1669V42.1669C65.1465 45.8153 66.0875 51.9146 70.6295 54.3051L70.9999 54.5001" stroke="#C171FF" stroke-width="2.4" stroke-linecap="round"/>
<path d="M78 57.0001L83.2819 58.1319C84.4138 58.3744 85.4796 58.8598 86.4057 59.5543L86.5548 59.6662C88.1294 60.8471 89.2134 62.5672 89.5994 64.4972L90 66.5001" stroke="#C171FF" stroke-width="2.4" stroke-linecap="round"/>
<path d="M85.6497 70.4532L85.8355 70.8248L86.1918 70.6111C87.3126 69.9386 88.7325 69.9746 89.913 70.4746C91.1049 70.9795 91.9389 71.9031 92.0203 72.8889C92.189 74.9307 90.2807 76.8178 87.4084 77.0551L75.9644 78.0004C74.7135 78.1037 73.6774 77.8777 72.9491 77.4335C72.2298 76.9948 71.7992 76.3391 71.7318 75.5239C71.6758 74.8455 71.8095 74.0406 72.3077 73.4701C72.7877 72.9205 73.6837 72.5018 75.3494 72.7397L75.7795 72.8012L75.7884 72.3668C75.8359 70.0589 77.6541 68.0799 80.0312 67.8835C82.5085 67.6789 84.7434 68.6406 85.6497 70.4532Z" fill="#3B334A" stroke="#C9C7DD" stroke-width="0.769498"/>
<circle cx="76" cy="64.0001" r="1.5" fill="#3B334A" stroke="#C9C7DD"/>
<circle cx="72" cy="69.0001" r="0.5" fill="#3B334A" stroke="#C9C7DD"/>
<path d="M72.9022 71.7159C71.1959 71.8576 69.9276 73.3555 70.0692 75.0617L70.8963 85.0275C71.312 90.036 75.7092 93.7593 80.7178 93.3436L96.663 92.0202C101.672 91.6045 105.395 87.2073 104.979 82.1987L104.152 72.233C104.01 70.5268 102.512 69.2584 100.806 69.4L72.9022 71.7159Z" fill="#3B334A" stroke="#C9C7DD" stroke-width="2.2"/>
<path d="M104 72.3305L106.79 72.0991C107.451 72.0444 108.031 72.5354 108.085 73.1959C108.14 73.8563 107.649 74.4362 106.989 74.4909L104.198 74.7223L104 72.3305Z" fill="#C9C7DD"/>
<path d="M66.0992 77.5264C66.0444 76.8659 66.5354 76.2861 67.1959 76.2313L70.9829 75.9173L71.1812 78.3091L67.3942 78.6231C66.7337 78.6779 66.1539 78.1869 66.0992 77.5264Z" fill="#C9C7DD"/>
<path d="M26.7662 26.3753C27.0191 26.2956 27.2335 26.1295 27.3621 25.9137C27.4907 25.6979 27.5231 25.45 27.452 25.2246L26.7353 22.9505L26.0186 20.6764C25.8962 20.2879 26.0939 19.8639 26.4331 19.5729C27.1359 18.972 27.5989 18.178 27.7403 17.3309C27.8816 16.4839 27.6923 15.6383 27.2057 14.9434C26.7191 14.2485 25.9665 13.749 25.0807 13.533C24.195 13.3169 23.233 13.3983 22.3645 13.7627C21.7556 13.1156 20.9394 12.6579 20.0169 12.4464C19.0943 12.2349 18.1058 12.2787 17.1737 12.5725C16.2415 12.8662 15.4066 13.3971 14.772 14.0993C14.1375 14.8016 13.7311 15.6445 13.6033 16.5239C12.6834 16.7237 11.8493 17.2087 11.248 17.8934C10.6467 18.578 10.3168 19.4184 10.3165 20.2663C10.3162 21.1142 10.6456 21.9152 11.2465 22.528C11.8473 23.1408 12.6812 23.5262 13.601 23.6161C14.046 23.6609 14.4511 23.8949 14.5733 24.2825L16.0069 28.8316C16.078 29.057 16.2466 29.2416 16.4757 29.3446C16.7048 29.4477 16.9757 29.4608 17.2286 29.3811C17.2286 29.3811 19.9917 28.043 21.8633 27.4531C23.7349 26.8633 26.7662 26.3753 26.7662 26.3753Z" stroke="#C171FF" stroke-width="2.4" stroke-linecap="round" stroke-linejoin="round"/>
</svg>
