<svg width="288" height="120" viewBox="0 0 288 120" fill="none" xmlns="http://www.w3.org/2000/svg">
<g clip-path="url(#clip0_182_8085)">
<rect width="288" height="120" rx="8" fill="#F9F9FB"/>
<circle cx="8" r="1" fill="#C9E2FF"/>
<circle cx="16" r="1" fill="#C9E2FF"/>
<circle cx="24" r="1" fill="#C9E2FF"/>
<circle cx="32" r="1" fill="#C9E2FF"/>
<circle cx="40" r="1" fill="#C9E2FF"/>
<circle cx="48" r="1" fill="#C9E2FF"/>
<circle cx="56" r="1" fill="#C9E2FF"/>
<circle cx="64" r="1" fill="#C9E2FF"/>
<circle cx="72" r="1" fill="#C9E2FF"/>
<circle cx="80" r="1" fill="#C9E2FF"/>
<circle cx="88" r="1" fill="#C9E2FF"/>
<circle cx="96" r="1" fill="#C9E2FF"/>
<circle cx="104" r="1" fill="#C9E2FF"/>
<circle cx="112" r="1" fill="#C9E2FF"/>
<circle cx="120" r="1" fill="#C9E2FF"/>
<circle cx="128" r="1" fill="#C9E2FF"/>
<circle cx="136" r="1" fill="#C9E2FF"/>
<circle cx="144" r="1" fill="#C9E2FF"/>
<circle cx="152" r="1" fill="#C9E2FF"/>
<circle cx="160" r="1" fill="#C9E2FF"/>
<circle cx="168" r="1" fill="#C9E2FF"/>
<circle cx="176" r="1" fill="#C9E2FF"/>
<circle cx="184" r="1" fill="#C9E2FF"/>
<circle cx="192" r="1" fill="#C9E2FF"/>
<circle cx="200" r="1" fill="#C9E2FF"/>
<circle cx="208" r="1" fill="#C9E2FF"/>
<circle cx="216" r="1" fill="#C9E2FF"/>
<circle cx="224" r="1" fill="#C9E2FF"/>
<circle cx="232" r="1" fill="#C9E2FF"/>
<circle cx="240" r="1" fill="#C9E2FF"/>
<circle cx="248" r="1" fill="#C9E2FF"/>
<circle cx="256" r="1" fill="#C9E2FF"/>
<circle cx="264" r="1" fill="#C9E2FF"/>
<circle cx="272" r="1" fill="#C9E2FF"/>
<circle cx="280" r="1" fill="#C9E2FF"/>
<circle cx="8" cy="8" r="1" fill="#C9E2FF"/>
<circle cx="16" cy="8" r="1" fill="#C9E2FF"/>
<circle cx="24" cy="8" r="1" fill="#C9E2FF"/>
<circle cx="32" cy="8" r="1" fill="#C9E2FF"/>
<circle cx="40" cy="8" r="1" fill="#C9E2FF"/>
<circle cx="48" cy="8" r="1" fill="#C9E2FF"/>
<circle cx="56" cy="8" r="1" fill="#C9E2FF"/>
<circle cx="64" cy="8" r="1" fill="#C9E2FF"/>
<circle cx="72" cy="8" r="1" fill="#C9E2FF"/>
<circle cx="80" cy="8" r="1" fill="#C9E2FF"/>
<circle cx="88" cy="8" r="1" fill="#C9E2FF"/>
<circle cx="96" cy="8" r="1" fill="#C9E2FF"/>
<circle cx="104" cy="8" r="1" fill="#C9E2FF"/>
<circle cx="112" cy="8" r="1" fill="#C9E2FF"/>
<circle cx="120" cy="8" r="1" fill="#C9E2FF"/>
<circle cx="128" cy="8" r="1" fill="#C9E2FF"/>
<circle cx="136" cy="8" r="1" fill="#C9E2FF"/>
<circle cx="144" cy="8" r="1" fill="#C9E2FF"/>
<circle cx="152" cy="8" r="1" fill="#C9E2FF"/>
<circle cx="160" cy="8" r="1" fill="#C9E2FF"/>
<circle cx="168" cy="8" r="1" fill="#C9E2FF"/>
<circle cx="176" cy="8" r="1" fill="#C9E2FF"/>
<circle cx="184" cy="8" r="1" fill="#C9E2FF"/>
<circle cx="192" cy="8" r="1" fill="#C9E2FF"/>
<circle cx="200" cy="8" r="1" fill="#C9E2FF"/>
<circle cx="208" cy="8" r="1" fill="#C9E2FF"/>
<circle cx="216" cy="8" r="1" fill="#C9E2FF"/>
<circle cx="224" cy="8" r="1" fill="#C9E2FF"/>
<circle cx="232" cy="8" r="1" fill="#C9E2FF"/>
<circle cx="240" cy="8" r="1" fill="#C9E2FF"/>
<circle cx="248" cy="8" r="1" fill="#C9E2FF"/>
<circle cx="256" cy="8" r="1" fill="#C9E2FF"/>
<circle cx="264" cy="8" r="1" fill="#C9E2FF"/>
<circle cx="272" cy="8" r="1" fill="#C9E2FF"/>
<circle cx="280" cy="8" r="1" fill="#C9E2FF"/>
<circle cx="8" cy="16" r="1" fill="#C9E2FF"/>
<circle cx="16" cy="16" r="1" fill="#C9E2FF"/>
<circle cx="24" cy="16" r="1" fill="#C9E2FF"/>
<circle cx="32" cy="16" r="1" fill="#C9E2FF"/>
<circle cx="40" cy="16" r="1" fill="#C9E2FF"/>
<circle cx="48" cy="16" r="1" fill="#C9E2FF"/>
<circle cx="56" cy="16" r="1" fill="#C9E2FF"/>
<circle cx="64" cy="16" r="1" fill="#C9E2FF"/>
<circle cx="72" cy="16" r="1" fill="#C9E2FF"/>
<circle cx="80" cy="16" r="1" fill="#C9E2FF"/>
<circle cx="88" cy="16" r="1" fill="#C9E2FF"/>
<circle cx="96" cy="16" r="1" fill="#C9E2FF"/>
<circle cx="104" cy="16" r="1" fill="#C9E2FF"/>
<circle cx="112" cy="16" r="1" fill="#C9E2FF"/>
<circle cx="120" cy="16" r="1" fill="#C9E2FF"/>
<circle cx="128" cy="16" r="1" fill="#C9E2FF"/>
<circle cx="136" cy="16" r="1" fill="#C9E2FF"/>
<circle cx="144" cy="16" r="1" fill="#C9E2FF"/>
<circle cx="152" cy="16" r="1" fill="#C9E2FF"/>
<circle cx="160" cy="16" r="1" fill="#C9E2FF"/>
<circle cx="168" cy="16" r="1" fill="#C9E2FF"/>
<circle cx="176" cy="16" r="1" fill="#C9E2FF"/>
<circle cx="184" cy="16" r="1" fill="#C9E2FF"/>
<circle cx="192" cy="16" r="1" fill="#C9E2FF"/>
<circle cx="200" cy="16" r="1" fill="#C9E2FF"/>
<circle cx="208" cy="16" r="1" fill="#C9E2FF"/>
<circle cx="216" cy="16" r="1" fill="#C9E2FF"/>
<circle cx="224" cy="16" r="1" fill="#C9E2FF"/>
<circle cx="232" cy="16" r="1" fill="#C9E2FF"/>
<circle cx="240" cy="16" r="1" fill="#C9E2FF"/>
<circle cx="248" cy="16" r="1" fill="#C9E2FF"/>
<circle cx="256" cy="16" r="1" fill="#C9E2FF"/>
<circle cx="264" cy="16" r="1" fill="#C9E2FF"/>
<circle cx="272" cy="16" r="1" fill="#C9E2FF"/>
<circle cx="280" cy="16" r="1" fill="#C9E2FF"/>
<circle cx="8" cy="24" r="1" fill="#C9E2FF"/>
<circle cx="16" cy="24" r="1" fill="#C9E2FF"/>
<circle cx="24" cy="24" r="1" fill="#C9E2FF"/>
<circle cx="32" cy="24" r="1" fill="#C9E2FF"/>
<circle cx="40" cy="24" r="1" fill="#C9E2FF"/>
<circle cx="48" cy="24" r="1" fill="#C9E2FF"/>
<circle cx="56" cy="24" r="1" fill="#C9E2FF"/>
<circle cx="64" cy="24" r="1" fill="#C9E2FF"/>
<circle cx="72" cy="24" r="1" fill="#C9E2FF"/>
<circle cx="80" cy="24" r="1" fill="#C9E2FF"/>
<circle cx="88" cy="24" r="1" fill="#C9E2FF"/>
<circle cx="96" cy="24" r="1" fill="#C9E2FF"/>
<circle cx="104" cy="24" r="1" fill="#C9E2FF"/>
<circle cx="112" cy="24" r="1" fill="#C9E2FF"/>
<circle cx="120" cy="24" r="1" fill="#C9E2FF"/>
<circle cx="128" cy="24" r="1" fill="#C9E2FF"/>
<circle cx="136" cy="24" r="1" fill="#C9E2FF"/>
<circle cx="144" cy="24" r="1" fill="#C9E2FF"/>
<circle cx="152" cy="24" r="1" fill="#C9E2FF"/>
<circle cx="160" cy="24" r="1" fill="#C9E2FF"/>
<circle cx="168" cy="24" r="1" fill="#C9E2FF"/>
<circle cx="176" cy="24" r="1" fill="#C9E2FF"/>
<circle cx="184" cy="24" r="1" fill="#C9E2FF"/>
<circle cx="192" cy="24" r="1" fill="#C9E2FF"/>
<circle cx="200" cy="24" r="1" fill="#C9E2FF"/>
<circle cx="208" cy="24" r="1" fill="#C9E2FF"/>
<circle cx="216" cy="24" r="1" fill="#C9E2FF"/>
<circle cx="224" cy="24" r="1" fill="#C9E2FF"/>
<circle cx="232" cy="24" r="1" fill="#C9E2FF"/>
<circle cx="240" cy="24" r="1" fill="#C9E2FF"/>
<circle cx="248" cy="24" r="1" fill="#C9E2FF"/>
<circle cx="256" cy="24" r="1" fill="#C9E2FF"/>
<circle cx="264" cy="24" r="1" fill="#C9E2FF"/>
<circle cx="272" cy="24" r="1" fill="#C9E2FF"/>
<circle cx="280" cy="24" r="1" fill="#C9E2FF"/>
<circle cx="8" cy="32" r="1" fill="#C9E2FF"/>
<circle cx="16" cy="32" r="1" fill="#C9E2FF"/>
<circle cx="24" cy="32" r="1" fill="#C9E2FF"/>
<circle cx="32" cy="32" r="1" fill="#C9E2FF"/>
<circle cx="40" cy="32" r="1" fill="#C9E2FF"/>
<circle cx="48" cy="32" r="1" fill="#C9E2FF"/>
<circle cx="56" cy="32" r="1" fill="#C9E2FF"/>
<circle cx="64" cy="32" r="1" fill="#C9E2FF"/>
<circle cx="72" cy="32" r="1" fill="#C9E2FF"/>
<circle cx="80" cy="32" r="1" fill="#C9E2FF"/>
<circle cx="88" cy="32" r="1" fill="#C9E2FF"/>
<circle cx="96" cy="32" r="1" fill="#C9E2FF"/>
<circle cx="104" cy="32" r="1" fill="#C9E2FF"/>
<circle cx="112" cy="32" r="1" fill="#C9E2FF"/>
<circle cx="120" cy="32" r="1" fill="#C9E2FF"/>
<circle cx="128" cy="32" r="1" fill="#C9E2FF"/>
<circle cx="136" cy="32" r="1" fill="#C9E2FF"/>
<circle cx="144" cy="32" r="1" fill="#C9E2FF"/>
<circle cx="152" cy="32" r="1" fill="#C9E2FF"/>
<circle cx="160" cy="32" r="1" fill="#C9E2FF"/>
<circle cx="168" cy="32" r="1" fill="#C9E2FF"/>
<circle cx="176" cy="32" r="1" fill="#C9E2FF"/>
<circle cx="184" cy="32" r="1" fill="#C9E2FF"/>
<circle cx="192" cy="32" r="1" fill="#C9E2FF"/>
<circle cx="200" cy="32" r="1" fill="#C9E2FF"/>
<circle cx="208" cy="32" r="1" fill="#C9E2FF"/>
<circle cx="216" cy="32" r="1" fill="#C9E2FF"/>
<circle cx="224" cy="32" r="1" fill="#C9E2FF"/>
<circle cx="232" cy="32" r="1" fill="#C9E2FF"/>
<circle cx="240" cy="32" r="1" fill="#C9E2FF"/>
<circle cx="248" cy="32" r="1" fill="#C9E2FF"/>
<circle cx="256" cy="32" r="1" fill="#C9E2FF"/>
<circle cx="264" cy="32" r="1" fill="#C9E2FF"/>
<circle cx="272" cy="32" r="1" fill="#C9E2FF"/>
<circle cx="280" cy="32" r="1" fill="#C9E2FF"/>
<circle cx="8" cy="40" r="1" fill="#C9E2FF"/>
<circle cx="16" cy="40" r="1" fill="#C9E2FF"/>
<circle cx="24" cy="40" r="1" fill="#C9E2FF"/>
<circle cx="32" cy="40" r="1" fill="#C9E2FF"/>
<circle cx="40" cy="40" r="1" fill="#C9E2FF"/>
<circle cx="48" cy="40" r="1" fill="#C9E2FF"/>
<circle cx="56" cy="40" r="1" fill="#C9E2FF"/>
<circle cx="64" cy="40" r="1" fill="#C9E2FF"/>
<circle cx="72" cy="40" r="1" fill="#C9E2FF"/>
<circle cx="80" cy="40" r="1" fill="#C9E2FF"/>
<circle cx="88" cy="40" r="1" fill="#C9E2FF"/>
<circle cx="96" cy="40" r="1" fill="#C9E2FF"/>
<circle cx="104" cy="40" r="1" fill="#C9E2FF"/>
<circle cx="112" cy="40" r="1" fill="#C9E2FF"/>
<circle cx="120" cy="40" r="1" fill="#C9E2FF"/>
<circle cx="128" cy="40" r="1" fill="#C9E2FF"/>
<circle cx="136" cy="40" r="1" fill="#C9E2FF"/>
<circle cx="144" cy="40" r="1" fill="#C9E2FF"/>
<circle cx="152" cy="40" r="1" fill="#C9E2FF"/>
<circle cx="160" cy="40" r="1" fill="#C9E2FF"/>
<circle cx="168" cy="40" r="1" fill="#C9E2FF"/>
<circle cx="176" cy="40" r="1" fill="#C9E2FF"/>
<circle cx="184" cy="40" r="1" fill="#C9E2FF"/>
<circle cx="192" cy="40" r="1" fill="#C9E2FF"/>
<circle cx="200" cy="40" r="1" fill="#C9E2FF"/>
<circle cx="208" cy="40" r="1" fill="#C9E2FF"/>
<circle cx="216" cy="40" r="1" fill="#C9E2FF"/>
<circle cx="224" cy="40" r="1" fill="#C9E2FF"/>
<circle cx="232" cy="40" r="1" fill="#C9E2FF"/>
<circle cx="240" cy="40" r="1" fill="#C9E2FF"/>
<circle cx="248" cy="40" r="1" fill="#C9E2FF"/>
<circle cx="256" cy="40" r="1" fill="#C9E2FF"/>
<circle cx="264" cy="40" r="1" fill="#C9E2FF"/>
<circle cx="272" cy="40" r="1" fill="#C9E2FF"/>
<circle cx="280" cy="40" r="1" fill="#C9E2FF"/>
<circle cx="8" cy="48" r="1" fill="#C9E2FF"/>
<circle cx="16" cy="48" r="1" fill="#C9E2FF"/>
<circle cx="24" cy="48" r="1" fill="#C9E2FF"/>
<circle cx="32" cy="48" r="1" fill="#C9E2FF"/>
<circle cx="40" cy="48" r="1" fill="#C9E2FF"/>
<circle cx="48" cy="48" r="1" fill="#C9E2FF"/>
<circle cx="56" cy="48" r="1" fill="#C9E2FF"/>
<circle cx="64" cy="48" r="1" fill="#C9E2FF"/>
<circle cx="72" cy="48" r="1" fill="#C9E2FF"/>
<circle cx="80" cy="48" r="1" fill="#C9E2FF"/>
<circle cx="88" cy="48" r="1" fill="#C9E2FF"/>
<circle cx="96" cy="48" r="1" fill="#C9E2FF"/>
<circle cx="104" cy="48" r="1" fill="#C9E2FF"/>
<circle cx="112" cy="48" r="1" fill="#C9E2FF"/>
<circle cx="120" cy="48" r="1" fill="#C9E2FF"/>
<circle cx="128" cy="48" r="1" fill="#C9E2FF"/>
<circle cx="136" cy="48" r="1" fill="#C9E2FF"/>
<circle cx="144" cy="48" r="1" fill="#C9E2FF"/>
<circle cx="152" cy="48" r="1" fill="#C9E2FF"/>
<circle cx="160" cy="48" r="1" fill="#C9E2FF"/>
<circle cx="168" cy="48" r="1" fill="#C9E2FF"/>
<circle cx="176" cy="48" r="1" fill="#C9E2FF"/>
<circle cx="184" cy="48" r="1" fill="#C9E2FF"/>
<circle cx="192" cy="48" r="1" fill="#C9E2FF"/>
<circle cx="200" cy="48" r="1" fill="#C9E2FF"/>
<circle cx="208" cy="48" r="1" fill="#C9E2FF"/>
<circle cx="216" cy="48" r="1" fill="#C9E2FF"/>
<circle cx="224" cy="48" r="1" fill="#C9E2FF"/>
<circle cx="232" cy="48" r="1" fill="#C9E2FF"/>
<circle cx="240" cy="48" r="1" fill="#C9E2FF"/>
<circle cx="248" cy="48" r="1" fill="#C9E2FF"/>
<circle cx="256" cy="48" r="1" fill="#C9E2FF"/>
<circle cx="264" cy="48" r="1" fill="#C9E2FF"/>
<circle cx="272" cy="48" r="1" fill="#C9E2FF"/>
<circle cx="280" cy="48" r="1" fill="#C9E2FF"/>
<circle cx="8" cy="56" r="1" fill="#C9E2FF"/>
<circle cx="16" cy="56" r="1" fill="#C9E2FF"/>
<circle cx="24" cy="56" r="1" fill="#C9E2FF"/>
<circle cx="32" cy="56" r="1" fill="#C9E2FF"/>
<circle cx="40" cy="56" r="1" fill="#C9E2FF"/>
<circle cx="48" cy="56" r="1" fill="#C9E2FF"/>
<circle cx="56" cy="56" r="1" fill="#C9E2FF"/>
<circle cx="64" cy="56" r="1" fill="#C9E2FF"/>
<circle cx="72" cy="56" r="1" fill="#C9E2FF"/>
<circle cx="80" cy="56" r="1" fill="#C9E2FF"/>
<circle cx="88" cy="56" r="1" fill="#C9E2FF"/>
<circle cx="96" cy="56" r="1" fill="#C9E2FF"/>
<circle cx="104" cy="56" r="1" fill="#C9E2FF"/>
<circle cx="112" cy="56" r="1" fill="#C9E2FF"/>
<circle cx="120" cy="56" r="1" fill="#C9E2FF"/>
<circle cx="128" cy="56" r="1" fill="#C9E2FF"/>
<circle cx="136" cy="56" r="1" fill="#C9E2FF"/>
<circle cx="144" cy="56" r="1" fill="#C9E2FF"/>
<circle cx="152" cy="56" r="1" fill="#C9E2FF"/>
<circle cx="160" cy="56" r="1" fill="#C9E2FF"/>
<circle cx="168" cy="56" r="1" fill="#C9E2FF"/>
<circle cx="176" cy="56" r="1" fill="#C9E2FF"/>
<circle cx="184" cy="56" r="1" fill="#C9E2FF"/>
<circle cx="192" cy="56" r="1" fill="#C9E2FF"/>
<circle cx="200" cy="56" r="1" fill="#C9E2FF"/>
<circle cx="208" cy="56" r="1" fill="#C9E2FF"/>
<circle cx="216" cy="56" r="1" fill="#C9E2FF"/>
<circle cx="224" cy="56" r="1" fill="#C9E2FF"/>
<circle cx="232" cy="56" r="1" fill="#C9E2FF"/>
<circle cx="240" cy="56" r="1" fill="#C9E2FF"/>
<circle cx="248" cy="56" r="1" fill="#C9E2FF"/>
<circle cx="256" cy="56" r="1" fill="#C9E2FF"/>
<circle cx="264" cy="56" r="1" fill="#C9E2FF"/>
<circle cx="272" cy="56" r="1" fill="#C9E2FF"/>
<circle cx="280" cy="56" r="1" fill="#C9E2FF"/>
<circle cx="8" cy="64" r="1" fill="#C9E2FF"/>
<circle cx="16" cy="64" r="1" fill="#C9E2FF"/>
<circle cx="24" cy="64" r="1" fill="#C9E2FF"/>
<circle cx="32" cy="64" r="1" fill="#C9E2FF"/>
<circle cx="40" cy="64" r="1" fill="#C9E2FF"/>
<circle cx="48" cy="64" r="1" fill="#C9E2FF"/>
<circle cx="56" cy="64" r="1" fill="#C9E2FF"/>
<circle cx="64" cy="64" r="1" fill="#C9E2FF"/>
<circle cx="72" cy="64" r="1" fill="#C9E2FF"/>
<circle cx="80" cy="64" r="1" fill="#C9E2FF"/>
<circle cx="88" cy="64" r="1" fill="#C9E2FF"/>
<circle cx="96" cy="64" r="1" fill="#C9E2FF"/>
<circle cx="104" cy="64" r="1" fill="#C9E2FF"/>
<circle cx="112" cy="64" r="1" fill="#C9E2FF"/>
<circle cx="120" cy="64" r="1" fill="#C9E2FF"/>
<circle cx="128" cy="64" r="1" fill="#C9E2FF"/>
<circle cx="136" cy="64" r="1" fill="#C9E2FF"/>
<circle cx="144" cy="64" r="1" fill="#C9E2FF"/>
<circle cx="152" cy="64" r="1" fill="#C9E2FF"/>
<circle cx="160" cy="64" r="1" fill="#C9E2FF"/>
<circle cx="168" cy="64" r="1" fill="#C9E2FF"/>
<circle cx="176" cy="64" r="1" fill="#C9E2FF"/>
<circle cx="184" cy="64" r="1" fill="#C9E2FF"/>
<circle cx="192" cy="64" r="1" fill="#C9E2FF"/>
<circle cx="200" cy="64" r="1" fill="#C9E2FF"/>
<circle cx="208" cy="64" r="1" fill="#C9E2FF"/>
<circle cx="216" cy="64" r="1" fill="#C9E2FF"/>
<circle cx="224" cy="64" r="1" fill="#C9E2FF"/>
<circle cx="232" cy="64" r="1" fill="#C9E2FF"/>
<circle cx="240" cy="64" r="1" fill="#C9E2FF"/>
<circle cx="248" cy="64" r="1" fill="#C9E2FF"/>
<circle cx="256" cy="64" r="1" fill="#C9E2FF"/>
<circle cx="264" cy="64" r="1" fill="#C9E2FF"/>
<circle cx="272" cy="64" r="1" fill="#C9E2FF"/>
<circle cx="280" cy="64" r="1" fill="#C9E2FF"/>
<circle cx="8" cy="72" r="1" fill="#C9E2FF"/>
<circle cx="16" cy="72" r="1" fill="#C9E2FF"/>
<circle cx="24" cy="72" r="1" fill="#C9E2FF"/>
<circle cx="32" cy="72" r="1" fill="#C9E2FF"/>
<circle cx="40" cy="72" r="1" fill="#C9E2FF"/>
<circle cx="48" cy="72" r="1" fill="#C9E2FF"/>
<circle cx="56" cy="72" r="1" fill="#C9E2FF"/>
<circle cx="64" cy="72" r="1" fill="#C9E2FF"/>
<circle cx="72" cy="72" r="1" fill="#C9E2FF"/>
<circle cx="80" cy="72" r="1" fill="#C9E2FF"/>
<circle cx="88" cy="72" r="1" fill="#C9E2FF"/>
<circle cx="96" cy="72" r="1" fill="#C9E2FF"/>
<circle cx="104" cy="72" r="1" fill="#C9E2FF"/>
<circle cx="112" cy="72" r="1" fill="#C9E2FF"/>
<circle cx="120" cy="72" r="1" fill="#C9E2FF"/>
<circle cx="128" cy="72" r="1" fill="#C9E2FF"/>
<circle cx="136" cy="72" r="1" fill="#C9E2FF"/>
<circle cx="144" cy="72" r="1" fill="#C9E2FF"/>
<circle cx="152" cy="72" r="1" fill="#C9E2FF"/>
<circle cx="160" cy="72" r="1" fill="#C9E2FF"/>
<circle cx="168" cy="72" r="1" fill="#C9E2FF"/>
<circle cx="176" cy="72" r="1" fill="#C9E2FF"/>
<circle cx="184" cy="72" r="1" fill="#C9E2FF"/>
<circle cx="192" cy="72" r="1" fill="#C9E2FF"/>
<circle cx="200" cy="72" r="1" fill="#C9E2FF"/>
<circle cx="208" cy="72" r="1" fill="#C9E2FF"/>
<circle cx="216" cy="72" r="1" fill="#C9E2FF"/>
<circle cx="224" cy="72" r="1" fill="#C9E2FF"/>
<circle cx="232" cy="72" r="1" fill="#C9E2FF"/>
<circle cx="240" cy="72" r="1" fill="#C9E2FF"/>
<circle cx="248" cy="72" r="1" fill="#C9E2FF"/>
<circle cx="256" cy="72" r="1" fill="#C9E2FF"/>
<circle cx="264" cy="72" r="1" fill="#C9E2FF"/>
<circle cx="272" cy="72" r="1" fill="#C9E2FF"/>
<circle cx="280" cy="72" r="1" fill="#C9E2FF"/>
<circle cx="8" cy="80" r="1" fill="#C9E2FF"/>
<circle cx="16" cy="80" r="1" fill="#C9E2FF"/>
<circle cx="24" cy="80" r="1" fill="#C9E2FF"/>
<circle cx="32" cy="80" r="1" fill="#C9E2FF"/>
<circle cx="40" cy="80" r="1" fill="#C9E2FF"/>
<circle cx="48" cy="80" r="1" fill="#C9E2FF"/>
<circle cx="56" cy="80" r="1" fill="#C9E2FF"/>
<circle cx="64" cy="80" r="1" fill="#C9E2FF"/>
<circle cx="72" cy="80" r="1" fill="#C9E2FF"/>
<circle cx="80" cy="80" r="1" fill="#C9E2FF"/>
<circle cx="88" cy="80" r="1" fill="#C9E2FF"/>
<circle cx="96" cy="80" r="1" fill="#C9E2FF"/>
<circle cx="104" cy="80" r="1" fill="#C9E2FF"/>
<circle cx="112" cy="80" r="1" fill="#C9E2FF"/>
<circle cx="120" cy="80" r="1" fill="#C9E2FF"/>
<circle cx="128" cy="80" r="1" fill="#C9E2FF"/>
<circle cx="136" cy="80" r="1" fill="#C9E2FF"/>
<circle cx="144" cy="80" r="1" fill="#C9E2FF"/>
<circle cx="152" cy="80" r="1" fill="#C9E2FF"/>
<circle cx="160" cy="80" r="1" fill="#C9E2FF"/>
<circle cx="168" cy="80" r="1" fill="#C9E2FF"/>
<circle cx="176" cy="80" r="1" fill="#C9E2FF"/>
<circle cx="184" cy="80" r="1" fill="#C9E2FF"/>
<circle cx="192" cy="80" r="1" fill="#C9E2FF"/>
<circle cx="200" cy="80" r="1" fill="#C9E2FF"/>
<circle cx="208" cy="80" r="1" fill="#C9E2FF"/>
<circle cx="216" cy="80" r="1" fill="#C9E2FF"/>
<circle cx="224" cy="80" r="1" fill="#C9E2FF"/>
<circle cx="232" cy="80" r="1" fill="#C9E2FF"/>
<circle cx="240" cy="80" r="1" fill="#C9E2FF"/>
<circle cx="248" cy="80" r="1" fill="#C9E2FF"/>
<circle cx="256" cy="80" r="1" fill="#C9E2FF"/>
<circle cx="264" cy="80" r="1" fill="#C9E2FF"/>
<circle cx="272" cy="80" r="1" fill="#C9E2FF"/>
<circle cx="280" cy="80" r="1" fill="#C9E2FF"/>
<circle cx="8" cy="88" r="1" fill="#C9E2FF"/>
<circle cx="16" cy="88" r="1" fill="#C9E2FF"/>
<circle cx="24" cy="88" r="1" fill="#C9E2FF"/>
<circle cx="32" cy="88" r="1" fill="#C9E2FF"/>
<circle cx="40" cy="88" r="1" fill="#C9E2FF"/>
<circle cx="48" cy="88" r="1" fill="#C9E2FF"/>
<circle cx="56" cy="88" r="1" fill="#C9E2FF"/>
<circle cx="64" cy="88" r="1" fill="#C9E2FF"/>
<circle cx="72" cy="88" r="1" fill="#C9E2FF"/>
<circle cx="80" cy="88" r="1" fill="#C9E2FF"/>
<circle cx="88" cy="88" r="1" fill="#C9E2FF"/>
<circle cx="96" cy="88" r="1" fill="#C9E2FF"/>
<circle cx="104" cy="88" r="1" fill="#C9E2FF"/>
<circle cx="112" cy="88" r="1" fill="#C9E2FF"/>
<circle cx="120" cy="88" r="1" fill="#C9E2FF"/>
<circle cx="128" cy="88" r="1" fill="#C9E2FF"/>
<circle cx="136" cy="88" r="1" fill="#C9E2FF"/>
<circle cx="144" cy="88" r="1" fill="#C9E2FF"/>
<circle cx="152" cy="88" r="1" fill="#C9E2FF"/>
<circle cx="160" cy="88" r="1" fill="#C9E2FF"/>
<circle cx="168" cy="88" r="1" fill="#C9E2FF"/>
<circle cx="176" cy="88" r="1" fill="#C9E2FF"/>
<circle cx="184" cy="88" r="1" fill="#C9E2FF"/>
<circle cx="192" cy="88" r="1" fill="#C9E2FF"/>
<circle cx="200" cy="88" r="1" fill="#C9E2FF"/>
<circle cx="208" cy="88" r="1" fill="#C9E2FF"/>
<circle cx="216" cy="88" r="1" fill="#C9E2FF"/>
<circle cx="224" cy="88" r="1" fill="#C9E2FF"/>
<circle cx="232" cy="88" r="1" fill="#C9E2FF"/>
<circle cx="240" cy="88" r="1" fill="#C9E2FF"/>
<circle cx="248" cy="88" r="1" fill="#C9E2FF"/>
<circle cx="256" cy="88" r="1" fill="#C9E2FF"/>
<circle cx="264" cy="88" r="1" fill="#C9E2FF"/>
<circle cx="272" cy="88" r="1" fill="#C9E2FF"/>
<circle cx="280" cy="88" r="1" fill="#C9E2FF"/>
<circle cx="8" cy="96" r="1" fill="#C9E2FF"/>
<circle cx="16" cy="96" r="1" fill="#C9E2FF"/>
<circle cx="24" cy="96" r="1" fill="#C9E2FF"/>
<circle cx="32" cy="96" r="1" fill="#C9E2FF"/>
<circle cx="40" cy="96" r="1" fill="#C9E2FF"/>
<circle cx="48" cy="96" r="1" fill="#C9E2FF"/>
<circle cx="56" cy="96" r="1" fill="#C9E2FF"/>
<circle cx="64" cy="96" r="1" fill="#C9E2FF"/>
<circle cx="72" cy="96" r="1" fill="#C9E2FF"/>
<circle cx="80" cy="96" r="1" fill="#C9E2FF"/>
<circle cx="88" cy="96" r="1" fill="#C9E2FF"/>
<circle cx="96" cy="96" r="1" fill="#C9E2FF"/>
<circle cx="104" cy="96" r="1" fill="#C9E2FF"/>
<circle cx="112" cy="96" r="1" fill="#C9E2FF"/>
<circle cx="120" cy="96" r="1" fill="#C9E2FF"/>
<circle cx="128" cy="96" r="1" fill="#C9E2FF"/>
<circle cx="136" cy="96" r="1" fill="#C9E2FF"/>
<circle cx="144" cy="96" r="1" fill="#C9E2FF"/>
<circle cx="152" cy="96" r="1" fill="#C9E2FF"/>
<circle cx="160" cy="96" r="1" fill="#C9E2FF"/>
<circle cx="168" cy="96" r="1" fill="#C9E2FF"/>
<circle cx="176" cy="96" r="1" fill="#C9E2FF"/>
<circle cx="184" cy="96" r="1" fill="#C9E2FF"/>
<circle cx="192" cy="96" r="1" fill="#C9E2FF"/>
<circle cx="200" cy="96" r="1" fill="#C9E2FF"/>
<circle cx="208" cy="96" r="1" fill="#C9E2FF"/>
<circle cx="216" cy="96" r="1" fill="#C9E2FF"/>
<circle cx="224" cy="96" r="1" fill="#C9E2FF"/>
<circle cx="232" cy="96" r="1" fill="#C9E2FF"/>
<circle cx="240" cy="96" r="1" fill="#C9E2FF"/>
<circle cx="248" cy="96" r="1" fill="#C9E2FF"/>
<circle cx="256" cy="96" r="1" fill="#C9E2FF"/>
<circle cx="264" cy="96" r="1" fill="#C9E2FF"/>
<circle cx="272" cy="96" r="1" fill="#C9E2FF"/>
<circle cx="280" cy="96" r="1" fill="#C9E2FF"/>
<circle cx="8" cy="104" r="1" fill="#C9E2FF"/>
<circle cx="16" cy="104" r="1" fill="#C9E2FF"/>
<circle cx="24" cy="104" r="1" fill="#C9E2FF"/>
<circle cx="32" cy="104" r="1" fill="#C9E2FF"/>
<circle cx="40" cy="104" r="1" fill="#C9E2FF"/>
<circle cx="48" cy="104" r="1" fill="#C9E2FF"/>
<circle cx="56" cy="104" r="1" fill="#C9E2FF"/>
<circle cx="64" cy="104" r="1" fill="#C9E2FF"/>
<circle cx="72" cy="104" r="1" fill="#C9E2FF"/>
<circle cx="80" cy="104" r="1" fill="#C9E2FF"/>
<circle cx="88" cy="104" r="1" fill="#C9E2FF"/>
<circle cx="96" cy="104" r="1" fill="#C9E2FF"/>
<circle cx="104" cy="104" r="1" fill="#C9E2FF"/>
<circle cx="112" cy="104" r="1" fill="#C9E2FF"/>
<circle cx="120" cy="104" r="1" fill="#C9E2FF"/>
<circle cx="128" cy="104" r="1" fill="#C9E2FF"/>
<circle cx="136" cy="104" r="1" fill="#C9E2FF"/>
<circle cx="144" cy="104" r="1" fill="#C9E2FF"/>
<circle cx="152" cy="104" r="1" fill="#C9E2FF"/>
<circle cx="160" cy="104" r="1" fill="#C9E2FF"/>
<circle cx="168" cy="104" r="1" fill="#C9E2FF"/>
<circle cx="176" cy="104" r="1" fill="#C9E2FF"/>
<circle cx="184" cy="104" r="1" fill="#C9E2FF"/>
<circle cx="192" cy="104" r="1" fill="#C9E2FF"/>
<circle cx="200" cy="104" r="1" fill="#C9E2FF"/>
<circle cx="208" cy="104" r="1" fill="#C9E2FF"/>
<circle cx="216" cy="104" r="1" fill="#C9E2FF"/>
<circle cx="224" cy="104" r="1" fill="#C9E2FF"/>
<circle cx="232" cy="104" r="1" fill="#C9E2FF"/>
<circle cx="240" cy="104" r="1" fill="#C9E2FF"/>
<circle cx="248" cy="104" r="1" fill="#C9E2FF"/>
<circle cx="256" cy="104" r="1" fill="#C9E2FF"/>
<circle cx="264" cy="104" r="1" fill="#C9E2FF"/>
<circle cx="272" cy="104" r="1" fill="#C9E2FF"/>
<circle cx="280" cy="104" r="1" fill="#C9E2FF"/>
<circle cx="8" cy="112" r="1" fill="#C9E2FF"/>
<circle cx="16" cy="112" r="1" fill="#C9E2FF"/>
<circle cx="24" cy="112" r="1" fill="#C9E2FF"/>
<circle cx="32" cy="112" r="1" fill="#C9E2FF"/>
<circle cx="40" cy="112" r="1" fill="#C9E2FF"/>
<circle cx="48" cy="112" r="1" fill="#C9E2FF"/>
<circle cx="56" cy="112" r="1" fill="#C9E2FF"/>
<circle cx="64" cy="112" r="1" fill="#C9E2FF"/>
<circle cx="72" cy="112" r="1" fill="#C9E2FF"/>
<circle cx="80" cy="112" r="1" fill="#C9E2FF"/>
<circle cx="88" cy="112" r="1" fill="#C9E2FF"/>
<circle cx="96" cy="112" r="1" fill="#C9E2FF"/>
<circle cx="104" cy="112" r="1" fill="#C9E2FF"/>
<circle cx="112" cy="112" r="1" fill="#C9E2FF"/>
<circle cx="120" cy="112" r="1" fill="#C9E2FF"/>
<circle cx="128" cy="112" r="1" fill="#C9E2FF"/>
<circle cx="136" cy="112" r="1" fill="#C9E2FF"/>
<circle cx="144" cy="112" r="1" fill="#C9E2FF"/>
<circle cx="152" cy="112" r="1" fill="#C9E2FF"/>
<circle cx="160" cy="112" r="1" fill="#C9E2FF"/>
<circle cx="168" cy="112" r="1" fill="#C9E2FF"/>
<circle cx="176" cy="112" r="1" fill="#C9E2FF"/>
<circle cx="184" cy="112" r="1" fill="#C9E2FF"/>
<circle cx="192" cy="112" r="1" fill="#C9E2FF"/>
<circle cx="200" cy="112" r="1" fill="#C9E2FF"/>
<circle cx="208" cy="112" r="1" fill="#C9E2FF"/>
<circle cx="216" cy="112" r="1" fill="#C9E2FF"/>
<circle cx="224" cy="112" r="1" fill="#C9E2FF"/>
<circle cx="232" cy="112" r="1" fill="#C9E2FF"/>
<circle cx="240" cy="112" r="1" fill="#C9E2FF"/>
<circle cx="248" cy="112" r="1" fill="#C9E2FF"/>
<circle cx="256" cy="112" r="1" fill="#C9E2FF"/>
<circle cx="264" cy="112" r="1" fill="#C9E2FF"/>
<circle cx="272" cy="112" r="1" fill="#C9E2FF"/>
<circle cx="280" cy="112" r="1" fill="#C9E2FF"/>
<circle cx="120" cy="120" r="1" fill="#C9E2FF"/>
<circle cx="128" cy="120" r="1" fill="#C9E2FF"/>
<circle cx="136" cy="120" r="1" fill="#C9E2FF"/>
<circle cx="144" cy="120" r="1" fill="#C9E2FF"/>
<circle cx="152" cy="120" r="1" fill="#C9E2FF"/>
<circle cx="160" cy="120" r="1" fill="#C9E2FF"/>
<circle cx="168" cy="120" r="1" fill="#C9E2FF"/>
<rect x="0.5" y="0.5" width="287" height="119" fill="url(#paint0_radial_182_8085)" stroke="#ECECEC"/>
<path d="M120.301 58.0642C120.405 56.943 121.399 56.1189 122.52 56.2236C123.642 56.3282 124.466 57.322 124.361 58.4432L123.923 63.1351C123.818 64.2563 122.825 65.0804 121.703 64.9758C120.582 64.8711 119.758 63.8773 119.863 62.7561L120.301 58.0642Z" fill="#B5D5FF"/>
<path d="M126.796 58.6705C126.901 57.5493 127.894 56.7252 129.015 56.8299C130.137 56.9346 130.961 57.9283 130.856 59.0495L130.418 63.7414C130.313 64.8627 129.32 65.6867 128.198 65.5821C127.077 65.4774 126.253 64.4836 126.358 63.3624L126.796 58.6705Z" fill="#B5D5FF"/>
<path fill-rule="evenodd" clip-rule="evenodd" d="M132.355 49.2806C124.895 47.5082 118.736 46.8909 110.903 47.2733C108.923 47.37 107.613 47.4379 106.6 47.634C105.661 47.8158 105.112 48.0858 104.637 48.5262C103.654 49.4381 103.431 50.5524 102.944 54.466C102.464 58.3121 102.378 61.7911 102.462 65.7226C102.507 67.8175 102.541 69.2317 102.703 70.3196C102.858 71.3515 103.108 71.9219 103.486 72.3762C103.868 72.834 104.38 73.1795 105.348 73.5115C106.372 73.8626 107.732 74.1441 109.754 74.5576C116.293 75.8951 121.238 76.353 127.935 76.2587C130.023 76.2293 131.434 76.2063 132.521 76.0539C133.553 75.9091 134.124 75.6667 134.577 75.2989C135.021 74.9388 135.382 74.4187 135.751 73.3849C136.135 72.3062 136.463 70.862 136.94 68.7401C137.791 64.9542 138.461 61.622 138.819 57.9366C139.202 53.9963 139.226 52.8673 138.422 51.743C138.034 51.1999 137.536 50.8202 136.627 50.4578C135.646 50.0665 134.336 49.751 132.355 49.2806ZM110.74 43.9243C118.899 43.5259 125.374 44.1757 133.13 46.0184L133.244 46.0453C135.08 46.4816 136.632 46.8501 137.869 47.3431C139.204 47.8753 140.295 48.5957 141.15 49.7938C142.765 52.0537 142.522 54.5336 142.198 57.8282C142.184 57.9709 142.17 58.115 142.156 58.2608C141.778 62.1575 141.071 65.6519 140.211 69.4758L140.188 69.5769C139.74 71.5724 139.37 73.2168 138.909 74.5099C138.425 75.8696 137.784 77.0143 136.69 77.9022C135.606 78.7824 134.384 79.1784 132.987 79.3744C131.667 79.5595 130.044 79.5823 128.088 79.6098L127.982 79.6113C121.047 79.709 115.861 79.2291 109.082 77.8426L108.977 77.8212C107.087 77.4346 105.513 77.1128 104.26 76.6831C102.929 76.2263 101.811 75.6016 100.912 74.524C100.01 73.4427 99.5971 72.2194 99.3872 70.8154C99.1892 69.4913 99.1543 67.8623 99.1123 65.9007L99.11 65.7945C99.0235 61.7625 99.1106 58.1105 99.6164 54.0513C99.6348 53.904 99.6528 53.7583 99.6706 53.6143C100.074 50.3519 100.376 47.9048 102.357 46.0678C103.408 45.0932 104.587 44.6085 105.963 44.3422C107.239 44.0952 108.79 44.0195 110.626 43.9299C110.664 43.928 110.702 43.9262 110.74 43.9243Z" fill="#B5D5FF"/>
<path d="M172.763 58.3228C170.26 57.0313 167.184 58.0136 165.893 60.5167C165.361 61.5474 165.765 62.8141 166.796 63.3458L189.902 75.2669C190.933 75.7987 192.199 75.3942 192.731 74.3635C194.022 71.8604 193.04 68.7843 190.537 67.4928L172.763 58.3228Z" fill="#E9F3FF" stroke="#75ABF7" stroke-width="2.2"/>
<path d="M185.011 56.3744C182.508 55.083 179.432 56.0652 178.141 58.5684C177.609 59.5991 178.013 60.8657 179.044 61.3975L185.156 64.5511C186.187 65.0829 187.454 64.6784 187.986 63.6477C189.277 61.1445 188.295 58.0684 185.792 56.777L185.011 56.3744Z" fill="#E9F3FF" stroke="#75ABF7" stroke-width="2.2"/>
<path d="M171.793 37.3757C172.675 37.4351 173.242 36.9216 173.288 36.2352C173.291 36.196 173.293 36.1567 173.296 36.1175C173.351 35.2938 173.916 34.7999 174.983 34.1821C176.517 33.3397 177.734 32.5154 177.865 30.5738C178.047 27.8674 175.727 26.3323 173.06 26.1529C170.354 25.9709 168.487 27.0668 167.925 28.3883C167.809 28.6563 167.751 28.9282 167.733 29.2028C167.681 29.9676 168.262 30.4204 168.83 30.4586C169.419 30.4982 169.808 30.2683 170.169 29.8789L170.529 29.5091C171.232 28.7289 171.96 28.443 172.804 28.4997C174.078 28.5855 174.891 29.3888 174.816 30.5066C174.746 31.5461 174.028 31.9706 172.653 32.7843C171.564 33.4596 170.606 34.2227 170.501 35.7916C170.499 35.8112 170.495 35.87 170.494 35.8896C170.432 36.8115 170.891 37.3151 171.793 37.3757ZM171.437 42.0799C172.398 42.1446 173.293 41.4365 173.357 40.4754C173.423 39.4948 172.65 38.6942 171.669 38.6283C170.689 38.5623 169.813 39.2717 169.749 40.2326C169.686 41.1742 170.476 42.0153 171.437 42.0799Z" fill="#2781F6"/>
<path d="M169.912 47.6342V47.6342C169.39 50.1948 167.138 52.0343 164.525 52.0343L158.601 52.0343C156.56 52.0343 154.604 52.8505 153.169 54.3011V54.3011C149.559 57.9495 150.5 64.0487 155.042 66.4393L155.412 66.6342" stroke="#2781F6" stroke-width="2.4" stroke-linecap="round"/>
<path d="M162.412 69.1343L167.694 70.2661C168.826 70.5087 169.892 70.994 170.818 71.6885L170.967 71.8004C172.542 72.9813 173.626 74.7014 174.012 76.6314L174.412 78.6343" stroke="#2781F6" stroke-width="2.4" stroke-linecap="round"/>
<path d="M170.062 82.5874L170.248 82.959L170.604 82.7453C171.725 82.0728 173.145 82.1088 174.325 82.6088C175.517 83.1137 176.351 84.0373 176.432 85.0231C176.601 87.0649 174.693 88.952 171.82 89.1893L160.377 90.1346C159.126 90.2379 158.09 90.0119 157.361 89.5677C156.642 89.129 156.211 88.4733 156.144 87.6581C156.088 86.9797 156.222 86.1748 156.72 85.6043C157.2 85.0547 158.096 84.636 159.761 84.8739L160.192 84.9354L160.201 84.501C160.248 82.1931 162.066 80.2141 164.443 80.0177C166.921 79.8131 169.156 80.7748 170.062 82.5874Z" fill="#DAECFF" stroke="#75ABF7" stroke-width="0.769498"/>
<circle cx="160.412" cy="76.1343" r="1.5" fill="#DAECFF" stroke="#75ABF7"/>
<circle cx="156.412" cy="81.1343" r="0.5" fill="#DAECFF" stroke="#75ABF7"/>
<path d="M157.314 83.85C155.608 83.9916 154.34 85.4896 154.481 87.1958L155.308 97.1616C155.724 102.17 160.121 105.893 165.13 105.478L181.075 104.154C186.084 103.739 189.807 99.3414 189.391 94.3328L188.564 84.3671C188.423 82.6609 186.925 81.3925 185.218 81.5341L157.314 83.85Z" fill="#E9F3FF" stroke="#75ABF7" stroke-width="2.2"/>
<path d="M188.412 84.4647L191.203 84.2333C191.863 84.1786 192.443 84.6696 192.498 85.3301C192.552 85.9906 192.061 86.5704 191.401 86.6251L188.61 86.8565L188.412 84.4647Z" fill="#75ABF7"/>
<path d="M150.511 89.6605C150.457 89 150.948 88.4202 151.608 88.3654L155.395 88.0514L155.593 90.4432L151.806 90.7572C151.146 90.812 150.566 90.321 150.511 89.6605Z" fill="#75ABF7"/>
<path d="M111.178 38.5094C111.431 38.4297 111.646 38.2637 111.774 38.0479C111.903 37.8321 111.935 37.5842 111.864 37.3587L111.147 35.0846L110.431 32.8105C110.308 32.422 110.506 31.9981 110.845 31.707C111.548 31.1061 112.011 30.3121 112.152 29.4651C112.294 28.6181 112.104 27.7725 111.618 27.0776C111.131 26.3827 110.379 25.8832 109.493 25.6671C108.607 25.4511 107.645 25.5325 106.777 25.8969C106.168 25.2497 105.352 24.7921 104.429 24.5806C103.506 24.369 102.518 24.4128 101.586 24.7066C100.654 25.0004 99.8187 25.5312 99.1841 26.2335C98.5496 26.9358 98.1433 27.7787 98.0154 28.658C97.0955 28.8579 96.2614 29.3429 95.6601 30.0275C95.0588 30.7122 94.7289 31.5526 94.7286 32.4005C94.7283 33.2484 95.0577 34.0493 95.6586 34.6622C96.2595 35.275 97.0933 35.6603 98.0131 35.7502C98.4581 35.795 98.8632 36.029 98.9854 36.4167L100.419 40.9657C100.49 41.1912 100.659 41.3757 100.888 41.4788C101.117 41.5819 101.388 41.595 101.641 41.5153C101.641 41.5153 104.404 40.1771 106.275 39.5873C108.147 38.9974 111.178 38.5094 111.178 38.5094Z" stroke="#2781F6" stroke-width="2.4" stroke-linecap="round" stroke-linejoin="round"/>
</g>
<defs>
<radialGradient id="paint0_radial_182_8085" cx="0" cy="0" r="1" gradientUnits="userSpaceOnUse" gradientTransform="translate(144 60) rotate(90) scale(60 144)">
<stop offset="0.369462" stop-color="#F9F9FB" stop-opacity="0.9"/>
<stop offset="0.77" stop-color="#F9F9FB" stop-opacity="0"/>
<stop offset="0.99" stop-color="#F9F9FB" stop-opacity="0.7"/>
</radialGradient>
<clipPath id="clip0_182_8085">
<rect width="288" height="120" rx="8" fill="white"/>
</clipPath>
</defs>
</svg>
