<?xml version="1.0" encoding="UTF-8"?>
<svg version="1.1" xmlns="http://www.w3.org/2000/svg" width="512" height="512">
<path d="M0 0 C3.37045632 4.29619762 4.49849887 7.08341197 4.4699707 12.52661133 C4.47289627 13.80687698 4.47582184 15.08714264 4.47883606 16.40620422 C4.46168467 17.79815324 4.44398434 19.19009559 4.42578125 20.58203125 C4.4208423 22.0381373 4.41755325 23.49424977 4.41581726 24.95036316 C4.40622969 28.79283534 4.37185054 32.63471856 4.33294678 36.47698975 C4.30614328 39.53858944 4.29722158 42.6001082 4.28926277 45.66180611 C4.24158527 63.45947005 3.88903853 81.22157274 3 99 C4.10085937 98.68160156 5.20171875 98.36320312 6.3359375 98.03515625 C9.23260426 97.21680157 12.04554997 96.54424079 15 96 C18.06542068 95.41588783 21.02007812 94.73751742 24 93.8125 C27 93 27 93 29 94 C29 93.34 29 92.68 29 92 C29.60328125 91.87882812 30.2065625 91.75765625 30.828125 91.6328125 C31.62734375 91.46523437 32.4265625 91.29765625 33.25 91.125 C34.03890625 90.96257812 34.8278125 90.80015625 35.640625 90.6328125 C38.03334543 90.08251721 38.03334543 90.08251721 40.171875 88.8671875 C40.77515625 88.58101563 41.3784375 88.29484375 42 88 C42.66 88.33 43.32 88.66 44 89 C44 88.34 44 87.68 44 87 C46.90600261 85.74335022 48.79604584 85 52 85 C52.4640625 83.824375 52.4640625 83.824375 52.9375 82.625 C54 80 54 80 55 78 C55.66 78 56.32 78 57 78 C56.67 77.01 56.34 76.02 56 75 C56.24879484 73.19838217 56.57209856 71.40663057 56.9375 69.625 C57.96683157 63.97740077 58.13592329 58.63869971 57.97265625 52.91015625 C58 50 58 50 58.49609375 47.53125 C59.11010144 44.44693229 59.0582498 41.57934849 59 38.4375 C58.93191978 34.75691295 58.89562385 31.52882691 60 28 C60.66 28 61.32 28 62 28 C61.67 27.01 61.34 26.02 61 25 C61.77734375 22.73828125 61.77734375 22.73828125 62.9375 20.3125 C63.31777344 19.50425781 63.69804687 18.69601563 64.08984375 17.86328125 C64.39019531 17.24839844 64.69054687 16.63351563 65 16 C65.66 16 66.32 16 67 16 C67 15.01 67 14.02 67 13 C67.66 13 68.32 13 69 13 C69 12.01 69 11.02 69 10 C69.66 9.67 70.32 9.34 71 9 C71.474375 8.175 71.94875 7.35 72.4375 6.5 C74 4 74 4 77 3 C77.70125 2.236875 78.4025 1.47375 79.125 0.6875 C86.05663964 -5.79207618 93.10405958 -6.70527611 102.4453125 -6.4609375 C107.04769469 -5.86414508 110.86766275 -4.55265087 114 -1 C114 -0.01 114 0.98 114 2 C114.99 2.33 115.98 2.66 117 3 C124.25526753 13.63761645 123.29788244 28.55582721 123.2746582 40.8527832 C123.27901678 42.39835351 123.28420369 43.94392166 123.29014587 45.48948669 C123.30341578 49.64617107 123.3041287 53.80276387 123.30158257 57.95946527 C123.30050587 61.4413157 123.30541336 64.92314813 123.310188 68.40499467 C123.32123893 76.61872462 123.32174384 84.83240881 123.31567383 93.04614258 C123.3096205 101.50268962 123.32198955 109.95907086 123.3432439 118.41558963 C123.3608749 125.70000365 123.36685938 132.98436492 123.36360615 140.26879948 C123.3617975 144.60942974 123.36438882 148.94994134 123.37832069 153.29055214 C123.39092098 157.36763053 123.38893431 161.44444989 123.37590981 165.52152443 C123.37355027 167.01301665 123.37625632 168.50452726 123.38453293 169.99599838 C123.42367939 177.60098658 123.19863066 183.98828985 120 191 C120 191.99 120 192.98 120 194 C119.34 194 118.68 194 118 194 C117.6596875 195.670625 117.6596875 195.670625 117.3125 197.375 C116.01939103 202.64182339 113.55263105 207.2454811 111 212 C110.34 212 109.68 212 109 212 C108.67 213.32 108.34 214.64 108 216 C107.34 216 106.68 216 106 216 C105.34 217.65 104.68 219.3 104 221 C103.34 221 102.68 221 102 221 C101.67 222.32 101.34 223.64 101 225 C100.34 225 99.68 225 99 225 C98.814375 225.556875 98.62875 226.11375 98.4375 226.6875 C96.366945 230.01839283 93.4807366 232.20822841 90 234 C88.68 234 87.36 234 86 234 C86 234.66 86 235.32 86 236 C84.4221875 236.2165625 84.4221875 236.2165625 82.8125 236.4375 C79.20059756 236.88725246 79.20059756 236.88725246 76.5625 237.6875 C70.43289746 238.43501251 65.4793076 236.02528278 60.54296875 232.70703125 C56.09949505 227.79108693 55.55983688 222.02603739 55.61181641 215.66552734 C55.60655945 214.86299026 55.60130249 214.06045319 55.59588623 213.2335968 C55.58276329 210.60084133 55.59139502 207.9686983 55.6015625 205.3359375 C55.59953994 203.49703862 55.59662699 201.65814053 55.59286499 199.81924438 C55.58845243 195.97447028 55.59483972 192.1299059 55.60888672 188.28515625 C55.62600212 183.36111506 55.61611579 178.43756363 55.59816933 173.51354027 C55.58732319 169.71996374 55.59078123 165.92650316 55.5985527 162.13292313 C55.60055116 160.31726651 55.59810789 158.5015993 55.59111404 156.68595505 C55.58348319 154.14891442 55.59512521 151.61266536 55.61181641 149.07568359 C55.60574371 148.32854599 55.59967102 147.58140839 55.59341431 146.81163025 C55.64725862 142.38713387 56.23849122 139.50485633 59 136 C61.015625 135.3984375 61.015625 135.3984375 63.25 135.375 C67.81446564 135.12927836 70.88155243 133.93314886 75 132 C75.66 132 76.32 132 77 132 C77.33 131.34 77.66 130.68 78 130 C81.57692308 127 81.57692308 127 84 127 C84.2475 126.38125 84.495 125.7625 84.75 125.125 C86 123 86 123 88.0625 122 C89.0215625 121.505 89.0215625 121.505 90 121 C90.59070014 119.05396726 90.59070014 119.05396726 91 117 C92 116 93 115 94 114 C95.74684934 110.40925414 96.44999871 106.94167592 97 103 C96.34 103 95.68 103 95 103 C94.67 102.01 94.34 101.02 94 100 C90.71303767 99.20046862 89.28976808 98.90341064 86 100 C84.78130071 102.50447516 84.78130071 102.50447516 84 105 C83.34 105 82.68 105 82 105 C81.87625 105.598125 81.7525 106.19625 81.625 106.8125 C81 109 81 109 79 112 C78.34 112 77.68 112 77 112 C77 112.66 77 113.32 77 114 C76.195625 114.28875 75.39125 114.5775 74.5625 114.875 C71.8673532 115.73262568 71.8673532 115.73262568 71 118 C70.01 118 69.02 118 68 118 C67.67 118.66 67.34 119.32 67 120 C64.9609375 120.78125 64.9609375 120.78125 62.375 121.5 C61.47007812 121.75523437 60.56515625 122.01046875 59.6328125 122.2734375 C58.76398438 122.51320313 57.89515625 122.75296875 57 123 C55.7625 123.37125 54.525 123.7425 53.25 124.125 C50 125 50 125 46.9375 125.5 C43.80755036 126.03275739 40.99502013 126.95825387 38 128 C33.46549918 129.20323377 28.86657617 130.15981727 24.2890625 131.18359375 C21.12041916 131.97010973 18.08652855 132.94069343 15 134 C12.49231878 134.75418984 9.97938819 135.48782397 7.46484375 136.21875 C4.91489519 137.02697458 2.47352929 137.98284777 0 139 C-0.83660156 139.33 -1.67320312 139.66 -2.53515625 140 C-3.36917969 140.33 -4.20320313 140.66 -5.0625 141 C-5.89910156 141.33 -6.73570312 141.66 -7.59765625 142 C-12.55838213 143.98703411 -12.55838213 143.98703411 -16 148 C-16.66 148 -17.32 148 -18 148 C-18.66 149.32 -19.32 150.64 -20 152 C-20.66 152 -21.32 152 -22 152 C-22.33 153.65 -22.66 155.3 -23 157 C-23.66 157 -24.32 157 -25 157 C-25.144375 157.94875 -25.28875 158.8975 -25.4375 159.875 C-26 163 -26 163 -27 165 C-27.66 165 -28.32 165 -29 165 C-28.67 165.99 -28.34 166.98 -28 168 C-28.4375 170.6875 -28.4375 170.6875 -29 173 C-29.66 173 -30.32 173 -31 173 C-30.34 173.94875 -29.68 174.8975 -29 175.875 C-27 179 -27 179 -27 181 C-23.63147485 181.0565109 -23.63147485 181.0565109 -20 180 C-18.22495908 177.56565817 -17.15917589 175.7114636 -16 173 C-15.66226563 172.24460937 -15.32453125 171.48921875 -14.9765625 170.7109375 C-14.28879734 169.16475868 -13.60257601 167.61789214 -12.91796875 166.0703125 C-10.48620853 160.5859171 -7.9912413 157.99806506 -3.03515625 154.72265625 C-1 154 -1 154 1.25390625 154.87109375 C1.83011719 155.24363281 2.40632813 155.61617187 3 156 C2.835 157.13566406 2.67 158.27132812 2.5 159.44140625 C1.93500883 163.96233034 1.92725334 168.38889359 2 172.9375 C2.11327287 188.80055649 2.11327287 188.80055649 -1 196 C-1.144375 196.9075 -1.28875 197.815 -1.4375 198.75 C-3.02490375 207.92166614 -7.19814342 215.10771778 -12 223 C-12.33 223.66 -12.66 224.32 -13 225 C-13.66 225 -14.32 225 -15 225 C-15.33 226.32 -15.66 227.64 -16 229 C-16.99 229 -17.98 229 -19 229 C-19.66 230.65 -20.32 232.3 -21 234 C-21.99 234 -22.98 234 -24 234 C-24 234.66 -24 235.32 -24 236 C-29.56552221 239.75067801 -34.25960892 241.11920306 -41 241 C-47.96526534 239.53954114 -52.28230796 237.37292705 -57 232 C-57 231.01 -57 230.02 -57 229 C-57.99 228.67 -58.98 228.34 -60 228 C-63.66744503 219.78492314 -65.15982737 211.95033251 -65 203 C-65.33 202.67 -65.66 202.34 -66 202 C-66.09861732 200.18228051 -66.12632133 198.36069103 -66.12698364 196.54029846 C-66.12980347 195.3554184 -66.13262329 194.17053833 -66.13552856 192.94975281 C-66.13350433 191.63803604 -66.1314801 190.32631927 -66.12939453 188.97485352 C-66.13074856 187.58880568 -66.1325285 186.20275821 -66.13470459 184.81671143 C-66.13927915 181.04195444 -66.13748916 177.26722465 -66.1343255 173.49246716 C-66.13180151 169.54957837 -66.1341396 165.60669198 -66.13571167 161.6638031 C-66.13753346 155.040106 -66.13512702 148.41642002 -66.13037109 141.79272461 C-66.1249307 134.12707201 -66.12668947 126.46144602 -66.1321975 118.79579407 C-66.13673102 112.22424484 -66.13737793 105.65270363 -66.13475883 99.08115333 C-66.13319709 95.15193778 -66.13299945 91.22273473 -66.13629532 87.29351997 C-66.13917742 83.59917578 -66.13719207 79.90486598 -66.13140106 76.21052551 C-66.12944112 74.20227608 -66.13242466 72.19402375 -66.13552856 70.18577576 C-66.13270874 68.99807587 -66.12988892 67.81037598 -66.12698364 66.58668518 C-66.12660662 65.5500451 -66.12622959 64.51340502 -66.12584114 63.4453516 C-66 61 -66 61 -65 59 C-64.96929799 56.23681915 -65.0671105 53.48816031 -65.16015625 50.7265625 C-64.99337571 47.88722549 -64.35462169 46.44973731 -63 44 C-62.87625 42.96875 -62.7525 41.9375 -62.625 40.875 C-61.94679934 36.67015588 -60.61705213 33.25060022 -58.96875 29.34765625 C-57.91421122 26.90277601 -57.91421122 26.90277601 -57.0625 23.875 C-55.60938858 19.94305145 -53.6086836 16.29429916 -51 13 C-50.34 13 -49.68 13 -49 13 C-49 12.34 -49 11.68 -49 11 C-48.34 11 -47.68 11 -47 11 C-47 10.34 -47 9.68 -47 9 C-46.34 9 -45.68 9 -45 9 C-44.67 8.01 -44.34 7.02 -44 6 C-39.92422584 2.28385297 -34.66177503 -2 -29 -2 C-28.67 -2.66 -28.34 -3.32 -28 -4 C-17.98785846 -7.33738051 -8.64389273 -6.18890959 0 0 Z M87.25 50.6875 C86.43015625 51.37199219 85.6103125 52.05648437 84.765625 52.76171875 C82.67303481 54.89025254 82.67303481 54.89025254 83.234375 57.76953125 C83.48703125 58.50558594 83.7396875 59.24164063 84 60 C84.66 60 85.32 60 86 60 C86.2475 60.598125 86.495 61.19625 86.75 61.8125 C88.20864875 64.36513531 89.43626682 65.56732558 92 67 C95.13822943 67 96.22138313 65.81024303 98.625 63.75 C101.67701414 60.28079009 101.67701414 60.28079009 103 56 C100.99166326 52.13781396 98.79138947 49.20145195 95 47 C91.12208267 47 90.14984247 48.1893873 87.25 50.6875 Z " fill="#CE0341" transform="translate(228,137)"/>
<path d="M0 0 C3 3 3 3 3.36749268 5.77407837 C3.36384705 6.90002411 3.36020142 8.02596985 3.35644531 9.18603516 C3.35944641 10.4665274 3.36244751 11.74701965 3.36553955 13.0663147 C3.35350499 14.4739011 3.3410207 15.88148372 3.328125 17.2890625 C3.32506036 18.74945887 3.32318961 20.20985817 3.32244873 21.67025757 C3.31783545 24.74887126 3.30340296 27.82722494 3.28125 30.90576172 C3.25350949 34.77266925 3.24217208 38.63936974 3.23744965 42.50636673 C3.21328121 60.35751711 2.90344956 78.16801514 2 96 C2.66 96.33 3.32 96.66 4 97 C2.02 97.495 2.02 97.495 0 98 C0 65.66 0 33.32 0 0 Z " fill="#D8153C" transform="translate(229,140)"/>
<path d="M0 0 C0.33 0 0.66 0 1 0 C1.20047663 12.24806478 1.38416418 24.49625634 1.54658794 36.74488831 C1.62253674 42.43278904 1.70420535 48.12048631 1.79907227 53.80810547 C1.89045934 59.29983862 1.96665614 64.7915941 2.03244972 70.28369141 C2.06016099 72.37605616 2.09328931 74.46835661 2.13199425 76.56054688 C2.18538807 79.49740742 2.21928741 82.43390904 2.2487793 85.37109375 C2.26891586 86.2306517 2.28905243 87.09020966 2.30979919 87.97581482 C2.34003483 93.68683584 1.18208983 97.72916016 -1 103 C-1 103.99 -1 104.98 -1 106 C-1.66 106 -2.32 106 -3 106 C-3.33 107.65 -3.66 109.3 -4 111 C-4.33 111 -4.66 111 -5 111 C-4.3147541 102.8852459 -4.3147541 102.8852459 -3 99.1875 C0.39068036 88.37970637 -0.78888383 75.69960922 -0.68359375 64.453125 C-0.66297953 62.5869709 -0.64198204 60.72082099 -0.62062073 58.85467529 C-0.56586073 53.98209062 -0.51625154 49.10946709 -0.46777344 44.23681641 C-0.41721838 39.24898896 -0.36171121 34.26121677 -0.30664062 29.2734375 C-0.19962405 19.5156724 -0.09805762 9.75785896 0 0 Z " fill="#B91D4D" transform="translate(349,225)"/>
<path d="M0 0 C0.99 0.495 0.99 0.495 2 1 C3.29721995 8.69990873 3.12887067 16.43400443 3.09765625 24.22265625 C3.09578719 25.57742765 3.0943656 26.93219973 3.09336853 28.28697205 C3.08958172 31.82308881 3.07978499 35.35916338 3.06866455 38.89526367 C3.05836717 42.51545644 3.05385321 46.13565613 3.04882812 49.75585938 C3.03815862 56.83725667 3.02112928 63.91862555 3 71 C2.34 71 1.68 71 1 71 C0.67 47.57 0.34 24.14 0 0 Z " fill="#D52B4A" transform="translate(348,152)"/>
<path d="M0 0 C0 3 0 3 -0.9375 6.625 C-2.72177001 13.59504865 -3.07062704 20.68466639 -3.46484375 27.84375 C-3.50373215 28.54374115 -3.54262054 29.2437323 -3.58268738 29.9649353 C-3.74382962 32.89205878 -3.90354617 35.81914808 -4.04956055 38.74707031 C-4.15849002 40.90486637 -4.27938563 43.06171421 -4.40234375 45.21875 C-4.46929443 46.49685547 -4.53624512 47.77496094 -4.60522461 49.09179688 C-4.73550049 50.05150391 -4.86577637 51.01121094 -5 52 C-5.99 52.495 -5.99 52.495 -7 53 C-7.02913821 49.4375173 -7.04684529 45.87506546 -7.0625 42.3125 C-7.07087891 41.30509766 -7.07925781 40.29769531 -7.08789062 39.25976562 C-7.09272461 37.79506836 -7.09272461 37.79506836 -7.09765625 36.30078125 C-7.10289307 35.40528564 -7.10812988 34.50979004 -7.11352539 33.5871582 C-6.99825363 30.96020148 -6.53997974 28.56880994 -6 26 C-5.95716856 23.81291936 -5.95945077 21.62462414 -6 19.4375 C-6.06808022 15.75691295 -6.10437615 12.52882691 -5 9 C-4.34 9 -3.68 9 -3 9 C-3.33 8.01 -3.66 7.02 -4 6 C-3.1875 3.375 -3.1875 3.375 -2 1 C-1.34 0.67 -0.68 0.34 0 0 Z " fill="#CD2548" transform="translate(293,156)"/>
<path d="M0 0 C0.33 0 0.66 0 1 0 C1 17.49 1 34.98 1 53 C1.66 53.33 2.32 53.66 3 54 C1.02 54.495 1.02 54.495 -1 55 C-1.02519898 50.0602249 -1.04308894 45.12048927 -1.05493164 40.18066406 C-1.0598818 38.50910794 -1.06664362 36.83755594 -1.07543945 35.16601562 C-1.13565888 23.40551632 -0.78251018 11.73500615 0 0 Z " fill="#D36084" transform="translate(230,183)"/>
<path d="M0 0 C0.33 0 0.66 0 1 0 C1.00808685 0.59166962 1.01617371 1.18333923 1.02450562 1.79293823 C1.11103917 7.99074598 1.21055972 14.18825167 1.31738281 20.38574219 C1.35549778 22.69395852 1.39038007 25.00223072 1.421875 27.31054688 C1.46790723 30.64212922 1.52583679 33.97333272 1.5859375 37.3046875 C1.59748871 38.32488983 1.60903992 39.34509216 1.62094116 40.39620972 C1.75072953 46.79925598 2.51633633 52.76869823 4 59 C1 58 1 58 -0.17904663 55.77705383 C-1.04236864 52.85667882 -1.20773684 50.60417358 -1.13525391 47.56713867 C-1.11508209 46.50641647 -1.09491028 45.44569427 -1.0741272 44.35282898 C-1.04193085 43.2193251 -1.0097345 42.08582123 -0.9765625 40.91796875 C-0.95153656 39.74865311 -0.92651062 38.57933746 -0.90072632 37.37458801 C-0.81865213 33.64525833 -0.72201224 29.91646808 -0.625 26.1875 C-0.5667477 23.65692297 -0.5094447 21.1263239 -0.453125 18.59570312 C-0.31309183 12.39683764 -0.16110293 6.19835175 0 0 Z " fill="#B90E43" transform="translate(285,308)"/>
<path d="M0 0 C0 0.66 0 1.32 0 2 C-19.94393512 9.52926657 -19.94393512 9.52926657 -30 9 C-27.09321641 6.54761016 -24.92982173 5.54452226 -21.1875 4.9375 C-18.04476662 4.38972668 -15.04340658 3.76954609 -12 2.8125 C-9 2 -9 2 -7 3 C-7 2.34 -7 1.68 -7 1 C-4 0 -4 0 0 0 Z " fill="#AF1139" transform="translate(264,228)"/>
<path d="M0 0 C0.70648682 -0.00604248 1.41297363 -0.01208496 2.14086914 -0.01831055 C4.15625 0.03125 4.15625 0.03125 7.5 0.5 C8.16 1.49 8.82 2.48 9.5 3.5 C3.23 3.5 -3.04 3.5 -9.5 3.5 C-9.5 4.16 -9.5 4.82 -9.5 5.5 C-14.45 6.985 -14.45 6.985 -19.5 8.5 C-18.3136386 4.9409158 -17.62951978 4.58702852 -14.4375 2.8125 C-9.57610807 0.47705627 -5.30165915 0.02083751 0 0 Z " fill="#CB4465" transform="translate(326.5,130.5)"/>
<path d="M0 0 C0.33 0 0.66 0 1 0 C1 2.64 1 5.28 1 8 C1.66 8 2.32 8 3 8 C2.34694438 12.46254673 1.42765922 16.71702233 0 21 C-0.66 21.33 -1.32 21.66 -2 22 C-2.65555119 24.52733235 -2.65555119 24.52733235 -3 27 C-3.33 27 -3.66 27 -4 27 C-3.3147541 18.8852459 -3.3147541 18.8852459 -2 15.1875 C-0.44652409 10.23579555 -0.31727823 5.15994597 0 0 Z " fill="#BA1547" transform="translate(348,309)"/>
<path d="M0 0 C2.31 0 4.62 0 7 0 C4.83639411 3.24540884 4.65246005 3.39288565 1.125 4.125 C0.44695312 4.27195312 -0.23109375 4.41890625 -0.9296875 4.5703125 C-1.61289063 4.71210938 -2.29609375 4.85390625 -3 5 C-5.40619147 5.56642925 -7.60330012 6.21821494 -9.9375 7.0625 C-12.83862749 7.95060025 -14.9960415 8.17670344 -18 8 C-15.40052213 5.40052213 -13.07261547 4.9315565 -9.5625 3.875 C-7.83193359 3.34519531 -7.83193359 3.34519531 -6.06640625 2.8046875 C-3 2 -3 2 0 2 C0 1.34 0 0.68 0 0 Z " fill="#BD1641" transform="translate(250,265)"/>
<path d="M0 0 C-0.99 0.33 -1.98 0.66 -3 1 C-3.33 1.66 -3.66 2.32 -4 3 C-4.99 3 -5.98 3 -7 3 C-7.33 3.66 -7.66 4.32 -8 5 C-10.1796875 5.8515625 -10.1796875 5.8515625 -12.875 6.625 C-13.75929688 6.88539063 -14.64359375 7.14578125 -15.5546875 7.4140625 C-18 8 -18 8 -21 8 C-21 7.34 -21 6.68 -21 6 C-17.535 5.505 -17.535 5.505 -14 5 C-14 4.34 -14 3.68 -14 3 C-12.42274653 2.29866401 -10.83788667 1.614417 -9.25 0.9375 C-7.92742187 0.36322266 -7.92742187 0.36322266 -6.578125 -0.22265625 C-3.84743691 -1.04600008 -2.63098653 -0.9773992 0 0 Z " fill="#C6214B" transform="translate(303,252)"/>
<path d="M0 0 C0.33 0.66 0.66 1.32 1 2 C0.67 2.66 0.34 3.32 0 4 C-0.66 4 -1.32 4 -2 4 C-2.185625 4.556875 -2.37125 5.11375 -2.5625 5.6875 C-4.61353411 8.98698965 -7.46190979 11.36531275 -11 13 C-13.2265625 12.63671875 -13.2265625 12.63671875 -15 12 C-10.25 8 -10.25 8 -8 8 C-7.67 7.01 -7.34 6.02 -7 5 C-5 4.33333333 -3 3.66666667 -1 3 C-0.67 2.01 -0.34 1.02 0 0 Z " fill="#C32145" transform="translate(329,358)"/>
<path d="M0 0 C2.97204728 2.57041927 4.45278246 5.50486539 6.1875 9 C6.71730469 10.051875 7.24710938 11.10375 7.79296875 12.1875 C9 15 9 15 9 18 C8.01 17.34 7.02 16.68 6 16 C6 15.01 6 14.02 6 13 C5.01 12.67 4.02 12.34 3 12 C2.05078125 10.29296875 2.05078125 10.29296875 1.3125 8.1875 C1.06113281 7.50042969 0.80976563 6.81335938 0.55078125 6.10546875 C0 4 0 4 0 0 Z " fill="#C41F47" transform="translate(165,353)"/>
<path d="M0 0 C1.32 0 2.64 0 4 0 C4 0.66 4 1.32 4 2 C4.66 2.33 5.32 2.66 6 3 C4.02 3.33 2.04 3.66 0 4 C-0.33 11.92 -0.66 19.84 -1 28 C-1.33 28 -1.66 28 -2 28 C-2.05796132 23.89589245 -2.09358313 19.79188984 -2.125 15.6875 C-2.14175781 14.52025391 -2.15851563 13.35300781 -2.17578125 12.15039062 C-2.18222656 11.03212891 -2.18867188 9.91386719 -2.1953125 8.76171875 C-2.20578613 7.73006592 -2.21625977 6.69841309 -2.22705078 5.63549805 C-2 3 -2 3 0 0 Z " fill="#BA113E" transform="translate(287,273)"/>
<path d="M0 0 C6.93 0 13.86 0 21 0 C21 0.66 21 1.32 21 2 C19.4221875 2.2165625 19.4221875 2.2165625 17.8125 2.4375 C14.20059756 2.88725246 14.20059756 2.88725246 11.5625 3.6875 C7.66595404 4.16268853 4.73900425 3.18401801 1 2 C0.67 1.34 0.34 0.68 0 0 Z " fill="#CF2F50" transform="translate(293,371)"/>
<path d="M0 0 C0.66 0.33 1.32 0.66 2 1 C-0.15824033 6.2119208 -4.41704462 8.95237305 -9 12 C-12.5625 13.4375 -12.5625 13.4375 -15 14 C-15 13.34 -15 12.68 -15 12 C-14.360625 11.87625 -13.72125 11.7525 -13.0625 11.625 C-12.381875 11.41875 -11.70125 11.2125 -11 11 C-10.67 10.34 -10.34 9.68 -10 9 C-6.42307692 6 -6.42307692 6 -4 6 C-3.566875 5.071875 -3.566875 5.071875 -3.125 4.125 C-2 2 -2 2 0 0 Z " fill="#B02748" transform="translate(316,258)"/>
<path d="M0 0 C0.33 0 0.66 0 1 0 C1.21721322 4.21682748 1.41403398 8.43396591 1.59204102 12.65258789 C1.65545437 14.08741651 1.72442591 15.52201073 1.79907227 16.95629883 C1.90543934 19.01867787 1.99175714 21.08107523 2.07421875 23.14453125 C2.13182373 24.38565674 2.18942871 25.62678223 2.2487793 26.90551758 C2 30 2 30 -1 33 C-0.67 22.11 -0.34 11.22 0 0 Z " fill="#B61144" transform="translate(227,300)"/>
<path d="M0 0 C0.66 0.33 1.32 0.66 2 1 C1.07347299 2.17539996 0.13336613 3.34010577 -0.8125 4.5 C-1.59560547 5.47453125 -1.59560547 5.47453125 -2.39453125 6.46875 C-4 8 -4 8 -7 8 C-7.103125 8.78375 -7.20625 9.5675 -7.3125 10.375 C-8 13 -8 13 -11 15 C-10.67 13.35 -10.34 11.7 -10 10 C-9.34 10 -8.68 10 -8 10 C-8 9.01 -8 8.02 -8 7 C-7.34 6.67 -6.68 6.34 -6 6 C-5.525625 5.175 -5.05125 4.35 -4.5625 3.5 C-3 1 -3 1 0 0 Z " fill="#B82A51" transform="translate(305,140)"/>
<path d="M0 0 C0 3 0 3 -1 5 C-1.99 5 -2.98 5 -4 5 C-4 5.66 -4 6.32 -4 7 C-11.28571429 11.57142857 -11.28571429 11.57142857 -16 11 C-16 10.34 -16 9.68 -16 9 C-14.68 9 -13.36 9 -12 9 C-12 8.34 -12 7.68 -12 7 C-8.535 6.505 -8.535 6.505 -5 6 C-5 5.34 -5 4.68 -5 4 C-3.37373596 2.61767557 -1.7074998 1.28062485 0 0 Z " fill="#C43357" transform="translate(208,366)"/>
<path d="M0 0 C1.1171875 1.640625 1.1171875 1.640625 2 4 C1.3203125 6.796875 1.3203125 6.796875 0.125 9.75 C-0.26429688 10.73484375 -0.65359375 11.7196875 -1.0546875 12.734375 C-1.36664063 13.48203125 -1.67859375 14.2296875 -2 15 C-2.99 14.67 -3.98 14.34 -5 14 C-3.70022952 9.1008651 -2.07626313 4.62440425 0 0 Z " fill="#C52145" transform="translate(225,333)"/>
<path d="M0 0 C2 1.375 2 1.375 4 3 C4 3.66 4 4.32 4 5 C4.66 5 5.32 5 6 5 C5.69381595 8.67420866 5.24228216 9.78135513 2.4375 12.3125 C1.633125 12.869375 0.82875 13.42625 0 14 C0.33 13.2575 0.66 12.515 1 11.75 C2.65199974 7.20700072 1.89130504 4.25543634 0 0 Z " fill="#B8254B" transform="translate(327,187)"/>
<path d="M0 0 C0.33 0.66 0.66 1.32 1 2 C-4.28 2 -9.56 2 -15 2 C-14.67 1.34 -14.34 0.68 -14 0 C-9.0847445 -1.31872709 -4.92939635 -0.91904 0 0 Z " fill="#D95774" transform="translate(218,132)"/>
<path d="M0 0 C0.33 0 0.66 0 1 0 C1.99 5.61 2.98 11.22 4 17 C1 16 1 16 -0.2109375 13.80078125 C-1.09772354 10.65312982 -1.01469309 8.42195265 -0.625 5.1875 C-0.51414062 4.21167969 -0.40328125 3.23585938 -0.2890625 2.23046875 C-0.19367188 1.49441406 -0.09828125 0.75835937 0 0 Z " fill="#C41E49" transform="translate(285,350)"/>
<path d="M0 0 C0 0.66 0 1.32 0 2 C-4.92984325 4.03993514 -8.57960425 5.40652968 -14 5 C-12.75 3.4375 -12.75 3.4375 -11 2 C-8.8125 2.3125 -8.8125 2.3125 -7 3 C-7 2.34 -7 1.68 -7 1 C-4 0 -4 0 0 0 Z " fill="#CF314E" transform="translate(264,228)"/>
<path d="M0 0 C-4.74963401 3.68096635 -8.00708997 4.58669586 -14 5 C-12.68 4.01 -11.36 3.02 -10 2 C-9.34 2.33 -8.68 2.66 -8 3 C-8 2.34 -8 1.68 -8 1 C-3.375 -1.125 -3.375 -1.125 0 0 Z " fill="#C33254" transform="translate(280,223)"/>
<path d="M0 0 C0.99 0.99 1.98 1.98 3 3 C2.76083382 7.38471336 1.98042945 10.0391411 0 14 C0 9.38 0 4.76 0 0 Z " fill="#CE1E48" transform="translate(229,140)"/>
<path d="M0 0 C3 1 3 1 4.23828125 2.92578125 C4.59277344 3.71339844 4.94726562 4.50101563 5.3125 5.3125 C5.67988281 6.09238281 6.04726563 6.87226563 6.42578125 7.67578125 C7 10 7 10 6.10546875 12.29296875 C5.74066406 12.85628906 5.37585938 13.41960937 5 14 C4.49166409 12.75336669 3.99368855 11.50250613 3.5 10.25 C3.2215625 9.55390625 2.943125 8.8578125 2.65625 8.140625 C2 6 2 6 2 2 C1.34 2 0.68 2 0 2 C0 1.34 0 0.68 0 0 Z " fill="#C32347" transform="translate(342,139)"/>
<path d="M0 0 C0.7425 0.515625 1.485 1.03125 2.25 1.5625 C4.80557583 3.24107962 4.80557583 3.24107962 7.125 2.6875 C7.74375 2.460625 8.3625 2.23375 9 2 C9.99 2 10.98 2 12 2 C10.8125 4 10.8125 4 9 6 C6.5625 6.5 6.5625 6.5 4 6 C1.6875 4.125 1.6875 4.125 0 2 C0 1.34 0 0.68 0 0 Z " fill="#B6214C" transform="translate(315,200)"/>
<path d="M0 0 C3.3 0 6.6 0 10 0 C10.33 0.99 10.66 1.98 11 3 C5.04296875 3.29296875 5.04296875 3.29296875 3 3 C2.01 2.01 1.02 1.02 0 0 Z " fill="#BF1638" transform="translate(182,375)"/>
<path d="M0 0 C0.33 0 0.66 0 1 0 C1 2.64 1 5.28 1 8 C1.66 8 2.32 8 3 8 C2.625 10.9375 2.625 10.9375 2 14 C1.01 14.495 1.01 14.495 0 15 C0 10.05 0 5.1 0 0 Z " fill="#CA1B44" transform="translate(348,309)"/>
<path d="M0 0 C0.66 0 1.32 0 2 0 C0.66511872 3.59391114 -0.96022723 6.75490696 -3 10 C-3.66 9.67 -4.32 9.34 -5 9 C-4.3566152 7.686298 -3.71021785 6.37407102 -3.0625 5.0625 C-2.70285156 4.33160156 -2.34320313 3.60070312 -1.97265625 2.84765625 C-1 1 -1 1 0 0 Z " fill="#C72649" transform="translate(219,350)"/>
<path d="M0 0 C0.33 0 0.66 0 1 0 C1.16682272 4.92127034 1.24828052 8.50343896 -1 13 C-1.66 13 -2.32 13 -3 13 C-2.01 8.71 -1.02 4.42 0 0 Z " fill="#C12C55" transform="translate(325,240)"/>
<path d="M0 0 C0.66 0.33 1.32 0.66 2 1 C1.04956626 2.33897583 0.08940853 3.67105427 -0.875 5 C-1.40867188 5.7425 -1.94234375 6.485 -2.4921875 7.25 C-3.23855469 8.11625 -3.23855469 8.11625 -4 9 C-4.66 9 -5.32 9 -6 9 C-4.83857315 4.64464931 -3.92300495 2.35380297 0 0 Z " fill="#BE2F50" transform="translate(222,294)"/>
<path d="M0 0 C0.99 0.66 1.98 1.32 3 2 C-3.4 6.06153846 -3.4 6.06153846 -6.4375 5.75 C-6.953125 5.5025 -7.46875 5.255 -8 5 C-3.375 2 -3.375 2 0 2 C0 1.34 0 0.68 0 0 Z " fill="#CD4668" transform="translate(199,133)"/>
<path d="M0 0 C0.66 0 1.32 0 2 0 C1.67 1.65 1.34 3.3 1 5 C0.34 5 -0.32 5 -1 5 C-1.33 5.99 -1.66 6.98 -2 8 C-2.33 8 -2.66 8 -3 8 C-3 6.35 -3 4.7 -3 3 C-2.34 3 -1.68 3 -1 3 C-0.67 2.01 -0.34 1.02 0 0 Z " fill="#BD1641" transform="translate(338,344)"/>
<path d="M0 0 C2.25245881 2.68841859 3.88213958 4.64641875 5 8 C1.125 6.125 1.125 6.125 0 5 C-0.04063832 3.33382885 -0.042721 1.66611905 0 0 Z " fill="#B62550" transform="translate(196,310)"/>
<path d="M0 0 C0 0.66 0 1.32 0 2 C-3.4019487 4.09350689 -6.05272412 4.17942163 -10 4 C-6.64877401 1.34213111 -4.39380802 0 0 0 Z " fill="#C02F5B" transform="translate(244,233)"/>
<path d="M0 0 C0.33 0 0.66 0 1 0 C2.07421875 5.95703125 2.07421875 5.95703125 2 8 C1.01 8.99 0.02 9.98 -1 11 C-0.67 7.37 -0.34 3.74 0 0 Z " fill="#C43151" transform="translate(227,322)"/>
<path d="M0 0 C-0.33 0.66 -0.66 1.32 -1 2 C-3.64860427 2.59355614 -6.29197322 2.74209269 -9 3 C-9.33 2.34 -9.66 1.68 -10 1 C-6.52674819 -0.1577506 -3.63932552 -0.06866652 0 0 Z " fill="#C61A45" transform="translate(210,317)"/>
<path d="M0 0 C-0.33 0.99 -0.66 1.98 -1 3 C-3.31 3.33 -5.62 3.66 -8 4 C-7.67 3.01 -7.34 2.02 -7 1 C-2.25 0 -2.25 0 0 0 Z " fill="#CA3351" transform="translate(299,271)"/>
<path d="M0 0 C0.99 0 1.98 0 3 0 C1.25 5.75 1.25 5.75 -1 8 C-1.08226668 4.95613276 -0.97608217 2.92824652 0 0 Z " fill="#B01A3E" transform="translate(170,162)"/>
<path d="" fill="#C0003F" transform="translate(0,0)"/>
</svg>
