<?xml version="1.0" standalone="no"?>
<!DOCTYPE svg PUBLIC "-//W3C//DTD SVG 20010904//EN"
 "http://www.w3.org/TR/2001/REC-SVG-20010904/DTD/svg10.dtd">
<svg version="1.0" xmlns="http://www.w3.org/2000/svg"
 width="1920.000000pt" height="1080.000000pt" viewBox="0 0 1920.000000 1080.000000"
 preserveAspectRatio="xMidYMid meet">

<g transform="translate(0.000000,1080.000000) scale(0.100000,-0.100000)"
fill="#000000" stroke="none">
<path d="M3850 7481 c0 -15 42 -25 49 -12 5 7 81 12 221 14 l215 2 -242 3
c-145 1 -243 -2 -243 -7z"/>
<path d="M6220 3434 c0 -8 -12 -19 -27 -25 l-27 -10 25 -23 c13 -13 27 -22 31
-20 4 3 9 0 13 -6 3 -5 16 -15 27 -21 20 -11 21 -9 14 22 -9 47 -28 88 -43 94
-7 2 -13 -2 -13 -11z"/>
<path d="M5998 3313 c45 -2 119 -2 165 0 45 1 8 3 -83 3 -91 0 -128 -2 -82 -3z"/>
</g>
</svg>
