<svg width="17" height="17" viewBox="0 0 17 17" fill="none" xmlns="http://www.w3.org/2000/svg">
<path d="M6.5 14C6.5 14.1978 6.44135 14.3911 6.33147 14.5556C6.22159 14.72 6.06541 14.8482 5.88268 14.9239C5.69996 14.9996 5.49889 15.0194 5.30491 14.9808C5.11093 14.9422 4.93275 14.847 4.79289 14.7071C4.65304 14.5673 4.5578 14.3891 4.51921 14.1951C4.48063 14.0011 4.50043 13.8 4.57612 13.6173C4.65181 13.4346 4.77998 13.2784 4.94443 13.1685C5.10888 13.0586 5.30222 13 5.5 13C5.76522 13 6.01957 13.1054 6.20711 13.2929C6.39464 13.4804 6.5 13.7348 6.5 14ZM12 13C11.8022 13 11.6089 13.0586 11.4444 13.1685C11.28 13.2784 11.1518 13.4346 11.0761 13.6173C11.0004 13.8 10.9806 14.0011 11.0192 14.1951C11.0578 14.3891 11.153 14.5673 11.2929 14.7071C11.4327 14.847 11.6109 14.9422 11.8049 14.9808C11.9989 15.0194 12.2 14.9996 12.3827 14.9239C12.5654 14.8482 12.7216 14.72 12.8315 14.5556C12.9414 14.3911 13 14.1978 13 14C13 13.7348 12.8946 13.4804 12.7071 13.2929C12.5196 13.1054 12.2652 13 12 13ZM14.7563 4.7C14.7093 4.63826 14.6489 4.58811 14.5795 4.55344C14.5102 4.51876 14.4338 4.50048 14.3562 4.5H3.51875L3.0125 2.725C2.9518 2.51647 2.82525 2.33317 2.65177 2.2025C2.47829 2.07182 2.26719 2.00079 2.05 2H1C0.867392 2 0.740215 2.05268 0.646447 2.14645C0.552678 2.24021 0.5 2.36739 0.5 2.5C0.5 2.63261 0.552678 2.75979 0.646447 2.85355C0.740215 2.94732 0.867392 3 1 3H2.05L2.6625 5.13125V5.14375L4.3125 10.9125C4.4031 11.2256 4.5928 11.5008 4.85312 11.6969C5.11345 11.893 5.43034 11.9993 5.75625 12H11.7437C12.0697 11.9993 12.3866 11.893 12.6469 11.6969C12.9072 11.5008 13.0969 11.2256 13.1875 10.9125L14.8375 5.1375C14.8587 5.06325 14.8623 4.98512 14.8482 4.90921C14.8341 4.83331 14.8026 4.7617 14.7563 4.7Z" fill="#262626"/>
</svg>
