<svg width="74" height="16" viewBox="0 0 74 16" fill="none" xmlns="http://www.w3.org/2000/svg">
<path d="M2.51723 4.905C2.78723 4.505 3.15723 4.18 3.62723 3.93C4.10723 3.68 4.65223 3.555 5.26223 3.555C5.97223 3.555 6.61223 3.73 7.18223 4.08C7.76223 4.43 8.21723 4.93 8.54723 5.58C8.88723 6.22 9.05723 6.965 9.05723 7.815C9.05723 8.665 8.88723 9.42 8.54723 10.08C8.21723 10.73 7.76223 11.235 7.18223 11.595C6.61223 11.955 5.97223 12.135 5.26223 12.135C4.64223 12.135 4.09723 12.015 3.62723 11.775C3.16723 11.525 2.79723 11.205 2.51723 10.815V12H0.417225V0.9H2.51723V4.905ZM6.91223 7.815C6.91223 7.315 6.80723 6.885 6.59723 6.525C6.39723 6.155 6.12723 5.875 5.78723 5.685C5.45723 5.495 5.09723 5.4 4.70723 5.4C4.32723 5.4 3.96723 5.5 3.62723 5.7C3.29723 5.89 3.02723 6.17 2.81723 6.54C2.61723 6.91 2.51723 7.345 2.51723 7.845C2.51723 8.345 2.61723 8.78 2.81723 9.15C3.02723 9.52 3.29723 9.805 3.62723 10.005C3.96723 10.195 4.32723 10.29 4.70723 10.29C5.09723 10.29 5.45723 10.19 5.78723 9.99C6.12723 9.79 6.39723 9.505 6.59723 9.135C6.80723 8.765 6.91223 8.325 6.91223 7.815ZM11.4982 2.7C11.1282 2.7 10.8182 2.585 10.5682 2.355C10.3282 2.115 10.2082 1.82 10.2082 1.47C10.2082 1.12 10.3282 0.829999 10.5682 0.599999C10.8182 0.359999 11.1282 0.239999 11.4982 0.239999C11.8682 0.239999 12.1732 0.359999 12.4132 0.599999C12.6632 0.829999 12.7882 1.12 12.7882 1.47C12.7882 1.82 12.6632 2.115 12.4132 2.355C12.1732 2.585 11.8682 2.7 11.4982 2.7ZM12.5332 3.69V12H10.4332V3.69H12.5332ZM16.903 5.415V9.435C16.903 9.715 16.968 9.92 17.098 10.05C17.238 10.17 17.468 10.23 17.788 10.23H18.763V12H17.443C15.673 12 14.788 11.14 14.788 9.42V5.415H13.798V3.69H14.788V1.635H16.903V3.69H18.763V5.415H16.903ZM27.8485 7.665C27.8485 7.965 27.8285 8.235 27.7885 8.475H21.7135C21.7635 9.075 21.9735 9.545 22.3435 9.885C22.7135 10.225 23.1685 10.395 23.7085 10.395C24.4885 10.395 25.0435 10.06 25.3735 9.39H27.6385C27.3985 10.19 26.9385 10.85 26.2585 11.37C25.5785 11.88 24.7435 12.135 23.7535 12.135C22.9535 12.135 22.2335 11.96 21.5935 11.61C20.9635 11.25 20.4685 10.745 20.1085 10.095C19.7585 9.445 19.5835 8.695 19.5835 7.845C19.5835 6.985 19.7585 6.23 20.1085 5.58C20.4585 4.93 20.9485 4.43 21.5785 4.08C22.2085 3.73 22.9335 3.555 23.7535 3.555C24.5435 3.555 25.2485 3.725 25.8685 4.065C26.4985 4.405 26.9835 4.89 27.3235 5.52C27.6735 6.14 27.8485 6.855 27.8485 7.665ZM25.6735 7.065C25.6635 6.525 25.4685 6.095 25.0885 5.775C24.7085 5.445 24.2435 5.28 23.6935 5.28C23.1735 5.28 22.7335 5.44 22.3735 5.76C22.0235 6.07 21.8085 6.505 21.7285 7.065H25.6735ZM32.4113 12.135C31.7313 12.135 31.1213 12.015 30.5813 11.775C30.0413 11.525 29.6113 11.19 29.2913 10.77C28.9813 10.35 28.8113 9.885 28.7813 9.375H30.8963C30.9363 9.695 31.0913 9.96 31.3613 10.17C31.6413 10.38 31.9863 10.485 32.3963 10.485C32.7963 10.485 33.1063 10.405 33.3263 10.245C33.5563 10.085 33.6713 9.88 33.6713 9.63C33.6713 9.36 33.5313 9.16 33.2513 9.03C32.9813 8.89 32.5463 8.74 31.9463 8.58C31.3263 8.43 30.8163 8.275 30.4163 8.115C30.0263 7.955 29.6863 7.71 29.3963 7.38C29.1163 7.05 28.9763 6.605 28.9763 6.045C28.9763 5.585 29.1063 5.165 29.3663 4.785C29.6363 4.405 30.0163 4.105 30.5063 3.885C31.0063 3.665 31.5913 3.555 32.2613 3.555C33.2513 3.555 34.0413 3.805 34.6313 4.305C35.2213 4.795 35.5463 5.46 35.6063 6.3H33.5963C33.5663 5.97 33.4263 5.71 33.1763 5.52C32.9363 5.32 32.6113 5.22 32.2013 5.22C31.8213 5.22 31.5263 5.29 31.3163 5.43C31.1163 5.57 31.0163 5.765 31.0163 6.015C31.0163 6.295 31.1563 6.51 31.4363 6.66C31.7163 6.8 32.1513 6.945 32.7413 7.095C33.3413 7.245 33.8363 7.4 34.2263 7.56C34.6163 7.72 34.9513 7.97 35.2313 8.31C35.5213 8.64 35.6713 9.08 35.6813 9.63C35.6813 10.11 35.5463 10.54 35.2763 10.92C35.0163 11.3 34.6363 11.6 34.1363 11.82C33.6463 12.03 33.0713 12.135 32.4113 12.135ZM39.3551 4.89C39.6251 4.51 39.9951 4.195 40.4651 3.945C40.9451 3.685 41.4901 3.555 42.1001 3.555C42.8101 3.555 43.4501 3.73 44.0201 4.08C44.6001 4.43 45.0551 4.93 45.3851 5.58C45.7251 6.22 45.8951 6.965 45.8951 7.815C45.8951 8.665 45.7251 9.42 45.3851 10.08C45.0551 10.73 44.6001 11.235 44.0201 11.595C43.4501 11.955 42.8101 12.135 42.1001 12.135C41.4901 12.135 40.9501 12.01 40.4801 11.76C40.0201 11.51 39.6451 11.195 39.3551 10.815V15.96H37.2551V3.69H39.3551V4.89ZM43.7501 7.815C43.7501 7.315 43.6451 6.885 43.4351 6.525C43.2351 6.155 42.9651 5.875 42.6251 5.685C42.2951 5.495 41.9351 5.4 41.5451 5.4C41.1651 5.4 40.8051 5.5 40.4651 5.7C40.1351 5.89 39.8651 6.17 39.6551 6.54C39.4551 6.91 39.3551 7.345 39.3551 7.845C39.3551 8.345 39.4551 8.78 39.6551 9.15C39.8651 9.52 40.1351 9.805 40.4651 10.005C40.8051 10.195 41.1651 10.29 41.5451 10.29C41.9351 10.29 42.2951 10.19 42.6251 9.99C42.9651 9.79 43.2351 9.505 43.4351 9.135C43.6451 8.765 43.7501 8.325 43.7501 7.815ZM54.9961 7.665C54.9961 7.965 54.9761 8.235 54.9361 8.475H48.8611C48.9111 9.075 49.1211 9.545 49.4911 9.885C49.8611 10.225 50.3161 10.395 50.8561 10.395C51.6361 10.395 52.1911 10.06 52.5211 9.39H54.7861C54.5461 10.19 54.0861 10.85 53.4061 11.37C52.7261 11.88 51.8911 12.135 50.9011 12.135C50.1011 12.135 49.3811 11.96 48.7411 11.61C48.1111 11.25 47.6161 10.745 47.2561 10.095C46.9061 9.445 46.7311 8.695 46.7311 7.845C46.7311 6.985 46.9061 6.23 47.2561 5.58C47.6061 4.93 48.0961 4.43 48.7261 4.08C49.3561 3.73 50.0811 3.555 50.9011 3.555C51.6911 3.555 52.3961 3.725 53.0161 4.065C53.6461 4.405 54.1311 4.89 54.4711 5.52C54.8211 6.14 54.9961 6.855 54.9961 7.665ZM52.8211 7.065C52.8111 6.525 52.6161 6.095 52.2361 5.775C51.8561 5.445 51.3911 5.28 50.8411 5.28C50.3211 5.28 49.8811 5.44 49.5211 5.76C49.1711 6.07 48.9561 6.505 48.8761 7.065H52.8211ZM64.1039 7.665C64.1039 7.965 64.0839 8.235 64.0439 8.475H57.9689C58.0189 9.075 58.2289 9.545 58.5989 9.885C58.9689 10.225 59.4239 10.395 59.9639 10.395C60.7439 10.395 61.2989 10.06 61.6289 9.39H63.8939C63.6539 10.19 63.1939 10.85 62.5139 11.37C61.8339 11.88 60.9989 12.135 60.0089 12.135C59.2089 12.135 58.4889 11.96 57.8489 11.61C57.2189 11.25 56.7239 10.745 56.3639 10.095C56.0139 9.445 55.8389 8.695 55.8389 7.845C55.8389 6.985 56.0139 6.23 56.3639 5.58C56.7139 4.93 57.2039 4.43 57.8339 4.08C58.4639 3.73 59.1889 3.555 60.0089 3.555C60.7989 3.555 61.5039 3.725 62.1239 4.065C62.7539 4.405 63.2389 4.89 63.5789 5.52C63.9289 6.14 64.1039 6.855 64.1039 7.665ZM61.9289 7.065C61.9189 6.525 61.7239 6.095 61.3439 5.775C60.9639 5.445 60.4989 5.28 59.9489 5.28C59.4289 5.28 58.9889 5.44 58.6289 5.76C58.2789 6.07 58.0639 6.505 57.9839 7.065H61.9289ZM64.9468 7.815C64.9468 6.975 65.1118 6.23 65.4418 5.58C65.7818 4.93 66.2418 4.43 66.8218 4.08C67.4018 3.73 68.0468 3.555 68.7568 3.555C69.2968 3.555 69.8118 3.675 70.3018 3.915C70.7918 4.145 71.1818 4.455 71.4718 4.845V0.9H73.6018V12H71.4718V10.77C71.2118 11.18 70.8468 11.51 70.3768 11.76C69.9068 12.01 69.3618 12.135 68.7418 12.135C68.0418 12.135 67.4018 11.955 66.8218 11.595C66.2418 11.235 65.7818 10.73 65.4418 10.08C65.1118 9.42 64.9468 8.665 64.9468 7.815ZM71.4868 7.845C71.4868 7.335 71.3868 6.9 71.1868 6.54C70.9868 6.17 70.7168 5.89 70.3768 5.7C70.0368 5.5 69.6718 5.4 69.2818 5.4C68.8918 5.4 68.5318 5.495 68.2018 5.685C67.8718 5.875 67.6018 6.155 67.3918 6.525C67.1918 6.885 67.0918 7.315 67.0918 7.815C67.0918 8.315 67.1918 8.755 67.3918 9.135C67.6018 9.505 67.8718 9.79 68.2018 9.99C68.5418 10.19 68.9018 10.29 69.2818 10.29C69.6718 10.29 70.0368 10.195 70.3768 10.005C70.7168 9.805 70.9868 9.525 71.1868 9.165C71.3868 8.795 71.4868 8.355 71.4868 7.845Z" fill="url(#paint0_linear_2567_9627)"/>
<defs>
<linearGradient id="paint0_linear_2567_9627" x1="-1" y1="6.5" x2="75" y2="6.5" gradientUnits="userSpaceOnUse">
<stop stop-color="#2DD7D7"/>
<stop offset="1" stop-color="#3B57E6"/>
</linearGradient>
</defs>
</svg>
