<svg width="66" height="13" viewBox="0 0 66 13" fill="none" xmlns="http://www.w3.org/2000/svg">
<path d="M7.51024 6.90447V6.87752C7.5184 6.36176 7.41971 5.8499 7.22037 5.37415C7.04291 4.95245 6.78403 4.56987 6.45856 4.24832C6.15043 3.94693 5.7863 3.70874 5.38669 3.54718C4.99952 3.38794 4.58507 3.30554 4.16643 3.30455C3.84849 3.30091 3.53205 3.3487 3.22937 3.44608C2.95781 3.53486 2.69935 3.65956 2.46085 3.81686C2.2307 3.97047 2.02015 4.15158 1.83386 4.35618C1.64942 4.5573 1.48252 4.77381 1.33497 5.00336V0.5H0.674316V10.3427H1.33513V8.85975C1.48211 9.07948 1.64669 9.2869 1.82725 9.47998C2.01281 9.67882 2.22096 9.8553 2.44748 10.0058C2.68718 10.1636 2.94826 10.2863 3.22276 10.37C3.93564 10.5833 4.7004 10.5429 5.3868 10.2556C5.78704 10.0891 6.15108 9.8464 6.45867 9.54096C6.78327 9.21609 7.04196 8.8315 7.22048 8.40837C7.41985 7.93245 7.51851 7.4204 7.51024 6.90447ZM6.79563 6.93143C6.80217 7.35199 6.73132 7.77018 6.58662 8.16512C6.46011 8.5086 6.26516 8.82281 6.01358 9.0887C5.77189 9.33971 5.48023 9.53723 5.15744 9.66849C4.82136 9.80487 4.46168 9.8736 4.09899 9.87074C3.73963 9.87078 3.38405 9.79737 3.05408 9.65502C2.36526 9.36425 1.81809 8.81474 1.53025 8.12469C1.36951 7.74294 1.28927 7.33213 1.29454 6.91795V6.891C1.28881 6.47897 1.36909 6.07027 1.53025 5.69102C1.6789 5.34426 1.8916 5.02864 2.15719 4.76068C2.41423 4.50249 2.71878 4.29645 3.05408 4.15393C3.38181 4.01275 3.73474 3.93937 4.09159 3.9382C4.44844 3.93704 4.80184 4.00812 5.13049 4.14717C5.45542 4.28438 5.74902 4.48631 5.99339 4.74065C6.24939 5.01079 6.4488 5.32939 6.5799 5.6777C6.72792 6.06961 6.80109 6.4858 6.79563 6.90468V6.93143ZM10.4091 1.67302V0.769685H9.58665V1.67307L10.4091 1.67302ZM10.3282 10.3427V3.46627H9.66736V10.3427H10.3282ZM16.3416 10.2213V9.60111C16.1728 9.68075 15.9967 9.74396 15.8158 9.78989C15.6566 9.82657 15.4937 9.84467 15.3304 9.84384C14.9259 9.84384 14.5955 9.74498 14.3394 9.54726C14.0832 9.34953 13.9551 9.00347 13.9551 8.50905V4.07302H16.3686V3.46627H13.9552V1.26852H13.2944V3.46627H12.2968V4.07302H13.2945V8.57638C13.288 8.86438 13.3384 9.15083 13.4428 9.41931C13.5312 9.64308 13.6695 9.84377 13.847 10.0061C14.0246 10.1685 14.2368 10.2883 14.4676 10.3564C14.7124 10.4299 14.9669 10.4663 15.2226 10.4642C15.4198 10.4662 15.6165 10.4458 15.8091 10.4036C15.9922 10.3604 16.1705 10.2994 16.3416 10.2213ZM18.3506 7.17416H24.054C24.0616 7.13411 24.0661 7.09355 24.0675 7.05282V6.90453C24.0721 6.42136 23.997 5.94074 23.845 5.48206C23.7077 5.06561 23.4926 4.67895 23.2113 4.34255C22.9393 4.02061 22.6014 3.76081 22.2203 3.58074C21.8106 3.39154 21.3636 3.29714 20.9124 3.30455C20.4651 3.30012 20.0226 3.39693 19.618 3.58771C19.2268 3.77324 18.8762 4.03443 18.5865 4.35618C18.2883 4.68984 18.055 5.07632 17.8988 5.49569C17.7308 5.94161 17.6462 6.41467 17.6494 6.89121V6.91816C17.6426 7.42094 17.7342 7.9202 17.9191 8.38782C18.0871 8.81002 18.3369 9.19485 18.6542 9.5202C18.9612 9.83276 19.3281 10.0804 19.7328 10.2483C20.1406 10.4188 20.5784 10.5059 21.0204 10.5044C21.6766 10.5044 22.2272 10.383 22.6721 10.1402C23.1178 9.89698 23.5208 9.58275 23.8654 9.20988L23.407 8.80538C23.1186 9.11154 22.7842 9.37083 22.4159 9.5739C22.0429 9.78064 21.5868 9.88401 21.0475 9.88401C20.7131 9.88532 20.3815 9.82353 20.07 9.7019C19.7609 9.58136 19.4789 9.40042 19.2406 9.16966C18.9897 8.92459 18.7843 8.637 18.6338 8.32023C18.4652 7.96047 18.3689 7.57105 18.3506 7.17416ZM18.3506 6.58099C18.3745 6.21607 18.4611 5.85801 18.6068 5.52254C18.74 5.21081 18.9246 4.92364 19.1529 4.67301C19.3711 4.43627 19.6348 4.24596 19.9282 4.11345C20.2437 3.97666 20.5843 3.90777 20.9281 3.91126C21.2719 3.91475 21.6111 3.99053 21.9237 4.13369C22.2126 4.27582 22.4677 4.47806 22.6721 4.72686C22.8778 4.98027 23.0375 5.26776 23.1439 5.57629C23.2573 5.90055 23.3275 6.23831 23.3527 6.58088L18.3506 6.58099ZM30.9573 8.14503V8.11808C30.9573 7.78549 30.8899 7.50235 30.755 7.26865C30.6242 7.03964 30.4502 6.8382 30.2427 6.67548C30.0276 6.50886 29.792 6.3707 29.5415 6.26442C29.2809 6.15207 29.0247 6.05544 28.773 5.97455C28.5753 5.91162 28.3888 5.8487 28.2135 5.78578C28.0547 5.72983 27.8994 5.66455 27.7483 5.59029C27.6306 5.5344 27.5216 5.46174 27.4247 5.37456C27.387 5.34183 27.3567 5.30146 27.3358 5.25614C27.3149 5.21081 27.3038 5.16156 27.3034 5.11164V5.08406C27.3031 5.0136 27.3202 4.94416 27.3532 4.88186C27.3861 4.81955 27.4338 4.76629 27.4921 4.72676C27.618 4.63237 27.8067 4.58518 28.0584 4.58518C28.3191 4.58518 28.6202 4.64588 28.9618 4.76729C29.3264 4.89939 29.6784 5.0641 30.0135 5.25941L30.7955 3.84366C30.3926 3.57947 29.9546 3.37298 29.4944 3.2302C29.0433 3.08517 28.5727 3.01014 28.0989 3.00771C27.7496 3.00491 27.4018 3.0549 27.0674 3.156C26.7621 3.2476 26.478 3.3989 26.2315 3.60114C25.9815 3.80658 25.7816 4.06642 25.6473 4.36084C25.5129 4.65526 25.4476 4.97648 25.4563 5.3V5.32695C25.4563 5.67751 25.5214 5.9741 25.6517 6.21671C25.777 6.45329 25.949 6.66199 26.1573 6.83017C26.3676 6.99851 26.6016 7.13482 26.8517 7.23467C27.1009 7.33562 27.3552 7.42338 27.6135 7.49759C27.8113 7.56052 28 7.61895 28.1798 7.67289C28.3422 7.72067 28.502 7.77692 28.6585 7.84142C28.7811 7.88909 28.8933 7.96005 28.9889 8.05039C29.0273 8.0868 29.058 8.13071 29.0788 8.17941C29.0997 8.22811 29.1104 8.28057 29.1102 8.33355V8.3605C29.1113 8.43804 29.0927 8.5146 29.0562 8.58299C29.0196 8.65138 28.9663 8.70938 28.9012 8.75152C28.7619 8.85039 28.5439 8.89982 28.2473 8.89982C27.8711 8.89321 27.4991 8.82017 27.1484 8.68409C26.7272 8.52382 26.3302 8.30602 25.9686 8.03691L25.0922 9.38523C25.9757 10.0841 27.0669 10.4685 28.1934 10.4773C28.5599 10.48 28.9251 10.4323 29.2788 10.3358C29.5971 10.2505 29.8966 10.1064 30.1619 9.91102C30.4136 9.72228 30.615 9.47457 30.7484 9.18969C30.8877 8.89769 30.9573 8.54953 30.9573 8.14503ZM40.018 6.74271V6.71575C40.018 6.11349 39.9259 5.58091 39.7416 5.11799C39.575 4.68307 39.3254 4.28468 39.0068 3.94497C38.7113 3.63278 38.3528 3.38692 37.9551 3.22364C37.566 3.06309 37.1491 2.98061 36.7282 2.98091C36.1888 2.98091 35.7416 3.09103 35.3866 3.31126C35.0319 3.53119 34.7229 3.81738 34.4765 4.15419V3.11573H32.4272V12.4999H34.4766V9.39881C34.7325 9.69757 35.0353 9.95259 35.3732 10.1539C35.7283 10.3696 36.18 10.4774 36.7283 10.4774C37.1537 10.4786 37.5752 10.3962 37.9688 10.2348C38.365 10.0725 38.7215 9.8264 39.0137 9.51344C39.3287 9.17221 39.5758 8.77411 39.7418 8.34042C39.9259 7.8775 40.018 7.34493 40.018 6.74271ZM37.9686 6.74271C37.973 7.02329 37.9249 7.30222 37.827 7.56518C37.7396 7.79653 37.6092 8.00925 37.4427 8.19212C37.2859 8.36384 37.0954 8.50152 36.8832 8.59662C36.6683 8.69001 36.4365 8.7382 36.2023 8.7382C35.968 8.7382 35.7362 8.69001 35.5214 8.59662C35.3105 8.50251 35.1221 8.36463 34.9686 8.19212C34.8047 8.00597 34.6767 7.79112 34.591 7.55842C34.4942 7.2975 34.4462 7.02099 34.4495 6.74271V6.71575C34.4462 6.43747 34.4942 6.16096 34.591 5.90004C34.6767 5.66728 34.8048 5.45238 34.9686 5.26618C35.1221 5.09367 35.3106 4.95579 35.5214 4.86168C35.7363 4.76829 35.9681 4.7201 36.2023 4.7201C36.4366 4.7201 36.6684 4.76829 36.8832 4.86168C37.0955 4.95678 37.2859 5.09446 37.4428 5.26618C37.6103 5.45083 37.7408 5.66597 37.827 5.89988C37.9239 6.16084 37.9719 6.43738 37.9686 6.7157L37.9686 6.74271ZM48.2697 6.93122V6.90427C48.2715 6.40463 48.2011 5.90735 48.0607 5.42784C47.9294 4.97141 47.7095 4.54531 47.4136 4.17386C47.1164 3.806 46.741 3.50903 46.3146 3.30455C45.8741 3.08883 45.3527 2.98096 44.7506 2.98096C44.2677 2.97338 43.7886 3.06797 43.3448 3.25851C42.9009 3.44905 42.5024 3.73125 42.1753 4.0866C41.8559 4.43595 41.6065 4.84329 41.4405 5.28658C41.264 5.75166 41.1749 6.24532 41.1776 6.74276V6.76971C41.1704 7.28911 41.2666 7.80474 41.4607 8.28656C41.6417 8.72884 41.91 9.13009 42.2495 9.46635C42.5922 9.80255 43.0007 10.0642 43.4495 10.2349C43.9294 10.4177 44.4393 10.5092 44.9528 10.5046C45.609 10.5046 46.1798 10.3855 46.6652 10.1472C47.1466 9.91225 47.5701 9.57386 47.9056 9.15623L46.7326 8.11803C46.4865 8.35088 46.2042 8.54214 45.8967 8.6843C45.6064 8.8052 45.2942 8.86488 44.9798 8.8596C44.5214 8.8596 44.1371 8.74049 43.827 8.50229C43.5169 8.26408 43.3124 7.91125 43.2135 7.44379H48.2427C48.2517 7.34493 48.2584 7.25954 48.2629 7.18764C48.2675 7.11573 48.2697 7.03025 48.2697 6.93122ZM46.2742 6.1627H43.1866C43.2675 5.69527 43.4405 5.32224 43.7057 5.04358C43.9709 4.76493 44.3192 4.62561 44.7506 4.62561C45.1821 4.62561 45.5282 4.76719 45.7889 5.05035C46.0495 5.33351 46.2113 5.70415 46.2742 6.1627ZM56.535 6.93122V6.90427C56.5368 6.40463 56.4664 5.90735 56.326 5.42784C56.1947 4.97141 55.9748 4.54531 55.6788 4.17386C55.3817 3.80599 55.0062 3.50901 54.5798 3.30455C54.1393 3.08883 53.6179 2.98096 53.0158 2.98096C52.5328 2.97339 52.0537 3.06797 51.6099 3.25851C51.1661 3.44906 50.7676 3.73125 50.4405 4.0866C50.1211 4.43595 49.8716 4.84329 49.7057 5.28658C49.5292 5.75166 49.44 6.24532 49.4427 6.74276V6.76971C49.4356 7.28911 49.5318 7.80474 49.7259 8.28656C49.9068 8.72884 50.1751 9.13009 50.5147 9.46635C50.8574 9.80254 51.2659 10.0642 51.7146 10.2349C52.1945 10.4177 52.7044 10.5092 53.218 10.5046C53.8742 10.5046 54.445 10.3855 54.9303 10.1472C55.4117 9.91224 55.8353 9.57385 56.1708 9.15623L54.9978 8.11803C54.7517 8.35088 54.4693 8.54214 54.1618 8.6843C53.8715 8.8052 53.5594 8.86488 53.245 8.8596C52.7865 8.8596 52.4022 8.74049 52.0921 8.50229C51.782 8.26408 51.5775 7.91127 51.4787 7.44384H56.5078C56.5168 7.34498 56.5235 7.2596 56.528 7.18769C56.5326 7.11578 56.535 7.03029 56.535 6.93122ZM54.5395 6.1627H51.4519C51.5328 5.69527 51.7058 5.32224 51.971 5.04358C52.2361 4.76493 52.5845 4.62561 53.016 4.62561C53.4474 4.62561 53.7935 4.76719 54.0542 5.05035C54.3148 5.33351 54.4767 5.70415 54.5395 6.1627ZM65.3259 10.3425V0.5H63.2764V4.05954C63.0206 3.76081 62.7177 3.5058 62.3798 3.30455C62.0247 3.08883 61.573 2.98096 61.0248 2.98096C60.5994 2.97977 60.1779 3.06222 59.7843 3.22364C59.388 3.38593 59.0316 3.632 58.7393 3.94497C58.4244 4.2862 58.1773 4.6843 58.0112 5.11799C57.827 5.58091 57.7348 6.11349 57.7348 6.71575V6.74271C57.7348 7.34496 57.827 7.87755 58.0112 8.34047C58.1779 8.77539 58.4274 9.17378 58.746 9.51349C59.0416 9.82568 59.4 10.0715 59.7977 10.2348C60.1869 10.3953 60.6038 10.4778 61.0247 10.4775C61.564 10.4775 62.0112 10.3674 62.3663 10.1471C62.7209 9.92721 63.0299 9.64102 63.2764 9.30421V10.3424L65.3259 10.3425ZM63.3033 6.74271C63.3065 7.02099 63.2585 7.2975 63.1617 7.55842C63.076 7.79112 62.948 8.00596 62.7842 8.19212C62.6307 8.36463 62.4422 8.50251 62.2313 8.59662C62.0165 8.69001 61.7847 8.7382 61.5504 8.7382C61.3162 8.7382 61.0844 8.69001 60.8695 8.59662C60.6573 8.50152 60.4668 8.36385 60.31 8.19212C60.1425 8.00747 60.012 7.79233 59.9257 7.55842C59.8289 7.2975 59.7809 7.02099 59.7841 6.74271V6.71575C59.7797 6.43517 59.8278 6.15624 59.9257 5.89327C60.0131 5.66193 60.1435 5.44921 60.31 5.26633C60.4668 5.09461 60.6573 4.95693 60.8695 4.86183C61.0844 4.76845 61.3162 4.72026 61.5504 4.72026C61.7847 4.72026 62.0165 4.76845 62.2313 4.86183C62.4422 4.95595 62.6307 5.09383 62.7842 5.26633C62.948 5.4525 63.076 5.66734 63.1617 5.90004C63.2585 6.16096 63.3065 6.43747 63.3033 6.71575V6.74271Z" fill="url(#paint0_linear_2069_7124)"/>
<defs>
<linearGradient id="paint0_linear_2069_7124" x1="65.3259" y1="6.49997" x2="0.674316" y2="6.49997" gradientUnits="userSpaceOnUse">
<stop stop-color="#3B55E6"/>
<stop offset="0.52" stop-color="#4C96E3"/>
<stop offset="1" stop-color="#60E1E0"/>
</linearGradient>
</defs>
</svg>
