<svg width="17" height="16" viewBox="0 0 17 16" fill="none" xmlns="http://www.w3.org/2000/svg">
<path d="M6.5 13.5C6.5 13.6978 6.44135 13.8911 6.33147 14.0556C6.22159 14.22 6.06541 14.3482 5.88268 14.4239C5.69996 14.4996 5.49889 14.5194 5.30491 14.4808C5.11093 14.4422 4.93275 14.347 4.79289 14.2071C4.65304 14.0673 4.5578 13.8891 4.51921 13.6951C4.48063 13.5011 4.50043 13.3 4.57612 13.1173C4.65181 12.9346 4.77998 12.7784 4.94443 12.6685C5.10888 12.5586 5.30222 12.5 5.5 12.5C5.76522 12.5 6.01957 12.6054 6.20711 12.7929C6.39464 12.9804 6.5 13.2348 6.5 13.5ZM12 12.5C11.8022 12.5 11.6089 12.5586 11.4444 12.6685C11.28 12.7784 11.1518 12.9346 11.0761 13.1173C11.0004 13.3 10.9806 13.5011 11.0192 13.6951C11.0578 13.8891 11.153 14.0673 11.2929 14.2071C11.4327 14.347 11.6109 14.4422 11.8049 14.4808C11.9989 14.5194 12.2 14.4996 12.3827 14.4239C12.5654 14.3482 12.7216 14.22 12.8315 14.0556C12.9414 13.8911 13 13.6978 13 13.5C13 13.2348 12.8946 12.9804 12.7071 12.7929C12.5196 12.6054 12.2652 12.5 12 12.5ZM14.7563 4.2C14.7093 4.13826 14.6489 4.08811 14.5795 4.05344C14.5102 4.01876 14.4338 4.00048 14.3562 4H3.51875L3.0125 2.225C2.9518 2.01647 2.82525 1.83317 2.65177 1.7025C2.47829 1.57182 2.26719 1.50079 2.05 1.5H1C0.867392 1.5 0.740215 1.55268 0.646447 1.64645C0.552678 1.74021 0.5 1.86739 0.5 2C0.5 2.13261 0.552678 2.25979 0.646447 2.35355C0.740215 2.44732 0.867392 2.5 1 2.5H2.05L2.6625 4.63125V4.64375L4.3125 10.4125C4.4031 10.7256 4.5928 11.0008 4.85312 11.1969C5.11345 11.393 5.43034 11.4993 5.75625 11.5H11.7437C12.0697 11.4993 12.3866 11.393 12.6469 11.1969C12.9072 11.0008 13.0969 10.7256 13.1875 10.4125L14.8375 4.6375C14.8587 4.56325 14.8623 4.48512 14.8482 4.40921C14.8341 4.33331 14.8026 4.2617 14.7563 4.2V4.2Z" fill="white"/>
</svg>
