<svg version="1.1" xmlns="http://www.w3.org/2000/svg" viewBox="0 0 2048 1697" width="870" height="721" preserveAspectRatio="none" display="block"><defs><linearGradient id="i" gradientUnits="userSpaceOnUse" x1="1470.26" y1="1066.13" x2="1630.85" y2="1065.05"><stop class="stop0" offset="0" stop-opacity="1" stop-color="#1c1c1c" data-c-stop-color="81950" data-o-stop-color="1"/><stop class="stop1" offset="1" stop-opacity="1" stop-color="#080808" data-c-stop-color="71a9ea" data-o-stop-color="1"/></linearGradient><linearGradient id="h" gradientUnits="userSpaceOnUse" x1="1727.93" y1="872.611" x2="1878.43" y2="841.314"><stop class="stop0" offset="0" stop-opacity="1" stop-color="#080808" data-c-stop-color="64abdc" data-o-stop-color="1"/><stop class="stop1" offset="1" stop-opacity="1" stop-color="#000000" data-c-stop-color="6ccef3" data-o-stop-color="1"/></linearGradient><linearGradient id="g" gradientUnits="userSpaceOnUse" x1="1497.52" y1="1207.85" x2="1826.99" y2="964.378"><stop class="stop0" offset="0" stop-opacity="1" stop-color="#080808" data-c-stop-color="7e91e1" data-o-stop-color="1"/><stop class="stop1" offset="1" stop-opacity="1" stop-color="#000000" data-c-stop-color="74bcef" data-o-stop-color="1"/></linearGradient><linearGradient id="f" gradientUnits="userSpaceOnUse" x1="1535.91" y1="776.604" x2="1802.1" y2="542.512"><stop class="stop0" offset="0" stop-opacity="1" stop-color="#000000" data-c-stop-color="83b3e9" data-o-stop-color="1"/><stop class="stop1" offset="1" stop-opacity="1" stop-color="#000000" data-c-stop-color="58d8ec" data-o-stop-color="1"/></linearGradient><linearGradient id="e" gradientUnits="userSpaceOnUse" x1="1086.99" y1="454.24" x2="1316.58" y2="126.806"><stop class="stop0" offset="0" stop-opacity="1" stop-color="#000000" data-c-stop-color="68b8e8" data-o-stop-color="1"/><stop class="stop1" offset="1" stop-opacity="1" stop-color="#000000" data-c-stop-color="54d9eb" data-o-stop-color="1"/></linearGradient><linearGradient id="d" gradientUnits="userSpaceOnUse" x1="952.347" y1="1277.74" x2="1670.27" y2="295.896"><stop class="stop0" offset="0" stop-opacity="1" stop-color="#1c1c1c" data-c-stop-color="8b71da" data-o-stop-color="1"/><stop class="stop1" offset="1" stop-opacity="1" stop-color="#000000" data-c-stop-color="56e2f0" data-o-stop-color="1"/></linearGradient><linearGradient id="c" gradientUnits="userSpaceOnUse" x1="352.241" y1="1099.97" x2="930.475" y2="330.212"><stop class="stop0" offset="0" stop-opacity="1" stop-color="#27292e" data-c-stop-color="9f6fdf" data-o-stop-color="1"/><stop class="stop1" offset="1" stop-opacity="1" stop-color="#080808" data-c-stop-color="5cbcec" data-o-stop-color="1"/></linearGradient><linearGradient id="b" gradientUnits="userSpaceOnUse" x1="258.09" y1="1430.27" x2="765.327" y2="625.513"><stop class="stop0" offset="0" stop-opacity="1" stop-color="#1c1c1c" data-c-stop-color="c154dd" data-o-stop-color="1"/><stop class="stop1" offset="1" stop-opacity="1" stop-color="#27292e" data-c-stop-color="6a9ae5" data-o-stop-color="1"/></linearGradient><linearGradient id="a" gradientUnits="userSpaceOnUse" x1="958.91" y1="1219.07" x2="1388.29" y2="533.292"><stop class="stop0" offset="0" stop-opacity="1" stop-color="#27292e" data-c-stop-color="8b7ae1" data-o-stop-color="1"/><stop class="stop1" offset="1" stop-opacity="1" stop-color="#000000" data-c-stop-color="67bdeb" data-o-stop-color="1"/></linearGradient></defs><path fill="url(#a)" d="M 1053.73 488.502 C 1061 487.102 1091.22 488.025 1100.1 488.357 C 1159.14 490.565 1228.13 483.919 1285.82 494.367 C 1373.88 510.6 1451.83 561.306 1502.37 635.234 C 1563.05 723.304 1576.28 838.756 1557.77 942.402 C 1540.81 1037.42 1491.16 1114.65 1411.47 1169.5 C 1338.35 1214.31 1279.82 1223.99 1195.51 1224.02 L 1124.69 1224.06 L 1026.52 1224.11 C 1016.49 1224.11 965.941 1225.13 959.575 1222.11 C 957.708 1217.89 958.055 1211.53 958.015 1206.68 L 957.574 866.919 C 957.614 802.153 956.766 738.148 957.415 673.276 C 957.738 634.074 957.744 594.869 957.433 555.666 C 957.396 538.303 956.344 507.937 958.624 492.064 C 964.838 486.456 1040.69 488.829 1053.73 488.502 z M 982.228 1199.06 C 1031.73 1200.78 1081.61 1200.09 1131.22 1200.19 C 1175.89 1200.28 1220.57 1201.35 1265.02 1196.55 C 1279.45 1194.99 1290.63 1191.27 1304.4 1188.43 C 1351.51 1178.68 1400.03 1152.13 1435.49 1119.03 C 1438.73 1115.98 1441.92 1112.87 1445.06 1109.7 C 1610.98 941.776 1561.33 600.975 1321.39 529.147 C 1306.34 524.641 1291.72 519.411 1275.99 517.329 C 1235.17 512.234 1193.82 513.073 1152.84 513.048 L 1003.39 513.189 C 999.065 513.227 995.042 513.233 990.726 513.545 C 986.769 513.778 985.532 513.205 982.578 515.21 C 980.784 525.898 981.717 572.127 981.724 585.907 L 981.721 739.666 L 981.76 1039.33 L 981.773 1142.25 C 981.8 1160.34 981.359 1181.19 982.228 1199.06 z"/><path fill="url(#b)" d="M 271.844 355.673 L 274.191 356.208 C 280.16 352.368 302.096 336.368 306.868 336.751 C 309.08 340.865 304.747 345.35 306.922 348.589 L 310.411 348.913 L 310.954 350.28 C 307.175 355.375 290.185 369.515 284.566 373.697 L 284.021 375.588 L 284.805 376.415 C 237.964 424.525 232.617 462.638 236.242 527.534 C 243.648 525.399 250.925 523.493 258.584 522.44 C 277.882 519.788 354.234 517.956 372.483 521.07 C 381.305 522.575 389.347 525.698 396.452 531.211 C 403.052 536.333 407.841 542.963 410.384 550.927 C 417.756 574.019 414.612 667.917 414.471 696.846 C 414.417 707.824 413.349 719.903 414.924 730.73 C 415.543 734.986 416.717 738.838 419.005 742.506 C 424.391 751.136 454.419 782.74 462.828 788.894 C 494.52 791.043 581.786 783.442 604.503 795.574 C 619.854 803.772 628.95 817.683 641.135 829.33 C 648.789 836.647 662.36 843.151 665.132 854.02 C 665.761 856.487 665.581 859.276 664.125 861.432 C 660.115 867.368 649.735 869.467 643.959 873.798 C 634.716 880.73 626.73 889.231 615.806 893.637 C 599.459 900.23 527.691 896.826 504.93 896.747 C 495.346 896.713 483.316 895.394 474.214 898.805 C 456.952 905.273 428.284 954.152 404.876 958.757 C 397.752 960.159 347.484 959.349 340.173 958.485 C 336.013 957.993 331.357 957.077 327.977 954.461 C 325.814 952.786 324.309 950.512 324.111 947.74 C 323.886 944.595 325.198 940.252 327.397 937.964 C 334.152 930.94 376.423 934.758 388.122 933.916 C 388.176 907.504 389.122 876.412 386.951 850.114 C 386.385 843.255 378.722 836.974 372.439 835.555 C 345.738 829.526 314.244 836.092 286.688 830.712 C 273.146 828.068 260.029 820.365 248.923 813.13 C 229.288 800.337 197.471 767.969 194.33 742.961 C 190.395 706.992 192.367 669.811 192.044 633.63 C 191.963 624.495 203.393 617.305 210.51 624.79 C 212.887 627.291 215.324 631.459 215.575 634.885 C 217.564 662.131 216.446 689.629 216.78 716.94 C 216.871 742.999 223.451 758.537 242.389 776.479 C 256.911 789.638 269.88 799.322 288.984 805.451 C 323.512 816.528 398.928 792.883 410.187 843.604 C 414.345 862.333 412.757 903.709 413.118 924.281 C 427.55 909.479 443.458 890.299 459.534 877.706 C 468.136 870.968 493.238 873.024 504.981 872.917 C 532.669 872.664 561.403 873.482 589.192 872.832 C 606.933 872.376 615.542 862.979 626.671 850.651 C 618.157 838.869 602.13 823.583 590.142 815.314 C 559.822 812.792 526.597 815.79 495.986 814.307 C 477.48 813.41 460.843 818.542 446.035 804.953 C 436.179 795.909 426.897 786.619 417.323 777.219 L 352.999 713.214 C 343.029 703.364 331.254 691.123 320.77 682.122 C 303.174 680.779 282.651 677.757 280.154 655.666 C 279.15 646.231 282.105 636.802 288.316 629.629 C 299.104 617.213 318.126 613.854 330.517 626.23 C 342.199 637.898 341.788 650.189 341.847 665.552 C 349.943 678.692 376.613 704.998 388.543 717.234 C 391.933 703.668 391.725 577.284 388.341 562.697 C 386.984 556.85 384.373 551.537 378.964 548.484 C 369.954 543.399 289.148 544.941 272.834 546.249 C 265.099 546.861 257.446 548.249 249.99 550.391 C 114.15 588.364 98.0425 771.463 203.06 852.484 C 209.679 857.591 230.419 873.517 232.463 880.532 C 229.465 891.402 205.993 914.233 196.705 926.6 C 175.28 955.127 173.194 991.977 187.444 1024.44 C 196.793 1045.74 231.939 1067.39 250.015 1082.74 C 269.078 1098.93 289.162 1097.02 312.987 1097.04 L 369.153 1097.18 L 426.566 1097.34 C 465.516 1097.4 459.363 1101.98 474.336 1069.73 C 480.435 1056.6 516.796 1055.46 516.578 1081.47 C 516.292 1115.41 493.722 1099.72 475.59 1116.02 C 449.966 1140.07 426.476 1165.94 402.307 1191.16 L 362.199 1233.47 C 353.45 1242.53 321.843 1273.41 319.412 1283.57 C 303.765 1348.94 318.024 1431.81 373.039 1475.37 C 402.632 1498.8 447.686 1516.01 485.711 1511.94 C 480.577 1492.99 473.226 1475.97 470.29 1456.24 C 466.892 1433.43 467.212 1307.21 473.901 1290.63 C 478.162 1280.06 489.893 1268.09 500.504 1263.93 C 505.049 1262.14 510.842 1261.4 515.337 1263.74 C 517.432 1264.84 518.487 1266.26 519.004 1268.58 C 521.582 1280.15 501.281 1293.21 495.212 1301.87 C 493.049 1314.35 492.989 1337.26 492.956 1350.75 C 492.86 1389.69 488.692 1435.11 497.735 1472.94 C 503.561 1497.31 529.383 1536.68 547.608 1553.9 C 588.615 1592.65 640.626 1608.95 696.578 1606.81 C 746.07 1605.15 792.796 1583.58 826.151 1546.98 C 845.29 1526.08 864.92 1492.41 872.433 1464.91 C 877.579 1446.07 876.588 1408.07 876.604 1388.01 L 876.317 1296.08 C 876.061 1246.73 877.782 1197.69 875.736 1148.04 C 871.745 1141.79 866.086 1135.92 864.29 1128.57 C 860.802 1114.29 869.675 1101 884.122 1098.07 C 891.079 1096.67 898.309 1098.15 904.152 1102.18 C 923.208 1115.35 912.106 1136.15 902.083 1150.18 C 900.262 1173.55 901.303 1211.01 901.363 1235.39 L 901.284 1373.43 C 901.285 1397.55 902.286 1431.69 899.393 1454.93 C 893.265 1504.17 856.59 1556.72 818.413 1586.94 C 768.696 1626.3 713.394 1636.55 651.677 1628.69 C 583.29 1619.98 542.631 1589.36 502.142 1536.89 C 466.177 1536.63 441.65 1537.29 406.848 1523.2 C 359.01 1503.83 323.341 1467.72 304.064 1419.87 C 298.401 1405.82 295.371 1389.21 289.649 1375.6 L 289.104 1374.32 C 281.259 1371.99 274.047 1369.71 266.411 1366.77 C 196.239 1339.73 153.132 1267.92 158.488 1193.57 C 159.532 1179.09 162.569 1165.55 165.552 1151.32 C 158.525 1144.87 150.99 1139.43 143.757 1133.26 C 103.699 1098.57 78.7357 1049.64 74.166 996.845 C 69.507 937.889 85.1999 891.905 121.815 845.849 C 128.785 837.081 135.321 831.773 141.802 824.129 L 142.47 823.329 C 137.14 810.045 128.947 797.539 123.43 784.222 C 108.361 747.852 106.005 702.987 114.137 664.594 C 122.317 625.976 146.282 584.176 176.821 558.927 C 184.66 552.447 197.759 545.492 206.447 539.788 C 209.341 537.888 211.177 535.976 211.48 532.427 C 212.399 521.652 210.633 509.263 210.112 498.33 C 209.458 484.612 211.581 471.269 213.435 457.953 C 217.993 425.221 244.088 374.472 271.844 355.673 z M 187.319 1165.58 C 179.182 1214.43 184.365 1259.2 214.759 1299.89 C 230.204 1320.57 246.143 1331.85 269.92 1341.99 C 274.849 1344.09 282.24 1348.69 287.478 1347.61 C 290.473 1343.55 289.102 1321.25 289.226 1314.75 C 289.725 1256.11 321.962 1241.63 357.76 1201.6 C 382.252 1174.21 409.556 1148.74 434.845 1122.18 C 419.786 1120.65 403.118 1121.08 387.882 1121.14 L 324.609 1121.48 C 309.125 1121.57 276.967 1123.01 262.926 1117.45 C 233.253 1105.7 198.189 1075.84 177.086 1051.96 C 157.287 1029.57 151.615 995.888 153.729 967.362 C 156.343 935.384 180.016 906.588 199.848 882.268 C 196.118 879.134 158.666 845.19 157.884 844.879 C 143.527 855.403 129.165 875.715 120.476 891.442 C 63.817 993.997 117.677 1115.31 225.724 1153.61 C 239.65 1158.54 276.061 1160.4 260.83 1183.49 C 253.56 1193.19 196.89 1170.5 187.319 1165.58 z M 315.968 660.914 C 325.112 653.475 320.955 641.115 309.407 641.047 C 308.05 641.045 306.692 641.074 305.336 641.135 C 294.586 650.743 301.866 661.07 315.968 660.914 z"/><path fill="url(#c)" d="M 553.632 181.373 C 569.104 148.41 596.257 121.557 628.336 104.579 C 632.637 106.478 631.797 105.421 634.317 108.788 L 634.254 111.274 C 632.303 111.153 633.257 111.358 631.397 110.643 C 628.314 118.137 624.11 134.333 617.429 138.936 C 615.068 140.563 612.888 141.169 613.146 144.234 C 601.331 157.256 593.295 161.852 582.59 177.888 C 573.911 190.643 567.538 204.822 563.761 219.78 C 554.707 256.601 560.151 305.993 558.935 344.412 C 558.207 367.421 574.118 378.326 589.107 393.093 L 640.911 444.841 C 650.012 454.088 678.122 478.973 672.153 492.884 C 666.459 499.159 655.647 495.505 648.469 493.316 C 645.963 506.405 646.941 520.627 646.487 533.952 C 645.639 558.87 643.164 585.144 645.606 609.954 C 646.133 615.307 646.879 621.023 650.029 625.531 C 656.841 635.282 667.648 643.418 676.063 651.817 C 696.655 672.372 816.051 785.214 820.493 797.911 C 825.206 811.383 822.653 862.562 822.774 880.042 L 823.072 931.221 C 823.157 944.635 825.11 970.086 816.415 980.077 C 782.207 1019.38 742.69 1055.74 706.744 1093.56 C 682.221 1119.36 649.517 1144.98 628.845 1173.41 C 666.621 1213.22 707.439 1250.48 745.452 1290.22 C 769.501 1315.36 758.335 1343.97 760.361 1373.61 C 762.135 1399.58 738.554 1405.27 736.745 1381.92 C 735.139 1361.17 740.882 1327.91 729.353 1308.33 C 688.002 1265.14 644.874 1222.69 601.841 1181.1 C 599.091 1178.44 597.101 1174.71 595.699 1171.21 L 596.43 1170.24 C 608.415 1154.49 641.831 1122.79 657.285 1107.37 L 767.593 996.061 C 773.355 990.134 794.662 971.21 795.773 965.568 C 800.799 940.044 797.301 900.479 798.148 874.179 C 798.868 851.797 798.144 835.821 797.68 814.065 C 797.524 811.049 796.035 805.751 794.195 803.382 C 784.498 790.89 769.961 777.636 758.566 766.513 L 667.189 677.056 C 653.757 663.813 637.556 648.776 625.747 634.233 C 622.966 630.807 621.48 625.192 621.227 620.712 C 620.124 601.212 621.212 580.546 621.592 560.94 C 622.235 540.291 621.776 519.198 623.424 498.652 C 623.937 492.257 631.286 471.746 629.523 468.399 C 623.802 457.534 601.747 438.368 592.653 429.089 C 573.599 409.647 552.838 394.289 537.901 371.293 C 536.464 369.124 534.474 360.059 534.354 357.279 C 533.671 341.486 533.818 324.736 533.97 308.907 C 534.172 287.808 533.575 265.851 534.828 244.884 C 535.516 233.378 538.695 219.131 540.431 207.435 C 401.844 200.124 357.766 299.056 367.894 420.176 C 370.238 448.204 396.306 433.842 414.451 440.587 C 438.349 447.584 456.094 459.427 472.333 478.109 C 484.473 492.076 488.158 497.08 488.204 515.95 C 488.283 548.193 483.417 584.122 487.257 615.911 C 501.49 601.093 522.123 584.164 531.303 565.826 C 533.499 561.438 534.844 541.705 534.414 535.517 C 533.498 522.343 537.293 491.929 532.889 480.681 C 528.751 470.114 509.364 455.2 501.518 446.534 C 484.595 430.875 465.965 411.227 446.912 398.646 C 443.276 396.245 427.251 394.007 422.193 392.757 C 418.936 360.917 424.761 333.523 445.695 307.445 C 454.084 296.994 475.601 273.55 490.615 282.929 C 498.34 295.309 475.926 309.208 469.486 317.77 C 459.899 330.519 441.022 359.412 449.079 375.658 C 455.37 379.559 463.538 379.908 469.565 383.839 C 482.075 392 493.29 406.28 504.016 416.77 C 519.502 431.915 537.441 446.338 550.67 463.484 C 554.113 467.947 556.376 473.272 557.712 478.728 C 562.148 496.843 561.355 548.977 557.155 567.963 C 556.092 572.765 554.325 576.76 551.7 580.923 C 543.56 593.83 494.167 648.804 481.336 651.225 C 476.061 652.22 469.285 651.398 464.925 648.067 C 461.989 645.824 461.471 642.582 461.087 639.109 C 459.933 628.668 460.816 617.377 460.886 606.862 C 461.017 587.427 460.997 567.962 461.449 548.532 C 461.689 538.18 465.165 515.161 461.577 506.246 C 457.747 496.733 443.367 484.142 435.219 477.447 C 428.19 471.672 419.973 467.104 411.107 464.921 C 402.411 462.781 393.311 462.951 384.446 461.992 C 360.64 459.416 346.375 445.973 343.712 422.044 C 340.916 396.917 341.653 371.081 343.539 345.914 C 321.853 351.427 301.561 361.324 284.805 376.415 L 284.021 375.588 L 284.566 373.697 C 290.185 369.515 307.175 355.375 310.954 350.28 L 310.411 348.913 L 306.922 348.589 C 304.747 345.35 309.08 340.865 306.868 336.751 C 302.096 336.368 280.16 352.368 274.191 356.208 L 271.844 355.673 C 293.524 336.743 320.572 327.255 347.052 318.111 C 350.297 310.937 353.375 299.456 356.704 291.473 C 365.948 269.305 379.307 246.627 396.593 229.941 C 443.133 185.019 493.798 181.023 553.632 181.373 z"/><path fill="url(#d)" d="M 999.678 158.495 C 987.568 174.953 971.74 185.769 951.63 170.443 C 930.432 154.289 940.273 115.028 969.771 116.717 C 985.669 116.964 989.417 122.281 996.948 133.889 C 1056.06 135.685 1115.61 133.392 1174.8 134.189 C 1202.16 134.557 1229.59 133.704 1256.95 135.279 C 1438.06 144.637 1608.84 222.537 1734.62 353.177 C 1880.84 508.046 1936.49 694.888 1928.26 904.797 C 1917.69 1174.06 1749.66 1412.49 1502.94 1518.52 C 1485.33 1526.09 1464.9 1535.41 1446.62 1540.95 C 1437.05 1544.47 1421.7 1549.31 1411.65 1551.2 C 1392.55 1557.04 1353.31 1565.89 1333.44 1568.05 C 1336.5 1564.92 1343.76 1564.95 1349.24 1562.95 C 1345.45 1559.13 1341.65 1562.9 1336.47 1558.47 C 1336.22 1552.86 1339.82 1553.2 1339.88 1546.45 C 1337.98 1543.43 1338.32 1544.34 1334.03 1542.82 C 1350.58 1539.55 1367.07 1536.07 1383.52 1532.36 C 1397.99 1529.02 1412.71 1524.67 1427.03 1520.63 C 1439.47 1515.9 1452.6 1512.01 1465.18 1507.34 C 1482.71 1500.68 1499.91 1493.16 1516.71 1484.8 C 1639.02 1426.62 1741.01 1333 1809.43 1216.1 C 1848.22 1150.23 1878.48 1078.18 1892.17 1002.63 C 1915.63 873.141 1906.23 722.053 1860.67 598.056 C 1782.19 384.506 1591.19 223.964 1370.31 174.194 C 1286.05 155.208 1205.09 157.099 1119.6 157.375 L 1042.98 157.757 C 1030.2 157.841 1012.08 157.488 999.678 158.495 z M 972.482 156.92 C 977.697 155.78 981.074 150.717 980.123 145.464 C 979.173 140.211 974.235 136.653 968.952 137.413 C 965.359 137.929 962.336 140.366 961.069 143.767 C 959.802 147.168 960.494 150.989 962.872 153.73 C 965.25 156.472 968.936 157.695 972.482 156.92 z"/><path fill="#27292e" d="M1383.52 1532.36C1397.99 1529.02 1412.71 1524.67 1427.03 1520.63 1424.29 1525.75 1415.15 1536.84 1409.52 1538.65 1399.98 1541.72 1391.5 1535.45 1383.52 1532.36zM1411.65 1551.2C1412.04 1548.51 1411.43 1549.72 1413.68 1547.91L1416.1 1545.97C1422 1541.3 1440.03 1538.34 1446.62 1540.95 1437.05 1544.47 1421.7 1549.31 1411.65 1551.2zM486.83 685.315C505.316 684.107 515.317 688.338 523.627 705.141 540.944 705.965 614.742 702.884 624.811 708.978 636.763 716.211 651.159 732.876 661.545 742.853 684.471 764.877 710.284 786.719 730.348 811.298 734.52 816.409 737.77 822.091 739.514 828.476 742.972 841.141 742.606 917.046 741.349 932.997 740.936 938.232 740.154 944.532 737.876 949.312 729.103 967.728 647.367 1045.96 627.394 1066.11 607.728 1085.96 588.784 1106.46 568.945 1126.15 556.494 1138.5 529.169 1162.33 521.351 1176.44 521.171 1176.76 521.003 1177.09 520.829 1177.42 537.423 1195.98 554.587 1212.39 572.192 1229.88L667.877 1323.76C705.379 1360.6 696.607 1373.8 696.99 1426.23 699.085 1428.03 701.154 1429.85 703.198 1431.71 716.895 1444.23 720.2 1464.17 706.407 1478.37 694.736 1490.39 669.993 1488.23 658.895 1475.48 653.682 1469.58 651.205 1461.76 652.077 1453.93 653.741 1439.36 662.839 1433.5 673.184 1425.35 673.895 1414.73 674.495 1374.06 670.68 1366.6 663.542 1352.64 631.196 1323.32 619.291 1311.16L549.026 1240.45C536.206 1227.57 514.957 1204.64 501.358 1195.41 485.396 1205.74 429.007 1268.11 412.317 1284.45 402.807 1293.76 403.972 1349.96 405.754 1365.74 413.186 1374.73 421.446 1377.44 424.48 1391.4 426.201 1399.32 425.007 1406.38 420.596 1413.24 415.91 1420.61 408.332 1425.65 399.73 1427.12 389.496 1428.85 380.757 1426.11 372.406 1420.44 371.222 1419.31 369.126 1417.29 368.124 1415.97 363.601 1410.01 361.562 1402.53 362.433 1395.1 363.966 1382.13 371.95 1375.17 381.399 1367.66L380.711 1314.9C380.674 1305.35 380.706 1285.28 385.956 1277.49 394.512 1264.8 410.66 1249.91 421.736 1238.83L475.483 1185.07 661 997.262C629.195 997.666 597.386 997.74 565.58 997.484 551.324 997.395 505.947 994.769 494.162 1000.98 476.388 1010.35 461.52 1035.95 437.93 1039.6 426.873 1041.31 416.91 1041.26 405.735 1041.34 365.993 1041.42 324.281 1041.65 284.712 1040.37 259.494 1037.96 245.908 1017.71 241.145 995.019 235.738 969.256 262.986 965.35 266.721 991.164 268.422 1002.92 276.281 1016.43 290.44 1016.68 334.779 1017.46 380.072 1017.58 424.509 1017.3 452.998 1017.17 466.98 976.037 495.908 973.413 511.599 971.989 528.962 972.583 544.756 972.591L632.609 972.714C647.866 972.661 666.106 972.991 681.154 971.82 691.23 965.496 703.164 955.055 711.199 946.264 715.959 940.515 715.982 931.194 716.055 923.666 716.276 895.954 718.573 860.284 715.952 833.534 715.167 825.522 659.873 774.862 651.378 766.333 643.004 757.926 621.36 735.845 613.394 730.741 605.994 729.829 591.287 730.261 583.198 730.212 563.982 730 544.764 729.994 525.547 730.192 521.009 734.17 515.067 741.532 509.827 743.76 500.794 747.601 489.86 748.272 480.836 744.199 473.439 740.852 467.701 734.666 464.918 727.039 457.992 708.504 468.664 690.995 486.83 685.315zM687.138 1466.92C693.178 1463.41 698.069 1458.27 693.272 1451.2 689.613 1445.81 684.084 1446.79 678.326 1447.08 668.241 1456.96 674.553 1470.81 687.138 1466.92zM395.696 1407.91C401.22 1406.54 404.621 1400.98 403.335 1395.44 402.049 1389.89 396.553 1386.41 390.987 1387.6 387.307 1388.39 384.34 1391.11 383.223 1394.7 382.107 1398.3 383.015 1402.21 385.6 1404.95 388.184 1407.69 392.043 1408.82 395.696 1407.91zM498.588 725.081C503.54 722.706 505.609 716.753 503.197 711.819 500.786 706.885 494.817 704.861 489.901 707.31 485.038 709.732 483.04 715.625 485.426 720.506 487.812 725.387 493.689 727.43 498.588 725.081z" data-c-fill="9676de" fill-opacity="1"/><path fill="#1c1c1c" d="M 716.431 164.433 C 723.194 164.083 775.756 166.437 761.124 190.823 C 756.944 197.791 725.552 187.884 714.325 188.767 C 692.278 190.499 669.466 200.611 652.576 215.765 C 634.998 230.624 637.268 258.296 637.991 279.273 C 638.337 289.34 636.413 333.937 640.5 338.885 C 669.03 373.428 711.547 401.227 736.65 438.489 C 740.517 444.229 739.509 470.56 739.519 478.356 L 739.409 550.256 C 739.337 561.644 737.585 599.378 743.526 606.434 C 775.47 644.375 818.11 677.815 852.132 714.4 C 863.328 726.44 876.033 736.935 887.064 748.026 C 903.174 764.224 899.997 777.289 900.033 797.884 L 900.068 848.062 C 900.1 893.634 901.886 939.519 900.277 985.047 C 900.104 989.941 900.259 997.226 898.158 1001.76 C 891.647 1015.79 821.165 1084 805.742 1099.21 C 798.116 1106.73 784.418 1117.19 780.294 1127 C 776.602 1135.78 777.212 1151.5 777.009 1161.14 C 776.158 1201.54 780.581 1196.92 806.178 1224.15 C 813.297 1231.72 818.458 1240.83 820.761 1251 C 826.3 1275.45 823.122 1318.89 823.142 1344.97 C 823.163 1373.81 824.632 1402.8 823.828 1431.63 C 823.561 1441.2 822.859 1452.44 819.54 1461.5 C 811.202 1484.26 775.677 1520.94 756.873 1538.52 C 752.349 1542.75 747.143 1547.16 741.138 1549.01 C 727.913 1553.07 669.142 1551.44 652.603 1550.69 C 623.397 1549.37 614.734 1539.29 594.859 1519.43 C 585.371 1509.95 575.55 1500.6 566.513 1490.69 C 559.928 1483.47 553.337 1475.39 549.569 1466.28 C 541.12 1445.84 545.171 1411.05 546.197 1388.81 C 542.443 1387.13 539.53 1385.07 536.086 1382.85 C 530.471 1377.51 526.902 1370.37 525.997 1362.67 C 525.061 1354.39 527.458 1345.44 532.919 1339.08 C 538.388 1332.77 546.209 1328.99 554.548 1328.63 C 563.22 1328.33 571.734 1332.19 577.902 1338.16 C 583.638 1343.66 586.919 1351.23 587.004 1359.18 C 587.083 1372.63 578.516 1380.4 569.967 1388.99 C 569.584 1402.12 568.256 1438.94 570.031 1450.1 C 570.786 1454.91 572.632 1459.48 575.427 1463.47 C 581.317 1472.03 620.802 1514.09 628.589 1519.87 C 632.555 1522.81 637.095 1525.18 641.96 1526.15 C 654.935 1528.74 710.105 1528.03 723.444 1526.03 C 728.316 1525.29 732.444 1524.03 736.587 1521.26 C 746.328 1514.76 781.6 1476.53 788.958 1466.28 C 792.898 1460.8 795.989 1455.16 797.102 1448.43 C 800.505 1427.85 800.386 1264.91 796.075 1253.23 C 787.968 1231.25 757.613 1221.48 754.016 1197.14 C 752.717 1188.35 753.735 1123.78 756.925 1116.64 C 763.389 1102.17 798.536 1071.14 810.72 1058.9 C 823.461 1046.09 835.809 1032.91 848.589 1020.14 C 856.185 1012.56 865.675 1004.78 871.879 996.073 C 874.41 992.521 875.207 989.783 875.582 985.474 C 876.603 973.77 876 961.44 876.019 949.679 L 876.075 885.293 L 876.046 815.205 C 876 801.307 876.395 781.328 874.18 768.177 C 866.428 758.444 855.968 751.337 847.359 742.644 C 831.827 726.96 816.593 711.137 800.529 695.949 C 782.281 678.536 763.719 661.262 746.063 643.246 C 733.915 630.85 717.207 618.329 715.963 599.789 C 714.985 585.206 715.522 570.425 715.662 555.817 C 715.894 531.955 715.956 508.091 715.85 484.227 C 715.827 475.931 716.606 454.16 713.092 447.466 C 703.712 429.597 680.083 411.918 665.783 397.175 C 650.039 382.039 629.96 366.536 618.33 347.87 C 611.666 334.261 613.413 313.189 613.621 298.446 C 614.075 266.203 606.921 230.66 630.45 204.781 C 652.954 180.031 683.406 166.382 716.431 164.433 z M 562.873 1368.86 C 571.136 1356.07 565.183 1348.42 550.676 1348.95 C 541.499 1359.94 547.286 1371.87 562.873 1368.86 z" data-c-fill="898900" fill-opacity="1"/><path fill="url(#e)" d="M 1214.86 206.507 C 1308.96 206.24 1361.59 221.255 1449.23 249.866 C 1451.83 248.197 1454.47 246.589 1457.15 245.044 C 1464.58 240.843 1474.53 239.81 1482.66 242.373 C 1490.96 245.017 1497.81 250.944 1501.61 258.772 C 1505.39 266.676 1505.84 275.763 1502.86 284.001 C 1494.66 306.852 1463.5 307.334 1449.47 290.339 C 1445.49 285.517 1443.48 279.869 1441.12 274.112 C 1431.36 268.049 1412.71 263.102 1400.97 259.192 C 1364.52 246.757 1326.89 238.104 1288.66 233.371 C 1254.28 229.378 1207.37 230.697 1171.87 230.844 C 1108.37 230.941 1044.88 231.701 981.396 233.126 C 983.614 266.597 979.272 314.488 982.778 345.935 C 998.937 346.14 1015.09 346.446 1031.25 346.853 L 1181.42 347.039 C 1201.63 347.072 1240.67 348.438 1259.32 345.574 C 1274.11 334.119 1289.69 324.262 1307 341.179 C 1319.02 352.923 1319.14 374.834 1306.76 386.187 C 1300.43 391.99 1291.58 392.828 1283.38 392.157 C 1268.77 391.528 1262.33 382.731 1253.68 372.633 C 1235.44 369.71 1192.15 370.835 1171.76 370.971 L 1023.06 372.125 C 1009.66 372.157 972.953 373.67 961.76 369.084 C 956.581 363.484 957.822 340.11 957.813 332.249 L 957.681 287.1 C 957.617 268.975 957.301 250.843 957.224 232.719 C 957.189 224.712 957.463 217.044 962.517 210.432 C 970.852 205.146 1039.51 206.888 1053.46 206.86 L 1214.86 206.507 z M 1476.92 280.842 C 1487.91 273 1483.35 261.758 1472.41 261.785 C 1467.6 265.605 1465.47 266.581 1464.73 272.635 C 1466.28 278.926 1471.02 279.935 1476.92 280.842 z M 1290.77 370.07 C 1294.32 368.613 1293.07 369.452 1295.46 366.245 C 1296.98 356.852 1292 353.375 1283.33 352.915 C 1278.52 356.123 1276.01 361.951 1279.01 367.235 C 1281.95 372.406 1286 370.901 1290.77 370.07 z"/><path fill="#27292e" d="M 1421.33 1214.07 C 1424.4 1213.93 1428.08 1214.29 1430.35 1216.4 C 1452.57 1237.04 1396.85 1253.99 1385.46 1258.71 C 1360.84 1268.91 1333.22 1278.99 1307.41 1283.54 C 1200.54 1302.37 1090.21 1288.8 981.923 1293.86 C 980.763 1330.68 981.561 1372.96 981.993 1409.96 L 1175.78 1410.38 C 1200.31 1410.25 1224.51 1410.13 1249 1408.65 C 1261.35 1407.9 1272.98 1408.4 1285.58 1406.89 C 1294.62 1391.29 1304.67 1379.73 1325.09 1385.93 C 1332.29 1388.08 1338.3 1393.06 1341.76 1399.73 C 1346.74 1409.2 1346.24 1417.63 1343.04 1427.28 C 1327.55 1455.52 1307.67 1444.91 1287.98 1431.19 C 1280.59 1430.76 1268.62 1432.03 1260.8 1432.47 C 1248.66 1433.06 1236.52 1433.43 1224.37 1433.58 C 1142.28 1435.11 1059.67 1433.09 977.518 1433.82 C 972.693 1433.86 963.909 1433.57 959.671 1431.26 C 957.019 1422.69 957.954 1381.32 957.955 1369.5 L 957.95 1270.66 C 980.047 1269.62 1005.25 1270.13 1027.53 1270.11 L 1147.32 1270.06 C 1262.29 1270.01 1315.92 1266.56 1421.33 1214.07 z M 1316.04 1423.64 C 1321.15 1420.7 1325.98 1417.92 1324.05 1411.18 C 1321.09 1407.28 1318.67 1406.79 1313.77 1406.04 C 1298.98 1410.52 1304.15 1423.92 1316.04 1423.64 z" data-c-fill="9676de" fill-opacity="1"/><path fill="#000000" d="M 966.549 418.371 L 1126.09 418.466 C 1164.76 418.263 1205.34 416.856 1243.85 418.53 C 1418.95 426.138 1580.16 559.925 1624.17 728.672 C 1628.7 745.696 1632.05 763.009 1634.22 780.491 C 1635.04 786.94 1636.22 818.032 1637.96 821.199 C 1646.22 836.205 1663.75 847.469 1655.91 868.896 C 1652.85 877.268 1643.97 882.901 1636.34 886.077 C 1626.68 887.785 1616.68 886.73 1608.4 881.062 C 1602.04 876.754 1597.82 869.934 1596.8 862.317 C 1594.4 845.541 1603.23 838.138 1611.84 826.378 C 1615.98 787.521 1598.81 726.349 1585.38 690.235 C 1578.44 671.551 1566.32 649.411 1556.1 632.401 C 1493.14 527.529 1385.03 457.855 1263.51 443.831 C 1242.1 441.213 1190.98 442.448 1168.53 442.647 L 1035 442.804 C 1023.7 442.81 968.349 444.18 962.724 441.346 C 959.39 439.706 956.922 436.711 955.949 433.125 C 953.825 425.096 958.672 419.501 966.549 418.371 z M 1630.08 867.59 C 1633.36 863.945 1637.02 859.448 1636.64 854.103 C 1636.47 851.948 1635.4 849.967 1633.68 848.657 C 1630.37 846.094 1625.38 846.871 1621.21 847.068 C 1614.03 855.441 1617.28 870.314 1630.08 867.59 z" data-c-fill="67bee8" fill-opacity="1"/><path fill="url(#f)" d="M 1564 310.934 C 1570.57 311.713 1575.52 314.217 1580.95 317.793 C 1633.69 352.58 1684.21 402.832 1723.92 451.792 C 1732.91 462.886 1745.2 477.133 1749.87 490.695 C 1751.52 495.48 1751.55 500.643 1751.07 505.628 C 1749.1 525.77 1728.06 587.746 1730.76 599.727 C 1734.48 616.223 1742.54 631.91 1748.51 647.695 C 1756.18 667.949 1762.46 689.14 1767.66 710.152 C 1771.11 724.09 1772.29 738.798 1774.46 752.993 C 1780.79 794.461 1787.46 835.583 1784.5 877.726 C 1783.38 893.655 1781.56 909.643 1779.51 925.477 C 1778.15 936.01 1775.96 946.852 1775.99 957.465 L 1776.01 958.682 C 1786.42 973.563 1793.82 990.419 1778.75 1007.26 C 1771.96 1014.85 1762.96 1015.98 1753.18 1016.14 C 1727.89 1010.44 1717.68 984.002 1736.13 964.201 C 1739.67 960.402 1746.59 957.243 1751.29 954.76 C 1756.59 930.559 1760.59 883.281 1760.81 858.07 C 1761.33 799.145 1749.82 735.238 1733.56 678.517 C 1726.42 653.642 1708.36 623.265 1705.86 596.751 C 1707.51 568.361 1722.82 530.097 1727.69 500.162 C 1727.58 499.883 1727.48 499.605 1727.38 499.327 L 1726.85 497.951 C 1721.63 484.406 1710.11 473.094 1701.41 461.816 C 1668.68 419.389 1629.6 384.197 1587.4 351.502 C 1578.62 344.7 1536.54 322.634 1564 310.934 z M 1759.06 994.495 C 1764.2 993.589 1767.69 988.743 1766.91 983.576 C 1766.13 978.409 1761.37 974.809 1756.18 975.464 C 1752.71 975.902 1749.76 978.185 1748.45 981.429 C 1747.15 984.672 1747.71 988.367 1749.91 991.08 C 1752.12 993.794 1755.62 995.101 1759.06 994.495 z"/><path fill="#000000" d="M 628.336 104.579 C 655.105 91.5539 674.111 85.1104 703.903 83.2001 C 805.169 76.707 897.66 151.637 900.019 255.477 C 902.768 376.443 898.091 495.145 901.037 615.878 C 901.101 618.193 901.763 626.715 902.847 628.203 C 922.385 655.024 913.922 686.065 873.784 674.922 C 855.993 659.009 862.566 644.68 875.725 629.233 C 876.778 546.363 876.211 461.328 876.142 378.355 L 876.025 300.942 C 875.936 276.278 876.567 252.185 871.718 228.161 C 856.842 154.455 791.695 107.544 717.994 108.192 C 687.773 108.458 658.118 115.717 631.886 131.307 C 628.846 133.106 615.04 143.661 613.146 144.234 C 612.888 141.169 615.068 140.563 617.429 138.936 C 624.11 134.333 628.314 118.137 631.397 110.643 C 633.257 111.358 632.303 111.153 634.254 111.274 L 634.317 108.788 C 631.797 105.421 632.637 106.478 628.336 104.579 z" data-c-fill="67bee8" fill-opacity="1"/><path fill="#1c1c1c" d="M 1653.15 1194.23 C 1684.98 1198.9 1647.39 1235.51 1639.19 1244.43 C 1582.62 1306.31 1511.52 1361.4 1433.53 1392.87 C 1421.98 1397.53 1344.98 1354.14 1323.84 1348.28 C 1269.19 1367.66 1195.4 1364.95 1137.45 1364.77 C 1123.75 1364.73 1093.65 1364.96 1081.64 1363.07 C 1068.32 1384.06 1049.01 1389.99 1028.98 1372.37 C 1006.04 1339.83 1039.02 1308.97 1070.37 1327.9 C 1074.24 1330.24 1078.18 1336.68 1080.75 1340.54 C 1101.92 1342.54 1123.93 1341.49 1145.21 1341.48 C 1179.87 1341.47 1214.31 1342.25 1248.83 1338.4 C 1261.98 1336.94 1275.37 1334.69 1288.37 1332.2 C 1302.37 1329.52 1318.83 1323.54 1333.04 1325.25 C 1360.23 1328.53 1410.2 1371.35 1433.95 1365.27 C 1445.89 1362.21 1457.37 1353.2 1468.29 1347.5 C 1524.88 1318.14 1575.58 1278.61 1617.84 1230.88 C 1627.27 1220.43 1635.28 1208.99 1644.08 1198.04 C 1646 1195.66 1650.19 1194.92 1653.15 1194.23 z M 1053.77 1361.16 C 1066.06 1353.76 1062.4 1344.24 1050.52 1341.52 C 1038.05 1348.14 1037.87 1362.67 1053.77 1361.16 z" data-c-fill="898900" fill-opacity="1"/><path fill="url(#g)" d="M 1693.78 797.045 C 1718.09 795.843 1712.22 817.346 1713.17 836.377 C 1716.56 904.154 1704.03 969.525 1685.13 1034.2 C 1689.65 1047.01 1699.49 1065.46 1705.69 1078.11 C 1718.04 1103.44 1730.56 1128.69 1743.26 1153.85 C 1748.4 1164 1759.51 1184.31 1762.56 1193.57 C 1755.88 1217.67 1706.91 1278.34 1688.86 1298.69 C 1681.04 1307.51 1669.99 1317.86 1663.32 1327.89 C 1660.28 1332.63 1660.24 1338.99 1659.32 1344.37 C 1655.31 1367.78 1637.5 1370.17 1618.09 1366.58 C 1616.5 1365.86 1614.91 1365.13 1613.39 1364.28 C 1606.73 1360.53 1601.93 1353.45 1600.05 1346.11 C 1597.79 1337.31 1599.98 1328.55 1604.67 1320.96 C 1617.69 1299.91 1627.45 1313.55 1642.28 1309.16 C 1657.99 1304.51 1726.67 1212.06 1736.13 1193.8 C 1726.33 1165.37 1657.37 1050.46 1660.09 1032.83 C 1662.24 1018.88 1667.71 1005.35 1671.39 991.702 C 1678.19 966.476 1683.54 940.304 1686.52 914.325 C 1688.94 893.182 1690.38 871.43 1689.83 850.149 C 1689.46 835.844 1686.5 820.484 1688.26 806.343 C 1688.85 801.615 1690.02 799.913 1693.78 797.045 z M 1633.4 1346.65 C 1638.54 1344.48 1640.99 1338.57 1638.88 1333.39 C 1636.77 1328.22 1630.9 1325.7 1625.69 1327.73 C 1622.26 1329.08 1619.82 1332.16 1619.31 1335.81 C 1618.79 1339.45 1620.27 1343.09 1623.19 1345.34 C 1626.1 1347.59 1630 1348.09 1633.4 1346.65 z"/><path fill="#27292e" d="M 1532.32 1377.41 C 1543.82 1377.05 1553.04 1381.79 1558.8 1391.94 C 1563.16 1399.75 1564.06 1409.04 1561.28 1417.54 C 1553.47 1441.92 1531.87 1439.15 1512.78 1433.36 C 1476.38 1447.51 1445.29 1464.24 1406.82 1476.7 C 1323.45 1503.69 1252.6 1503.03 1166.3 1503.58 L 1000.25 1503.97 C 988.948 1504.01 969.52 1505.85 960.879 1497.41 C 956.157 1493.75 962.103 1482.14 966.265 1481.48 C 986.286 1478.32 1014.78 1480.16 1034.51 1480.27 L 1166.18 1480.33 C 1209.32 1480.22 1256.45 1480.26 1299.38 1474.91 C 1357.27 1467.26 1413.72 1451.12 1466.9 1427 C 1476.37 1422.74 1491.26 1416.13 1499.74 1410.57 C 1506.01 1390.02 1509.53 1381.39 1532.32 1377.41 z M 1536.23 1415.75 C 1549.2 1407.07 1540.89 1398.73 1528.91 1397.84 C 1517.31 1406.7 1520.44 1417.18 1536.23 1415.75 z" data-c-fill="9676de" fill-opacity="1"/><path fill="url(#h)" d="M 1798.78 593.26 C 1813.27 592.073 1825.72 595.108 1831.96 610.014 C 1837.88 624.15 1832.92 635.378 1827.17 648.379 C 1832.87 674.051 1840.06 702.647 1844.62 728.317 C 1860.12 812.341 1860.59 898.449 1846 982.636 C 1843.57 996.181 1840.4 1009.58 1836.51 1022.78 C 1832.92 1034.65 1826.94 1051.78 1825.02 1063.75 L 1824.8 1065.16 C 1829.64 1077.01 1837 1083.8 1834.01 1098.09 C 1829.66 1118.84 1811.4 1124.33 1793.34 1119.84 C 1770.57 1110.28 1764.13 1084.12 1783.66 1066 C 1785.31 1064.47 1797.81 1059.75 1800.84 1058.42 C 1806.76 1043.95 1813.72 1013.39 1817.04 997.751 C 1840.35 889.183 1833.99 778.637 1808.04 671.155 C 1800.82 641.231 1782.93 656.244 1776.26 630.814 C 1772.14 615.098 1780.42 596.445 1798.78 593.26 z M 1811.96 632.566 C 1822.79 621.104 1813.85 611.648 1799.73 612.1 C 1792.92 624.63 1796.78 634.017 1811.96 632.566 z M 1809.61 1099.14 C 1812.79 1096.46 1813.26 1096.1 1814.84 1092.28 C 1814.46 1083.42 1805.82 1081.71 1798.23 1080.79 C 1789.06 1090.17 1793.57 1104.46 1809.61 1099.14 z"/><path fill="#000000" d="M1051.73 259.283C1072.88 258.622 1074.84 275.76 1085.86 276.773 1114.41 279.4 1144.71 276.795 1173.36 276.193 1210.39 275.416 1246.51 276.506 1283.39 279.698 1303.55 281.444 1334.09 282.793 1349.79 296.854 1372.48 317.167 1391.02 373.235 1410.71 387.613 1417.29 392.413 1425.93 395.05 1433.3 398.462 1444.66 403.717 1455.86 409.367 1467.1 414.885 1473.96 413.783 1483.25 411.831 1490.05 412.592 1516.54 415.557 1523.26 453.912 1501.78 467.635 1492.61 473.491 1484.15 472.517 1474.17 470.297 1459.07 463.889 1456.77 451.536 1454.75 436.897 1438.52 427.81 1407.01 414.965 1394.45 405.075 1378.54 392.546 1360.89 355.315 1350.42 337.118 1346.31 329.982 1342.2 321.395 1336.04 315.793 1315.82 297.411 1180.72 300.576 1147.69 300.798 1126.03 300.943 1103.96 300.114 1082.35 301.597 1075.89 310.151 1071.68 316.185 1060.22 318.627 1032.04 324.634 1013.21 292.862 1029.31 270.196 1034.7 262.603 1043 260.519 1051.73 259.283zM1484.1 433.106C1470.01 441.375 1475.78 450.529 1489.84 451.815 1500.56 447.028 1498.7 433.455 1484.1 433.106zM1058.21 296.842C1066.08 290.079 1061.61 279.857 1052.57 279.772 1051.1 279.769 1049.63 279.807 1048.17 279.886 1042.05 287.144 1043.7 299.363 1054.71 297.554 1055.88 297.351 1057.05 297.114 1058.21 296.842zM801.577 248.363C810.955 247.535 817.535 248.047 819.533 258.923 823.403 279.986 821.977 303.154 821.988 324.687L821.899 461.095C821.854 483.583 821.375 507.405 822.378 529.828 822.916 541.852 836.715 548.429 838.838 561.981 840.096 569.743 838.179 577.684 833.519 584.016 828.295 591.074 820.719 595.715 811.946 596.687 803.597 597.643 795.226 595.095 788.825 589.652 782.765 584.452 778.787 576.388 778.465 568.497 777.658 548.693 787.23 546.125 797.666 534.299 799.36 510.044 798.098 467.065 797.954 441.75 798.026 425.034 797.985 408.318 797.831 391.602 792.05 385.781 782.741 378.34 776.28 372.343 759.289 356.429 742.404 340.403 725.624 324.267 715.265 324.036 698.136 324.671 690.683 316.872 662.783 287.677 700.037 244.37 732.687 272.281 741.688 279.975 742.28 293.131 742.408 304.331 751.338 319.005 782.49 349.25 797.982 356.503L797.871 291.65C797.843 282.001 796.086 254.617 801.577 248.363zM808.406 576.706C821.49 572.75 823.132 562.872 810.534 557.019 804.834 558.786 801.671 559.352 798.631 564.606 798.1 572.141 802.206 573.74 808.406 576.706zM715.266 303.426C718.41 301.975 720.507 298.919 720.729 295.463 720.95 292.008 719.261 288.709 716.328 286.868 713.395 285.028 709.69 284.942 706.675 286.645 702.269 289.134 700.611 294.655 702.917 299.159 705.223 303.663 710.672 305.545 715.266 303.426z" data-c-fill="67bee8" fill-opacity="1"/><path fill="#1c1c1c" d="M 1625.21 1103.28 C 1643.74 1101.75 1658.88 1112.89 1659.51 1132.24 C 1659.76 1140.83 1656.42 1149.13 1650.28 1155.15 C 1639.96 1165.45 1629.23 1165.24 1616 1164.94 C 1606.6 1175.23 1597.2 1189.42 1587.15 1200.47 C 1562.32 1227.76 1535.52 1252.59 1505.92 1274.63 C 1494.84 1282.88 1480.23 1289.62 1468.37 1298.18 L 1467.06 1299.13 C 1461.83 1318.72 1459.38 1332.44 1435.54 1333.21 C 1431.14 1333.09 1424.16 1332.46 1420.22 1330.8 C 1413.61 1328.07 1408.41 1322.76 1405.81 1316.1 C 1402.82 1308.51 1402.95 1300.05 1406.19 1292.56 C 1409.6 1284.9 1416.06 1279.02 1424.01 1276.34 C 1434.31 1272.87 1440.76 1275.25 1449.72 1279.47 C 1502.7 1254.74 1564.7 1193.62 1598.29 1145.99 C 1597.97 1124.48 1599.6 1107.24 1625.21 1103.28 z M 1438.98 1313.06 C 1442.44 1308.53 1444.81 1305.92 1444.63 1300.25 C 1440.96 1294.24 1436.09 1295 1429.42 1294.97 C 1417.68 1301.36 1424.59 1314.89 1438.98 1313.06 z M 1634.85 1140.5 C 1644.88 1125.48 1633.42 1123.26 1620.93 1124.23 C 1615.77 1135.52 1622.15 1144.95 1634.85 1140.5 z" data-c-fill="898900" fill-opacity="1"/><path fill="#27292e" d="M 1007.7 1577.32 C 1003.11 1580.68 997.579 1586.84 992.855 1589.41 C 970.897 1601.36 945.975 1586.83 947.325 1561.51 C 948.426 1540.86 962.631 1531.63 981.722 1533.63 C 993.832 1534.89 1000.05 1543.82 1006.83 1552.69 C 1014.31 1553.31 1026.9 1552.85 1034.69 1552.81 L 1088.39 1552.77 C 1164 1553.32 1260.09 1555.43 1334.03 1542.82 C 1338.32 1544.34 1337.98 1543.43 1339.88 1546.45 C 1339.82 1553.2 1336.22 1552.86 1336.47 1558.47 C 1341.65 1562.9 1345.45 1559.13 1349.24 1562.95 C 1343.76 1564.95 1336.5 1564.92 1333.44 1568.05 C 1303.21 1574.88 1262.24 1575.53 1231.16 1575.89 C 1186.38 1576.25 1141.6 1576.24 1096.83 1575.86 C 1069.35 1575.73 1034.75 1574.95 1007.7 1577.32 z M 980.93 1568.9 L 979.786 1570.63 C 987.854 1572.11 997.159 1551.35 972.029 1553.07 C 968.043 1557.07 964.171 1565.54 969.843 1569.37 C 973.896 1568 970.975 1562.55 978.621 1565.74 L 980.93 1568.9 z" data-c-fill="9676de" fill-opacity="1"/><path fill="url(#i)" d="M 1617.89 929.05 C 1624.61 929 1631.72 929.924 1632.29 938.383 C 1632.77 948.643 1630.08 960.052 1627.72 970.064 C 1619.93 1006.15 1605.4 1037.51 1589.45 1070.31 C 1572.74 1104.69 1552.93 1130 1528.7 1159.52 C 1528.81 1163.28 1528.97 1167.16 1529.04 1170.92 C 1529.6 1200.55 1510.96 1207.26 1485.49 1201.48 C 1475.98 1197.09 1470.95 1188.82 1469.7 1178.51 C 1468.64 1169.82 1471.29 1161.09 1477 1154.46 C 1486.05 1143.87 1496.06 1144.53 1508.71 1143.33 C 1517.81 1135.32 1531.09 1117.66 1538.43 1107.67 C 1573.79 1059.58 1596.64 1002.46 1608.1 944.09 C 1609.59 936.53 1611.27 932.99 1617.89 929.05 z M 1503.52 1182.91 C 1508.28 1180.68 1510.45 1175.11 1508.45 1170.25 C 1506.45 1165.39 1500.99 1162.96 1496.04 1164.72 C 1492.62 1165.94 1490.15 1168.95 1489.61 1172.54 C 1489.07 1176.13 1490.55 1179.72 1493.46 1181.89 C 1496.37 1184.06 1500.24 1184.45 1503.52 1182.91 z"/><path fill="#000000" d="M1445.88 330.002C1462.41 329.319 1477.99 340.808 1491.83 348.319 1535.44 371.982 1575.2 401.839 1609.88 437.291 1619.2 446.809 1628.95 456.28 1638.43 465.756 1659.26 464.419 1677.23 469.705 1680.53 494.46 1681.8 504.039 1677.13 512.424 1671.19 519.613 1652.46 533.027 1628.83 527.387 1621.25 504.41 1618.82 497.033 1619.98 490.48 1620.6 482.875 1594.49 445.236 1537.78 406.193 1499.95 379.228 1486.19 369.419 1424.77 349.589 1445.88 330.002zM1653.64 503.634C1662.5 495.084 1658.71 486.579 1647.12 485.79 1639.64 491.552 1639.78 501.632 1648.97 504.501L1653.64 503.634zM1548.3 485.872C1563.14 484.469 1577.15 505.071 1585.86 515.355 1612.38 546.656 1636.96 582.213 1654.61 619.278 1661.17 633.281 1667.19 647.537 1672.63 662.013 1675.68 670.13 1681.38 687.583 1685.47 694.005 1693.86 707.22 1712.96 708.089 1709.41 730.065 1708.01 738.736 1704.47 742.698 1697.44 747.74 1678.74 755.262 1659.07 747.862 1659.16 725.332 1659.18 718.67 1661.41 713.877 1663.72 707.731 1649.21 650.202 1613.88 591.19 1578.94 543.573 1572.1 534.246 1541.85 505.992 1542.15 496.818 1542.3 492.242 1545.31 488.992 1548.3 485.872z" data-c-fill="67bee8" fill-opacity="1"/></svg>