<svg width="24" height="24" viewBox="0 0 24 24" fill="none" xmlns="http://www.w3.org/2000/svg">
<rect width="24" height="24" fill="#F1F5F8"/>
<path d="M9.7642 8L9.62358 14.1619H8.25142L8.11506 8H9.7642ZM8.9375 16.821C8.67898 16.821 8.45739 16.7301 8.27273 16.5483C8.09091 16.3665 8 16.1449 8 15.8835C8 15.6278 8.09091 15.4091 8.27273 15.2273C8.45739 15.0455 8.67898 14.9545 8.9375 14.9545C9.19034 14.9545 9.40909 15.0455 9.59375 15.2273C9.78125 15.4091 9.875 15.6278 9.875 15.8835C9.875 16.0568 9.83097 16.2145 9.7429 16.3565C9.65767 16.4986 9.54403 16.6122 9.40199 16.6974C9.26278 16.7798 9.10795 16.821 8.9375 16.821Z" fill="#446888"/>
<path d="M13.1073 8L12.9667 14.1619H11.5945L11.4582 8H13.1073ZM12.2806 16.821C12.0221 16.821 11.8005 16.7301 11.6159 16.5483C11.434 16.3665 11.3431 16.1449 11.3431 15.8835C11.3431 15.6278 11.434 15.4091 11.6159 15.2273C11.8005 15.0455 12.0221 14.9545 12.2806 14.9545C12.5335 14.9545 12.7522 15.0455 12.9369 15.2273C13.1244 15.4091 13.2181 15.6278 13.2181 15.8835C13.2181 16.0568 13.1741 16.2145 13.086 16.3565C13.0008 16.4986 12.8872 16.6122 12.7451 16.6974C12.6059 16.7798 12.4511 16.821 12.2806 16.821Z" fill="#446888"/>
<path d="M16.4505 8L16.3098 14.1619H14.9377L14.8013 8H16.4505ZM15.6237 16.821C15.3652 16.821 15.1436 16.7301 14.959 16.5483C14.7772 16.3665 14.6862 16.1449 14.6862 15.8835C14.6862 15.6278 14.7772 15.4091 14.959 15.2273C15.1436 15.0455 15.3652 14.9545 15.6237 14.9545C15.8766 14.9545 16.0953 15.0455 16.28 15.2273C16.4675 15.4091 16.5612 15.6278 16.5612 15.8835C16.5612 16.0568 16.5172 16.2145 16.4291 16.3565C16.3439 16.4986 16.2303 16.6122 16.0882 16.6974C15.949 16.7798 15.7942 16.821 15.6237 16.821Z" fill="#446888"/>
</svg>
