<svg width="24" height="24" viewBox="0 0 24 24" fill="none" xmlns="http://www.w3.org/2000/svg">
<rect width="24" height="24" fill="#F1F5F8"/>
<path d="M12.7642 8L12.6236 14.1619H11.2514L11.1151 8H12.7642ZM11.9375 16.821C11.679 16.821 11.4574 16.7301 11.2727 16.5483C11.0909 16.3665 11 16.1449 11 15.8835C11 15.6278 11.0909 15.4091 11.2727 15.2273C11.4574 15.0455 11.679 14.9545 11.9375 14.9545C12.1903 14.9545 12.4091 15.0455 12.5938 15.2273C12.7812 15.4091 12.875 15.6278 12.875 15.8835C12.875 16.0568 12.831 16.2145 12.7429 16.3565C12.6577 16.4986 12.544 16.6122 12.402 16.6974C12.2628 16.7798 12.108 16.821 11.9375 16.821Z" fill="#446888"/>
</svg>
