<svg width="24" height="24" viewBox="0 0 24 24" fill="none" xmlns="http://www.w3.org/2000/svg">
<rect width="24" height="24" fill="#F1F5F8"/>
<path d="M10.7642 8L10.6236 14.1619H9.25142L9.11506 8H10.7642ZM9.9375 16.821C9.67898 16.821 9.45739 16.7301 9.27273 16.5483C9.09091 16.3665 9 16.1449 9 15.8835C9 15.6278 9.09091 15.4091 9.27273 15.2273C9.45739 15.0455 9.67898 14.9545 9.9375 14.9545C10.1903 14.9545 10.4091 15.0455 10.5938 15.2273C10.7812 15.4091 10.875 15.6278 10.875 15.8835C10.875 16.0568 10.831 16.2145 10.7429 16.3565C10.6577 16.4986 10.544 16.6122 10.402 16.6974C10.2628 16.7798 10.108 16.821 9.9375 16.821Z" fill="#446888"/>
<path d="M14.1073 8L13.9667 14.1619H12.5945L12.4582 8H14.1073ZM13.2806 16.821C13.0221 16.821 12.8005 16.7301 12.6159 16.5483C12.434 16.3665 12.3431 16.1449 12.3431 15.8835C12.3431 15.6278 12.434 15.4091 12.6159 15.2273C12.8005 15.0455 13.0221 14.9545 13.2806 14.9545C13.5335 14.9545 13.7522 15.0455 13.9369 15.2273C14.1244 15.4091 14.2181 15.6278 14.2181 15.8835C14.2181 16.0568 14.1741 16.2145 14.086 16.3565C14.0008 16.4986 13.8872 16.6122 13.7451 16.6974C13.6059 16.7798 13.4511 16.821 13.2806 16.821Z" fill="#446888"/>
</svg>
