<svg width="24" height="24" viewBox="0 0 24 24" fill="none" xmlns="http://www.w3.org/2000/svg">
<rect width="24" height="24" fill="#FFEBEE"/>
<path d="M8 8.5C8 7.94772 8.44772 7.5 9 7.5C9.55228 7.5 10 7.94772 10 8.5V13C10 13.5523 9.55228 14 9 14C8.44772 14 8 13.5523 8 13V8.5Z" fill="#FF382D"/>
<path d="M8 15.5C8 14.9477 8.44772 14.5 9 14.5C9.55228 14.5 10 14.9477 10 15.5C10 16.0523 9.55228 16.5 9 16.5C8.44772 16.5 8 16.0523 8 15.5Z" fill="#FF382D"/>
<path d="M11 8.5C11 7.94772 11.4477 7.5 12 7.5C12.5523 7.5 13 7.94772 13 8.5V13C13 13.5523 12.5523 14 12 14C11.4477 14 11 13.5523 11 13V8.5Z" fill="#FF382D"/>
<path d="M11 15.5C11 14.9477 11.4477 14.5 12 14.5C12.5523 14.5 13 14.9477 13 15.5C13 16.0523 12.5523 16.5 12 16.5C11.4477 16.5 11 16.0523 11 15.5Z" fill="#FF382D"/>
<path d="M14 8.5C14 7.94772 14.4477 7.5 15 7.5C15.5523 7.5 16 7.94772 16 8.5V13C16 13.5523 15.5523 14 15 14C14.4477 14 14 13.5523 14 13V8.5Z" fill="#FF382D"/>
<path d="M14 15.5C14 14.9477 14.4477 14.5 15 14.5C15.5523 14.5 16 14.9477 16 15.5C16 16.0523 15.5523 16.5 15 16.5C14.4477 16.5 14 16.0523 14 15.5Z" fill="#FF382D"/>
</svg>
