<?xml version="1.0" encoding="UTF-8"?>
<svg width="20px" height="20px" viewBox="0 0 20 20" version="1.1" xmlns="http://www.w3.org/2000/svg" xmlns:xlink="http://www.w3.org/1999/xlink">
    <!-- Generator: Sketch 59.1 (86144) - https://sketch.com -->
    <title>message-send</title>
    <desc>Created with Sketch.</desc>
    <g id="Logo" stroke="none" stroke-width="1" fill="none" fill-rule="evenodd">
        <g transform="matrix(-1,0,0,-1,19.8,19.8)" id="message-send" fill="#999a9b" fill-rule="nonzero">
            <path d="M 18.3 7.3 L 4.3 0.3 C 3.2 -0.2 1.8 0 0.9 0.8 C 0 1.7 -0.3 3.1 0.3 4.2 L 2.7 9.6 L 2.7 9.6 C 2.8 9.9 2.8 10.1 2.7 10.4 L 0.3 15.8 C -0.2 16.7 -0.1 17.8 0.5 18.6 C 1 19.5 2 20 3 20 C 3.5 20 3.9 19.9 4.3 19.7 L 18.4 12.7 C 19.4 12.2 20 11.1 20 10 C 20 8.9 19.4 7.8 18.4 7.3 L 18.3 7.3 Z M 17.4 10.9 L 3.5 17.9 C 3.1 18.1 2.6 18 2.3 17.7 C 2 17.4 1.9 17 2.1 16.6 L 4.5 11.2 C 4.5 11.1 4.5 11.1 4.6 11 L 11.5 11 C 12 11 12.5 10.6 12.5 10 C 12.5 9.4 12 9 11.5 9 L 4.6 9 C 4.5 8.9 4.5 8.9 4.5 8.8 L 2.1 3.4 C 1.9 3 2 2.6 2.3 2.3 C 2.6 2 3.1 1.9 3.5 2.1 L 17.4 9.1 C 17.8 9.3 18 9.6 18 10 C 18 10.4 17.8 10.7 17.4 10.9 Z" id="Shape"></path>
        </g>
    </g>
</svg>