<?xml version="1.0" encoding="utf-8"?><!-- Uploaded to: SVG Repo, www.svgrepo.com, Generator: SVG Repo Mixer Tools -->
<svg width="800px" height="800px" viewBox="0 0 24 24" fill="none" xmlns="http://www.w3.org/2000/svg">
<path d="M3 3L21 21M18 6L17.6 12M17.2498 17.2527L17.1991 18.0129C17.129 19.065 17.0939 19.5911 16.8667 19.99C16.6666 20.3412 16.3648 20.6235 16.0011 20.7998C15.588 21 15.0607 21 14.0062 21H9.99377C8.93927 21 8.41202 21 7.99889 20.7998C7.63517 20.6235 7.33339 20.3412 7.13332 19.99C6.90607 19.5911 6.871 19.065 6.80086 18.0129L6 6H4M16 6L15.4559 4.36754C15.1837 3.55086 14.4194 3 13.5585 3H10.4416C9.94243 3 9.47576 3.18519 9.11865 3.5M11.6133 6H20M14 14V17M10 10V17" stroke="#000000" stroke-width="2" stroke-linecap="round" stroke-linejoin="round"/>
</svg>