<svg xmlns="http://www.w3.org/2000/svg" version="1.1" xmlns:xlink="http://www.w3.org/1999/xlink" xmlns:svgjs="http://svgjs.com/svgjs" width="260" height="260"><svg width="260" height="260" viewBox="0 0 260 260" fill="none" xmlns="http://www.w3.org/2000/svg">
<path fill-rule="evenodd" clip-rule="evenodd" d="M35 139.659C35 105.969 62.3106 78.6586 96 78.6586H164C197.689 78.6586 225 105.969 225 139.659V147.211C225 170.268 212.208 190.337 193.333 200.708V237L151.111 208.211H96C62.3106 208.211 35 180.9 35 147.211V139.659ZM82.2404 150.646C90.8416 150.646 97.8142 143.659 97.8142 135.04C97.8142 126.421 90.8416 119.434 82.2404 119.434C73.6393 119.434 66.6667 126.421 66.6667 135.04C66.6667 143.659 73.6393 150.646 82.2404 150.646ZM177.24 150.646C185.842 150.646 192.814 143.659 192.814 135.04C192.814 126.421 185.842 119.434 177.24 119.434C168.639 119.434 161.667 126.421 161.667 135.04C161.667 143.659 168.639 150.646 177.24 150.646ZM114.167 164.728C114.167 160.131 117.893 156.405 122.49 156.405H136.991C141.588 156.405 145.314 160.131 145.314 164.728C145.314 169.325 141.588 173.051 136.991 173.051H122.49C117.893 173.051 114.167 169.325 114.167 164.728Z" fill="#3347FF"></path>
<ellipse cx="134.174" cy="46.6258" rx="15.5738" ry="15.6258" fill="#3347FF"></ellipse>
<line x1="133.812" y1="46.8862" x2="133.812" y2="93.7636" stroke="#3347FF" stroke-width="7.625"></line>
</svg><style>@media (prefers-color-scheme: light) { :root { filter: none; } }
</style></svg>