<svg width="968" height="200" viewBox="0 0 968 200" fill="none" xmlns="http://www.w3.org/2000/svg">
<path d="M161.964 39.0092C165.77 35.2176 165.798 29.0112 161.631 25.6199C146.161 13.0294 127.1 5.44004 107.016 4.01971C83.6743 2.36899 60.5185 9.16156 41.8004 23.1501C23.0822 37.1386 10.0583 57.3841 5.12015 80.1689C0.867939 99.7888 2.85703 120.157 10.6795 138.485C12.7801 143.407 18.7169 145.107 23.4122 142.54C28.1293 139.962 29.7907 134.057 27.8091 129.06C22.1877 114.884 20.8632 99.2947 24.1226 84.2555C28.0731 66.0277 38.4922 49.8313 53.4668 38.6405C68.4413 27.4496 86.9659 22.0156 105.639 23.3361C121.077 24.4279 135.76 30.0761 147.865 39.4519C152.089 42.7238 158.179 42.7801 161.964 39.0092Z" fill="#389946"/>
<path d="M36.359 160.314C32.4544 164.014 32.2586 170.221 36.3287 173.737C51.5303 186.869 70.4922 195.032 90.6454 196.972C114.043 199.225 137.468 192.939 156.599 179.272C175.729 165.606 189.275 145.481 194.736 122.612C199.439 102.915 197.872 82.3257 190.388 63.6826C188.383 58.69 182.447 56.8607 177.68 59.3552C172.913 61.8491 171.134 67.7199 173.012 72.7596C178.391 87.1891 179.4 102.968 175.789 118.089C171.42 136.385 160.584 152.484 145.279 163.418C129.975 174.351 111.235 179.38 92.5163 177.578C77.047 176.088 62.4551 170.016 50.5559 160.247C46.3977 156.833 40.2648 156.612 36.359 160.314Z" fill="#389946"/>
<path d="M164.418 42.6557C162.42 44.654 159.874 46.0149 157.103 46.5663C154.331 47.1177 151.458 46.8348 148.848 45.7535C146.237 44.6722 144.005 42.841 142.435 40.4915C140.865 38.142 140.027 35.3796 140.027 32.5539C140.027 29.7281 140.865 26.9658 142.435 24.6163C144.005 22.2667 146.237 20.4355 148.848 19.3542C151.458 18.2729 154.331 17.9901 157.103 18.5415C159.874 19.0929 162.42 20.4538 164.418 22.452C167.097 25.1316 168.601 28.7652 168.601 32.5539C168.601 36.3425 167.097 39.9761 164.418 42.6557Z" fill="#BDB822" stroke="#389946" stroke-width="5" stroke-linecap="round" stroke-linejoin="round"/>
<path d="M52.9691 176.941C50.971 178.94 48.4252 180.301 45.6537 180.852C42.8821 181.403 40.0092 181.12 37.3984 180.039C34.7876 178.958 32.5561 177.127 30.9861 174.777C29.4161 172.428 28.5781 169.665 28.5781 166.84C28.5781 164.014 29.4161 161.251 30.9861 158.902C32.5561 156.552 34.7876 154.721 37.3984 153.64C40.0092 152.559 42.8821 152.276 45.6537 152.827C48.4252 153.379 50.971 154.739 52.9691 156.738C55.6475 159.417 57.1522 163.051 57.1522 166.84C57.1522 170.628 55.6475 174.262 52.9691 176.941Z" fill="#BDB822" stroke="#389946" stroke-width="5" stroke-linecap="round" stroke-linejoin="round"/>
<path d="M80.6198 60.5186C73.4341 64.184 67.4017 69.7647 63.1892 76.644C58.9767 83.5233 56.7481 91.4332 56.7498 99.4998C56.7498 106.5 58.3948 113.115 61.3129 118.982C62.0916 120.539 62.3498 122.324 61.8991 124.004L59.296 133.743C59.0382 134.707 59.0384 135.721 59.2967 136.685C59.5549 137.649 60.0622 138.527 60.7674 139.233C61.4726 139.939 62.3511 140.447 63.3146 140.705C64.2781 140.964 65.2927 140.965 66.2566 140.708L75.9954 138.1C77.6863 137.675 79.4747 137.883 81.0223 138.687C87.073 141.698 93.7412 143.26 100.5 143.25C121.872 143.25 139.665 127.924 143.489 107.664C136.981 115.254 127.83 120.084 117.891 121.175C107.953 122.265 97.9722 119.534 89.9734 113.536C81.9747 107.538 76.5573 98.7215 74.8202 88.8756C73.0831 79.0298 75.1565 68.8918 80.6198 60.5186Z" fill="#389946"/>
<path d="M143.488 107.664C143.99 105.012 144.244 102.291 144.25 99.4998C144.25 75.3367 124.663 55.7498 100.5 55.7498C93.5887 55.7404 86.7745 57.375 80.6197 60.5185C75.1565 68.8918 73.0831 79.0298 74.8202 88.8756C76.5572 98.7215 81.9747 107.538 89.9734 113.536C97.9722 119.534 107.953 122.265 117.891 121.175C127.83 120.084 136.981 115.254 143.488 107.664Z" fill="#BDB822"/>
<path d="M249.645 175.135C246.495 175.135 243.525 174.775 240.735 174.055C237.855 173.425 235.425 172.39 233.445 170.95L238.305 158.395C240.915 160.285 244.2 161.23 248.16 161.23C251.22 161.23 253.605 160.24 255.315 158.26C257.025 156.37 257.88 153.535 257.88 149.755V75.91H274.755V149.35C274.755 157.27 272.55 163.525 268.14 168.115C263.82 172.795 257.655 175.135 249.645 175.135ZM266.25 64.03C263.1 64.03 260.49 63.04 258.42 61.06C256.44 59.08 255.45 56.695 255.45 53.905C255.45 51.025 256.44 48.64 258.42 46.75C260.49 44.77 263.1 43.78 266.25 43.78C269.4 43.78 271.965 44.725 273.945 46.615C276.015 48.415 277.05 50.71 277.05 53.5C277.05 56.47 276.06 58.99 274.08 61.06C272.1 63.04 269.49 64.03 266.25 64.03ZM341.299 148V133.42L340.354 130.315V104.8C340.354 99.85 338.869 96.025 335.899 93.325C332.929 90.535 328.429 89.14 322.399 89.14C318.349 89.14 314.344 89.77 310.384 91.03C306.514 92.29 303.229 94.045 300.529 96.295L293.914 84.01C297.784 81.04 302.374 78.835 307.684 77.395C313.084 75.865 318.664 75.1 324.424 75.1C334.864 75.1 342.919 77.62 348.589 82.66C354.349 87.61 357.229 95.305 357.229 105.745V148H341.299ZM318.619 148.945C313.219 148.945 308.494 148.045 304.444 146.245C300.394 144.355 297.244 141.79 294.994 138.55C292.834 135.22 291.754 131.485 291.754 127.345C291.754 123.295 292.699 119.65 294.589 116.41C296.569 113.17 299.764 110.605 304.174 108.715C308.584 106.825 314.434 105.88 321.724 105.88H342.649V117.085H322.939C317.179 117.085 313.309 118.03 311.329 119.92C309.349 121.72 308.359 123.97 308.359 126.67C308.359 129.73 309.574 132.16 312.004 133.96C314.434 135.76 317.809 136.66 322.129 136.66C326.269 136.66 329.959 135.715 333.199 133.825C336.529 131.935 338.914 129.145 340.354 125.455L343.189 135.58C341.569 139.81 338.644 143.095 334.414 145.435C330.274 147.775 325.009 148.945 318.619 148.945ZM378.886 148V75.91H394.951V95.35L392.116 89.41C394.636 84.82 398.281 81.31 403.051 78.88C407.911 76.36 413.491 75.1 419.791 75.1C425.551 75.1 430.681 76.225 435.181 78.475C439.771 80.725 443.371 84.19 445.981 88.87C448.591 93.46 449.896 99.4 449.896 106.69V148H433.021V108.85C433.021 102.46 431.491 97.69 428.431 94.54C425.461 91.39 421.276 89.815 415.876 89.815C411.916 89.815 408.406 90.625 405.346 92.245C402.286 93.865 399.901 96.295 398.191 99.535C396.571 102.685 395.761 106.69 395.761 111.55V148H378.886ZM504.105 175.135C497.445 175.135 490.92 174.235 484.53 172.435C478.23 170.725 473.055 168.205 469.005 164.875L476.565 152.185C479.715 154.795 483.675 156.865 488.445 158.395C493.305 160.015 498.21 160.825 503.16 160.825C511.08 160.825 516.885 158.98 520.575 155.29C524.265 151.69 526.11 146.245 526.11 138.955V126.13L527.46 109.795L526.92 93.46V75.91H542.985V137.065C542.985 150.115 539.655 159.7 532.995 165.82C526.335 172.03 516.705 175.135 504.105 175.135ZM501.945 144.76C495.105 144.76 488.895 143.32 483.315 140.44C477.825 137.47 473.46 133.375 470.22 128.155C467.07 122.935 465.495 116.815 465.495 109.795C465.495 102.865 467.07 96.79 470.22 91.57C473.46 86.35 477.825 82.3 483.315 79.42C488.895 76.54 495.105 75.1 501.945 75.1C508.065 75.1 513.555 76.315 518.415 78.745C523.275 81.175 527.145 84.955 530.025 90.085C532.995 95.215 534.48 101.785 534.48 109.795C534.48 117.805 532.995 124.42 530.025 129.64C527.145 134.77 523.275 138.595 518.415 141.115C513.555 143.545 508.065 144.76 501.945 144.76ZM504.51 130.45C508.74 130.45 512.52 129.595 515.85 127.885C519.18 126.085 521.745 123.655 523.545 120.595C525.435 117.445 526.38 113.845 526.38 109.795C526.38 105.745 525.435 102.19 523.545 99.13C521.745 95.98 519.18 93.595 515.85 91.975C512.52 90.265 508.74 89.41 504.51 89.41C500.28 89.41 496.455 90.265 493.035 91.975C489.705 93.595 487.095 95.98 485.205 99.13C483.405 102.19 482.505 105.745 482.505 109.795C482.505 113.845 483.405 117.445 485.205 120.595C487.095 123.655 489.705 126.085 493.035 127.885C496.455 129.595 500.28 130.45 504.51 130.45ZM578.941 131.935L579.346 110.74L617.011 75.91H637.261L605.266 108.04L596.356 115.465L578.941 131.935ZM565.171 148V47.83H582.046V148H565.171ZM619.576 148L593.251 115.465L603.916 101.965L640.096 148H619.576ZM693.961 148V133.42L693.016 130.315V104.8C693.016 99.85 691.531 96.025 688.561 93.325C685.591 90.535 681.091 89.14 675.061 89.14C671.011 89.14 667.006 89.77 663.046 91.03C659.176 92.29 655.891 94.045 653.191 96.295L646.576 84.01C650.446 81.04 655.036 78.835 660.346 77.395C665.746 75.865 671.326 75.1 677.086 75.1C687.526 75.1 695.581 77.62 701.251 82.66C707.011 87.61 709.891 95.305 709.891 105.745V148H693.961ZM671.281 148.945C665.881 148.945 661.156 148.045 657.106 146.245C653.056 144.355 649.906 141.79 647.656 138.55C645.496 135.22 644.416 131.485 644.416 127.345C644.416 123.295 645.361 119.65 647.251 116.41C649.231 113.17 652.426 110.605 656.836 108.715C661.246 106.825 667.096 105.88 674.386 105.88H695.311V117.085H675.601C669.841 117.085 665.971 118.03 663.991 119.92C662.011 121.72 661.021 123.97 661.021 126.67C661.021 129.73 662.236 132.16 664.666 133.96C667.096 135.76 670.471 136.66 674.791 136.66C678.931 136.66 682.621 135.715 685.861 133.825C689.191 131.935 691.576 129.145 693.016 125.455L695.851 135.58C694.231 139.81 691.306 143.095 687.076 145.435C682.936 147.775 677.671 148.945 671.281 148.945ZM762.058 148.945C755.938 148.945 750.538 147.82 745.858 145.57C741.178 143.23 737.533 139.72 734.923 135.04C732.313 130.27 731.008 124.285 731.008 117.085V75.91H747.883V114.79C747.883 121.27 749.323 126.13 752.203 129.37C755.173 132.52 759.358 134.095 764.758 134.095C768.718 134.095 772.138 133.285 775.018 131.665C777.988 130.045 780.283 127.615 781.903 124.375C783.613 121.135 784.468 117.13 784.468 112.36V75.91H801.343V148H785.278V128.56L788.113 134.5C785.683 139.18 782.128 142.78 777.448 145.3C772.768 147.73 767.638 148.945 762.058 148.945Z" fill="#389946"/>
<path d="M828.837 148.945C825.777 148.945 823.167 147.91 821.007 145.84C818.847 143.68 817.767 140.98 817.767 137.74C817.767 134.32 818.847 131.62 821.007 129.64C823.167 127.57 825.777 126.535 828.837 126.535C831.897 126.535 834.507 127.57 836.667 129.64C838.827 131.62 839.907 134.32 839.907 137.74C839.907 140.98 838.827 143.68 836.667 145.84C834.507 147.91 831.897 148.945 828.837 148.945ZM902.13 148V133.42L901.185 130.315V104.8C901.185 99.85 899.7 96.025 896.73 93.325C893.76 90.535 889.26 89.14 883.23 89.14C879.18 89.14 875.175 89.77 871.215 91.03C867.345 92.29 864.06 94.045 861.36 96.295L854.745 84.01C858.615 81.04 863.205 78.835 868.515 77.395C873.915 75.865 879.495 75.1 885.255 75.1C895.695 75.1 903.75 77.62 909.42 82.66C915.18 87.61 918.06 95.305 918.06 105.745V148H902.13ZM879.45 148.945C874.05 148.945 869.325 148.045 865.275 146.245C861.225 144.355 858.075 141.79 855.825 138.55C853.665 135.22 852.585 131.485 852.585 127.345C852.585 123.295 853.53 119.65 855.42 116.41C857.4 113.17 860.595 110.605 865.005 108.715C869.415 106.825 875.265 105.88 882.555 105.88H903.48V117.085H883.77C878.01 117.085 874.14 118.03 872.16 119.92C870.18 121.72 869.19 123.97 869.19 126.67C869.19 129.73 870.405 132.16 872.835 133.96C875.265 135.76 878.64 136.66 882.96 136.66C887.1 136.66 890.79 135.715 894.03 133.825C897.36 131.935 899.745 129.145 901.185 125.455L904.02 135.58C902.4 139.81 899.475 143.095 895.245 145.435C891.105 147.775 885.84 148.945 879.45 148.945ZM939.716 148V75.91H956.591V148H939.716ZM948.221 64.03C945.071 64.03 942.461 63.04 940.391 61.06C938.411 59.08 937.421 56.695 937.421 53.905C937.421 51.025 938.411 48.64 940.391 46.75C942.461 44.77 945.071 43.78 948.221 43.78C951.371 43.78 953.936 44.725 955.916 46.615C957.986 48.415 959.021 50.71 959.021 53.5C959.021 56.47 958.031 58.99 956.051 61.06C954.071 63.04 951.461 64.03 948.221 64.03Z" fill="#BDB822"/>
</svg>
