<svg width="130" height="113" viewBox="0 0 130 113" fill="none" xmlns="http://www.w3.org/2000/svg">
  <g opacity="0.8" clip-path="url(#clip0_489_71129)">
  <path d="M129.592 105.854L117.831 111.445L88.4507 105.136L100.211 99.5454L129.592 105.854Z" fill="#123D6F"/>
  <path d="M117.832 111.782C117.882 111.782 117.931 111.771 117.976 111.75L129.737 106.159C129.867 106.097 129.944 105.958 129.927 105.815C129.91 105.671 129.804 105.555 129.663 105.524L100.282 99.2156C100.209 99.2004 100.133 99.2087 100.066 99.241L88.3057 104.832C88.1753 104.894 88.099 105.032 88.1156 105.176C88.1323 105.319 88.2384 105.436 88.3796 105.466L117.761 111.775C117.784 111.78 117.808 111.782 117.832 111.782ZM128.551 105.975L117.79 111.091L89.4915 105.015L100.252 99.8989L128.551 105.975Z" fill="#123D6F"/>
  <path d="M61.1208 0.568361C91.2452 1.57834 118.278 26.0531 121.501 55.2306C122.786 66.8627 120.088 77.4866 114.474 85.9952L129.592 105.854L100.211 99.5453C92.5028 104.114 83.14 106.578 72.7935 106.231C42.6692 105.221 15.6369 80.7507 12.4137 51.5732C9.19025 22.3957 30.9965 -0.441276 61.1208 0.568361Z" fill="#102A4C"/>
  <path d="M74.6894 106.671C83.9981 106.671 92.8067 104.372 100.281 99.9771L129.507 106.252C129.673 106.288 129.845 106.216 129.936 106.072C130.028 105.928 130.02 105.743 129.917 105.607L114.974 85.9774C120.754 77.0905 123.151 66.45 121.906 55.1858C118.667 25.8595 91.4044 1.17561 61.1344 0.161115C46.174 -0.341102 32.8115 4.91345 23.5104 14.9547C14.55 24.6282 10.4653 37.6491 12.0084 51.6179C15.2478 80.9417 42.5097 105.624 72.7801 106.639C73.4186 106.66 74.0554 106.671 74.6894 106.671ZM100.211 99.1374C100.139 99.1374 100.067 99.1568 100.004 99.1943C92.1255 103.863 82.7214 106.158 72.8075 105.824C42.9266 104.822 16.0157 80.4652 12.8193 51.5284C11.3022 37.7979 15.312 25.0059 24.1091 15.5086C33.2465 5.64354 46.3853 0.481937 61.107 0.97583C90.9882 1.97784 117.899 26.3361 121.096 55.2749C122.331 66.4506 119.923 76.9955 114.134 85.7704C114.039 85.915 114.045 86.104 114.15 86.2417L128.6 105.224L100.297 99.1464C100.268 99.1405 100.24 99.1374 100.211 99.1374Z" fill="#1276E2"/>
  <path d="M96.5161 101.513L84.7556 107.104C77.8207 110.4 69.7783 112.116 61.0332 111.822C30.9088 110.812 3.87649 86.3417 0.653351 57.1642C-1.63438 36.4544 8.68743 18.9385 25.6438 10.8774L37.4043 5.28638C20.4483 13.3475 10.1261 30.863 12.4138 51.5732C15.637 80.7507 42.6696 105.221 72.7936 106.231C81.5387 106.524 89.5811 104.809 96.5161 101.513Z" fill="#123D6F"/>
  <path d="M62.9868 112.192C70.853 112.192 78.2153 110.586 84.9001 107.408L96.6606 101.817C96.8288 101.737 96.9003 101.536 96.8202 101.368C96.7404 101.2 96.5389 101.128 96.371 101.208C89.2311 104.603 81.3017 106.179 72.8046 105.894C42.8901 104.891 15.949 80.5067 12.7484 51.5362C11.6507 41.5994 13.4622 32.0254 17.987 23.8498C22.3894 15.8958 29.1537 9.58204 37.5485 5.59101C37.7167 5.51124 37.7882 5.30973 37.7081 5.14186C37.6283 4.97365 37.4268 4.9022 37.2589 4.98232L25.4984 10.5733C16.9756 14.625 10.1073 21.0366 5.63657 29.1144C1.04378 37.4124 -0.795486 47.1248 0.317856 57.2014C3.55348 86.4917 30.7852 111.146 61.0216 112.16C61.6799 112.181 62.3354 112.192 62.9868 112.192ZM89.1191 104.655L84.6105 106.799C77.4706 110.193 69.5416 111.771 61.0441 111.485C31.1296 110.483 4.18854 86.0976 0.987946 57.1272C-0.109787 47.1901 1.70173 37.6164 6.22654 29.4408C10.6289 21.4868 17.3932 15.173 25.788 11.182L30.4439 8.96849C25.0444 12.792 20.6039 17.7289 17.397 23.5231C12.8043 31.8211 10.965 41.5335 12.0783 51.6101C15.314 80.9003 42.5457 105.554 72.7821 106.568C78.5028 106.759 83.9699 106.118 89.1191 104.655Z" fill="#1276E2"/>
  <path d="M79.0713 22.9058C73.1546 22.7074 68.1484 25.591 64.8681 30.3818C60.5146 25.3652 54.8542 22.1413 48.9615 21.936C48.9501 21.9357 48.9379 21.9353 48.9265 21.935C37.3179 21.5448 29.2006 32.9872 30.7846 47.5116C33.0373 68.1528 66.4181 92.1115 71.7028 94.1564C75.939 92.8638 105.182 69.7483 103.025 49.969C101.44 35.4303 90.7288 23.3168 79.1056 22.9072C79.0945 22.9065 79.0824 22.9061 79.0713 22.9058Z" fill="#0F1B2D"/>
  <path d="M71.6898 94.5124L71.8011 94.4784C73.8974 93.8389 82.2253 87.8736 90.0124 79.2201C96.7431 71.7406 104.523 60.5878 103.36 49.932C101.76 35.2591 90.8851 22.9846 79.1176 22.5698L79.0826 22.5688C73.373 22.3777 68.3307 24.955 64.8377 29.837C60.2717 24.7185 54.6526 21.7971 48.9732 21.599L48.9374 21.598C44.0342 21.4332 39.6412 23.2888 36.2322 26.9639C31.6671 31.8851 29.5591 39.3878 30.4491 47.5482C31.6612 58.6552 41.6813 70.2669 49.8739 78.052C59.2207 86.9337 68.9734 93.4618 71.5809 94.4708L71.6898 94.5124ZM79.0576 23.2427L79.0927 23.2437C90.5396 23.6471 101.125 35.6521 102.69 50.0052C103.825 60.413 96.15 71.392 89.5112 78.7692C82.245 86.8439 73.9952 92.9832 71.7141 93.7972C68.9939 92.67 59.4937 86.2619 50.339 77.5626C42.2283 69.8552 32.3098 58.3788 31.1198 47.4746C30.251 39.5089 32.2946 32.1997 36.7268 27.4224C39.9988 23.8947 44.2125 22.1137 48.9149 22.2719L48.9614 21.9361L48.9496 22.2733C54.5586 22.4689 60.1211 25.427 64.6133 30.6032L64.8995 30.933L65.1461 30.5727C68.5107 25.658 73.4503 23.0526 79.0576 23.2427Z" fill="#1276E2"/>
  </g>
  <defs>
  <clipPath id="clip0_489_71129">
  <rect width="130" height="112.32" fill="white" transform="matrix(-1 0 0 1 130 0)"/>
  </clipPath>
  </defs>
  </svg>
  