<svg width="100" height="100" viewBox="0 0 100 100" fill="none" xmlns="http://www.w3.org/2000/svg">
  <g opacity="0.7" clip-path="url(#clip0_489_71149)">
  <path d="M32.3143 32.4931L27.5184 38.0309L27.3271 5.88333L32.1231 0.345459L32.3143 32.4931Z" fill="#0F5096"/>
  <path d="M27.5185 38.3761C27.4784 38.3761 27.438 38.3692 27.3987 38.3547C27.2637 38.3049 27.1742 38.1765 27.1732 38.0329L26.9819 5.88528C26.9819 5.80173 27.0113 5.72059 27.0662 5.65707L31.8621 0.119197C31.9563 0.0107869 32.1086 -0.028572 32.2429 0.0214898C32.3779 0.0712063 32.4673 0.199641 32.4684 0.343266L32.6596 32.4909C32.6596 32.5744 32.6303 32.6556 32.5754 32.7191L27.7795 38.257C27.7128 38.3343 27.6165 38.3761 27.5185 38.3761ZM27.6731 6.01095L27.8582 37.1111L31.9681 32.3652L31.783 1.26509L27.6731 6.01095Z" fill="#1276E2"/>
  <path d="M98.7324 75.1129L93.9365 80.6508L60.8232 75.4126L65.6192 69.8748L98.7324 75.1129Z" fill="#0F5096"/>
  <path d="M93.9364 80.9958C93.9184 80.9958 93.9005 80.9945 93.8825 80.9917L60.7693 75.7535C60.6457 75.7338 60.5421 75.6485 60.4989 75.5308C60.4561 75.4131 60.4799 75.2812 60.5625 75.1863L65.3584 69.6484C65.4364 69.5583 65.5552 69.5144 65.6732 69.5334L98.7869 74.7716C98.9105 74.7913 99.014 74.8766 99.0572 74.9943C99.1 75.112 99.0762 75.2439 98.9937 75.3389L94.1974 80.8767C94.1315 80.953 94.0358 80.9958 93.9364 80.9958ZM61.4908 75.1683L93.8007 80.2794L98.0646 75.3565L65.7544 70.2453L61.4908 75.1683Z" fill="#1276E2"/>
  <path d="M36.6984 61.2125L31.9028 66.7504L0.345215 52.6147L5.14113 47.0771L36.6984 61.2125Z" fill="#0F5096"/>
  <path d="M31.9023 67.0957C31.8546 67.0957 31.8066 67.0861 31.7611 67.0657L0.203845 52.93C0.104412 52.8854 0.031563 52.796 0.00808574 52.6897C-0.0153915 52.583 0.0129193 52.4715 0.0843868 52.389L4.8803 46.8511C4.98008 46.7361 5.14339 46.6999 5.28253 46.762L36.8401 60.8974C36.9395 60.9419 37.0124 61.0314 37.0358 61.1377C37.0593 61.2444 37.031 61.3559 36.9595 61.4384L32.1633 66.9763C32.0963 67.054 32 67.0954 31.9023 67.0954V67.0957ZM0.910233 52.4898L31.8094 66.3307L36.1334 61.3379L5.23384 47.4971L0.910233 52.4898Z" fill="#1276E2"/>
  <path d="M46.3082 93.2867L41.5123 98.8246L31.9028 66.7505L36.6984 61.2126L46.3082 93.2867Z" fill="#0F5096"/>
  <path d="M41.5121 99.17C41.4883 99.17 41.4638 99.1676 41.4396 99.1624C41.3167 99.1362 41.2173 99.0447 41.1814 98.9242L31.5716 66.8501C31.5377 66.7369 31.5643 66.6143 31.6413 66.5249L36.4376 60.9871C36.5197 60.8921 36.6458 60.8486 36.7711 60.8755C36.894 60.9018 36.9934 60.9933 37.0293 61.1138L46.6388 93.1878C46.6726 93.3011 46.646 93.4236 46.569 93.513L41.7731 99.0509C41.7068 99.1276 41.6112 99.17 41.5121 99.17ZM32.2873 66.8332L41.6623 98.1236L45.9227 93.204L36.5481 61.9134L32.2873 66.8329V66.8332Z" fill="#1276E2"/>
  <path d="M32.123 0.345459L58.5263 23.4063L89.9651 17.6713L79.1103 46.5097L98.7325 75.1129L65.6192 69.8747L46.3081 93.2867L36.6983 61.2126L5.14111 47.0773L32.3143 32.4931L32.123 0.345459Z" fill="#11253F"/>
  <path d="M46.3084 93.6321C46.286 93.6321 46.2628 93.63 46.24 93.6252C46.1154 93.6 46.0146 93.5081 45.9776 93.3859L36.4138 61.4631L4.99983 47.3923C4.87968 47.3384 4.80097 47.221 4.79613 47.0895C4.7913 46.9579 4.86173 46.8354 4.97774 46.7729L31.9676 32.2874L31.7777 0.347663C31.777 0.211979 31.8557 0.0883778 31.9793 0.0317562C32.1019 -0.0245201 32.2472 -0.00380489 32.3501 0.0856158L58.6281 23.037L89.9029 17.3321C90.0258 17.31 90.1504 17.3549 90.2298 17.4505C90.3096 17.5458 90.3317 17.677 90.2878 17.7933L79.4966 46.4632L99.0169 74.918C99.0953 75.0319 99.0977 75.181 99.0241 75.2977C98.9503 75.4141 98.8153 75.4755 98.6782 75.4545L65.7593 70.247L46.5739 93.5071C46.5076 93.5875 46.4092 93.6328 46.3077 93.6328L46.3084 93.6321ZM5.92339 47.0491L36.8402 60.8976C36.9317 60.9386 37.001 61.0174 37.0297 61.1133L46.4534 92.568L65.3529 69.6546C65.4306 69.5603 65.5525 69.5144 65.6733 69.533L97.9942 74.6459L78.8261 46.7045C78.7619 46.6113 78.7477 46.4932 78.7878 46.3876L89.4275 18.1199L58.5887 23.7452C58.4855 23.7641 58.3788 23.7345 58.2994 23.6657L32.4734 1.10929L32.6598 32.4911C32.6605 32.6192 32.5908 32.7369 32.4779 32.7974L5.92339 47.0491Z" fill="#1276E2"/>
  </g>
  <defs>
  <clipPath id="clip0_489_71149">
  <rect width="99.0778" height="99.1696" fill="white"/>
  </clipPath>
  </defs>
  </svg>
  