<svg width="77" height="77" viewBox="0 0 77 77" fill="none" xmlns="http://www.w3.org/2000/svg">
<g id="techny-speech-bubble-with-checkmark" opacity="0.75" clip-path="url(#clip0_489_71160)">
<path id="Vector" d="M17.2924 56.5208L21.3516 56.7391L12.2226 61.0996L8.16333 60.8812L17.2924 56.5208Z" fill="#12325A"/>
<path id="Vector_2" d="M12.2225 61.2566C12.2197 61.2566 12.2169 61.2566 12.214 61.2564L8.1549 61.0381C8.08322 61.0341 8.02317 60.9821 8.00918 60.9115C7.99503 60.8411 8.03071 60.7702 8.09564 60.7391L17.2247 56.3787C17.2482 56.3674 17.274 56.3621 17.3007 56.3635L21.3599 56.5819C21.4316 56.5858 21.4916 56.6378 21.5056 56.7084C21.5197 56.7788 21.4841 56.8497 21.4191 56.8808L12.2901 61.2412C12.269 61.2512 12.2459 61.2566 12.2225 61.2566ZM8.78746 60.7571L12.1909 60.9401L20.7276 56.8628L17.3242 56.6798L8.78746 60.7571Z" fill="#1276E2"/>
<path id="Vector_3" d="M72.5295 30.9993L36.2168 2.25795C34.7404 1.08935 33.0559 0.478796 31.364 0.387779L27.3047 0.169434C28.9967 0.26045 30.6811 0.871001 32.1575 2.0396L68.4702 30.7809C72.6156 34.0619 73.5527 40.5004 70.5637 45.1675L53.2292 72.2354C51.3043 75.2411 48.2217 76.7766 45.1636 76.6122L49.2229 76.8304C52.281 76.9948 55.3635 75.4593 57.2885 72.4535L74.623 45.3859C77.6119 40.7187 76.6749 34.2803 72.5295 30.9993Z" fill="#12325A"/>
<path id="Vector_4" d="M49.6783 76.9999C49.5241 76.9999 49.3695 76.9958 49.2144 76.9874L45.1565 76.7693C45.156 76.7693 45.1556 76.7693 45.1551 76.7693C45.0683 76.7645 45.0018 76.6905 45.0065 76.6037C45.0113 76.517 45.0847 76.4505 45.1721 76.4552C48.2974 76.6254 51.2628 75.0142 53.0968 72.1505L70.4313 45.0829C73.372 40.4908 72.4485 34.1304 68.3727 30.9044L32.0597 2.16305C30.6586 1.05388 29.0112 0.418959 27.296 0.326685C27.2092 0.321969 27.1427 0.24793 27.1475 0.161157C27.152 0.0742275 27.2264 0.00883378 27.313 0.0126065C27.3136 0.0127637 27.3139 0.0127637 27.3146 0.0127637L31.3723 0.230952C33.1527 0.326685 34.8616 0.985181 36.3142 2.13476L72.6271 30.8761C76.8261 34.1995 77.7807 40.7466 74.7552 45.4707L57.4207 72.5383C55.6154 75.357 52.7475 76.9997 49.6783 76.9999ZM47.4722 76.5789L49.2312 76.6734C52.3563 76.8436 55.3218 75.2325 57.1559 72.3689L74.4903 45.3012C77.4311 40.7092 76.5076 34.3487 72.4315 31.1227L36.1191 2.38124C34.7177 1.27206 33.0703 0.637148 31.3553 0.544874L29.5747 0.449141C30.5278 0.77218 31.4325 1.26546 32.2549 1.91641L68.5678 30.6577C72.7666 33.9812 73.7213 40.5283 70.6959 45.2523L53.3614 72.32C51.926 74.5614 49.8185 76.0594 47.4722 76.5789Z" fill="#1276E2"/>
<path id="Vector_5" d="M68.4701 30.7809C72.6155 34.0619 73.5526 40.5004 70.5636 45.1676L53.2291 72.2354C50.2405 76.9022 44.4613 78.0248 40.3159 74.7436L17.2924 56.5206L8.16342 60.8811L8.88228 49.8641L4.00321 46.0024C-0.142215 42.7214 -1.08524 36.2783 1.90338 31.6116L19.2381 4.54376C22.227 -0.123405 28.0121 -1.24123 32.1576 2.03978L68.4701 30.7809Z" fill="#0F1B2D"/>
<path id="Vector_6" d="M45.6034 76.7821C43.6779 76.7821 41.8059 76.1233 40.2182 74.8667L17.2717 56.7048L8.23105 61.023C8.18091 61.0472 8.12149 61.0428 8.07527 61.0114C8.02906 60.9801 8.00296 60.9266 8.00642 60.8708L8.71993 49.9361L3.90564 46.1257C-0.296696 42.7997 -1.25418 36.2506 1.77107 31.5267L19.1056 4.45885C20.6222 2.09037 22.8755 0.548591 25.4499 0.117873C27.8625 -0.285807 30.2794 0.352882 32.2549 1.91651L68.5676 30.6577C72.7665 33.9811 73.7213 40.5282 70.6959 45.2523L53.3614 72.3199C51.8435 74.6904 49.5899 76.2333 47.0158 76.664C46.5439 76.743 46.072 76.7821 45.6034 76.7821ZM17.2923 56.3635C17.3271 56.3635 17.3615 56.375 17.3899 56.3975L40.4134 74.6203C42.3167 76.1271 44.6433 76.7426 46.9638 76.3541C49.4491 75.9381 51.627 74.4452 53.0967 72.1506L70.4312 45.083C73.3718 40.4909 72.4483 34.1305 68.3724 30.9045L32.0597 2.16316C30.1548 0.655328 27.8254 0.0389606 25.5018 0.428022C23.0162 0.843964 20.8385 2.33576 19.3702 4.62847L2.03578 31.6961C-0.90489 36.288 0.0216265 42.6505 4.10072 45.8792L8.97994 49.7409C9.02034 49.7729 9.0425 49.8228 9.0392 49.8745L8.33779 60.6237L17.2247 56.3789C17.2461 56.3686 17.2694 56.3635 17.2923 56.3635Z" fill="#1276E2"/>
<path id="Vector_7" d="M56.4001 37.6441C57.0433 38.1533 57.5216 38.9254 57.6949 39.8592C58.0505 41.8303 56.9076 43.769 55.1375 44.1893L28.6783 50.5166C27.7491 50.7324 26.8328 50.4932 26.1171 49.9267C25.5327 49.464 25.0842 48.7747 24.8787 47.9447L21.0288 32.1885C20.5561 30.246 21.5872 28.2288 23.3229 27.6801C24.3155 27.3671 25.3222 27.5945 26.0935 28.2051C26.6789 28.6685 27.1288 29.3523 27.3346 30.1877L30.3847 42.6595L53.8415 37.0625C54.7695 36.8388 55.6864 37.0792 56.4001 37.6441Z" fill="#123D6F"/>
<path id="Vector_8" d="M28.0065 50.751C27.2973 50.751 26.5998 50.5091 26.0194 50.0499C25.3925 49.5537 24.9332 48.8194 24.7262 47.9825L20.8761 32.2257C20.3856 30.21 21.4621 28.1036 23.2755 27.5303C24.2833 27.2121 25.3463 27.4133 26.1912 28.0819C26.8214 28.581 27.2817 29.3154 27.4872 30.1501L30.5003 42.4704L53.805 36.9096C54.7409 36.6841 55.722 36.9074 56.4976 37.5211H56.4977C57.1954 38.0736 57.6756 38.8937 57.8496 39.8306C58.2194 41.8806 57.0189 43.9043 55.174 44.3424L28.7147 50.6696C28.48 50.7241 28.2426 50.751 28.0065 50.751ZM24.2227 27.6972C23.9384 27.6972 23.652 27.7409 23.3702 27.8299C21.7113 28.3545 20.7294 30.2928 21.1815 32.1511L25.0314 47.9072C25.2216 48.6765 25.6418 49.3501 26.2143 49.8033C26.9227 50.3637 27.7846 50.5627 28.6424 50.3635L55.1006 44.0364C56.7862 43.636 57.8803 41.7746 57.54 39.887C57.3801 39.0257 56.9406 38.2725 56.3022 37.7674C55.6028 37.2139 54.7195 37.0124 53.8781 37.2151L30.4209 42.8121C30.3371 42.8321 30.2524 42.7807 30.2316 42.6966L27.1816 30.2248C26.9928 29.4577 26.5715 28.7841 25.9957 28.3282C25.471 27.9126 24.853 27.6972 24.2227 27.6972Z" fill="#1276E2"/>
</g>
<defs>
<clipPath id="clip0_489_71160">
<rect width="76.5286" height="77" fill="white"/>
</clipPath>
</defs>
</svg>
