<svg id="Layer_1" data-name="Layer 1" xmlns="http://www.w3.org/2000/svg" viewBox="0 0 24 24"><path d="M17,11.05a2.75,2.75,0,0,0-2.61,1.86H8.06L6.83,14,8.5,15.35l1.14-1,1.11.93.91-.77h2.72a2.74,2.74,0,0,0,2.65,2,2.76,2.76,0,0,0,0-5.52Zm0,4.27a1.52,1.52,0,1,1,1.52-1.51A1.52,1.52,0,0,1,17,15.32Z"/><path d="M-.07,14.15a11.33,11.33,0,0,1,.76-1.94,4.1,4.1,0,0,1,3.86-2.05c.07-.18.14-.37.22-.55a4.09,4.09,0,0,1,4-2.49c.3,0,.38-.12.48-.34A6.23,6.23,0,0,1,14,2.87a6.13,6.13,0,0,1,6.49,3.27,16.41,16.41,0,0,1,.77,2.1,1,1,0,0,0,.31.51,6.05,6.05,0,0,1,.21,9.51,4.7,4.7,0,0,1-2.87,1.08c-1.43,0-2.86,0-4.29,0h-10A4.43,4.43,0,0,1,0,15.53a1,1,0,0,0-.06-.18ZM5.69,11.8l-.28-.11a3,3,0,0,0-1.84-.12,3.19,3.19,0,0,0-2.32,3.1,3.18,3.18,0,0,0,3.23,3.38h13.9a4.1,4.1,0,0,0,2.38-.68,4.68,4.68,0,0,0,.08-7.51,2,2,0,0,1-.93-1.51A5.07,5.07,0,0,0,15,4.08a5.13,5.13,0,0,0-4.84,4c-.06.22-.1.45-.15.69C7.4,7.88,5.9,8.92,5.69,11.8Z"/></svg>