<svg width="44" height="77" viewBox="0 0 44 77" fill="none" xmlns="http://www.w3.org/2000/svg">
<path d="M20.9846 15.1129C21.6033 14.7557 22.3654 14.7556 22.9841 15.1125L41.4123 25.7442C42.0314 26.1014 42.4129 26.7618 42.4129 27.4766V48.7377C42.4129 49.4525 42.0314 50.1129 41.4123 50.4701L22.9841 61.1017C22.3654 61.4587 21.6033 61.4586 20.9846 61.1014L2.57141 50.4702C1.95262 50.1129 1.57143 49.4527 1.57143 48.7382V27.4761C1.57143 26.7616 1.95262 26.1013 2.57141 25.7441L20.9846 15.1129ZM5.71489 27.5513C5.09575 27.9085 4.71429 28.569 4.71429 29.2837V46.9306C4.71429 47.6453 5.09575 48.3058 5.71489 48.6629L20.9846 57.4718C21.6032 57.8287 22.3653 57.8286 22.9839 57.4715L38.2699 48.6473C38.8888 48.2901 39.27 47.6298 39.27 46.9152V29.2843C39.27 28.5692 38.8882 27.9085 38.2687 27.5515L22.9835 18.7416C22.3651 18.3852 21.6036 18.3853 20.9853 18.742L5.71489 27.5513ZM0 23.5557C0 23.5627 0.00756041 23.5671 0.0136066 23.5636L19.3977 12.3632C20.0162 12.0058 20.3971 11.3458 20.3971 10.6315V1.57143C20.3971 0.703554 19.6936 0 18.8257 0C17.9578 0 17.2543 0.703553 17.2543 1.57143V8.82393C17.2543 9.53843 16.8731 10.1987 16.2544 10.5559L0.999919 19.3641C0.381163 19.7213 0 20.3816 0 21.0961V23.5557ZM0 52.6586C0 52.6516 0.00755897 52.6472 0.013604 52.6507L19.3977 63.8511C20.0162 64.2085 20.3971 64.8685 20.3971 65.5828V75.4286C20.3971 76.2964 19.6936 77 18.8257 77C17.9578 77 17.2543 76.2964 17.2543 75.4286V67.3904C17.2543 66.6759 16.8731 66.0156 16.2544 65.6583L0.999919 56.8502C0.381163 56.4929 0 55.8327 0 55.1182V52.6586ZM25.1429 0C24.275 0 23.5714 0.703553 23.5714 1.57143V10.631C23.5714 11.3456 23.9526 12.0058 24.5714 12.3631L43.9814 23.5698C43.9833 23.5709 43.9854 23.5714 43.9876 23.5714C43.9944 23.5714 44 23.5659 44 23.559V19.9538C44 19.947 43.9944 19.9414 43.9876 19.9414C43.9854 19.9414 43.9833 19.9409 43.9814 19.9398L27.7149 10.5558C27.0957 10.1986 26.7143 9.53819 26.7143 8.82341V1.57143C26.7143 0.703552 26.0107 0 25.1429 0ZM25.1429 77C24.275 77 23.5714 76.2964 23.5714 75.4286V65.5833C23.5714 64.8687 23.9526 64.2085 24.5714 63.8512L43.9814 52.6445C43.9833 52.6434 43.9854 52.6429 43.9876 52.6429C43.9944 52.6429 44 52.6484 44 52.6553V56.2605C44 56.2673 43.9944 56.2729 43.9876 56.2729C43.9854 56.2729 43.9833 56.2734 43.9814 56.2745L27.7149 65.6585C27.0957 66.0157 26.7143 66.6761 26.7143 67.3909V75.4286C26.7143 76.2964 26.0107 77 25.1429 77Z" fill="white" fill-opacity="0.04"/>
</svg>
