<svg width="44" height="77" viewBox="0 0 44 77" fill="none" xmlns="http://www.w3.org/2000/svg">
<path d="M21.9843 14.5357L42.4129 26.3214V49.8929L21.9843 61.6786L1.57143 49.8929V26.3214L21.9843 14.5357ZM4.71429 28.1286V48.0857L21.9843 58.0486L39.27 48.07V28.1286L21.9843 18.1657L4.71429 28.1286ZM0 23.5714L20.3971 11.7857V0H17.2543V9.97857L0 19.9414V23.5557V23.5714ZM0 52.6429L20.3971 64.4286V77H17.2543V66.2357L0 56.2729V52.6586V52.6429ZM23.5714 0V11.7857L43.9843 23.5714H44V19.9414H43.9843L26.7143 9.97857V0H23.5714ZM23.5714 77V64.4286L43.9843 52.6429H44V56.2729H43.9843L26.7143 66.2357V77H23.5714Z" fill="black" fill-opacity="0.024"/>
</svg>
