<svg width="318" height="100" viewBox="0 0 318 100" fill="none" xmlns="http://www.w3.org/2000/svg">
<rect width="318" height="100" rx="8" fill="url(#paint0_linear_487_6953)"/>
<g filter="url(#filter0_d_487_6953)">
<rect x="198" y="56" width="104" height="28" rx="6" fill="#4B7DFB"/>
<path d="M215.793 67.5653C215.748 67.1619 215.56 66.8494 215.23 66.6278C214.901 66.4034 214.486 66.2912 213.986 66.2912C213.628 66.2912 213.319 66.348 213.057 66.4616C212.796 66.5724 212.593 66.7259 212.448 66.9219C212.306 67.1151 212.235 67.3352 212.235 67.5824C212.235 67.7898 212.283 67.9687 212.38 68.1193C212.479 68.2699 212.608 68.3963 212.767 68.4986C212.929 68.598 213.103 68.6818 213.287 68.75C213.472 68.8153 213.65 68.8693 213.82 68.9119L214.672 69.1335C214.951 69.2017 215.236 69.294 215.529 69.4105C215.821 69.527 216.093 69.6804 216.343 69.8707C216.593 70.0611 216.794 70.2969 216.948 70.5781C217.104 70.8594 217.182 71.196 217.182 71.5881C217.182 72.0824 217.054 72.5213 216.799 72.9048C216.546 73.2884 216.178 73.5909 215.695 73.8125C215.215 74.0341 214.634 74.1449 213.952 74.1449C213.299 74.1449 212.733 74.0412 212.256 73.8338C211.779 73.6264 211.405 73.3324 211.135 72.9517C210.865 72.5682 210.716 72.1136 210.688 71.5881H212.009C212.034 71.9034 212.137 72.1662 212.316 72.3764C212.498 72.5838 212.729 72.7386 213.01 72.8409C213.294 72.9403 213.605 72.9901 213.944 72.9901C214.316 72.9901 214.647 72.9318 214.936 72.8153C215.229 72.696 215.459 72.5312 215.627 72.321C215.794 72.108 215.878 71.8594 215.878 71.5753C215.878 71.3168 215.804 71.1051 215.657 70.9403C215.512 70.7756 215.314 70.6392 215.064 70.5312C214.817 70.4233 214.537 70.3281 214.225 70.2457L213.194 69.9645C212.495 69.7741 211.941 69.4943 211.532 69.125C211.125 68.7557 210.922 68.267 210.922 67.6591C210.922 67.1562 211.059 66.7173 211.331 66.3423C211.604 65.9673 211.973 65.6761 212.439 65.4688C212.905 65.2585 213.431 65.1534 214.016 65.1534C214.607 65.1534 215.128 65.2571 215.58 65.4645C216.034 65.6719 216.392 65.9574 216.654 66.321C216.915 66.6818 217.051 67.0966 217.063 67.5653H215.793ZM221.474 74.1321C220.83 74.1321 220.274 73.9943 219.808 73.7188C219.345 73.4403 218.987 73.0497 218.734 72.5469C218.484 72.0412 218.359 71.4489 218.359 70.7699C218.359 70.0994 218.484 69.5085 218.734 68.9972C218.987 68.4858 219.339 68.0866 219.791 67.7997C220.246 67.5128 220.777 67.3693 221.385 67.3693C221.754 67.3693 222.112 67.4304 222.459 67.5526C222.805 67.6747 223.116 67.8665 223.392 68.1278C223.668 68.3892 223.885 68.7287 224.044 69.1463C224.203 69.5611 224.283 70.0653 224.283 70.6591V71.1108H219.08V70.1562H223.034C223.034 69.821 222.966 69.5241 222.83 69.2656C222.693 69.0043 222.501 68.7983 222.254 68.6477C222.01 68.4972 221.723 68.4219 221.393 68.4219C221.036 68.4219 220.723 68.5099 220.456 68.6861C220.192 68.8594 219.987 69.0866 219.842 69.3679C219.7 69.6463 219.629 69.9489 219.629 70.2756V71.0213C219.629 71.4588 219.706 71.831 219.859 72.1378C220.016 72.4446 220.233 72.679 220.511 72.8409C220.79 73 221.115 73.0795 221.487 73.0795C221.729 73.0795 221.949 73.0455 222.148 72.9773C222.347 72.9062 222.518 72.8011 222.663 72.6619C222.808 72.5227 222.919 72.3509 222.996 72.1463L224.202 72.3636C224.105 72.7187 223.932 73.0298 223.682 73.2969C223.435 73.5611 223.124 73.767 222.749 73.9148C222.376 74.0597 221.952 74.1321 221.474 74.1321ZM226.971 70.1136V74H225.696V67.4545H226.919V68.5199H227C227.151 68.1733 227.387 67.8949 227.708 67.6847C228.032 67.4744 228.439 67.3693 228.931 67.3693C229.377 67.3693 229.767 67.4631 230.103 67.6506C230.438 67.8352 230.698 68.1108 230.882 68.4773C231.067 68.8437 231.159 69.2969 231.159 69.8366V74H229.885V69.9901C229.885 69.5156 229.762 69.1449 229.515 68.8778C229.267 68.608 228.928 68.473 228.496 68.473C228.201 68.473 227.938 68.5369 227.708 68.6648C227.48 68.7926 227.3 68.9801 227.167 69.2273C227.036 69.4716 226.971 69.767 226.971 70.1136ZM235.319 74.1278C234.79 74.1278 234.319 73.9929 233.904 73.723C233.492 73.4503 233.168 73.0625 232.932 72.5597C232.699 72.054 232.583 71.4474 232.583 70.7401C232.583 70.0327 232.701 69.4276 232.936 68.9247C233.175 68.4219 233.502 68.0369 233.917 67.7699C234.331 67.5028 234.801 67.3693 235.327 67.3693C235.733 67.3693 236.06 67.4375 236.307 67.5739C236.557 67.7074 236.75 67.8636 236.887 68.0426C237.026 68.2216 237.134 68.3793 237.211 68.5156H237.287V65.2727H238.561V74H237.317V72.9815H237.211C237.134 73.1207 237.023 73.2798 236.878 73.4588C236.736 73.6378 236.54 73.794 236.29 73.9276C236.04 74.0611 235.716 74.1278 235.319 74.1278ZM235.6 73.0412C235.966 73.0412 236.276 72.9446 236.529 72.7514C236.784 72.5554 236.978 72.2841 237.108 71.9375C237.242 71.5909 237.309 71.1875 237.309 70.7273C237.309 70.2727 237.243 69.875 237.113 69.5341C236.982 69.1932 236.79 68.9276 236.537 68.7372C236.284 68.5469 235.972 68.4517 235.6 68.4517C235.216 68.4517 234.897 68.5511 234.641 68.75C234.385 68.9489 234.192 69.2202 234.061 69.5639C233.934 69.9077 233.87 70.2955 233.87 70.7273C233.87 71.1648 233.935 71.5582 234.066 71.9077C234.196 72.2571 234.39 72.5341 234.645 72.7386C234.904 72.9403 235.222 73.0412 235.6 73.0412ZM243.926 70.3778C243.926 69.3097 244.067 68.3267 244.348 67.429C244.63 66.5312 245.04 65.7031 245.58 64.9446H246.748C246.537 65.2259 246.341 65.571 246.159 65.9801C245.978 66.3892 245.819 66.8381 245.682 67.3267C245.546 67.8125 245.439 68.3168 245.363 68.8395C245.286 69.3594 245.248 69.8722 245.248 70.3778C245.248 71.054 245.314 71.7386 245.448 72.4318C245.581 73.125 245.762 73.7685 245.989 74.3622C246.216 74.956 246.469 75.4403 246.748 75.8153H245.58C245.04 75.0568 244.63 74.2287 244.348 73.331C244.067 72.4332 243.926 71.4489 243.926 70.3778ZM250.511 74.196C250.165 74.196 249.847 74.1108 249.557 73.9403C249.267 73.767 249.037 73.5369 248.866 73.25C248.696 72.9602 248.611 72.642 248.611 72.2955C248.611 71.946 248.696 71.6278 248.866 71.3409C249.037 71.0511 249.267 70.8196 249.557 70.6463C249.847 70.473 250.165 70.3864 250.511 70.3864H251.449V68.8778H250.511C250.165 68.8778 249.847 68.7926 249.557 68.6222C249.267 68.4517 249.037 68.223 248.866 67.9361C248.696 67.6463 248.611 67.3267 248.611 66.9773C248.611 66.6278 248.696 66.3097 248.866 66.0227C249.037 65.7358 249.267 65.5071 249.557 65.3366C249.847 65.1634 250.165 65.0767 250.511 65.0767C250.861 65.0767 251.179 65.1634 251.466 65.3366C251.756 65.5071 251.986 65.7358 252.156 66.0227C252.33 66.3097 252.416 66.6278 252.416 66.9773V67.9062H253.929V66.9773C253.929 66.6278 254.014 66.3097 254.185 66.0227C254.355 65.7358 254.584 65.5071 254.871 65.3366C255.161 65.1634 255.48 65.0767 255.83 65.0767C256.179 65.0767 256.497 65.1634 256.784 65.3366C257.071 65.5071 257.3 65.7358 257.47 66.0227C257.641 66.3097 257.726 66.6278 257.726 66.9773C257.726 67.3267 257.641 67.6463 257.47 67.9361C257.3 68.223 257.071 68.4517 256.784 68.6222C256.497 68.7926 256.179 68.8778 255.83 68.8778H254.896V70.3864H255.83C256.179 70.3864 256.497 70.473 256.784 70.6463C257.071 70.8196 257.3 71.0511 257.47 71.3409C257.641 71.6278 257.726 71.946 257.726 72.2955C257.726 72.642 257.641 72.9602 257.47 73.25C257.3 73.5369 257.071 73.767 256.784 73.9403C256.497 74.1108 256.179 74.196 255.83 74.196C255.48 74.196 255.161 74.1108 254.871 73.9403C254.584 73.767 254.355 73.5369 254.185 73.25C254.014 72.9602 253.929 72.642 253.929 72.2955V71.358H252.416V72.2955C252.416 72.642 252.33 72.9602 252.156 73.25C251.986 73.5369 251.756 73.767 251.466 73.9403C251.179 74.1108 250.861 74.196 250.511 74.196ZM250.511 73.2244C250.685 73.2244 250.841 73.1832 250.98 73.1009C251.122 73.0185 251.236 72.9062 251.321 72.7642C251.406 72.6222 251.449 72.4659 251.449 72.2955V71.358H250.511C250.341 71.358 250.185 71.4006 250.043 71.4858C249.901 71.5682 249.787 71.6804 249.702 71.8224C249.619 71.9645 249.578 72.1222 249.578 72.2955C249.578 72.4659 249.619 72.6222 249.702 72.7642C249.787 72.9062 249.901 73.0185 250.043 73.1009C250.185 73.1832 250.341 73.2244 250.511 73.2244ZM250.511 67.9062H251.449V66.9773C251.449 66.804 251.406 66.6477 251.321 66.5085C251.236 66.3665 251.122 66.2543 250.98 66.1719C250.841 66.0895 250.685 66.0483 250.511 66.0483C250.341 66.0483 250.185 66.0895 250.043 66.1719C249.901 66.2543 249.787 66.3665 249.702 66.5085C249.619 66.6477 249.578 66.804 249.578 66.9773C249.578 67.1506 249.619 67.3082 249.702 67.4503C249.787 67.5895 249.901 67.7003 250.043 67.7827C250.185 67.8651 250.341 67.9062 250.511 67.9062ZM254.896 67.9062H255.83C256.003 67.9062 256.159 67.8651 256.298 67.7827C256.438 67.7003 256.548 67.5895 256.631 67.4503C256.716 67.3082 256.759 67.1506 256.759 66.9773C256.759 66.804 256.716 66.6477 256.631 66.5085C256.548 66.3665 256.438 66.2543 256.298 66.1719C256.159 66.0895 256.003 66.0483 255.83 66.0483C255.656 66.0483 255.499 66.0895 255.357 66.1719C255.214 66.2543 255.102 66.3665 255.02 66.5085C254.938 66.6477 254.896 66.804 254.896 66.9773V67.9062ZM255.83 73.2244C256.003 73.2244 256.159 73.1832 256.298 73.1009C256.438 73.0185 256.548 72.9062 256.631 72.7642C256.716 72.6222 256.759 72.4659 256.759 72.2955C256.759 72.1222 256.716 71.9645 256.631 71.8224C256.548 71.6804 256.438 71.5682 256.298 71.4858C256.159 71.4006 256.003 71.358 255.83 71.358H254.896V72.2955C254.896 72.4659 254.938 72.6222 255.02 72.7642C255.102 72.9062 255.214 73.0185 255.357 73.1009C255.499 73.1832 255.656 73.2244 255.83 73.2244ZM252.416 70.3864H253.929V68.8778H252.416V70.3864ZM265.703 73.446V67.6847H266.849V73.446H265.703ZM263.398 71.1364V69.9901H269.159V71.1364H263.398ZM277.301 72.8324L274.634 70.1818L277.301 67.5312V72.8324ZM276.471 70.7273V69.6364H284.167V70.7273H276.471ZM283.105 70.7273V65.2727H284.192V70.7273H283.105ZM288.697 70.3778C288.697 71.4489 288.557 72.4332 288.276 73.331C287.994 74.2287 287.584 75.0568 287.044 75.8153H285.876C286.087 75.5341 286.283 75.1889 286.464 74.7798C286.646 74.3707 286.805 73.9233 286.942 73.4375C287.078 72.9489 287.185 72.4432 287.261 71.9205C287.338 71.3977 287.376 70.8835 287.376 70.3778C287.376 69.7045 287.31 69.0213 287.176 68.3281C287.043 67.6349 286.862 66.9915 286.635 66.3977C286.408 65.804 286.155 65.3196 285.876 64.9446H287.044C287.584 65.7031 287.994 66.5312 288.276 67.429C288.557 68.3267 288.697 69.3097 288.697 70.3778Z" fill="white"/>
</g>
<rect x="8" y="10" width="202" height="12" rx="6" fill="#FDFDFD"/>
<rect x="8" y="30" width="137" height="12" rx="6" fill="#FDFDFD"/>
<defs>
<filter id="filter0_d_487_6953" x="197.167" y="55.5833" width="105.667" height="29.6667" filterUnits="userSpaceOnUse" color-interpolation-filters="sRGB">
<feFlood flood-opacity="0" result="BackgroundImageFix"/>
<feColorMatrix in="SourceAlpha" type="matrix" values="0 0 0 0 0 0 0 0 0 0 0 0 0 0 0 0 0 0 127 0" result="hardAlpha"/>
<feOffset dy="0.416667"/>
<feGaussianBlur stdDeviation="0.416667"/>
<feComposite in2="hardAlpha" operator="out"/>
<feColorMatrix type="matrix" values="0 0 0 0 0.214953 0 0 0 0 0.364486 0 0 0 0 0.985047 0 0 0 0.08 0"/>
<feBlend mode="normal" in2="BackgroundImageFix" result="effect1_dropShadow_487_6953"/>
<feBlend mode="normal" in="SourceGraphic" in2="effect1_dropShadow_487_6953" result="shape"/>
</filter>
<linearGradient id="paint0_linear_487_6953" x1="0" y1="50" x2="318" y2="50" gradientUnits="userSpaceOnUse">
<stop stop-color="#ECEEF2"/>
<stop offset="1" stop-color="#E7F2FF"/>
</linearGradient>
</defs>
</svg>
