<svg width="318" height="100" viewBox="0 0 318 100" fill="none" xmlns="http://www.w3.org/2000/svg">
<g clip-path="url(#clip0_2_17)">
<path d="M310 0H8C3.58172 0 0 3.58172 0 8V92C0 96.4183 3.58172 100 8 100H310C314.418 100 318 96.4183 318 92V8C318 3.58172 314.418 0 310 0Z" fill="url(#paint0_linear_2_17)"/>
<g filter="url(#filter0_d_2_17)">
<path d="M296 56H230C226.686 56 224 58.6863 224 62V78C224 81.3137 226.686 84 230 84H296C299.314 84 302 81.3137 302 78V62C302 58.6863 299.314 56 296 56Z" fill="#4B7DFB"/>
</g>
<path d="M204 10H14C10.6863 10 8 12.6863 8 16C8 19.3137 10.6863 22 14 22H204C207.314 22 210 19.3137 210 16C210 12.6863 207.314 10 204 10Z" fill="#383942"/>
<path d="M139 30H14C10.6863 30 8 32.6863 8 36C8 39.3137 10.6863 42 14 42H139C142.314 42 145 39.3137 145 36C145 32.6863 142.314 30 139 30Z" fill="#383942"/>
<path d="M272 70.4332C272 69.3651 272.141 68.3821 272.422 67.4844C272.703 66.5866 273.114 65.7585 273.653 65H274.821C274.611 65.2813 274.415 65.6264 274.233 66.0355C274.051 66.4446 273.892 66.8935 273.756 67.3821C273.619 67.8679 273.513 68.3722 273.436 68.8949C273.359 69.4148 273.321 69.9276 273.321 70.4332C273.321 71.1094 273.388 71.794 273.521 72.4872C273.655 73.1804 273.835 73.8239 274.062 74.4176C274.29 75.0114 274.543 75.4957 274.821 75.8707H273.653C273.114 75.1122 272.703 74.2841 272.422 73.3864C272.141 72.4886 272 71.5043 272 70.4332ZM279.16 72.8878L276.492 70.2372L279.16 67.5866V72.8878ZM278.329 70.7827V69.6918H286.025V70.7827H278.329ZM284.964 70.7827V65.3281H286.051V70.7827H284.964ZM290.556 70.4332C290.556 71.5043 290.415 72.4886 290.134 73.3864C289.853 74.2841 289.442 75.1122 288.903 75.8707H287.735C287.945 75.5895 288.141 75.2443 288.323 74.8352C288.505 74.4261 288.664 73.9787 288.8 73.4929C288.937 73.0043 289.043 72.4986 289.12 71.9759C289.197 71.4531 289.235 70.9389 289.235 70.4332C289.235 69.7599 289.168 69.0767 289.035 68.3835C288.901 67.6903 288.721 67.0469 288.494 66.4531C288.266 65.8594 288.013 65.375 287.735 65H288.903C289.442 65.7585 289.853 66.5866 290.134 67.4844C290.415 68.3821 290.556 69.3651 290.556 70.4332Z" fill="white"/>
<path d="M235 73.8586V65.341H240.282V66.4473H236.271V69.0425H240.006V70.1446H236.271V72.7523H240.331V73.8586H235Z" fill="white"/>
<path d="M243.111 70.0656V73.8586H241.881V67.4704H243.062V68.5102H243.14C243.285 68.1719 243.513 67.9002 243.823 67.695C244.135 67.4898 244.529 67.3872 245.003 67.3872C245.434 67.3872 245.811 67.4787 246.134 67.6617C246.458 67.842 246.709 68.1109 246.887 68.4686C247.065 68.8262 247.155 69.2685 247.155 69.7953V73.8586H245.925V69.945C245.925 69.482 245.805 69.1201 245.567 68.8595C245.328 68.5961 245 68.4644 244.584 68.4644C244.298 68.4644 244.045 68.5268 243.823 68.6516C243.603 68.7763 243.429 68.9593 243.3 69.2006C243.174 69.439 243.111 69.7274 243.111 70.0656Z" fill="white"/>
<path d="M253.983 67.4704L251.692 73.8586H250.375L248.08 67.4704H249.401L251.001 72.3863H251.067L252.663 67.4704H253.983Z" fill="white"/>
<path d="M255.139 73.8586V67.4704H256.369V73.8586H255.139ZM255.76 66.4848C255.546 66.4848 255.362 66.4127 255.209 66.2685C255.058 66.1215 254.983 65.9469 254.983 65.7445C254.983 65.5393 255.058 65.3646 255.209 65.2204C255.362 65.0735 255.546 65 255.76 65C255.974 65 256.156 65.0735 256.307 65.2204C256.461 65.3646 256.538 65.5393 256.538 65.7445C256.538 65.9469 256.461 66.1215 256.307 66.2685C256.156 66.4127 255.974 66.4848 255.76 66.4848Z" fill="white"/>
<path d="M259.862 74C259.462 74 259.1 73.9251 258.776 73.7754C258.453 73.6229 258.196 73.4025 258.007 73.1141C257.821 72.8258 257.727 72.4723 257.727 72.0536C257.727 71.6932 257.796 71.3965 257.933 71.1636C258.07 70.9307 258.255 70.7463 258.488 70.6104C258.722 70.4746 258.982 70.372 259.27 70.3027C259.558 70.2334 259.851 70.1807 260.15 70.1446C260.529 70.1003 260.836 70.0642 261.072 70.0365C261.308 70.006 261.479 69.9575 261.586 69.8909C261.693 69.8244 261.746 69.7163 261.746 69.5665V69.5374C261.746 69.1742 261.645 68.8928 261.442 68.6932C261.242 68.4935 260.943 68.3937 260.545 68.3937C260.131 68.3937 259.805 68.4866 259.566 68.6724C259.33 68.8554 259.167 69.0591 259.077 69.2837L257.921 69.0176C258.058 68.6294 258.258 68.3161 258.521 68.0776C258.787 67.8364 259.093 67.6617 259.439 67.5536C259.784 67.4427 260.148 67.3872 260.529 67.3872C260.781 67.3872 261.048 67.4177 261.331 67.4787C261.616 67.537 261.882 67.6451 262.129 67.8031C262.378 67.9612 262.583 68.1872 262.742 68.4811C262.901 68.7722 262.98 69.1506 262.98 69.6165V73.8586H261.779V72.9852H261.73C261.65 73.146 261.531 73.3041 261.372 73.4593C261.213 73.6146 261.009 73.7435 260.759 73.8461C260.51 73.9487 260.211 74 259.862 74ZM260.13 73.0018C260.47 73.0018 260.76 72.9339 261.002 72.7981C261.246 72.6622 261.431 72.4848 261.557 72.2657C261.686 72.0439 261.75 71.8068 261.75 71.5545V70.7311C261.707 70.7754 261.622 70.817 261.495 70.8558C261.372 70.8919 261.231 70.9238 261.072 70.9515C260.913 70.9764 260.758 71 260.607 71.0222C260.456 71.0416 260.33 71.0582 260.228 71.0721C259.99 71.1026 259.772 71.1539 259.574 71.226C259.38 71.2981 259.223 71.402 259.105 71.5379C258.99 71.671 258.933 71.8484 258.933 72.0702C258.933 72.378 259.045 72.6109 259.27 72.7689C259.495 72.9242 259.781 73.0018 260.13 73.0018Z" fill="white"/>
<path d="M264.619 73.8586V67.4704H265.807V68.4852H265.873C265.988 68.1414 266.191 67.8711 266.482 67.6742C266.776 67.4746 267.107 67.3748 267.478 67.3748C267.554 67.3748 267.645 67.3775 267.749 67.3831C267.856 67.3886 267.94 67.3956 268 67.4039V68.5933C267.951 68.5795 267.863 68.5642 267.737 68.5476C267.611 68.5282 267.484 68.5185 267.358 68.5185C267.068 68.5185 266.808 68.5809 266.581 68.7056C266.356 68.8276 266.178 68.9982 266.046 69.2172C265.914 69.4335 265.849 69.6802 265.849 69.9575V73.8586H264.619Z" fill="white"/>
</g>
<defs>
<filter id="filter0_d_2_17" x="223.167" y="55.5833" width="79.6667" height="29.6667" filterUnits="userSpaceOnUse" color-interpolation-filters="sRGB">
<feFlood flood-opacity="0" result="BackgroundImageFix"/>
<feColorMatrix in="SourceAlpha" type="matrix" values="0 0 0 0 0 0 0 0 0 0 0 0 0 0 0 0 0 0 127 0" result="hardAlpha"/>
<feOffset dy="0.416667"/>
<feGaussianBlur stdDeviation="0.416667"/>
<feComposite in2="hardAlpha" operator="out"/>
<feColorMatrix type="matrix" values="0 0 0 0 0.214953 0 0 0 0 0.364486 0 0 0 0 0.985047 0 0 0 0.08 0"/>
<feBlend mode="normal" in2="BackgroundImageFix" result="effect1_dropShadow_2_17"/>
<feBlend mode="normal" in="SourceGraphic" in2="effect1_dropShadow_2_17" result="shape"/>
</filter>
<linearGradient id="paint0_linear_2_17" x1="0" y1="50" x2="318" y2="50" gradientUnits="userSpaceOnUse">
<stop offset="0.39" stop-color="#2A2B31"/>
<stop offset="1" stop-color="#242F45"/>
</linearGradient>
<clipPath id="clip0_2_17">
<rect width="318" height="100" fill="white"/>
</clipPath>
</defs>
</svg>
