<svg width="318" height="100" viewBox="0 0 318 100" fill="none" xmlns="http://www.w3.org/2000/svg">
<rect width="318" height="100" rx="8" fill="url(#paint0_linear_487_6940)"/>
<g filter="url(#filter0_d_487_6940)">
<rect x="224" y="56" width="78" height="28" rx="6" fill="#4B7DFB"/>
<path d="M241.9 67.5653C241.855 67.1619 241.667 66.8494 241.338 66.6278C241.008 66.4034 240.594 66.2912 240.094 66.2912C239.736 66.2912 239.426 66.348 239.165 66.4616C238.903 66.5724 238.7 66.7259 238.555 66.9219C238.413 67.1151 238.342 67.3352 238.342 67.5824C238.342 67.7898 238.39 67.9687 238.487 68.1193C238.586 68.2699 238.716 68.3963 238.875 68.4986C239.037 68.598 239.21 68.6818 239.395 68.75C239.579 68.8153 239.757 68.8693 239.927 68.9119L240.78 69.1335C241.058 69.2017 241.344 69.294 241.636 69.4105C241.929 69.527 242.2 69.6804 242.45 69.8707C242.7 70.0611 242.902 70.2969 243.055 70.5781C243.211 70.8594 243.29 71.196 243.29 71.5881C243.29 72.0824 243.162 72.5213 242.906 72.9048C242.653 73.2884 242.285 73.5909 241.802 73.8125C241.322 74.0341 240.741 74.1449 240.059 74.1449C239.406 74.1449 238.841 74.0412 238.363 73.8338C237.886 73.6264 237.513 73.3324 237.243 72.9517C236.973 72.5682 236.824 72.1136 236.795 71.5881H238.116C238.142 71.9034 238.244 72.1662 238.423 72.3764C238.605 72.5838 238.836 72.7386 239.118 72.8409C239.402 72.9403 239.713 72.9901 240.051 72.9901C240.423 72.9901 240.754 72.9318 241.044 72.8153C241.336 72.696 241.567 72.5312 241.734 72.321C241.902 72.108 241.986 71.8594 241.986 71.5753C241.986 71.3168 241.912 71.1051 241.764 70.9403C241.619 70.7756 241.422 70.6392 241.172 70.5312C240.925 70.4233 240.645 70.3281 240.332 70.2457L239.301 69.9645C238.602 69.7741 238.048 69.4943 237.639 69.125C237.233 68.7557 237.03 68.267 237.03 67.6591C237.03 67.1562 237.166 66.7173 237.439 66.3423C237.711 65.9673 238.081 65.6761 238.547 65.4688C239.013 65.2585 239.538 65.1534 240.123 65.1534C240.714 65.1534 241.236 65.2571 241.687 65.4645C242.142 65.6719 242.5 65.9574 242.761 66.321C243.023 66.6818 243.159 67.0966 243.17 67.5653H241.9ZM247.582 74.1321C246.937 74.1321 246.382 73.9943 245.916 73.7188C245.453 73.4403 245.095 73.0497 244.842 72.5469C244.592 72.0412 244.467 71.4489 244.467 70.7699C244.467 70.0994 244.592 69.5085 244.842 68.9972C245.095 68.4858 245.447 68.0866 245.899 67.7997C246.353 67.5128 246.884 67.3693 247.492 67.3693C247.862 67.3693 248.22 67.4304 248.566 67.5526C248.913 67.6747 249.224 67.8665 249.499 68.1278C249.775 68.3892 249.992 68.7287 250.151 69.1463C250.311 69.5611 250.39 70.0653 250.39 70.6591V71.1108H245.187V70.1562H249.142C249.142 69.821 249.073 69.5241 248.937 69.2656C248.801 69.0043 248.609 68.7983 248.362 68.6477C248.117 68.4972 247.83 68.4219 247.501 68.4219C247.143 68.4219 246.83 68.5099 246.563 68.6861C246.299 68.8594 246.095 69.0866 245.95 69.3679C245.808 69.6463 245.737 69.9489 245.737 70.2756V71.0213C245.737 71.4588 245.813 71.831 245.967 72.1378C246.123 72.4446 246.34 72.679 246.619 72.8409C246.897 73 247.222 73.0795 247.595 73.0795C247.836 73.0795 248.056 73.0455 248.255 72.9773C248.454 72.9062 248.626 72.8011 248.771 72.6619C248.916 72.5227 249.026 72.3509 249.103 72.1463L250.309 72.3636C250.213 72.7187 250.039 73.0298 249.789 73.2969C249.542 73.5611 249.231 73.767 248.856 73.9148C248.484 74.0597 248.059 74.1321 247.582 74.1321ZM253.078 70.1136V74H251.804V67.4545H253.027V68.5199H253.108C253.258 68.1733 253.494 67.8949 253.815 67.6847C254.139 67.4744 254.547 67.3693 255.038 67.3693C255.484 67.3693 255.875 67.4631 256.21 67.6506C256.545 67.8352 256.805 68.1108 256.99 68.4773C257.175 68.8437 257.267 69.2969 257.267 69.8366V74H255.993V69.9901C255.993 69.5156 255.869 69.1449 255.622 68.8778C255.375 68.608 255.035 68.473 254.604 68.473C254.308 68.473 254.045 68.5369 253.815 68.6648C253.588 68.7926 253.407 68.9801 253.274 69.2273C253.143 69.4716 253.078 69.767 253.078 70.1136ZM261.426 74.1278C260.898 74.1278 260.426 73.9929 260.011 73.723C259.599 73.4503 259.275 73.0625 259.04 72.5597C258.807 72.054 258.69 71.4474 258.69 70.7401C258.69 70.0327 258.808 69.4276 259.044 68.9247C259.282 68.4219 259.609 68.0369 260.024 67.7699C260.439 67.5028 260.909 67.3693 261.434 67.3693C261.841 67.3693 262.167 67.4375 262.415 67.5739C262.665 67.7074 262.858 67.8636 262.994 68.0426C263.133 68.2216 263.241 68.3793 263.318 68.5156H263.395V65.2727H264.669V74H263.425V72.9815H263.318C263.241 73.1207 263.131 73.2798 262.986 73.4588C262.844 73.6378 262.648 73.794 262.398 73.9276C262.148 74.0611 261.824 74.1278 261.426 74.1278ZM261.707 73.0412C262.074 73.0412 262.383 72.9446 262.636 72.7514C262.892 72.5554 263.085 72.2841 263.216 71.9375C263.349 71.5909 263.416 71.1875 263.416 70.7273C263.416 70.2727 263.351 69.875 263.22 69.5341C263.089 69.1932 262.898 68.9276 262.645 68.7372C262.392 68.5469 262.079 68.4517 261.707 68.4517C261.324 68.4517 261.004 68.5511 260.748 68.75C260.493 68.9489 260.3 69.2202 260.169 69.5639C260.041 69.9077 259.977 70.2955 259.977 70.7273C259.977 71.1648 260.042 71.5582 260.173 71.9077C260.304 72.2571 260.497 72.5341 260.753 72.7386C261.011 72.9403 261.329 73.0412 261.707 73.0412ZM270.034 70.3778C270.034 69.3097 270.175 68.3267 270.456 67.429C270.737 66.5312 271.148 65.7031 271.687 64.9446H272.855C272.645 65.2259 272.449 65.571 272.267 65.9801C272.085 66.3892 271.926 66.8381 271.79 67.3267C271.653 67.8125 271.547 68.3168 271.47 68.8395C271.393 69.3594 271.355 69.8722 271.355 70.3778C271.355 71.054 271.422 71.7386 271.555 72.4318C271.689 73.125 271.869 73.7685 272.096 74.3622C272.324 74.956 272.577 75.4403 272.855 75.8153H271.687C271.148 75.0568 270.737 74.2287 270.456 73.331C270.175 72.4332 270.034 71.4489 270.034 70.3778ZM277.194 72.8324L274.526 70.1818L277.194 67.5312V72.8324ZM276.363 70.7273V69.6364H284.059V70.7273H276.363ZM282.998 70.7273V65.2727H284.085V70.7273H282.998ZM288.59 70.3778C288.59 71.4489 288.449 72.4332 288.168 73.331C287.887 74.2287 287.476 75.0568 286.937 75.8153H285.769C285.979 75.5341 286.175 75.1889 286.357 74.7798C286.539 74.3707 286.698 73.9233 286.834 73.4375C286.971 72.9489 287.077 72.4432 287.154 71.9205C287.231 71.3977 287.269 70.8835 287.269 70.3778C287.269 69.7045 287.202 69.0213 287.069 68.3281C286.935 67.6349 286.755 66.9915 286.528 66.3977C286.3 65.804 286.047 65.3196 285.769 64.9446H286.937C287.476 65.7031 287.887 66.5312 288.168 67.429C288.449 68.3267 288.59 69.3097 288.59 70.3778Z" fill="white"/>
</g>
<rect x="8" y="10" width="202" height="12" rx="6" fill="#FDFDFD"/>
<rect x="8" y="30" width="137" height="12" rx="6" fill="#FDFDFD"/>
<defs>
<filter id="filter0_d_487_6940" x="223.167" y="55.5833" width="79.6667" height="29.6667" filterUnits="userSpaceOnUse" color-interpolation-filters="sRGB">
<feFlood flood-opacity="0" result="BackgroundImageFix"/>
<feColorMatrix in="SourceAlpha" type="matrix" values="0 0 0 0 0 0 0 0 0 0 0 0 0 0 0 0 0 0 127 0" result="hardAlpha"/>
<feOffset dy="0.416667"/>
<feGaussianBlur stdDeviation="0.416667"/>
<feComposite in2="hardAlpha" operator="out"/>
<feColorMatrix type="matrix" values="0 0 0 0 0.214953 0 0 0 0 0.364486 0 0 0 0 0.985047 0 0 0 0.08 0"/>
<feBlend mode="normal" in2="BackgroundImageFix" result="effect1_dropShadow_487_6940"/>
<feBlend mode="normal" in="SourceGraphic" in2="effect1_dropShadow_487_6940" result="shape"/>
</filter>
<linearGradient id="paint0_linear_487_6940" x1="0" y1="50" x2="318" y2="50" gradientUnits="userSpaceOnUse">
<stop stop-color="#ECEEF2"/>
<stop offset="1" stop-color="#E7F2FF"/>
</linearGradient>
</defs>
</svg>
