<svg width="318" height="100" viewBox="0 0 318 100" fill="none" xmlns="http://www.w3.org/2000/svg">
<g clip-path="url(#clip0_2_3)">
<path d="M310 0H8C3.58172 0 0 3.58172 0 8V92C0 96.4183 3.58172 100 8 100H310C314.418 100 318 96.4183 318 92V8C318 3.58172 314.418 0 310 0Z" fill="url(#paint0_linear_2_3)"/>
<g filter="url(#filter0_d_2_3)">
<path d="M296 56H204C200.686 56 198 58.6863 198 62V78C198 81.3137 200.686 84 204 84H296C299.314 84 302 81.3137 302 78V62C302 58.6863 299.314 56 296 56Z" fill="#4B7DFB"/>
</g>
<path d="M204 10H14C10.6863 10 8 12.6863 8 16C8 19.3137 10.6863 22 14 22H204C207.314 22 210 19.3137 210 16C210 12.6863 207.314 10 204 10Z" fill="#383942"/>
<path d="M139 30H14C10.6863 30 8 32.6863 8 36C8 39.3137 10.6863 42 14 42H139C142.314 42 145 39.3137 145 36C145 32.6863 142.314 30 139 30Z" fill="#383942"/>
<path d="M209 73.8586V65.341H214.282V66.4473H210.271V69.0425H214.006V70.1446H210.271V72.7523H214.331V73.8586H209Z" fill="white"/>
<path d="M217.111 70.0656V73.8586H215.881V67.4704H217.062V68.5102H217.14C217.285 68.1719 217.513 67.9002 217.823 67.695C218.135 67.4898 218.529 67.3872 219.003 67.3872C219.434 67.3872 219.811 67.4787 220.134 67.6617C220.458 67.842 220.709 68.1109 220.887 68.4686C221.065 68.8262 221.155 69.2685 221.155 69.7953V73.8586H219.925V69.945C219.925 69.482 219.805 69.1201 219.567 68.8595C219.328 68.5961 219 68.4644 218.584 68.4644C218.298 68.4644 218.045 68.5268 217.823 68.6516C217.603 68.7763 217.429 68.9593 217.3 69.2006C217.174 69.439 217.111 69.7274 217.111 70.0656Z" fill="white"/>
<path d="M227.983 67.4704L225.692 73.8586H224.375L222.08 67.4704H223.401L225.001 72.3863H225.067L226.663 67.4704H227.983Z" fill="white"/>
<path d="M229.139 73.8586V67.4704H230.369V73.8586H229.139ZM229.76 66.4848C229.546 66.4848 229.362 66.4127 229.209 66.2685C229.058 66.1215 228.983 65.9469 228.983 65.7445C228.983 65.5393 229.058 65.3646 229.209 65.2204C229.362 65.0735 229.546 65 229.76 65C229.974 65 230.156 65.0735 230.307 65.2204C230.461 65.3646 230.538 65.5393 230.538 65.7445C230.538 65.9469 230.461 66.1215 230.307 66.2685C230.156 66.4127 229.974 66.4848 229.76 66.4848Z" fill="white"/>
<path d="M233.862 74C233.462 74 233.1 73.9251 232.776 73.7754C232.453 73.6229 232.196 73.4025 232.007 73.1141C231.821 72.8258 231.727 72.4723 231.727 72.0536C231.727 71.6932 231.796 71.3965 231.933 71.1636C232.07 70.9307 232.255 70.7463 232.488 70.6104C232.722 70.4746 232.982 70.372 233.27 70.3027C233.558 70.2334 233.851 70.1807 234.15 70.1446C234.529 70.1003 234.836 70.0642 235.072 70.0365C235.308 70.006 235.479 69.9575 235.586 69.8909C235.693 69.8244 235.746 69.7163 235.746 69.5665V69.5374C235.746 69.1742 235.645 68.8928 235.442 68.6932C235.242 68.4935 234.943 68.3937 234.545 68.3937C234.131 68.3937 233.805 68.4866 233.566 68.6724C233.33 68.8554 233.167 69.0591 233.077 69.2837L231.921 69.0176C232.058 68.6294 232.258 68.3161 232.521 68.0776C232.787 67.8364 233.093 67.6617 233.439 67.5536C233.784 67.4427 234.148 67.3872 234.529 67.3872C234.781 67.3872 235.048 67.4177 235.331 67.4787C235.616 67.537 235.882 67.6451 236.129 67.8031C236.378 67.9612 236.583 68.1872 236.742 68.4811C236.901 68.7722 236.98 69.1506 236.98 69.6165V73.8586H235.779V72.9852H235.73C235.65 73.146 235.531 73.3041 235.372 73.4593C235.213 73.6146 235.009 73.7435 234.759 73.8461C234.51 73.9487 234.211 74 233.862 74ZM234.13 73.0018C234.47 73.0018 234.76 72.9339 235.002 72.7981C235.246 72.6622 235.431 72.4848 235.557 72.2657C235.686 72.0439 235.75 71.8068 235.75 71.5545V70.7311C235.707 70.7754 235.622 70.817 235.495 70.8558C235.372 70.8919 235.231 70.9238 235.072 70.9515C234.913 70.9764 234.758 71 234.607 71.0222C234.456 71.0416 234.33 71.0582 234.228 71.0721C233.99 71.1026 233.772 71.1539 233.574 71.226C233.38 71.2981 233.223 71.402 233.105 71.5379C232.99 71.671 232.933 71.8484 232.933 72.0702C232.933 72.378 233.045 72.6109 233.27 72.7689C233.495 72.9242 233.781 73.0018 234.13 73.0018Z" fill="white"/>
<path d="M238.619 73.8586V67.4704H239.807V68.4852H239.873C239.988 68.1414 240.191 67.8711 240.482 67.6742C240.776 67.4746 241.107 67.3748 241.478 67.3748C241.554 67.3748 241.645 67.3775 241.749 67.3831C241.856 67.3886 241.94 67.3956 242 67.4039V68.5933C241.951 68.5795 241.863 68.5642 241.737 68.5476C241.611 68.5282 241.484 68.5185 241.358 68.5185C241.068 68.5185 240.808 68.5809 240.581 68.7056C240.356 68.8276 240.178 68.9982 240.046 69.2172C239.914 69.4335 239.849 69.6802 239.849 69.9575V73.8586H238.619Z" fill="white"/>
<path d="M247 70.4332C247 69.3651 247.141 68.3821 247.422 67.4844C247.704 66.5866 248.114 65.7585 248.654 65H249.822C249.611 65.2813 249.415 65.6264 249.233 66.0355C249.052 66.4446 248.893 66.8935 248.756 67.3821C248.62 67.8679 248.513 68.3722 248.437 68.8949C248.36 69.4148 248.322 69.9276 248.322 70.4332C248.322 71.1094 248.388 71.794 248.522 72.4872C248.655 73.1804 248.836 73.8239 249.063 74.4176C249.29 75.0114 249.543 75.4957 249.822 75.8707H248.654C248.114 75.1122 247.704 74.2841 247.422 73.3864C247.141 72.4886 247 71.5043 247 70.4332ZM253.585 74.2514C253.239 74.2514 252.921 74.1662 252.631 73.9957C252.341 73.8224 252.111 73.5923 251.94 73.3054C251.77 73.0156 251.685 72.6974 251.685 72.3509C251.685 72.0014 251.77 71.6832 251.94 71.3963C252.111 71.1065 252.341 70.875 252.631 70.7017C252.921 70.5284 253.239 70.4418 253.585 70.4418H254.523V68.9332H253.585C253.239 68.9332 252.921 68.848 252.631 68.6776C252.341 68.5071 252.111 68.2784 251.94 67.9915C251.77 67.7017 251.685 67.3821 251.685 67.0327C251.685 66.6832 251.77 66.3651 251.94 66.0781C252.111 65.7912 252.341 65.5625 252.631 65.392C252.921 65.2188 253.239 65.1321 253.585 65.1321C253.935 65.1321 254.253 65.2188 254.54 65.392C254.83 65.5625 255.06 65.7912 255.23 66.0781C255.404 66.3651 255.49 66.6832 255.49 67.0327V67.9616H257.003V67.0327C257.003 66.6832 257.088 66.3651 257.259 66.0781C257.429 65.7912 257.658 65.5625 257.945 65.392C258.235 65.2188 258.554 65.1321 258.904 65.1321C259.253 65.1321 259.571 65.2188 259.858 65.392C260.145 65.5625 260.374 65.7912 260.544 66.0781C260.715 66.3651 260.8 66.6832 260.8 67.0327C260.8 67.3821 260.715 67.7017 260.544 67.9915C260.374 68.2784 260.145 68.5071 259.858 68.6776C259.571 68.848 259.253 68.9332 258.904 68.9332H257.97V70.4418H258.904C259.253 70.4418 259.571 70.5284 259.858 70.7017C260.145 70.875 260.374 71.1065 260.544 71.3963C260.715 71.6832 260.8 72.0014 260.8 72.3509C260.8 72.6974 260.715 73.0156 260.544 73.3054C260.374 73.5923 260.145 73.8224 259.858 73.9957C259.571 74.1662 259.253 74.2514 258.904 74.2514C258.554 74.2514 258.235 74.1662 257.945 73.9957C257.658 73.8224 257.429 73.5923 257.259 73.3054C257.088 73.0156 257.003 72.6974 257.003 72.3509V71.4134H255.49V72.3509C255.49 72.6974 255.404 73.0156 255.23 73.3054C255.06 73.5923 254.83 73.8224 254.54 73.9957C254.253 74.1662 253.935 74.2514 253.585 74.2514ZM253.585 73.2798C253.759 73.2798 253.915 73.2386 254.054 73.1563C254.196 73.0739 254.31 72.9616 254.395 72.8196C254.48 72.6776 254.523 72.5213 254.523 72.3509V71.4134H253.585C253.415 71.4134 253.259 71.456 253.117 71.5412C252.975 71.6236 252.861 71.7358 252.776 71.8778C252.693 72.0199 252.652 72.1776 252.652 72.3509C252.652 72.5213 252.693 72.6776 252.776 72.8196C252.861 72.9616 252.975 73.0739 253.117 73.1563C253.259 73.2386 253.415 73.2798 253.585 73.2798ZM253.585 67.9616H254.523V67.0327C254.523 66.8594 254.48 66.7031 254.395 66.5639C254.31 66.4219 254.196 66.3097 254.054 66.2273C253.915 66.1449 253.759 66.1037 253.585 66.1037C253.415 66.1037 253.259 66.1449 253.117 66.2273C252.975 66.3097 252.861 66.4219 252.776 66.5639C252.693 66.7031 252.652 66.8594 252.652 67.0327C252.652 67.206 252.693 67.3636 252.776 67.5057C252.861 67.6449 252.975 67.7557 253.117 67.8381C253.259 67.9205 253.415 67.9616 253.585 67.9616ZM257.97 67.9616H258.904C259.077 67.9616 259.233 67.9205 259.372 67.8381C259.512 67.7557 259.622 67.6449 259.705 67.5057C259.79 67.3636 259.833 67.206 259.833 67.0327C259.833 66.8594 259.79 66.7031 259.705 66.5639C259.622 66.4219 259.512 66.3097 259.372 66.2273C259.233 66.1449 259.077 66.1037 258.904 66.1037C258.73 66.1037 258.573 66.1449 258.431 66.2273C258.288 66.3097 258.176 66.4219 258.094 66.5639C258.012 66.7031 257.97 66.8594 257.97 67.0327V67.9616ZM258.904 73.2798C259.077 73.2798 259.233 73.2386 259.372 73.1563C259.512 73.0739 259.622 72.9616 259.705 72.8196C259.79 72.6776 259.833 72.5213 259.833 72.3509C259.833 72.1776 259.79 72.0199 259.705 71.8778C259.622 71.7358 259.512 71.6236 259.372 71.5412C259.233 71.456 259.077 71.4134 258.904 71.4134H257.97V72.3509C257.97 72.5213 258.012 72.6776 258.094 72.8196C258.176 72.9616 258.288 73.0739 258.431 73.1563C258.573 73.2386 258.73 73.2798 258.904 73.2798ZM255.49 70.4418H257.003V68.9332H255.49V70.4418ZM268.777 73.5014V67.7401H269.923V73.5014H268.777ZM266.472 71.1918V70.0455H272.233V71.1918H266.472ZM280.375 72.8878L277.708 70.2372L280.375 67.5866V72.8878ZM279.545 70.7827V69.6918H287.241V70.7827H279.545ZM286.179 70.7827V65.3281H287.266V70.7827H286.179ZM291.771 70.4332C291.771 71.5043 291.631 72.4886 291.35 73.3864C291.068 74.2841 290.658 75.1122 290.118 75.8707H288.95C289.161 75.5895 289.357 75.2443 289.538 74.8352C289.72 74.4261 289.879 73.9787 290.016 73.4929C290.152 73.0043 290.259 72.4986 290.335 71.9759C290.412 71.4531 290.45 70.9389 290.45 70.4332C290.45 69.7599 290.384 69.0767 290.25 68.3835C290.117 67.6903 289.936 67.0469 289.709 66.4531C289.482 65.8594 289.229 65.375 288.95 65H290.118C290.658 65.7585 291.068 66.5866 291.35 67.4844C291.631 68.3821 291.771 69.3651 291.771 70.4332Z" fill="white"/>
</g>
<defs>
<filter id="filter0_d_2_3" x="197.167" y="55.5833" width="105.667" height="29.6667" filterUnits="userSpaceOnUse" color-interpolation-filters="sRGB">
<feFlood flood-opacity="0" result="BackgroundImageFix"/>
<feColorMatrix in="SourceAlpha" type="matrix" values="0 0 0 0 0 0 0 0 0 0 0 0 0 0 0 0 0 0 127 0" result="hardAlpha"/>
<feOffset dy="0.416667"/>
<feGaussianBlur stdDeviation="0.416667"/>
<feComposite in2="hardAlpha" operator="out"/>
<feColorMatrix type="matrix" values="0 0 0 0 0.214953 0 0 0 0 0.364486 0 0 0 0 0.985047 0 0 0 0.08 0"/>
<feBlend mode="normal" in2="BackgroundImageFix" result="effect1_dropShadow_2_3"/>
<feBlend mode="normal" in="SourceGraphic" in2="effect1_dropShadow_2_3" result="shape"/>
</filter>
<linearGradient id="paint0_linear_2_3" x1="0" y1="50" x2="318" y2="50" gradientUnits="userSpaceOnUse">
<stop offset="0.39" stop-color="#2A2B31"/>
<stop offset="1" stop-color="#242F45"/>
</linearGradient>
<clipPath id="clip0_2_3">
<rect width="318" height="100" fill="white"/>
</clipPath>
</defs>
</svg>
