<svg width="318" height="100" viewBox="0 0 318 100" fill="none" xmlns="http://www.w3.org/2000/svg">
<rect width="318" height="100" rx="8" fill="url(#paint0_linear_425_68232)"/>
<g filter="url(#filter0_d_425_68232)">
<rect x="223" y="56" width="79" height="28" rx="6" fill="#4B7DFB"/>
<path d="M236.142 74V65.2727H241.614V66.4062H237.459V69.0653H241.328V70.1946H237.459V72.8665H241.665V74H236.142ZM244.545 70.1136V74H243.271V67.4545H244.494V68.5199H244.575C244.725 68.1733 244.961 67.8949 245.282 67.6847C245.606 67.4744 246.013 67.3693 246.505 67.3693C246.951 67.3693 247.342 67.4631 247.677 67.6506C248.012 67.8352 248.272 68.1108 248.457 68.4773C248.641 68.8437 248.734 69.2969 248.734 69.8366V74H247.46V69.9901C247.46 69.5156 247.336 69.1449 247.089 68.8778C246.842 68.608 246.502 68.473 246.07 68.473C245.775 68.473 245.512 68.5369 245.282 68.6648C245.055 68.7926 244.874 68.9801 244.741 69.2273C244.61 69.4716 244.545 69.767 244.545 70.1136ZM253.498 67.4545V68.4773H249.923V67.4545H253.498ZM250.881 65.8864H252.156V72.0781C252.156 72.3253 252.192 72.5114 252.266 72.6364C252.34 72.7585 252.435 72.8423 252.552 72.8878C252.671 72.9304 252.8 72.9517 252.94 72.9517C253.042 72.9517 253.131 72.9446 253.208 72.9304C253.285 72.9162 253.344 72.9048 253.387 72.8963L253.617 73.9489C253.543 73.9773 253.438 74.0057 253.302 74.0341C253.165 74.0653 252.995 74.0824 252.79 74.0852C252.455 74.0909 252.143 74.0312 251.853 73.9062C251.563 73.7812 251.329 73.5881 251.15 73.3267C250.971 73.0653 250.881 72.7372 250.881 72.3423V65.8864ZM257.658 74.1321C257.013 74.1321 256.458 73.9943 255.992 73.7188C255.529 73.4403 255.171 73.0497 254.918 72.5469C254.668 72.0412 254.543 71.4489 254.543 70.7699C254.543 70.0994 254.668 69.5085 254.918 68.9972C255.171 68.4858 255.523 68.0866 255.975 67.7997C256.429 67.5128 256.961 67.3693 257.569 67.3693C257.938 67.3693 258.296 67.4304 258.642 67.5526C258.989 67.6747 259.3 67.8665 259.576 68.1278C259.851 68.3892 260.069 68.7287 260.228 69.1463C260.387 69.5611 260.466 70.0653 260.466 70.6591V71.1108H255.263V70.1562H259.218C259.218 69.821 259.15 69.5241 259.013 69.2656C258.877 69.0043 258.685 68.7983 258.438 68.6477C258.194 68.4972 257.907 68.4219 257.577 68.4219C257.219 68.4219 256.907 68.5099 256.64 68.6861C256.375 68.8594 256.171 69.0866 256.026 69.3679C255.884 69.6463 255.813 69.9489 255.813 70.2756V71.0213C255.813 71.4588 255.89 71.831 256.043 72.1378C256.199 72.4446 256.417 72.679 256.695 72.8409C256.973 73 257.299 73.0795 257.671 73.0795C257.912 73.0795 258.132 73.0455 258.331 72.9773C258.53 72.9062 258.702 72.8011 258.847 72.6619C258.992 72.5227 259.103 72.3509 259.179 72.1463L260.385 72.3636C260.289 72.7187 260.115 73.0298 259.865 73.2969C259.618 73.5611 259.307 73.767 258.932 73.9148C258.56 74.0597 258.135 74.1321 257.658 74.1321ZM261.88 74V67.4545H263.112V68.4943H263.18C263.299 68.142 263.509 67.8651 263.81 67.6634C264.114 67.4588 264.458 67.3565 264.842 67.3565C264.921 67.3565 265.015 67.3594 265.123 67.3651C265.234 67.3707 265.32 67.3778 265.383 67.3864V68.6051C265.332 68.5909 265.241 68.5753 265.11 68.5582C264.979 68.5384 264.849 68.5284 264.718 68.5284C264.417 68.5284 264.148 68.5923 263.913 68.7202C263.68 68.8452 263.495 69.0199 263.359 69.2443C263.222 69.4659 263.154 69.7187 263.154 70.0028V74H261.88ZM270.032 70.3778C270.032 69.3097 270.173 68.3267 270.454 67.429C270.735 66.5312 271.146 65.7031 271.685 64.9446H272.853C272.643 65.2259 272.447 65.571 272.265 65.9801C272.083 66.3892 271.924 66.8381 271.788 67.3267C271.651 67.8125 271.545 68.3168 271.468 68.8395C271.391 69.3594 271.353 69.8722 271.353 70.3778C271.353 71.054 271.42 71.7386 271.553 72.4318C271.687 73.125 271.867 73.7685 272.094 74.3622C272.322 74.956 272.575 75.4403 272.853 75.8153H271.685C271.146 75.0568 270.735 74.2287 270.454 73.331C270.173 72.4332 270.032 71.4489 270.032 70.3778ZM277.192 72.8324L274.525 70.1818L277.192 67.5312V72.8324ZM276.361 70.7273V69.6364H284.057V70.7273H276.361ZM282.996 70.7273V65.2727H284.083V70.7273H282.996ZM288.588 70.3778C288.588 71.4489 288.447 72.4332 288.166 73.331C287.885 74.2287 287.474 75.0568 286.935 75.8153H285.767C285.977 75.5341 286.173 75.1889 286.355 74.7798C286.537 74.3707 286.696 73.9233 286.832 73.4375C286.969 72.9489 287.075 72.4432 287.152 71.9205C287.229 71.3977 287.267 70.8835 287.267 70.3778C287.267 69.7045 287.2 69.0213 287.067 68.3281C286.933 67.6349 286.753 66.9915 286.526 66.3977C286.298 65.804 286.045 65.3196 285.767 64.9446H286.935C287.474 65.7031 287.885 66.5312 288.166 67.429C288.447 68.3267 288.588 69.3097 288.588 70.3778Z" fill="white"/>
</g>
<rect x="8" y="10" width="202" height="12" rx="6" fill="#383942"/>
<rect x="8" y="30" width="137" height="12" rx="6" fill="#383942"/>
<defs>
<filter id="filter0_d_425_68232" x="222.167" y="55.5833" width="80.6667" height="29.6667" filterUnits="userSpaceOnUse" color-interpolation-filters="sRGB">
<feFlood flood-opacity="0" result="BackgroundImageFix"/>
<feColorMatrix in="SourceAlpha" type="matrix" values="0 0 0 0 0 0 0 0 0 0 0 0 0 0 0 0 0 0 127 0" result="hardAlpha"/>
<feOffset dy="0.416667"/>
<feGaussianBlur stdDeviation="0.416667"/>
<feComposite in2="hardAlpha" operator="out"/>
<feColorMatrix type="matrix" values="0 0 0 0 0.214953 0 0 0 0 0.364486 0 0 0 0 0.985047 0 0 0 0.08 0"/>
<feBlend mode="normal" in2="BackgroundImageFix" result="effect1_dropShadow_425_68232"/>
<feBlend mode="normal" in="SourceGraphic" in2="effect1_dropShadow_425_68232" result="shape"/>
</filter>
<linearGradient id="paint0_linear_425_68232" x1="0" y1="50" x2="318" y2="50" gradientUnits="userSpaceOnUse">
<stop offset="0.39" stop-color="#2A2B31"/>
<stop offset="1" stop-color="#242F45"/>
</linearGradient>
</defs>
</svg>
