<svg width="255" height="255" viewBox="0 0 255 255" fill="none" xmlns="http://www.w3.org/2000/svg">
<path d="M170 135.915V170H136V135.915H170ZM170 84.9492V118.915H136V84.9492H170ZM119 84.9492H85V118.915H119V84.9492ZM119 135.915H85V170H119V135.915Z" fill="#14AE5C"/>
<path fill-rule="evenodd" clip-rule="evenodd" d="M17 25.5C17 18.737 19.6866 12.251 24.4688 7.46878C29.251 2.6866 35.737 0 42.5 0L182.019 0L238 55.981V229.5C238 236.263 235.313 242.749 230.531 247.531C225.749 252.313 219.263 255 212.5 255H42.5C35.737 255 29.251 252.313 24.4688 247.531C19.6866 242.749 17 236.263 17 229.5V25.5ZM187 67.949H68V187H187V67.949Z" fill="#14AE5C"/>
</svg>
