<svg width="127" height="124" viewBox="0 0 127 124" fill="none" xmlns="http://www.w3.org/2000/svg">
<rect width="126.33" height="124" rx="13.2025" fill="url(#paint0_linear_1_107)"/>
<path d="M53.4107 20.5806C53.7305 20.5806 54.0424 20.6937 54.2882 20.899C54.6583 21.2068 54.9622 21.5016 55.2662 21.9726C58.586 27.1196 60.8089 34.1349 64.0363 39.4714C65.0037 41.0687 65.7067 41.8634 67.7288 42.0897C73.3693 42.7238 80.2971 41.4344 85.9165 42.0844C86.424 42.1423 86.7861 42.237 87.1403 42.5291C87.2803 42.6449 87.3914 42.7922 87.4733 42.9554L104.696 77.3742C104.85 77.6794 104.889 78.032 104.786 78.3557C104.556 79.0741 103.911 79.7319 103.19 79.8608C103.097 79.8766 103.002 79.874 102.909 79.8661C96.6927 79.3346 89.3209 80.5766 83.268 79.8714C82.9455 79.8345 82.668 79.7819 82.409 79.6609C82.1499 79.5398 81.9385 79.3214 81.809 79.0635L65.5402 47.1578C64.6812 45.4421 62.7622 45.1789 61.7473 46.8946L45.6107 79.403C45.4785 79.6688 45.4336 79.9687 45.4917 80.2582C45.7058 81.295 46.5649 81.8449 47.6961 81.9712C58.6415 82.7028 70.9138 80.9766 81.7032 81.9528C82.6284 82.037 83.2786 82.1791 83.72 83.0948C85.9218 88.7103 90.2011 94.5125 92.2257 100.07C92.7887 101.615 92.6989 102.33 91.4037 103.154C91.1896 103.291 90.9385 103.359 90.6848 103.359L55.1129 103.42C54.9279 103.42 54.7402 103.386 54.571 103.309C53.6433 102.894 53.2389 101.912 52.7499 101.073C50.112 96.5282 47.9472 89.9681 45.1058 85.8631C44.3737 84.8053 43.5093 84.1737 42.1851 84.05C36.3807 83.5106 29.445 84.7158 23.7225 84.0711C22.8582 83.9737 22.3798 83.679 21.8855 83.1817C21.6291 82.9238 21.4864 82.5791 21.4864 82.2212V81.2423C21.4864 81.0266 21.5366 80.8161 21.6371 80.624L52.1975 21.32C52.4301 20.8674 52.8979 20.5832 53.4107 20.5832V20.5806Z" fill="black"/>
<defs>
<linearGradient id="paint0_linear_1_107" x1="63.1649" y1="0" x2="63.1649" y2="124" gradientUnits="userSpaceOnUse">
<stop stop-color="#C1FF4D"/>
<stop offset="1" stop-color="#1BFBBD"/>
</linearGradient>
</defs>
</svg>
