<svg width="871" height="890" viewBox="0 0 871 890" fill="none" xmlns="http://www.w3.org/2000/svg">
<path d="M871 374.052H853.558V356.782H838.607V374.052H821.164V389.348H838.607V406.618H853.558V389.348H871V374.052Z" fill="url(#paint0_linear_417_128)"/>
<path d="M263.905 25.1199H238.534V0H216.787V25.1199H191.416V47.369H216.787V72.4889H238.534V47.369H263.905V25.1199Z" fill="url(#paint1_linear_417_128)"/>
<path d="M41.9077 396.222H27.24V381.7H14.6677V396.222H0V409.085H14.6677V423.607H27.24V409.085H41.9077V396.222Z" fill="url(#paint2_linear_417_128)"/>
<path d="M756.693 436.77C756.693 530.365 718.464 614.732 657.166 675.371C597.186 735.351 514.137 771.603 422.519 771.603C331.561 771.603 248.512 734.692 187.873 675.371C126.575 614.732 88.3457 530.365 88.3457 436.77C88.3457 251.558 237.966 101.938 422.519 101.938C607.073 101.938 756.693 252.217 756.693 436.77Z" fill="#EAEEF9"/>
<path d="M729.261 298.698C744.186 298.698 756.285 286.599 756.285 271.674C756.285 256.749 744.186 244.65 729.261 244.65C714.336 244.65 702.237 256.749 702.237 271.674C702.237 286.599 714.336 298.698 729.261 298.698Z" fill="#EAEEF9"/>
<path d="M631.214 98.0733C641.406 98.0733 649.669 89.8105 649.669 79.6179C649.669 69.4253 641.406 61.1626 631.214 61.1626C621.021 61.1626 612.758 69.4253 612.758 79.6179C612.758 89.8105 621.021 98.0733 631.214 98.0733Z" fill="#EAEEF9"/>
<path d="M99.4124 220.995C109.605 220.995 117.868 212.732 117.868 202.54C117.868 192.347 109.605 184.084 99.4124 184.084C89.2198 184.084 80.957 192.347 80.957 202.54C80.957 212.732 89.2198 220.995 99.4124 220.995Z" fill="#EAEEF9"/>
<path d="M114.692 756.061C133.621 756.061 148.966 740.716 148.966 721.786C148.966 702.857 133.621 687.512 114.692 687.512C95.7626 687.512 80.4175 702.857 80.4175 721.786C80.4175 740.716 95.7626 756.061 114.692 756.061Z" fill="#EAEEF9"/>
<path d="M484.339 698.197H361.743V728.517H484.339V698.197Z" fill="#D5DAE5"/>
<mask id="mask0_417_128" style="mask-type:alpha" maskUnits="userSpaceOnUse" x="83" y="101" width="670" height="671">
<path d="M752.162 436.77C752.162 530.365 713.934 614.732 652.635 675.371C592.656 735.351 509.607 771.603 417.989 771.603C327.03 771.603 243.981 734.692 183.342 675.371C122.044 614.732 83.8154 530.365 83.8154 436.77C83.8154 251.558 233.436 101.938 417.989 101.938C602.542 101.938 752.162 252.217 752.162 436.77Z" fill="#EAEEF9"/>
</mask>
<g mask="url(#mask0_417_128)">
<g filter="url(#filter0_d_417_128)">
<path d="M631.616 383.364L636.543 780.012C636.543 793.562 625.457 804.033 611.907 804.033H225.114C211.563 804.033 200.477 792.946 200.477 780.012V270.036C200.477 256.486 211.563 246.016 225.114 246.016H505.354L631.616 383.364Z" fill="url(#paint3_linear_417_128)"/>
</g>
<path d="M505.597 245.941V355.574C505.597 370.972 519.147 383.29 534.545 383.29H631.859" fill="#D5DDEA"/>
<path d="M295.145 580.946C295.145 558.174 307.524 538.248 325.846 527.481C334.14 522.654 344.663 528.471 344.663 538.124C344.663 542.58 342.311 546.54 338.473 548.768C327.331 555.204 319.904 567.209 319.904 580.946C319.904 603.843 340.701 621.912 364.47 617.333C382.049 613.867 394.181 597.407 394.181 579.461C394.181 573.397 399.009 568.57 405.075 568.57H466.973C470.316 564.734 475.267 562.382 480.838 562.382C491.113 562.382 499.408 570.674 499.408 580.946C499.408 591.219 491.113 599.511 480.838 599.511C475.391 599.511 470.439 597.159 466.973 593.323H417.702C414.648 608.362 406.113 621.73 393.754 630.831C381.395 639.933 366.094 644.119 350.822 642.577C335.549 641.035 321.395 633.874 311.106 622.485C300.818 611.097 295.129 596.292 295.145 580.946V580.946ZM473.039 469.56C481.086 469.56 487.152 461.886 485.047 454.089C481.637 440.798 473.895 429.021 463.046 420.617C452.196 412.213 438.855 407.66 425.13 407.678C412.765 407.688 400.686 411.399 390.449 418.332C380.211 425.266 372.285 435.105 367.69 446.582C363.096 458.058 362.043 470.648 364.669 482.728C367.294 494.808 373.477 505.826 382.421 514.362L353.329 562.63C344.91 564.362 338.473 571.912 338.473 580.946C338.473 591.219 346.767 599.511 357.042 599.511C359.959 599.514 362.835 598.83 365.437 597.514C368.04 596.198 370.295 594.286 372.019 591.935C373.744 589.584 374.89 586.859 375.363 583.982C375.837 581.105 375.625 578.157 374.745 575.377L410.151 516.59C413.246 511.515 411.76 504.832 406.685 501.862C395.543 495.302 387.991 483.297 387.991 469.56C387.991 449.139 404.704 432.431 425.13 432.431C442.214 432.431 456.574 443.941 460.907 459.659C462.517 465.352 467.221 469.56 473.039 469.56V469.56ZM480.838 543.818C476.134 543.818 471.554 544.684 467.345 546.293C462.393 548.273 456.698 545.798 453.975 541.219L421.788 487.753C413.122 486.268 406.561 478.718 406.561 469.56C406.561 459.287 414.855 450.995 425.13 450.995C435.405 450.995 443.7 459.287 443.7 469.56C443.7 471.416 443.452 473.149 442.957 474.882L470.068 520.055C473.534 519.436 477.124 519.065 480.838 519.065C515.006 519.065 542.736 546.788 542.736 580.946C542.736 615.105 515.006 642.828 480.838 642.828C470.192 642.828 460.041 640.105 451.251 635.278C439.862 629.09 444.071 611.887 457.07 611.887C459.174 611.887 461.279 612.506 463.135 613.62C468.335 616.466 474.401 618.075 480.838 618.075C501.265 618.075 517.977 601.367 517.977 580.946C517.977 560.526 501.265 543.818 480.838 543.818V543.818Z" fill="url(#paint4_linear_417_128)"/>
</g>
<path d="M533.628 798.956C531.321 808.761 527.86 819.143 523.823 827.795C512.865 849.135 495.562 865.861 474.221 876.82C452.304 887.778 426.35 892.392 400.396 886.625C339.259 873.936 300.039 813.952 312.727 752.815C325.416 691.678 384.823 651.882 445.96 665.147C467.877 669.761 486.91 680.72 503.06 695.716C530.167 722.824 541.703 762.044 533.628 798.956Z" fill="url(#paint5_linear_417_128)"/>
<path d="M459.226 766.079H433.272V740.125C433.272 734.934 429.234 730.32 423.467 730.32C418.276 730.32 413.662 734.357 413.662 740.125V766.079H387.707C382.516 766.079 377.902 770.117 377.902 775.884C377.902 781.652 381.94 785.689 387.707 785.689H413.662V811.644C413.662 816.834 417.699 821.449 423.467 821.449C428.658 821.449 433.272 817.411 433.272 811.644V785.689H459.226C464.417 785.689 469.031 781.652 469.031 775.884C469.031 770.117 464.417 766.079 459.226 766.079Z" fill="white"/>
<defs>
<filter id="filter0_d_417_128" x="178.477" y="235.016" width="480.066" height="602.017" filterUnits="userSpaceOnUse" color-interpolation-filters="sRGB">
<feFlood flood-opacity="0" result="BackgroundImageFix"/>
<feColorMatrix in="SourceAlpha" type="matrix" values="0 0 0 0 0 0 0 0 0 0 0 0 0 0 0 0 0 0 127 0" result="hardAlpha"/>
<feOffset dy="11"/>
<feGaussianBlur stdDeviation="11"/>
<feColorMatrix type="matrix" values="0 0 0 0 0.397708 0 0 0 0 0.47749 0 0 0 0 0.575 0 0 0 0.27 0"/>
<feBlend mode="normal" in2="BackgroundImageFix" result="effect1_dropShadow_417_128"/>
<feBlend mode="normal" in="SourceGraphic" in2="effect1_dropShadow_417_128" result="shape"/>
</filter>
<linearGradient id="paint0_linear_417_128" x1="846.086" y1="358.513" x2="846.086" y2="386.486" gradientUnits="userSpaceOnUse">
<stop stop-color="#B0BACC"/>
<stop offset="1" stop-color="#969EAE"/>
</linearGradient>
<linearGradient id="paint1_linear_417_128" x1="227.666" y1="2.51818" x2="227.666" y2="43.2055" gradientUnits="userSpaceOnUse">
<stop stop-color="#B0BACC"/>
<stop offset="1" stop-color="#969EAE"/>
</linearGradient>
<linearGradient id="paint2_linear_417_128" x1="20.9571" y1="383.156" x2="20.9571" y2="406.678" gradientUnits="userSpaceOnUse">
<stop stop-color="#B0BACC"/>
<stop offset="1" stop-color="#969EAE"/>
</linearGradient>
<linearGradient id="paint3_linear_417_128" x1="418.368" y1="233.108" x2="418.368" y2="810.048" gradientUnits="userSpaceOnUse">
<stop stop-color="#FDFEFF"/>
<stop offset="0.9964" stop-color="#ECF0F5"/>
</linearGradient>
<linearGradient id="paint4_linear_417_128" x1="418.94" y1="407.678" x2="418.94" y2="642.89" gradientUnits="userSpaceOnUse">
<stop stop-color="#2094FF"/>
<stop offset="1" stop-color="#53B6FD"/>
</linearGradient>
<linearGradient id="paint5_linear_417_128" x1="310.24" y1="775.883" x2="536.199" y2="775.883" gradientUnits="userSpaceOnUse">
<stop stop-color="#B0BACC"/>
<stop offset="1" stop-color="#969EAE"/>
</linearGradient>
</defs>
</svg>
