<svg width="1142" height="970" viewBox="0 0 1142 970" fill="none" xmlns="http://www.w3.org/2000/svg">
<path d="M1141.84 613.27H1124.39V596H1109.44V613.27H1092V628.566H1109.44V645.836H1124.39V628.566H1141.84V613.27Z" fill="#1F93FF"/>
<path d="M263.905 82.1199H238.534V57H216.787V82.1199H191.416V104.369H216.787V129.489H238.534V104.369H263.905V82.1199Z" fill="#1F93FF"/>
<path d="M41.9077 453.222H27.24V438.7H14.6677V453.222H0V466.085H14.6677V480.607H27.24V466.085H41.9077V453.222Z" fill="#1F93FF"/>
<path d="M1011.02 237.048C1025.95 237.048 1038.05 224.949 1038.05 210.024C1038.05 195.099 1025.95 183 1011.02 183C996.099 183 984 195.099 984 210.024C984 224.949 996.099 237.048 1011.02 237.048Z" fill="#EAEEF9"/>
<path d="M834.455 74.9107C844.648 74.9107 852.911 66.6479 852.911 56.4553C852.911 46.2627 844.648 38 834.455 38C824.263 38 816 46.2627 816 56.4553C816 66.6479 824.263 74.9107 834.455 74.9107Z" fill="#EAEEF9"/>
<path d="M99.4124 277.995C109.605 277.995 117.868 269.732 117.868 259.54C117.868 249.347 109.605 241.084 99.4124 241.084C89.2198 241.084 80.957 249.347 80.957 259.54C80.957 269.732 89.2198 277.995 99.4124 277.995Z" fill="#EAEEF9"/>
<path d="M225.274 932.548C244.203 932.548 259.548 917.203 259.548 898.274C259.548 879.345 244.203 864 225.274 864C206.345 864 191 879.345 191 898.274C191 917.203 206.345 932.548 225.274 932.548Z" fill="#EAEEF9"/>
<path d="M1038 508.5C1038 637.502 985.262 753.785 900.7 837.364C817.957 920.035 703.389 970 577 970C451.521 970 336.953 919.126 253.3 837.364C168.738 753.785 116 637.502 116 508.5C116 253.221 322.404 47 577 47C831.596 47 1038 254.13 1038 508.5Z" fill="#EAEEF9"/>
<mask id="mask0_422_14" style="mask-type:alpha" maskUnits="userSpaceOnUse" x="97" y="0" width="960" height="962">
<path d="M1057 480.947C1057 615.385 1002.09 736.568 914.041 823.669C827.888 909.823 708.598 961.894 577 961.894C446.349 961.894 327.059 908.876 239.959 823.669C151.911 736.568 97 615.385 97 480.947C97 214.911 311.911 0 577 0C842.089 0 1057 215.858 1057 480.947Z" fill="#EAEEF9"/>
</mask>
<g mask="url(#mask0_422_14)">
<g filter="url(#filter0_d_422_14)">
<path d="M884.279 404.235L891.357 973.972C891.357 993.435 875.432 1008.48 855.969 1008.48H300.387C280.924 1008.48 265 992.551 265 973.972V241.453C265 221.99 280.924 206.951 300.387 206.951H702.919L884.279 404.235Z" fill="url(#paint0_linear_422_14)"/>
</g>
<path d="M702.837 206.844V364.318C702.837 386.435 722.3 404.129 744.418 404.129H884.198" fill="#D5DDEA"/>
<path d="M340 752.964C340 709.203 363.75 670.912 398.9 650.221C414.813 640.946 435 652.124 435 670.675C435 679.237 430.488 686.847 423.125 691.128C401.75 703.495 387.5 726.565 387.5 752.964C387.5 796.963 427.4 831.687 473 822.887C506.725 816.228 530 784.596 530 750.11C530 738.457 539.263 729.181 550.9 729.181H669.65C676.063 721.808 685.563 717.29 696.25 717.29C715.963 717.29 731.875 733.224 731.875 752.964C731.875 772.704 715.963 788.639 696.25 788.639C685.8 788.639 676.3 784.12 669.65 776.748H575.125C569.265 805.648 552.89 831.336 529.18 848.827C505.47 866.317 476.116 874.361 446.816 871.398C417.516 868.434 390.361 854.674 370.623 832.789C350.884 810.903 339.97 782.454 340 752.964V752.964ZM681.288 538.916C696.725 538.916 708.363 524.17 704.325 509.187C697.782 483.646 682.93 461.014 662.115 444.864C641.3 428.714 615.707 419.966 589.375 420C565.653 420.019 542.479 427.15 522.839 440.474C503.199 453.798 487.993 472.705 479.178 494.759C470.363 516.814 468.344 541.007 473.381 564.221C478.417 587.435 490.279 608.607 507.438 625.011L451.625 717.765C435.475 721.095 423.125 735.603 423.125 752.964C423.125 772.704 439.038 788.639 458.75 788.639C464.345 788.646 469.863 787.331 474.856 784.802C479.848 782.272 484.174 778.599 487.483 774.081C490.792 769.562 492.99 764.326 493.898 758.798C494.807 753.269 494.401 747.604 492.713 742.262L560.638 629.292C566.575 619.541 563.725 606.698 553.988 600.99C532.613 588.385 518.125 565.315 518.125 538.916C518.125 499.674 550.188 467.566 589.375 467.566C622.15 467.566 649.7 489.685 658.013 519.889C661.1 530.83 670.125 538.916 681.288 538.916V538.916ZM696.25 681.615C687.225 681.615 678.438 683.28 670.363 686.372C660.863 690.177 649.938 685.42 644.713 676.62L582.963 573.877C566.338 571.023 553.75 556.515 553.75 538.916C553.75 519.176 569.663 503.241 589.375 503.241C609.088 503.241 625 519.176 625 538.916C625 542.483 624.525 545.813 623.575 549.143L675.588 635.951C682.238 634.762 689.125 634.049 696.25 634.049C761.8 634.049 815 687.323 815 752.964C815 818.606 761.8 871.88 696.25 871.88C675.825 871.88 656.35 866.648 639.488 857.372C617.638 845.481 625.713 812.422 650.65 812.422C654.688 812.422 658.725 813.611 662.288 815.752C672.263 821.222 683.9 824.314 696.25 824.314C735.438 824.314 767.5 792.207 767.5 752.964C767.5 713.722 735.438 681.615 696.25 681.615V681.615Z" fill="url(#paint1_linear_422_14)"/>
</g>
<defs>
<filter id="filter0_d_422_14" x="243" y="195.951" width="670.356" height="845.524" filterUnits="userSpaceOnUse" color-interpolation-filters="sRGB">
<feFlood flood-opacity="0" result="BackgroundImageFix"/>
<feColorMatrix in="SourceAlpha" type="matrix" values="0 0 0 0 0 0 0 0 0 0 0 0 0 0 0 0 0 0 127 0" result="hardAlpha"/>
<feOffset dy="11"/>
<feGaussianBlur stdDeviation="11"/>
<feColorMatrix type="matrix" values="0 0 0 0 0.397708 0 0 0 0 0.47749 0 0 0 0 0.575 0 0 0 0.27 0"/>
<feBlend mode="normal" in2="BackgroundImageFix" result="effect1_dropShadow_422_14"/>
<feBlend mode="normal" in="SourceGraphic" in2="effect1_dropShadow_422_14" result="shape"/>
</filter>
<linearGradient id="paint0_linear_422_14" x1="577.974" y1="188.411" x2="577.974" y2="1017.12" gradientUnits="userSpaceOnUse">
<stop stop-color="#FDFEFF"/>
<stop offset="0.9964" stop-color="#ECF0F5"/>
</linearGradient>
<linearGradient id="paint1_linear_422_14" x1="577.5" y1="420" x2="577.5" y2="872" gradientUnits="userSpaceOnUse">
<stop stop-color="#2094FF"/>
<stop offset="1" stop-color="#53B6FD"/>
</linearGradient>
</defs>
</svg>
