<?xml version="1.0" encoding="UTF-8" standalone="no"?>
<svg
   width="1080"
   zoomAndPan="magnify"
   viewBox="0 0 810 809.999993"
   height="1080"
   preserveAspectRatio="xMidYMid meet"
   version="1.0"
   id="svg17"
   sodipodi:docname="custom-api.svg"
   inkscape:version="1.3.2 (091e20e, 2023-11-25, custom)"
   xmlns:inkscape="http://www.inkscape.org/namespaces/inkscape"
   xmlns:sodipodi="http://sodipodi.sourceforge.net/DTD/sodipodi-0.dtd"
   xmlns="http://www.w3.org/2000/svg"
   xmlns:svg="http://www.w3.org/2000/svg">
  <sodipodi:namedview
     id="namedview17"
     pagecolor="#ffffff"
     bordercolor="#000000"
     borderopacity="0.25"
     inkscape:showpageshadow="2"
     inkscape:pageopacity="0.0"
     inkscape:pagecheckerboard="0"
     inkscape:deskcolor="#d1d1d1"
     inkscape:zoom="0.34305556"
     inkscape:cx="227.36842"
     inkscape:cy="654.41296"
     inkscape:window-width="1680"
     inkscape:window-height="979"
     inkscape:window-x="-8"
     inkscape:window-y="-8"
     inkscape:window-maximized="1"
     inkscape:current-layer="svg17" />
  <defs
     id="defs7">
    <clipPath
       id="01950dfc4b">
      <path
         d="M 247.246094 236.261719 L 590.0625 236.261719 L 590.0625 579.078125 L 247.246094 579.078125 Z M 247.246094 236.261719 "
         clip-rule="nonzero"
         id="path1" />
    </clipPath>
    <clipPath
       id="d987b3e604">
      <path
         d="M 418.652344 236.261719 C 323.988281 236.261719 247.246094 313.003906 247.246094 407.667969 C 247.246094 502.335938 323.988281 579.078125 418.652344 579.078125 C 513.320312 579.078125 590.0625 502.335938 590.0625 407.667969 C 590.0625 313.003906 513.320312 236.261719 418.652344 236.261719 Z M 418.652344 236.261719 "
         clip-rule="nonzero"
         id="path2" />
    </clipPath>
    <clipPath
       id="b011087e12">
      <path
         d="M 272.125 296.917969 L 565.375 296.917969 L 565.375 486.667969 L 272.125 486.667969 Z M 272.125 296.917969 "
         clip-rule="nonzero"
         id="path3" />
    </clipPath>
    <clipPath
       id="debc3ad3f5">
      <path
         d="M 482.414062 207.695312 L 502.546875 207.695312 L 502.546875 228.136719 L 482.414062 228.136719 Z M 482.414062 207.695312 "
         clip-rule="nonzero"
         id="path4" />
    </clipPath>
    <clipPath
       id="15ae40d52d">
      <path
         d="M 481.546875 225 L 489 225 L 489 228.691406 L 481.546875 228.691406 Z M 481.546875 225 "
         clip-rule="nonzero"
         id="path5" />
    </clipPath>
    <clipPath
       id="a4a4b80a98">
      <path
         d="M 603.394531 371.507812 L 642.960938 371.507812 L 642.960938 411.242188 L 603.394531 411.242188 Z M 603.394531 371.507812 "
         clip-rule="nonzero"
         id="path6" />
    </clipPath>
    <clipPath
       id="5b8ae6333b">
      <path
         d="M 601.710938 405 L 615 405 L 615 411.996094 L 601.710938 411.996094 Z M 601.710938 405 "
         clip-rule="nonzero"
         id="path7" />
    </clipPath>
  </defs>
  <g
     clip-path="url(#01950dfc4b)"
     id="g9"
     transform="matrix(2.0260309,0,0,2.0260309,-496.82326,-364.59736)">
    <g
       clip-path="url(#d987b3e604)"
       id="g8">
      <path
         fill="#eaeef9"
         d="M 247.24609,236.26172 H 590.0625 v 342.8164 H 247.24609 Z m 0,0"
         fill-opacity="1"
         fill-rule="nonzero"
         id="path8" />
    </g>
  </g>
  <path
     fill="#dde1eb"
     d="m 523.33861,613.41364 c 64.00995,0 115.8716,-52.62141 115.8716,-117.57311 0,-51.89331 -33.10501,-95.9278 -79.06272,-111.51875 1.20297,-6.74288 1.8203,-13.67571 1.8203,-20.78264 0,-64.9517 -51.86957,-117.5652 -115.87161,-117.5652 -50.99898,0 -94.28952,33.43743 -109.76964,79.89369 -13.42242,-6.89327 -28.57812,-10.77121 -44.61225,-10.77121 -42.31721,0 -78.42956,26.93988 -92.58012,64.87255 -6.42641,-1.12381 -13.02677,-1.74109 -19.76971,-1.74109 -63.96234,0 -115.863526,52.66096 -115.863526,117.61265 0,64.9517 51.885406,117.57311 115.863526,117.57311 z m 0,0"
     fill-opacity="1"
     fill-rule="evenodd"
     id="path9"
     style="stroke-width:2.02605" />
  <path
     fill="#f5f7f9"
     d="m 523.33861,613.41364 c 64.00995,0 115.8716,-52.62141 115.8716,-117.57311 0,-51.89331 -33.10501,-95.9278 -79.06272,-111.51875 1.20297,-6.74288 1.8203,-13.67571 1.8203,-20.78264 0,-22.5475 -6.26804,-43.62299 -17.11836,-61.53278 -21.64532,-4.27366 -39.38099,-6.78247 -50.1918,-6.78247 -57.52023,0 -94.32118,33.44536 -109.80142,79.8937 -13.38278,-6.85368 -28.54634,-10.73164 -44.61219,-10.73164 -42.32498,0 -78.41367,26.94779 -92.54841,64.84091 -6.45801,-1.13172 -13.05048,-1.70154 -19.76179,-1.70154 -64.00994,0 -115.87147,52.65305 -115.87147,117.56517 0,19.8092 4.81973,38.44711 13.30379,54.79779 16.12903,8.63439 34.48983,13.52536 53.99832,13.52536 z m 0,0"
     fill-opacity="1"
     fill-rule="evenodd"
     id="path10"
     style="stroke-width:2.02605" />
  <path
     fill="#f5f7f9"
     d="m 227.34035,409.28311 h 297.2962 v 151.22421 h -297.2962 z m 0,0"
     fill-opacity="1"
     fill-rule="evenodd"
     id="path11"
     style="stroke-width:2.02605" />
  <path
     fill="#edf8fe"
     d="M 253.13268,409.28311 H 524.64443 V 536.4561 H 253.13268 Z m 0,0"
     fill-opacity="1"
     fill-rule="evenodd"
     id="path12"
     style="stroke-width:2.02605" />
  <g
     clip-path="url(#b011087e12)"
     id="g13"
     transform="matrix(2.0260309,0,0,2.0260309,-496.82326,-364.59736)">
    <path
       fill="#2a9bff"
       d="m 503.52734,478.30078 c 29.375,0 52.77344,-24.18359 52.77344,-53.60937 0,-23.09375 -14.51953,-43.58204 -36.01172,-50.8711 -2.07812,-0.71094 -3.29687,-2.82812 -2.91797,-4.9375 h -0.0195 c 5.72656,-32.63281 -18.76172,-63.11328 -51.94531,-63.11328 -22.96484,0 -42.88672,14.98438 -50.00781,36.41016 -0.83985,2.55859 -3.79688,3.75781 -6.17578,2.54297 -23.52344,-12.02735 -52.22657,-0.73047 -61.57422,24.30468 -0.75,2.02344 -2.84766,3.17188 -4.88672,2.8125 v 0.0156 c -32.41797,-5.65625 -61.76953,19.67187 -61.76953,52.83984 0,29.42578 23.39453,53.61328 52.76953,53.61328 h 169.76562 z m -84.8789,93.22266 c -3.38282,0 -5.08203,4.11328 -2.70313,6.49609 2.40235,2.39844 6.5,0.69922 6.5,-2.68359 0,-2.11719 -1.70703,-3.8125 -3.79687,-3.8125 z m -8.95313,-5.14063 c 7.94922,-7.95312 21.58985,-2.27344 21.58985,8.94531 0,11.22266 -13.64063,16.89844 -21.58985,8.94922 -4.9375,-4.93359 -4.9375,-12.95312 0,-17.89453 z m 56.27344,5.14063 c -3.40234,0 -5.08203,4.11328 -2.70313,6.49609 2.40235,2.39844 6.5,0.69922 6.5,-2.68359 0,-2.11719 -1.69921,-3.8125 -3.79687,-3.8125 z m -8.94531,-5.14063 c 7.94922,-7.95312 21.58984,-2.27344 21.58984,8.94531 0,11.22266 -13.64062,16.89844 -21.58984,8.94922 -4.9375,-4.93359 -4.9375,-12.95312 0,-17.89453 z m 55.88281,5.14063 c -3.38672,0 -5.08203,4.11328 -2.68359,6.49609 2.3789,2.39844 6.49609,0.69922 6.49609,-2.68359 0,-2.11719 -1.70313,-3.8125 -3.8125,-3.8125 z m -8.93359,-5.14063 c 7.94921,-7.95312 21.58593,-2.27344 21.58593,8.94531 0,11.22266 -13.63672,16.89844 -21.58593,8.94922 -4.94141,-4.93359 -4.94141,-12.95312 0,-17.89453 z m -131.5586,-3.70312 c 11.22266,0 16.87891,13.64062 8.92969,21.60156 -7.94922,7.95312 -21.58984,2.27344 -21.58984,-8.94531 0.008,-6.98438 5.65625,-12.65625 12.66015,-12.65625 z m 2.6836,9.95312 c -2.37891,-2.3789 -6.4961,-0.68359 -6.4961,2.70313 0,3.38281 4.11719,5.08203 6.4961,2.68359 1.48437,-1.48437 1.48437,-3.88281 0,-5.38672 z m -49.92188,-9.95312 c 11.23828,0 16.89844,13.64062 8.94922,21.60156 -7.95313,7.95312 -21.58984,2.27344 -21.58984,-8.94531 0.004,-6.98438 5.66406,-12.65625 12.64062,-12.65625 z m 2.70313,9.95312 c -2.39844,-2.3789 -6.51563,-0.68359 -6.51563,2.70313 0,3.38281 4.11719,5.08203 6.51563,2.68359 1.48437,-1.48437 1.48437,-3.88281 0,-5.38672 z m 6.75,-80.63672 c 0,-2.44922 1.96875,-4.41797 4.42187,-4.41797 2.43359,0 4.41797,1.96875 4.41797,4.41797 v 20.35157 c 0,2.4375 -1.98828,4.42187 -4.41797,4.42187 h -9.80859 v 40.84766 c 0,2.42968 -1.98828,4.42187 -4.41797,4.42187 -2.45313,0 -4.42188,-1.99219 -4.42188,-4.42187 v -45.26953 c 0,-2.44922 1.96875,-4.41797 4.42188,-4.41797 h 9.80469 z m 79.59375,0.0703 c 0,-2.44922 1.96875,-4.42188 4.42187,-4.42188 2.4375,0 4.41797,1.97266 4.41797,4.42188 v 65.54296 c 0,2.4336 -1.98828,4.42188 -4.41797,4.42188 -2.45312,0 -4.42187,-1.98828 -4.42187,-4.42188 z m 35.1914,-0.0703 c 0,-2.44922 1.96875,-4.41797 4.41797,-4.41797 2.4375,0 4.42188,1.96875 4.42188,4.41797 v 15.9336 h 7.10546 c 2.4375,0 4.41797,1.96875 4.41797,4.41797 v 45.26953 c 0,2.42968 -1.98828,4.42187 -4.41797,4.42187 -2.43359,0 -4.42187,-1.99219 -4.42187,-4.42187 v -40.84766 h -7.10547 c -2.44922,0 -4.41797,-1.98828 -4.41797,-4.42187 z m 44.41016,0 c 0,-2.44922 1.96875,-4.41797 4.41797,-4.41797 2.4375,0 4.40234,1.96875 4.40234,4.41797 v 15.9336 h 9.82422 c 2.4375,0 4.42187,1.96875 4.42187,4.41797 v 45.26953 c 0,2.42968 -1.98828,4.42187 -4.42187,4.42187 -2.44922,0 -4.41797,-1.99219 -4.41797,-4.42187 v -40.84766 h -9.80859 c -2.44922,0 -4.41797,-1.98828 -4.41797,-4.42187 z m -114.78516,0 c 0,-2.44922 1.96875,-4.41797 4.41797,-4.41797 2.4375,0 4.42188,1.96875 4.42188,4.41797 v 20.35157 c 0,2.4375 -1.98829,4.42187 -4.42188,4.42187 h -7.12109 v 40.84766 c 0,2.42968 -1.96875,4.42187 -4.42188,4.42187 -2.4375,0 -4.41797,-1.99219 -4.41797,-4.42187 v -45.26953 c 0,-2.44922 1.98828,-4.41797 4.41797,-4.41797 h 7.125 z m 24.34375,-91.10937 c 1.53906,-3.38672 6.08594,-3.51172 7.8711,-0.42969 5.14062,8.76953 11.34765,25.98828 15.75,36.06641 0.96484,2.23437 -0.0508,4.83203 -2.27344,5.79687 -2.23438,0.98438 -4.83203,-0.0391 -5.79688,-2.27344 l -5.12109,-11.70703 h -12.78125 l -5.10156,11.70703 c -0.98438,2.23438 -3.58203,3.25782 -5.81641,2.27344 -2.22266,-0.96484 -3.23828,-3.5625 -2.27344,-5.79687 z m 4.03906,12.77734 -2.54296,5.83594 h 5.08203 z m 57.8711,-14.04687 c 0,-2.45313 1.97265,-4.42188 4.42187,-4.42188 2.4375,0 4.41797,1.96875 4.41797,4.42188 v 39.34375 c 0,2.44922 -1.98828,4.42187 -4.41797,4.42187 -2.44922,0 -4.42187,-1.97265 -4.42187,-4.42187 z M 438.25,438.96094 c 0,2.44922 -1.96875,4.42187 -4.42188,4.42187 -2.4375,0 -4.41796,-1.97265 -4.41796,-4.42187 v -36.54688 c 0,-1.45312 0.69921,-2.74219 1.78515,-3.54297 13.44531,-10.39843 31.62891,3.00391 26.45703,18.11719 -2.66406,7.80469 -11.02343,13.35547 -19.40234,11.5625 z m 0,-34.17188 v 14.39063 c 7.17969,3.64843 15.44531,-6 9.21875,-12.65625 -2.36719,-2.53907 -6.125,-3.19922 -9.21875,-1.73438 z m -80.82031,-27.24219 h 146.73828 c 2.4375,0 4.41797,1.96875 4.41797,4.42188 v 74.64062 c 0,2.44922 -1.98828,4.42188 -4.41797,4.42188 H 357.42969 c -2.44922,0 -4.41797,-1.97266 -4.41797,-4.42188 v -74.64062 c 0,-2.45313 1.96875,-4.42188 4.41797,-4.42188 z m 142.3164,8.83985 H 361.85156 v 65.79687 h 137.89453 z m 47.36328,82.42969 c -11.14843,11.32812 -26.5625,18.33203 -43.58203,18.33203 H 333.75 c -34.20313,0 -61.60938,-28.19532 -61.60938,-62.45313 0,-37.07031 31.88282,-66.3125 68.60547,-62.05859 11.72657,-25.98828 41.5625,-38.41406 68.01953,-27.80078 9.5625,-22.64453 31.64844,-37.89453 56.63672,-37.89453 37.07032,0 65.49219,32.86328 61.17969,69.82812 23.21875,9.5 38.55859,32.37891 38.55859,57.92188 -0.008,17.21875 -6.89843,32.82812 -18.03125,44.125 z m 0,0"
       fill-opacity="1"
       fill-rule="nonzero"
       id="path13" />
  </g>
  <g
     clip-path="url(#debc3ad3f5)"
     id="g14"
     transform="matrix(2.0260309,0,0,2.0260309,-496.82326,-364.59736)">
    <path
       fill="#2a9bff"
       d="m 502.44922,217.33203 -7.08594,-1.63672 c -0.22266,-0.0508 -0.39844,-0.22265 -0.44922,-0.44531 l -1.63672,-7.08984 c -0.14062,-0.61719 -1.02343,-0.61719 -1.16406,0 l -1.63672,7.08984 c -0.0508,0.22266 -0.22656,0.39453 -0.44922,0.44531 l -7.08984,1.63672 c -0.61719,0.14453 -0.61719,1.02344 0,1.16797 l 7.08984,1.63281 c 0.22266,0.0547 0.39844,0.22656 0.44922,0.44922 l 1.63672,7.08984 c 0.14063,0.61719 1.02344,0.61719 1.16406,0 l 1.63672,-7.08984 c 0.0508,-0.22266 0.22656,-0.39453 0.44922,-0.44922 L 502.44922,218.5 c 0.61719,-0.14453 0.61719,-1.02344 0,-1.16797"
       fill-opacity="1"
       fill-rule="nonzero"
       id="path14" />
  </g>
  <g
     clip-path="url(#15ae40d52d)"
     id="g15"
     transform="matrix(2.0260309,0,0,2.0260309,-496.82326,-364.59736)">
    <path
       fill="#2a9bff"
       d="m 487.82812,232.69141 -5.4414,-1.25391 c -0.17188,-0.0391 -0.30469,-0.17578 -0.34375,-0.34375 l -1.25781,-5.44531 c -0.10938,-0.47266 -0.78516,-0.47266 -0.89454,0 l -1.2539,5.44531 c -0.043,0.16797 -0.17578,0.30469 -0.34766,0.34375 l -5.4414,1.25391 c -0.47266,0.10937 -0.47266,0.78515 0,0.89453 l 5.4414,1.25781 c 0.17188,0.0391 0.30469,0.17187 0.34766,0.34375 l 1.2539,5.44141 c 0.10938,0.47656 0.78516,0.47656 0.89454,0 l 1.25781,-5.44141 c 0.0391,-0.17188 0.17187,-0.30469 0.34375,-0.34375 l 5.4414,-1.25781 c 0.47266,-0.10938 0.47266,-0.78516 0,-0.89453"
       fill-opacity="1"
       fill-rule="nonzero"
       id="path15" />
  </g>
  <g
     clip-path="url(#a4a4b80a98)"
     id="g16"
     transform="matrix(2.0260309,0,0,2.0260309,-496.82326,-364.59736)">
    <path
       fill="#2a9bff"
       d="m 642.34766,390.23828 -13.78125,-3.17969 c -0.4336,-0.0976 -0.76954,-0.4375 -0.8711,-0.87109 l -3.17969,-13.77734 c -0.27734,-1.20313 -1.98828,-1.20313 -2.26562,0 l -3.17969,13.77734 c -0.10156,0.43359 -0.4375,0.77344 -0.87109,0.87109 l -13.78125,3.17969 c -1.19922,0.27734 -1.19922,1.99219 0,2.26953 l 13.78125,3.17969 c 0.43359,0.0977 0.76953,0.4375 0.87109,0.87109 l 3.17969,13.77735 c 0.27734,1.20312 1.98828,1.20312 2.26562,0 l 3.17969,-13.77735 c 0.10156,-0.43359 0.4375,-0.77343 0.8711,-0.87109 l 13.78125,-3.17969 c 1.19921,-0.27734 1.19921,-1.99219 0,-2.26953"
       fill-opacity="1"
       fill-rule="nonzero"
       id="path16" />
  </g>
  <g
     clip-path="url(#5b8ae6333b)"
     id="g17"
     transform="matrix(2.0260309,0,0,2.0260309,-496.82326,-364.59736)">
    <path
       fill="#2a9bff"
       d="m 613.92187,420.09766 -10.57812,-2.44141 c -0.33203,-0.0742 -0.59375,-0.33594 -0.66797,-0.66797 l -2.44141,-10.57812 c -0.21484,-0.92579 -1.52734,-0.92579 -1.74218,0 l -2.44141,10.57812 c -0.0781,0.33203 -0.33594,0.59375 -0.66797,0.66797 l -10.57812,2.44141 c -0.92578,0.21484 -0.92578,1.52734 0,1.74218 l 10.57812,2.44141 c 0.33203,0.0742 0.58985,0.33594 0.66797,0.66797 l 2.44141,10.57812 c 0.21484,0.92188 1.52734,0.92188 1.74218,0 l 2.44141,-10.57812 c 0.0742,-0.33203 0.33594,-0.59375 0.66797,-0.66797 l 10.57812,-2.44141 c 0.92188,-0.21484 0.92188,-1.52734 0,-1.74218"
       fill-opacity="1"
       fill-rule="nonzero"
       id="path17" />
  </g>
</svg>
