<svg
	xmlns="http://www.w3.org/2000/svg" version="1.1"
	xmlns:xlink="http://www.w3.org/1999/xlink"
	xmlns:svgjs="http://svgjs.com/svgjs" width="512" height="512" x="0" y="0" viewBox="0 0 60 60" style="enable-background:new 0 0 512 512" xml:space="preserve" class="">
	<g>
		<g
			xmlns="http://www.w3.org/2000/svg" id="Page-1" fill="none" fill-rule="evenodd">
			<g id="012---media-grid" fill-rule="nonzero">
				<rect id="Rectangle-path" fill="#a4c2f7" height="26" rx="6" width="26" x="1" y="1" data-original="#a4c2f7" class=""></rect>
				<path id="Shape" d="m21 1h-3c3.3137085 0 6 2.6862915 6 6v14c0 3.3137085-2.6862915 6-6 6h3c3.3137085 0 6-2.6862915 6-6v-14c0-3.3137085-2.6862915-6-6-6z" fill="#7facfa" data-original="#7facfa"></path>
				<rect id="Rectangle-path" fill="#e8edfc" height="26" rx="6" width="26" x="33" y="1" data-original="#e8edfc"></rect>
				<path id="Shape" d="m53 1h-3c3.3137085 0 6 2.6862915 6 6v14c0 3.3137085-2.6862915 6-6 6h3c3.3137085 0 6-2.6862915 6-6v-14c0-3.3137085-2.6862915-6-6-6z" fill="#cad9fc" data-original="#cad9fc"></path>
				<rect id="Rectangle-path" fill="#e8edfc" height="26" rx="6" width="26" x="1" y="33" data-original="#e8edfc"></rect>
				<path id="Shape" d="m21 33h-3c3.3137085 0 6 2.6862915 6 6v14c0 3.3137085-2.6862915 6-6 6h3c3.3137085 0 6-2.6862915 6-6v-14c0-3.3137085-2.6862915-6-6-6z" fill="#cad9fc" data-original="#cad9fc"></path>
				<rect id="Rectangle-path" fill="#a4c2f7" height="26" rx="6" width="26" x="33" y="33" data-original="#a4c2f7" class=""></rect>
				<path id="Shape" d="m53 33h-3c3.3137085 0 6 2.6862915 6 6v14c0 3.3137085-2.6862915 6-6 6h3c3.3137085 0 6-2.6862915 6-6v-14c0-3.3137085-2.6862915-6-6-6z" fill="#7facfa" data-original="#7facfa"></path>
				<path id="Shape" d="m7 27h3c-3.3137085 0-6-2.6862915-6-6v-14c0-3.3137085 2.6862915-6 6-6h-3c-3.3137085 0-6 2.6862915-6 6v14c0 3.3137085 2.6862915 6 6 6z" fill="#ffffff" data-original="#ffffff" class=""></path>
				<path id="Shape" d="m7 59h3c-3.3137085 0-6-2.6862915-6-6v-14c0-3.3137085 2.6862915-6 6-6h-3c-3.3137085 0-6 2.6862915-6 6v14c0 3.3137085 2.6862915 6 6 6z" fill="#ffffff" data-original="#ffffff" class=""></path>
				<path id="Rectangle-path" d="m0 13h2v8h-2z" fill="#ffffff" data-original="#ffffff" class=""></path>
				<g fill="#428dff">
					<circle id="Oval" cx="1" cy="17" r="1" fill="#428dff" data-original="#428dff" class=""></circle>
					<path id="Shape" d="m7 28h14c3.8641657-.0044086 6.9955914-3.1358343 7-7v-14c-.0044086-3.86416566-3.1358343-6.99559136-7-7h-14c-3.86416566.00440864-6.99559136 3.13583434-7 7v6c0 .5522847.44771525 1 1 1s1-.4477153 1-1v-6c.00330612-2.76005315 2.23994685-4.99669388 5-5h14c2.7600532.00330612 4.9966939 2.23994685 5 5v14c-.0033061 2.7600532-2.2399468 4.9966939-5 5h-14c-2.76005315-.0033061-4.99669388-2.2399468-5-5 0-.5522847-.44771525-1-1-1s-1 .4477153-1 1c.00440864 3.8641657 3.13583434 6.9955914 7 7z" fill="#428dff" data-original="#428dff" class=""></path>
					<path id="Shape" d="m6 9v-2c0-.55228475.44771525-1 1-1h4c.5522847 0 1-.44771525 1-1s-.4477153-1-1-1h-4c-1.65685425 0-3 1.34314575-3 3v2c0 .55228475.44771525 1 1 1s1-.44771525 1-1z" fill="#428dff" data-original="#428dff" class=""></path>
					<path id="Shape" d="m17 6c.5522847 0 1-.44771525 1-1s-.4477153-1-1-1h-2c-.5522847 0-1 .44771525-1 1s.4477153 1 1 1z" fill="#428dff" data-original="#428dff" class=""></path>
					<path id="Shape" d="m22 24c.5522847 0 1-.4477153 1-1s-.4477153-1-1-1h-2c-.5522847 0-1 .4477153-1 1s.4477153 1 1 1z" fill="#428dff" data-original="#428dff" class=""></path>
					<path id="Shape" d="m53 0h-14c-3.8641657.00440864-6.9955914 3.13583434-7 7v14c.0044086 3.8641657 3.1358343 6.9955914 7 7h14c3.8641657-.0044086 6.9955914-3.1358343 7-7v-14c-.0044086-3.86416566-3.1358343-6.99559136-7-7zm5 21c-.0033061 2.7600532-2.2399468 4.9966939-5 5h-14c-2.7600532-.0033061-4.9966939-2.2399468-5-5v-14c.0033061-2.76005315 2.2399468-4.99669388 5-5h14c2.7600532.00330612 4.9966939 2.23994685 5 5z" fill="#428dff" data-original="#428dff" class=""></path>
					<path id="Shape" d="m54 22h-2c-.5522847 0-1 .4477153-1 1s.4477153 1 1 1h2c.5522847 0 1-.4477153 1-1s-.4477153-1-1-1z" fill="#428dff" data-original="#428dff" class=""></path>
					<path id="Shape" d="m7 60h14c3.8641657-.0044086 6.9955914-3.1358343 7-7v-14c-.0044086-3.8641657-3.1358343-6.9955914-7-7h-14c-3.86416566.0044086-6.99559136 3.1358343-7 7v14c.00440864 3.8641657 3.13583434 6.9955914 7 7zm-5-21c.00330612-2.7600532 2.23994685-4.9966939 5-5h14c2.7600532.0033061 4.9966939 2.2399468 5 5v14c-.0033061 2.7600532-2.2399468 4.9966939-5 5h-14c-2.76005315-.0033061-4.99669388-2.2399468-5-5z" fill="#428dff" data-original="#428dff" class=""></path>
					<path id="Shape" d="m5 42c.55228475 0 1-.4477153 1-1v-2c0-.5522847.44771525-1 1-1h4c.5522847 0 1-.4477153 1-1s-.4477153-1-1-1h-4c-1.65685425 0-3 1.3431458-3 3v2c0 .5522847.44771525 1 1 1z" fill="#428dff" data-original="#428dff" class=""></path>
					<path id="Shape" d="m15 38h2c.5522847 0 1-.4477153 1-1s-.4477153-1-1-1h-2c-.5522847 0-1 .4477153-1 1s.4477153 1 1 1z" fill="#428dff" data-original="#428dff" class=""></path>
					<path id="Shape" d="m43 4h-4c-1.6568542 0-3 1.34314575-3 3v2c0 .55228475.4477153 1 1 1s1-.44771525 1-1v-2c0-.55228475.4477153-1 1-1h4c.5522847 0 1-.44771525 1-1s-.4477153-1-1-1z" fill="#428dff" data-original="#428dff" class=""></path>
					<path id="Shape" d="m49 4h-2c-.5522847 0-1 .44771525-1 1s.4477153 1 1 1h2c.5522847 0 1-.44771525 1-1s-.4477153-1-1-1z" fill="#428dff" data-original="#428dff" class=""></path>
					<path id="Shape" d="m43 36h-4c-1.6568542 0-3 1.3431458-3 3v2c0 .5522847.4477153 1 1 1s1-.4477153 1-1v-2c0-.5522847.4477153-1 1-1h4c.5522847 0 1-.4477153 1-1s-.4477153-1-1-1z" fill="#428dff" data-original="#428dff" class=""></path>
					<path id="Shape" d="m49 36h-2c-.5522847 0-1 .4477153-1 1s.4477153 1 1 1h2c.5522847 0 1-.4477153 1-1s-.4477153-1-1-1z" fill="#428dff" data-original="#428dff" class=""></path>
					<path id="Shape" d="m20 56h2c.5522847 0 1-.4477153 1-1s-.4477153-1-1-1h-2c-.5522847 0-1 .4477153-1 1s.4477153 1 1 1z" fill="#428dff" data-original="#428dff" class=""></path>
					<path id="Shape" d="m53 32h-14c-3.8641657.0044086-6.9955914 3.1358343-7 7v14c.0044086 3.8641657 3.1358343 6.9955914 7 7h14c3.8641657-.0044086 6.9955914-3.1358343 7-7v-14c-.0044086-3.8641657-3.1358343-6.9955914-7-7zm5 21c-.0033061 2.7600532-2.2399468 4.9966939-5 5h-14c-2.7600532-.0033061-4.9966939-2.2399468-5-5v-14c.0033061-2.7600532 2.2399468-4.9966939 5-5h14c2.7600532.0033061 4.9966939 2.2399468 5 5z" fill="#428dff" data-original="#428dff" class=""></path>
					<path id="Shape" d="m54 54h-2c-.5522847 0-1 .4477153-1 1s.4477153 1 1 1h2c.5522847 0 1-.4477153 1-1s-.4477153-1-1-1z" fill="#428dff" data-original="#428dff" class=""></path>
				</g>
			</g>
		</g>
	</g>
</svg>
