<?xml version="1.0" encoding="UTF-8"?>
<svg width="256px" height="326px" viewBox="0 0 256 326" version="1.1" xmlns="http://www.w3.org/2000/svg" xmlns:xlink="http://www.w3.org/1999/xlink" preserveAspectRatio="xMidYMid">
    <defs>
        <path d="M244.828364,64.4290247 L139.050994,3.38839172 C132.188872,-0.58635615 123.724702,-0.58635615 116.86258,3.38839172 L11.0672138,64.4290247 C4.21670092,68.4140969 5.68434189e-14,75.7408852 5.68434189e-14,83.6661817 L5.68434189e-14,205.837425 C0.00604377806,213.747388 4.22254667,221.055993 11.0672138,225.020596 L63.99189,255.612894 L63.99189,317.985192 C64.0010519,320.359385 65.2737404,322.549075 67.3321592,323.732202 C69.390578,324.915329 71.9232588,324.91287 73.9793756,323.725747 L244.936337,225.074582 C251.789146,221.118113 256.008624,213.804351 256.003556,205.891411 L256.003556,83.6481863 C255.962209,75.7100959 251.7068,68.3916143 244.828364,64.4290247 L244.828364,64.4290247 Z" id="path-1"></path>
    </defs>
    <g>
        <mask id="mask-2" fill="white">
            <use xlink:href="#path-1"></use>
        </mask>
        <polygon fill="#EF6C00" mask="url(#mask-2)" points="255.895578 70.8714028 127.98378 144.742806 0 70.8714028 0 218.614208 63.99189 255.522917 63.99189 329.412315 255.895578 218.614208"></polygon>
        <polygon fill="#FF9800" mask="url(#mask-2)" points="127.98378 144.742806 2.84217094e-14 70.8714028 127.98378 -3 255.895578 70.8714028"></polygon>
        <polygon fill="#FF9800" mask="url(#mask-2)" points="125.716351 142.493372 0.809796133 70.3855251 2.84217094e-14 70.8714028 127.98378 144.742806 255.895578 70.8714028 252.890335 69.0898513"></polygon>
        <polygon fill="#FF9800" mask="url(#mask-2)" points="127.98378 145.660575 127.98378 144.742806 0.809796133 71.3032941 2.84217094e-14 71.7891718"></polygon>
    </g>
</svg>