<svg xmlns="http://www.w3.org/2000/svg"
  xmlns:xlink="http://www.w3.org/1999/xlink" version="1.1" id="Layer_1" x="0px" y="0px" viewBox="0 0 481 87" style="enable-background:new 0 0 481 87;" xml:space="preserve">
  <style type="text/css">
	.st0{fill:#FFFFFF;}
	.st1{fill:#4DC6E7;}
	.st2{fill:#1E1C39;}
  </style>
  <g>
    <g>
      <circle class="st0" cx="43.51" cy="43.47" r="40.79"/>
      <path class="st1" d="M43.48,42.25c4.69,0,8.5-3.81,8.5-8.5c0-4.69-3.81-8.5-8.5-8.5c-4.69,0-8.5,3.81-8.5,8.5    C34.98,38.44,38.79,42.25,43.48,42.25"/>
      <path class="st1" d="M60.93,66.49h-34.9c-0.61,0-1.09-0.5-1.06-1.11c0.13-2.57,0.71-5.07,1.68-7.41c0.17-0.4,0.56-0.66,0.99-0.66    h21.09c2.96,0,5.37-2.4,5.37-5.37v-0.53c0-0.75,0.91-1.13,1.44-0.6c1.89,1.9,3.41,4.1,4.49,6.49c1.15,2.53,1.83,5.26,1.97,8.08    C62.03,65.99,61.54,66.49,60.93,66.49 M43.48,16.94c9.27,0,16.82,7.55,16.82,16.82c0,9.28-7.55,16.82-16.82,16.82    c-9.28,0-16.82-7.55-16.82-16.82C26.66,24.48,34.2,16.94,43.48,16.94 M43.48,0.02C19.47,0.02,0,19.49,0,43.5    c0,24.01,19.47,43.48,43.48,43.48c24.01,0,43.48-19.47,43.48-43.48C86.96,19.49,67.5,0.02,43.48,0.02"/>
    </g>
    <g>
      <path class="st2" d="M110,65.93V17.91c0-0.57,0.36-0.93,0.93-0.93h30.64c0.57,0,0.93,0.36,0.93,0.93v4.34    c0,0.57-0.29,0.93-0.93,0.93h-25.29v16.39h22.09c0.57,0,0.93,0.36,0.93,0.93v4.2c0,0.5-0.36,0.93-0.93,0.93h-22.09v20.31    c0,0.57-0.36,0.93-0.93,0.93h-4.42C110.28,66.86,110,66.5,110,65.93"/>
      <path class="st2" d="M153.06,31.23c0.64,0,1,0.36,1,0.93V49.9c0,6.91,2.85,11.68,9.4,11.68c6.06,0,10.4-5.7,10.4-11.47V32.16    c0-0.57,0.36-0.93,0.93-0.93h4.42c0.57,0,0.93,0.36,0.93,0.93v33.77c0,0.64-0.36,0.93-0.93,0.93h-4.42    c-0.57,0-0.93-0.29-0.93-0.93v-6.2c-1.85,3.56-6.13,7.84-12.33,7.84c-9.33,0-13.75-6.48-13.75-16.6V32.16    c0-0.57,0.36-0.93,0.93-0.93H153.06L153.06,31.23z"/>
      <path class="st2" d="M190.06,65.93V17.91c0-0.64,0.29-0.93,0.93-0.93h4.34c0.64,0,0.93,0.29,0.93,0.93v48.02    c0,0.64-0.28,0.93-0.93,0.93h-4.34C190.35,66.86,190.06,66.57,190.06,65.93"/>
      <path class="st2" d="M206.19,65.93V17.91c0-0.64,0.29-0.93,0.93-0.93h4.34c0.64,0,0.93,0.29,0.93,0.93v48.02    c0,0.64-0.28,0.93-0.93,0.93h-4.34C206.47,66.86,206.19,66.57,206.19,65.93"/>
      <path class="st2" d="M281.61,57.59c4.56,0,8.12-3.7,8.12-8.55c0-4.84-3.56-8.55-8.12-8.55c-4.63,0-8.12,3.7-8.12,8.55    C273.49,53.89,276.98,57.59,281.61,57.59 M281.61,30.52c10.26,0,18.31,8.26,18.31,18.52c0,10.26-8.05,18.52-18.31,18.52    c-10.26,0-18.38-8.26-18.38-18.52C263.23,38.78,271.35,30.52,281.61,30.52"/>
      <path class="st2" d="M331.18,66.86c-0.86,0-1.28-0.5-1.28-1.21V48.62c0-4.63-2.07-8.12-6.7-8.12c-4.06,0-7.19,3.7-7.19,7.34v17.81    c0,0.71-0.43,1.21-1.21,1.21h-8.05c-0.78,0-1.21-0.5-1.21-1.21v-33.2c0-0.78,0.43-1.21,1.21-1.21h8.05c0.78,0,1.21,0.43,1.21,1.21    v3.99c2.14-2.92,5.77-5.91,10.97-5.91c8.62,0,13.39,5.84,13.39,16.03v19.09c0,0.71-0.43,1.21-1.21,1.21H331.18L331.18,66.86z"/>
      <path class="st2" d="M371.1,65.07c-3.35,1.92-6.27,2.49-9.41,2.49c-7.55,0-11.83-4.27-11.83-11.83V40.78h-3.21    c-0.71,0-1.21-0.36-1.21-1.21v-7.12c0-0.86,0.5-1.21,1.21-1.21h3.21V21.9c0-0.71,0.36-1.21,1.21-1.21h7.98    c0.93,0,1.28,0.57,1.28,1.21v9.33h8.12c0.78,0,1.28,0.5,1.28,1.21v7.12c0,0.71-0.43,1.21-1.21,1.21h-8.2v13.54    c0,2.42,1.42,3.28,3.28,3.28c1.42,0,2.42-0.36,3.63-0.93c0.64-0.36,1-0.21,1.28,0.36l3.06,6.48    C371.81,64.15,371.81,64.65,371.1,65.07"/>
      <path class="st2" d="M400.14,51.47c-7.41,0-12.97,0.93-12.97,5.2c0,2.71,3.42,3.13,5.77,3.13c4.56,0,8.19-2.51,8.19-5.91v-2.41    H400.14L400.14,51.47z M393.38,30.52c14.68,0,18.1,7.77,18.1,17.81v17.24c0,0.86-0.43,1.28-1.28,1.28h-7.41    c-0.93,0-1.28-0.5-1.28-1.28v-2.28c-3.21,3.14-9.12,4.2-12.97,4.27c-5.77,0.07-12.4-2.42-12.33-10.54    c0.14-11.26,15.6-11.61,22.44-11.61l2.28,0.07v-0.36c0-2.14-1.14-5.56-8.41-5.56c-4.7,0-10.12,1.78-10.12,1.78    c-0.64,0.21-1.35,0.07-1.64-0.71l-2.07-5.34c-0.29-0.86-0.29-1.5,0.57-1.85C379.27,33.44,385.18,30.52,393.38,30.52"/>
      <path class="st2" d="M445.98,64.36c-2.71,1.78-6.48,3.21-10.76,3.21c-10.26,0-18.38-8.27-18.38-18.52    c0-10.26,8.12-18.52,18.38-18.52c4.56,0,8.27,1.71,10.69,3.35c0.64,0.36,0.78,1.14,0.36,1.71l-4.35,6.13    c-0.43,0.57-0.93,0.78-1.71,0.29c-2.07-1.28-3.85-1.5-4.99-1.5c-4.63,0-8.12,3.7-8.12,8.55c0,4.84,3.49,8.55,8.12,8.55    c1.85,0,3.63-0.5,5.2-1.43c0.64-0.28,1.07-0.28,1.57,0.36l4.34,6.13C446.83,63.44,446.62,63.94,445.98,64.36"/>
      <path class="st2" d="M476.38,65.07c-3.35,1.92-6.27,2.49-9.4,2.49c-7.55,0-11.83-4.27-11.83-11.83V40.78h-3.21    c-0.71,0-1.21-0.36-1.21-1.21v-7.12c0-0.86,0.5-1.21,1.21-1.21h3.21V21.9c0-0.71,0.36-1.21,1.21-1.21h7.98    c0.93,0,1.28,0.57,1.28,1.21v9.33h8.12c0.78,0,1.28,0.5,1.28,1.21v7.12c0,0.71-0.43,1.21-1.21,1.21h-8.2v13.54    c0,2.42,1.43,3.28,3.28,3.28c1.42,0,2.42-0.36,3.63-0.93c0.64-0.36,1-0.21,1.28,0.36l3.06,6.48    C477.09,64.15,477.09,64.65,476.38,65.07"/>
      <path class="st2" d="M246.61,57.2c-8.58,0-15.5-7.08-15.25-15.71c0.23-7.87,6.55-14.37,14.42-14.79c3.58-0.19,6.91,0.86,9.6,2.75    c0.75,0.53,1.77,0.41,2.37-0.28l4.59-5.24c0.69-0.79,0.55-1.99-0.28-2.62c-4.52-3.39-10.18-5.34-16.32-5.14    c-13.97,0.46-25.11,12.2-24.89,26.17c0.23,14.03,11.67,25.33,25.76,25.33c5.63,0,10.83-1.81,15.07-4.87    c0.85-0.61,1.01-1.81,0.33-2.62l-4.47-5.3c-0.59-0.7-1.61-0.84-2.37-0.32C252.73,56.23,249.78,57.2,246.61,57.2"/>
    </g>
  </g>
  <div xmlns="" id="divScriptsUsed" style="display: none"/>
  <script xmlns="" id="globalVarsDetection" src="chrome-extension://cmkdbmfndkfgebldhnkbfhlneefdaaip/js/wrs_env.js"/>
</svg>
