<svg id="SvgjsSvg1001" width="288" height="288" xmlns="http://www.w3.org/2000/svg" version="1.1" xmlns:xlink="http://www.w3.org/1999/xlink" xmlns:svgjs="http://svgjs.com/svgjs"><defs id="SvgjsDefs1002"></defs><g id="SvgjsG1008"><svg xmlns="http://www.w3.org/2000/svg" viewBox="0 0 512 512" width="288" height="288"><path d="M0 0 C22.82629822 18.60432583 36.18638006 43.81338104 39.17578125 73.08984375 C39.68099758 81.56317915 39.55679536 90.05718143 39.51635742 98.54150391 C39.51550947 101.05644216 39.51598957 103.57138115 39.51768494 106.08631897 C39.51836353 111.46358452 39.50996974 116.84070866 39.49297142 122.2179451 C39.46841215 129.99214106 39.46075902 137.76628445 39.45700745 145.54051499 C39.45046924 158.15887612 39.43058017 170.77717851 39.40209961 183.39550781 C39.37449046 195.64062205 39.35329061 207.88572023 39.34057617 220.13085938 C39.33939392 221.26629165 39.33939392 221.26629165 39.33818778 222.42466195 C39.33427218 226.2227286 39.33048117 230.02079536 39.32675207 233.8188622 C39.29573822 265.24257481 39.24047996 296.66617796 39.17578125 328.08984375 C16.40578125 328.08984375 -6.36421875 328.08984375 -29.82421875 328.08984375 C-29.82421875 293.76984375 -29.82421875 259.44984375 -29.82421875 224.08984375 C-51.93421875 224.08984375 -74.04421875 224.08984375 -96.82421875 224.08984375 C-96.82421875 258.40984375 -96.82421875 292.72984375 -96.82421875 328.08984375 C-119.26421875 328.08984375 -141.70421875 328.08984375 -164.82421875 328.08984375 C-164.91255181 295.14636727 -164.98635 262.20300657 -165.02848007 229.25944714 C-165.03348235 225.36209215 -165.03865969 221.46473742 -165.04394531 217.56738281 C-165.04499455 216.79155394 -165.0460438 216.01572508 -165.04712483 215.21638624 C-165.06448677 202.68667905 -165.09600099 190.15704596 -165.13282993 177.62738259 C-165.17035704 164.751939 -165.19247935 151.87653398 -165.20057273 139.00103796 C-165.20603623 131.06874398 -165.22323401 123.13665951 -165.25588462 115.20443009 C-165.27971079 109.10176747 -165.28200914 102.99926153 -165.27664948 96.89655876 C-165.27774251 94.40786774 -165.28559922 91.91916818 -165.30104065 89.43052483 C-165.49207716 57.03007896 -157.47479228 31.36126351 -134.63671875 7.52734375 C-98.71803262 -27.503243 -39.70544922 -30.97566888 0 0 Z M-90.390625 60.93359375 C-97.69994657 71.58120249 -97.23539343 83.88737656 -97.1171875 96.2265625 C-97.11158106 97.95961639 -97.10731593 99.69267509 -97.10432434 101.42573547 C-97.09295795 105.95162455 -97.06356305 110.47721739 -97.0302124 115.00299072 C-96.99388843 120.45218537 -96.98031122 125.90147995 -96.96285248 131.35076141 C-96.93391949 139.5973272 -96.87637573 147.84324508 -96.82421875 156.08984375 C-74.71421875 156.08984375 -52.60421875 156.08984375 -29.82421875 156.08984375 C-29.73687751 142.09083833 -29.73687751 142.09083833 -29.67773438 128.09179688 C-29.65984111 122.3772744 -29.63873425 116.66289693 -29.59790039 110.94848633 C-29.56516616 106.33840794 -29.54733619 101.72848518 -29.53958702 97.11829948 C-29.53406867 95.36453745 -29.52329293 93.61078338 -29.50702858 91.85708809 C-29.39204712 78.93873094 -30.17495575 68.41619696 -38.82421875 58.08984375 C-46.0956545 51.02381579 -53.18776702 48.03026457 -63.26171875 47.65234375 C-74.11412587 47.95555419 -83.33436724 52.62797364 -90.390625 60.93359375 Z " transform="translate(164.824 183.91)" fill="#732fff" class="svgShape color000000-0 selectable"></path><path d="M0 0 C22.77 0 45.54 0 69 0 C69 109.56 69 219.12 69 332 C46.23 332 23.46 332 0 332 C0 222.44 0 112.88 0 0 Z " transform="translate(233 180)" fill="#732fff" class="svgShape color000000-1 selectable"></path><path d="M0 0 C4.26713157 1.50134412 5.41558708 4.03170914 7.43359375 7.94921875 C7.90469574 8.84987312 7.90469574 8.84987312 8.38531494 9.76872253 C9.06042922 11.06189729 9.73043883 12.35774728 10.39584351 13.65594482 C12.16262692 17.10172374 13.96681432 20.52789659 15.765625 23.95703125 C16.30620796 24.99138306 16.30620796 24.99138306 16.85771179 26.04663086 C20.49888407 32.99690536 24.35011563 39.82030945 28.26855469 46.61767578 C31.08954438 51.53473252 33.78365171 56.48439866 36.34375 61.54296875 C36.90360596 62.63174316 37.46346191 63.72051758 38.0402832 64.84228516 C39.10324609 66.92031695 40.14514008 69.00932585 41.16088867 71.11083984 C44.88430018 78.33099364 48.78991574 81.45203903 56 85 C57.95394263 86.05990366 59.90568295 87.12387503 61.85546875 88.19140625 C63.96525758 89.316771 66.07597196 90.44040192 68.1875 91.5625 C77.76050973 96.68169456 87.25917559 101.91055761 96.68676758 107.29272461 C101.37798405 109.96747963 106.08453929 112.60015338 110.84375 115.15234375 C111.77461426 115.65354736 112.70547852 116.15475098 113.66455078 116.67114258 C115.42946579 117.61782506 117.19850154 118.55687771 118.97216797 119.48706055 C119.75221191 119.90640869 120.53225586 120.32575684 121.3359375 120.7578125 C122.02220215 121.1202002 122.7084668 121.48258789 123.41552734 121.85595703 C125 123 125 123 126 126 C124.89527344 126.57105469 123.79054688 127.14210938 122.65234375 127.73046875 C113.77586744 132.34662426 104.997299 137.09468378 96.3125 142.0625 C85.25443328 148.38551486 74.01921746 154.35241781 62.73754883 160.26391602 C62.07016693 160.61510498 61.40278503 160.96629395 60.71517944 161.328125 C58.89602889 162.2852138 57.07491249 163.23856343 55.25366211 164.19165039 C49.59614446 167.33603646 45.71966633 169.59124426 42.703125 175.4453125 C41.86189087 177.04656982 41.86189087 177.04656982 41.00366211 178.68017578 C40.42495361 179.81696777 39.84624512 180.95375977 39.25 182.125 C38.63134499 183.31192609 38.01096529 184.49795473 37.38891602 185.68310547 C36.15192248 188.0412925 34.92112429 190.4023215 33.69384766 192.765625 C31.51426839 196.92749675 29.2425068 201.0316837 26.9375 205.125 C22.9914675 212.17048857 19.14478755 219.26707611 15.3125 226.375 C11.01661402 234.33825809 6.67359189 242.25033489 2 250 C-0.84548167 247.49410256 -2.36494939 244.73314305 -4.1171875 241.390625 C-4.71732666 240.25544434 -5.31746582 239.12026367 -5.93579102 237.95068359 C-6.25154083 237.34794617 -6.56729065 236.74520874 -6.89260864 236.12420654 C-8.56811971 232.92766599 -10.26230779 229.74107331 -11.95703125 226.5546875 C-12.2994133 225.91040802 -12.64179535 225.26612854 -12.99455261 224.60232544 C-16.58511871 217.86614124 -20.33306141 211.22210152 -24.16040039 204.61767578 C-27.08929398 199.52786009 -29.81167914 194.40164749 -32.359375 189.109375 C-38.61572126 176.2899289 -43.02426187 167.63076987 -56.39599609 162.16064453 C-61.4421979 159.91147489 -66.19554918 157.07804935 -71.00323486 154.36474609 C-74.13023374 152.60684801 -77.27370141 150.87911103 -80.41796875 149.15234375 C-81.360354 148.63436722 -81.360354 148.63436722 -82.32177734 148.10592651 C-89.96655626 143.91083936 -97.65102059 139.78896754 -105.34912109 135.69262695 C-111.68234951 132.30794479 -117.88070419 128.7580687 -124 125 C-120.56844434 122.11136239 -117.16455381 119.86694629 -113.1953125 117.78515625 C-112.06601318 117.18791748 -110.93671387 116.59067871 -109.77319336 115.9753418 C-109.17860321 115.66366058 -108.58401306 115.35197937 -107.97140503 115.03085327 C-104.8117753 113.37377493 -101.66151666 111.69911107 -98.51171875 110.0234375 C-97.8750679 109.68497299 -97.23841705 109.34650848 -96.58247375 108.99778748 C-90.64254712 105.82954492 -84.78227483 102.52780213 -78.9375 99.1875 C-71.08127283 94.69920385 -63.16310117 90.3727043 -55.11108398 86.24487305 C-53.69400017 85.51353133 -52.28321585 84.76980772 -50.88012695 84.01196289 C-49.23326524 83.1255531 -47.55980657 82.28892705 -45.8828125 81.4609375 C-41.31553337 77.56204068 -39.12767893 72.48839787 -36.4375 67.1875 C-35.51034989 65.41175102 -34.58316216 63.63601901 -33.65264893 61.86203003 C-33.02042759 60.65628808 -32.38986128 59.44967692 -31.76092529 58.24221802 C-28.85017244 52.66565791 -25.75750209 47.20399723 -22.625 41.75 C-14.77125657 28.00226063 -7.39687088 13.99697961 0 0 Z " transform="translate(386)" fill="#732fff" class="svgShape color000000-2 selectable"></path></svg></g></svg>