<svg width="20" height="19" viewBox="0 0 20 19" fill="none" xmlns="http://www.w3.org/2000/svg">
<path d="M7.08336 0C4.55203 0 2.5 2.05204 2.5 4.58335C2.5 7.11466 4.55203 9.16674 7.08336 9.16674C9.61465 9.16674 11.6667 7.11466 11.6667 4.58335C11.6667 2.05204 9.61465 0 7.08336 0Z" fill="#FDFDFD"/>
<path d="M9.71535 11.0376C7.97176 10.7654 6.19504 10.7654 4.45145 11.0376L4.26455 11.0668C1.80776 11.4502 0 13.5227 0 15.9557C0 17.2689 1.08858 18.3336 2.43141 18.3336H11.7353C13.0782 18.3336 14.1668 17.2689 14.1668 15.9557C14.1668 13.5227 12.359 11.4502 9.90226 11.0668L9.71535 11.0376Z" fill="#FDFDFD"/>
<path fill-rule="evenodd" clip-rule="evenodd" d="M16.6668 5C17.1689 5 17.576 5.40701 17.576 5.9091V7.42428H19.0911C19.5932 7.42428 20.0002 7.83132 20.0002 8.33334C20.0002 8.83536 19.5932 9.2424 19.0911 9.2424H17.576V10.7575C17.576 11.2597 17.1689 11.6667 16.6668 11.6667C16.1648 11.6667 15.7577 11.2597 15.7577 10.7575V9.2424H14.2426C13.7404 9.2424 13.3335 8.83536 13.3335 8.33334C13.3335 7.83132 13.7404 7.42428 14.2426 7.42428H15.7577V5.9091C15.7577 5.40701 16.1648 5 16.6668 5Z" fill="#FDFDFD"/>
</svg>
