<svg width="20" height="20" viewBox="0 0 20 20" fill="none" xmlns="http://www.w3.org/2000/svg">
<path fill-rule="evenodd" clip-rule="evenodd" d="M3.45192 9.55102C3.2875 10.2069 3.2002 10.8934 3.2002 11.6002C3.2002 16.2394 6.96101 20.0002 11.6002 20.0002H15.8002C17.1048 20.0002 17.7571 20.0002 18.2718 19.787C18.9578 19.5029 19.5029 18.9578 19.787 18.2718C20.0002 17.7571 20.0002 17.1048 20.0002 15.8002V11.6002C20.0002 6.96101 16.2394 3.2002 11.6002 3.2002C10.8934 3.2002 10.2069 3.2875 9.55102 3.45192C9.95314 3.87112 10.2002 4.44014 10.2002 5.06686C10.2002 6.35552 9.15552 7.4002 7.86686 7.4002H7.4002V7.86686C7.4002 9.15552 6.35552 10.2002 5.06686 10.2002C4.44014 10.2002 3.87112 9.95314 3.45192 9.55102ZM8.80019 9.73353C8.28473 9.73353 7.86686 10.1514 7.86686 10.6669C7.86686 11.1823 8.28473 11.6002 8.80019 11.6002H14.4002C14.9157 11.6002 15.3335 11.1823 15.3335 10.6669C15.3335 10.1514 14.9157 9.73353 14.4002 9.73353H8.80019ZM11.6002 13.4669C11.0847 13.4669 10.6669 13.8847 10.6669 14.4002C10.6669 14.9157 11.0847 15.3335 11.6002 15.3335H14.4002C14.9157 15.3335 15.3335 14.9157 15.3335 14.4002C15.3335 13.8847 14.9157 13.4669 14.4002 13.4669H11.6002Z" fill="#FDFDFD"/>
<path fill-rule="evenodd" clip-rule="evenodd" d="M4.39992 0C5.06275 0 5.60004 0.537255 5.60004 1.2V3.20003H7.60004C8.26271 3.20003 8.8 3.73731 8.8 4.39998C8.8 5.06264 8.26271 5.59993 7.60004 5.59993H5.60004V7.5999C5.60004 8.26271 5.06275 8.8 4.39992 8.8C3.73725 8.8 3.19996 8.26271 3.19996 7.5999V5.59993H1.19996C0.537137 5.59993 0 5.06264 0 4.39998C0 3.73731 0.537137 3.20003 1.19996 3.20003H3.19996V1.2C3.19996 0.537255 3.73725 0 4.39992 0Z" fill="#FDFDFD"/>
</svg>
