<?xml version="1.0" encoding="UTF-8"?>
<svg width="691px" height="704px" viewBox="0 0 691 704" version="1.1" xmlns="http://www.w3.org/2000/svg" xmlns:xlink="http://www.w3.org/1999/xlink">
    <title>Messages for Business - Icon</title>
    <defs>
        <linearGradient x1="50.0004641%" y1="0.000467315924%" x2="50.0004641%" y2="100%" id="linearGradient-1">
            <stop stop-color="#5DF877" offset="0%"></stop>
            <stop stop-color="#0ABB28" offset="100%"></stop>
        </linearGradient>
    </defs>
    <g id="Exports" stroke="none" stroke-width="1" fill="none" fill-rule="evenodd">
        <g id="Messages-for-Business---Icon">
            <path d="M677.337283,93.8181954 C670.620582,76.4343421 655.120503,51.9607455 633.142684,34.718358 C620.451995,24.7631082 605.303897,15.2454156 584.491813,8.96169879 C562.307325,2.26345403 534.985208,0 500.978682,0 L190.027733,0 C156.021206,0 128.699089,2.26345403 106.514602,8.96169879 C85.7057463,15.2454156 70.5544196,24.7631082 57.8637304,34.718358 C35.8826816,51.9607455 20.3826032,76.4343421 13.6659025,93.8181954 C0.135625686,128.839225 0,168.577976 0,193.600987 L0,510.399013 C0,535.425314 0.135625686,575.160775 13.6659025,610.185094 C20.3826032,627.568948 35.8826816,652.042544 57.8605012,669.281642 C70.5511904,679.236892 85.6992879,688.754584 106.511372,695.038301 C128.69586,701.736546 156.017977,704 190.024503,704 L500.975452,704 C534.981979,704 562.304096,701.736546 584.488583,695.038301 C605.297439,688.754584 620.448765,679.236892 633.139455,669.281642 C655.117274,652.039255 670.617353,627.565658 677.334053,610.185094 C690.86433,575.160775 691,535.425314 691,510.399013 L691,193.600987 C691,168.577976 690.867559,128.839225 677.337283,93.8181954 Z" id="XMLID_1_" fill="url(#linearGradient-1)"></path>
            <path d="M345.480603,122.312055 C205.495519,122.312055 92.0155699,217.748883 92.0155699,335.478102 C92.0155699,410.392508 135.796833,472.676973 203.819573,512.267679 C225.313015,524.779184 205.33406,550.183823 186.582194,570.18644 C176.584644,580.852309 178.154027,584.161953 191.199926,580.83586 C256.603799,564.152756 258.470267,537.448605 287.959166,543.130269 C306.449468,546.693235 325.695399,548.644148 345.480603,548.644148 C485.465686,548.644148 598.945636,453.20732 598.945636,335.478102 C598.945636,217.748883 485.462457,122.312055 345.480603,122.312055 Z" id="Shape" fill="#FFFFFF"></path>
        </g>
    </g>
</svg>