<svg width="595" height="217" viewBox="0 0 595 217" fill="none" xmlns="http://www.w3.org/2000/svg">
<path d="M93.1684 35.8998C93.7263 35.8998 94.2703 36.0972 94.6991 36.4552C95.3446 36.9923 95.8749 37.5064 96.4051 38.328C102.196 47.3064 106.074 59.5437 111.703 68.8526C113.391 71.6388 114.617 73.025 118.145 73.4198C127.984 74.526 140.068 72.2768 149.871 73.4106C150.756 73.5116 151.388 73.6768 152.005 74.1863C152.25 74.3883 152.443 74.6453 152.586 74.9299L182.63 134.969C182.897 135.502 182.966 136.117 182.786 136.681C182.385 137.934 181.26 139.082 180.002 139.307C179.84 139.334 179.674 139.33 179.513 139.316C168.668 138.389 155.809 140.555 145.251 139.325C144.688 139.261 144.204 139.169 143.752 138.958C143.3 138.747 142.932 138.366 142.706 137.916L114.327 82.2604C112.828 79.2676 109.481 78.8086 107.711 81.8014L79.5622 138.508C79.3317 138.972 79.2533 139.495 79.3548 140C79.7282 141.809 81.2267 142.768 83.2001 142.988C102.293 144.264 123.7 141.253 142.521 142.956C144.135 143.103 145.269 143.351 146.039 144.948C149.88 154.744 157.345 164.865 160.876 174.559C161.858 177.254 161.702 178.502 159.442 179.939C159.069 180.178 158.631 180.297 158.188 180.297L96.1377 180.403C95.8149 180.403 95.4876 180.343 95.1925 180.21C93.5741 179.484 92.8687 177.772 92.0157 176.308C87.4142 168.381 83.6381 156.938 78.6816 149.777C77.4044 147.932 75.8967 146.83 73.5868 146.614C63.4617 145.673 51.3633 147.776 41.3811 146.651C39.8734 146.481 39.0389 145.967 38.1767 145.1C37.7294 144.65 37.4805 144.049 37.4805 143.424V141.717C37.4805 141.34 37.5681 140.973 37.7433 140.638L91.0521 37.1897C91.4578 36.4002 92.2739 35.9044 93.1684 35.9044V35.8998Z" fill="white"/>
<path d="M257.052 164.738H239.508L284.887 51.7111H300.913L346.293 164.738H328.579L318.626 139.265H267.174L257.052 164.738ZM292.984 73.473L273.078 124.251H312.722L292.984 73.473ZM363.554 44.9633C369.289 44.9633 373.676 49.3494 373.676 55.0851C373.676 60.8208 369.289 65.2069 363.554 65.2069C357.649 65.2069 353.432 60.8208 353.432 55.0851C353.432 49.3494 357.649 44.9633 363.554 44.9633ZM355.962 164.738V83.7635H371.145V164.738H355.962ZM428.692 82.0766V90.174C411.485 90.174 399.17 102.489 399.17 119.527V164.738H390.735V119.527C390.735 97.7654 406.761 82.0766 428.692 82.0766ZM440.534 196.79V188.693C456.222 188.693 462.97 183.632 470.393 166.425L474.61 156.641H467.188L435.473 83.7635H444.751L475.623 154.616L506.325 83.7635H515.604L478.322 169.462C469.212 190.38 460.44 196.79 440.534 196.79ZM585.256 108.899H576.821C576.821 98.9463 567.205 91.861 553.709 91.861C540.214 91.861 530.767 98.7776 530.767 108.899C530.767 134.373 588.63 132.854 588.63 164.738H580.195C580.195 139.434 522.332 141.458 522.332 108.731C522.332 94.0541 535.321 83.7635 553.709 83.7635C572.266 83.7635 585.256 94.2228 585.256 108.899ZM529.08 152.929C532.96 152.929 535.828 155.797 535.828 159.677C535.828 163.557 532.96 166.425 529.08 166.425C525.2 166.425 522.332 163.557 522.332 159.677C522.332 155.797 525.2 152.929 529.08 152.929Z" fill="white"/>
<path d="M435.156 42.8595H436.974L443.501 60.7773H442.029L440.557 56.733H431.586L430.114 60.7773H428.642L435.156 42.8595ZM432.085 55.3508H440.046L436.065 44.4337L432.085 55.3508ZM455.157 47.9789H456.539V61.3149C456.539 64.4761 453.493 67.1766 450.306 67.1766C447.631 67.1766 445.033 65.1032 444.342 62.6331L445.622 62.0444C446.07 64.1178 448.233 65.7816 450.306 65.7816C452.763 65.7816 455.157 63.6954 455.157 61.3149V58.1792C454.248 59.9198 452.61 61.1101 450.472 61.1101C446.902 61.1101 444.009 58.0897 444.009 54.3781C444.009 50.6537 446.902 47.6333 450.472 47.6333C452.61 47.6333 454.248 48.8108 455.157 50.5641V47.9789ZM450.485 59.7535C453.339 59.7535 455.093 57.2578 455.093 54.3781C455.093 51.4472 453.301 48.9771 450.485 48.9771C447.657 48.9771 445.417 51.396 445.417 54.3781C445.417 57.3729 447.708 59.7535 450.485 59.7535ZM465.924 42.885L468.381 46.571H467.46L465.169 43.9345L462.916 46.571H461.995L464.439 42.885H465.924ZM465.182 61.1101C461.649 61.1101 458.782 58.0897 458.782 54.3781C458.782 50.6409 461.649 47.6205 465.182 47.6205C468.932 47.6205 471.632 50.7049 471.543 54.9412H460.229C460.51 57.6801 462.596 59.7151 465.182 59.7279C467.076 59.7279 468.663 58.6784 469.572 56.925L470.967 57.245C469.943 59.5231 467.741 61.1101 465.182 61.1101ZM460.19 53.7638H470.148C469.994 51.1401 467.818 48.9003 465.182 48.9003C462.532 48.9003 460.433 51.0633 460.19 53.7638ZM484.755 52.9063V60.7773H483.373V53.1238C483.373 50.8457 481.53 49.0155 479.264 49.0155C476.999 49.0155 475.156 50.8457 475.156 53.1238V60.7773H473.774V47.9789H475.156V49.937C476.077 48.5292 477.677 47.6205 479.469 47.6205C482.4 47.6205 484.755 49.9882 484.755 52.9063ZM496.581 57.7697L497.81 58.4352C496.645 60.0606 494.79 61.1101 492.703 61.1101C489.171 61.1101 486.304 58.0897 486.304 54.3781C486.304 50.6409 489.171 47.6205 492.703 47.6205C494.79 47.6205 496.645 48.67 497.81 50.3082L496.581 50.9609C495.609 49.7066 494.137 49.0027 492.703 49.0027C489.875 49.0027 487.686 51.4728 487.686 54.3781C487.686 57.3218 489.939 59.7279 492.703 59.7279C494.252 59.7279 495.686 58.9216 496.581 57.7697ZM500.675 45.5599C500.188 45.5599 499.817 45.2144 499.817 44.728C499.817 44.2545 500.188 43.8961 500.675 43.8961C501.135 43.8961 501.519 44.2545 501.519 44.728C501.519 45.2144 501.148 45.5599 500.675 45.5599ZM499.971 47.9789H501.353V60.7773H499.971V47.9789ZM515.134 47.9789H516.516V60.7773H515.134L515.096 58.1537C514.226 59.9198 512.587 61.1101 510.335 61.1101C506.61 61.1101 503.577 58.0769 503.577 54.3397C503.577 50.6281 506.572 47.6205 510.271 47.6205C512.549 47.6205 514.238 48.8236 515.173 50.6025L515.134 47.9789ZM510.322 59.7535C513.278 59.7535 515.032 57.3345 515.032 54.3781C515.032 51.3577 513.24 48.9771 510.322 48.9771C507.366 48.9771 504.985 51.396 504.985 54.3781C504.985 57.3985 507.442 59.7535 510.322 59.7535ZM536.007 41.5796H537.389V60.7773H536.007V58.1409C535.111 59.9198 533.447 61.1101 531.182 61.1101C527.47 61.1101 524.45 58.0897 524.45 54.3781C524.45 50.6537 527.47 47.6333 531.182 47.6333C533.447 47.6333 535.111 48.8108 536.007 50.5897V41.5796ZM531.195 59.7535C534.151 59.7535 535.904 57.3345 535.904 54.3781C535.904 51.3577 534.113 48.9771 531.195 48.9771C528.251 48.9771 525.858 51.396 525.858 54.3781C525.858 57.3985 528.315 59.7535 531.195 59.7535ZM546.047 61.1101C542.515 61.1101 539.648 58.0897 539.648 54.3781C539.648 50.6409 542.515 47.6205 546.047 47.6205C549.797 47.6205 552.498 50.7049 552.408 54.9412H541.094C541.376 57.6801 543.462 59.7151 546.047 59.7279C547.941 59.7279 549.528 58.6784 550.437 56.925L551.832 57.245C550.808 59.5231 548.607 61.1101 546.047 61.1101ZM541.056 53.7638H551.013C550.859 51.1401 548.684 48.9003 546.047 48.9003C543.398 48.9003 541.299 51.0633 541.056 53.7638ZM561.247 60.7773V42.8595H562.63V60.7773H561.247ZM572.09 42.8595H573.908L580.435 60.7773H578.963L577.491 56.733H568.52L567.048 60.7773H565.576L572.09 42.8595ZM569.019 55.3508H576.979L572.999 44.4337L569.019 55.3508Z" fill="white"/>
</svg>
