<svg width="2458px" height="512px" viewBox="0 0 2458 512" version="1.1" xmlns="http://www.w3.org/2000/svg" xmlns:xlink="http://www.w3.org/1999/xlink">
    <defs>
        <linearGradient id="airys_gradient" x1="144.836" y1="0" x2="144.836" y2="253.369" gradientUnits="userSpaceOnUse">
            <stop stop-color="#C1FF4D"/>
            <stop offset="1" stop-color="#1BFBBD"/>
        </linearGradient>
    </defs>
    <g id="Logo" stroke="none" stroke-width="1" fill="none" fill-rule="evenodd">
        <g id="airys_logo_content" transform="translate(439.000000, 2.000000) scale(2.000000)">
            <path d="M124.905 42.0521C125.559 42.0521 126.196 42.2833 126.699 42.7026C127.455 43.3317 128.076 43.9339 128.697 44.8964C135.48 55.4133 140.022 69.7477 146.617 80.6517C148.593 83.9154 150.03 85.5392 154.162 86.0016C165.687 87.2974 179.842 84.6628 191.325 85.9908C192.361 86.1091 193.101 86.3027 193.825 86.8995C194.111 87.1361 194.338 87.4372 194.506 87.7705L229.697 158.098C230.01 158.722 230.091 159.443 229.881 160.104C229.411 161.572 228.093 162.916 226.619 163.179C226.43 163.212 226.235 163.206 226.046 163.19C213.344 162.104 198.281 164.642 185.913 163.201C185.254 163.126 184.687 163.018 184.158 162.771C183.628 162.523 183.196 162.077 182.932 161.55L149.69 96.3572C147.934 92.8516 144.013 92.3139 141.94 95.8195L108.968 162.244C108.698 162.787 108.606 163.4 108.725 163.991C109.162 166.11 110.917 167.234 113.229 167.492C135.594 168.986 160.67 165.459 182.716 167.454C184.606 167.626 185.935 167.916 186.836 169.787C191.335 181.261 200.079 193.117 204.216 204.473C205.367 207.629 205.183 209.091 202.537 210.774C202.099 211.054 201.586 211.194 201.068 211.194L128.384 211.317C128.006 211.317 127.622 211.248 127.276 211.092C125.381 210.242 124.554 208.237 123.555 206.521C118.165 197.236 113.742 183.832 107.936 175.444C106.44 173.282 104.674 171.992 101.968 171.739C90.1081 170.637 75.9364 173.1 64.2436 171.782C62.4776 171.583 61.5 170.981 60.4901 169.965C59.9662 169.438 59.6746 168.734 59.6746 168.002V166.002C59.6746 165.561 59.7772 165.131 59.9824 164.739L122.426 43.5629C122.902 42.6381 123.858 42.0574 124.905 42.0574V42.0521Z" id="Icon" fill="url(#airys_gradient)"></path>
            <path d="M325.691 191.78H302.385L362.666 41.6379H383.955L444.236 191.78H420.706L407.485 157.942H339.136L325.691 191.78ZM373.422 70.5459L346.979 137.998H399.641L373.422 70.5459ZM467.165 32.6742C474.784 32.6742 480.611 38.5006 480.611 46.1197C480.611 53.7389 474.784 59.5653 467.165 59.5653C459.322 59.5653 453.719 53.7389 453.719 46.1197C453.719 38.5006 459.322 32.6742 467.165 32.6742ZM457.081 191.78V84.2155H477.249V191.78H457.081ZM553.693 81.9746V92.7311C530.835 92.7311 514.477 109.09 514.477 131.723V191.78H503.272V131.723C503.272 102.815 524.561 81.9746 553.693 81.9746ZM569.423 234.358V223.601C590.264 223.601 599.227 216.878 609.088 194.021L614.69 181.024H604.83L562.7 84.2155H575.025L616.034 178.335L656.819 84.2155H669.144L619.62 198.055C607.519 225.842 595.866 234.358 569.423 234.358ZM761.668 117.605H750.464C750.464 104.384 737.691 94.972 719.763 94.972C701.836 94.972 689.286 104.16 689.286 117.605C689.286 151.443 766.15 149.427 766.15 191.78H754.946C754.946 158.166 678.082 160.855 678.082 117.381C678.082 97.8852 695.337 84.2155 719.763 84.2155C744.413 84.2155 761.668 98.1093 761.668 117.605ZM687.046 176.094C692.2 176.094 696.009 179.903 696.009 185.057C696.009 190.211 692.2 194.021 687.046 194.021C681.891 194.021 678.082 190.211 678.082 185.057C678.082 179.903 681.891 176.094 687.046 176.094Z" id="Wordmark" fill="#273444"></path>
        </g>
    </g>
</svg>