<svg id="Calque_1" data-name="Calque 1" xmlns="http://www.w3.org/2000/svg" viewBox="0 0 521.36 98.46"><defs><style>.cls-1{fill:#4e97fa;}.cls-2{fill:#070707;}.cls-3{fill:#0b0b0b;}.cls-4{fill:#fefefe;}</style></defs><path class="cls-1" d="M729.83,880.24c8.88,9.11,17.52,18.45,27.44,26.51,16,13,31.63,26.28,47.92,38.83a3.35,3.35,0,0,1-.49,5.3c-1,.52-1.53-.4-2.14-.84-5.17-3.65-10.3-7.34-15.44-11a2.68,2.68,0,0,0-2.69-.63c-7.23,2.31-14.62,2-22,.83-25.81-4.16-42-19.89-51.29-43.4-5.1-12.84-8.24-26.33-12.08-39.58-.32-1.12-.6-2.24-1-3.66,4.27.52,8.37.93,12.44,1.51,10.21,1.46,20.5,2.37,30.59,4.45,18,3.7,33.35,12.09,43.92,27.52,7.65,11.17,11.74,23.62,11,37.38a8.74,8.74,0,0,1-1.38,4.61l-19-14.21q-22.25-16.68-44.49-33.34a6.61,6.61,0,0,0-1.1-.54l-.54-.45c-.08-.23-.24-.47-.45-.28s.07.34.26.43Zm-1.47-1.57-.09.11.15,0Z" transform="translate(-698.1 -852.57)"/><path class="cls-2" d="M1093.33,871.37l26.06,36.6,26.68-36.84c.76.63.38,1.42.38,2.09,0,16.57,0,33.14.08,49.7,0,2.15-.6,2.58-2.63,2.54-5.91-.14-5.91-.05-5.91-6V894.94c-6.46,9.07-12.49,17.56-18.67,26.26l-17.86-24.53c-.72.76-.39,1.54-.4,2.21,0,8.16-.06,16.32,0,24.48,0,1.63-.4,2.09-2.06,2.09-6.15,0-6.15,0-6.15-6V871.54Z" transform="translate(-698.1 -852.57)"/><path class="cls-2" d="M1192.32,926c-14.77.08-27.2-12-27.28-26.48a27.4,27.4,0,0,1,27-27.4c14.83-.05,27.36,12.25,27.46,27S1207.21,925.9,1192.32,926Zm18.33-26.8a18.56,18.56,0,0,0-18.45-18.9c-10.21,0-18.25,8.22-18.31,18.71a18.64,18.64,0,0,0,18.45,18.9A18.38,18.38,0,0,0,1210.65,899.18Z" transform="translate(-698.1 -852.57)"/><path class="cls-2" d="M950.2,898a27.18,27.18,0,1,1,54.24,3.51c-1.14,14.3-14.59,25.49-29.26,24.34C960.68,924.75,949.1,911.83,950.2,898Zm27-17.75c-10.31,0-18.35,8.39-18.29,19a18.66,18.66,0,0,0,18.49,18.62,18.81,18.81,0,0,0-.2-37.61Z" transform="translate(-698.1 -852.57)"/><path class="cls-2" d="M1074.19,898.94c.29,14.41-11.86,26.7-26.72,27-14.65.32-27.25-11.5-27.55-25.85-.31-15,11.56-27.74,26.23-28A27.53,27.53,0,0,1,1074.19,898.94ZM1047,880.29A18.53,18.53,0,0,0,1028.59,899a18.8,18.8,0,0,0,18.55,18.89,18.8,18.8,0,0,0-.17-37.6Z" transform="translate(-698.1 -852.57)"/><path class="cls-2" d="M893.53,925.36c-3.4,0-6.86.93-9.25-.26s-2.55-5.12-3.7-7.82c-1.81-4.25-1.73-4.29-6.45-4.29-4,0-8,.15-12-.06-2.14-.11-3.06.67-3.71,2.6-1,2.81-2.32,5.5-3.36,8.29a2,2,0,0,1-2.34,1.61c-2.13-.1-4.28,0-6.74,0l23.77-55.47Zm-24.14-36.18c-2.21,5.3-4.25,10.17-6.27,15.05-.32.77-.74,1.56.79,1.53,3.57-.06,7.15,0,10.72,0,.7,0,1.4.06,1-1C873.55,899.64,871.54,894.58,869.39,889.18Z" transform="translate(-698.1 -852.57)"/><path class="cls-3" d="M915.16,903c0-6.58-.11-13.15.06-19.72,0-2.19-.66-2.65-2.66-2.53-3,.17-6,0-9,.07-1.26,0-1.69-.3-1.73-1.65-.23-6.57-.28-6.57,6.27-6.57,9.07,0,18.15,0,27.23,0,1.54,0,2.15.28,2.15,2,0,6.2.09,6.2-6.18,6.2-1.83,0-3.67.11-5.49,0s-2.23.5-2.21,2.23c.08,10.32,0,20.64,0,31,0,3.16-.06,6.33,0,9.49,0,1.39-.18,2-1.85,2-6.66,0-6.66.12-6.66-6.49Z" transform="translate(-698.1 -852.57)"/><polygon class="cls-4" points="30.27 26.1 30.32 26.23 30.17 26.21 30.27 26.1"/><path class="cls-4" d="M729.36,879.65c-.18-.09-.48-.22-.25-.43s.37,0,.45.28Z" transform="translate(-698.1 -852.57)"/><path class="cls-4" d="M729.56,879.5l.54.45-.27.29-.46-.59Z" transform="translate(-698.1 -852.57)"/></svg>