<svg id="Calque_1" data-name="Calque 1" xmlns="http://www.w3.org/2000/svg" viewBox="0 0 108.21 98.46"><defs><style>.cls-1{fill:#4e97fa;}.cls-2{fill:#070707;}.cls-3{fill:#0b0b0b;}.cls-4{fill:#fefefe;}</style></defs><path class="cls-1" d="M729.83,880.24c8.88,9.11,17.52,18.45,27.44,26.51,16,13,31.63,26.28,47.92,38.83a3.35,3.35,0,0,1-.49,5.3c-1,.52-1.53-.4-2.14-.84-5.17-3.65-10.3-7.34-15.44-11a2.68,2.68,0,0,0-2.69-.63c-7.23,2.31-14.62,2-22,.83-25.81-4.16-42-19.89-51.29-43.4-5.1-12.84-8.24-26.33-12.08-39.58-.32-1.12-.6-2.24-1-3.66,4.27.52,8.37.93,12.44,1.51,10.21,1.46,20.5,2.37,30.59,4.45,18,3.7,33.35,12.09,43.92,27.52,7.65,11.17,11.74,23.62,11,37.38a8.74,8.74,0,0,1-1.38,4.61l-19-14.21q-22.25-16.68-44.49-33.34a6.61,6.61,0,0,0-1.1-.54l-.54-.45c-.08-.23-.24-.47-.45-.28s.07.34.26.43Zm-1.47-1.57-.09.11.15,0Z" transform="translate(-698.1 -852.57)"/></svg>