<svg width="24" height="24" viewBox="0 0 24 24" fill="none" xmlns="http://www.w3.org/2000/svg">
<path fill-rule="evenodd" clip-rule="evenodd" d="M20.128 20.128C22.284 17.9721 23.4967 15.049 23.5 12C23.5 8.95001 22.2884 6.02494 20.1317 3.86827C17.9751 1.7116 15.05 0.5 12 0.5C8.95001 0.5 6.02494 1.7116 3.86827 3.86827C1.7116 6.02494 0.5 8.95001 0.5 12V21.66C0.5 22.148 0.693856 22.616 1.03892 22.9611C1.38399 23.3061 1.852 23.5 2.34 23.5H12C15.049 23.4967 17.9721 22.284 20.128 20.128ZM20.4735 11.3252C20.4172 10.6095 19.7913 10.0749 19.0755 10.1313C18.3597 10.1876 17.8252 10.8135 17.8815 11.5293C17.8937 11.6844 17.9 11.8414 17.9 12.0001C17.9 15.2586 15.2585 17.9001 12 17.9001C10.7561 17.9001 9.60578 17.5167 8.65571 16.8616C8.06463 16.454 7.25507 16.6028 6.84751 17.1939C6.43995 17.7849 6.58872 18.5945 7.1798 19.0021C8.54997 19.9468 10.2123 20.5001 12 20.5001C16.6944 20.5001 20.5 16.6945 20.5 12.0001C20.5 11.7732 20.4911 11.5481 20.4735 11.3252Z" fill="white"/>
</svg>
