<svg width="315" height="285" viewBox="0 0 315 285" fill="none" xmlns="http://www.w3.org/2000/svg">
<path d="M90.1274 0C79.36 5.2311 69.8255 11.7504 62.4511 20.5221C69.8963 24.6668 82.6801 29.1834 88.6723 38.382C95.7508 28.7602 102.719 25.1723 118.714 18.8105C110.451 11.6599 102.611 4.21493 90.1274 0ZM268.288 10.6447L205.369 71.2834C211.362 76.8731 216.189 83.519 219.853 90.7831L304.446 67.3344C296.506 46.1554 284.283 26.7595 268.288 10.6447ZM179.358 21.9037C143.371 21.2036 112.971 33.7014 98.5032 47.6909C127.965 85.6938 114.307 137.486 127.273 159.222C183.002 143.77 196.14 86.3472 179.358 21.9037ZM7.75017 26.1205C-13.465 100.725 6.19104 171.869 100.278 171.869L44.1379 226.68C57.4161 243.555 73.7111 257.14 91.8374 266.97L124.473 182.239C122.736 180.97 121.014 179.584 119.307 178.016C107.371 168.349 101.311 154.151 98.8969 141.42C96.1591 126.981 96.2785 113.117 94.6638 100.115C93.6177 91.6919 92.1138 83.5912 89.7951 76.0488C78.9548 48.7914 56.7923 26.1205 7.75017 26.1205ZM313.235 101.297L227.506 125.059C227.375 129.984 226.752 134.771 225.689 139.389L307.076 176.089C312.188 160.157 315 143.126 315 125.399C314.996 117.279 314.399 109.224 313.235 101.297ZM209.654 170.484C206.489 174.026 202.996 177.233 199.187 180.025L235.194 265.595C258.966 252.062 278.917 232.14 292.925 208.036L209.654 170.484ZM167.539 192.316C165.373 192.537 163.179 192.662 160.957 192.662C159.552 192.657 158.194 192.597 156.831 192.541L123.282 279.65C135.815 283.107 148.823 284.973 162.051 285C176.589 285 190.636 282.84 203.959 278.886L167.539 192.316Z" fill="#137547"/>
</svg>
