<svg width="1328" height="350" viewBox="0 0 1328 350" fill="none" xmlns="http://www.w3.org/2000/svg">
<path d="M506.75 117H440.5V160.5H499.25V188.25H440.5V234.5H506.75V263H405.25V88.5H506.75V117ZM597.807 264.75C584.473 264.75 572.64 261.833 562.307 256C551.973 250.167 543.89 241.917 538.057 231.25C532.223 220.417 529.307 207.833 529.307 193.5C529.307 179.167 532.14 166.75 537.807 156.25C543.64 145.583 551.723 137.333 562.057 131.5C572.39 125.667 584.307 122.75 597.807 122.75C605.14 122.75 612.057 123.5 618.557 125C625.223 126.5 631.223 128.917 636.557 132.25C641.89 135.417 646.64 139.75 650.807 145.25C654.973 150.583 658.39 157.25 661.057 165.25L627.057 176C624.557 168.333 620.807 162.5 615.807 158.5C610.973 154.5 604.89 152.5 597.557 152.5C591.057 152.5 585.39 154.083 580.557 157.25C575.723 160.417 571.973 165.083 569.307 171.25C566.64 177.25 565.307 184.667 565.307 193.5C565.307 202.333 566.64 209.833 569.307 216C571.973 222.167 575.723 226.917 580.557 230.25C585.39 233.417 591.057 235 597.557 235C606.057 235 612.807 232.583 617.807 227.75C622.973 222.75 626.473 216.417 628.307 208.75L662.557 216.75C660.39 225.25 656.473 233.167 650.807 240.5C645.307 247.833 638.223 253.75 629.557 258.25C620.89 262.583 610.307 264.75 597.807 264.75ZM749.953 264.75C736.62 264.75 724.62 261.833 713.953 256C703.453 250.167 695.036 241.917 688.703 231.25C682.536 220.583 679.453 208 679.453 193.5C679.453 179 682.62 166.5 688.953 156C695.286 145.333 703.87 137.167 714.703 131.5C725.536 125.667 737.62 122.75 750.953 122.75C764.286 122.75 776.286 125.667 786.953 131.5C797.786 137.167 806.37 145.333 812.703 156C819.036 166.5 822.203 179 822.203 193.5C822.203 208 818.953 220.583 812.453 231.25C806.12 241.917 797.453 250.167 786.453 256C775.62 261.833 763.453 264.75 749.953 264.75ZM749.953 234C756.12 234 761.953 232.583 767.453 229.75C772.953 226.75 777.453 222.25 780.953 216.25C784.453 210.083 786.203 202.5 786.203 193.5C786.203 184.5 784.453 177 780.953 171C777.62 165 773.203 160.583 767.703 157.75C762.37 154.75 756.62 153.25 750.453 153.25C744.286 153.25 738.536 154.75 733.203 157.75C728.036 160.583 723.786 165 720.453 171C717.12 177 715.453 184.5 715.453 193.5C715.453 202.5 717.036 210.083 720.203 216.25C723.37 222.25 727.536 226.75 732.703 229.75C738.036 232.583 743.786 234 749.953 234ZM847.633 263V88.5H913.383C927.049 88.5 938.549 90.75 947.883 95.25C957.216 99.75 964.216 106 968.883 114C973.716 121.833 976.133 130.833 976.133 141C976.133 152.167 972.633 161.75 965.633 169.75C958.799 177.583 949.716 182.833 938.383 185.5C947.049 188.5 954.799 193.583 961.633 200.75C968.633 207.917 974.383 216.75 978.883 227.25C983.383 237.75 986.383 249.667 987.883 263H949.883C948.883 251.167 946.299 240.5 942.133 231C937.966 221.333 931.716 213.667 923.383 208C918.383 204.5 912.466 201.75 905.633 199.75C898.966 197.75 891.383 196.75 882.883 196.75V263H847.633ZM882.883 168.25H911.883C921.049 168.25 928.049 165.75 932.883 160.75C937.716 155.75 940.133 149.583 940.133 142.25C940.133 134.75 937.633 128.667 932.633 124C927.799 119.333 920.883 117 911.883 117H882.883V168.25ZM1065.19 264.75C1053.02 264.75 1042.27 261.75 1032.94 255.75C1023.61 249.583 1016.27 241.167 1010.94 230.5C1005.61 219.667 1002.94 207.417 1002.94 193.75C1002.94 179.917 1005.61 167.667 1010.94 157C1016.27 146.333 1023.61 138 1032.94 132C1042.27 125.833 1053.02 122.75 1065.19 122.75C1076.19 122.75 1085.77 125.583 1093.94 131.25C1102.11 136.917 1108.02 144.75 1111.69 154.75V124.5H1147.19V263H1130.19C1124.52 263 1120.02 261.333 1116.69 258C1113.36 254.5 1111.69 249.917 1111.69 244.25V232.5C1108.02 242.667 1102.11 250.583 1093.94 256.25C1085.77 261.917 1076.19 264.75 1065.19 264.75ZM1075.19 234C1081.69 234 1087.69 232.417 1093.19 229.25C1098.69 226.083 1103.11 221.5 1106.44 215.5C1109.94 209.5 1111.69 202.25 1111.69 193.75C1111.69 185.083 1109.94 177.75 1106.44 171.75C1103.11 165.75 1098.69 161.25 1093.19 158.25C1087.69 155.083 1081.69 153.5 1075.19 153.5C1069.02 153.5 1063.11 155.083 1057.44 158.25C1051.94 161.25 1047.44 165.75 1043.94 171.75C1040.61 177.75 1038.94 185.083 1038.94 193.75C1038.94 202.25 1040.61 209.5 1043.94 215.5C1047.44 221.5 1051.94 226.083 1057.44 229.25C1063.11 232.417 1069.02 234 1075.19 234ZM1273.37 261.75V124.5H1308.62V261.75C1308.62 271.25 1307.12 280.167 1304.12 288.5C1301.29 296.833 1296.96 304.167 1291.12 310.5C1285.29 316.833 1277.96 321.75 1269.12 325.25C1260.46 328.917 1250.21 330.75 1238.37 330.75C1227.37 330.75 1217.37 328.917 1208.37 325.25C1199.37 321.583 1191.62 316.25 1185.12 309.25C1178.79 302.25 1174.04 293.583 1170.87 283.25L1202.12 272.5C1205.29 280.833 1209.71 287.5 1215.37 292.5C1221.21 297.667 1228.54 300.25 1237.37 300.25C1248.54 300.25 1257.29 296.833 1263.62 290C1270.12 283.167 1273.37 273.75 1273.37 261.75ZM1279.12 200C1278.79 212.833 1277.12 223.333 1274.12 231.5C1271.12 239.667 1267.21 246 1262.37 250.5C1257.71 254.833 1252.62 257.833 1247.12 259.5C1241.79 261.167 1236.54 262 1231.37 262C1220.54 262 1211.04 259.667 1202.87 255C1194.71 250.333 1188.37 243.583 1183.87 234.75C1179.37 225.917 1177.12 215.167 1177.12 202.5V124.5H1211.87V196.75C1211.87 207.917 1214.71 216.583 1220.37 222.75C1226.04 228.75 1233.46 231.75 1242.62 231.75C1248.96 231.75 1254.46 230.167 1259.12 227C1263.79 223.667 1267.29 219.167 1269.62 213.5C1272.12 207.833 1273.37 201.417 1273.37 194.25L1279.12 200Z" fill="#137547"/>
<path d="M90.1274 32C79.36 37.2311 69.8255 43.7504 62.4511 52.5221C69.8963 56.6668 82.6801 61.1834 88.6723 70.382C95.7508 60.7602 102.719 57.1723 118.714 50.8105C110.451 43.6599 102.611 36.2149 90.1274 32ZM268.288 42.6447L205.369 103.283C211.362 108.873 216.189 115.519 219.853 122.783L304.446 99.3344C296.506 78.1554 284.283 58.7595 268.288 42.6447ZM179.358 53.9037C143.371 53.2036 112.971 65.7014 98.5032 79.6909C127.965 117.694 114.307 169.486 127.273 191.222C183.002 175.77 196.14 118.347 179.358 53.9037ZM7.75017 58.1205C-13.465 132.725 6.19104 203.869 100.278 203.869L44.1379 258.68C57.4161 275.555 73.7111 289.14 91.8374 298.97L124.473 214.239C122.736 212.97 121.014 211.584 119.307 210.016C107.371 200.349 101.311 186.151 98.8969 173.42C96.1591 158.981 96.2785 145.117 94.6638 132.115C93.6177 123.692 92.1138 115.591 89.7951 108.049C78.9548 80.7914 56.7923 58.1205 7.75017 58.1205ZM313.235 133.297L227.506 157.059C227.375 161.984 226.752 166.771 225.689 171.389L307.076 208.089C312.188 192.157 315 175.126 315 157.399C314.996 149.279 314.399 141.224 313.235 133.297ZM209.654 202.484C206.489 206.026 202.996 209.233 199.187 212.025L235.194 297.595C258.966 284.062 278.917 264.14 292.925 240.036L209.654 202.484ZM167.539 224.316C165.373 224.537 163.179 224.662 160.957 224.662C159.552 224.657 158.194 224.597 156.831 224.541L123.282 311.65C135.815 315.107 148.823 316.973 162.051 317C176.589 317 190.636 314.84 203.959 310.886L167.539 224.316Z" fill="#137547"/>
</svg>
