<?xml version="1.0" standalone="no"?>
<!DOCTYPE svg PUBLIC "-//W3C//DTD SVG 20010904//EN"
 "http://www.w3.org/TR/2001/REC-SVG-20010904/DTD/svg10.dtd">
<svg version="1.0" xmlns="http://www.w3.org/2000/svg"
 width="1766.000000pt" height="430.000000pt" viewBox="0 0 1766.000000 430.000000"
 preserveAspectRatio="xMidYMid meet">

<g transform="translate(0.000000,430.000000) scale(0.100000,-0.100000)"
fill="#000000" stroke="none">
<path d="M8500 4081 c-212 -16 -424 -74 -605 -168 -286 -147 -474 -397 -550
-733 -25 -106 -25 -378 0 -486 45 -205 115 -337 245 -464 141 -137 328 -237
600 -321 154 -48 179 -55 300 -88 63 -18 129 -37 145 -42 17 -6 68 -21 115
-34 149 -41 237 -78 332 -138 68 -44 114 -96 146 -165 21 -48 24 -64 20 -140
-5 -106 -32 -165 -107 -235 -145 -136 -414 -186 -736 -137 -144 22 -164 27
-313 76 -160 53 -311 134 -466 248 -49 36 -94 66 -98 66 -5 0 -18 -21 -29 -47
-11 -27 -24 -57 -29 -68 -44 -99 -210 -517 -210 -529 0 -33 191 -167 345 -241
335 -161 707 -235 1115 -222 423 14 756 138 990 368 156 153 244 317 297 554
22 101 25 390 5 475 -55 222 -113 337 -236 468 -160 169 -407 289 -821 397
-276 72 -332 88 -450 127 -154 52 -245 98 -306 155 -73 69 -93 118 -93 233 -1
88 2 100 31 156 58 111 182 192 348 230 99 22 346 25 450 5 90 -17 210 -48
255 -65 171 -67 249 -104 359 -170 66 -41 92 -52 99 -43 6 7 25 53 42 102 18
50 44 119 57 155 13 36 36 101 52 145 16 44 42 115 60 158 23 58 28 83 21 97
-22 42 -258 158 -440 218 -264 86 -622 126 -940 103z"/>
<path d="M312 4020 l-22 -9 2 -1171 c2 -761 6 -1171 13 -1172 5 -1 41 46 80
103 141 210 373 417 604 540 35 19 67 43 71 54 4 11 7 386 6 833 -1 683 -4
814 -15 822 -19 11 -710 11 -739 0z"/>
<path d="M2608 4020 c-17 -10 -18 -50 -18 -609 0 -530 2 -600 15 -605 9 -3 48
1 88 9 40 8 162 33 272 55 331 66 376 78 389 99 12 18 7 1034 -5 1046 -14 14
-718 19 -741 5z"/>
<path d="M6860 4019 c-295 -7 -349 -15 -635 -96 -313 -88 -583 -208 -1050
-467 -60 -34 -173 -92 -250 -130 -77 -39 -142 -71 -144 -73 -2 -1 11 -40 29
-85 18 -46 50 -132 72 -193 51 -144 99 -267 110 -282 7 -9 18 -7 46 5 84 39
394 204 482 257 255 155 600 330 689 350 28 6 31 4 31 -17 -1 -13 -7 -39 -14
-58 -7 -19 -46 -123 -85 -230 -40 -107 -79 -209 -87 -227 -7 -17 -14 -37 -14
-45 0 -7 -6 -22 -13 -33 -7 -11 -23 -51 -36 -90 -13 -38 -27 -74 -31 -80 -5
-5 -13 -26 -18 -45 -6 -19 -42 -118 -81 -219 -38 -101 -73 -196 -76 -212 -4
-16 -11 -31 -16 -34 -5 -4 -9 -13 -9 -22 0 -8 -7 -29 -15 -46 -15 -33 -57
-144 -80 -212 -8 -22 -22 -62 -33 -90 -11 -27 -40 -106 -66 -175 -26 -69 -51
-133 -56 -142 -15 -26 -14 -31 34 -157 24 -64 81 -219 126 -346 44 -126 103
-289 131 -361 27 -72 49 -138 49 -146 0 -21 28 -44 39 -32 11 11 39 80 86 209
19 55 39 109 44 120 9 20 96 245 132 340 15 41 95 254 165 445 7 19 22 58 32
85 11 28 54 142 97 255 43 113 87 228 97 255 11 28 30 79 43 115 14 36 35 94
48 130 14 36 41 110 61 165 20 55 41 109 46 120 7 15 224 592 296 785 7 19 29
78 49 130 19 52 61 163 91 245 30 83 67 177 81 210 14 33 27 75 27 95 l1 35
-85 0 c-47 0 -200 -3 -340 -6z"/>
<path d="M11592 4013 c-10 -10 -25 -34 -32 -53 -7 -19 -21 -53 -30 -75 -10
-22 -29 -69 -43 -105 -107 -277 -236 -601 -268 -675 -4 -11 -25 -63 -45 -115
-20 -52 -74 -189 -119 -305 -46 -115 -113 -286 -150 -380 -122 -309 -376 -950
-385 -970 -12 -25 -85 -209 -117 -295 -13 -36 -48 -126 -78 -200 -29 -74 -79
-200 -110 -280 -31 -80 -67 -172 -80 -205 -17 -43 -21 -63 -13 -72 8 -10 96
-13 394 -13 l383 0 12 22 c13 23 40 95 109 288 71 198 170 453 181 466 10 12
142 14 775 14 l764 0 14 -22 c7 -13 44 -104 81 -203 37 -99 82 -218 100 -265
18 -47 50 -128 70 -180 20 -52 42 -101 47 -107 16 -20 797 -19 804 1 7 18 -7
57 -99 286 -176 435 -267 663 -312 780 -46 122 -64 165 -158 395 -25 61 -88
220 -142 355 -53 135 -119 301 -147 370 -28 69 -72 179 -99 245 -119 301 -154
389 -205 520 -31 77 -68 172 -84 210 -31 75 -136 335 -192 475 -24 60 -41 88
-58 97 -19 10 -117 13 -386 13 -331 0 -363 -2 -382 -17z m398 -891 c0 -10 4
-22 9 -27 5 -6 23 -50 40 -100 78 -218 120 -335 145 -400 15 -38 33 -86 41
-105 7 -19 20 -53 28 -75 9 -22 32 -87 52 -145 20 -58 41 -116 47 -130 6 -14
28 -72 49 -130 72 -201 82 -225 92 -238 8 -10 7 -16 -4 -23 -8 -5 -232 -9
-515 -9 -438 0 -503 2 -508 15 -5 14 14 71 76 230 34 88 79 209 92 250 7 22
64 175 126 340 147 392 180 482 192 528 11 38 38 52 38 19z"/>
<path d="M14255 4023 c-11 -3 -23 -10 -27 -17 -4 -6 -8 -844 -8 -1861 0 -1427
3 -1854 12 -1863 9 -9 105 -12 369 -12 197 0 364 3 373 6 14 6 16 114 16 1128
0 618 3 1125 6 1129 11 11 117 -130 444 -593 116 -165 166 -235 217 -305 12
-16 40 -55 61 -85 21 -30 88 -124 148 -208 60 -84 128 -181 152 -215 24 -34
76 -107 116 -162 40 -55 86 -119 102 -141 33 -47 134 -187 229 -319 36 -49 81
-114 101 -143 67 -97 44 -92 393 -92 226 0 310 3 319 12 9 9 12 438 12 1870
l0 1858 -23 9 c-24 9 -732 10 -741 0 -3 -3 -6 -491 -7 -1085 -1 -593 -4 -1094
-6 -1111 -6 -38 -14 -41 -28 -14 -6 11 -71 103 -145 206 -74 102 -142 196
-150 208 -31 47 -166 235 -215 302 -29 39 -135 186 -236 329 -101 142 -200
280 -219 307 -19 27 -79 110 -132 186 -53 76 -133 188 -178 248 -44 61 -129
179 -188 263 -92 132 -111 154 -142 162 -35 10 -587 12 -625 3z"/>
<path d="M3980 2944 c-100 -38 -227 -80 -315 -104 -44 -12 -100 -28 -125 -36
-56 -16 -314 -78 -395 -94 -33 -7 -109 -23 -170 -35 -60 -13 -175 -35 -255
-50 -846 -156 -1237 -265 -1557 -436 -298 -159 -493 -332 -647 -573 -115 -181
-191 -411 -216 -654 -15 -149 -13 -665 2 -680 18 -18 741 -17 756 1 7 8 12
147 14 387 l4 375 28 89 c113 370 341 544 951 729 28 9 68 19 90 23 22 3 47
10 56 15 9 4 43 13 75 19 32 5 113 21 179 34 89 18 122 22 127 13 4 -7 8 -386
8 -843 0 -691 2 -833 14 -843 9 -8 118 -11 382 -9 l369 3 5 927 c3 509 8 929
12 933 6 6 151 46 238 65 118 26 337 89 485 140 148 51 165 58 165 69 0 21
-195 540 -207 552 -4 4 -37 -4 -73 -17z"/>
</g>
</svg>
