<svg width="40" height="40" viewBox="0 0 40 40" fill="none" xmlns="http://www.w3.org/2000/svg">
<rect width="40" height="40" fill="#444444"/>
<path d="M19.213 18.0742C19.4453 11.3427 18.7945 5.25059 18.4464 2.57412C18.3882 2.12705 17.7966 2.04019 17.5918 2.44182C13.3716 10.7179 9.98548 13.7109 1.42603 17.5909C1.00377 17.7823 1.0858 18.3968 1.54605 18.4526C4.44017 18.8033 10.9404 19.448 18.0742 19.2109C18.694 19.1902 19.1917 18.6939 19.213 18.0742Z" fill="#EE1D1E"/>
<path d="M10.2868 5.2677C11.8355 6.81628 11.373 8.86465 9.82441 10.4133C8.27579 11.9619 6.22746 12.4243 4.67884 10.8757C3.13023 9.32707 2.6678 6.35385 4.21641 4.80527C5.76503 3.25665 8.73821 3.71908 10.2868 5.2677Z" fill="#EF1D1E"/>
<path d="M20.787 18.0742C20.5547 11.3427 21.2055 5.25059 21.5536 2.57412C21.6118 2.12705 22.2034 2.04019 22.4082 2.44182C26.6284 10.7179 30.0145 13.7109 38.574 17.5909C38.9963 17.7823 38.9142 18.3968 38.454 18.4526C35.5598 18.8033 29.0596 19.448 21.9258 19.2109C21.306 19.1902 20.8083 18.6939 20.787 18.0742Z" fill="#FFA10C"/>
<path d="M29.7132 5.2677C28.1645 6.81628 28.627 8.86465 30.1756 10.4133C31.7242 11.9619 33.7726 12.4243 35.3212 10.8757C36.8698 9.32707 37.3322 6.35385 35.7836 4.80527C34.235 3.25665 31.2618 3.71908 29.7132 5.2677Z" fill="#FFA10C"/>
<path d="M19.213 21.9258C19.4453 28.6573 18.7945 34.7494 18.4464 37.4259C18.3882 37.8729 17.7966 37.9598 17.5918 37.5582C13.3716 29.2821 9.98548 26.2891 1.42603 22.4091C1.00377 22.2177 1.0858 21.6032 1.54605 21.5474C4.44017 21.1967 10.9404 20.552 18.0742 20.7891C18.694 20.8098 19.1917 21.3061 19.213 21.9258Z" fill="#2E9FE5"/>
<path d="M10.2868 34.7323C11.8355 33.1837 11.373 31.1354 9.82441 29.5867C8.27579 28.0381 6.22746 27.5757 4.67884 29.1243C3.13023 30.6729 2.6678 33.6461 4.21641 35.1947C5.76503 36.7434 8.73821 36.2809 10.2868 34.7323Z" fill="#2E9FE5"/>
<path d="M20.787 21.9258C20.5547 28.6573 21.2055 34.7494 21.5536 37.4259C21.6118 37.8729 22.2034 37.9598 22.4082 37.5582C26.6284 29.2821 30.0145 26.2891 38.574 22.4091C38.9963 22.2177 38.9142 21.6032 38.454 21.5474C35.5598 21.1967 29.0596 20.552 21.9258 20.7891C21.306 20.8098 20.8083 21.3061 20.787 21.9258Z" fill="#86CE23"/>
<path d="M29.7132 34.7323C28.1645 33.1837 28.627 31.1354 30.1756 29.5867C31.7242 28.0381 33.7726 27.5757 35.3212 29.1243C36.8698 30.6729 37.3322 33.6461 35.7836 35.1947C34.235 36.7434 31.2618 36.2809 29.7132 34.7323Z" fill="#86CE24"/>
</svg>
