<svg width="6579" height="1200" viewBox="0 0 6579 1200" fill="none" xmlns="http://www.w3.org/2000/svg">
<path d="M1207.48 600.01H1045.3C1045.3 358.029 847.208 161.172 603.738 161.172V0C936.649 0.0234773 1207.48 269.191 1207.48 600.01Z" fill="#F9A400"/>
<path d="M1207.48 600.01H1045.3C1045.3 358.029 847.208 161.172 603.738 161.172V0C936.649 0.0234773 1207.48 269.191 1207.48 600.01Z" fill="#F9A400"/>
<path d="M603.739 1200C270.828 1200 0.000244141 930.856 0.000244141 600.014H162.18C162.18 841.971 360.269 1038.83 603.763 1038.83V1200H603.739Z" fill="#007EE5"/>
<path d="M603.738 1200V1038.83C847.208 1038.83 1045.3 841.971 1045.3 600.014H1207.48C1207.48 930.856 936.649 1200 603.738 1200Z" fill="#008C44"/>
<path d="M162.18 600.144H0.000244141C0.000244141 269.302 270.827 0.157715 603.739 0.157715V161.329C360.269 161.329 162.18 358.187 162.18 600.144Z" fill="#F1352C"/>
<path d="M1747.49 312.928C1814.88 312.928 1875.01 326.941 1927.89 354.966C1981.8 382.992 2023.79 424.511 2053.85 479.524C2083.92 534.537 2098.95 600.968 2098.95 678.816V1184.83H1923.22V705.285C1923.22 628.474 1904.04 569.828 1865.68 529.347C1827.32 487.828 1774.96 467.068 1708.61 467.068C1642.26 467.068 1589.39 487.828 1549.99 529.347C1511.63 569.828 1492.45 628.474 1492.45 705.285V1184.83H1315.16V326.941H1492.45V425.03C1521.48 389.738 1558.28 362.232 1602.86 342.51C1648.48 322.789 1696.69 312.928 1747.49 312.928Z" fill="#007EE5"/>
<path d="M3032.67 734.867C3032.67 767.045 3030.6 796.108 3026.45 822.058H2371.74C2376.93 890.564 2402.33 945.578 2447.94 987.097C2493.56 1028.62 2549.55 1049.38 2615.9 1049.38C2711.28 1049.38 2778.67 1009.41 2818.06 929.489H3009.35C2983.43 1008.38 2936.25 1073.25 2867.83 1124.11C2800.44 1173.93 2716.46 1198.84 2615.9 1198.84C2533.99 1198.84 2460.38 1180.68 2395.07 1144.35C2330.79 1106.98 2279.99 1055.08 2242.67 988.654C2206.38 921.185 2188.24 843.336 2188.24 755.108C2188.24 666.879 2205.86 589.55 2241.11 523.119C2277.4 455.65 2327.68 403.751 2391.96 367.422C2457.27 331.093 2531.92 312.928 2615.9 312.928C2696.76 312.928 2768.82 330.574 2832.06 365.865C2895.3 401.156 2944.55 450.979 2979.8 515.334C3015.05 578.651 3032.67 651.829 3032.67 734.867ZM2847.61 678.816C2846.58 613.424 2823.25 561.005 2777.63 521.562C2732.01 482.119 2675.51 462.397 2608.12 462.397C2546.95 462.397 2494.6 482.119 2451.05 521.562C2407.51 559.967 2381.59 612.385 2373.3 678.816H2847.61Z" fill="#007EE5"/>
<path d="M3070.29 641.449C3070.29 535.575 3094.65 440.6 3143.38 356.523C3193.14 272.447 3260.01 207.054 3343.99 160.344C3429 112.597 3521.79 88.7238 3622.36 88.7238C3737.44 88.7238 3839.56 117.268 3928.72 174.357C4018.92 230.408 4084.23 310.333 4124.67 414.131H3911.61C3883.62 357.042 3844.74 314.485 3794.98 286.459C3745.21 258.434 3687.67 244.421 3622.36 244.421C3550.82 244.421 3487.06 260.51 3431.08 292.687C3375.09 324.865 3331.03 371.055 3298.89 431.258C3267.79 491.461 3252.24 561.524 3252.24 641.449C3252.24 721.374 3267.79 791.437 3298.89 851.64C3331.03 911.843 3375.09 958.552 3431.08 991.768C3487.06 1023.95 3550.82 1040.03 3622.36 1040.03C3687.67 1040.03 3745.21 1026.02 3794.98 997.996C3844.74 969.97 3883.62 927.413 3911.61 870.324H4124.67C4084.23 974.122 4018.92 1054.05 3928.72 1110.1C3839.56 1166.15 3737.44 1194.17 3622.36 1194.17C3520.76 1194.17 3427.97 1170.82 3343.99 1124.11C3260.01 1076.36 3193.14 1010.45 3143.38 926.375C3094.65 842.298 3070.29 747.323 3070.29 641.449Z" fill="#007EE5"/>
<path d="M4697.63 312.928C4762.95 312.928 4821.01 326.941 4871.81 354.966C4923.65 382.992 4964.08 424.511 4993.11 479.524C5023.18 534.537 5038.21 600.968 5038.21 678.816V1184.83H4862.48V705.285C4862.48 628.474 4843.3 569.828 4804.94 529.347C4766.58 487.828 4714.22 467.068 4647.87 467.068C4581.52 467.068 4528.64 487.828 4489.25 529.347C4450.89 569.828 4431.71 628.474 4431.71 705.285V1184.83H4254.42V32.6729H4431.71V426.587C4461.77 390.257 4499.61 362.232 4545.23 342.51C4591.89 322.789 4642.69 312.928 4697.63 312.928Z" fill="#007EE5"/>
<path d="M5127.49 751.994C5127.49 665.841 5145.12 589.55 5180.37 523.119C5216.66 456.688 5265.38 405.308 5326.55 368.979C5388.76 331.611 5457.18 312.928 5531.83 312.928C5599.22 312.928 5657.79 326.422 5707.56 353.409C5758.36 379.359 5798.79 412.055 5828.86 451.498V326.941H6007.7V1184.83H5828.86V1057.16C5798.79 1097.64 5757.84 1131.38 5706 1158.36C5654.17 1185.35 5595.07 1198.84 5528.72 1198.84C5455.11 1198.84 5387.72 1180.16 5326.55 1142.79C5265.38 1104.39 5216.66 1051.45 5180.37 983.983C5145.12 915.476 5127.49 838.146 5127.49 751.994ZM5828.86 755.108C5828.86 695.943 5816.42 644.563 5791.54 600.968C5767.69 557.372 5736.07 524.157 5696.67 501.321C5657.28 478.486 5614.77 467.068 5569.15 467.068C5523.53 467.068 5481.03 478.486 5441.63 501.321C5402.23 523.119 5370.1 555.816 5345.21 599.411C5321.37 641.968 5309.44 692.829 5309.44 751.994C5309.44 811.159 5321.37 863.058 5345.21 907.691C5370.1 952.324 5402.23 986.578 5441.63 1010.45C5482.06 1033.29 5524.57 1044.7 5569.15 1044.7C5614.77 1044.7 5657.28 1033.29 5696.67 1010.45C5736.07 987.616 5767.69 954.4 5791.54 910.805C5816.42 866.172 5828.86 814.273 5828.86 755.108Z" fill="#007EE5"/>
<path d="M6369.63 471.739V946.615C6369.63 978.793 6376.89 1002.15 6391.4 1016.68C6406.95 1030.17 6432.87 1036.92 6469.16 1036.92H6578.02V1184.83H6438.06C6358.23 1184.83 6297.06 1166.15 6254.55 1128.78C6212.04 1091.41 6190.79 1030.69 6190.79 946.615V471.739H6089.71V326.941H6190.79V113.635H6369.63V326.941H6578.02V471.739H6369.63Z" fill="#007EE5"/>
</svg>
