<svg width="38" height="38" viewBox="0 0 38 38" fill="none" xmlns="http://www.w3.org/2000/svg">
  <path d="M35.6982 6.66488C34.0133 4.97953 31.5714 4.13686 28.9727 4.13686C26.374 4.13686 23.9305 4.97953 22.2473 6.66488C20.5624 8.34876 19.7201 10.7917 19.7201 13.3913C19.7201 15.9909 20.5624 18.4354 22.2473 20.1193C23.9321 21.8047 26.374 22.6473 28.9727 22.6473C31.5714 22.6473 34.0149 21.8047 35.6982 20.1193C37.3831 18.4354 38.2254 15.9925 38.2254 13.3913C38.2254 10.7917 37.3831 8.34876 35.6982 6.66488Z" fill="#8A57DE"/>
  <path d="M13.1462 17.8652C15.0274 17.8652 16.5486 16.3435 16.5486 14.4616C16.5486 12.5797 15.0274 11.0581 13.1462 11.0581C11.265 11.0581 9.74375 12.5797 9.74375 14.4616C9.74375 16.3435 11.265 17.8652 13.1462 17.8652Z" fill="#8A57DE"/>
  <path d="M6.33987 30.0288C8.22104 30.0288 9.74229 28.5071 9.74229 26.6252C9.74229 24.7433 8.22104 23.2217 6.33987 23.2217C4.4587 23.2217 2.93745 24.7433 2.93745 26.6252C2.93745 28.5071 4.4587 30.0288 6.33987 30.0288Z" fill="#8A57DE"/>
  <path d="M13.1462 35.6095C15.0274 35.6095 16.5486 34.0878 16.5486 32.2059C16.5486 30.324 15.0274 28.8024 13.1462 28.8024C11.265 28.8024 9.74375 30.324 9.74375 32.2059C9.74375 34.0878 11.265 35.6095 13.1462 35.6095Z" fill="#8A57DE"/>
</svg>
