<svg width="292" height="295" viewBox="0 0 292 295" fill="none" xmlns="http://www.w3.org/2000/svg">
<path d="M77.0157 33.9942C81.2132 33.9942 84.6159 30.5663 84.6159 26.3378C84.6159 22.1093 81.2132 18.6814 77.0157 18.6814C72.8183 18.6814 69.4155 22.1093 69.4155 26.3378C69.4155 30.5663 72.8183 33.9942 77.0157 33.9942Z" fill="black"/>
<path d="M26.1448 85.2412C30.3423 85.2412 33.745 81.8133 33.745 77.5847C33.745 73.3562 30.3423 69.9282 26.1448 69.9282C21.9473 69.9282 18.5446 73.3562 18.5446 77.5847C18.5446 81.8133 21.9473 85.2412 26.1448 85.2412Z" fill="black"/>
<path d="M7.60028 155.067C11.7978 155.067 15.2006 151.64 15.2006 147.411C15.2006 143.183 11.7978 139.755 7.60028 139.755C3.40276 139.755 0 143.183 0 147.411C0 151.64 3.40276 155.067 7.60028 155.067Z" fill="black"/>
<path d="M78.2317 275.937C82.4292 275.937 85.8319 272.509 85.8319 268.28C85.8319 264.052 82.4292 260.624 78.2317 260.624C74.0342 260.624 70.6314 264.052 70.6314 268.28C70.6314 272.509 74.0342 275.937 78.2317 275.937Z" fill="black"/>
<path d="M147.343 294.108C151.541 294.108 154.944 290.68 154.944 286.451C154.944 282.223 151.541 278.795 147.343 278.795C143.146 278.795 139.743 282.223 139.743 286.451C139.743 290.68 143.146 294.108 147.343 294.108Z" fill="black"/>
<path d="M216.151 274.916C220.348 274.916 223.751 271.488 223.751 267.259C223.751 263.031 220.348 259.603 216.151 259.603C211.953 259.603 208.55 263.031 208.55 267.259C208.55 271.488 211.953 274.916 216.151 274.916Z" fill="black"/>
<path d="M283.539 154.251C287.737 154.251 291.14 150.823 291.14 146.595C291.14 142.366 287.737 138.938 283.539 138.938C279.342 138.938 275.939 142.366 275.939 146.595C275.939 150.823 279.342 154.251 283.539 154.251Z" fill="black"/>
<path d="M264.792 85.2412C268.99 85.2412 272.393 81.8133 272.393 77.5847C272.393 73.3562 268.99 69.9282 264.792 69.9282C260.595 69.9282 257.192 73.3562 257.192 77.5847C257.192 81.8133 260.595 85.2412 264.792 85.2412Z" fill="black"/>
<path d="M221.509 29.4453C222.705 25.3918 220.413 21.1293 216.389 19.9245C212.365 18.7198 208.134 21.0292 206.938 25.0827C205.742 29.1361 208.035 33.3987 212.059 34.6034C216.082 35.8081 220.314 33.4988 221.509 29.4453Z" fill="black"/>
<path d="M217.029 26.348L5.59045 147.01L7.28871 150.03L218.727 29.368L217.029 26.348Z" fill="black"/>
<path d="M286.34 146.541L74.9018 267.203L76.6001 270.223L288.039 149.561L286.34 146.541Z" fill="black"/>
<path d="M287.119 144.316L213.687 24.4294L210.927 26.1448L284.36 146.032L287.119 144.316Z" fill="black"/>
<path d="M79.8426 267.494L6.41031 147.607L3.65071 149.322L77.083 269.209L79.8426 267.494Z" fill="black"/>
<path d="M267.825 75.1591L24.8201 76.5415L24.8395 80.0125L267.844 78.6301L267.825 75.1591Z" fill="black"/>
<path d="M26.21 218.018L26.6702 77.1409L23.4275 77.1301L22.9672 218.008L26.21 218.018Z" fill="black"/>
<path d="M267.524 217.485L267.985 76.6069L264.742 76.5962L264.282 217.474L267.524 217.485Z" fill="black"/>
<path d="M286.645 149.609L78.1714 23.8059L76.4008 26.7836L284.875 152.587L286.645 149.609Z" fill="black"/>
<path d="M217.331 269.806L8.85675 144.003L7.08613 146.981L215.56 272.784L217.331 269.806Z" fill="black"/>
<path d="M7.3815 147.092L79.0658 26.1204L76.2812 24.4458L4.59693 145.417L7.3815 147.092Z" fill="black"/>
<path d="M217.004 269.673L288.688 148.701L285.904 147.027L214.219 267.999L217.004 269.673Z" fill="black"/>
<path d="M151.761 288.19L27.8283 77.6125L24.8645 79.3827L148.797 289.96L151.761 288.19Z" fill="black"/>
<path d="M25.6874 78.5511L146.597 7.77417L144.968 4.94976L24.0583 75.7267L25.6874 78.5511Z" fill="black"/>
<path d="M146.808 287.148L267.717 216.371L266.088 213.546L145.179 284.323L146.808 287.148Z" fill="black"/>
<path d="M221.355 269.927L216.583 25.175L213.138 25.2432L217.91 269.995L221.355 269.927Z" fill="black"/>
<path d="M82.3683 272.779L77.5959 28.0271L74.1512 28.0953L78.9236 272.847L82.3683 272.779Z" fill="black"/>
<path d="M76.5058 28.6009L216.308 24.9651L216.224 21.6994L76.4221 25.3352L76.5058 28.6009Z" fill="black"/>
<path d="M79.1794 272.74L218.982 269.104L218.898 265.838L79.0957 269.474L79.1794 272.74Z" fill="black"/>
<path d="M147.171 292.687L266.195 79.2703L263.191 77.5702L144.167 290.987L147.171 292.687Z" fill="black"/>
<path d="M27.8033 219.682L146.827 6.2644L143.823 4.56436L24.7996 217.982L27.8033 219.682Z" fill="#4FBA6F"/>
<path d="M266.231 78.0978L148.188 2.55908L146.449 5.31653L264.492 80.8552L266.231 78.0978Z" fill="black"/>
<path d="M146.237 288.269L27.1037 214.492L25.4054 217.275L144.539 291.052L146.237 288.269Z" fill="black"/>
<path d="M146.33 15.3128C150.527 15.3128 153.93 11.8849 153.93 7.6564C153.93 3.42789 150.527 0 146.33 0C142.132 0 138.729 3.42789 138.729 7.6564C138.729 11.8849 142.132 15.3128 146.33 15.3128Z" fill="#4FBA6F"/>
<path d="M26.8542 224.894C31.0517 224.894 34.4544 221.466 34.4544 217.237C34.4544 213.009 31.0517 209.581 26.8542 209.581C22.6567 209.581 19.254 213.009 19.254 217.237C19.254 221.466 22.6567 224.894 26.8542 224.894Z" fill="#4FBA6F"/>
<path d="M267.825 214.814L24.8199 216.197L24.8394 219.668L267.844 218.285L267.825 214.814Z" fill="#4FBA6F"/>
<path d="M266.312 223.771C270.51 223.771 273.912 220.343 273.912 216.114C273.912 211.886 270.51 208.458 266.312 208.458C262.115 208.458 258.712 211.886 258.712 216.114C258.712 220.343 262.115 223.771 266.312 223.771Z" fill="#4FBA6F"/>
<path d="M271.996 218.224L148.064 7.64624L145.1 9.41639L269.032 219.994L271.996 218.224Z" fill="#4FBA6F"/>
</svg>
