<svg width="40" height="40" viewBox="0 0 40 40" fill="none" xmlns="http://www.w3.org/2000/svg">
<circle cx="20" cy="20" r="20" fill="#5B21B6"/>
<path fill-rule="evenodd" clip-rule="evenodd" d="M28.128 28.128C30.284 25.9721 31.4967 23.049 31.5 20C31.5 16.95 30.2884 14.0249 28.1317 11.8683C25.9751 9.7116 23.05 8.5 20 8.5C16.95 8.5 14.0249 9.7116 11.8683 11.8683C9.7116 14.0249 8.5 16.95 8.5 20V29.66C8.5 30.148 8.69386 30.616 9.03892 30.9611C9.38399 31.3061 9.852 31.5 10.34 31.5H20C23.049 31.4967 25.9721 30.284 28.128 28.128ZM28.4735 19.3252C28.4172 18.6095 27.7913 18.0749 27.0755 18.1313C26.3597 18.1876 25.8252 18.8135 25.8815 19.5293C25.8937 19.6844 25.9 19.8414 25.9 20.0001C25.9 23.2586 23.2585 25.9001 20 25.9001C18.7561 25.9001 17.6058 25.5167 16.6557 24.8616C16.0646 24.454 15.2551 24.6028 14.8475 25.1939C14.4399 25.7849 14.5887 26.5945 15.1798 27.0021C16.55 27.9468 18.2123 28.5001 20 28.5001C24.6944 28.5001 28.5 24.6945 28.5 20.0001C28.5 19.7732 28.4911 19.5481 28.4735 19.3252Z" fill="white"/>
</svg>