<svg width="1144" height="295" viewBox="0 0 1144 295" fill="none" xmlns="http://www.w3.org/2000/svg">
<path d="M346.888 175.964C339.287 173.82 333.41 170.554 329.154 166.266C324.898 161.979 322.769 155.547 322.769 146.972C322.769 136.661 326.418 128.495 333.815 122.676C341.213 116.857 351.245 113.896 363.912 113.896C369.182 113.896 374.35 114.407 379.518 115.326C384.686 116.244 389.854 117.674 395.124 119.613C394.82 123.186 394.212 126.861 393.097 130.638C391.982 134.416 390.766 137.784 389.246 140.643C386.003 139.316 382.457 138.091 378.505 137.07C374.552 136.049 370.499 135.539 366.141 135.539C361.581 135.539 357.933 136.253 355.4 137.682C352.866 139.112 351.549 141.357 351.549 144.522C351.549 147.483 352.461 149.626 354.285 150.851C356.109 152.076 358.744 153.199 362.088 154.322L373.64 157.793C377.39 158.916 380.835 160.243 383.875 161.774C386.915 163.306 389.55 165.245 391.678 167.593C393.806 169.941 395.529 172.8 396.745 176.168C397.961 179.537 398.569 183.723 398.569 188.623C398.569 193.625 397.556 198.321 395.428 202.711C393.3 207.1 390.26 210.877 386.307 214.042C382.355 217.207 377.491 219.759 371.816 221.596C366.141 223.434 359.757 224.353 352.562 224.353C349.32 224.353 346.381 224.251 343.645 224.046C340.909 223.842 338.375 223.536 335.842 223.026C333.308 222.515 330.876 222.005 328.444 221.29C326.012 220.576 323.377 219.759 320.54 218.636C320.844 214.961 321.452 211.286 322.465 207.509C323.479 203.731 324.796 200.158 326.418 196.585C330.876 198.321 335.133 199.648 339.085 200.567C343.037 201.486 347.192 201.894 351.549 201.894C353.474 201.894 355.501 201.69 357.731 201.383C359.96 201.077 361.987 200.465 363.912 199.546C365.837 198.627 367.357 197.504 368.675 196.075C369.992 194.646 370.6 192.808 370.6 190.46C370.6 187.194 369.587 184.846 367.662 183.417C365.736 181.987 363 180.762 359.453 179.639L346.888 175.964Z" fill="black"/>
<path d="M407.081 116.551C410.223 115.836 413.162 115.428 415.898 115.326C418.634 115.224 420.965 115.122 422.89 115.122C425.626 115.122 428.261 115.224 430.794 115.326C433.328 115.428 435.76 115.836 438.09 116.347L454.912 194.34L474.369 116.347C478.524 115.53 483.185 115.122 488.151 115.122C491.697 115.224 494.535 115.428 496.866 115.53C499.196 115.632 501.223 115.939 502.946 116.347L521.997 192.911L538.616 116.347C540.947 115.939 543.075 115.632 545.102 115.428C547.128 115.224 549.459 115.122 551.993 115.122C553.918 115.122 556.147 115.224 558.782 115.326C561.417 115.428 564.356 115.836 567.598 116.551L534.968 221.903C532.536 222.311 529.901 222.618 527.165 222.72C524.429 222.822 522.098 222.924 520.173 222.924C518.146 222.924 515.917 222.822 513.383 222.72C510.85 222.618 508.519 222.209 506.189 221.699L487.137 151.872L467.478 221.903C464.945 222.311 462.208 222.618 459.472 222.72C456.736 222.822 454.406 222.924 452.48 222.924C450.555 222.924 448.427 222.822 445.893 222.72C443.36 222.618 441.029 222.209 438.698 221.699L407.081 116.551Z" fill="black"/>
<path d="M588.879 138.397H575.3C574.895 136.662 574.591 134.722 574.388 132.782C574.185 130.843 574.084 128.903 574.084 127.168C574.084 123.493 574.489 119.92 575.3 116.347H617.05V221.903C612.186 222.719 607.424 223.128 602.863 223.128C598.405 223.128 593.743 222.719 588.879 221.903V138.397ZM584.623 98.5839C583.812 93.99 583.407 89.3962 583.407 84.9044C583.407 80.5148 583.812 76.023 584.623 71.225C586.954 70.8167 589.386 70.5104 592.02 70.3063C594.655 70.1021 597.087 70 599.215 70C601.546 70 603.978 70.1021 606.714 70.3063C609.45 70.5104 611.882 70.8167 614.213 71.225C614.618 73.573 614.922 75.8189 615.024 78.0647C615.125 80.3106 615.226 82.5565 615.226 84.9044C615.226 87.0482 615.125 89.2941 615.024 91.6421C614.922 93.99 614.618 96.2359 614.213 98.5839C611.882 98.9922 609.45 99.2985 606.816 99.4005C604.181 99.5026 601.749 99.6047 599.418 99.6047C597.29 99.6047 594.858 99.5026 592.122 99.4005C589.487 99.2985 586.954 98.9922 584.623 98.5839Z" fill="black"/>
<path d="M648.262 138.397H635.088L634.075 134.314L671.975 85.5168H676.636V116.347H701.16C701.565 118.388 701.869 120.226 701.97 121.859C702.072 123.493 702.173 125.228 702.173 126.963C702.173 128.903 702.072 130.741 701.97 132.476C701.869 134.212 701.565 136.253 701.16 138.397H676.636V179.844C676.636 184.029 676.94 187.5 677.65 190.052C678.359 192.604 679.271 194.646 680.588 196.177C681.906 197.709 683.426 198.729 685.351 199.24C687.277 199.75 689.506 200.056 692.039 200.056C694.066 200.056 696.093 199.852 698.018 199.546C699.944 199.24 701.666 198.934 703.186 198.627C704.098 201.179 704.808 203.936 705.213 206.692C705.619 209.448 705.821 212 705.821 214.144C705.821 215.676 705.821 216.901 705.72 217.921C705.619 218.942 705.517 219.963 705.416 220.882C699.234 222.413 692.749 223.128 686.162 223.128C673.9 223.128 664.476 220.269 657.99 214.451C651.505 208.632 648.262 199.24 648.262 186.173V138.397Z" fill="black"/>
<path d="M793.376 196.994C794.997 199.75 796.315 202.915 797.429 206.488C798.544 210.061 799.051 214.348 799.051 219.248C793.68 221.392 788.613 222.821 783.85 223.434C779.087 224.046 774.223 224.353 769.055 224.353C760.239 224.353 752.639 222.923 746.153 220.167C739.667 217.411 734.297 213.532 730.041 208.632C725.784 203.731 722.542 197.913 720.414 191.175C718.285 184.437 717.171 177.087 717.171 169.227C717.171 161.468 718.184 154.22 720.312 147.585C722.44 140.949 725.582 135.028 729.838 130.026C734.094 125.024 739.363 121.042 745.748 118.184C752.132 115.326 759.428 113.896 767.839 113.896C770.778 113.896 773.514 113.999 776.047 114.101C778.581 114.203 780.911 114.509 783.242 114.917C785.573 115.326 787.802 115.836 790.133 116.551C792.464 117.265 794.997 118.082 797.835 119.205C797.835 122.37 797.429 125.84 796.619 129.72C795.808 133.599 794.491 137.274 792.768 140.847C788.714 139.52 785.168 138.601 782.127 138.091C779.087 137.58 775.642 137.376 771.69 137.376C763.279 137.376 756.996 140.132 752.74 145.645C748.484 151.158 746.356 159.018 746.356 169.227C746.356 180.252 748.686 188.317 753.247 193.319C757.807 198.321 764.09 200.873 771.892 200.873C773.919 200.873 775.743 200.873 777.466 200.771C779.189 200.669 780.81 200.567 782.431 200.261C784.053 199.954 785.674 199.546 787.397 199.036C789.12 198.525 791.146 197.811 793.376 196.994Z" fill="black"/>
<path d="M818.913 72.6542C821.243 72.2458 823.574 71.9396 826.006 71.8375C828.438 71.7354 830.769 71.6333 833.1 71.6333C835.431 71.6333 837.761 71.7354 840.193 71.8375C842.625 71.9396 845.058 72.2458 847.49 72.6542V128.801C848.402 127.576 849.719 126.147 851.239 124.411C852.759 122.676 854.684 121.043 857.015 119.511C859.346 117.98 862.082 116.653 865.325 115.53C868.568 114.407 872.317 113.897 876.472 113.897C888.125 113.897 896.942 117.163 902.921 123.697C908.899 130.23 911.94 140.541 911.94 154.527V222.107C909.507 222.515 907.075 222.822 904.643 222.924C902.211 223.026 899.88 223.128 897.55 223.128C895.219 223.128 892.888 223.026 890.456 222.924C888.024 222.822 885.592 222.515 883.16 222.107V162.285C883.16 154.935 882.045 149.32 879.715 145.339C877.384 141.358 873.533 139.418 867.959 139.418C865.629 139.418 863.298 139.724 860.866 140.439C858.434 141.153 856.204 142.48 854.279 144.42C852.354 146.36 850.732 149.116 849.415 152.689C848.098 156.262 847.49 160.856 847.49 166.573V222.107C845.058 222.515 842.625 222.822 840.193 222.924C837.761 223.026 835.431 223.128 833.1 223.128C830.769 223.128 828.438 223.026 826.108 222.924C823.777 222.822 821.345 222.515 818.913 222.107V72.6542Z" fill="black"/>
<path d="M982.267 224.353C974.16 224.353 967.067 222.924 960.987 220.167C954.906 217.411 949.84 213.532 945.786 208.632C941.733 203.732 938.693 197.913 936.767 191.277C934.842 184.642 933.828 177.394 933.828 169.635C933.828 161.877 934.842 154.629 936.767 147.993C938.693 141.358 941.733 135.539 945.786 130.639C949.84 125.739 954.906 121.859 960.987 119.001C967.067 116.143 974.16 114.713 982.267 114.713C990.374 114.713 997.468 116.143 1003.55 119.001C1009.63 121.859 1014.69 125.739 1018.75 130.639C1022.8 135.539 1025.84 141.358 1027.77 147.993C1029.69 154.629 1030.71 161.877 1030.71 169.635C1030.71 177.394 1029.69 184.642 1027.77 191.277C1025.84 197.913 1022.8 203.732 1018.75 208.632C1014.69 213.532 1009.63 217.411 1003.55 220.167C997.468 222.924 990.374 224.353 982.267 224.353ZM982.267 208.223C991.59 208.223 998.481 204.855 1002.94 198.015C1007.4 191.175 1009.63 181.783 1009.63 169.635C1009.63 157.487 1007.4 148.095 1002.94 141.358C998.481 134.62 991.59 131.251 982.267 131.251C972.944 131.251 966.053 134.62 961.696 141.358C957.338 148.095 955.109 157.487 955.109 169.635C955.109 181.783 957.338 191.175 961.696 198.015C966.155 204.855 972.944 208.223 982.267 208.223Z" fill="black"/>
<path d="M1057.05 117.163C1058.57 116.857 1059.99 116.653 1061.41 116.551C1062.83 116.449 1064.25 116.347 1065.77 116.347C1067.29 116.347 1068.61 116.449 1069.92 116.551C1071.24 116.653 1072.56 116.857 1074.08 117.163C1074.48 119.205 1074.89 121.961 1075.29 125.432C1075.7 128.903 1075.9 131.762 1075.9 134.11C1077.22 131.762 1078.94 129.516 1081.07 127.168C1083.2 124.82 1085.53 122.778 1088.26 120.941C1091 119.103 1094.04 117.572 1097.59 116.449C1101.13 115.326 1104.99 114.713 1109.14 114.713C1121 114.713 1129.81 118.184 1135.49 125.024C1141.16 131.864 1144 142.072 1144 155.547V221.903C1142.48 222.209 1140.86 222.413 1138.93 222.515C1137.01 222.617 1135.39 222.72 1133.87 222.72C1132.35 222.72 1130.72 222.617 1128.9 222.515C1127.08 222.413 1125.46 222.209 1123.94 221.903V161.06C1123.94 151.362 1122.42 144.318 1119.48 139.724C1116.54 135.13 1111.78 132.885 1105.29 132.885C1101.54 132.885 1097.89 133.599 1094.55 134.926C1091.2 136.253 1088.16 138.397 1085.63 141.256C1083.1 144.114 1080.97 147.789 1079.45 152.383C1077.93 156.977 1077.12 162.387 1077.12 168.819V221.903C1075.6 222.209 1073.98 222.413 1072.15 222.515C1070.33 222.617 1068.71 222.72 1067.19 222.72C1065.67 222.72 1064.05 222.617 1062.12 222.515C1060.19 222.413 1058.57 222.209 1057.05 221.903V117.163Z" fill="black"/>
<path d="M77.0157 33.9942C81.2132 33.9942 84.6159 30.5663 84.6159 26.3378C84.6159 22.1093 81.2132 18.6814 77.0157 18.6814C72.8183 18.6814 69.4155 22.1093 69.4155 26.3378C69.4155 30.5663 72.8183 33.9942 77.0157 33.9942Z" fill="black"/>
<path d="M26.1448 85.2412C30.3423 85.2412 33.745 81.8133 33.745 77.5847C33.745 73.3562 30.3423 69.9282 26.1448 69.9282C21.9473 69.9282 18.5446 73.3562 18.5446 77.5847C18.5446 81.8133 21.9473 85.2412 26.1448 85.2412Z" fill="black"/>
<path d="M7.60028 155.067C11.7978 155.067 15.2006 151.64 15.2006 147.411C15.2006 143.183 11.7978 139.755 7.60028 139.755C3.40276 139.755 0 143.183 0 147.411C0 151.64 3.40276 155.067 7.60028 155.067Z" fill="black"/>
<path d="M78.2317 275.937C82.4292 275.937 85.8319 272.509 85.8319 268.28C85.8319 264.052 82.4292 260.624 78.2317 260.624C74.0342 260.624 70.6314 264.052 70.6314 268.28C70.6314 272.509 74.0342 275.937 78.2317 275.937Z" fill="black"/>
<path d="M147.343 294.108C151.541 294.108 154.944 290.68 154.944 286.451C154.944 282.223 151.541 278.795 147.343 278.795C143.146 278.795 139.743 282.223 139.743 286.451C139.743 290.68 143.146 294.108 147.343 294.108Z" fill="black"/>
<path d="M216.151 274.916C220.348 274.916 223.751 271.488 223.751 267.259C223.751 263.031 220.348 259.603 216.151 259.603C211.953 259.603 208.55 263.031 208.55 267.259C208.55 271.488 211.953 274.916 216.151 274.916Z" fill="black"/>
<path d="M283.539 154.251C287.737 154.251 291.14 150.823 291.14 146.595C291.14 142.366 287.737 138.938 283.539 138.938C279.342 138.938 275.939 142.366 275.939 146.595C275.939 150.823 279.342 154.251 283.539 154.251Z" fill="black"/>
<path d="M264.792 85.2412C268.99 85.2412 272.393 81.8133 272.393 77.5847C272.393 73.3562 268.99 69.9282 264.792 69.9282C260.595 69.9282 257.192 73.3562 257.192 77.5847C257.192 81.8133 260.595 85.2412 264.792 85.2412Z" fill="black"/>
<path d="M221.509 29.4453C222.705 25.3918 220.413 21.1293 216.389 19.9245C212.365 18.7198 208.134 21.0292 206.938 25.0827C205.742 29.1361 208.035 33.3987 212.059 34.6034C216.082 35.8081 220.314 33.4988 221.509 29.4453Z" fill="black"/>
<path d="M217.029 26.348L5.59045 147.01L7.28871 150.03L218.727 29.368L217.029 26.348Z" fill="black"/>
<path d="M286.34 146.541L74.9018 267.203L76.6001 270.223L288.039 149.561L286.34 146.541Z" fill="black"/>
<path d="M287.119 144.316L213.687 24.4294L210.927 26.1448L284.36 146.032L287.119 144.316Z" fill="black"/>
<path d="M79.8426 267.494L6.41031 147.607L3.65071 149.322L77.083 269.209L79.8426 267.494Z" fill="black"/>
<path d="M267.825 75.1591L24.8201 76.5415L24.8395 80.0125L267.844 78.6301L267.825 75.1591Z" fill="black"/>
<path d="M26.21 218.018L26.6702 77.1409L23.4275 77.1301L22.9672 218.008L26.21 218.018Z" fill="black"/>
<path d="M267.524 217.485L267.985 76.6069L264.742 76.5962L264.282 217.474L267.524 217.485Z" fill="black"/>
<path d="M286.645 149.609L78.1714 23.8059L76.4008 26.7836L284.875 152.587L286.645 149.609Z" fill="black"/>
<path d="M217.331 269.806L8.85675 144.003L7.08613 146.981L215.56 272.784L217.331 269.806Z" fill="black"/>
<path d="M7.3815 147.092L79.0658 26.1204L76.2812 24.4458L4.59693 145.417L7.3815 147.092Z" fill="black"/>
<path d="M217.004 269.673L288.688 148.701L285.904 147.027L214.219 267.999L217.004 269.673Z" fill="black"/>
<path d="M151.761 288.19L27.8283 77.6125L24.8645 79.3827L148.797 289.96L151.761 288.19Z" fill="black"/>
<path d="M25.6874 78.5511L146.597 7.77417L144.968 4.94976L24.0583 75.7267L25.6874 78.5511Z" fill="black"/>
<path d="M146.808 287.148L267.717 216.371L266.088 213.546L145.179 284.323L146.808 287.148Z" fill="black"/>
<path d="M221.355 269.927L216.583 25.175L213.138 25.2432L217.91 269.995L221.355 269.927Z" fill="black"/>
<path d="M82.3683 272.779L77.5959 28.0271L74.1512 28.0953L78.9236 272.847L82.3683 272.779Z" fill="black"/>
<path d="M76.5058 28.6009L216.308 24.9651L216.224 21.6994L76.4221 25.3352L76.5058 28.6009Z" fill="black"/>
<path d="M79.1794 272.74L218.982 269.104L218.898 265.838L79.0957 269.474L79.1794 272.74Z" fill="black"/>
<path d="M147.171 292.687L266.195 79.2703L263.191 77.5702L144.167 290.987L147.171 292.687Z" fill="black"/>
<path d="M27.8033 219.682L146.827 6.2644L143.823 4.56436L24.7996 217.982L27.8033 219.682Z" fill="#4FBA6F"/>
<path d="M266.231 78.0978L148.188 2.55908L146.449 5.31653L264.492 80.8552L266.231 78.0978Z" fill="black"/>
<path d="M146.237 288.269L27.1037 214.492L25.4054 217.275L144.539 291.052L146.237 288.269Z" fill="black"/>
<path d="M146.33 15.3128C150.527 15.3128 153.93 11.8849 153.93 7.6564C153.93 3.42789 150.527 0 146.33 0C142.132 0 138.729 3.42789 138.729 7.6564C138.729 11.8849 142.132 15.3128 146.33 15.3128Z" fill="#4FBA6F"/>
<path d="M26.8542 224.894C31.0517 224.894 34.4544 221.466 34.4544 217.237C34.4544 213.009 31.0517 209.581 26.8542 209.581C22.6567 209.581 19.254 213.009 19.254 217.237C19.254 221.466 22.6567 224.894 26.8542 224.894Z" fill="#4FBA6F"/>
<path d="M267.825 214.814L24.8199 216.197L24.8394 219.668L267.844 218.285L267.825 214.814Z" fill="#4FBA6F"/>
<path d="M266.312 223.771C270.51 223.771 273.912 220.343 273.912 216.114C273.912 211.886 270.51 208.458 266.312 208.458C262.115 208.458 258.712 211.886 258.712 216.114C258.712 220.343 262.115 223.771 266.312 223.771Z" fill="#4FBA6F"/>
<path d="M271.996 218.224L148.064 7.64624L145.1 9.41639L269.032 219.994L271.996 218.224Z" fill="#4FBA6F"/>
</svg>
