<?xml version="1.0" encoding="UTF-8"?>
<!DOCTYPE svg PUBLIC "-//W3C//DTD SVG 1.1//EN" "http://www.w3.org/Graphics/SVG/1.1/DTD/svg11.dtd">
<!-- Creator: CorelDRAW 2021 (64 Bit) -->
<svg xmlns="http://www.w3.org/2000/svg" xml:space="preserve" width="135.467mm" height="135.467mm" version="1.1" style="shape-rendering:geometricPrecision; text-rendering:geometricPrecision; image-rendering:optimizeQuality; fill-rule:evenodd; clip-rule:evenodd"
viewBox="0 0 13546.66 13546.66"
 xmlns:xlink="http://www.w3.org/1999/xlink"
 xmlns:xodm="http://www.corel.com/coreldraw/odm/2003">
 <defs>
  <style type="text/css">
   <![CDATA[
    .fil0 {fill:none}
    .fil2 {fill:#FEFEFE}
    .fil1 {fill:#47A7F6}
   ]]>
  </style>
 </defs>
 <g id="Camada_x0020_1">
  <metadata id="CorelCorpID_0Corel-Layer"/>
  <rect class="fil0" x="-0" y="-0.01" width="13546.66" height="13546.67"/>
  <g id="_1472287789248">
   <path class="fil1" d="M9776.3 -0.01l-6005.94 0c-1541.52,0 -2802.74,1261.24 -2802.74,2802.76l0 6005.95c0,2186.66 3113.6,4386.59 5053.14,4737.97l15.82 -1935.24 3739.72 0c1541.53,0 2802.75,-1261.22 2802.75,-2802.73l0 -6005.95c0,-1541.52 -1261.22,-2802.76 -2802.75,-2802.76z"/>
   <path class="fil2" d="M11069.35 3263.69c-91.85,-83.29 -233.82,-76.34 -317.1,15.52l-2066.28 2278.97 -340.18 -278.95 -400.37 585.33 450.52 641.49c27.69,39.11 63.48,75.48 105.3,104.18 190,130.45 449.76,82.17 580.21,-107.82l16.54 -24.12 2005.65 -2921.23c62.73,-91.17 49.97,-216.99 -34.29,-293.37z"/>
   <path class="fil2" d="M9144.19 3263.69c-91.86,-83.29 -233.82,-76.34 -317.11,15.52l-2066.28 2278.97 -974.6 -799.18c-76.51,-62.67 -188.38,-69.83 -273.27,-10.19 -102.18,71.77 -126.83,212.75 -55.08,314.93l1012.92 1442.31c27.69,39.11 63.48,75.48 105.3,104.18 190,130.45 449.78,82.17 580.22,-107.82l16.56 -24.12 2005.62 -2921.23c62.74,-91.17 49.97,-216.99 -34.28,-293.37z"/>
   <path class="fil2" d="M4030.22 7277.68c0,0 1160.53,1602.98 2295.7,2321.88 433.42,274.26 791.34,420.86 1105.02,468.65 111.27,15.67 212.13,21.66 312.49,17.64 361.51,-14.49 667.56,-157.51 960.76,-370.4 0,0 459.49,-330.19 621.76,-547.94 151.82,-227.34 134.09,-417.75 -22.54,-562.31l-1156.93 -1261.17c0,0 -284.02,-310.5 -665.59,-43.76 0,0 -164.26,167.52 -544.61,464.37 -370.33,296.47 -798.53,-350.21 -798.53,-350.21l-758.86 -1116.17c0,0 -191.59,-263.91 -415.38,-576.74 -138.2,-185.58 -277.15,-391.18 -405.34,-577.16 -282.38,-521.74 -149.05,-708.15 -149.05,-708.15 72.7,-194.04 588.45,-375.63 822.98,-545.91 371.53,-266.33 165.44,-640.28 165.44,-640.28l-834.37 -1495.37c-98.41,-197.2 -262.72,-281.12 -531.03,-199.99 -268.75,71.09 -717.75,410.97 -717.75,410.97 -78.33,53.45 -146.57,106.47 -214.48,169.54 -566.31,424.96 -885.19,1001.05 -573.84,2245.75 343.24,1283.81 1504.14,2896.71 1504.14,2896.71l0.01 0.05z"/>
  </g>
 </g>
</svg>
