<svg width="455" height="455" viewBox="0 0 455 455" fill="none" xmlns="http://www.w3.org/2000/svg">
<circle cx="227.5" cy="227.5" r="227.5" fill="url(#paint0_linear_197_16708)"/>
<mask id="mask0_197_16708" style="mask-type:alpha" maskUnits="userSpaceOnUse" x="0" y="0" width="455" height="455">
<circle cx="227.5" cy="227.5" r="227.5" fill="url(#paint1_linear_197_16708)"/>
</mask>
<g mask="url(#mask0_197_16708)">
<g opacity="0.8">
<path d="M77.9756 120.169C78.5852 120.169 79.0805 120.664 79.0805 121.274V383.484C79.0805 384.094 78.5852 384.589 77.9756 384.589C77.366 384.589 76.8706 384.094 76.8706 383.484V121.274C76.8516 120.664 77.3469 120.169 77.9756 120.169Z" fill="#B3DAFF"/>
<path d="M44.5053 375.654C45.1149 375.654 45.6102 376.149 45.6102 376.759V480.317C45.6102 480.926 45.1149 481.422 44.5053 481.422C43.8957 481.422 43.4004 480.926 43.4004 480.317V376.759C43.4004 376.149 43.8957 375.654 44.5053 375.654Z" fill="#B3DAFF"/>
<path d="M56.6997 81.27C57.3093 81.27 57.8046 81.7653 57.8046 82.3749V241.141C57.8046 241.751 57.3093 242.246 56.6997 242.246C56.09 242.246 55.5947 241.751 55.5947 241.141V82.394C55.5947 81.7653 56.09 81.27 56.6997 81.27Z" fill="#B3DAFF"/>
<path d="M1.69868 121.713C2.30829 121.713 2.80361 122.075 2.80361 122.513V213.346C2.80361 213.784 2.30829 214.146 1.69868 214.146C1.08906 214.146 0.59375 213.784 0.59375 213.346V122.533C0.59375 122.075 1.08906 121.713 1.69868 121.713Z" fill="#B3DAFF"/>
<path d="M1.69868 229.766C2.30829 229.766 2.80361 230.261 2.80361 230.871V303.282C2.80361 303.891 2.30829 304.387 1.69868 304.387C1.08906 304.387 0.59375 303.891 0.59375 303.282V230.871C0.59375 230.261 1.08906 229.766 1.69868 229.766Z" fill="#B3DAFF"/>
<path d="M77.9751 391.563C80.7843 391.563 83.0616 389.286 83.0616 386.477C83.0616 383.667 80.7843 381.39 77.9751 381.39C75.166 381.39 72.8887 383.667 72.8887 386.477C72.8887 389.286 75.166 391.563 77.9751 391.563Z" fill="#B3DAFF"/>
<path d="M77.9751 424.461C80.7843 424.461 83.0616 422.184 83.0616 419.375C83.0616 416.566 80.7843 414.289 77.9751 414.289C75.166 414.289 72.8887 416.566 72.8887 419.375C72.8887 422.184 75.166 424.461 77.9751 424.461Z" fill="#B3DAFF"/>
<path d="M165.461 445.361C168.271 445.361 170.548 443.084 170.548 440.274C170.548 437.465 168.271 435.188 165.461 435.188C162.652 435.188 160.375 437.465 160.375 440.274C160.375 443.084 162.652 445.361 165.461 445.361Z" fill="#B3DAFF"/>
<path d="M77.9717 322.674C79.3815 322.674 80.5245 321.531 80.5245 320.121C80.5245 318.711 79.3815 317.568 77.9717 317.568C76.5618 317.568 75.4189 318.711 75.4189 320.121C75.4189 321.531 76.5618 322.674 77.9717 322.674Z" fill="#B3DAFF"/>
<path d="M145.418 283.335C146.828 283.335 147.971 282.192 147.971 280.782C147.971 279.372 146.828 278.229 145.418 278.229C144.008 278.229 142.865 279.372 142.865 280.782C142.865 282.192 144.008 283.335 145.418 283.335Z" fill="#B3DAFF"/>
<path d="M25.377 342.111C26.7868 342.111 27.9297 340.968 27.9297 339.558C27.9297 338.148 26.7868 337.005 25.377 337.005C23.9671 337.005 22.8242 338.148 22.8242 339.558C22.8242 340.968 23.9671 342.111 25.377 342.111Z" fill="#B3DAFF"/>
<g opacity="0.7">
<path d="M160.714 214.166C161.324 214.166 161.819 214.433 161.819 214.757V340.07C161.819 340.394 161.324 340.661 160.714 340.661C160.105 340.661 159.609 340.394 159.609 340.07V214.757C159.609 214.433 160.105 214.166 160.714 214.166Z" fill="#B3DAFF"/>
</g>
<path d="M165.439 418.272C166.049 418.272 166.544 418.768 166.544 419.377V548.863C166.544 549.473 166.049 549.968 165.439 549.968C164.829 549.968 164.334 549.473 164.334 548.863V419.377C164.334 418.768 164.829 418.272 165.439 418.272Z" fill="#B3DAFF"/>
<g opacity="0.7">
<path d="M160.71 342.11C162.12 342.11 163.263 340.968 163.263 339.558C163.263 338.148 162.12 337.005 160.71 337.005C159.3 337.005 158.157 338.148 158.157 339.558C158.157 340.968 159.3 342.11 160.71 342.11Z" fill="#B3DAFF"/>
</g>
<path d="M77.9756 416.994C78.5852 416.994 79.0805 417.489 79.0805 418.099V547.585C79.0805 548.194 78.5852 548.69 77.9756 548.69C77.366 548.69 76.8706 548.194 76.8706 547.585V418.099C76.8516 417.489 77.3469 416.994 77.9756 416.994Z" fill="#B3DAFF"/>
<path d="M204.607 350.263C205.217 350.263 205.712 350.758 205.712 351.368V688.865C205.712 689.475 205.217 689.97 204.607 689.97C203.998 689.97 203.502 689.475 203.502 688.865V351.387C203.483 350.758 203.979 350.263 204.607 350.263Z" fill="#B3DAFF"/>
<g opacity="0.7">
<path d="M45.0244 181.549C45.634 181.549 46.1293 182.044 46.1293 182.654V328.752C46.1293 329.361 45.634 329.856 45.0244 329.856C44.4148 329.856 43.9195 329.361 43.9195 328.752V182.654C43.9004 182.044 44.3957 181.549 45.0244 181.549Z" fill="#B3DAFF"/>
</g>
<g opacity="0.7">
<path d="M45.0244 331.325C46.4343 331.325 47.5772 330.182 47.5772 328.772C47.5772 327.363 46.4343 326.22 45.0244 326.22C43.6146 326.22 42.4717 327.363 42.4717 328.772C42.4717 330.182 43.6146 331.325 45.0244 331.325Z" fill="#B3DAFF"/>
</g>
<path d="M197.167 167.3C197.777 167.3 198.272 167.795 198.272 168.405V297.89C198.272 298.5 197.777 298.995 197.167 298.995C196.558 298.995 196.062 298.5 196.062 297.89V168.405C196.062 167.795 196.558 167.3 197.167 167.3Z" fill="#B3DAFF"/>
<path d="M197.172 300.464C198.582 300.464 199.725 299.321 199.725 297.911C199.725 296.501 198.582 295.358 197.172 295.358C195.762 295.358 194.619 296.501 194.619 297.911C194.619 299.321 195.762 300.464 197.172 300.464Z" fill="#B3DAFF"/>
<path d="M68.2041 436.921C68.8137 436.921 69.309 437.416 69.309 438.026V520.038C69.309 520.648 68.8137 521.143 68.2041 521.143C67.5945 521.143 67.0991 520.648 67.0991 520.038V438.026C67.0801 437.416 67.5945 436.921 68.2041 436.921Z" fill="#B3DAFF"/>
<path d="M1.69876 307.092C3.80301 307.092 5.50884 305.386 5.50884 303.282C5.50884 301.178 3.80301 299.472 1.69876 299.472C-0.405495 299.472 -2.11133 301.178 -2.11133 303.282C-2.11133 305.386 -0.405495 307.092 1.69876 307.092Z" fill="#B3DAFF"/>
<path d="M248.521 221.957C249.131 221.957 249.626 222.243 249.626 222.586V390.991C249.626 391.334 249.131 391.62 248.521 391.62C247.912 391.62 247.417 391.334 247.417 390.991V222.586C247.397 222.243 247.893 221.957 248.521 221.957Z" fill="#B3DAFF"/>
<path d="M145.417 92.814C146.027 92.814 146.522 93.3093 146.522 93.9189V189.8C146.522 190.409 146.027 190.905 145.417 190.905C144.808 190.905 144.312 190.409 144.312 189.8V93.9379C144.313 93.3093 144.808 92.814 145.417 92.814Z" fill="#B3DAFF"/>
<path d="M248.521 395.392C250.625 395.392 252.331 393.686 252.331 391.582C252.331 389.477 250.625 387.771 248.521 387.771C246.417 387.771 244.711 389.477 244.711 391.582C244.711 393.686 246.417 395.392 248.521 395.392Z" fill="#B3DAFF"/>
<path d="M56.6961 240.036C61.2301 240.036 64.9068 243.713 64.9068 248.247C64.9068 252.781 61.2301 256.458 56.6961 256.458C52.1621 256.458 48.4854 252.781 48.4854 248.247C48.4854 243.713 52.1621 240.036 56.6961 240.036ZM56.6961 254.229C59.9918 254.229 62.6779 251.543 62.6779 248.247C62.6779 244.951 59.9918 242.265 56.6961 242.265C53.4004 242.265 50.7142 244.951 50.7142 248.247C50.7142 251.543 53.4004 254.229 56.6961 254.229Z" fill="#B3DAFF"/>
<path d="M1.46003 211.936C6.98465 211.936 11.4806 216.431 11.4806 221.956C11.4806 227.481 6.98465 231.977 1.46003 231.977C-4.0646 231.977 -8.56049 227.481 -8.56049 221.956C-8.57954 216.431 -4.0646 211.936 1.46003 211.936ZM1.46003 229.767C5.76542 229.767 9.25164 226.261 9.25164 221.975C9.25164 217.67 5.74637 214.183 1.46003 214.183C-2.84537 214.183 -6.33159 217.689 -6.33159 221.975C-6.35064 226.261 -2.84537 229.767 1.46003 229.767Z" fill="#B3DAFF"/>
<path d="M186.361 235.122C186.476 235.122 186.59 235.217 186.59 235.351V710.087C186.59 710.202 186.495 710.316 186.361 710.316C186.247 710.316 186.133 710.221 186.133 710.087V235.351C186.133 235.217 186.247 235.122 186.361 235.122Z" fill="#B3DAFF"/>
<path d="M25.38 235.122C25.4943 235.122 25.6086 235.179 25.6086 235.274V507.848C25.6086 507.924 25.5133 508 25.38 508C25.2657 508 25.1514 507.943 25.1514 507.848V235.255C25.1704 235.179 25.2657 235.122 25.38 235.122Z" fill="#B3DAFF"/>
<g opacity="0.7">
<path d="M105.453 172.422C105.568 172.422 105.682 172.499 105.682 172.575V624.032C105.682 624.127 105.587 624.184 105.453 624.184C105.339 624.184 105.225 624.108 105.225 624.032V172.575C105.225 172.48 105.32 172.422 105.453 172.422Z" fill="#B3DAFF"/>
</g>
<path d="M125.616 227.5C126.226 227.5 126.721 227.881 126.721 228.358V661.66C126.721 662.136 126.226 662.517 125.616 662.517C125.007 662.517 124.511 662.136 124.511 661.66V228.358C124.492 227.881 125.007 227.5 125.616 227.5Z" fill="#B3DAFF"/>
<path d="M145.417 206.41C146.027 206.41 146.522 206.905 146.522 207.515V279.925C146.522 280.535 146.027 281.03 145.417 281.03C144.808 281.03 144.312 280.535 144.312 279.925V207.515C144.313 206.924 144.808 206.41 145.417 206.41Z" fill="#B3DAFF"/>
<path d="M145.169 188.597C150.694 188.597 155.189 193.093 155.189 198.617C155.189 204.142 150.694 208.638 145.169 208.638C139.644 208.638 135.148 204.142 135.148 198.617C135.148 193.093 139.644 188.597 145.169 188.597ZM145.169 206.428C149.474 206.428 152.961 202.923 152.961 198.636C152.961 194.331 149.455 190.845 145.169 190.845C140.864 190.845 137.377 194.35 137.377 198.636C137.377 202.923 140.864 206.428 145.169 206.428Z" fill="#B3DAFF"/>
<path d="M173.268 264.077C173.42 264.077 173.573 264.153 173.649 264.305C173.782 264.515 173.706 264.782 173.496 264.915L78.2062 320.504C77.9967 320.618 77.73 320.561 77.5966 320.352C77.4633 320.142 77.5395 319.875 77.749 319.742L173.039 264.153C173.115 264.096 173.192 264.077 173.268 264.077Z" fill="#B3DAFF"/>
<path d="M260.745 383.979C260.898 383.979 261.05 384.055 261.126 384.208C261.26 384.417 261.184 384.684 260.974 384.817L165.684 440.406C165.474 440.521 165.208 440.464 165.074 440.254C164.941 440.044 165.017 439.778 165.227 439.644L260.517 384.055C260.593 383.998 260.669 383.979 260.745 383.979Z" fill="#B3DAFF"/>
<path d="M118.525 333.8C118.754 333.8 118.982 333.933 119.116 334.143C119.287 334.467 119.173 334.867 118.849 335.057L78.2906 357.156C77.9668 357.327 77.5667 357.213 77.3762 356.889C77.2048 356.565 77.3191 356.165 77.6429 355.975L118.201 333.876C118.316 333.838 118.43 333.8 118.525 333.8Z" fill="#B3DAFF"/>
<path d="M77.6531 418.71C77.8817 418.71 78.1103 418.824 78.2437 419.053C78.4342 419.377 78.3199 419.777 77.9961 419.967L28.2744 448.067C27.9506 448.257 27.5505 448.143 27.36 447.819C27.1695 447.495 27.2838 447.095 27.6077 446.905L77.3293 418.805C77.4436 418.748 77.5579 418.71 77.6531 418.71Z" fill="#B3DAFF"/>
<path d="M98.2479 141.297C98.4003 141.297 98.5528 141.373 98.629 141.525C98.7433 141.735 98.6671 142.002 98.4575 142.135L57.5943 165.243C57.3848 165.358 57.1181 165.281 56.9847 165.072C56.8704 164.862 56.9466 164.596 57.1562 164.462L98.0193 141.354C98.0955 141.297 98.1717 141.297 98.2479 141.297Z" fill="#B3DAFF"/>
<path d="M57.3838 104.455C57.5362 104.455 57.6886 104.531 57.7839 104.683C57.8982 104.893 57.822 105.178 57.6124 105.293L-13.4457 143.889C-13.6552 144.003 -13.941 143.927 -14.0553 143.718C-14.1696 143.508 -14.0934 143.222 -13.8838 143.108L57.1743 104.512C57.2314 104.474 57.3076 104.455 57.3838 104.455Z" fill="#B3DAFF"/>
<path d="M117.697 189.82C117.85 189.82 118.002 189.896 118.078 190.048C118.193 190.258 118.116 190.525 117.907 190.658L56.8121 225.216C56.6026 225.33 56.3359 225.254 56.2025 225.044C56.0882 224.835 56.1644 224.568 56.374 224.434L117.469 189.877C117.545 189.839 117.621 189.82 117.697 189.82Z" fill="#B3DAFF"/>
<path d="M-21.8076 163.527C-21.7314 163.527 -21.6552 163.546 -21.598 163.584L57.5946 208.372C57.8041 208.486 57.8803 208.772 57.766 208.981C57.6517 209.191 57.366 209.267 57.1564 209.153L-22.0362 164.365C-22.2457 164.251 -22.322 163.965 -22.2077 163.755C-22.1124 163.603 -21.96 163.527 -21.8076 163.527Z" fill="#B3DAFF"/>
<path d="M77.9795 417.659C78.0557 417.659 78.1319 417.678 78.1891 417.716L220.477 497.137C220.686 497.251 220.762 497.537 220.648 497.747C220.534 497.956 220.248 498.032 220.039 497.918L77.7509 418.497C77.5414 418.383 77.4652 418.097 77.5795 417.887C77.6557 417.754 77.8081 417.659 77.9795 417.659Z" fill="#B3DAFF"/>
<path d="M25.3747 339.117C25.4509 339.117 25.5271 339.136 25.5842 339.174L78.1634 367.711C78.373 367.826 78.4682 368.092 78.3349 368.321C78.2206 368.531 77.9539 368.626 77.7253 368.492L25.1461 339.955C24.9365 339.841 24.8413 339.574 24.9746 339.345C25.0699 339.212 25.2223 339.117 25.3747 339.117Z" fill="#B3DAFF"/>
<path d="M55.9772 307.74C56.0534 307.74 56.1296 307.759 56.1868 307.797L78.19 319.742C78.3996 319.856 78.4948 320.123 78.3615 320.352C78.2472 320.561 77.9805 320.656 77.7519 320.523L55.7486 308.578C55.5391 308.464 55.4438 308.197 55.5772 307.969C55.6724 307.836 55.8248 307.74 55.9772 307.74Z" fill="#B3DAFF"/>
<path d="M89.8833 249.977C89.9976 249.977 90.0928 249.996 90.2071 250.053L145.739 280.191C146.063 280.362 146.177 280.762 146.006 281.105C145.834 281.429 145.415 281.543 145.11 281.372L89.5785 251.234C89.2546 251.062 89.1403 250.662 89.3118 250.319C89.4261 250.11 89.6547 249.977 89.8833 249.977Z" fill="#B3DAFF"/>
<path d="M149.953 385.809C150.067 385.809 150.162 385.828 150.276 385.885L205.808 416.023C206.132 416.195 206.247 416.595 206.075 416.937C205.904 417.261 205.485 417.376 205.18 417.204L149.648 387.066C149.324 386.895 149.21 386.495 149.381 386.152C149.476 385.942 149.705 385.809 149.953 385.809Z" fill="#B3DAFF"/>
<path d="M228.923 451.342C229.037 451.342 229.132 451.361 229.247 451.419L266.166 471.46C266.49 471.631 266.605 472.031 266.433 472.374C266.262 472.698 265.843 472.812 265.519 472.641L228.599 452.6C228.275 452.428 228.161 452.028 228.332 451.685C228.466 451.457 228.694 451.342 228.923 451.342Z" fill="#B3DAFF"/>
<path d="M170.466 283.049C170.543 283.049 170.619 283.068 170.676 283.106L249.545 325.855C249.754 325.969 249.85 326.236 249.716 326.465C249.602 326.674 249.335 326.77 249.107 326.636L170.238 283.887C170.028 283.773 169.933 283.506 170.066 283.277C170.143 283.125 170.295 283.049 170.466 283.049Z" fill="#B3DAFF"/>
<path d="M228.917 417.491C229.527 417.491 230.022 417.987 230.022 418.596V491.007C230.022 491.616 229.527 492.112 228.917 492.112C228.308 492.112 227.812 491.616 227.812 491.007V418.596C227.812 417.987 228.308 417.491 228.917 417.491Z" fill="#B3DAFF"/>
</g>
</g>
<mask id="mask1_197_16708" style="mask-type:luminance" maskUnits="userSpaceOnUse" x="3" y="6" width="449" height="449">
<path d="M227.505 455C351.355 455 451.755 354.6 451.755 230.75C451.755 106.9 351.355 6.5 227.505 6.5C103.655 6.5 3.25488 106.9 3.25488 230.75C3.25488 354.6 103.655 455 227.505 455Z" fill="white"/>
</mask>
<g mask="url(#mask1_197_16708)">
<path d="M313.276 84.6938H168.922V193.196H313.276V84.6938Z" fill="#B3DAFF"/>
<path d="M326.301 358.812C323.223 404.988 280.267 435.677 227.792 435.677C175.365 435.677 132.456 405.035 129.283 359.001C129.331 359.001 129.378 359.001 129.425 359.001C131.036 358.906 132.599 358.764 134.114 358.528C134.114 358.528 134.161 358.528 134.209 358.528C144.439 357.249 153.2 354.123 160.351 349.103C163.525 346.924 166.414 344.32 168.971 341.383C179.674 329.022 182.09 291.797 182.468 282.562C183.132 283.225 183.795 283.888 184.505 284.504C184.553 284.551 184.6 284.599 184.647 284.646C185.973 285.925 187.394 287.156 188.767 288.34C188.767 288.34 188.767 288.34 188.815 288.34C202.455 300.227 216.284 306.574 229.876 307.284C230.492 307.284 231.06 307.331 231.676 307.331C231.96 307.331 232.291 307.331 232.576 307.331C233.712 307.331 234.896 307.284 236.08 307.189C247.967 306.337 259.618 301.175 270.937 291.75C273.116 289.95 275.247 288.008 277.378 285.877C278.42 284.883 279.462 283.793 280.456 282.704C279.651 292.223 280.125 329.306 289.313 341.431C291.492 344.32 294.049 346.877 296.938 349.056C303.237 353.839 311.288 356.917 320.95 358.243C321.139 358.243 321.281 358.291 321.47 358.291C322.986 358.48 324.596 358.67 326.206 358.764H326.301V358.812Z" fill="#B3DAFF"/>
<path d="M286.801 393.811C326.205 385.144 324.405 403.189 326.915 365.3H326.773C325.163 365.206 323.6 365.016 322.037 364.827C321.895 364.827 321.705 364.827 321.563 364.78C311.949 363.453 312.139 351.187 304.466 351.187C295.894 351.187 289.074 341.715 287.417 338.4C281.355 326.418 278.892 299.612 281.118 289.24C280.076 290.33 279.081 291.419 278.039 292.413C275.908 294.545 273.777 296.486 271.598 298.286C260.327 307.711 248.629 312.92 236.741 313.725C235.605 313.82 234.421 313.867 233.284 313.867C233 313.867 232.668 313.867 232.384 313.867C231.769 313.867 231.2 313.867 230.585 313.82C227.648 313.678 184.408 298.097 181.425 297.386L286.801 393.811Z" fill="#78BEFF"/>
<path d="M329.473 206.931C329.141 222.276 321.658 235.016 311.618 238.331V238.378C311.618 238.378 311.618 238.426 311.571 238.473C310.86 240.273 304.041 257.228 298.973 267.505C298.073 269.305 297.268 270.867 296.51 272.146C291.49 280.766 281.639 294.263 280.313 296.063C280.218 296.205 280.171 296.252 280.171 296.252L278.229 298.668C264.732 314.581 250.476 323.2 235.7 324.384C218.035 325.758 202.69 316.049 192.934 307.666C190.755 305.724 188.624 303.688 186.493 301.462C185.214 300.136 183.935 298.763 182.704 297.342C182.42 297.058 182.183 296.726 181.899 296.442L179.673 293.837C173.564 286.591 168.117 277.308 163.618 268.405C156.23 253.676 151.541 240.083 150.973 238.426C150.973 238.331 150.925 238.284 150.925 238.284C140.696 234.874 133.023 221.66 133.023 205.795C133.023 196.607 135.581 188.319 139.748 182.304C140.269 182.162 140.79 182.02 141.359 181.925C141.927 181.83 142.495 181.736 143.064 181.736C146.474 181.499 149.883 179.747 153.199 176.952C161.771 169.754 169.775 155.688 175.932 142.758C181.615 140.722 187.629 139.064 193.881 137.691C219.029 171.506 255.923 172.974 255.923 172.974C255.923 172.974 243.988 158.766 247.303 141.432C247.35 141.101 247.398 140.769 247.493 140.485C270.936 178.278 281.024 179.131 296.084 177.331C298.973 176.952 302.051 176.621 305.461 176.716C307.877 176.81 310.529 177.094 313.418 177.852C322.369 181.499 328.905 193.007 329.473 206.931Z" fill="#B3DAFF"/>
<path d="M193.735 137.69C187.483 139.064 181.516 140.769 175.785 142.758C179.479 134.991 182.463 127.65 184.452 122.44C187.294 128.171 190.419 133.239 193.735 137.69Z" fill="#B3DAFF"/>
<path d="M177.253 299.42V299.522C177.202 299.522 177.202 299.471 177.253 299.42C177.202 299.42 177.202 299.42 177.253 299.42Z" fill="#B3DAFF"/>
<path d="M280.286 296.408H280.217C280.217 296.339 280.286 296.339 280.286 296.408Z" fill="#B3DAFF"/>
<path d="M130.798 365.587C130.846 366.013 130.893 366.439 130.94 366.866C130.893 366.866 130.846 366.866 130.798 366.866C130.798 366.676 130.798 366.439 130.798 366.203L130.656 364.166H130.703C130.703 364.45 130.751 364.734 130.751 365.066C130.798 365.208 130.798 365.397 130.798 365.587Z" fill="#B3DAFF"/>
<path d="M280.217 296.343L280.286 296.412C280.286 296.343 280.217 296.343 280.217 296.343Z" fill="#29204E"/>
<path d="M323.973 363.876V364.113C323.973 364.018 323.973 363.924 323.973 363.876ZM280.212 296.341L280.26 296.388C280.26 296.341 280.212 296.341 280.212 296.341ZM177.11 299.372C164.559 303.682 152.104 306.381 152.104 306.381C159.918 304.818 168.537 302.592 177.157 299.419C177.157 299.419 177.157 299.419 177.11 299.372ZM316.206 307.186C315.306 307.044 314.359 306.902 313.459 306.76C314.549 306.949 315.638 307.139 316.68 307.281C316.538 307.234 316.348 307.186 316.206 307.186Z" fill="#371F6F"/>
<path d="M130.791 365.583C130.838 366.009 130.886 366.435 130.933 366.861C130.886 366.861 130.838 366.861 130.791 366.861C130.791 366.672 130.791 366.435 130.791 366.198L130.649 364.162L130.507 361.747V361.462C130.554 361.462 130.602 361.462 130.649 361.462C130.649 362.362 130.696 363.262 130.744 364.209C130.744 364.493 130.791 364.778 130.791 365.109C130.791 365.204 130.791 365.393 130.791 365.583Z" fill="#260556"/>
<path d="M341.169 310.173C341.169 310.173 330.087 309.274 317.394 307.379C317.157 307.332 316.92 307.285 316.636 307.285C316.494 307.237 316.305 307.237 316.163 307.19C315.263 307.048 314.316 306.906 313.416 306.764C312.469 306.621 311.522 306.432 310.622 306.29C298.308 304.064 290.399 301.27 285.473 298.997C283.058 297.86 281.306 296.865 280.216 296.108C281.542 294.308 291.394 280.81 296.414 272.191C297.171 270.912 297.976 269.349 298.876 267.549C303.944 257.272 310.764 240.317 311.474 238.518C311.474 238.47 311.521 238.423 311.521 238.423V238.376C321.562 235.06 329.045 222.321 329.376 206.976C328.808 193.099 322.272 181.544 313.274 177.897C311.522 177.186 309.674 176.76 307.78 176.665C306.927 176.618 299.35 175.766 296.461 175.339C280.927 172.924 266.34 171.408 242.897 133.615C240.813 148.628 256.394 161.747 256.394 161.747C256.394 161.747 212.918 160.658 193.737 137.783C190.422 133.284 187.296 128.263 184.502 122.533C182.513 127.742 179.482 135.083 175.835 142.85C169.725 155.78 161.674 169.846 153.102 177.044C149.787 179.839 146.377 181.591 142.967 181.828C142.399 181.828 141.83 181.922 141.262 182.017C140.741 182.112 140.173 182.254 139.652 182.396C135.531 188.411 132.927 196.699 132.927 205.887C132.927 221.705 140.551 234.966 150.829 238.376C150.829 238.376 150.829 238.423 150.876 238.518C151.444 240.175 156.133 253.768 163.521 268.497C168.02 277.4 173.467 286.683 179.576 293.929L181.802 296.534C182.086 296.818 182.323 297.149 182.607 297.434C180.808 298.144 178.961 298.807 177.114 299.375C164.563 303.685 152.107 306.385 152.107 306.385C131.648 310.505 116.019 310.173 116.019 310.173C116.019 310.173 88.6922 239.654 92.6231 183.201C102.521 40.6473 170.057 39.2739 173.562 39.4159C178.487 36.1955 193.453 23.6924 227.363 23.6924C292.246 23.6924 362.623 58.1232 367.88 183.201C371.006 258.314 341.169 310.173 341.169 310.173Z" fill="#371F6F"/>
<path d="M52.8882 366.487C30.6763 371.981 12.3954 388.32 5.38614 410.106C4.06006 414.179 3.25488 418.204 3.25488 421.851V454.956H228.547H453.839V421.851C453.839 418.204 453.034 414.179 451.707 410.106C444.651 388.32 426.417 371.981 404.205 366.345L286.61 336.556C278.228 339.303 254.5 346.407 236.835 348.064C234.372 348.301 232.004 348.443 229.825 348.443C229.399 348.443 229.02 348.443 228.594 348.443C228.168 348.443 227.742 348.443 227.363 348.443C210.408 348.443 182.75 340.439 171.951 336.982L52.8882 366.487Z" fill="#260556"/>
</g>
<defs>
<linearGradient id="paint0_linear_197_16708" x1="424.125" y1="60.125" x2="6.84921e-06" y2="367.25" gradientUnits="userSpaceOnUse">
<stop stop-color="#77BEFF"/>
<stop offset="0.333333" stop-color="#608DDC"/>
<stop offset="0.639217" stop-color="#485BB9"/>
<stop offset="1" stop-color="#331166"/>
</linearGradient>
<linearGradient id="paint1_linear_197_16708" x1="61.75" y1="-2.9462e-06" x2="286" y2="549.25" gradientUnits="userSpaceOnUse">
<stop stop-color="#77BEFF"/>
<stop offset="0.333333" stop-color="#608DDC"/>
<stop offset="0.666667" stop-color="#485BB9"/>
<stop offset="1" stop-color="#331166"/>
</linearGradient>
</defs>
</svg>
