<svg width="942" height="184" xmlns="http://www.w3.org/2000/svg" data-name="Camada 1">

 <g>
  <title>Layer 1</title>
  <path id="svg_1" stroke-width="13px" stroke="#222d5d" stroke-miterlimit="10" fill="none" d="m45.43014,152.60001a79.58,79.58 0 0 1 44.13,-145.79m79.57,79.57a79.6,79.6 0 0 1 -65,78.23" class="cls-1"/>
  <path id="svg_2" fill="#107ef4" d="m113.17014,87.60001a26.64,26.64 0 1 0 -18.87,-45.48a26.64,26.64 0 0 0 18.87,45.48zm-36.31,58l-0.25,0a9.39,9.39 0 0 1 -6.83,-2.8c-1.94,-1.91 -2.88,1.28 -2.88,-1.39l0,-80.51a46.37,46.37 0 0 1 46.27,-46.06a46.29,46.29 0 0 1 0,92.58c-11.65,0 -20.54,-2.69 -26.58,-8l0,42.05c0,2.66 -0.95,-0.54 -2.9,1.39a9.4,9.4 0 0 1 -6.83,2.8l0,-0.06z" class="cls-2"/>
  <path id="svg_3" stroke-width="10px" stroke="#107ef4" stroke-miterlimit="10" fill="none" d="m76.00014,177.35001a16.78,16.78 0 1 0 -16.78,-16.75a16.78,16.78 0 0 0 16.78,16.78l0,-0.03z" class="cls-3"/>
  <path id="svg_4" fill="#107ef4" d="m207.17014,139.40001l0,-113.65l23,0l0,12.45q6.39,-14.21 22.38,-14.21q13.8,0 22.58,11.06t8.79,32.17q0,22.47 -8.87,33.86t-23.09,11.4q-14.38,0 -20.53,-11.19l0,38.11l-24.26,0zm24.32,-65.87q0,9 1.1,12.45a12.78,12.78 0 0 0 4.62,6.18a12.24,12.24 0 0 0 7.66,2.74q5.13,0 9.17,-5.26t4,-23.17q0,-25.15 -13.29,-25.16q-5.05,0 -9.17,4.46t-4.09,15.14l0,12.62z" class="cls-2"/>
  <path id="svg_5" fill="#107ef4" d="m374.22014,110.71001l-24.31,0a60.86,60.86 0 0 1 -1.17,-13.29q-6.39,9.09 -12.73,12.07a33.44,33.44 0 0 1 -14.4,3q-11.92,0 -19.28,-6.48t-7.35,-17.41a26.85,26.85 0 0 1 4.29,-14.72q4.28,-6.74 13.77,-10.56t34.6,-5.68l0,-4.87q0,-12.37 -12.33,-12.37q-13.15,0 -14.67,12.37l-23.15,-2.17q2.26,-14.48 13.71,-20.53a54.58,54.58 0 0 1 25.91,-6.05a63.68,63.68 0 0 1 16.32,2q7.65,2 11.94,6a21.09,21.09 0 0 1 5.8,8.54q1.51,4.5 1.52,15.69l0,38.52q0.02,11.16 1.53,15.94zm-26.58,-40.71q-26.25,2.6 -26.24,15.9a11.45,11.45 0 0 0 2.76,7.69q2.77,3.24 7.89,3.24a13.8,13.8 0 0 0 11.11,-5.51a20.8,20.8 0 0 0 4.48,-13.58l0,-7.74z" class="cls-2"/>
  <path id="svg_6" fill="#107ef4" d="m417.71014,110.71001l-24.31,0l0,-85l23,0l0,15.89q5.3,-17.67 18.33,-17.67c1.24,0 2.75,0.09 4.55,0.26l0,24.73q-7.67,0 -11.91,2.35t-6.94,8.45q-2.69,6.11 -2.69,16.45l-0.03,34.54z" class="cls-2"/>
  <path id="svg_7" fill="#107ef4" d="m484.92014,45.27001l0,35.92q0,6.72 2,9t9.47,2.27q3.44,0 8,-0.34l0,18.59a108.11,108.11 0 0 1 -15.77,1.89q-15.64,0 -22.2,-6t-6.57,-21.75l0,-39.58l-13.45,0l0,-19.52l14.88,0l2,-25.06l21.62,-1.69l0,26.75l18.26,0l0,19.52l-18.24,0z" class="cls-2"/>
  <path id="svg_8" fill="#107ef4" d="m592.68014,72.44001l-54.68,0c-0.06,1.51 -0.08,2.83 -0.08,3.95q0,9.09 4.83,13.71a16.14,16.14 0 0 0 11.57,4.63q12.52,0 15,-13.38l22.72,1.69q-9.51,29.44 -38.61,29.44q-12.71,0 -21.58,-5.09a40.21,40.21 0 0 1 -14.64,-14.85q-5.72,-9.75 -5.72,-23.38q0,-20.28 11.57,-32.72t29.73,-12.45a38.65,38.65 0 0 1 28.15,11.61q11.73,11.52 11.74,36.84zm-54.76,-14.55l30.19,0q-1.17,-17.51 -14.38,-17.5q-14.13,0 -15.81,17.5z" class="cls-2"/>
  <path id="svg_9" fill="#107ef4" d="m682.35014,110.71001l-25.07,0l0,-47.69a69.23,69.23 0 0 0 -0.67,-11.86a9.63,9.63 0 0 0 -3.29,-5.43a9.75,9.75 0 0 0 -6.56,-2.23q-13.2,0 -13.2,19.52l0,47.69l-25.07,0l0,-85l23.3,0l0,14.39q5.81,-10.26 11.44,-13.21a26,26 0 0 1 12.2,-2.94q12.1,0 19.51,6.52t7.41,25.61l0,54.63z" class="cls-2"/>
  <path id="svg_10" fill="#107ef4" d="m779.33014,72.44001l-54.67,0c-0.06,1.51 -0.09,2.83 -0.09,3.95q0,9.09 4.84,13.71a16.12,16.12 0 0 0 11.56,4.63q12.54,0 15.06,-13.38l22.71,1.69q-9.5,29.44 -38.61,29.44q-12.71,0 -21.57,-5.09a40.14,40.14 0 0 1 -14.64,-14.85q-5.76,-9.75 -5.76,-23.38q0,-20.28 11.56,-32.72t29.77,-12.45a38.65,38.65 0 0 1 28.11,11.61q11.73,11.52 11.73,36.84zm-54.76,-14.55l30.2,0q-1.18,-17.51 -14.39,-17.5q-14.13,0 -15.81,17.5z" class="cls-2"/>
  <path id="svg_11" fill="#107ef4" d="m819.49014,110.71001l-24.3,0l0,-85l23,0l0,15.89q5.22,-17.7 18.3,-17.7c1.23,0 2.75,0.09 4.54,0.26l0,24.73q-7.65,0 -11.9,2.35t-6.94,8.45q-2.7,6.11 -2.7,16.45l0,34.57z" class="cls-2"/>
  <path id="svg_12" fill="#107ef4" d="m890.16014,23.99001q19.41,0 30.29,12.7t10.88,31.8q0,18.84 -11.3,31.41t-30,12.58q-18.15,0 -29,-12.45t-10.88,-32q0,-13.53 4.92,-23a40.82,40.82 0 0 1 13.42,-15.24q8.56,-5.8 21.67,-5.8zm0.67,16.4q-7.12,0 -10.74,5.51t-3.6,21.91q0,15.06 3.44,21.62a11.34,11.34 0 0 0 10.73,6.56a12.09,12.09 0 0 0 10.32,-5.59q3.94,-5.59 3.94,-21.33q0,-16.73 -3.48,-22.71a11.47,11.47 0 0 0 -10.61,-5.97z" class="cls-2"/>
  <path id="svg_13" fill="#222d5d" d="m223.66014,163.60001l-10.92,0l0,5.23l8.63,0l0,4.36l-8.63,0l0,9.13l-5.67,0l0,-23.38l16.59,0l0,4.66z" class="cls-4"/>
  <path id="svg_14" fill="#222d5d" d="m242.54014,173.02001l0,9.25l-5.51,0l0,-23.33l10.26,0a12.92,12.92 0 0 1 4.55,0.66a5.84,5.84 0 0 1 2.85,2.41a7.14,7.14 0 0 1 1.13,3.91a6.22,6.22 0 0 1 -4.05,6l4.3,10.32l-6,0l-3.58,-9.22l-3.95,0zm0,-9.93l0,6l3.35,0a9,9 0 0 0 2.38,-0.23a2.62,2.62 0 0 0 1.32,-1a3,3 0 0 0 0.59,-1.82a2.79,2.79 0 0 0 -0.59,-1.74a2.36,2.36 0 0 0 -1.26,-1a11.92,11.92 0 0 0 -2.56,-0.18l-3.23,-0.03z" class="cls-4"/>
  <path id="svg_15" fill="#222d5d" d="m278.90014,182.60001a8.49,8.49 0 0 1 -7.29,-3.54a14.13,14.13 0 0 1 -2.58,-8.56a13.65,13.65 0 0 1 2.62,-8.53a8.8,8.8 0 0 1 7.44,-3.37a8.34,8.34 0 0 1 7.37,3.65a14.43,14.43 0 0 1 2.48,8.35a14.06,14.06 0 0 1 -2.56,8.56a8.72,8.72 0 0 1 -7.48,3.44zm0.16,-19.59q-4.31,0 -4.3,7.55t4.3,7.57c2.77,0 4.16,-2.51 4.16,-7.55s-1.39,-7.54 -4.16,-7.54l0,-0.03z" class="cls-4"/>
  <path id="svg_16" fill="#222d5d" d="m313.42014,182.27001l-5.75,-19l0,19l-4.58,0l0,-23.33l8.51,0l4.09,14l4.31,-14l8.49,0l0,23.33l-5.5,0l0,-19l-5.87,19l-3.7,0z" class="cls-4"/>
  <path id="svg_17" fill="#222d5d" d="m381.89014,167.60001l-5.73,0.36q-0.12,-4.93 -3.85,-4.94c-2.86,0 -4.28,2.54 -4.28,7.6c0,2.93 0.38,4.92 1.16,6a3.84,3.84 0 0 0 3.26,1.56c2.26,0 3.64,-1.46 4.14,-4.4l5.3,0.32a9.42,9.42 0 0 1 -3.12,6.37a10.44,10.44 0 0 1 -13.91,-1q-2.89,-3.2 -2.9,-8.84a13,13 0 0 1 2.8,-8.64a9.42,9.42 0 0 1 7.66,-3.37q8.4,-0.02 9.47,8.98z" class="cls-4"/>
  <path id="svg_18" fill="#222d5d" d="m413.99014,158.94001l0,14.53a13,13 0 0 1 -0.8,5.23a6.2,6.2 0 0 1 -3,2.82a14.56,14.56 0 0 1 -10.88,0.11a6.65,6.65 0 0 1 -3,-2.82a11.45,11.45 0 0 1 -1,-5.34l0,-14.53l5.93,0l0,14.53a8.84,8.84 0 0 0 0.32,2.76a2.54,2.54 0 0 0 1.26,1.41a4.79,4.79 0 0 0 2.34,0.52a5.34,5.34 0 0 0 2.5,-0.51a2.55,2.55 0 0 0 1.28,-1.36a8.84,8.84 0 0 0 0.32,-2.82l0,-14.53l4.73,0z" class="cls-4"/>
  <path id="svg_19" fill="#222d5d" d="m445.02014,164.06001l-4.65,1.54a3.82,3.82 0 0 0 -4,-2.77q-3.24,0 -3.24,2.1a1.89,1.89 0 0 0 0.6,1.42a6,6 0 0 0 2.74,1a26.9,26.9 0 0 1 5.22,1.46a6.64,6.64 0 0 1 2.8,2.39a6.24,6.24 0 0 1 1.14,3.65a7.29,7.29 0 0 1 -2.43,5.47c-1.63,1.54 -4,2.31 -7.22,2.31a11,11 0 0 1 -6.1,-1.64a7.73,7.73 0 0 1 -3.32,-4.84l5.06,-1.15q0.84,3.27 4.74,3.27a4.41,4.41 0 0 0 2.79,-0.73a2.13,2.13 0 0 0 0.92,-1.73a1.78,1.78 0 0 0 -0.83,-1.59a10,10 0 0 0 -3.23,-1.06c-3,-0.62 -5.08,-1.46 -6.35,-2.52a5.8,5.8 0 0 1 -1.89,-4.68a6.91,6.91 0 0 1 2.26,-5.24a8.57,8.57 0 0 1 6.16,-2.12q6.87,0 8.83,5.46z" class="cls-4"/>
  <path id="svg_20" fill="#222d5d" d="m474.74014,158.94001l0,4.66l-5.77,0l0,18.72l-5.54,0l0,-18.72l-5.81,0l0,-4.61l17.12,-0.05z" class="cls-4"/>
  <path id="svg_21" fill="#222d5d" d="m496.41014,182.60001a8.49,8.49 0 0 1 -7.29,-3.54a14.13,14.13 0 0 1 -2.58,-8.56a13.65,13.65 0 0 1 2.62,-8.53a8.8,8.8 0 0 1 7.44,-3.42a8.34,8.34 0 0 1 7.37,3.65a14.43,14.43 0 0 1 2.52,8.4a14.06,14.06 0 0 1 -2.56,8.56a8.7,8.7 0 0 1 -7.52,3.44zm0.16,-19.59q-4.3,0 -4.3,7.55t4.3,7.57c2.77,0 4.16,-2.51 4.16,-7.55s-1.39,-7.54 -4.16,-7.54l0,-0.03z" class="cls-4"/>
  <path id="svg_22" fill="#222d5d" d="m530.93014,182.27001l-5.75,-19l0,19l-4.58,0l0,-23.33l8.51,0l4.09,14l4.31,-14l8.53,0l0,23.33l-5.5,0l0,-19l-5.87,19l-3.74,0z" class="cls-4"/>
  <path id="svg_23" fill="#222d5d" d="m577.92014,163.38001l-11.1,0l0,4.79l8.73,0l0,4.43l-8.73,0l0,5.09l11.1,0l0,4.62l-16.66,0l0,-23.37l16.66,0l0,4.44z" class="cls-4"/>
  <path id="svg_24" fill="#222d5d" d="m597.28014,173.02001l0,9.25l-5.5,0l0,-23.33l10.25,0a12.92,12.92 0 0 1 4.55,0.66a5.84,5.84 0 0 1 2.85,2.41a7.14,7.14 0 0 1 1.13,3.91a6.22,6.22 0 0 1 -4.05,6l4.3,10.32l-6,0l-3.59,-9.25l-3.94,0.03zm0,-9.93l0,6l3.35,0a8.94,8.94 0 0 0 2.38,-0.23a2.68,2.68 0 0 0 1.33,-1a3,3 0 0 0 0.58,-1.82a2.85,2.85 0 0 0 -0.58,-1.74a2.42,2.42 0 0 0 -1.27,-1a11.86,11.86 0 0 0 -2.56,-0.18l-3.23,-0.03z" class="cls-4"/>
  <path id="svg_25" fill="#222d5d" d="m659.49014,158.94001l0,4.66l-5.78,0l0,18.72l-5.53,0l0,-18.72l-5.81,0l0,-4.61l17.12,-0.05z" class="cls-4"/>
  <path id="svg_26" fill="#222d5d" d="m681.12014,182.60001a8.49,8.49 0 0 1 -7.29,-3.54a14.13,14.13 0 0 1 -2.58,-8.56a13.64,13.64 0 0 1 2.61,-8.53a8.84,8.84 0 0 1 7.45,-3.42a8.35,8.35 0 0 1 7.37,3.65a14.51,14.51 0 0 1 2.48,8.35a14.06,14.06 0 0 1 -2.56,8.56a8.72,8.72 0 0 1 -7.48,3.49zm0.15,-19.59q-4.29,0 -4.29,7.55t4.29,7.57c2.78,0 4.17,-2.51 4.17,-7.55s-1.39,-7.54 -4.17,-7.54l0,-0.03z" class="cls-4"/>
  <path id="svg_27" fill="#222d5d" d="m730.18014,173.60001l0,8.67l-5.56,0l0,-23.33l9.2,0a13.1,13.1 0 0 1 4.67,0.66a7,7 0 0 1 2.91,2.35a6.68,6.68 0 0 1 1.28,4.15a8.82,8.82 0 0 1 -0.68,3.37a6.15,6.15 0 0 1 -1.93,2.58a7.15,7.15 0 0 1 -2.42,1.24a15.47,15.47 0 0 1 -3.67,0.31l-3.8,0zm-0.19,-4.24l3.55,0a3.64,3.64 0 0 0 2.86,-0.94a3.14,3.14 0 0 0 0.82,-2.15a2.92,2.92 0 0 0 -0.92,-2.26a4,4 0 0 0 -2.77,-0.83l-3.54,0l0,6.18z" class="cls-4"/>
  <path id="svg_28" fill="#222d5d" d="m766.38014,158.94001l7.3,23.33l-5.87,0l-1.44,-4.81l-7.54,0l-1.46,4.81l-4.8,0l7.48,-23.33l6.33,0zm-6.24,14.22l4.94,0l-2.45,-8.19l-2.49,8.19z" class="cls-4"/>
  <path id="svg_29" fill="#222d5d" d="m792.26014,173.02001l0,9.25l-5.5,0l0,-23.33l10.26,0a13,13 0 0 1 4.55,0.66a5.93,5.93 0 0 1 2.85,2.41a7.13,7.13 0 0 1 1.12,3.91a6.22,6.22 0 0 1 -4,6l4.31,10.32l-6,0l-3.58,-9.25l-4.01,0.03zm0,-9.93l0,6l3.35,0a9,9 0 0 0 2.39,-0.23a2.66,2.66 0 0 0 1.32,-1a3,3 0 0 0 0.58,-1.82a2.78,2.78 0 0 0 -0.58,-1.74a2.4,2.4 0 0 0 -1.26,-1a12,12 0 0 0 -2.57,-0.18l-3.23,-0.03z" class="cls-4"/>
  <path id="svg_30" fill="#222d5d" d="m835.12014,158.94001l0,4.66l-5.78,0l0,18.72l-5.54,0l0,-18.72l-5.81,0l0,-4.61l17.13,-0.05z" class="cls-4"/>
  <path id="svg_31" fill="#222d5d" d="m865.97014,158.94001l0,23.33l-4.66,0l-9.13,-15.76c0,0.4 0,0.66 0,0.79c0,0.4 0.06,0.73 0.06,1l0,14l-4.25,0l0,-23.36l5.89,0l7.93,13.76c-0.06,-0.69 -0.1,-1.21 -0.1,-1.56l0,-12.2l4.26,0z" class="cls-4"/>
  <path id="svg_32" fill="#222d5d" d="m897.89014,163.38001l-11.11,0l0,4.79l8.71,0l0,4.43l-8.73,0l0,5.09l11.13,0l0,4.62l-16.66,0l0,-23.37l16.66,0l0,4.44z" class="cls-4"/>
  <path id="svg_33" fill="#222d5d" d="m917.24014,173.02001l0,9.25l-5.5,0l0,-23.33l10.25,0a13,13 0 0 1 4.56,0.66a5.86,5.86 0 0 1 2.84,2.41a7.06,7.06 0 0 1 1.13,3.91a6.22,6.22 0 0 1 -4,6l4.31,10.32l-6,0l-3.58,-9.25l-4.01,0.03zm0,-9.93l0,6l3.35,0a9,9 0 0 0 2.39,-0.23a2.7,2.7 0 0 0 1.32,-1a3,3 0 0 0 0.58,-1.82a2.78,2.78 0 0 0 -0.58,-1.74a2.44,2.44 0 0 0 -1.26,-1a12,12 0 0 0 -2.57,-0.18l-3.23,-0.03z" class="cls-4"/>
 </g>
</svg>