<svg width="188" height="188" viewBox="0 0 188 188" fill="none" xmlns="http://www.w3.org/2000/svg">
<g clip-path="url(#clip0_1726_594)">
<rect width="188" height="188" rx="14" fill="url(#paint0_linear_1726_594)"/>
<rect x="0.5" y="0.5" width="187" height="187" rx="13.5" stroke="white" stroke-opacity="0.2"/>
<path d="M131.334 47.9609H52.8287C48.9966 47.9719 45.3246 49.504 42.6149 52.2227C39.9052 54.9413 38.3781 58.6254 38.3672 62.4701V112.216C38.3781 116.061 39.9052 119.745 42.6149 122.463C45.3246 125.182 48.9966 126.714 52.8287 126.725H63.1584V147.452L87.3608 127.207C87.7325 126.895 88.2014 126.725 88.6856 126.725H131.334C135.166 126.714 138.838 125.182 141.548 122.463C144.258 119.745 145.785 116.061 145.796 112.216V62.4701C145.785 58.6254 144.258 54.9413 141.548 52.2227C138.838 49.504 135.166 47.9719 131.334 47.9609Z" stroke="white" stroke-width="2.33333" stroke-linejoin="round"/>
<path d="M115.78 60.8789H63.9104C61.3785 60.8864 58.9523 61.931 57.162 63.7846C55.3717 65.6382 54.3627 68.1501 54.3555 70.7715V104.689C54.3627 107.31 55.3717 109.822 57.162 111.676C58.9523 113.53 61.3785 114.574 63.9104 114.582H70.7354V128.714L86.7263 114.91C86.9718 114.698 87.2816 114.582 87.6016 114.582H115.78C118.312 114.574 120.738 113.53 122.529 111.676C124.319 109.822 125.328 107.31 125.335 104.689V70.7715C125.328 68.1501 124.319 65.6382 122.529 63.7846C120.738 61.931 118.312 60.8864 115.78 60.8789Z" fill="white" stroke="white" stroke-width="0.762821" stroke-linejoin="round"/>
<path d="M148.391 60.8789H96.5217C93.9898 60.8864 91.5637 61.931 89.7733 63.7846C87.983 65.6382 86.974 68.1501 86.9668 70.7715V104.689C86.974 107.31 87.983 109.822 89.7733 111.676C91.5637 113.53 93.9898 114.574 96.5217 114.582H103.347H120.213C118.825 114.582 119.893 114.582 120.213 114.582H148.391C150.923 114.574 153.35 113.53 155.14 111.676C156.93 109.822 157.939 107.31 157.946 104.689V70.7715C157.939 68.1501 156.93 65.6382 155.14 63.7846C153.35 61.931 150.923 60.8864 148.391 60.8789Z" fill="white"/>
<path d="M120.213 114.582H103.347H96.5217C93.9898 114.574 91.5637 113.53 89.7733 111.676C87.983 109.822 86.974 107.31 86.9668 104.689V70.7715C86.974 68.1501 87.983 65.6382 89.7733 63.7846C91.5637 61.931 93.9898 60.8864 96.5217 60.8789H148.391C150.923 60.8864 153.35 61.931 155.14 63.7846C156.93 65.6382 157.939 68.1501 157.946 70.7715V104.689C157.939 107.31 156.93 109.822 155.14 111.676C153.35 113.53 150.923 114.574 148.391 114.582H120.213ZM120.213 114.582C118.825 114.582 119.893 114.582 120.213 114.582Z" stroke="white" stroke-width="0.762821" stroke-linejoin="round"/>
<path d="M156.612 44.6532C156.186 44.6542 155.771 44.5222 155.423 44.2756C155.076 44.0291 154.814 43.6803 154.675 43.2779L153.892 40.8743C153.708 40.3134 153.394 39.804 152.976 39.3872C152.559 38.9679 152.049 38.6517 151.488 38.4637L149.114 37.6915C148.811 37.5898 148.536 37.4187 148.311 37.1919C148.086 36.9651 147.917 36.6888 147.817 36.3851C147.717 36.0813 147.69 35.7585 147.737 35.4424C147.785 35.1263 147.905 34.8255 148.089 34.5641C148.334 34.2141 148.682 33.9491 149.086 33.8068L151.497 33.0257C152.038 32.8346 152.529 32.5236 152.933 32.1159C153.337 31.7082 153.644 31.2144 153.83 30.6715L154.619 28.2451C154.758 27.8328 155.025 27.4759 155.38 27.2257C155.729 26.9846 156.143 26.8555 156.567 26.8555C156.991 26.8555 157.405 26.9846 157.753 27.2257C158.099 27.4699 158.36 27.815 158.501 28.2145L159.287 30.627C159.473 31.1862 159.787 31.6942 160.204 32.1107C160.621 32.5271 161.13 32.8404 161.689 33.0257L164.067 33.7969C164.498 33.9343 164.873 34.2072 165.137 34.575C165.382 34.9209 165.513 35.3342 165.513 35.758C165.513 36.1818 165.382 36.5952 165.137 36.9411C164.893 37.2871 164.548 37.5491 164.148 37.6915L161.733 38.4766C161.175 38.6616 160.668 38.9748 160.254 39.3912C159.837 39.8094 159.522 40.3186 159.335 40.8782L158.564 43.2532C158.418 43.6617 158.154 44.0174 157.805 44.2745C157.457 44.5217 157.039 44.6552 156.612 44.6532ZM167.988 53.5519C167.632 53.5532 167.285 53.4435 166.994 53.2379C166.703 53.0323 166.484 52.7411 166.367 52.4049L165.825 50.7478C165.714 50.4073 165.525 50.0976 165.272 49.8441C165.018 49.5909 164.709 49.3997 164.369 49.2855L162.734 48.7565C162.388 48.6383 162.088 48.4133 161.877 48.1138C161.722 47.8972 161.62 47.6475 161.579 47.3846C161.537 47.1216 161.558 46.8527 161.639 46.599C161.719 46.3454 161.858 46.114 162.044 45.9233C162.23 45.7327 162.457 45.5879 162.709 45.5006L164.371 44.9587C164.703 44.8415 165.004 44.6495 165.251 44.3975C165.498 44.1455 165.683 43.8403 165.793 43.5053L166.322 41.8739C166.406 41.6186 166.549 41.3868 166.739 41.197C166.93 41.0072 167.162 40.8649 167.417 40.7816C167.673 40.6982 167.944 40.6761 168.21 40.7171C168.476 40.7581 168.728 40.8611 168.946 41.0176C169.238 41.2223 169.457 41.514 169.573 41.8501L170.113 43.5073C170.227 43.8456 170.418 44.1528 170.67 44.4047C170.923 44.6566 171.231 44.8463 171.57 44.9587L173.206 45.4927C173.551 45.5997 173.853 45.813 174.07 46.102C174.286 46.3911 174.406 46.7412 174.411 47.1022C174.417 47.4632 174.308 47.8168 174.1 48.1123C173.893 48.4078 173.597 48.6301 173.256 48.7476L171.602 49.2874C171.263 49.3988 170.954 49.5885 170.702 49.8411C170.45 50.095 170.259 50.4036 170.145 50.7429L169.614 52.3743C169.495 52.7201 169.27 53.0197 168.971 53.2305C168.684 53.4365 168.341 53.5487 167.988 53.5519Z" fill="white"/>
<rect x="64" y="71" width="27.3332" height="6.99997" rx="3.49999" fill="#AD598E" fill-opacity="0.1"/>
<rect x="93.834" y="71" width="56.3331" height="6.99997" rx="3.49999" fill="#AD598E" fill-opacity="0.1"/>
<rect x="64" y="85.0039" width="48.1665" height="6.99997" rx="3.49999" fill="#AD598E" fill-opacity="0.1"/>
<rect x="64" y="99" width="38.6665" height="6.99997" rx="3.49999" fill="#AD598E" fill-opacity="0.1"/>
<rect x="107" y="99" width="43.1665" height="6.99997" rx="3.49999" fill="#AD598E" fill-opacity="0.1"/>
<rect x="135.168" y="85.0039" width="14.9999" height="6.99997" rx="3.49999" fill="#AD598E" fill-opacity="0.1"/>
<rect x="115.498" y="85.0039" width="14.9999" height="6.99997" rx="3.49999" fill="#AD598E" fill-opacity="0.1"/>
<mask id="path-16-outside-1_1726_594" maskUnits="userSpaceOnUse" x="20" y="152" width="117" height="24" fill="black">
<rect fill="white" x="20" y="152" width="117" height="24"/>
<path d="M23.46 153.31V175H20.52V153.31H23.46ZM32.358 175H29.538V160.33H32.088L32.388 162.58C33.318 160.9 35.178 159.91 37.248 159.91C41.118 159.91 42.888 162.28 42.888 166.03V175H40.068V166.66C40.068 163.69 38.688 162.49 36.528 162.49C33.888 162.49 32.358 164.38 32.358 167.23V175ZM52.4339 175H49.6139V162.7H46.7339V160.33H49.6139V155.74H52.4339V160.33H55.3139V162.7H52.4339V175ZM65.5282 175.36C61.2082 175.36 58.2382 172.24 58.2382 167.68C58.2382 163.09 61.1482 159.91 65.4082 159.91C69.5782 159.91 72.3082 162.79 72.3082 167.14V168.19L60.9682 168.22C61.1782 171.31 62.7982 173.02 65.5882 173.02C67.7782 173.02 69.2182 172.12 69.6982 170.44H72.3382C71.6182 173.59 69.1582 175.36 65.5282 175.36ZM65.4082 162.28C62.9482 162.28 61.3882 163.75 61.0282 166.33H69.4882C69.4882 163.9 67.8982 162.28 65.4082 162.28ZM79.838 175H77.018V152.92H79.838V175ZM88.3692 175H85.5492V152.92H88.3692V175ZM100.35 175.36C96.0305 175.36 93.0605 172.24 93.0605 167.68C93.0605 163.09 95.9705 159.91 100.23 159.91C104.4 159.91 107.13 162.79 107.13 167.14V168.19L95.7905 168.22C96.0005 171.31 97.6205 173.02 100.41 173.02C102.6 173.02 104.04 172.12 104.52 170.44H107.16C106.44 173.59 103.98 175.36 100.35 175.36ZM100.23 162.28C97.7705 162.28 96.2105 163.75 95.8505 166.33H104.31C104.31 163.9 102.72 162.28 100.23 162.28ZM110.82 167.68C110.82 163.09 113.73 159.91 118.02 159.91C121.71 159.91 124.29 162.01 124.8 165.28H121.98C121.5 163.42 120 162.43 118.11 162.43C115.44 162.43 113.61 164.47 113.61 167.65C113.61 170.8 115.32 172.84 117.99 172.84C120 172.84 121.5 171.79 122.01 170.05H124.83C124.26 173.23 121.53 175.36 117.99 175.36C113.67 175.36 110.82 172.3 110.82 167.68ZM133.446 175H130.626V162.7H127.746V160.33H130.626V155.74H133.446V160.33H136.326V162.7H133.446V175Z"/>
</mask>
<path d="M23.46 153.31V175H20.52V153.31H23.46ZM32.358 175H29.538V160.33H32.088L32.388 162.58C33.318 160.9 35.178 159.91 37.248 159.91C41.118 159.91 42.888 162.28 42.888 166.03V175H40.068V166.66C40.068 163.69 38.688 162.49 36.528 162.49C33.888 162.49 32.358 164.38 32.358 167.23V175ZM52.4339 175H49.6139V162.7H46.7339V160.33H49.6139V155.74H52.4339V160.33H55.3139V162.7H52.4339V175ZM65.5282 175.36C61.2082 175.36 58.2382 172.24 58.2382 167.68C58.2382 163.09 61.1482 159.91 65.4082 159.91C69.5782 159.91 72.3082 162.79 72.3082 167.14V168.19L60.9682 168.22C61.1782 171.31 62.7982 173.02 65.5882 173.02C67.7782 173.02 69.2182 172.12 69.6982 170.44H72.3382C71.6182 173.59 69.1582 175.36 65.5282 175.36ZM65.4082 162.28C62.9482 162.28 61.3882 163.75 61.0282 166.33H69.4882C69.4882 163.9 67.8982 162.28 65.4082 162.28ZM79.838 175H77.018V152.92H79.838V175ZM88.3692 175H85.5492V152.92H88.3692V175ZM100.35 175.36C96.0305 175.36 93.0605 172.24 93.0605 167.68C93.0605 163.09 95.9705 159.91 100.23 159.91C104.4 159.91 107.13 162.79 107.13 167.14V168.19L95.7905 168.22C96.0005 171.31 97.6205 173.02 100.41 173.02C102.6 173.02 104.04 172.12 104.52 170.44H107.16C106.44 173.59 103.98 175.36 100.35 175.36ZM100.23 162.28C97.7705 162.28 96.2105 163.75 95.8505 166.33H104.31C104.31 163.9 102.72 162.28 100.23 162.28ZM110.82 167.68C110.82 163.09 113.73 159.91 118.02 159.91C121.71 159.91 124.29 162.01 124.8 165.28H121.98C121.5 163.42 120 162.43 118.11 162.43C115.44 162.43 113.61 164.47 113.61 167.65C113.61 170.8 115.32 172.84 117.99 172.84C120 172.84 121.5 171.79 122.01 170.05H124.83C124.26 173.23 121.53 175.36 117.99 175.36C113.67 175.36 110.82 172.3 110.82 167.68ZM133.446 175H130.626V162.7H127.746V160.33H130.626V155.74H133.446V160.33H136.326V162.7H133.446V175Z" fill="#FFD3F8"/>
<path d="M23.46 153.31H23.9686V152.801H23.46V153.31ZM23.46 175V175.509H23.9686V175H23.46ZM20.52 175H20.0114V175.509H20.52V175ZM20.52 153.31V152.801H20.0114V153.31H20.52ZM22.9514 153.31V175H23.9686V153.31H22.9514ZM23.46 174.491H20.52V175.509H23.46V174.491ZM21.0286 175V153.31H20.0114V175H21.0286ZM20.52 153.819H23.46V152.801H20.52V153.819ZM32.358 175V175.509H32.8666V175H32.358ZM29.538 175H29.0295V175.509H29.538V175ZM29.538 160.33V159.821H29.0295V160.33H29.538ZM32.088 160.33L32.5922 160.263L32.5333 159.821H32.088V160.33ZM32.388 162.58L31.8839 162.647L32.0874 164.173L32.833 162.826L32.388 162.58ZM42.888 175V175.509H43.3966V175H42.888ZM40.068 175H39.5595V175.509H40.068V175ZM32.358 174.491H29.538V175.509H32.358V174.491ZM30.0466 175V160.33H29.0295V175H30.0466ZM29.538 160.839H32.088V159.821H29.538V160.839ZM31.5839 160.397L31.8839 162.647L32.8922 162.513L32.5922 160.263L31.5839 160.397ZM32.833 162.826C33.6609 161.331 35.3356 160.419 37.248 160.419V159.401C35.0205 159.401 32.9752 160.469 31.9431 162.334L32.833 162.826ZM37.248 160.419C39.0755 160.419 40.3296 160.974 41.1361 161.898C41.9531 162.834 42.3795 164.226 42.3795 166.03H43.3966C43.3966 164.084 42.938 162.416 41.9025 161.229C40.8565 160.031 39.2906 159.401 37.248 159.401V160.419ZM42.3795 166.03V175H43.3966V166.03H42.3795ZM42.888 174.491H40.068V175.509H42.888V174.491ZM40.5766 175V166.66H39.5595V175H40.5766ZM40.5766 166.66C40.5766 165.105 40.2162 163.918 39.483 163.118C38.7425 162.309 37.7007 161.981 36.528 161.981V162.999C37.5154 162.999 38.2436 163.271 38.7331 163.805C39.2299 164.347 39.5595 165.245 39.5595 166.66H40.5766ZM36.528 161.981C35.0779 161.981 33.8877 162.506 33.0674 163.46C32.2553 164.404 31.8495 165.718 31.8495 167.23H32.8666C32.8666 165.892 33.2258 164.836 33.8387 164.123C34.4434 163.419 35.3382 162.999 36.528 162.999V161.981ZM31.8495 167.23V175H32.8666V167.23H31.8495ZM52.4339 175V175.509H52.9425V175H52.4339ZM49.6139 175H49.1053V175.509H49.6139V175ZM49.6139 162.7H50.1225V162.191H49.6139V162.7ZM46.7339 162.7H46.2253V163.209H46.7339V162.7ZM46.7339 160.33V159.821H46.2253V160.33H46.7339ZM49.6139 160.33V160.839H50.1225V160.33H49.6139ZM49.6139 155.74V155.231H49.1053V155.74H49.6139ZM52.4339 155.74H52.9425V155.231H52.4339V155.74ZM52.4339 160.33H51.9253V160.839H52.4339V160.33ZM55.3139 160.33H55.8225V159.821H55.3139V160.33ZM55.3139 162.7V163.209H55.8225V162.7H55.3139ZM52.4339 162.7V162.191H51.9253V162.7H52.4339ZM52.4339 174.491H49.6139V175.509H52.4339V174.491ZM50.1225 175V162.7H49.1053V175H50.1225ZM49.6139 162.191H46.7339V163.209H49.6139V162.191ZM47.2425 162.7V160.33H46.2253V162.7H47.2425ZM46.7339 160.839H49.6139V159.821H46.7339V160.839ZM50.1225 160.33V155.74H49.1053V160.33H50.1225ZM49.6139 156.249H52.4339V155.231H49.6139V156.249ZM51.9253 155.74V160.33H52.9425V155.74H51.9253ZM52.4339 160.839H55.3139V159.821H52.4339V160.839ZM54.8053 160.33V162.7H55.8225V160.33H54.8053ZM55.3139 162.191H52.4339V163.209H55.3139V162.191ZM51.9253 162.7V175H52.9425V162.7H51.9253ZM72.3082 168.19L72.3095 168.699L72.8168 168.697V168.19H72.3082ZM60.9682 168.22L60.9669 167.711L60.424 167.713L60.4608 168.254L60.9682 168.22ZM69.6982 170.44V169.931H69.3146L69.2092 170.3L69.6982 170.44ZM72.3382 170.44L72.834 170.553L72.9762 169.931H72.3382V170.44ZM61.0282 166.33L60.5245 166.26L60.4437 166.839H61.0282V166.33ZM69.4882 166.33V166.839H69.9968V166.33H69.4882ZM65.5282 174.851C63.4956 174.851 61.8105 174.12 60.6319 172.88C59.4514 171.637 58.7468 169.849 58.7468 167.68H57.7296C57.7296 170.071 58.51 172.123 59.8945 173.58C61.2809 175.04 63.2408 175.869 65.5282 175.869V174.851ZM58.7468 167.68C58.7468 165.492 59.4391 163.679 60.5999 162.418C61.7576 161.161 63.4112 160.419 65.4082 160.419V159.401C63.1452 159.401 61.2138 160.249 59.8515 161.729C58.4924 163.206 57.7296 165.278 57.7296 167.68H58.7468ZM65.4082 160.419C67.3717 160.419 68.9575 161.094 70.0537 162.245C71.1522 163.398 71.7996 165.072 71.7996 167.14H72.8168C72.8168 164.858 72.0992 162.917 70.7902 161.543C69.4789 160.166 67.6147 159.401 65.4082 159.401V160.419ZM71.7996 167.14V168.19H72.8168V167.14H71.7996ZM72.3069 167.681L60.9669 167.711L60.9695 168.729L72.3095 168.699L72.3069 167.681ZM60.4608 168.254C60.571 169.876 61.0559 171.205 61.9435 172.131C62.8386 173.064 64.0849 173.529 65.5882 173.529V172.511C64.3015 172.511 63.3428 172.121 62.6779 171.427C62.0055 170.725 61.5754 169.654 61.4756 168.186L60.4608 168.254ZM65.5882 173.529C66.7492 173.529 67.7581 173.29 68.5546 172.791C69.36 172.286 69.9144 171.534 70.1872 170.58L69.2092 170.3C69.002 171.026 68.5964 171.564 68.0143 171.929C67.4233 172.3 66.6172 172.511 65.5882 172.511V173.529ZM69.6982 170.949H72.3382V169.931H69.6982V170.949ZM71.8424 170.327C71.5071 171.794 70.7755 172.912 69.7268 173.669C68.6733 174.429 67.2619 174.851 65.5282 174.851V175.869C67.4245 175.869 69.0581 175.406 70.3221 174.494C71.5909 173.578 72.4493 172.236 72.834 170.553L71.8424 170.327ZM65.4082 161.771C64.0731 161.771 62.9369 162.173 62.0845 162.965C61.236 163.753 60.7164 164.885 60.5245 166.26L61.5319 166.4C61.7 165.195 62.1405 164.302 62.7769 163.71C63.4096 163.122 64.2834 162.789 65.4082 162.789V161.771ZM61.0282 166.839H69.4882V165.821H61.0282V166.839ZM69.9968 166.33C69.9968 165.002 69.5601 163.853 68.7416 163.034C67.9228 162.215 66.7658 161.771 65.4082 161.771V162.789C66.5406 162.789 67.4236 163.155 68.0223 163.753C68.6213 164.352 68.9796 165.228 68.9796 166.33H69.9968ZM79.838 175V175.509H80.3465V175H79.838ZM77.018 175H76.5094V175.509H77.018V175ZM77.018 152.92V152.411H76.5094V152.92H77.018ZM79.838 152.92H80.3465V152.411H79.838V152.92ZM79.838 174.491H77.018V175.509H79.838V174.491ZM77.5266 175V152.92H76.5094V175H77.5266ZM77.018 153.429H79.838V152.411H77.018V153.429ZM79.3294 152.92V175H80.3465V152.92H79.3294ZM88.3692 175V175.509H88.8778V175H88.3692ZM85.5492 175H85.0406V175.509H85.5492V175ZM85.5492 152.92V152.411H85.0406V152.92H85.5492ZM88.3692 152.92H88.8778V152.411H88.3692V152.92ZM88.3692 174.491H85.5492V175.509H88.3692V174.491ZM86.0578 175V152.92H85.0406V175H86.0578ZM85.5492 153.429H88.3692V152.411H85.5492V153.429ZM87.8606 152.92V175H88.8778V152.92H87.8606ZM107.13 168.19L107.132 168.699L107.639 168.697V168.19H107.13ZM95.7905 168.22L95.7891 167.711L95.2462 167.713L95.2831 168.254L95.7905 168.22ZM104.52 170.44V169.931H104.137L104.031 170.3L104.52 170.44ZM107.16 170.44L107.656 170.553L107.798 169.931H107.16V170.44ZM95.8505 166.33L95.3468 166.26L95.266 166.839H95.8505V166.33ZM104.31 166.33V166.839H104.819V166.33H104.31ZM100.35 174.851C98.3179 174.851 96.6327 174.12 95.4542 172.88C94.2737 171.637 93.5691 169.849 93.5691 167.68H92.5519C92.5519 170.071 93.3322 172.123 94.7167 173.58C96.1032 175.04 98.063 175.869 100.35 175.869V174.851ZM93.5691 167.68C93.5691 165.492 94.2613 163.679 95.4221 162.418C96.5798 161.161 98.2335 160.419 100.23 160.419V159.401C97.9674 159.401 96.0361 160.249 94.6738 161.729C93.3146 163.206 92.5519 165.278 92.5519 167.68H93.5691ZM100.23 160.419C102.194 160.419 103.78 161.094 104.876 162.245C105.974 163.398 106.622 165.072 106.622 167.14H107.639C107.639 164.858 106.921 162.917 105.612 161.543C104.301 160.166 102.437 159.401 100.23 159.401V160.419ZM106.622 167.14V168.19H107.639V167.14H106.622ZM107.129 167.681L95.7891 167.711L95.7918 168.729L107.132 168.699L107.129 167.681ZM95.2831 168.254C95.3933 169.876 95.8782 171.205 96.7658 172.131C97.6608 173.064 98.9071 173.529 100.41 173.529V172.511C99.1238 172.511 98.1651 172.121 97.5001 171.427C96.8278 170.725 96.3977 169.654 96.2979 168.186L95.2831 168.254ZM100.41 173.529C101.571 173.529 102.58 173.29 103.377 172.791C104.182 172.286 104.737 171.534 105.009 170.58L104.031 170.3C103.824 171.026 103.419 171.564 102.837 171.929C102.246 172.3 101.439 172.511 100.41 172.511V173.529ZM104.52 170.949H107.16V169.931H104.52V170.949ZM106.665 170.327C106.329 171.794 105.598 172.912 104.549 173.669C103.496 174.429 102.084 174.851 100.35 174.851V175.869C102.247 175.869 103.88 175.406 105.144 174.494C106.413 173.578 107.272 172.236 107.656 170.553L106.665 170.327ZM100.23 161.771C98.8953 161.771 97.7591 162.173 96.9068 162.965C96.0582 163.753 95.5386 164.885 95.3468 166.26L96.3542 166.4C96.5223 165.195 96.9627 164.302 97.5992 163.71C98.2318 163.122 99.1056 162.789 100.23 162.789V161.771ZM95.8505 166.839H104.31V165.821H95.8505V166.839ZM104.819 166.33C104.819 165.002 104.382 163.853 103.564 163.034C102.745 162.215 101.588 161.771 100.23 161.771V162.789C101.363 162.789 102.246 163.155 102.845 163.753C103.444 164.352 103.802 165.228 103.802 166.33H104.819ZM124.8 165.28V165.789H125.394L125.303 165.202L124.8 165.28ZM121.98 165.28L121.488 165.407L121.586 165.789H121.98V165.28ZM122.01 170.05V169.541H121.629L121.522 169.907L122.01 170.05ZM124.83 170.05L125.331 170.14L125.438 169.541H124.83V170.05ZM111.329 167.68C111.329 165.492 112.021 163.68 113.185 162.419C114.346 161.161 116.007 160.419 118.02 160.419V159.401C115.743 159.401 113.804 160.249 112.438 161.729C111.074 163.205 110.312 165.278 110.312 167.68H111.329ZM118.02 160.419C119.768 160.419 121.219 160.915 122.285 161.766C123.35 162.615 124.061 163.841 124.298 165.358L125.303 165.202C125.029 163.449 124.196 161.99 122.92 160.971C121.646 159.955 119.962 159.401 118.02 159.401V160.419ZM124.8 164.771H121.98V165.789H124.8V164.771ZM122.473 165.153C121.927 163.037 120.198 161.921 118.11 161.921V162.939C119.802 162.939 121.074 163.803 121.488 165.407L122.473 165.153ZM118.11 161.921C116.637 161.921 115.369 162.488 114.476 163.513C113.587 164.532 113.102 165.965 113.102 167.65H114.119C114.119 166.155 114.548 164.978 115.242 164.182C115.931 163.392 116.913 162.939 118.11 162.939V161.921ZM113.102 167.65C113.102 169.313 113.553 170.737 114.41 171.754C115.274 172.78 116.515 173.349 117.99 173.349V172.331C116.795 172.331 115.846 171.88 115.188 171.099C114.522 170.308 114.119 169.137 114.119 167.65H113.102ZM117.99 173.349C120.196 173.349 121.917 172.178 122.498 170.193L121.522 169.907C121.084 171.402 119.805 172.331 117.99 172.331V173.349ZM122.01 170.559H124.83V169.541H122.01V170.559ZM124.33 169.96C123.809 172.867 121.316 174.851 117.99 174.851V175.869C121.744 175.869 124.712 173.593 125.331 170.14L124.33 169.96ZM117.99 174.851C115.956 174.851 114.303 174.134 113.157 172.906C112.008 171.674 111.329 169.886 111.329 167.68H110.312C110.312 170.094 111.058 172.146 112.413 173.599C113.772 175.056 115.705 175.869 117.99 175.869V174.851ZM133.446 175V175.509H133.954V175H133.446ZM130.626 175H130.117V175.509H130.626V175ZM130.626 162.7H131.134V162.191H130.626V162.7ZM127.746 162.7H127.237V163.209H127.746V162.7ZM127.746 160.33V159.821H127.237V160.33H127.746ZM130.626 160.33V160.839H131.134V160.33H130.626ZM130.626 155.74V155.231H130.117V155.74H130.626ZM133.446 155.74H133.954V155.231H133.446V155.74ZM133.446 160.33H132.937V160.839H133.446V160.33ZM136.326 160.33H136.834V159.821H136.326V160.33ZM136.326 162.7V163.209H136.834V162.7H136.326ZM133.446 162.7V162.191H132.937V162.7H133.446ZM133.446 174.491H130.626V175.509H133.446V174.491ZM131.134 175V162.7H130.117V175H131.134ZM130.626 162.191H127.746V163.209H130.626V162.191ZM128.254 162.7V160.33H127.237V162.7H128.254ZM127.746 160.839H130.626V159.821H127.746V160.839ZM131.134 160.33V155.74H130.117V160.33H131.134ZM130.626 156.249H133.446V155.231H130.626V156.249ZM132.937 155.74V160.33H133.954V155.74H132.937ZM133.446 160.839H136.326V159.821H133.446V160.839ZM135.817 160.33V162.7H136.834V160.33H135.817ZM136.326 162.191H133.446V163.209H136.326V162.191ZM132.937 162.7V175H133.954V162.7H132.937Z" fill="#FFD3F8" mask="url(#path-16-outside-1_1726_594)"/>
<mask id="path-18-outside-2_1726_594" maskUnits="userSpaceOnUse" x="145" y="152" width="29" height="24" fill="black">
<rect fill="white" x="145" y="152" width="29" height="24"/>
<path d="M149.42 175H146.36L154.28 153.31H157.55L165.5 175H162.41L160.46 169.6H151.34L149.42 175ZM155.54 157.99L152.24 167.05H159.59L156.26 157.99C156.11 157.57 155.96 157.06 155.9 156.73C155.84 157.03 155.69 157.54 155.54 157.99ZM172.823 153.31V175H169.883V153.31H172.823Z"/>
</mask>
<path d="M149.42 175H146.36L154.28 153.31H157.55L165.5 175H162.41L160.46 169.6H151.34L149.42 175ZM155.54 157.99L152.24 167.05H159.59L156.26 157.99C156.11 157.57 155.96 157.06 155.9 156.73C155.84 157.03 155.69 157.54 155.54 157.99ZM172.823 153.31V175H169.883V153.31H172.823Z" fill="white"/>
<path d="M149.42 175V175.509H149.779L149.899 175.17L149.42 175ZM146.36 175L145.882 174.826L145.633 175.509H146.36V175ZM154.28 153.31V152.801H153.924L153.802 153.136L154.28 153.31ZM157.55 153.31L158.028 153.135L157.905 152.801H157.55V153.31ZM165.5 175V175.509H166.228L165.978 174.825L165.5 175ZM162.41 175L161.932 175.173L162.053 175.509H162.41V175ZM160.46 169.6L160.938 169.427L160.817 169.091H160.46V169.6ZM151.34 169.6V169.091H150.981L150.861 169.43L151.34 169.6ZM155.54 157.99L156.018 158.164L156.022 158.151L155.54 157.99ZM152.24 167.05L151.762 166.876L151.513 167.559H152.24V167.05ZM159.59 167.05V167.559H160.319L160.067 166.875L159.59 167.05ZM156.26 157.99L155.781 158.161L155.783 158.165L156.26 157.99ZM155.9 156.73L156.4 156.639L155.401 156.63L155.9 156.73ZM149.42 174.491H146.36V175.509H149.42V174.491ZM146.838 175.174L154.758 153.484L153.802 153.136L145.882 174.826L146.838 175.174ZM154.28 153.819H157.55V152.801H154.28V153.819ZM157.072 153.485L165.022 175.175L165.978 174.825L158.028 153.135L157.072 153.485ZM165.5 174.491H162.41V175.509H165.5V174.491ZM162.888 174.827L160.938 169.427L159.982 169.773L161.932 175.173L162.888 174.827ZM160.46 169.091H151.34V170.109H160.46V169.091ZM150.861 169.43L148.941 174.83L149.899 175.17L151.819 169.77L150.861 169.43ZM155.062 157.816L151.762 166.876L152.718 167.224L156.018 158.164L155.062 157.816ZM152.24 167.559H159.59V166.541H152.24V167.559ZM160.067 166.875L156.737 157.815L155.783 158.165L159.113 167.225L160.067 166.875ZM156.739 157.819C156.593 157.411 156.453 156.93 156.4 156.639L155.4 156.821C155.467 157.189 155.627 157.729 155.781 158.161L156.739 157.819ZM155.401 156.63C155.348 156.898 155.206 157.383 155.058 157.829L156.022 158.151C156.174 157.697 156.332 157.162 156.399 156.83L155.401 156.63ZM172.823 153.31H173.332V152.801H172.823V153.31ZM172.823 175V175.509H173.332V175H172.823ZM169.883 175H169.375V175.509H169.883V175ZM169.883 153.31V152.801H169.375V153.31H169.883ZM172.315 153.31V175H173.332V153.31H172.315ZM172.823 174.491H169.883V175.509H172.823V174.491ZM170.392 175V153.31H169.375V175H170.392ZM169.883 153.819H172.823V152.801H169.883V153.819Z" fill="white" mask="url(#path-18-outside-2_1726_594)"/>
</g>
<defs>
<linearGradient id="paint0_linear_1726_594" x1="0" y1="188" x2="188" y2="0" gradientUnits="userSpaceOnUse">
<stop stop-color="#6734E2"/>
<stop offset="1" stop-color="#C16374"/>
</linearGradient>
<clipPath id="clip0_1726_594">
<rect width="188" height="188" rx="14" fill="white"/>
</clipPath>
</defs>
</svg>
