<svg width="145" height="16" viewBox="0 0 145 16" fill="none" xmlns="http://www.w3.org/2000/svg">
<g clip-path="url(#clip0_4_41)">
<path d="M7.68521 7.22967C7.77812 4.53709 7.51782 2.10024 7.37855 1.02965C7.35528 0.850825 7.11863 0.816082 7.03671 0.976733C5.34864 4.28715 3.99419 5.48436 0.570409 7.03638C0.401506 7.11294 0.434318 7.35873 0.618418 7.38103C1.77607 7.52132 4.37616 7.7792 7.22969 7.68435C7.47758 7.6761 7.67667 7.47755 7.68521 7.22967Z" fill="#EE1D1E"/>
<path d="M4.11473 2.10707C4.73418 2.7265 4.54921 3.54585 3.92976 4.1653C3.31031 4.78475 2.49098 4.96972 1.87153 4.35027C1.25209 3.73082 1.06712 2.54153 1.68656 1.9221C2.30601 1.30265 3.49529 1.48763 4.11473 2.10707Z" fill="#EF1D1E"/>
<path d="M8.31478 7.22967C8.22187 4.53709 8.48218 2.10024 8.62144 1.02965C8.64471 0.850825 8.88136 0.816082 8.96329 0.976733C10.6514 4.28715 12.0058 5.48436 15.4296 7.03638C15.5985 7.11294 15.5657 7.35873 15.3816 7.38103C14.2239 7.52132 11.6238 7.7792 8.77031 7.68435C8.52241 7.6761 8.32333 7.47755 8.31478 7.22967Z" fill="#FFA10C"/>
<path d="M11.8853 2.10707C11.2658 2.7265 11.4508 3.54585 12.0702 4.1653C12.6897 4.78475 13.509 4.96972 14.1285 4.35027C14.7479 3.73082 14.9329 2.54153 14.3134 1.9221C13.694 1.30265 12.5047 1.48763 11.8853 2.10707Z" fill="#FFA10C"/>
<path d="M7.68521 8.77034C7.77812 11.4629 7.51782 13.8998 7.37855 14.9704C7.35528 15.1492 7.11863 15.1839 7.03671 15.0233C5.34864 11.7129 3.99419 10.5156 0.570409 8.96363C0.401506 8.88707 0.434318 8.64128 0.618418 8.61897C1.77607 8.47869 4.37616 8.22081 7.22969 8.31566C7.47758 8.32391 7.67667 8.52246 7.68521 8.77034Z" fill="#2E9FE5"/>
<path d="M4.11473 13.8929C4.73418 13.2735 4.54921 12.4541 3.92976 11.8347C3.31031 11.2152 2.49098 11.0303 1.87153 11.6497C1.25209 12.2692 1.06712 13.4585 1.68656 14.0779C2.30601 14.6973 3.49529 14.5124 4.11473 13.8929Z" fill="#2E9FE5"/>
<path d="M8.31478 8.77034C8.22187 11.4629 8.48218 13.8998 8.62144 14.9704C8.64471 15.1492 8.88136 15.1839 8.96329 15.0233C10.6514 11.7129 12.0058 10.5156 15.4296 8.96363C15.5985 8.88707 15.5657 8.64128 15.3816 8.61897C14.2239 8.47869 11.6238 8.22081 8.77031 8.31566C8.52241 8.32391 8.32333 8.52246 8.31478 8.77034Z" fill="#86CE23"/>
<path d="M11.8853 13.8929C11.2658 13.2735 11.4508 12.4541 12.0702 11.8347C12.6897 11.2152 13.509 11.0303 14.1285 11.6497C14.7479 12.2692 14.9329 13.4585 14.3134 14.0779C13.694 14.6973 12.5047 14.5124 11.8853 13.8929Z" fill="#86CE24"/>
</g>
<path d="M23.4121 4.50586C23.002 4.50586 22.6348 4.58008 22.3105 4.72852C21.9902 4.87695 21.7188 5.0918 21.4961 5.37305C21.2734 5.65039 21.1035 5.98828 20.9863 6.38672C20.8691 6.78125 20.8105 7.22656 20.8105 7.72266C20.8105 8.38672 20.9043 8.95898 21.0918 9.43945C21.2793 9.91602 21.5645 10.2832 21.9473 10.541C22.3301 10.7949 22.8145 10.9219 23.4004 10.9219C23.7637 10.9219 24.1172 10.8867 24.4609 10.8164C24.8047 10.7461 25.1602 10.6504 25.5273 10.5293V11.7246C25.1797 11.8613 24.8281 11.9609 24.4727 12.0234C24.1172 12.0859 23.707 12.1172 23.2422 12.1172C22.3672 12.1172 21.6406 11.9355 21.0625 11.5723C20.4883 11.209 20.0586 10.6973 19.7734 10.0371C19.4922 9.37695 19.3516 8.60352 19.3516 7.7168C19.3516 7.06836 19.4414 6.47461 19.6211 5.93555C19.8008 5.39648 20.0625 4.93164 20.4062 4.54102C20.75 4.14648 21.1738 3.84375 21.6777 3.63281C22.1855 3.41797 22.7656 3.31055 23.418 3.31055C23.8477 3.31055 24.2695 3.35937 24.6836 3.45703C25.1016 3.55078 25.4883 3.68555 25.8438 3.86133L25.3516 5.02148C25.0547 4.88086 24.7441 4.75977 24.4199 4.6582C24.0957 4.55664 23.7598 4.50586 23.4121 4.50586ZM32.9688 8.74219C32.9688 9.28125 32.8984 9.75977 32.7578 10.1777C32.6172 10.5957 32.4121 10.9492 32.1426 11.2383C31.873 11.5234 31.5488 11.7422 31.1699 11.8945C30.791 12.043 30.3633 12.1172 29.8867 12.1172C29.4414 12.1172 29.0332 12.043 28.6621 11.8945C28.291 11.7422 27.9688 11.5234 27.6953 11.2383C27.4258 10.9492 27.2168 10.5957 27.0684 10.1777C26.9199 9.75977 26.8457 9.28125 26.8457 8.74219C26.8457 8.02734 26.9688 7.42188 27.2148 6.92578C27.4648 6.42578 27.8203 6.04492 28.2812 5.7832C28.7422 5.52148 29.291 5.39062 29.9277 5.39062C30.5254 5.39062 31.0527 5.52148 31.5098 5.7832C31.9668 6.04492 32.3242 6.42578 32.582 6.92578C32.8398 7.42578 32.9688 8.03125 32.9688 8.74219ZM28.2637 8.74219C28.2637 9.21484 28.3203 9.61914 28.4336 9.95508C28.5508 10.291 28.7305 10.5488 28.9727 10.7285C29.2148 10.9043 29.5273 10.9922 29.9102 10.9922C30.293 10.9922 30.6055 10.9043 30.8477 10.7285C31.0898 10.5488 31.2676 10.291 31.3809 9.95508C31.4941 9.61914 31.5508 9.21484 31.5508 8.74219C31.5508 8.26953 31.4941 7.86914 31.3809 7.54102C31.2676 7.20898 31.0898 6.95703 30.8477 6.78516C30.6055 6.60938 30.291 6.52148 29.9043 6.52148C29.334 6.52148 28.918 6.71289 28.6562 7.0957C28.3945 7.47852 28.2637 8.02734 28.2637 8.74219ZM37.9316 5.39062C38.6621 5.39062 39.2305 5.58008 39.6367 5.95898C40.0469 6.33398 40.252 6.9375 40.252 7.76953V12H38.875V8.02734C38.875 7.52344 38.7715 7.14648 38.5645 6.89648C38.3574 6.64258 38.0371 6.51562 37.6035 6.51562C36.9746 6.51562 36.5371 6.70898 36.291 7.0957C36.0488 7.48242 35.9277 8.04297 35.9277 8.77734V12H34.5508V5.51367H35.623L35.8164 6.39258H35.8926C36.0332 6.16602 36.207 5.98047 36.4141 5.83594C36.625 5.6875 36.8594 5.57617 37.1172 5.50195C37.3789 5.42773 37.6504 5.39062 37.9316 5.39062ZM43.6621 12L41.1953 5.51367H42.6543L43.9902 9.32227C44.0762 9.56445 44.1543 9.82617 44.2246 10.1074C44.2949 10.3887 44.3438 10.625 44.3711 10.8164H44.418C44.4453 10.6172 44.498 10.3789 44.5762 10.1016C44.6543 9.82031 44.7344 9.56055 44.8164 9.32227L46.1523 5.51367H47.6055L45.1387 12H43.6621ZM51.1738 5.39062C51.752 5.39062 52.248 5.50977 52.6621 5.74805C53.0762 5.98633 53.3945 6.32422 53.6172 6.76172C53.8398 7.19922 53.9512 7.72266 53.9512 8.33203V9.07031H49.6211C49.6367 9.69922 49.8047 10.1836 50.125 10.5234C50.4492 10.8633 50.9023 11.0332 51.4844 11.0332C51.8984 11.0332 52.2695 10.9941 52.5977 10.916C52.9297 10.834 53.2715 10.7148 53.623 10.5586V11.6777C53.2988 11.8301 52.9688 11.9414 52.6328 12.0117C52.2969 12.082 51.8945 12.1172 51.4258 12.1172C50.7891 12.1172 50.2285 11.9941 49.7441 11.748C49.2637 11.498 48.8867 11.127 48.6133 10.6348C48.3438 10.1426 48.209 9.53125 48.209 8.80078C48.209 8.07422 48.332 7.45703 48.5781 6.94922C48.8242 6.44141 49.1699 6.05469 49.6152 5.78906C50.0605 5.52344 50.5801 5.39062 51.1738 5.39062ZM51.1738 6.42773C50.7402 6.42773 50.3887 6.56836 50.1191 6.84961C49.8535 7.13086 49.6973 7.54297 49.6504 8.08594H52.6035C52.5996 7.76172 52.5449 7.47461 52.4395 7.22461C52.3379 6.97461 52.1816 6.7793 51.9707 6.63867C51.7637 6.49805 51.498 6.42773 51.1738 6.42773ZM58.791 5.39062C58.9004 5.39062 59.0195 5.39648 59.1484 5.4082C59.2773 5.41992 59.3887 5.43555 59.4824 5.45508L59.3535 6.74414C59.2715 6.7207 59.1699 6.70312 59.0488 6.69141C58.9316 6.67969 58.8262 6.67383 58.7324 6.67383C58.4863 6.67383 58.252 6.71484 58.0293 6.79688C57.8066 6.875 57.6094 6.99609 57.4375 7.16016C57.2656 7.32031 57.1309 7.52148 57.0332 7.76367C56.9355 8.00586 56.8867 8.28711 56.8867 8.60742V12H55.5039V5.51367H56.582L56.7695 6.65625H56.834C56.9629 6.42578 57.123 6.21484 57.3145 6.02344C57.5059 5.83203 57.7246 5.67969 57.9707 5.56641C58.2207 5.44922 58.4941 5.39062 58.791 5.39062ZM65.043 10.1484C65.043 10.5742 64.9395 10.9336 64.7324 11.2266C64.5254 11.5195 64.2227 11.7422 63.8242 11.8945C63.4297 12.043 62.9453 12.1172 62.3711 12.1172C61.918 12.1172 61.5273 12.084 61.1992 12.0176C60.875 11.9551 60.5684 11.8574 60.2793 11.7246V10.5352C60.5879 10.6797 60.9336 10.8047 61.3164 10.9102C61.7031 11.0156 62.0684 11.0684 62.4121 11.0684C62.8652 11.0684 63.1914 10.998 63.3906 10.8574C63.5898 10.7129 63.6895 10.5215 63.6895 10.2832C63.6895 10.1426 63.6484 10.0176 63.5664 9.9082C63.4883 9.79492 63.3398 9.67969 63.1211 9.5625C62.9062 9.44141 62.5898 9.29688 62.1719 9.12891C61.7617 8.96484 61.416 8.80078 61.1348 8.63672C60.8535 8.47266 60.6406 8.27539 60.4961 8.04492C60.3516 7.81055 60.2793 7.51172 60.2793 7.14844C60.2793 6.57422 60.5059 6.13867 60.959 5.8418C61.416 5.54102 62.0195 5.39062 62.7695 5.39062C63.168 5.39062 63.543 5.43164 63.8945 5.51367C64.25 5.5918 64.5977 5.70703 64.9375 5.85938L64.5039 6.89648C64.2109 6.76758 63.916 6.66211 63.6191 6.58008C63.3262 6.49414 63.0273 6.45117 62.7227 6.45117C62.3672 6.45117 62.0957 6.50586 61.9082 6.61523C61.7246 6.72461 61.6328 6.88086 61.6328 7.08398C61.6328 7.23633 61.6777 7.36523 61.7676 7.4707C61.8574 7.57617 62.0117 7.68164 62.2305 7.78711C62.4531 7.89258 62.7617 8.02344 63.1562 8.17969C63.543 8.32812 63.877 8.48438 64.1582 8.64844C64.4434 8.80859 64.6621 9.00586 64.8145 9.24023C64.9668 9.47461 65.043 9.77734 65.043 10.1484ZM69.0742 5.39062C69.8945 5.39062 70.5137 5.57227 70.9316 5.93555C71.3535 6.29883 71.5645 6.86523 71.5645 7.63477V12H70.5859L70.3223 11.0801H70.2754C70.0918 11.3145 69.9023 11.5078 69.707 11.6602C69.5117 11.8125 69.2852 11.9258 69.0273 12C68.7734 12.0781 68.4629 12.1172 68.0957 12.1172C67.709 12.1172 67.3633 12.0469 67.0586 11.9062C66.7539 11.7617 66.5137 11.543 66.3379 11.25C66.1621 10.957 66.0742 10.5859 66.0742 10.1367C66.0742 9.46875 66.3223 8.9668 66.8184 8.63086C67.3184 8.29492 68.0723 8.10938 69.0801 8.07422L70.2051 8.0332V7.69336C70.2051 7.24414 70.0996 6.92383 69.8887 6.73242C69.6816 6.54102 69.3887 6.44531 69.0098 6.44531C68.6855 6.44531 68.3711 6.49219 68.0664 6.58594C67.7617 6.67969 67.4648 6.79492 67.1758 6.93164L66.7305 5.95898C67.0469 5.79102 67.4062 5.6543 67.8086 5.54883C68.2148 5.44336 68.6367 5.39062 69.0742 5.39062ZM70.1992 8.90039L69.3613 8.92969C68.6738 8.95312 68.1914 9.07031 67.9141 9.28125C67.6367 9.49219 67.498 9.78125 67.498 10.1484C67.498 10.4688 67.5938 10.7031 67.7852 10.8516C67.9766 10.9961 68.2285 11.0684 68.541 11.0684C69.0176 11.0684 69.4121 10.9336 69.7246 10.6641C70.041 10.3906 70.1992 9.99023 70.1992 9.46289V8.90039ZM79.2227 12.1172C78.6094 12.1172 78.0781 11.998 77.6289 11.7598C77.1797 11.5215 76.834 11.1562 76.5918 10.6641C76.3496 10.1719 76.2285 9.54688 76.2285 8.78906C76.2285 8 76.3613 7.35547 76.627 6.85547C76.8926 6.35547 77.2598 5.98633 77.7285 5.74805C78.2012 5.50977 78.7422 5.39062 79.3516 5.39062C79.7383 5.39062 80.0879 5.42969 80.4004 5.50781C80.7168 5.58203 80.9844 5.67383 81.2031 5.7832L80.793 6.88477C80.5547 6.78711 80.3105 6.70508 80.0605 6.63867C79.8105 6.57227 79.5703 6.53906 79.3398 6.53906C78.9609 6.53906 78.6445 6.62305 78.3906 6.79102C78.1406 6.95898 77.9531 7.20898 77.8281 7.54102C77.707 7.87305 77.6465 8.28516 77.6465 8.77734C77.6465 9.25391 77.709 9.65625 77.834 9.98438C77.959 10.3086 78.1445 10.5547 78.3906 10.7227C78.6367 10.8867 78.9395 10.9688 79.2988 10.9688C79.6543 10.9688 79.9727 10.9258 80.2539 10.8398C80.5352 10.7539 80.8008 10.6426 81.0508 10.5059V11.7012C80.8047 11.8418 80.541 11.9453 80.2598 12.0117C79.9785 12.082 79.6328 12.1172 79.2227 12.1172ZM88.3164 8.74219C88.3164 9.28125 88.2461 9.75977 88.1055 10.1777C87.9648 10.5957 87.7598 10.9492 87.4902 11.2383C87.2207 11.5234 86.8965 11.7422 86.5176 11.8945C86.1387 12.043 85.7109 12.1172 85.2344 12.1172C84.7891 12.1172 84.3809 12.043 84.0098 11.8945C83.6387 11.7422 83.3164 11.5234 83.043 11.2383C82.7734 10.9492 82.5645 10.5957 82.416 10.1777C82.2676 9.75977 82.1934 9.28125 82.1934 8.74219C82.1934 8.02734 82.3164 7.42188 82.5625 6.92578C82.8125 6.42578 83.168 6.04492 83.6289 5.7832C84.0898 5.52148 84.6387 5.39062 85.2754 5.39062C85.873 5.39062 86.4004 5.52148 86.8574 5.7832C87.3145 6.04492 87.6719 6.42578 87.9297 6.92578C88.1875 7.42578 88.3164 8.03125 88.3164 8.74219ZM83.6113 8.74219C83.6113 9.21484 83.668 9.61914 83.7812 9.95508C83.8984 10.291 84.0781 10.5488 84.3203 10.7285C84.5625 10.9043 84.875 10.9922 85.2578 10.9922C85.6406 10.9922 85.9531 10.9043 86.1953 10.7285C86.4375 10.5488 86.6152 10.291 86.7285 9.95508C86.8418 9.61914 86.8984 9.21484 86.8984 8.74219C86.8984 8.26953 86.8418 7.86914 86.7285 7.54102C86.6152 7.20898 86.4375 6.95703 86.1953 6.78516C85.9531 6.60938 85.6387 6.52148 85.252 6.52148C84.6816 6.52148 84.2656 6.71289 84.0039 7.0957C83.7422 7.47852 83.6113 8.02734 83.6113 8.74219ZM97.2285 5.39062C97.9551 5.39062 98.502 5.57812 98.8691 5.95312C99.2402 6.32812 99.4258 6.92969 99.4258 7.75781V12H98.0488V8.00391C98.0488 7.51172 97.9531 7.14062 97.7617 6.89062C97.5703 6.64062 97.2793 6.51562 96.8887 6.51562C96.3418 6.51562 95.9473 6.69141 95.7051 7.04297C95.4668 7.39062 95.3477 7.89648 95.3477 8.56055V12H93.9707V8.00391C93.9707 7.67578 93.9277 7.40234 93.8418 7.18359C93.7598 6.96094 93.6328 6.79492 93.4609 6.68555C93.2891 6.57227 93.0723 6.51562 92.8105 6.51562C92.4316 6.51562 92.1289 6.60156 91.9023 6.77344C91.6797 6.94531 91.5195 7.19922 91.4219 7.53516C91.3242 7.86719 91.2754 8.27539 91.2754 8.75977V12H89.8984V5.51367H90.9707L91.1641 6.38672H91.2402C91.373 6.16016 91.5371 5.97461 91.7324 5.83008C91.9316 5.68164 92.1523 5.57227 92.3945 5.50195C92.6367 5.42773 92.8887 5.39062 93.1504 5.39062C93.6348 5.39062 94.043 5.47656 94.375 5.64844C94.707 5.81641 94.9551 6.07422 95.1191 6.42188H95.2246C95.4277 6.07031 95.7109 5.81055 96.0742 5.64258C96.4375 5.47461 96.8223 5.39062 97.2285 5.39062Z" fill="white"/>
<path d="M107.617 5.39062C108.438 5.39062 109.057 5.57227 109.475 5.93555C109.896 6.29883 110.107 6.86523 110.107 7.63477V12H109.129L108.865 11.0801H108.818C108.635 11.3145 108.445 11.5078 108.25 11.6602C108.055 11.8125 107.828 11.9258 107.57 12C107.316 12.0781 107.006 12.1172 106.639 12.1172C106.252 12.1172 105.906 12.0469 105.602 11.9062C105.297 11.7617 105.057 11.543 104.881 11.25C104.705 10.957 104.617 10.5859 104.617 10.1367C104.617 9.46875 104.865 8.9668 105.361 8.63086C105.861 8.29492 106.615 8.10938 107.623 8.07422L108.748 8.0332V7.69336C108.748 7.24414 108.643 6.92383 108.432 6.73242C108.225 6.54102 107.932 6.44531 107.553 6.44531C107.229 6.44531 106.914 6.49219 106.609 6.58594C106.305 6.67969 106.008 6.79492 105.719 6.93164L105.273 5.95898C105.59 5.79102 105.949 5.6543 106.352 5.54883C106.758 5.44336 107.18 5.39062 107.617 5.39062ZM108.742 8.90039L107.904 8.92969C107.217 8.95312 106.734 9.07031 106.457 9.28125C106.18 9.49219 106.041 9.78125 106.041 10.1484C106.041 10.4688 106.137 10.7031 106.328 10.8516C106.52 10.9961 106.771 11.0684 107.084 11.0684C107.561 11.0684 107.955 10.9336 108.268 10.6641C108.584 10.3906 108.742 9.99023 108.742 9.46289V8.90039ZM113.887 14.8828C113.008 14.8828 112.334 14.7246 111.865 14.4082C111.396 14.0918 111.162 13.6484 111.162 13.0781C111.162 12.6797 111.287 12.3418 111.537 12.0645C111.787 11.791 112.145 11.6016 112.609 11.4961C112.434 11.418 112.281 11.2969 112.152 11.1328C112.027 10.9648 111.965 10.7793 111.965 10.5762C111.965 10.334 112.033 10.127 112.17 9.95508C112.307 9.7832 112.512 9.61719 112.785 9.45703C112.445 9.3125 112.172 9.07812 111.965 8.75391C111.762 8.42578 111.66 8.04102 111.66 7.59961C111.66 7.13086 111.76 6.73242 111.959 6.4043C112.158 6.07227 112.449 5.82031 112.832 5.64844C113.215 5.47266 113.678 5.38477 114.221 5.38477C114.338 5.38477 114.465 5.39258 114.602 5.4082C114.742 5.41992 114.871 5.43555 114.988 5.45508C115.109 5.4707 115.201 5.48828 115.264 5.50781H117.508V6.27539L116.406 6.48047C116.512 6.62891 116.596 6.79883 116.658 6.99023C116.721 7.17773 116.752 7.38281 116.752 7.60547C116.752 8.27734 116.52 8.80664 116.055 9.19336C115.594 9.57617 114.957 9.76758 114.145 9.76758C113.949 9.75977 113.76 9.74414 113.576 9.7207C113.436 9.80664 113.328 9.90234 113.254 10.0078C113.18 10.1094 113.143 10.2246 113.143 10.3535C113.143 10.459 113.18 10.5449 113.254 10.6113C113.328 10.6738 113.438 10.7207 113.582 10.752C113.73 10.7832 113.91 10.7988 114.121 10.7988H115.24C115.951 10.7988 116.494 10.9492 116.869 11.25C117.244 11.5508 117.432 11.9922 117.432 12.5742C117.432 13.3125 117.127 13.8809 116.518 14.2793C115.908 14.6816 115.031 14.8828 113.887 14.8828ZM113.939 13.916C114.42 13.916 114.824 13.8691 115.152 13.7754C115.48 13.6816 115.729 13.5469 115.896 13.3711C116.064 13.1992 116.148 12.9941 116.148 12.7559C116.148 12.5449 116.096 12.3828 115.99 12.2695C115.885 12.1562 115.727 12.0781 115.516 12.0352C115.305 11.9922 115.043 11.9707 114.73 11.9707H113.711C113.457 11.9707 113.232 12.0098 113.037 12.0879C112.842 12.1699 112.689 12.2871 112.58 12.4395C112.475 12.5918 112.422 12.7754 112.422 12.9902C112.422 13.2871 112.553 13.5156 112.814 13.6758C113.08 13.8359 113.455 13.916 113.939 13.916ZM114.209 8.86523C114.611 8.86523 114.91 8.75586 115.105 8.53711C115.301 8.31445 115.398 8.00195 115.398 7.59961C115.398 7.16211 115.297 6.83398 115.094 6.61523C114.895 6.39648 114.598 6.28711 114.203 6.28711C113.816 6.28711 113.521 6.39844 113.318 6.62109C113.119 6.84375 113.02 7.17383 113.02 7.61133C113.02 8.00586 113.119 8.31445 113.318 8.53711C113.521 8.75586 113.818 8.86523 114.209 8.86523ZM121.275 5.39062C121.854 5.39062 122.35 5.50977 122.764 5.74805C123.178 5.98633 123.496 6.32422 123.719 6.76172C123.941 7.19922 124.053 7.72266 124.053 8.33203V9.07031H119.723C119.738 9.69922 119.906 10.1836 120.227 10.5234C120.551 10.8633 121.004 11.0332 121.586 11.0332C122 11.0332 122.371 10.9941 122.699 10.916C123.031 10.834 123.373 10.7148 123.725 10.5586V11.6777C123.4 11.8301 123.07 11.9414 122.734 12.0117C122.398 12.082 121.996 12.1172 121.527 12.1172C120.891 12.1172 120.33 11.9941 119.846 11.748C119.365 11.498 118.988 11.127 118.715 10.6348C118.445 10.1426 118.311 9.53125 118.311 8.80078C118.311 8.07422 118.434 7.45703 118.68 6.94922C118.926 6.44141 119.271 6.05469 119.717 5.78906C120.162 5.52344 120.682 5.39062 121.275 5.39062ZM121.275 6.42773C120.842 6.42773 120.49 6.56836 120.221 6.84961C119.955 7.13086 119.799 7.54297 119.752 8.08594H122.705C122.701 7.76172 122.646 7.47461 122.541 7.22461C122.439 6.97461 122.283 6.7793 122.072 6.63867C121.865 6.49805 121.6 6.42773 121.275 6.42773ZM128.986 5.39062C129.717 5.39062 130.285 5.58008 130.691 5.95898C131.102 6.33398 131.307 6.9375 131.307 7.76953V12H129.93V8.02734C129.93 7.52344 129.826 7.14648 129.619 6.89648C129.412 6.64258 129.092 6.51562 128.658 6.51562C128.029 6.51562 127.592 6.70898 127.346 7.0957C127.104 7.48242 126.982 8.04297 126.982 8.77734V12H125.605V5.51367H126.678L126.871 6.39258H126.947C127.088 6.16602 127.262 5.98047 127.469 5.83594C127.68 5.6875 127.914 5.57617 128.172 5.50195C128.434 5.42773 128.705 5.39062 128.986 5.39062ZM135.648 11.0039C135.828 11.0039 136.006 10.9883 136.182 10.957C136.357 10.9219 136.518 10.8809 136.662 10.834V11.877C136.51 11.9434 136.312 12 136.07 12.0469C135.828 12.0938 135.576 12.1172 135.314 12.1172C134.947 12.1172 134.617 12.0566 134.324 11.9355C134.031 11.8105 133.799 11.5977 133.627 11.2969C133.455 10.9961 133.369 10.5801 133.369 10.0488V6.5625H132.484V5.94727L133.434 5.46094L133.885 4.07227H134.752V5.51367H136.609V6.5625H134.752V10.0312C134.752 10.3594 134.834 10.6035 134.998 10.7637C135.162 10.9238 135.379 11.0039 135.648 11.0039ZM140.564 5.39062C141.143 5.39062 141.639 5.50977 142.053 5.74805C142.467 5.98633 142.785 6.32422 143.008 6.76172C143.23 7.19922 143.342 7.72266 143.342 8.33203V9.07031H139.012C139.027 9.69922 139.195 10.1836 139.516 10.5234C139.84 10.8633 140.293 11.0332 140.875 11.0332C141.289 11.0332 141.66 10.9941 141.988 10.916C142.32 10.834 142.662 10.7148 143.014 10.5586V11.6777C142.689 11.8301 142.359 11.9414 142.023 12.0117C141.688 12.082 141.285 12.1172 140.816 12.1172C140.18 12.1172 139.619 11.9941 139.135 11.748C138.654 11.498 138.277 11.127 138.004 10.6348C137.734 10.1426 137.6 9.53125 137.6 8.80078C137.6 8.07422 137.723 7.45703 137.969 6.94922C138.215 6.44141 138.561 6.05469 139.006 5.78906C139.451 5.52344 139.971 5.39062 140.564 5.39062ZM140.564 6.42773C140.131 6.42773 139.779 6.56836 139.51 6.84961C139.244 7.13086 139.088 7.54297 139.041 8.08594H141.994C141.99 7.76172 141.936 7.47461 141.83 7.22461C141.729 6.97461 141.572 6.7793 141.361 6.63867C141.154 6.49805 140.889 6.42773 140.564 6.42773Z" fill="url(#paint0_linear_4_41)"/>
<defs>
<linearGradient id="paint0_linear_4_41" x1="124" y1="18.5" x2="124" y2="0.999999" gradientUnits="userSpaceOnUse">
<stop stop-color="#4DFF79"/>
<stop offset="0.87878" stop-color="#009E03"/>
</linearGradient>
<clipPath id="clip0_4_41">
<rect width="16" height="16" fill="white"/>
</clipPath>
</defs>
</svg>
