<svg width="87" height="32" viewBox="0 0 87 32" fill="none" xmlns="http://www.w3.org/2000/svg">
<path d="M27.3382 28.3011L18.4224 25.6719L25.1572 19.2652L27.3382 28.3011Z" fill="url(#paint0_linear_545_3184)"/>
<path fill-rule="evenodd" clip-rule="evenodd" d="M13.7794 27.5588C21.3895 27.5588 27.5588 21.3895 27.5588 13.7794C27.5588 6.16924 21.3895 0 13.7794 0C6.16924 0 0 6.16924 0 13.7794C0 21.3895 6.16924 27.5588 13.7794 27.5588ZM16.5111 7.39735H8.89616V20.1614H19.4845L13.1509 13.8277H16.5111C18.2868 13.8277 19.7263 12.3882 19.7263 10.6125C19.7263 8.83684 18.2868 7.39735 16.5111 7.39735Z" fill="url(#paint1_linear_545_3184)"/>
<path d="M37.0818 17.888L41.2098 22H39.1138L35.0498 17.904H34.2658V22H32.5858V10.8H37.5938C38.2231 10.8 38.7884 10.9547 39.2898 11.264C39.8018 11.5627 40.2018 11.984 40.4898 12.528C40.7884 13.072 40.9378 13.6853 40.9378 14.368C40.9378 15.04 40.7938 15.6427 40.5058 16.176C40.2178 16.7093 39.8284 17.1307 39.3378 17.44C38.8471 17.7387 38.3138 17.888 37.7378 17.888H37.0818ZM34.2658 16.352H37.5458C38.0258 16.352 38.4311 16.1707 38.7618 15.808C39.0924 15.4347 39.2578 14.9547 39.2578 14.368C39.2578 13.7813 39.0924 13.3013 38.7618 12.928C38.4311 12.5547 38.0258 12.368 37.5458 12.368H34.2658V16.352ZM51.5669 22.16C50.7029 22.16 49.9295 21.968 49.2469 21.584C48.5642 21.2 48.0255 20.656 47.6309 19.952C47.2469 19.248 47.0549 18.4373 47.0549 17.52V10.8H48.7349V17.52C48.7349 18.1067 48.8575 18.6347 49.1029 19.104C49.3589 19.5627 49.7002 19.92 50.1269 20.176C50.5642 20.432 51.0442 20.56 51.5669 20.56C52.0895 20.56 52.5642 20.432 52.9909 20.176C53.4282 19.92 53.7695 19.5627 54.0149 19.104C54.2602 18.6347 54.3829 18.1067 54.3829 17.52V10.8H56.0629V17.52C56.0629 18.4373 55.8709 19.248 55.4869 19.952C55.1029 20.656 54.5695 21.2 53.8869 21.584C53.2042 21.968 52.4309 22.16 51.5669 22.16ZM66.9144 22.16C66.0504 22.16 65.277 21.968 64.5944 21.584C63.9117 21.2 63.373 20.656 62.9784 19.952C62.5944 19.248 62.4024 18.4373 62.4024 17.52V10.8H64.0824V17.52C64.0824 18.1067 64.205 18.6347 64.4504 19.104C64.7064 19.5627 65.0477 19.92 65.4744 20.176C65.9117 20.432 66.3917 20.56 66.9144 20.56C67.437 20.56 67.9117 20.432 68.3384 20.176C68.7757 19.92 69.117 19.5627 69.3624 19.104C69.6077 18.6347 69.7304 18.1067 69.7304 17.52V10.8H71.4104V17.52C71.4104 18.4373 71.2184 19.248 70.8344 19.952C70.4504 20.656 69.917 21.2 69.2344 21.584C68.5517 21.968 67.7784 22.16 66.9144 22.16ZM82.2299 22H80.5499V12.4H77.0299V10.8H85.7339V12.4H82.2299V22Z" fill="#A552E8"/>
<defs>
<linearGradient id="paint0_linear_545_3184" x1="23.0625" y1="21.3688" x2="30.0243" y2="28.7109" gradientUnits="userSpaceOnUse">
<stop stop-color="#8932F7"/>
<stop offset="1" stop-color="#D688CD"/>
</linearGradient>
<linearGradient id="paint1_linear_545_3184" x1="27.9939" y1="27.5893" x2="9.686" y2="8.78824" gradientUnits="userSpaceOnUse">
<stop stop-color="#8932F7"/>
<stop offset="1" stop-color="#D688CD"/>
</linearGradient>
</defs>
</svg>
