<svg width="4439" height="850" viewBox="0 0 4439 850" fill="none" xmlns="http://www.w3.org/2000/svg">
<path d="M4018.88 0.0778032C3882.32 0.0778032 3766.8 59.9085 3675.58 178.014C3599.86 275.968 3518.22 420.838 3511.75 432.352C3482.85 479.423 3445.85 536.842 3411.34 581.501C3347.85 663.661 3275.95 701.941 3185.12 701.941C3035.08 701.941 2913.01 580.023 2913.01 430.174C2913.01 280.325 3035.08 158.407 3185.12 158.407C3280.47 158.407 3367.17 206.879 3417.1 288.105L3589.26 0H3416.95L3381.66 59.0526C3322.3 27.6979 3255.23 10.5812 3185.12 10.5812C2953.52 10.5812 2765 198.787 2765 430.174C2765 661.561 2953.44 849.767 3185.12 849.767C3321.68 849.767 3437.2 789.936 3528.42 671.831C3604.14 573.876 3685.78 429.007 3692.25 417.492C3721.15 370.421 3758.15 313.002 3792.66 268.343C3856.15 186.183 3928.05 147.904 4018.88 147.904C4168.92 147.904 4290.99 269.822 4290.99 419.67C4290.99 569.519 4168.92 691.437 4018.88 691.437C3923.53 691.437 3836.83 642.966 3786.9 561.739L3614.74 850H3787.05L3822.34 790.947C3881.7 822.302 3948.77 839.419 4018.88 839.419C4250.48 839.419 4439 651.213 4439 419.826C4439 188.439 4250.56 0.0778032 4018.88 0.0778032Z" fill="#6C47E4"/>
<path d="M37.5268 276.967C12.7108 251.412 0.302734 215.557 0.302734 169.201C0.302734 119.083 12.2972 80.5525 36.286 53.512C60.2749 26.5706 97.8092 13.0007 148.786 13.0007C165.743 13.0007 181.253 14.1893 195.316 16.5665C209.275 18.9437 222.51 22.4105 234.815 26.8677V77.1848C209.482 66.6856 181.977 61.3368 152.301 61.3368C118.593 61.3368 94.1902 70.5484 79.0938 88.8725C63.8939 107.197 56.3457 133.94 56.3457 169.102C56.3457 200.996 64.4109 225.164 80.5414 241.606C96.6718 258.049 121.074 266.27 153.749 266.27C167.398 266.27 181.357 264.883 195.522 262.209C209.688 259.534 222.924 255.771 235.228 250.917V301.63C221.89 306.088 208.241 309.455 194.282 311.733C180.323 314.012 165.123 315.101 148.786 315.101C99.4636 315.101 62.3429 302.324 37.5268 276.769V276.967Z" fill="#6C47E4"/>
<path d="M354.046 277.761C330.368 252.701 318.58 215.459 318.58 165.934C318.58 112.943 330.161 74.2143 353.323 49.8482C376.484 25.383 411.744 13.2 458.998 13.2C506.252 13.2 541.097 25.383 564.259 49.8482C587.421 74.3133 599.002 112.943 599.002 165.934C599.002 215.459 587.214 252.701 563.742 277.761C540.27 302.82 505.321 315.3 458.998 315.3C412.674 315.3 377.725 302.82 354.046 277.761ZM522.796 241.41C536.651 224.67 543.579 199.512 543.579 166.033C543.579 128.394 536.755 101.552 523.106 85.605C509.457 69.658 488.157 61.635 459.101 61.635C430.046 61.635 408.332 69.658 394.889 85.605C381.344 101.552 374.623 128.394 374.623 166.033C374.623 199.908 381.551 225.066 395.406 241.707C409.262 258.347 430.459 266.568 459.101 266.568C487.743 266.568 509.043 258.149 522.796 241.41Z" fill="#6C47E4"/>
<path d="M1128.81 310.743H1073.8V17.6558H1121.26L1266.75 219.716V17.6558H1322.27V310.743H1274.3L1128.81 109.177V310.743Z" fill="#6C47E4"/>
<path d="M765.054 310.743H710.045V17.6558H757.506L902.99 219.716V17.6558H958.516V310.743H910.538L765.054 109.177V310.743Z" fill="#6C47E4"/>
<path d="M1492.45 310.743H1437.44V17.6558H1484.9L1630.39 219.716V17.6558H1685.91V310.743H1637.94L1492.45 109.177V310.743Z" fill="#6C47E4"/>
<path d="M1986.3 310.743H1780.33V17.6558H1986.3V60.247H1835.34V142.161H1969.34V186.238H1835.34V268.151H1986.3V310.743Z" fill="#6C47E4"/>
<path d="M2089.5 276.967C2064.69 251.412 2052.28 215.557 2052.28 169.201C2052.28 119.083 2064.27 80.5525 2088.26 53.512C2112.25 26.5706 2149.78 13.0007 2200.76 13.0007C2217.72 13.0007 2233.23 14.1893 2247.29 16.5665C2261.25 18.9437 2274.48 22.4105 2286.79 26.8677V77.1848C2261.46 66.6856 2233.95 61.3368 2204.28 61.3368C2170.57 61.3368 2146.16 70.5484 2131.07 88.8725C2115.87 107.197 2108.32 133.94 2108.32 169.102C2108.32 200.996 2116.39 225.164 2132.52 241.606C2148.65 258.049 2173.05 266.27 2205.72 266.27C2219.37 266.27 2233.33 264.883 2247.5 262.209C2261.66 259.534 2274.9 255.771 2287.2 250.917V301.63C2273.86 306.088 2260.22 309.455 2246.26 311.733C2232.3 314.012 2217.1 315.101 2200.76 315.101C2151.44 315.101 2114.32 302.324 2089.5 276.769V276.967Z" fill="#6C47E4"/>
<path d="M2502.18 310.746H2447.17V60.3493H2356.18V17.7581H2593.58V60.3493H2502.07V310.746H2502.18Z" fill="#6C47E4"/>
<path d="M1005.55 782.911C1012.58 782.911 1018.06 781.128 1022.09 777.464C1026.13 773.799 1028.19 768.945 1028.19 762.804V698.125H1081.86V760.823C1081.86 768.054 1083.82 773.601 1087.75 777.265C1091.68 781.029 1097.58 782.911 1105.33 782.911H1120.84C1123.63 782.911 1125.08 792.123 1125.08 810.645C1125.08 827.781 1123.63 836.398 1120.84 836.398H1102.85C1091.68 836.398 1081.96 834.813 1073.9 831.742C1065.83 828.672 1059.52 823.819 1054.98 817.083C1049.91 823.819 1043.29 828.672 1035.02 831.742C1026.75 834.813 1016.92 836.398 1005.45 836.398H867.407C841.971 836.398 822.635 830.059 809.296 817.281C796.061 804.504 789.34 786.279 789.34 762.408V698.125H843.005V755.574C843.005 764.983 845.073 771.818 849.312 776.275C853.551 780.732 860.479 782.911 870.302 782.911H1005.34H1005.55ZM876.3 670.391V624.63H937.512V670.391H876.3ZM933.376 670.391V624.63H994.589V670.391H933.376Z" fill="#6C47E4"/>
<path d="M1232.1 782.91C1240.78 782.91 1247.5 781.622 1252.26 778.849C1257.02 776.075 1259.39 772.411 1259.39 767.557C1259.39 763.298 1258.26 759.435 1256.08 755.869C1253.81 752.403 1250.4 748.243 1245.64 743.389L1154.65 658.207V616.408L1313.27 557.771L1328.78 607.196L1220.52 646.618L1285.55 708.92C1309.85 732.197 1328.05 748.837 1340.05 758.742C1352.04 768.647 1361.76 775.184 1369 778.255C1376.24 781.325 1384.82 782.91 1394.64 782.91C1397.43 782.91 1398.88 792.122 1398.88 810.644C1398.88 827.779 1397.43 836.396 1394.64 836.396C1380.37 836.396 1368.79 835.505 1360 833.623C1351.21 831.741 1342.84 828.274 1334.88 823.223C1326.91 818.171 1317.5 810.247 1306.54 799.55C1303.44 807.573 1298.58 814.308 1291.86 819.855C1285.14 825.303 1276.87 829.463 1266.94 832.335C1257.02 835.109 1246.06 836.595 1233.96 836.595H1121.15C1118.36 836.595 1116.91 827.977 1116.91 810.842C1116.91 799.352 1117.32 791.824 1118.15 788.358C1118.98 784.891 1120.01 783.108 1121.04 783.108H1232.2L1232.1 782.91Z" fill="#6C47E4"/>
<path d="M1512.33 764.387C1512.33 786.871 1505.5 804.502 1491.75 817.279C1478 829.958 1459.28 836.396 1435.5 836.396H1394.35C1391.56 836.396 1390.11 827.778 1390.11 810.643C1390.11 799.153 1390.52 791.625 1391.35 788.159C1392.18 784.692 1393.21 782.909 1394.24 782.909H1435.4C1442.63 782.909 1448.43 781.126 1452.56 777.461C1456.7 773.797 1458.87 768.844 1458.87 762.406V698.123H1512.12V764.387H1512.33ZM1438.5 655.829V610.068H1496.4V655.829H1438.5Z" fill="#6C47E4"/>
<path d="M1658.74 782.913C1660.08 782.913 1661.22 784.696 1661.84 788.162C1662.57 791.629 1662.88 799.157 1662.88 810.647C1662.88 822.136 1662.57 828.673 1661.84 831.744C1661.12 834.814 1660.08 836.399 1658.74 836.399H1643.64C1620.17 836.399 1602.28 829.862 1590.18 816.887C1577.98 803.911 1571.99 785.389 1571.99 761.221V577.187H1625.65V757.655C1625.65 766.272 1627.41 772.611 1630.92 776.772C1634.44 780.932 1639.92 783.012 1647.47 783.012H1658.84L1658.74 782.913Z" fill="#6C47E4"/>
<path d="M1769.9 782.91C1778.59 782.91 1785.31 781.622 1790.07 778.849C1794.82 776.076 1797.2 772.411 1797.2 767.557C1797.2 763.298 1796.06 759.435 1793.89 755.869C1791.62 752.403 1788.2 748.243 1783.45 743.389L1692.46 658.207V616.408L1851.07 557.771L1866.58 607.196L1758.32 646.618L1823.77 708.92C1833.8 718.528 1841.15 728.433 1845.59 738.437C1850.04 748.441 1852.31 759.237 1852.31 770.826C1852.31 790.141 1845.28 805.889 1831.12 818.072C1816.95 830.256 1797.2 836.397 1771.76 836.397H1658.95C1656.16 836.397 1654.71 827.779 1654.71 810.644C1654.71 799.154 1655.13 791.626 1655.96 788.16C1656.78 784.693 1657.82 782.91 1658.85 782.91H1770.01H1769.9Z" fill="#6C47E4"/>
</svg>
