<?xml version="1.0" encoding="UTF-8"?>
<svg version="1.1" xmlns="http://www.w3.org/2000/svg" width="768" height="256">
<path d="M0 0 C1.8253125 0.0309375 1.8253125 0.0309375 3.6875 0.0625 C8.28646513 1.36409391 10.4375887 4.0617974 13 8 C15.42021258 15.26063774 14.47290861 21.752883 11.4375 28.6875 C8.63366157 34.24252261 5.46773931 38.69041075 1 43 C0.47921875 43.54140625 -0.0415625 44.0828125 -0.578125 44.640625 C-5.38257899 49.25849825 -13.18923534 54 -20 54 C-20.03867188 55.02480469 -20.03867188 55.02480469 -20.078125 56.0703125 C-21.01512493 72.72335669 -22.30785925 92.75811414 -34.75 105.125 C-39.98985677 109.18166331 -45.24468383 110.4713786 -51.80078125 109.6484375 C-62.28671649 107.24087837 -69.78036296 100.60544016 -76 92 C-82.49368067 79.42434175 -81.94059627 65.95058138 -77.8125 52.6875 C-73.09713835 38.55499909 -64.38120762 24.73336482 -52 16 C-51.34 16 -50.68 16 -50 16 C-50 15.34 -50 14.68 -50 14 C-35.9130531 3.58562771 -17.35316923 -0.97177748 0 0 Z " fill="#8EBE56" transform="translate(120,52)"/>
<path d="M0 0 C3.38764462 1.40178398 5.09151495 2.86502455 7 6 C12.43115409 21.24299213 10.31447879 38.35887255 3.51928711 52.91699219 C0.5836416 58.72897723 -2.82366363 64.01608477 -7 69 C-7.69996094 69.8971875 -7.69996094 69.8971875 -8.4140625 70.8125 C-9.55472516 72.25333704 -10.7706469 73.63405211 -12 75 C-12.66 75 -13.32 75 -14 75 C-14.23976563 75.59039062 -14.47953125 76.18078125 -14.7265625 76.7890625 C-20.49426093 86.80291929 -37.45418782 92.25024972 -47.8984375 95.25390625 C-52.27171787 96.30591702 -56.5104973 96.83400158 -61 97 C-61.73605469 97.02835937 -62.47210938 97.05671875 -63.23046875 97.0859375 C-65.49335612 97.1259886 -67.73818139 97.07641279 -70 97 C-71.175625 96.99226563 -71.175625 96.99226563 -72.375 96.984375 C-85.18036199 96.43780467 -98.61124352 91.39013962 -109 84 C-109.70253906 83.52820313 -110.40507813 83.05640625 -111.12890625 82.5703125 C-116.21229538 79.00132962 -120.11529473 74.82088425 -124 70 C-124.63421875 69.21753906 -125.2684375 68.43507813 -125.921875 67.62890625 C-133 58.7227531 -133 58.7227531 -133 54 C-129.3030322 54.5631143 -127.79398304 55.95630798 -125.3125 58.6875 C-121.26572933 62.90006016 -116.92878989 65.91738914 -112 69 C-110.57880859 70.00740234 -110.57880859 70.00740234 -109.12890625 71.03515625 C-99.46082163 77.10637543 -85.45387066 79.3473729 -74.23046875 77.55859375 C-69.37722173 76.15010581 -66.12700621 74.07458385 -63 70 C-59.10872872 62.21745744 -60.8528085 52.99365034 -62.48828125 44.8046875 C-64.69772745 32.6948984 -65.69100329 18.85006318 -62 7 C-60.00346266 4.55730907 -59.39126585 4.06086358 -56.1875 3.5625 C-52.23223081 4.10538009 -50.07982288 5.50681005 -47 8 C-47 8.66 -47 9.32 -47 10 C-46.27296875 10.25136719 -45.5459375 10.50273438 -44.796875 10.76171875 C-41.78301937 12.09606545 -39.75005079 13.67601869 -37.25 15.8125 C-30.10405222 21.67857653 -23.42443239 26.11566744 -14 26.1875 C-12.7315625 26.20876953 -12.7315625 26.20876953 -11.4375 26.23046875 C-8.75807145 25.97712535 -7.23354604 25.4922192 -5 24 C0.13401304 17.17094773 -0.21477604 8.15075075 0 0 Z " fill="#09ADC0" transform="translate(181,107)"/>
<path d="M0 0 C0 1.32 0 2.64 0 4 C-0.66 4.33 -1.32 4.66 -2 5 C-1.979375 6.27875 -1.95875 7.5575 -1.9375 8.875 C-1.875 12.75 -1.875 12.75 -3 15 C-3.05656266 17.10748287 -3.10922527 19.21518288 -3.13696289 21.32324219 C-3.36370258 32.7719534 -5.3330651 41.75928377 -13.75 50.125 C-18.98985677 54.18166331 -24.24468383 55.4713786 -30.80078125 54.6484375 C-41.28671649 52.24087837 -48.78036296 45.60544016 -55 37 C-59.0222612 29.21049128 -60.23966289 22.39721581 -59.5625 13.6875 C-59.51029297 12.94693359 -59.45808594 12.20636719 -59.40429688 11.44335938 C-59.27549848 9.62847291 -59.13856738 7.81416675 -59 6 C-58.67 7.32 -58.34 8.64 -58 10 C-54.66082875 7.53955803 -52.7860883 5.69975433 -51 2 C-48.31739684 1.10579895 -46.66102815 0.85419132 -43.89916992 0.79467773 C-43.07789108 0.77473251 -42.25661224 0.75478729 -41.41044617 0.73423767 C-40.52605362 0.71752518 -39.64166107 0.70081268 -38.73046875 0.68359375 C-37.81670975 0.66281265 -36.90295074 0.64203156 -35.96150208 0.62062073 C-33.03691126 0.55523895 -30.11222831 0.49637425 -27.1875 0.4375 C-25.22850653 0.39429048 -23.26952197 0.35067541 -21.31054688 0.30664062 C-6.04331803 -0.02894486 -6.04331803 -0.02894486 0 0 Z " fill="#C9D852" transform="translate(99,107)"/>
<path d="M0 0 C0.474375 0.4125 0.94875 0.825 1.4375 1.25 C1.685 0.62609375 1.9325 0.0021875 2.1875 -0.640625 C4.09726699 -3.86335679 6.40217533 -4.1980303 9.875 -5.2109375 C17.30969131 -6.77494268 24.6176189 -6.23166014 31.4375 -2.75 C36.03465812 0.58712334 37.95365979 3.74644857 39.4375 9.25 C39.72077663 12.48606329 39.71803763 15.70625208 39.703125 18.953125 C39.70503845 19.87212585 39.7069519 20.79112671 39.70892334 21.73797607 C39.71027929 23.67102331 39.70662424 25.60407984 39.69824219 27.53710938 C39.68748509 30.50411186 39.69818261 33.47051562 39.7109375 36.4375 C39.70961676 38.31770967 39.70705615 40.19791897 39.703125 42.078125 C39.70717346 42.96767883 39.71122192 43.85723267 39.71539307 44.77374268 C39.66744941 51.02005059 39.66744941 51.02005059 37.4375 53.25 C31.11491935 53.58870968 31.11491935 53.58870968 28.4375 52.25 C27.22273918 48.60571753 27.35091166 45.30032057 27.41015625 41.51171875 C27.42280713 39.9537783 27.43516774 38.39583547 27.44726562 36.83789062 C27.47203159 34.38900289 27.49996254 31.9402397 27.53344727 29.49145508 C27.56380029 27.12320193 27.58147337 24.75510536 27.59765625 22.38671875 C27.61111588 21.66151535 27.6245755 20.93631195 27.63844299 20.18913269 C27.65980319 15.82327957 27.16340194 12.27202236 25.4375 8.25 C21.56485126 5.40896593 17.03853175 5.71690363 12.4375 6.25 C9.43629395 7.3136649 9.43629395 7.3136649 7.4375 9.25 C6.08199166 13.36620018 6.24708743 17.59254114 6.19140625 21.8828125 C6.15849237 23.59245351 6.12528034 25.3020888 6.09179688 27.01171875 C6.0442353 29.70227437 5.99974164 32.39280285 5.96069336 35.08349609 C5.9211126 37.68350153 5.86956444 40.28305429 5.81640625 42.8828125 C5.8079921 43.69114532 5.79957794 44.49947815 5.79090881 45.33230591 C5.66424658 51.02325342 5.66424658 51.02325342 3.4375 53.25 C-0.0625 53.5 -0.0625 53.5 -3.5625 53.25 C-6.59047069 50.22202931 -5.86058572 46.76028634 -5.87109375 42.69921875 C-5.89626021 40.95116863 -5.92165814 39.20312184 -5.94726562 37.45507812 C-5.97598078 34.69670518 -5.99999393 31.93839011 -6.01879883 29.17993164 C-6.04049132 26.51938335 -6.07994146 23.85952688 -6.12109375 21.19921875 C-6.12120956 20.37822189 -6.12132538 19.55722504 -6.1214447 18.71134949 C-6.20068795 14.11329681 -6.50558532 10.93906971 -9.5625 7.25 C-12.33302181 6.32649273 -14.12938758 6.08670415 -17 6.0625 C-18.14275391 6.04123047 -18.14275391 6.04123047 -19.30859375 6.01953125 C-21.9708322 6.29175321 -23.40088789 6.64829591 -25.5625 8.25 C-27.67366012 13.16755604 -27.87036078 17.60845396 -27.90625 22.859375 C-27.9208728 23.66739563 -27.93549561 24.47541626 -27.95056152 25.30792236 C-28.01256864 28.74532777 -28.05260409 32.18290234 -28.09423828 35.62060547 C-28.12787788 38.1378898 -28.17298132 40.6547868 -28.21875 43.171875 C-28.2240271 43.95205994 -28.2293042 44.73224487 -28.23474121 45.53607178 C-28.33681528 51.02431528 -28.33681528 51.02431528 -30.5625 53.25 C-34.61511287 53.59490322 -36.11004176 53.55163882 -39.5625 51.25 C-39.86688733 48.22029317 -39.98231142 45.39905845 -39.9609375 42.3671875 C-39.96380768 41.47895294 -39.96667786 40.59071838 -39.96963501 39.67556763 C-39.97167962 37.79086675 -39.96612209 35.90614485 -39.95361328 34.02148438 C-39.93767834 31.15705813 -39.95338912 28.29406744 -39.97265625 25.4296875 C-39.97067166 23.59635108 -39.96682355 21.76301555 -39.9609375 19.9296875 C-39.96701019 19.08042694 -39.97308289 18.23116638 -39.9793396 17.35617065 C-39.9061387 11.05676152 -38.97713283 5.34598962 -34.984375 0.2265625 C-24.12956974 -8.54858381 -11.1674651 -7.62656153 0 0 Z " fill="#000000" transform="translate(691.5625,93.75)"/>
<path d="M0 0 C1.05731323 0.00737183 1.05731323 0.00737183 2.13598633 0.01489258 C9.26088277 0.17475391 14.53777432 1.12359618 20.0625 5.6875 C26.2842337 13.37317104 26.38887561 19.99565067 26.4375 29.5625 C26.458125 30.56152344 26.47875 31.56054688 26.5 32.58984375 C26.53987402 40.21574975 25.3993496 46.48429877 21.5625 53.125 C14.69872403 59.44689892 6.24595013 60.42474845 -2.8125 60.3125 C-9.72422997 59.55025258 -15.57016021 57.55483979 -20.5625 52.5625 C-25.36652389 45.62335438 -25.15023197 38.62275065 -25.125 30.4375 C-25.14111328 29.39980469 -25.15722656 28.36210938 -25.17382812 27.29296875 C-25.17849609 19.8895809 -24.67981341 12.97459111 -19.98046875 6.97265625 C-19.32691406 6.44542969 -18.67335938 5.91820313 -18 5.375 C-17.03126953 4.55708984 -17.03126953 4.55708984 -16.04296875 3.72265625 C-10.949462 0.50241818 -5.91259129 -0.04853882 0 0 Z M-11.8125 14.3125 C-14.57040394 19.11967978 -14.14357642 24.37398352 -14.125 29.75 C-14.14111328 30.67876953 -14.15722656 31.60753906 -14.17382812 32.56445312 C-14.1775925 37.85339449 -13.94282646 41.82736254 -10.8125 46.3125 C-6.41486786 49.35260222 -1.0158704 49.79429356 4.1875 49.3125 C8.6566761 48.26092915 11.31393458 46.93106386 14.1875 43.3125 C15.59099991 38.92058768 15.37152066 34.50238841 15.375 29.9375 C15.39336914 28.68066406 15.39336914 28.68066406 15.41210938 27.3984375 C15.42327892 22.6625498 15.16799545 18.71056576 13.1875 14.3125 C6.94001163 9.24696889 -5.51788418 9.3788822 -11.8125 14.3125 Z " fill="#000000" transform="translate(613.8125,87.6875)"/>
<path d="M0 0 C5.46864874 4.42167696 7.91490473 9.06028209 9 16 C9.26196591 19.50586226 9.28025185 22.98574316 9.25 26.5 C9.26160156 27.84771484 9.26160156 27.84771484 9.2734375 29.22265625 C9.24765695 38.07827423 8.17871248 44.68304394 1.93359375 51.3046875 C-3.69127298 56.23638884 -11.0472769 57.39546019 -18.33203125 57.2734375 C-25.31390211 56.5578724 -32.82833114 54.99628715 -37.6875 49.625 C-42.71315822 43.05896976 -42.33556851 35.57231565 -42.3125 27.6875 C-42.32861328 26.59759766 -42.34472656 25.50769531 -42.36132812 24.38476562 C-42.36614323 16.37724521 -41.73478615 8.96737718 -36.4375 2.625 C-27.38982081 -5.35824634 -10.33090615 -5.41919463 0 0 Z M-30 12 C-31.49444404 16.82892229 -31.18387183 21.99312942 -31.1875 27 C-31.19974609 27.88945313 -31.21199219 28.77890625 -31.22460938 29.6953125 C-31.23952537 36.07897313 -31.23952537 36.07897313 -29 42 C-25.27749148 45.59414616 -21.68914323 45.87251749 -16.6875 46.25 C-12.43668834 45.96180938 -8.73799111 45.08811917 -5 43 C-1.60864726 37.91297089 -1.84314354 32.55024709 -1.8125 26.5625 C-1.79123047 24.67724609 -1.79123047 24.67724609 -1.76953125 22.75390625 C-2.08650682 17.59096525 -2.6845204 13.4251029 -6.25 9.5625 C-13.13005428 5.62860758 -24.50536756 6.19138857 -30 12 Z " fill="#000000" transform="translate(363,90)"/>
<path d="M0 0 C6.36240593 7.00024111 6.2143096 13.48612892 6.24023438 22.65917969 C6.24990159 24.7289305 6.2809194 26.79767121 6.3125 28.8671875 C6.32023437 30.84332031 6.32023437 30.84332031 6.328125 32.859375 C6.34214355 34.66100098 6.34214355 34.66100098 6.35644531 36.49902344 C5.82169702 41.75127726 4.13172216 45.57726357 0.8125 49.75 C-7.1502071 56.12016568 -16.27887178 55.86968344 -26 55 C-31.16185649 53.79686052 -34.8041971 52.1958029 -38.5625 48.4375 C-40.93265941 44.41853404 -41.18687817 41.22237336 -41.25 36.625 C-41.27578125 35.50351563 -41.3015625 34.38203125 -41.328125 33.2265625 C-40.9637133 29.64318075 -40.14732333 27.85975303 -38 25 C-33.13724791 21.35293593 -29.70847822 19.86901393 -23.67578125 19.90234375 C-22.64775391 19.90556641 -21.61972656 19.90878906 -20.56054688 19.91210938 C-18.95276367 19.92467773 -18.95276367 19.92467773 -17.3125 19.9375 C-16.22904297 19.94201172 -15.14558594 19.94652344 -14.02929688 19.95117188 C-11.35280915 19.96296257 -8.67643223 19.97941937 -6 20 C-6.06023265 18.39479996 -6.14908599 16.79065673 -6.25 15.1875 C-6.29640625 14.29417969 -6.3428125 13.40085937 -6.390625 12.48046875 C-6.80654431 9.90594209 -6.80654431 9.90594209 -8.71240234 8.18969727 C-11.48525139 6.7476382 -13.23782173 6.68211324 -16.3515625 6.77734375 C-17.87523437 6.80538086 -17.87523437 6.80538086 -19.4296875 6.83398438 C-21.01136719 6.88522461 -21.01136719 6.88522461 -22.625 6.9375 C-24.72111686 6.99728003 -26.81750099 7.04849934 -28.9140625 7.08984375 C-30.3055249 7.13419556 -30.3055249 7.13419556 -31.72509766 7.17944336 C-34 7 -34 7 -36 5 C-36.4375 2.0625 -36.4375 2.0625 -36 -1 C-28.21539706 -8.52511618 -7.95723507 -6.30182919 0 0 Z M-30 33 C-30.2303928 35.85687071 -30.41631212 38.20395778 -30 41 C-27.45639246 43.71902875 -24.71213709 44.82745905 -20.984375 45.203125 C-15.51069973 45.31795735 -11.86450893 44.5335984 -7 42 C-5.68737429 40.91447634 -5.68737429 40.91447634 -5.90234375 38.27734375 C-5.91394531 37.17519531 -5.92554688 36.07304687 -5.9375 34.9375 C-5.94652344 33.83277344 -5.95554687 32.72804687 -5.96484375 31.58984375 C-5.97644531 30.73519531 -5.98804688 29.88054687 -6 29 C-8.70894767 28.91855057 -11.41541263 28.85929386 -14.125 28.8125 C-15.26582031 28.77479492 -15.26582031 28.77479492 -16.4296875 28.73632812 C-21.55434427 28.67006101 -26.14607561 29.14607561 -30 33 Z " fill="#000000" transform="translate(476,92)"/>
<path d="M0 0 C1.82421875 1.4453125 1.82421875 1.4453125 3 3 C3.3125 6.0625 3.3125 6.0625 3 9 C2.34 9.66 1.68 10.32 1 11 C-1.77569495 10.72920049 -4.40773023 10.14560421 -7.11328125 9.48046875 C-15.24014312 7.52946046 -21.37356633 6.97574315 -29.08203125 10.73046875 C-32.68370072 13.11446586 -33.59758845 16.29132073 -34.54760742 20.32519531 C-35.41058004 25.42758497 -35.26937906 30.58698651 -35.3125 35.75 C-35.34150391 36.89210937 -35.37050781 38.03421875 -35.40039062 39.2109375 C-35.45234495 46.16482371 -34.9655068 52.09613927 -31 58 C-24.89241614 62.38152755 -17.24326707 61.52042319 -10 61 C-7.54794866 60.50958973 -5.37554332 59.8086956 -3 59 C-0.125 58.8125 -0.125 58.8125 2 59 C3 60 3 60 3.375 63.875 C3.34765625 66.0625 3.34765625 66.0625 3 68 C0.8125 69.875 0.8125 69.875 -2 71 C-2.67289063 71.34546875 -3.34578125 71.6909375 -4.0390625 72.046875 C-13.19379035 74.99377948 -27.53258635 74.7085809 -36.125 70.3203125 C-42.37462318 65.91953618 -45.46754465 60.41460718 -47 53 C-47.37288647 48.12445366 -47.43227536 43.28665893 -47.39111328 38.39892578 C-47.37508097 36.1364262 -47.39099549 33.87572541 -47.41015625 31.61328125 C-47.43876732 12.21032148 -47.43876732 12.21032148 -41.8125 4.5625 C-30.22002109 -5.99953634 -13.78760361 -6.36187265 0 0 Z " fill="#000000" transform="translate(576,74)"/>
<path d="M0 0 C3.0625 0.25 3.0625 0.25 6.0625 2.25 C6.46122742 4.80630493 6.46122742 4.80630493 6.49487305 8.07666016 C6.51466721 9.29777496 6.53446136 10.51888977 6.55485535 11.77700806 C6.56162561 13.11435798 6.56807242 14.45170957 6.57421875 15.7890625 C6.59105893 17.15385567 6.60920828 18.51863327 6.62861633 19.88339233 C6.67619504 23.47708266 6.70595297 27.07070988 6.73205566 30.66461182 C6.76182188 34.33122223 6.80836557 37.99761496 6.85351562 41.6640625 C6.93963802 48.85926718 7.00694301 56.05448754 7.0625 63.25 C7.96081543 63.26981934 8.85913086 63.28963867 9.78466797 63.31005859 C13.11340078 63.38809261 16.44167256 63.47478114 19.77001953 63.56738281 C21.2113374 63.60569674 22.65275168 63.64054543 24.09423828 63.671875 C26.16473886 63.71747446 28.23457433 63.77547444 30.3046875 63.8359375 C31.5510498 63.8673584 32.79741211 63.8987793 34.08154297 63.93115234 C37.0625 64.25 37.0625 64.25 39.0625 66.25 C39.39002234 68.96454956 39.1933425 71.50230759 39.0625 74.25 C37.08155194 76.23094806 33.19462264 75.41391895 30.484375 75.41796875 C29.33899261 75.42296135 29.33899261 75.42296135 28.17047119 75.42805481 C26.54968876 75.43312893 24.92889584 75.43546299 23.30810547 75.43530273 C20.83673619 75.43747866 18.36582083 75.45559946 15.89453125 75.47460938 C14.32031403 75.47754538 12.74609468 75.47952879 11.171875 75.48046875 C10.43523621 75.48765427 9.69859741 75.49483978 8.93963623 75.50224304 C4.87469099 75.48430307 1.68635824 75.14398351 -1.9375 73.25 C-6.30896433 68.72241195 -6.06417173 63.43519068 -6.0234375 57.4296875 C-6.01943939 56.7462326 -6.01544128 56.06277771 -6.01132202 55.35861206 C-5.99404704 52.98894632 -5.96673103 50.61954784 -5.9375 48.25 C-5.92722778 47.35156372 -5.91695557 46.45312744 -5.90637207 45.52746582 C-5.83425518 39.51763941 -5.73595139 33.50864847 -5.62011719 27.49951172 C-5.58124482 25.39150946 -5.5465087 23.2834274 -5.515625 21.17529297 C-5.47025824 18.09838678 -5.41234608 15.02194788 -5.3515625 11.9453125 C-5.34001129 10.99963409 -5.32846008 10.05395569 -5.31655884 9.07962036 C-5.29668915 8.2104599 -5.27681946 7.34129944 -5.25634766 6.44580078 C-5.23636215 5.29907394 -5.23636215 5.29907394 -5.2159729 4.12918091 C-4.70807343 0.70179179 -3.2658212 0.27794223 0 0 Z " fill="#000000" transform="translate(272.9375,69.75)"/>
<path d="M0 0 C1.49833523 2.62208666 1.25163019 4.79334531 1 7.75 C0.67 8.41 0.34 9.07 0 9.75 C-1.258125 9.585 -2.51625 9.42 -3.8125 9.25 C-15.45819406 7.71415716 -15.45819406 7.71415716 -26 11.75 C-28.69472583 16.46345514 -28.29579231 21.48388492 -28.25 26.75 C-28.25773437 27.63945313 -28.26546875 28.52890625 -28.2734375 29.4453125 C-28.28905294 35.85083544 -28.28905294 35.85083544 -26 41.75 C-18.12162326 46.61112607 -8.78311479 45.07575318 0 43.75 C2.56687367 47.6003105 1.83288724 49.33569763 1 53.75 C-8.23359077 58.09521919 -18.23152146 58.0968555 -27.84765625 54.71484375 C-33.91248968 51.99612532 -36.666445 48.19495043 -39.23828125 42.32421875 C-42.2927992 32.00151448 -42.39646391 17.69394261 -37.75 7.875 C-34.60071266 2.60808842 -30.86088286 -0.39167129 -25 -2.25 C-17.0066934 -4.06666059 -7.19854214 -4.49908883 0 0 Z " fill="#000000" transform="translate(423,90.25)"/>
<path d="M0 0 C4.58801822 1.02834891 6.44328291 2.68166575 9.2890625 6.3515625 C11.76022266 10.90369964 11.65307243 14.8152872 10.625 19.8125 C7.84707601 28.04914176 3.86996118 34.78859939 -2.375 40.8125 C-2.89578125 41.35390625 -3.4165625 41.8953125 -3.953125 42.453125 C-8.75757899 47.07099825 -16.56423534 51.8125 -23.375 51.8125 C-23.41238281 52.55371094 -23.44976562 53.29492188 -23.48828125 54.05859375 C-24.07556351 63.46662525 -25.61369176 72.56286239 -27.375 81.8125 C-27.705 81.8125 -28.035 81.8125 -28.375 81.8125 C-28.5883915 64.71746965 -28.5883915 64.71746965 -26.375 56.8125 C-25.715 56.8125 -25.055 56.8125 -24.375 56.8125 C-24.375 55.4925 -24.375 54.1725 -24.375 52.8125 C-25.5196875 53.06 -25.5196875 53.06 -26.6875 53.3125 C-31.59645849 53.97812149 -36.42935114 53.89170078 -41.375 53.8125 C-41.375 53.4825 -41.375 53.1525 -41.375 52.8125 C-36.32497778 51.77659801 -31.50083611 51.70998328 -26.375 51.8125 C-26.375 51.1525 -26.375 50.4925 -26.375 49.8125 C-25.385 49.8125 -24.395 49.8125 -23.375 49.8125 C-23.41238281 48.678125 -23.44976562 47.54375 -23.48828125 46.375 C-23.48518001 41.6776498 -22.63192996 37.37021607 -21.5625 32.8125 C-21.39685547 32.05710937 -21.23121094 31.30171875 -21.06054688 30.5234375 C-19.39282314 23.19803968 -16.87647749 16.48198093 -13.375 9.8125 C-12.385 9.8125 -11.395 9.8125 -10.375 9.8125 C-10.148125 9.255625 -9.92125 8.69875 -9.6875 8.125 C-7.21489129 3.76849895 -4.95500582 1.19287177 0 0 Z " fill="#A5C856" transform="translate(123.375,54.1875)"/>
<path d="M0 0 C0.721875 0.00257812 1.44375 0.00515625 2.1875 0.0078125 C2.909375 0.00523438 3.63125 0.00265625 4.375 0 C6.1875 0.1328125 6.1875 0.1328125 7.1875 1.1328125 C7.30068025 3.10543194 7.34434396 5.08206858 7.36108398 7.05786133 C7.37457382 8.32620316 7.38806366 9.59454498 7.40196228 10.90132141 C7.40702223 11.58359613 7.41208218 12.26587086 7.41729546 12.96882057 C7.43367027 15.09980145 7.45690789 17.23060335 7.48219299 19.36149597 C7.55305492 25.42165233 7.61302561 31.48188337 7.66430664 37.54223633 C7.69612791 41.24581098 7.73741618 44.94918312 7.78450203 48.65259361 C7.80050918 50.06433142 7.81283672 51.47611594 7.82140923 52.88791847 C7.83358472 54.86521344 7.85877096 56.84241531 7.88452148 58.81958008 C7.89482895 59.94463455 7.90513641 61.06968903 7.91575623 62.22883606 C8.18406815 65.09613822 8.5205956 66.79484235 10.1875 69.1328125 C13.21684491 69.79053678 13.21684491 69.79053678 16.1875 70.1328125 C17.58685013 72.93151277 17.44015405 75.03780042 17.1875 78.1328125 C16.125 80.0078125 16.125 80.0078125 14.1875 81.1328125 C8.17517243 81.94216429 4.96478286 80.532033 0.1875 77.1328125 C-2.887349 73.10331885 -3.18357827 70.06948309 -3.16894531 65.06347656 C-3.17098969 64.37184921 -3.17303406 63.68022186 -3.17514038 62.96763611 C-3.17813521 60.69429609 -3.15971687 58.4216906 -3.140625 56.1484375 C-3.13756602 54.56614359 -3.13569096 52.98384699 -3.13494873 51.40155029 C-3.13035447 48.09295272 -3.11595795 44.78459975 -3.09375 41.47607422 C-3.06537567 37.22655897 -3.05452834 32.97723543 -3.0500679 28.72763443 C-3.04592141 25.46437652 -3.03611193 22.20115766 -3.02419281 18.93791962 C-3.01848176 17.37015852 -3.01372583 15.80239366 -3.00992584 14.23462677 C-3.00308578 12.05120662 -2.98946679 9.86794139 -2.97363281 7.68457031 C-2.96680481 6.44056458 -2.95997681 5.19655884 -2.95294189 3.91485596 C-2.76554382 0.20264761 -2.76554382 0.20264761 0 0 Z " fill="#000000" transform="translate(499.8125,65.8671875)"/>
<path d="M0 0 C1.98 0.495 1.98 0.495 4 1 C4 56.11 4 111.22 4 168 C2.68 168.33 1.36 168.66 0 169 C-1.85600757 167.14399243 -1.12621794 164.07016935 -1.12698364 161.59120178 C-1.12854363 160.9138888 -1.13010362 160.23657581 -1.13171089 159.53873819 C-1.13572295 157.25244769 -1.13253045 154.96622273 -1.12939453 152.67993164 C-1.13074849 151.04758159 -1.1325284 149.41523185 -1.13470459 147.78288269 C-1.13927988 143.33666086 -1.13748888 138.89046212 -1.1343255 134.44423985 C-1.13180197 129.80067076 -1.13413946 125.15710371 -1.13571167 120.51353455 C-1.13753357 112.71287682 -1.13512672 104.91222855 -1.13037109 97.11157227 C-1.12493034 88.08263169 -1.12668969 79.05371369 -1.1321975 70.02477366 C-1.13673033 62.2855062 -1.13737828 54.54624556 -1.13475883 46.80697721 C-1.13319675 42.17912039 -1.13300037 37.55127419 -1.13629532 32.92341805 C-1.13917643 28.57245511 -1.13719389 24.22152137 -1.13140106 19.8705616 C-1.13007468 18.27013192 -1.13046554 16.6696998 -1.13266373 15.06927109 C-1.13538002 12.89140775 -1.13198817 10.7136391 -1.12698364 8.53578186 C-1.12660662 7.31478318 -1.12622959 6.0937845 -1.12584114 4.83578587 C-1 2 -1 2 0 0 Z " fill="#000000" transform="translate(226,44)"/>
<path d="M0 0 C1.04929687 -0.04898438 2.09859375 -0.09796875 3.1796875 -0.1484375 C6.125 0.375 6.125 0.375 8.4765625 2.4921875 C10.41838217 5.88807119 10.66137608 7.9827592 10.625 11.875 C10.6353125 12.9784375 10.645625 14.081875 10.65625 15.21875 C10.00485135 19.08882435 9.02714711 20.74371995 6.125 23.375 C3.25 23.96875 3.25 23.96875 0.125 23.875 C-0.90625 23.8646875 -1.9375 23.854375 -3 23.84375 C-6.1805325 23.32518492 -7.59100146 22.61670227 -9.875 20.375 C-11.7177698 14.84669059 -11.85516758 8.60265359 -9.5 3.25 C-6.66066952 -0.02615056 -4.192211 0.13324876 0 0 Z M-4.875 6.375 C-4.97351171 8.20615883 -5.00472629 10.04119933 -5 11.875 C-5.00257813 12.8753125 -5.00515625 13.875625 -5.0078125 14.90625 C-5.15370382 17.31899622 -5.15370382 17.31899622 -3.875 18.375 C-0.375 18.54166667 -0.375 18.54166667 3.125 18.375 C4.40370382 17.31899622 4.40370382 17.31899622 4.2578125 14.90625 C4.25394531 13.40578125 4.25394531 13.40578125 4.25 11.875 C4.25257813 10.8746875 4.25515625 9.874375 4.2578125 8.84375 C4.40370382 6.43100378 4.40370382 6.43100378 3.125 5.375 C-1.1912525 4.83233887 -1.1912525 4.83233887 -4.875 6.375 Z " fill="#000000" transform="translate(504.875,167.625)"/>
<path d="M0 0 C5.19130616 1.03826123 5.73375591 1.25934554 8.8125 5.0625 C9.41707031 5.79597656 10.02164063 6.52945313 10.64453125 7.28515625 C11.09183594 7.85105469 11.53914062 8.41695312 12 9 C12.33 6.36 12.66 3.72 13 1 C14.65614657 0.61781233 16.32457024 0.28604898 18 0 C19 1 19 1 19.11352539 3.04125977 C19.10828857 3.91580811 19.10305176 4.79035645 19.09765625 5.69140625 C19.09443359 6.63564453 19.09121094 7.57988281 19.08789062 8.55273438 C19.07951172 9.54595703 19.07113281 10.53917969 19.0625 11.5625 C19.05798828 12.55958984 19.05347656 13.55667969 19.04882812 14.58398438 C19.03700007 17.05604849 19.02051849 19.52799518 19 22 C17.12109375 22.59765625 17.12109375 22.59765625 15 23 C13.0625 21.4375 13.0625 21.4375 11 19 C10.55011719 18.47019531 10.10023438 17.94039062 9.63671875 17.39453125 C8.41100747 15.94094125 7.20403335 14.47159632 6 13 C5.67 15.97 5.34 18.94 5 22 C3.35 22.33 1.7 22.66 0 23 C0 15.41 0 7.82 0 0 Z " fill="#000000" transform="translate(520,168)"/>
<path d="M0 0 C1.859375 1.3671875 1.859375 1.3671875 3 3 C2.6875 5.5625 2.6875 5.5625 2 8 C1.82700729 10.05628623 1.82700729 10.05628623 3.0625 11.75 C4.36115373 14.86676895 3.88935126 16.78465314 3 20 C1.82421875 21.6640625 1.82421875 21.6640625 0 23 C-2.8125 23.36328125 -2.8125 23.36328125 -6 23.3125 C-7.5778125 23.30669922 -7.5778125 23.30669922 -9.1875 23.30078125 C-12 23 -12 23 -15 21 C-15.1875 17.875 -15.1875 17.875 -15 15 C-13.68 15 -12.36 15 -11 15 C-10.67 15.66 -10.34 16.32 -10 17 C-8.10466658 17.46523063 -8.10466658 17.46523063 -5.9375 17.625 C-4.638125 17.74875 -3.33875 17.8725 -2 18 C-2 16.68 -2 15.36 -2 14 C-2.60328125 14.04640625 -3.2065625 14.0928125 -3.828125 14.140625 C-10.3161918 14.43363447 -10.3161918 14.43363447 -13.5625 12.375 C-15.43910956 9.27451464 -15.59452734 7.56716403 -15 4 C-11.96048898 -1.50006756 -5.57029297 -0.94397331 0 0 Z M-9 5 C-9 5.99 -9 6.98 -9 8 C-6.36 8 -3.72 8 -1 8 C-1.66 7.01 -2.32 6.02 -3 5 C-6.08365871 4.7497843 -6.08365871 4.7497843 -9 5 Z " fill="#000000" transform="translate(452,168)"/>
<path d="M0 0 C5.12739105 1.02547821 5.72848803 1.22190388 8.8125 4.9375 C9.41707031 5.64777344 10.02164063 6.35804688 10.64453125 7.08984375 C12 9 12 9 12 11 C12.66 11 13.32 11 14 11 C14 7.37 14 3.74 14 0 C15.65 0 17.3 0 19 0 C19 7.26 19 14.52 19 22 C17.68 22.33 16.36 22.66 15 23 C13.87278564 21.73113036 12.74831342 20.45982438 11.625 19.1875 C10.99851562 18.47980469 10.37203125 17.77210938 9.7265625 17.04296875 C8 15 8 15 6 12 C5.67 15.3 5.34 18.6 5 22 C3.35 22.33 1.7 22.66 0 23 C0 15.41 0 7.82 0 0 Z " fill="#000000" transform="translate(545,168)"/>
<path d="M0 0 C4.95 0 9.9 0 15 0 C15.33 1.32 15.66 2.64 16 4 C15 5 15 5 12.71484375 5.09765625 C11.34005859 5.08025391 11.34005859 5.08025391 9.9375 5.0625 C9.01839844 5.05347656 8.09929688 5.04445312 7.15234375 5.03515625 C6.44207031 5.02355469 5.73179687 5.01195312 5 5 C5 5.99 5 6.98 5 8 C6.98 8 8.96 8 11 8 C11.38218767 9.65614657 11.71395102 11.32457024 12 13 C11 14 11 14 7.9375 14.0625 C6.968125 14.041875 5.99875 14.02125 5 14 C5 15.32 5 16.64 5 18 C8.3 18 11.6 18 15 18 C15.33 19.32 15.66 20.64 16 22 C15 23 15 23 11.62109375 23.09765625 C10.22652923 23.09098369 8.83198257 23.07902532 7.4375 23.0625 C6.72658203 23.05798828 6.01566406 23.05347656 5.28320312 23.04882812 C3.52209987 23.03700864 1.76103964 23.01907263 0 23 C-1.16171778 20.67656444 -1.12903969 19.30366684 -1.1328125 16.71875 C-1.13410156 15.87699219 -1.13539063 15.03523437 -1.13671875 14.16796875 C-1.13285156 13.28753906 -1.12898437 12.40710938 -1.125 11.5 C-1.12886719 10.61957031 -1.13273438 9.73914063 -1.13671875 8.83203125 C-1.13542969 7.99027344 -1.13414062 7.14851562 -1.1328125 6.28125 C-1.13168457 5.50845703 -1.13055664 4.73566406 -1.12939453 3.93945312 C-1 2 -1 2 0 0 Z " fill="#000000" transform="translate(570,168)"/>
<path d="M0 0 C4.95 0 9.9 0 15 0 C15.33 1.32 15.66 2.64 16 4 C15 5 15 5 12.71484375 5.09765625 C11.34005859 5.08025391 11.34005859 5.08025391 9.9375 5.0625 C9.01839844 5.05347656 8.09929687 5.04445312 7.15234375 5.03515625 C6.44207031 5.02355469 5.73179687 5.01195312 5 5 C5 5.99 5 6.98 5 8 C5.78375 7.95875 6.5675 7.9175 7.375 7.875 C10 8 10 8 12 10 C11.625 12.125 11.625 12.125 11 14 C9.02 14 7.04 14 5 14 C5 15.32 5 16.64 5 18 C8.3 18 11.6 18 15 18 C15.33 19.32 15.66 20.64 16 22 C15 23 15 23 11.62109375 23.09765625 C10.22652923 23.09098369 8.83198257 23.07902532 7.4375 23.0625 C6.72658203 23.05798828 6.01566406 23.05347656 5.28320312 23.04882812 C3.52209987 23.03700864 1.76103964 23.01907263 0 23 C-1.16171778 20.67656444 -1.12903969 19.30366684 -1.1328125 16.71875 C-1.13410156 15.87699219 -1.13539063 15.03523437 -1.13671875 14.16796875 C-1.13285156 13.28753906 -1.12898438 12.40710938 -1.125 11.5 C-1.12886719 10.61957031 -1.13273437 9.73914063 -1.13671875 8.83203125 C-1.13542969 7.99027344 -1.13414062 7.14851562 -1.1328125 6.28125 C-1.13168457 5.50845703 -1.13055664 4.73566406 -1.12939453 3.93945312 C-1 2 -1 2 0 0 Z " fill="#000000" transform="translate(387,168)"/>
<path d="M0 0 C1.59134766 -0.03867188 1.59134766 -0.03867188 3.21484375 -0.078125 C6.0625 0.25 6.0625 0.25 7.9296875 1.59765625 C9.48247204 3.8625799 9.27991011 5.56860867 9.0625 8.25 C7.4125 8.25 5.7625 8.25 4.0625 8.25 C3.7325 7.59 3.4025 6.93 3.0625 6.25 C1.0825 6.25 -0.8975 6.25 -2.9375 6.25 C-2.9375 9.88 -2.9375 13.51 -2.9375 17.25 C-0.02115871 17.5002157 -0.02115871 17.5002157 3.0625 17.25 C3.7225 16.26 4.3825 15.27 5.0625 14.25 C6.3825 14.58 7.7025 14.91 9.0625 15.25 C8.3125 21 8.3125 21 6.0625 23.25 C3.34765625 23.55078125 3.34765625 23.55078125 0.125 23.5625 C-0.93589844 23.57925781 -1.99679687 23.59601563 -3.08984375 23.61328125 C-5.9375 23.25 -5.9375 23.25 -7.75390625 21.85546875 C-10.22079732 18.50928978 -10.1018775 15.99080443 -10.125 11.875 C-10.13917969 10.73289063 -10.15335938 9.59078125 -10.16796875 8.4140625 C-9.94763232 5.38910468 -9.61711707 3.73701195 -7.9375 1.25 C-5.23187257 -0.10281371 -3.01856345 0.04390638 0 0 Z " fill="#000000" transform="translate(598.9375,167.75)"/>
<path d="M0 0 C1.051875 -0.00773438 2.10375 -0.01546875 3.1875 -0.0234375 C6 0.375 6 0.375 7.8125 1.7109375 C9 3.375 9 3.375 10 6.375 C9.67 7.035 9.34 7.695 9 8.375 C6.525 7.88 6.525 7.88 4 7.375 C4 6.715 4 6.055 4 5.375 C1.69 5.705 -0.62 6.035 -3 6.375 C-3 10.005 -3 13.635 -3 17.375 C-0.69 17.705 1.62 18.035 4 18.375 C4.33 17.055 4.66 15.735 5 14.375 C6.32 14.375 7.64 14.375 9 14.375 C10 17.375 10 17.375 9.1875 20 C8 22.375 8 22.375 6 23.375 C4.0246012 23.52279962 2.04321076 23.59618966 0.0625 23.625 C-0.99839844 23.65078125 -2.05929687 23.6765625 -3.15234375 23.703125 C-6 23.375 -6 23.375 -7.65307617 22.09863281 C-9.9783393 19.1230378 -9.4293387 15.49154267 -9.375 11.875 C-9.38660156 11.10285156 -9.39820313 10.33070313 -9.41015625 9.53515625 C-9.38064977 3.86007704 -9.38064977 3.86007704 -7.65087891 1.65576172 C-5.167242 -0.27105863 -3.09444827 -0.0227533 0 0 Z " fill="#000000" transform="translate(481,167.625)"/>
<path d="M0 0 C3.38764462 1.40178398 5.09151495 2.86502455 7 6 C12.22990508 20.67816982 10.53189448 37.19004197 4.17578125 51.33984375 C2.57907662 54.63307241 0.83824453 57.83470815 -1 61 C-2.13583456 57.28272326 -1.66670026 55.52948291 0 52 C0.66 52 1.32 52 2 52 C2.12375 51.443125 2.2475 50.88625 2.375 50.3125 C3 48 3 48 4 45.75 C5.1245941 42.65736622 5.40886958 39.96547805 5.625 36.6875 C5.69976562 35.61886719 5.77453125 34.55023438 5.8515625 33.44921875 C5.90054688 32.64097656 5.94953125 31.83273438 6 31 C6.66 31 7.32 31 8 31 C7.835 30.21625 7.67 29.4325 7.5 28.625 C7.08994207 25.65207998 6.99362317 23.10047922 7.0625 20.125 C7.12681579 15.40850884 6.3370753 11.51262915 5 7 C3.12418591 9.81372113 2.64714295 11.06508795 2.0625 14.25 C0.93320448 19.66708943 -0.40434945 25.48323807 -5 29 C-11.19656006 29.91764345 -17.14555306 29.08158113 -23 27 C-19.07294622 25.82733811 -15.49741258 26.00543397 -11.4375 26.16015625 C-8.7194074 25.98156363 -7.25485807 25.51611442 -5 24 C0.13401304 17.17094773 -0.21477604 8.15075075 0 0 Z " fill="#34AAC9" transform="translate(181,107)"/>
<path d="M0 0 C3.6969678 0.5631143 5.20601696 1.95630798 7.6875 4.6875 C11.73249349 8.89821017 16.06399014 11.92749294 21 15 C22.19050011 15.78714792 23.37844009 16.57819733 24.5625 17.375 C25.366875 17.91125 26.17125 18.4475 27 19 C26.34 19.66 25.68 20.32 25 21 C22.69 19.68 20.38 18.36 18 17 C17.74969023 19.41619823 17.74969023 19.41619823 18 22 C18.99 22.66 19.98 23.32 21 24 C21 24.66 21 25.32 21 26 C22.11375 26.433125 22.11375 26.433125 23.25 26.875 C25.56739797 27.82302644 27.77917115 28.84845911 30 30 C30 30.66 30 31.32 30 32 C30.99 32 31.98 32 33 32 C33 32.66 33 33.32 33 34 C29.38995341 32.65912555 26.23902083 31.08222768 23 29 C22.46375 28.66226563 21.9275 28.32453125 21.375 27.9765625 C16.39241074 24.66225089 12.7478075 20.63305122 9 16 C8.36449219 15.21625 7.72898437 14.4325 7.07421875 13.625 C0 4.7199793 0 4.7199793 0 0 Z " fill="#0F9E97" transform="translate(48,161)"/>
<path d="M0 0 C1.58206057 0.00667536 3.16410534 0.0186375 4.74609375 0.03515625 C5.55240234 0.03966797 6.35871094 0.04417969 7.18945312 0.04882812 C9.18753131 0.06065107 11.18557158 0.07858711 13.18359375 0.09765625 C13.74609375 2.03515625 13.74609375 2.03515625 14.18359375 4.09765625 C13.85359375 4.42765625 13.52359375 4.75765625 13.18359375 5.09765625 C11.20359375 5.09765625 9.22359375 5.09765625 7.18359375 5.09765625 C7.18359375 10.70765625 7.18359375 16.31765625 7.18359375 22.09765625 C5.53359375 22.42765625 3.88359375 22.75765625 2.18359375 23.09765625 C0.97736855 19.47898066 1.07542457 16.17259374 1.12109375 12.41015625 C1.12560547 11.70826172 1.13011719 11.00636719 1.13476562 10.28320312 C1.14652448 8.55465087 1.16445921 6.8261426 1.18359375 5.09765625 C-0.46640625 5.09765625 -2.11640625 5.09765625 -3.81640625 5.09765625 C-4.37890625 3.16015625 -4.37890625 3.16015625 -4.81640625 1.09765625 C-3.81640625 0.09765625 -3.81640625 0.09765625 0 0 Z " fill="#000000" transform="translate(615.81640625,167.90234375)"/>
<path d="M0 0 C6.27 0 12.54 0 19 0 C19 1.65 19 3.3 19 5 C16.69 5 14.38 5 12 5 C12 10.61 12 16.22 12 22 C10.68 22.33 9.36 22.66 8 23 C7 22 7 22 6.90234375 18.18359375 C6.90901911 16.60153318 6.92098125 15.01948841 6.9375 13.4375 C6.94201172 12.63119141 6.94652344 11.82488281 6.95117188 10.99414062 C6.96299482 8.99606244 6.98093086 6.99802217 7 5 C4.69 5 2.38 5 0 5 C0 3.35 0 1.7 0 0 Z " fill="#000000" transform="translate(405,168)"/>
<path d="M0 0 C1.32 0 2.64 0 4 0 C4 5.94 4 11.88 4 18 C6.97 18 9.94 18 13 18 C13.33 19.32 13.66 20.64 14 22 C13 23 13 23 10.09375 23.1328125 C8.9078125 23.13023437 7.721875 23.12765625 6.5 23.125 C5.3140625 23.12757813 4.128125 23.13015625 2.90625 23.1328125 C0 23 0 23 -1 22 C-1.09899523 20.45044441 -1.13079524 18.89646327 -1.1328125 17.34375 C-1.13410156 16.40402344 -1.13539063 15.46429688 -1.13671875 14.49609375 C-1.13285156 13.50738281 -1.12898438 12.51867187 -1.125 11.5 C-1.12886719 10.51128906 -1.13273437 9.52257812 -1.13671875 8.50390625 C-1.13542969 7.56417969 -1.13414062 6.62445313 -1.1328125 5.65625 C-1.13168457 4.78806641 -1.13055664 3.91988281 -1.12939453 3.02539062 C-1 1 -1 1 0 0 Z " fill="#000000" transform="translate(369,168)"/>
<path d="M0 0 C-0.1875 1.8125 -0.1875 1.8125 -1 4 C-4.34811134 6.53370588 -5.70124217 7 -10 7 C-10.433125 8.2065625 -10.433125 8.2065625 -10.875 9.4375 C-12 12 -12 12 -14 13 C-14.33 13.99 -14.66 14.98 -15 16 C-16.66666667 17.66666667 -18.33333333 19.33333333 -20 21 C-23.58334454 25.37964333 -25.92174614 29.75488313 -28 35 C-29.43924777 38.32826047 -29.82269891 38.88179927 -33 41 C-30.84514351 27.05833815 -20.59352867 14.64163333 -10.2578125 5.6015625 C-8 4 -8 4 -6 4 C-6 3.34 -6 2.68 -6 2 C-3 0 -3 0 0 0 Z " fill="#B1C967" transform="translate(76,64)"/>
<path d="M0 0 C-10.59764205 7.0650947 -27.91728118 6.09961999 -40 4 C-40.99 3.34 -41.98 2.68 -43 2 C-38.05 1.67 -33.1 1.34 -28 1 C-28 1.66 -28 2.32 -28 3 C-24.70770134 2.69393651 -21.41630486 2.37905797 -18.125 2.0625 C-17.18785156 1.97548828 -16.25070313 1.88847656 -15.28515625 1.79882812 C-13.94130859 1.66831055 -13.94130859 1.66831055 -12.5703125 1.53515625 C-11.32918701 1.41732788 -11.32918701 1.41732788 -10.06298828 1.29711914 C-0.91811522 -0.01995903 -0.91811522 -0.01995903 0 0 Z " fill="#229EA3" transform="translate(140,199)"/>
<path d="M0 0 C0.66 0.66 1.32 1.32 2 2 C-0.97 2 -3.94 2 -7 2 C-8.56928707 7.84804636 -8.04729915 13.90257382 -7.9609375 19.90039062 C-7.90807646 26.00143518 -8.2668717 31.94269103 -9 38 C-9.33 38 -9.66 38 -10 38 C-13.07079532 8.0597456 -13.07079532 8.0597456 -7.6171875 1.28125 C-5.12516621 -0.69310503 -3.06742739 -0.32632206 0 0 Z " fill="#249EA2" transform="translate(128,111)"/>
<path d="M0 0 C2.475 0.495 2.475 0.495 5 1 C8.21819111 8.77729519 8.32098157 15.64259099 8 24 C7.34 24 6.68 24 6 24 C6.03480469 22.83984375 6.03480469 22.83984375 6.0703125 21.65625 C6.17928906 15.36674562 5.85126093 10.01659801 4 4 C1.70366176 7.44450737 1.45983515 9.93812283 1 14 C0.67 14 0.34 14 0 14 C0 9.38 0 4.76 0 0 Z " fill="#3BAFD2" transform="translate(182,110)"/>
<path d="M0 0 C1.32 0.33 2.64 0.66 4 1 C3.34 1 2.68 1 2 1 C1.96261719 1.74121094 1.92523438 2.48242188 1.88671875 3.24609375 C1.29943649 12.65412525 -0.23869176 21.75036239 -2 31 C-2.33 31 -2.66 31 -3 31 C-3.2133915 13.90496965 -3.2133915 13.90496965 -1 6 C-0.34 6 0.32 6 1 6 C0.67 4.02 0.34 2.04 0 0 Z " fill="#BCCD6C" transform="translate(98,105)"/>
<path d="M0 0 C0.99 0.33 1.98 0.66 3 1 C3 3.97 3 6.94 3 10 C1.68 10.33 0.36 10.66 -1 11 C-2.89488952 9.10511048 -2.18019112 6.42860854 -2.23046875 3.91015625 C-2 2 -2 2 0 0 Z " fill="#000000" transform="translate(429,166)"/>
<path d="M0 0 C-0.1875 1.8125 -0.1875 1.8125 -1 4 C-4.34811134 6.53370588 -5.70124217 7 -10 7 C-10.66 8.65 -11.32 10.3 -12 12 C-12.66 11.67 -13.32 11.34 -14 11 C-10.55384615 5.21538462 -10.55384615 5.21538462 -7.75 4.125 C-7.1725 4.08375 -6.595 4.0425 -6 4 C-6 3.34 -6 2.68 -6 2 C-3 0 -3 0 0 0 Z " fill="#A0C067" transform="translate(76,64)"/>
<path d="M0 0 C2 1 4 2 6 3 C6 3.66 6 4.32 6 5 C6.7425 5.28875 7.485 5.5775 8.25 5.875 C10.56739797 6.82302644 12.77917115 7.84845911 15 9 C15 9.66 15 10.32 15 11 C15.99 11 16.98 11 18 11 C18 11.66 18 12.32 18 13 C12.96063226 11.12823484 8.67824997 8.50940253 4.25 5.5 C3.65703125 5.0978125 3.0640625 4.695625 2.453125 4.28125 C1 3 1 3 0 0 Z " fill="#1B9996" transform="translate(63,182)"/>
<path d="M0 0 C0.33 0 0.66 0 1 0 C2.01148716 9.34689065 -0.62825766 15.81599426 -5 24 C-5.33 24 -5.66 24 -6 24 C-5.59285093 19.01242394 -4.63377885 16.28023601 -1.921875 11.9765625 C-0.16975052 8.21988882 -0.16464756 4.09149186 0 0 Z " fill="#A2BD69" transform="translate(133,63)"/>
<path d="M0 0 C0.71484375 1.546875 0.71484375 1.546875 1 4 C-0.05391226 6.53857885 -1.13965574 8.84495527 -2.4375 11.25 C-2.77587891 11.8996875 -3.11425781 12.549375 -3.46289062 13.21875 C-4.29786887 14.81814494 -5.14753114 16.40985859 -6 18 C-7.13583456 14.28272326 -6.66670026 12.52948291 -5 9 C-4.34 9 -3.68 9 -3 9 C-2.814375 8.1646875 -2.814375 8.1646875 -2.625 7.3125 C-1.94023145 4.77885636 -1.00866237 2.42078968 0 0 Z " fill="#33ACD1" transform="translate(186,150)"/>
<path d="M0 0 C1.32 0.66 2.64 1.32 4 2 C3.01 2.33 2.02 2.66 1 3 C1.04640625 4.12019531 1.0928125 5.24039063 1.140625 6.39453125 C1.17814423 7.86716085 1.21454423 9.33981927 1.25 10.8125 C1.28351563 11.55048828 1.31703125 12.28847656 1.3515625 13.04882812 C1.390625 15.20703125 1.390625 15.20703125 1 19 C-1.015625 21.01171875 -1.015625 21.01171875 -3 22 C-2.68289062 21.00871094 -2.36578125 20.01742187 -2.0390625 18.99609375 C-0.90616541 15.03095395 -0.593831 11.18381716 -0.375 7.0625 C-0.33632812 6.37865234 -0.29765625 5.69480469 -0.2578125 4.99023438 C-0.16477588 3.32720487 -0.08136213 1.66364153 0 0 Z " fill="#42A7C5" transform="translate(181,107)"/>
<path d="M0 0 C0.99 0 1.98 0 3 0 C3.33 0.99 3.66 1.98 4 3 C3.33333333 4.33333333 2.66666667 5.66666667 2 7 C1.61250787 9.32495277 1.27017161 11.65851268 1 14 C0.67 14 0.34 14 0 14 C0 9.38 0 4.76 0 0 Z " fill="#29B3DA" transform="translate(182,110)"/>
<path d="M0 0 C3.63 0.33 7.26 0.66 11 1 C9.02 1.99 9.02 1.99 7 3 C7 3.66 7 4.32 7 5 C6.01 5 5.02 5 4 5 C4 4.34 4 3.68 4 3 C2.35 2.67 0.7 2.34 -1 2 C-0.67 1.34 -0.34 0.68 0 0 Z " fill="#77AF50" transform="translate(109,53)"/>
<path d="M0 0 C0 3.33156142 -0.45664761 5.06028115 -2 8 C-4.625 9.8125 -4.625 9.8125 -7 11 C-6.40716379 7.60807637 -5.23256811 5.7892243 -2.9375 3.25 C-2.38964844 2.63640625 -1.84179688 2.0228125 -1.27734375 1.390625 C-0.85582031 0.93171875 -0.43429688 0.4728125 0 0 Z " fill="#A8C46D" transform="translate(63,72)"/>
<path d="M0 0 C0.66 0.33 1.32 0.66 2 1 C-1.625 6.75 -1.625 6.75 -5 9 C-4.42647107 5.12867972 -2.51295648 2.91827204 0 0 Z " fill="#27ACCA" transform="translate(177,168)"/>
<path d="M0 0 C0.95465783 2.16967689 1.14401212 3.56328793 0.3984375 5.82421875 C-0.35870385 7.5684743 -1.17609198 9.28627131 -2 11 C-2.33 11 -2.66 11 -3 11 C-3.32613618 6.32538149 -2.70582788 3.83325617 0 0 Z " fill="#C4D068" transform="translate(94,137)"/>
<path d="M0 0 C0.99 0.33 1.98 0.66 3 1 C2.34 1 1.68 1 1 1 C0.731875 1.639375 0.46375 2.27875 0.1875 2.9375 C-1 5 -1 5 -4 6 C-3.6875 4.125 -3.6875 4.125 -3 2 C-2.01 1.34 -1.02 0.68 0 0 Z " fill="#25A6C1" transform="translate(166,181)"/>
<path d="M0 0 C3.37503669 1.1858237 5.64722731 2.27573689 8 5 C4.40142046 5 2.90548882 4.04169485 0 2 C0 1.34 0 0.68 0 0 Z " fill="#1E9A95" transform="translate(67,176)"/>
</svg>
