<svg width="100" height="100" viewBox="0 0 100 100" fill="none" xmlns="http://www.w3.org/2000/svg"><g clip-path="url(#a)"><g clip-path="url(#b)"><path d="M80.938 19.503c1.903 -1.894 1.916 -5 -0.166 -6.694a48.719 48.719 0 0 0 -59.906 -1.234 48.438 48.438 0 0 0 -18.338 28.509 48.25 48.25 0 0 0 2.781 29.156c1.047 2.462 4.016 3.313 6.366 2.031 2.356 -1.291 3.188 -4.244 2.197 -6.741a38.594 38.594 0 0 1 -1.844 -22.406 38.75 38.75 0 0 1 14.669 -22.806 38.969 38.969 0 0 1 47.188 0.406c2.116 1.638 5.159 1.666 7.053 -0.219M18.144 80.156c-1.953 1.85 -2.05 4.953 -0.016 6.713a48.672 48.672 0 0 0 60.125 2.769 48.719 48.719 0 0 0 16.891 -57.797c-1 -2.497 -3.969 -3.409 -6.353 -2.162s-3.272 4.181 -2.331 6.7A38.981 38.981 0 0 1 46.219 88.791a38.938 38.938 0 0 1 -20.975 -8.666c-2.081 -1.709 -5.147 -1.819 -7.1 0.031" fill="#389947"/><path d="M83.088 20.975a6.428 6.428 0 1 1 -9.094 -9.094 6.428 6.428 0 0 1 9.094 9.094M25.228 88.116a6.428 6.428 0 1 1 -9.091 -9.094 6.428 6.428 0 0 1 9.094 9.094" fill="#E2CF00" stroke="#389947" stroke-linecap="round" stroke-linejoin="round" stroke-width="3.125"/><path d="M39.781 30.259a21.875 21.875 0 0 0 -11.938 19.491c0 3.5 0.822 6.806 2.281 9.741 0.391 0.781 0.519 1.672 0.294 2.513l-1.303 4.869a2.844 2.844 0 0 0 3.481 3.481l4.869 -1.303a3.562 3.562 0 0 1 2.513 0.294 21.881 21.881 0 0 0 31.234 -15.513A19.688 19.688 0 0 1 39.781 30.259" fill="#389947"/><path d="M71.213 53.831q0.375 -1.988 0.381 -4.081a21.875 21.875 0 0 0 -31.813 -19.491 19.688 19.688 0 0 0 31.431 23.572" fill="#E2CF00"/></g></g><defs><clipPath id="a"><path fill="#fff" d="M0 0h100v100H0z"/></clipPath><clipPath id="b"><path fill="#fff" d="M0 0h100v100H0z"/></clipPath></defs></svg>