<?xml version="1.0" encoding="UTF-8"?>
<svg width="2418px" height="512px" viewBox="0 0 2418 512" version="1.1" xmlns="http://www.w3.org/2000/svg" xmlns:xlink="http://www.w3.org/1999/xlink">
    <!-- Generator: Sketch 61.2 (89653) - https://sketch.com -->
    <title>on_white</title>
    <desc>Created with Sketch.</desc>
    <g id="Long-form" stroke="none" stroke-width="1" fill="none" fill-rule="evenodd">
        <g id="on_white" fill-rule="nonzero">
            <g id="chatwoot_logo">
                <circle id="Oval" fill="#47A7F6" cx="256" cy="256" r="256"></circle>
                <path d="M362.807947,368.807947 L244.122956,368.807947 C178.699407,368.807947 125.456954,315.561812 125.456954,250.12177 C125.456954,184.703089 178.699407,131.456954 244.124143,131.456954 C309.565494,131.456954 362.807947,184.703089 362.807947,250.12177 L362.807947,368.807947 Z" id="chat-icon" stroke="#FFFFFF" stroke-width="6" fill="#FFFFFF"></path>
            </g>
            <path d="M732.982159,263.84801 C728.65756,257.216959 722.170758,251.66714 713.52156,247.198388 C704.872362,242.729635 695.64669,240.495293 685.844265,240.495293 C675.176921,240.495293 665.735022,242.513409 657.518283,246.549701 C649.301545,250.585993 642.310215,255.991661 636.544083,262.766866 C630.777951,269.542071 626.381342,277.398308 623.354122,286.335813 C620.326903,295.273317 618.813316,304.643141 618.813316,314.445566 C618.813316,324.24799 620.326903,333.617814 623.354122,342.555319 C626.381342,351.492823 630.777951,359.34906 636.544083,366.124265 C642.310215,372.89947 649.373621,378.305138 657.734512,382.34143 C666.095404,386.377723 675.609379,388.395839 686.276723,388.395839 C696.655761,388.395839 706.09766,386.377723 714.602705,382.34143 C723.10775,378.305138 730.09908,372.827395 735.576905,365.908036 L762.821743,390.558127 C754.172545,400.648858 743.361209,408.505095 730.387412,414.127074 C717.413615,419.749053 702.710199,422.56 686.276723,422.56 C670.41986,422.56 655.78852,419.96528 642.382263,414.775761 C628.976006,409.586242 617.371839,402.306609 607.569415,392.936645 C597.76699,383.566681 590.054905,372.250816 584.432926,358.988713 C578.810947,345.726609 576,330.879042 576,314.445566 C576,298.300396 578.738872,283.59698 584.216697,270.334876 C589.694522,257.072773 597.334533,245.684833 607.136957,236.170715 C616.939381,226.656597 628.543548,219.304889 641.949805,214.115371 C655.356062,208.925852 669.843251,206.331131 685.411808,206.331131 C699.827138,206.331131 714.170176,209.214154 728.441352,214.980286 C742.712529,220.746418 754.028393,229.107184 762.389285,240.062835 L732.982159,263.84801 Z M845.42117,243.090039 C850.322383,232.999308 858.683149,224.35024 870.503719,217.142575 C882.32429,209.93491 895.586194,206.331131 910.289831,206.331131 C923.551935,206.331131 934.939874,208.565474 944.453992,213.034226 C953.96811,217.502979 961.896423,223.485251 968.239168,230.981222 C974.581913,238.477194 979.266825,247.270413 982.294044,257.361144 C985.321264,267.451875 986.83485,278.263211 986.83485,289.795475 L986.83485,416.938049 L946.183823,416.938049 L946.183823,303.634122 C946.183823,295.273231 945.535143,287.344918 944.237763,279.848947 C942.940384,272.352975 940.56189,265.722023 937.102211,259.955891 C933.642549,254.189759 928.957619,249.576922 923.047334,246.117243 C917.137049,242.657564 909.424963,240.92775 899.910845,240.92775 C883.765676,240.92775 870.503771,247.054174 860.124733,259.307204 C849.745696,271.560235 844.556255,287.921389 844.556255,308.391157 L844.556255,416.938049 L803.905228,416.938049 L803.905228,90 L844.556255,90 L844.556255,243.090039 L845.42117,243.090039 Z M1183.17066,284.173524 C1183.17066,268.893274 1178.55783,257.57741 1169.33202,250.225592 C1160.1062,242.873773 1147.85336,239.197919 1132.57311,239.197919 C1121.04084,239.197919 1110.15743,241.432262 1099.92255,245.901014 C1089.68766,250.369767 1081.11067,256.063737 1074.19131,262.983095 L1052.56843,237.035631 C1062.65916,227.521513 1074.98408,220.025654 1089.54356,214.547828 C1104.10305,209.070003 1119.74344,206.331131 1136.46523,206.331131 C1151.16886,206.331131 1163.92624,208.421323 1174.73774,212.601769 C1185.54923,216.782214 1194.41453,222.476184 1201.33389,229.683849 C1208.25325,236.891514 1213.4427,245.396431 1216.90237,255.198856 C1220.36205,265.00128 1222.09186,275.524313 1222.09186,286.76827 L1222.09186,376.287022 C1222.09186,383.206381 1222.30809,390.486013 1222.74055,398.126138 C1223.17301,405.766263 1223.96584,412.036837 1225.11906,416.938049 L1188.36016,416.938049 C1186.0537,407.135625 1184.90049,397.333348 1184.90049,387.530923 L1183.60312,387.530923 C1176.10715,398.486574 1166.66525,406.991491 1155.27714,413.04593 C1143.88903,419.100368 1130.4109,422.127542 1114.84234,422.127542 C1106.76976,422.127542 1098.33691,421.046409 1089.54356,418.884109 C1080.75021,416.72181 1072.74982,413.190107 1065.54216,408.288895 C1058.33449,403.387682 1052.35222,396.900881 1047.59516,388.828296 C1042.8381,380.755712 1040.45961,370.809283 1040.45961,358.988713 C1040.45961,343.420156 1044.63999,331.095234 1053.00088,322.013576 C1061.36178,312.931918 1072.31726,306.012664 1085.86767,301.255605 C1099.41808,296.498546 1114.6981,293.399296 1131.70819,291.957763 C1148.71828,290.51623 1165.87227,289.795475 1183.17066,289.795475 L1183.17066,284.173524 Z M1173.22414,319.202601 C1163.1334,319.202601 1152.68245,319.635054 1141.87095,320.499974 C1131.05945,321.364894 1121.25717,323.094707 1112.46382,325.689467 C1103.67047,328.284226 1096.39084,332.176307 1090.62471,337.365826 C1084.85858,342.555345 1081.97555,349.474599 1081.97555,358.123797 C1081.97555,364.178236 1083.20084,369.223526 1085.65144,373.259818 C1088.10205,377.29611 1091.34545,380.611587 1095.38174,383.206346 C1099.41803,385.801105 1103.88672,387.602995 1108.78793,388.612068 C1113.68914,389.621141 1118.73443,390.12567 1123.92395,390.12567 C1142.95219,390.12567 1157.58353,384.4317 1167.81841,373.043589 C1178.0533,361.655478 1183.17066,347.31244 1183.17066,330.014044 L1183.17066,319.202601 L1173.22414,319.202601 Z M1385.99334,245.252328 L1331.50367,245.252328 L1331.50367,352.069389 C1331.50367,364.466573 1333.81009,373.331868 1338.42299,378.66554 C1343.0359,383.999212 1350.3876,386.666008 1360.47834,386.666008 C1364.22632,386.666008 1368.26255,386.233554 1372.58715,385.368635 C1376.91175,384.503715 1380.80383,383.206355 1384.26351,381.476515 L1385.56088,414.775761 C1380.65967,416.5056 1375.254,417.875036 1369.34372,418.884109 C1363.43343,419.893182 1357.30701,420.397711 1350.96427,420.397711 C1331.64772,420.397711 1316.87223,415.064119 1306.63735,404.396775 C1296.40246,393.729431 1291.2851,377.728655 1291.2851,356.393966 L1291.2851,245.252328 L1251.93144,245.252328 L1251.93144,211.953082 L1291.2851,211.953082 L1291.2851,153.13883 L1331.50367,153.13883 L1331.50367,211.953082 L1385.99334,211.953082 L1385.99334,245.252328 Z M1466.07776,211.953082 L1512.35074,368.502783 L1513.21566,368.502783 L1562.08338,211.953082 L1604.8967,211.953082 L1654.62934,368.502783 L1655.49425,368.502783 L1701.76723,211.953082 L1744.58055,211.953082 L1676.68468,416.938049 L1634.30382,416.938049 L1583.70627,262.983095 L1582.84135,262.983095 L1532.67625,416.938049 L1490.2954,416.938049 L1421.96707,211.953082 L1466.07776,211.953082 Z M1992.81129,314.013108 C1992.81129,329.869971 1990.00034,344.429236 1984.37836,357.691339 C1978.75638,370.953443 1970.97222,382.413458 1961.02564,392.07173 C1951.07907,401.730001 1939.33075,409.22586 1925.78034,414.559532 C1912.22993,419.893204 1897.67066,422.56 1882.10211,422.56 C1866.53355,422.56 1851.97429,419.893204 1838.42388,414.559532 C1824.87346,409.22586 1813.19722,401.730001 1803.3948,392.07173 C1793.59237,382.413458 1785.88029,370.953443 1780.25831,357.691339 C1774.63633,344.429236 1771.82538,329.869971 1771.82538,314.013108 C1771.82538,298.156245 1774.63633,283.669056 1780.25831,270.551105 C1785.88029,257.433155 1793.59237,246.117291 1803.3948,236.603173 C1813.19722,227.089055 1824.87346,219.665272 1838.42388,214.331599 C1851.97429,208.997927 1866.53355,206.331131 1882.10211,206.331131 C1897.67066,206.331131 1912.22993,208.997927 1925.78034,214.331599 C1939.33075,219.665272 1951.07907,227.089055 1961.02564,236.603173 C1970.97222,246.117291 1978.75638,257.433155 1984.37836,270.551105 C1990.00034,283.669056 1992.81129,298.156245 1992.81129,314.013108 Z M1950.43043,314.013108 C1950.43043,304.210684 1948.91683,294.84086 1945.88962,285.903355 C1942.8624,276.96585 1938.46579,269.109613 1932.69966,262.334408 C1926.93353,255.559203 1919.79805,250.153536 1911.293,246.117243 C1902.78796,242.080951 1893.05776,240.062835 1882.10211,240.062835 C1871.14646,240.062835 1861.41625,242.080951 1852.91121,246.117243 C1844.40616,250.153536 1837.27068,255.559203 1831.50455,262.334408 C1825.73842,269.109613 1821.34181,276.96585 1818.31459,285.903355 C1815.28737,294.84086 1813.77378,304.210684 1813.77378,314.013108 C1813.77378,323.815532 1815.28737,333.185356 1818.31459,342.122861 C1821.34181,351.060365 1825.73842,358.988678 1831.50455,365.908036 C1837.27068,372.827395 1844.40616,378.305138 1852.91121,382.34143 C1861.41625,386.377723 1871.14646,388.395839 1882.10211,388.395839 C1893.05776,388.395839 1902.78796,386.377723 1911.293,382.34143 C1919.79805,378.305138 1926.93353,372.827395 1932.69966,365.908036 C1938.46579,358.988678 1942.8624,351.060365 1945.88962,342.122861 C1948.91683,333.185356 1950.43043,323.815532 1950.43043,314.013108 Z M2256.61051,314.013108 C2256.61051,329.869971 2253.79956,344.429236 2248.17758,357.691339 C2242.5556,370.953443 2234.77144,382.413458 2224.82486,392.07173 C2214.87829,401.730001 2203.12997,409.22586 2189.57956,414.559532 C2176.02915,419.893204 2161.46988,422.56 2145.90133,422.56 C2130.33277,422.56 2115.77351,419.893204 2102.22309,414.559532 C2088.67268,409.22586 2076.99644,401.730001 2067.19402,392.07173 C2057.39159,382.413458 2049.67951,370.953443 2044.05753,357.691339 C2038.43555,344.429236 2035.6246,329.869971 2035.6246,314.013108 C2035.6246,298.156245 2038.43555,283.669056 2044.05753,270.551105 C2049.67951,257.433155 2057.39159,246.117291 2067.19402,236.603173 C2076.99644,227.089055 2088.67268,219.665272 2102.22309,214.331599 C2115.77351,208.997927 2130.33277,206.331131 2145.90133,206.331131 C2161.46988,206.331131 2176.02915,208.997927 2189.57956,214.331599 C2203.12997,219.665272 2214.87829,227.089055 2224.82486,236.603173 C2234.77144,246.117291 2242.5556,257.433155 2248.17758,270.551105 C2253.79956,283.669056 2256.61051,298.156245 2256.61051,314.013108 Z M2214.22965,314.013108 C2214.22965,304.210684 2212.71605,294.84086 2209.68884,285.903355 C2206.66162,276.96585 2202.26501,269.109613 2196.49888,262.334408 C2190.73275,255.559203 2183.59727,250.153536 2175.09222,246.117243 C2166.58718,242.080951 2156.85698,240.062835 2145.90133,240.062835 C2134.94568,240.062835 2125.21547,242.080951 2116.71043,246.117243 C2108.20538,250.153536 2101.0699,255.559203 2095.30377,262.334408 C2089.53764,269.109613 2085.14103,276.96585 2082.11381,285.903355 C2079.08659,294.84086 2077.573,304.210684 2077.573,314.013108 C2077.573,323.815532 2079.08659,333.185356 2082.11381,342.122861 C2085.14103,351.060365 2089.53764,358.988678 2095.30377,365.908036 C2101.0699,372.827395 2108.20538,378.305138 2116.71043,382.34143 C2125.21547,386.377723 2134.94568,388.395839 2145.90133,388.395839 C2156.85698,388.395839 2166.58718,386.377723 2175.09222,382.34143 C2183.59727,378.305138 2190.73275,372.827395 2196.49888,365.908036 C2202.26501,358.988678 2206.66162,351.060365 2209.68884,342.122861 C2212.71605,333.185356 2214.22965,323.815532 2214.22965,314.013108 Z M2413.16021,245.252328 L2358.67053,245.252328 L2358.67053,352.069389 C2358.67053,364.466573 2360.97695,373.331868 2365.58986,378.66554 C2370.20276,383.999212 2377.55447,386.666008 2387.6452,386.666008 C2391.39319,386.666008 2395.42942,386.233554 2399.75402,385.368635 C2404.07862,384.503715 2407.9707,383.206355 2411.43038,381.476515 L2412.72775,414.775761 C2407.82654,416.5056 2402.42087,417.875036 2396.51059,418.884109 C2390.6003,419.893182 2384.47388,420.397711 2378.13113,420.397711 C2358.81459,420.397711 2344.0391,415.064119 2333.80421,404.396775 C2323.56933,393.729431 2318.45196,377.728655 2318.45196,356.393966 L2318.45196,245.252328 L2279.09831,245.252328 L2279.09831,211.953082 L2318.45196,211.953082 L2318.45196,153.13883 L2358.67053,153.13883 L2358.67053,211.953082 L2413.16021,211.953082 L2413.16021,245.252328 Z" id="chatwoot_text_black" stroke="#334456" stroke-width="8" fill="#334456"></path>
        </g>
    </g>
</svg>