<?xml version="1.0" encoding="UTF-8"?>
<svg xmlns="http://www.w3.org/2000/svg" width="289" height="90" fill="none" viewBox="0 0 289 90">
    <g clip-path="url(#a)">
        <path fill="#fff" d="m36.599 1.816-15.375 43.12H2.041L.828 42.429 33.918.436l2.68 1.38ZM6.047 87.83l15.375-43.12h19.183l1.213 2.507L8.727 89.211l-2.68-1.38Zm83.728-14.814 6.037-32.7 6.799.057-6.009 32.671-6.827-.028Zm12.08-49.652a4.345 4.345 0 0 0-2.793 1.067 4.443 4.443 0 0 0-1.565 2.808 3.331 3.331 0 0 0 .587 2.808 3.018 3.018 0 0 0 2.43 1.067 4.234 4.234 0 0 0 2.794-1.067 4.5 4.5 0 0 0 1.565-2.808 3.195 3.195 0 0 0-.587-2.808 3.048 3.048 0 0 0-2.431-1.067ZM104.98 73.1l6.009-32.67h6.291l-.423 4.14a15.092 15.092 0 0 1 4.852-3.577 13.872 13.872 0 0 1 5.642-1.099 9.924 9.924 0 0 1 3.245.507l-2.173 6.647a8.472 8.472 0 0 0-2.821-.507 10.253 10.253 0 0 0-6.94 2.591 12.925 12.925 0 0 0-3.836 7.633l-3.103 16.42-6.743-.085Zm35.124.845a15.34 15.34 0 0 1-9.141-2.647 11.277 11.277 0 0 1-4.401-7.745l6.432-1.352a6.873 6.873 0 0 0 2.314 4.619 8.049 8.049 0 0 0 5.106 1.493 7.994 7.994 0 0 0 4.824-1.184 3.744 3.744 0 0 0 1.749-3.238 2.814 2.814 0 0 0-1.298-2.62 19.926 19.926 0 0 0-4.288-1.83h-.395l-1.777-.592a21.687 21.687 0 0 1-4.26-1.83 7.838 7.838 0 0 1-2.821-2.817 7.963 7.963 0 0 1-1.072-4.225c0-1.867.604-3.684 1.721-5.182a11.68 11.68 0 0 1 4.739-3.577 17.603 17.603 0 0 1 6.912-1.267c3-.085 5.954.75 8.463 2.394a10.006 10.006 0 0 1 4.006 6.872l-6.347 1.352a5.236 5.236 0 0 0-2.032-3.859 7.823 7.823 0 0 0-4.626-1.352 7.77 7.77 0 0 0-4.486 1.127 3.658 3.658 0 0 0-1.692 3.07 2.815 2.815 0 0 0 1.213 2.478 23.174 23.174 0 0 0 4.119 1.775l1.918.591a17.75 17.75 0 0 1 6.375 3.21 7.288 7.288 0 0 1 2.342 5.972 9.206 9.206 0 0 1-1.608 5.267 10.602 10.602 0 0 1-4.683 3.717 18.332 18.332 0 0 1-7.306 1.38Zm52.668-49.738h18.224a15.2 15.2 0 0 1 5.191.93 11.953 11.953 0 0 1 3.977 2.506 11.446 11.446 0 0 1 2.567 3.802c.609 1.522.906 3.15.875 4.788a11.478 11.478 0 0 1-2.511 7.407 14.107 14.107 0 0 1-6.799 4.535 11.284 11.284 0 0 1 5.643 4.196 11.592 11.592 0 0 1 1.918 6.816 13.39 13.39 0 0 1-1.298 5.83 13.267 13.267 0 0 1-3.639 4.591 16.453 16.453 0 0 1-5.642 2.986 22.605 22.605 0 0 1-7.391 1.041h-20.03l8.915-49.428Zm11.087 43.401c2.777.2 5.53-.633 7.729-2.337a7.989 7.989 0 0 0 2.821-6.337 7.382 7.382 0 0 0-1.974-5.436 7.485 7.485 0 0 0-5.643-2.084h-11.848l-3.018 16.223 11.933-.029Zm-7.73-22.531h11.03a9.292 9.292 0 0 0 6.63-2.197 7.488 7.488 0 0 0 2.482-5.802 6.723 6.723 0 0 0-1.721-4.844 6.401 6.401 0 0 0-4.965-1.916h-10.72l-2.736 14.759Zm49.397-4.422a16.95 16.95 0 0 1 7.955 1.859 12.428 12.428 0 0 1 5.134 5.098 15.183 15.183 0 0 1 1.749 7.463 20.137 20.137 0 0 1-2.511 9.576 19.498 19.498 0 0 1-6.968 7.238 18.553 18.553 0 0 1-10.071 2.817 16.95 16.95 0 0 1-7.955-1.859 12.653 12.653 0 0 1-5.162-5.098 15.038 15.038 0 0 1-1.721-7.52 19.153 19.153 0 0 1 2.539-9.576 19.136 19.136 0 0 1 6.939-7.21 18.73 18.73 0 0 1 10.072-2.788Zm-.565 6.055a11.297 11.297 0 0 0-6.206 1.746 12.763 12.763 0 0 0-4.344 4.732 13.298 13.298 0 0 0-1.637 6.309 9.315 9.315 0 0 0 2.201 6.619 8.275 8.275 0 0 0 6.319 2.478c2.22.064 4.407-.556 6.263-1.774a13.154 13.154 0 0 0 4.372-4.76 13.017 13.017 0 0 0 1.608-6.309 9.197 9.197 0 0 0-2.2-6.59 8.461 8.461 0 0 0-6.376-2.422v-.029ZM93.026 23.559l-26.862-.197-9.027 49.4 7.334.057 3.894-21.49 17.236.141 1.241-6.619-14.472-.084h-5.726l3.61-3.605 2.088-11.238 19.528.17 1.156-6.535Zm77.713 23.18h11.707l1.044-5.859h-11.679l.282-1.718.79-4.224h-1.862l-12.554 9.632-.338 2.084h5.896l-3.103 16.532a11.376 11.376 0 0 0 0 4.591 8.442 8.442 0 0 0 1.692 3.408 8.476 8.476 0 0 0 3.216 2.169 12.89 12.89 0 0 0 4.486.789 17.822 17.822 0 0 0 7.588-1.747l-1.551-5.492c-1.292.64-2.706.995-4.147 1.042-3.526 0-4.965-1.887-4.345-5.633l2.878-15.575Zm105.338.619h11.707L288.8 41.5h-11.679l.31-1.718.79-4.253h-1.862l-12.554 9.604-.338 2.112h5.868l-3.075 16.533a11.238 11.238 0 0 0 0 4.563 8.44 8.44 0 0 0 1.692 3.436 8.462 8.462 0 0 0 3.188 2.14c1.43.55 2.953.817 4.485.789a17.909 17.909 0 0 0 7.617-1.718l-1.551-5.633c-1.292.64-2.706.995-4.147 1.042-3.527 0-4.965-1.887-4.345-5.633l2.878-15.406Z"/>
    </g>
</svg>
