<?xml version="1.0" encoding="utf-8"?>
<!-- Generator: Adobe Illustrator 16.0.3, SVG Export Plug-In . SVG Version: 6.00 Build 0)  -->
<!DOCTYPE svg PUBLIC "-//W3C//DTD SVG 1.1//EN" "http://www.w3.org/Graphics/SVG/1.1/DTD/svg11.dtd">
<svg version="1.1" id="Capa_1" xmlns="http://www.w3.org/2000/svg" xmlns:xlink="http://www.w3.org/1999/xlink" x="0px" y="0px"
	 width="16px" height="16px" viewBox="0 0 16 16" enable-background="new 0 0 16 16" xml:space="preserve">
<path fill="#8B5E3C" d="M2.281,13.639c-3.328-3.327-3.028-9.022,0.669-12.72L15,12.969C11.303,16.666,5.608,16.965,2.281,13.639
	L2.281,13.639z"/>
<path fill="#603913" d="M2.95,0.919C1.102,2.768,2.3,6.964,5.628,10.292c3.327,3.327,7.523,4.525,9.372,2.677
	c1.849-1.848,0.65-6.044-2.678-9.372C8.995,0.27,4.799-0.929,2.95,0.919z"/>
<path fill="#F5F8FA" d="M14.628,10.821c0.186,0.185,0.485,0.185,0.67,0c0.061-0.063,0.104-0.138,0.124-0.222
	c0.032-0.127,0.745-3.157-1.427-5.329c-0.529-0.53-1.316-1.787-1.54-2.151c-0.189-0.196-0.347-0.127-0.709-0.489
	C11.58,2.464,11.08,1.566,9.645,2.928C9.48,3.088,9.457,3.344,9.589,3.531l4.984,7.225C14.591,10.779,14.608,10.802,14.628,10.821
	L14.628,10.821z"/>
<path fill="#603913" d="M11.163,2.938c0.335,0.334,0.69,0.671,0.69,0.671s1.139,1.327,1.808,1.997
	c2.008,2.008,1.303,4.882,1.303,4.882L9.447,3.066C9.447,3.066,10.77,2.573,11.163,2.938z M11.766,2.297
	c-0.868-0.681-2.263-0.149-2.604,0.188C8.838,2.808,8.94,3.423,9.2,3.799l4.983,7.225c0.296,0.431,0.885,0.539,1.315,0.242
	c0.191-0.132,0.328-0.328,0.384-0.555c0.033-0.138,0.807-3.418-1.553-5.776c-0.422-0.422-0.917-0.823-1.376-1.379
	c-0.309-0.384-0.636-0.752-0.982-1.102L11.766,2.297L11.766,2.297z"/>
<path fill="#F5F8FA" d="M3.62,1.588c-1.479,1.479-0.28,5.075,2.677,8.034c2.957,2.957,6.555,4.155,8.032,2.678
	c1.48-1.479,0.281-5.077-2.677-8.034C8.694,1.309,5.098,0.11,3.62,1.588L3.62,1.588z"/>
<path fill="#99AAB5" d="M4.603,2.614C3.505,3.711,4.563,6.549,6.966,8.952c2.404,2.403,5.242,3.461,6.339,2.364
	c1.097-1.097,0.038-3.936-2.365-6.339C8.539,2.574,5.701,1.516,4.603,2.614L4.603,2.614z"/>
<path fill="#99AAB5" d="M9.236,4.063l0.557-0.159c0.266-0.147,0.64-0.157,0.897,0.08l0.573,0.602
	c0.271,0.327,0.909,1.012,1.418,1.521c1.802,1.802,1.098,4.128,1.065,4.227c-0.039,0.125-0.172,0.194-0.296,0.155
	c-0.051-0.016-0.094-0.048-0.124-0.092L9.163,4.401C9.089,4.292,9.116,4.145,9.225,4.07C9.229,4.068,9.231,4.065,9.236,4.063
	L9.236,4.063z"/>
<path fill="#F5F8FA" d="M10.922,11.692c0,0-1.52-0.986-1.785-1.786C8.839,9.015,6.93,8.841,6.632,7.948
	C6.335,7.056,5.839,5.693,5.566,5.147c-0.272-0.546-0.595,0-0.893-0.893S3.781,2.766,3.781,2.766s0,4.166,0.892,5.059
	c0.893,0.892,4.463,4.463,4.761,4.165C9.731,11.692,10.922,11.692,10.922,11.692L10.922,11.692z"/>
<path fill="#603913" d="M10.484,12.484c0,0-1.765-1.2-2.042-2.032c-0.31-0.93-2.503-1.24-2.813-2.17
	c-0.31-0.93-0.755-2.597-0.905-2.789c-0.434-0.559-0.62,0-0.93-0.93c-0.31-0.93-0.93-1.55-0.93-1.55s0,4.339,0.93,5.269
	c0.93,0.931,4.648,4.649,4.958,4.339C9.063,12.313,10.484,12.484,10.484,12.484L10.484,12.484z"/>
<path fill="#8B5E3C" d="M9.979,13.304c0,0-1.708-1.11-2.007-2.008c-0.335-1.004-3.013-1.674-3.348-2.679
	C4.289,7.613,4.289,6.275,3.954,5.94c-0.334-0.335-0.669,0-1.004-1.004C2.615,3.931,1.946,3.262,1.946,3.262s0,4.686,1.004,5.69
	s5.021,5.021,5.355,4.687C8.641,13.304,9.979,13.304,9.979,13.304L9.979,13.304z"/>
<path fill="#A97C50" d="M4.792,14.909c0.042-0.135,0.395-0.028,0.526,0.001c3.283,0.723,5.519-0.655,5.544-0.667
	c0.129-0.065,0.273-0.016,0.324,0.106c0.05,0.122-0.014,0.271-0.14,0.336c-0.107,0.054-2.276,1.208-5.74,0.445
	c-0.043-0.011-0.341-0.062-0.37-0.091C4.879,14.981,4.763,15.001,4.792,14.909L4.792,14.909z M0.833,10.191
	c0.054,0.054,0.051,0.101,0.137,0.077c0.137-0.034,0.142-0.244,0.121-0.377c-0.232-1.511,0.171-3.079,0.872-4.9
	c0.05-0.133-0.013-0.273-0.139-0.309c-0.129-0.038-0.274,0.04-0.325,0.172c-0.736,1.91-0.974,3.614-0.727,5.213
	C0.778,10.114,0.8,10.157,0.833,10.191z M5.735,14.536c0.036,0.034,0.083,0.057,0.132,0.062c1.784,0.201,3.263-0.537,3.325-0.569
	c0.127-0.064,0.188-0.217,0.138-0.339s-0.197-0.168-0.326-0.103c-0.013,0.008-1.298,0.873-2.925,0.688
	c-0.135-0.015-0.391-0.008-0.421,0.131C5.641,14.488,5.683,14.483,5.735,14.536L5.735,14.536z"/>
</svg>
