<?xml version="1.0" standalone="no"?>
<!DOCTYPE svg PUBLIC "-//W3C//DTD SVG 20010904//EN"
 "http://www.w3.org/TR/2001/REC-SVG-20010904/DTD/svg10.dtd">
<svg version="1.0" xmlns="http://www.w3.org/2000/svg"
 width="255.000000pt" height="255.000000pt" viewBox="0 0 255.000000 255.000000"
 preserveAspectRatio="xMidYMid meet">

<g transform="translate(0.000000,255.000000) scale(0.100000,-0.100000)"
fill="#FFFFFF" stroke="none">
<path d="M10 1855 l0 -365 115 0 115 0 0 145 0 145 125 0 125 0 0 -145 0 -145
115 0 115 0 0 365 0 365 -115 0 -115 0 0 -145 0 -145 -125 0 -125 0 0 145 0
145 -115 0 -115 0 0 -365z"/>
<path d="M880 1855 l0 -365 115 0 115 0 0 365 0 365 -115 0 -115 0 0 -365z"/>
<path d="M1200 2150 l0 -70 120 0 120 0 0 -295 0 -295 115 0 115 0 0 295 0
295 120 0 120 0 0 70 0 70 -355 0 -355 0 0 -70z"/>
<path d="M1788 1520 c2 -16 6 -30 8 -30 2 0 4 14 4 30 0 17 -4 30 -8 30 -5 0
-7 -13 -4 -30z"/>
<path d="M1831 1518 c1 -31 1 -32 9 -8 l8 25 7 -22 c4 -13 12 -23 17 -23 5 0
7 6 4 13 -3 6 -9 20 -12 30 -11 30 -34 20 -33 -15z"/>
<path d="M1880 1534 c0 -8 4 -13 9 -9 5 3 12 -5 14 -17 3 -17 5 -14 6 10 1 22
-3 32 -14 32 -8 0 -15 -7 -15 -16z"/>
<path d="M20 995 l0 -405 1260 0 1260 0 0 405 0 405 -550 0 -550 0 0 -110 0
-110 435 0 435 0 0 -180 0 -180 -1035 0 -1035 0 0 185 0 185 435 0 435 0 0
105 0 105 -545 0 -545 0 0 -405z"/>
<path d="M70 502 c-65 -33 -78 -137 -23 -188 49 -45 150 -23 166 36 8 30 -30
26 -55 -5 -38 -49 -98 -16 -98 53 0 73 55 107 100 62 21 -21 50 -27 50 -9 0
23 -21 47 -51 58 -42 14 -48 14 -89 -7z"/>
<path d="M1390 495 c0 -8 9 -15 20 -15 11 0 20 7 20 15 0 8 -9 15 -20 15 -11
0 -20 -7 -20 -15z"/>
<path d="M1950 495 c0 -8 9 -15 20 -15 11 0 20 7 20 15 0 8 -9 15 -20 15 -11
0 -20 -7 -20 -15z"/>
<path d="M1850 475 c0 -16 -6 -25 -15 -25 -8 0 -15 -7 -15 -15 0 -8 7 -15 15
-15 10 0 15 -16 17 -62 3 -63 3 -63 36 -66 24 -2 32 1 32 12 0 9 -6 16 -14 16
-17 0 -26 22 -26 66 0 27 4 34 20 34 11 0 20 7 20 15 0 8 -9 15 -20 15 -15 0
-20 7 -20 25 0 16 -6 25 -15 25 -9 0 -15 -9 -15 -25z"/>
<path d="M270 430 c-13 -13 -20 -33 -20 -60 0 -53 27 -80 79 -80 71 0 105 77
60 134 -26 33 -88 37 -119 6z m88 -22 c17 -17 15 -63 -2 -78 -8 -6 -25 -10
-38 -8 -18 2 -24 10 -26 36 -2 19 -1 40 2 48 7 17 48 18 64 2z"/>
<path d="M440 370 c0 -73 2 -80 20 -80 17 0 20 7 20 46 0 54 14 84 39 84 24 0
31 -19 31 -81 0 -42 3 -49 20 -49 16 0 19 8 22 63 3 59 4 62 28 62 24 0 25 -3
28 -62 3 -55 6 -63 22 -63 18 0 20 7 20 61 0 78 -11 99 -53 99 -18 0 -38 -5
-44 -11 -8 -8 -13 -8 -17 0 -10 15 -69 14 -84 -1 -9 -9 -12 -9 -12 0 0 7 -9
12 -20 12 -18 0 -20 -7 -20 -80z"/>
<path d="M730 369 c0 -72 2 -79 20 -79 16 0 19 8 22 63 3 59 4 62 28 62 24 0
25 -3 28 -62 3 -55 6 -63 22 -63 17 0 20 7 20 49 0 64 7 81 35 81 26 0 35 -22
35 -87 0 -32 4 -43 15 -43 23 0 22 145 -1 154 -25 10 -59 7 -72 -6 -8 -8 -15
-8 -24 0 -7 6 -39 10 -71 10 l-57 -1 0 -78z"/>
<path d="M1020 382 c0 -40 5 -73 12 -80 15 -15 53 -16 79 -2 13 7 19 7 19 0 0
-5 7 -10 15 -10 12 0 15 16 15 80 0 73 -2 80 -20 80 -16 0 -19 -8 -22 -62 -3
-57 -5 -63 -25 -66 -27 -4 -43 29 -43 89 0 28 -4 39 -15 39 -12 0 -15 -14 -15
-68z"/>
<path d="M1200 370 c0 -73 2 -80 20 -80 17 0 20 7 20 53 0 63 10 80 41 75 22
-3 24 -8 27 -65 3 -55 6 -63 22 -63 18 0 20 7 20 68 0 76 -9 92 -55 92 -17 0
-36 -5 -43 -12 -9 -9 -12 -9 -12 0 0 7 -9 12 -20 12 -18 0 -20 -7 -20 -80z"/>
<path d="M1390 370 c0 -73 2 -80 20 -80 18 0 20 7 20 80 0 73 -2 80 -20 80
-18 0 -20 -7 -20 -80z"/>
<path d="M1490 430 c-13 -13 -20 -33 -20 -60 0 -51 27 -80 75 -80 34 0 75 27
75 50 0 16 -37 11 -44 -6 -4 -10 -15 -14 -33 -12 -26 3 -28 6 -28 48 0 40 3
45 24 48 13 2 28 -1 34 -7 13 -13 47 -15 47 -3 0 5 -8 16 -18 25 -26 24 -87
22 -112 -3z"/>
<path d="M1666 434 c-9 -8 -16 -20 -16 -25 0 -15 37 -10 44 6 7 20 45 19 53
-1 7 -19 -13 -34 -48 -34 -34 0 -51 -21 -47 -57 3 -28 4 -28 73 -29 l70 -2 -3
72 c-2 39 -9 74 -15 78 -22 14 -95 9 -111 -8z m84 -88 c0 -29 -33 -44 -56 -25
-18 14 -3 36 29 42 12 2 23 5 25 6 1 0 2 -10 2 -23z"/>
<path d="M1950 370 c0 -73 2 -80 20 -80 18 0 20 7 20 80 0 73 -2 80 -20 80
-18 0 -20 -7 -20 -80z"/>
<path d="M2041 424 c-45 -57 -11 -134 60 -134 52 0 79 27 79 80 0 53 -27 80
-79 80 -31 0 -44 -6 -60 -26z m94 -54 c0 -39 -3 -45 -23 -48 -31 -5 -52 15
-52 47 0 35 18 53 50 49 23 -3 25 -7 25 -48z"/>
<path d="M2220 370 c0 -73 2 -80 20 -80 16 0 19 8 22 63 3 57 5 62 27 65 31 5
41 -12 41 -75 0 -46 3 -53 20 -53 18 0 20 7 20 54 0 81 -12 106 -53 106 -18 0
-38 -5 -45 -12 -9 -9 -12 -9 -12 0 0 7 -9 12 -20 12 -18 0 -20 -7 -20 -80z"/>
<path d="M2408 425 c-14 -32 1 -51 54 -65 29 -8 38 -16 36 -28 -4 -22 -46 -28
-54 -8 -8 20 -44 21 -44 1 0 -20 32 -35 77 -35 46 0 63 14 63 52 0 24 -6 29
-47 41 -26 8 -49 19 -51 25 -6 19 27 26 53 12 33 -17 53 -9 31 13 -11 11 -33
17 -62 17 -38 0 -46 -4 -56 -25z"/>
</g>
</svg>
