<svg width="2840" height="1039" viewBox="0 0 2840 1039" fill="none" xmlns="http://www.w3.org/2000/svg">
<path d="M1985.21 204.552C1971.7 204.552 1960.72 215.48 1960.72 229.102V516.306C1960.72 564.251 1941.07 611.118 1906.67 644.979C1872.82 678.301 1828.67 696.309 1782.22 695.463C1687.1 693.847 1609.87 614.889 1609.87 519.539V229.102C1609.87 215.557 1598.97 204.552 1585.38 204.552H1519.66C1492.87 204.552 1471.14 226.408 1471.14 253.266V515.614C1471.14 689.768 1610.79 832.832 1782.22 834.525H1785.37C1868.67 834.525 1946.98 802.126 2006.32 743.253C2066.44 683.534 2099.53 604.115 2099.53 519.539V253.266C2099.6 226.408 2077.8 204.552 2051.08 204.552H1985.21Z" fill="white"/>
<path d="M314.248 204.552C229.797 204.552 150.568 237.721 91.1456 297.979C31.5698 358.159 -0.828399 438.041 0.0161028 522.617C1.70511 694.616 144.426 834.448 318.163 834.448H522.379C535.891 834.448 546.87 823.52 546.87 809.898V744.023C546.87 717.165 525.066 695.309 498.272 695.309H314.248C244 695.309 180.663 653.059 153.025 588.954H559.077C597.309 588.954 628.326 557.94 628.403 519.923C628.556 435.809 595.851 356.62 536.429 296.978C477.006 237.336 398.007 204.475 314.171 204.475H314.248V204.552ZM153.025 449.969C180.586 385.864 244 343.614 314.248 343.614C384.495 343.614 447.833 385.864 475.471 449.969H153.025Z" fill="white"/>
<path d="M1324.35 0H1258.63C1231.84 0 1210.11 21.8559 1210.11 48.714V258.423C1154.76 221.021 1088.27 202.013 1021.25 204.86C943.479 208.092 869.853 240.415 813.886 295.747C757.995 351.156 724.906 424.573 720.837 502.454C716.231 589.724 746.633 672.76 806.592 736.096C866.629 799.509 947.548 834.525 1034.61 834.525C1098.41 834.525 1159.29 815.593 1211.65 779.654C1218.4 810.976 1246.19 834.525 1279.44 834.525H1324.35C1337.86 834.525 1348.84 823.597 1348.84 809.975V24.5494C1348.84 11.0049 1337.86 0.076959 1324.35 0.076959V0ZM1209.34 535.546C1201.97 618.89 1133.65 687.228 1050.65 694.616C998.602 699.234 947.471 680.764 910.62 643.748C868.548 601.575 850.43 540.933 863.174 481.214C878.759 408.566 940.331 353.157 1013.96 344.692C1020.79 343.845 1027.54 343.46 1034.38 343.46C1080.9 343.46 1125.51 361.776 1158.6 395.022C1195.52 432.115 1213.95 483.292 1209.34 535.469V535.546Z" fill="white"/>
<path d="M2840 229.025C2840 215.48 2829.1 204.475 2815.51 204.475H2770.6C2737.35 204.475 2709.49 228.024 2702.81 259.346C2650.52 223.407 2589.57 204.475 2525.77 204.475C2438.78 204.475 2357.87 239.414 2297.75 302.904C2237.79 366.24 2207.31 449.277 2212 536.546C2216.14 614.504 2249.23 687.921 2305.05 743.253C2360.94 798.586 2434.56 830.908 2512.41 834.14C2579.43 836.987 2645.84 817.979 2701.19 780.578V990.286C2701.19 1017.14 2723 1039 2749.79 1039H2815.51C2829.1 1039 2840 1028.07 2840 1014.53V229.025ZM2649.83 643.825C2616.67 677.07 2572.14 695.386 2525.61 695.386C2518.78 695.386 2512.03 695.001 2505.19 694.154C2431.57 685.612 2370.07 630.203 2354.41 557.632C2341.51 497.99 2359.79 437.348 2401.86 395.099C2438.78 358.082 2489.84 339.612 2541.89 344.23C2625.04 351.618 2693.21 420.11 2700.58 503.301C2705.19 555.555 2686.76 606.731 2649.83 643.748V643.825Z" fill="white"/>
</svg>
