<?xml version="1.0" encoding="UTF-8"?>
<svg id="Camada_3" data-name="Camada 3" xmlns="http://www.w3.org/2000/svg" xmlns:xlink="http://www.w3.org/1999/xlink" viewBox="0 0 2458 512">
  <defs>
    <style>
      .cls-1 {
        fill: url(#Gradiente_sem_nome_2);
        fill-rule: evenodd;
      }

      .cls-2 {
        fill: #fefefe;
      }

      .cls-3 {
        fill: #f79947;
      }
    </style>
    <linearGradient id="Gradiente_sem_nome_2" data-name="Gradiente sem nome 2" x1="-6140.19" y1="-20513.59" x2="4933.45" y2="-5208.48" gradientTransform="translate(261.37 -260.41) scale(.03 -.03)" gradientUnits="userSpaceOnUse">
      <stop offset="0" stop-color="#f47b35"/>
      <stop offset="1" stop-color="#faa954"/>
    </linearGradient>
  </defs>
  <g id="Camada_1">
    <g id="_1462212761104" data-name=" 1462212761104">
      <g>
        <path class="cls-2" d="M803.25,375.65c-19.5,0-36.4-3.39-50.67-10.18-14.28-6.79-26.08-15.9-35.41-27.35-9.33-11.45-16.32-24.1-20.99-37.95-4.66-13.85-7-27.7-7-41.55v-7.63c0-14.42,2.33-28.55,7-42.4,4.66-13.85,11.73-26.36,21.2-37.53,9.47-11.17,21.27-20.14,35.41-26.93,14.13-6.79,30.67-10.18,49.61-10.18s35.97,3.53,51.1,10.6c15.12,7.07,27.28,17.03,36.47,29.9,9.19,12.86,14.35,28.06,15.48,45.58h-39.01c-1.98-14.13-8.48-25.94-19.51-35.41-11.02-9.47-25.87-14.21-44.52-14.21-16.11,0-29.54,3.68-40.28,11.03-10.74,7.35-18.8,17.39-24.17,30.11-5.37,12.72-8.06,27.14-8.06,43.25s2.69,29.75,8.06,42.62c5.37,12.86,13.5,23.04,24.38,30.53,10.89,7.49,24.52,11.24,40.92,11.24,12.72,0,23.75-2.26,33.08-6.79,9.33-4.52,16.82-10.6,22.47-18.23,5.65-7.63,9.05-16.26,10.18-25.87h39.01c-.85,17.81-6.01,33.22-15.48,46.22-9.47,13-21.91,23.11-37.32,30.32-15.41,7.21-32.72,10.81-51.95,10.81h0ZM1043.22,375.65c-19.79,0-37.17-3.39-52.16-10.18-14.98-6.79-27.63-15.76-37.95-26.93-10.32-11.17-18.09-23.68-23.32-37.53-5.23-13.85-7.85-27.99-7.85-42.4v-7.63c0-14.42,2.69-28.62,8.06-42.62,5.37-13.99,13.29-26.57,23.75-37.74,10.46-11.17,23.18-20.07,38.16-26.71,14.98-6.64,32.09-9.97,51.31-9.97s36.32,3.32,51.31,9.97c14.98,6.64,27.7,15.55,38.16,26.71,10.46,11.17,18.37,23.75,23.75,37.74,5.37,13.99,8.06,28.2,8.06,42.62v7.63c0,14.42-2.61,28.55-7.84,42.4-5.23,13.85-13,26.36-23.32,37.53-10.32,11.17-22.97,20.14-37.95,26.93-14.98,6.79-32.37,10.18-52.16,10.18h0ZM1043.22,339.18c16.96,0,31.45-3.75,43.46-11.24,12.01-7.49,21.2-17.6,27.56-30.32,6.36-12.72,9.54-27,9.54-42.83s-3.25-30.53-9.75-43.25c-6.5-12.72-15.76-22.76-27.77-30.11-12.01-7.35-26.36-11.03-43.04-11.03s-30.67,3.68-42.83,11.03c-12.16,7.35-21.49,17.39-27.99,30.11-6.5,12.72-9.75,27.14-9.75,43.25s3.18,30.11,9.54,42.83c6.36,12.72,15.55,22.83,27.56,30.32,12.01,7.49,26.5,11.24,43.46,11.24ZM1201.34,368.02v-226.44h32.23v97.1h-5.09c0-22.05,2.9-40.78,8.69-56.18,5.8-15.41,14.49-27.21,26.08-35.41,11.59-8.2,26.29-12.3,44.1-12.3h1.7c17.81,0,32.58,4.1,44.31,12.3,11.73,8.2,20.42,20,26.08,35.41,5.65,15.41,8.48,34.14,8.48,56.18h-11.87c0-22.05,2.97-40.78,8.91-56.18,5.94-15.41,14.77-27.21,26.5-35.41,11.73-8.2,26.5-12.3,44.31-12.3h1.7c17.81,0,32.65,4.1,44.52,12.3,11.87,8.2,20.71,20,26.5,35.41,5.8,15.41,8.69,34.14,8.69,56.18v129.33h-40.71v-138.24c0-18.37-4.52-32.58-13.57-42.62-9.05-10.04-21.63-15.05-37.74-15.05s-30.11,5.3-40.28,15.9c-10.18,10.6-15.26,25.37-15.26,44.31v135.69h-40.71v-138.24c0-18.37-4.52-32.58-13.57-42.62-9.05-10.04-21.62-15.05-37.74-15.05s-30.11,5.3-40.28,15.9c-10.18,10.6-15.26,25.37-15.26,44.31v135.69h-40.72Z"/>
        <path class="cls-3" d="M1683.43,376.49c-20.35,0-38.02-3.32-53-9.96-14.98-6.64-27.49-15.62-37.53-26.93-10.04-11.31-17.53-24.17-22.47-38.59-4.95-14.42-7.42-29.4-7.42-44.95v-8.48c0-16.4,2.62-31.95,7.85-46.64,5.23-14.7,12.93-27.7,23.11-39.01,10.18-11.31,22.76-20.21,37.74-26.71,14.98-6.5,32.23-9.75,51.73-9.75,21.49,0,40.42,4.24,56.82,12.72,16.4,8.48,29.47,20.14,39.22,34.98,9.75,14.84,15.19,31.87,16.32,51.1h-75.48c-.85-9.33-4.31-17.24-10.39-23.75-6.08-6.5-14.91-9.75-26.5-9.75-9.89,0-18.02,2.54-24.38,7.63-6.36,5.09-11.1,12.15-14.2,21.2-3.11,9.05-4.66,19.79-4.66,32.23,0,11.59,1.34,21.91,4.03,30.95,2.69,9.05,7.21,16.04,13.57,20.99,6.36,4.95,14.91,7.42,25.65,7.42,7.92,0,14.56-1.41,19.93-4.24,5.37-2.83,9.61-6.86,12.72-12.08,3.11-5.23,5.09-11.38,5.94-18.45h75.48c-1.13,19.79-6.71,37.17-16.75,52.16-10.04,14.98-23.39,26.71-40.07,35.19-16.68,8.48-35.76,12.72-57.25,12.72h0ZM1814.84,368.01V58.47h77.18v176.4h-10.18c0-23.75,2.97-43.68,8.91-59.79,5.94-16.11,14.63-28.27,26.08-36.47,11.45-8.2,25.65-12.3,42.62-12.3h3.39c25.44,0,44.88,9.19,58.3,27.56,13.43,18.37,20.14,45.37,20.14,80.99v133.15h-77.18v-136.12c0-10.74-3.25-19.58-9.75-26.5-6.5-6.93-15.12-10.39-25.87-10.39s-19.51,3.46-26.29,10.39c-6.79,6.93-10.18,16.04-10.18,27.35v135.27h-77.18,0ZM2212.98,368.01v-68.69h-12.72v-73.36c0-10.74-2.47-18.73-7.42-23.96-4.95-5.23-13.07-7.85-24.38-7.85-5.37,0-13.29.14-23.75.42-10.46.28-21.48.71-33.07,1.27-11.59.57-22.19,1.13-31.8,1.7v-64.45c6.79-.56,14.84-1.13,24.17-1.7,9.33-.57,19.01-.99,29.05-1.27,10.04-.28,19.29-.42,27.77-.42,24.03,0,44.45,3.53,61.27,10.6,16.82,7.07,29.68,17.67,38.59,31.8,8.9,14.13,13.36,32.09,13.36,53.85v142.05h-61.06,0ZM2138.77,373.95c-16.4,0-30.95-2.97-43.67-8.91-12.72-5.94-22.69-14.49-29.9-25.65-7.21-11.17-10.81-24.52-10.81-40.07,0-17.53,4.66-31.73,13.99-42.62,9.33-10.88,22.19-18.87,38.59-23.96,16.4-5.09,35.19-7.63,56.4-7.63h45.37v39.86h-45.37c-10.46,0-18.52,2.61-24.17,7.85-5.65,5.23-8.48,12.22-8.48,20.99s2.83,15.34,8.48,20.57c5.65,5.23,13.71,7.84,24.17,7.84,6.78,0,12.79-1.2,18.02-3.6,5.23-2.4,9.54-6.57,12.93-12.51,3.39-5.94,5.37-14.14,5.94-24.6l17.81,16.96c-1.41,16.11-5.3,29.75-11.66,40.92-6.36,11.17-15.12,19.72-26.29,25.65-11.17,5.94-24.95,8.91-41.34,8.91h0ZM2415.63,371.41c-25.44,0-45.72-3.11-60.85-9.33-15.12-6.22-26.08-16.54-32.86-30.96-6.79-14.42-10.18-33.92-10.18-58.52l.42-199.72h71.24l-.42,201.84c0,10.46,2.76,18.45,8.27,23.96,5.51,5.51,13.5,8.27,23.96,8.27h32.23v64.45h-31.8ZM2277.82,189.92v-55.97h169.62v55.97h-169.62,0Z"/>
      </g>
      <path class="cls-2" d="M283.18,249.97c1.87-1.1,4.05.02,5.77.95,43.38,26.15,87.2,51.56,130.7,77.51,12.35,7,24.3,14.7,36.79,21.48,7.39,4.41,14.74,8.91,21.61,14.1,11.44,9.2,20.47,21.55,25.01,35.57,4.65,14.05,5.77,29.25,3.74,43.88-4.35,28.87-25.68,54.44-53.24,64-9.37,3.23-19.31,4.64-29.2,4.52-111.62,0-223.24.02-334.86-.02-17.21-.17-33.96-6.81-47.41-17.39-13.27-9.85-23.26-24.19-27.59-40.17-5.62-18.49-5.42-39,1.79-57.05,5.78-15.47,16.76-28.81,30.44-37.98,8.08-5.62,17.41-9.08,26.81-11.76,8.31-1.65,16.81-2.04,25.26-1.93,35.48-.13,70.96-.02,106.44-.06,8.45.3,16.9-.51,25.22-2.01,6.5-.89,12.59-3.44,18.77-5.52,13.6-5.63,26.25-14.54,34.4-26.98,7.16-10.31,10.43-23.5,8-35.9-1.41-7.02-4.43-13.59-8.09-19.69-.82-1.72-2.93-4.34-.37-5.58Z"/>
      <path class="cls-1" d="M243.64.08c44.19-.08,88.37-.04,132.55-.05,19.95.16,39.92-.48,59.85.79,14.95,1.31,29.28,7.54,40.85,17.03,11.76,9.38,21.03,21.91,26.01,36.14,5.69,16.67,6.44,35.06,2.04,52.13-6.8,27.11-28.82,49.66-55.64,57.39-10.03,3.32-20.7,3.49-31.15,3.48-33.93,0-67.86,0-101.79.02-12.8.15-25.95-.06-38.22,4.13-8.45,2.11-16.17,6.29-23.57,10.76-6.64,4.62-13.12,9.72-17.81,16.4-7.75,10.33-12.56,23.58-10.23,36.56,1.36,8.8,5.65,16.7,9.81,24.44,1.54,2.94-2.56,4.65-4.68,3.02-51.78-30.61-103.63-61.12-155.42-91.69-9.34-5.63-18.94-10.87-27.93-17.05-17.5-11.07-30.67-29.09-35.23-49.35-1.69-7-1.88-14.24-2.35-21.4.49-11.07,1.84-22.38,6.36-32.6C25.59,29.89,42.59,13.19,63.2,5.36,73.35,1.68,84.16.21,94.92.2c49.57.02,99.14-.05,148.72-.12M154.96,65c-7.32,1.06-13.7,6.89-15.33,14.09-.35,3.89-.66,8.05,1.04,11.68,2.92,6.61,9.88,11.44,17.19,11.26,10.05.29,19.4-9.05,18.46-19.21.33-10.86-10.79-19.91-21.36-17.82M255.22,65.19c-5.21,1.13-9.93,4.54-12.46,9.25-3.07,5.53-3.05,12.66.16,18.13,3.19,5.63,9.43,9.48,15.95,9.44,7.79.27,15.4-5,17.83-12.42,2.43-6.43.76-14.13-4.02-19.05-4.34-4.67-11.25-6.83-17.47-5.36M356.24,65.21c-5.41,1.13-10.26,4.77-12.72,9.74-2.74,5.28-2.7,11.89.15,17.13,3.18,6.16,10.02,10.25,16.98,9.95,8.18.03,15.83-6.21,17.61-14.16,1.63-6.22-.35-13.22-4.95-17.71-4.35-4.39-11.06-6.34-17.07-4.96h0Z"/>
    </g>
  </g>
</svg>