<?xml version="1.0" standalone="no"?>
<!DOCTYPE svg PUBLIC "-//W3C//DTD SVG 20010904//EN"
 "http://www.w3.org/TR/2001/REC-SVG-20010904/DTD/svg10.dtd">
<svg version="1.0" xmlns="http://www.w3.org/2000/svg"
 width="500.000000pt" height="500.000000pt" viewBox="0 0 500.000000 500.000000"
 preserveAspectRatio="xMidYMid meet">

<g transform="translate(0.000000,500.000000) scale(0.100000,-0.100000)"
fill="#000000" stroke="none">
<path d="M458 3753 l-228 -3 0 -790 c0 -688 2 -789 15 -784 8 3 17 14 20 25
10 32 92 136 157 200 79 77 157 138 239 185 35 20 70 44 77 52 17 22 18 1092
0 1110 -7 7 -21 11 -32 10 -12 -2 -123 -4 -248 -5z"/>
<path d="M1772 3741 c-11 -12 -13 -30 -8 -80 3 -37 6 -213 6 -393 l0 -328 28
0 c23 0 230 41 407 80 87 19 80 -13 78 375 -1 191 -3 348 -5 350 -1 2 -113 5
-247 7 -203 2 -247 1 -259 -11z"/>
<path d="M4420 3739 c-301 -60 -584 -171 -900 -354 -30 -17 -108 -58 -173 -91
-88 -45 -116 -63 -111 -74 4 -8 24 -62 46 -120 82 -221 90 -240 103 -240 16 0
332 165 355 185 41 35 378 207 443 226 35 10 35 1 -4 -103 -17 -46 -41 -112
-54 -148 -13 -36 -32 -87 -43 -115 -10 -27 -83 -221 -161 -430 -78 -209 -154
-411 -168 -450 -15 -38 -30 -75 -35 -81 -5 -7 4 -44 21 -90 17 -44 64 -173
105 -289 101 -282 112 -310 126 -310 7 0 33 54 57 120 24 66 54 143 65 170 11
28 60 156 108 285 48 129 129 345 180 480 50 135 110 292 131 350 282 750 380
1011 393 1041 8 20 12 39 9 43 -10 9 -442 5 -493 -5z"/>
<path d="M2605 3000 c-195 -69 -324 -99 -990 -230 -202 -39 -338 -72 -481
-116 -139 -42 -170 -54 -303 -121 -294 -149 -477 -356 -556 -629 -37 -127 -46
-221 -43 -454 l3 -205 255 0 255 0 6 265 c6 288 11 318 71 431 86 164 297 290
624 373 199 50 311 73 316 65 2 -2 5 -258 8 -569 l5 -565 253 -3 c198 -2 252
0 253 10 1 7 0 283 -1 613 -1 484 1 603 12 616 7 9 47 24 88 34 184 42 484
134 501 153 4 4 -23 88 -60 187 -54 144 -71 180 -87 182 -10 0 -68 -16 -129
-37z"/>
</g>
</svg>
