<?xml version="1.0" encoding="UTF-8"?>
<svg xmlns="http://www.w3.org/2000/svg" width="110" height="109" fill="none" viewBox="0 0 110 109">
    <path fill="#101010" d="M54.977 108.955c30.363 0 54.977-24.39 54.977-54.478C109.954 24.39 85.34 0 54.977 0 24.614 0 0 24.39 0 54.477c0 30.087 24.614 54.478 54.977 54.478Z"/>
    <path fill="#fff" d="M69.223 10.53a1.883 1.883 0 0 1 .914 2.31L58.005 46.67a15.332 15.332 0 0 1-14.432 10.156h-8.121a2.347 2.347 0 0 1-1.84-3.805L66.89 11.036a1.883 1.883 0 0 1 2.334-.507ZM40.099 99.106a1.84 1.84 0 0 1-.88-2.235l11.92-34.14a14.778 14.778 0 0 1 13.952-9.905h7.862a2.352 2.352 0 0 1 1.861 3.789L42.412 98.602a1.84 1.84 0 0 1-2.313.504Z"/>
</svg>
