<?xml version="1.0" encoding="UTF-8"?>
<!DOCTYPE svg PUBLIC "-//W3C//DTD SVG 1.1//EN" "http://www.w3.org/Graphics/SVG/1.1/DTD/svg11.dtd">
<!-- Creator: CorelDRAW 2021 (64-Bit) -->
<svg xmlns="http://www.w3.org/2000/svg" xml:space="preserve" width="746.72mm" height="178.84mm" version="1.1" style="shape-rendering:geometricPrecision; text-rendering:geometricPrecision; image-rendering:optimizeQuality; fill-rule:evenodd; clip-rule:evenodd"
viewBox="0 0 78171 18721.97"
 xmlns:xlink="http://www.w3.org/1999/xlink"
 xmlns:xodm="http://www.corel.com/coreldraw/odm/2003">
 <defs>
  <style type="text/css">
   <![CDATA[
    .fil0 {fill:none}
    .fil1 {fill:#47A7F6}
    .fil2 {fill:#273445;fill-rule:nonzero}
   ]]>
  </style>
 </defs>
 <g id="Layer_x0020_1">
  <metadata id="CorelCorpID_0Corel-Layer"/>
  <rect class="fil0" x="9562.52" y="1486.7" width="15882" height="15882"/>
  <path class="fil1" d="M20753.1 2098.11l-6499.18 0c-1668.11,0 -3032.9,1364.82 -3032.9,3032.93l0 6499.18c0,2366.24 3369.3,4746.84 5468.12,5127.08l17.13 -2094.17 4046.84 0c1668.14,0 3032.94,-1364.8 3032.94,-3032.91l0 -6499.18c0,-1668.11 -1364.8,-3032.93 -3032.94,-3032.93zm-6217.97 7875.36c0,0 1255.83,1734.62 2484.24,2512.56 469.01,296.78 856.32,455.41 1195.76,507.13 120.41,16.97 229.56,23.45 338.16,19.09 391.19,-15.67 722.37,-170.44 1039.67,-400.82 0,0 497.22,-357.3 672.82,-592.93 164.29,-246.01 145.1,-452.06 -24.38,-608.49l-1251.95 -1364.75c0,0 -307.35,-336.01 -720.25,-47.36 0,0 -177.75,181.27 -589.35,502.51 -400.74,320.82 -864.11,-378.98 -864.11,-378.98l-821.18 -1207.82c0,0 -207.32,-285.58 -449.49,-624.11 -149.55,-200.82 -299.9,-423.31 -438.63,-624.56 -305.57,-564.59 -161.28,-766.31 -161.28,-766.31 78.67,-209.97 636.77,-406.47 890.55,-590.74 402.06,-288.2 179.03,-692.86 179.03,-692.86l-902.89 -1618.17c-106.49,-213.39 -284.3,-304.21 -574.64,-216.42 -290.82,76.93 -776.68,444.72 -776.68,444.72 -84.76,57.85 -158.62,115.22 -232.1,183.47 -612.82,459.85 -957.89,1083.26 -620.96,2430.18 371.41,1389.23 1627.65,3134.6 1627.65,3134.6l0.02 0.05zm5533.95 -4343.63c-99.4,-90.12 -253.03,-82.61 -343.15,16.79l-2235.97 2466.14 -1054.65 -864.81c-82.79,-67.82 -203.84,-75.57 -295.72,-11.03 -110.57,77.66 -137.23,230.22 -59.6,340.79l1096.1 1560.76c29.97,42.32 68.71,81.68 113.95,112.74 205.6,141.16 486.72,88.92 627.87,-116.68l17.92 -26.1 2170.32 -3161.13c67.9,-98.66 54.08,-234.8 -37.09,-317.46zm2083.26 0c-99.39,-90.12 -253.03,-82.61 -343.13,16.79l-2235.98 2466.14 -368.12 -301.86 -433.24 633.4 487.51 694.17c29.97,42.32 68.69,81.68 113.95,112.74 205.6,141.16 486.69,88.92 627.85,-116.68l17.9 -26.1 2170.37 -3161.13c67.88,-98.66 54.07,-234.8 -37.11,-317.46z"/>
  <path class="fil2" d="M26374.55 4235.92l6684.21 0 0 1764.85 -4472.3 0 0 1583.38 4037.24 0 0 1752.71 -4037.24 12.12 0 1595.51 4593.28 0 0 1764.72 -6805.18 0 0 -8473.29zm7115.81 1934.07l2465.75 0 1051.58 1837.21 1136.31 -1837.21 2357.01 0 -2066.93 3191 2211.91 3348.22 -2477.86 0 -1160.44 -1994.43 -1293.3 1994.43 -2369.12 0 2224.14 -3348.22 -2079.05 -3191zm7623.48 0l2139.42 0 0 6539.22 -2139.42 0 0 -6539.22zm1051.59 -3009.78c330.37,0 602.32,106.78 815.87,320.33 213.55,213.55 320.33,489.54 320.33,827.99 0,330.37 -106.78,604.29 -320.33,821.88 -213.55,217.59 -485.5,326.44 -815.87,326.44 -330.48,0 -602.45,-108.85 -815.99,-326.44 -213.43,-217.59 -320.21,-491.51 -320.21,-821.88 0,-338.45 106.78,-614.44 320.21,-827.99 213.55,-213.55 485.51,-320.33 815.99,-320.33zm1990.74 1075.71l7276.49 0 0 1450.53 -4472.29 5245.92 4544.9 0 0 1776.84 -7506.32 0 0 -1438.39 4472.3 -5258.04 -4315.09 0 0 -1776.85zm11056.32 1849.45c902.44,0 1603.59,207.43 2103.17,622.41 499.59,415.1 753.43,997.22 761.51,1746.72l0 4254.7 -2115.29 0 0 -737.38c-435.18,556.03 -1091.87,834.1 -1970.2,834.1 -693.05,0 -1239.04,-187.35 -1637.86,-562.04 -398.94,-374.81 -598.28,-868.27 -598.28,-1480.76 0,-620.45 215.51,-1104 646.64,-1450.52 431.14,-346.42 1049.51,-523.72 1855.35,-531.8l1704.35 0 0 -72.48c0,-314.32 -106.77,-556.04 -320.32,-725.26 -213.55,-169.22 -521.75,-253.83 -924.73,-253.83 -273.92,0 -582.13,44.32 -924.61,132.97 -342.49,88.66 -686.94,217.59 -1033.47,386.81l-592.28 -1450.52c531.79,-241.71 1041.54,-421.1 1529.01,-537.92 487.58,-116.81 993.19,-175.22 1517.01,-175.22zm-556.04 5257.93c322.29,0 604.4,-78.49 846.12,-235.71 241.71,-157.1 394.89,-360.61 459.3,-610.4l0 -568.05 -1281.29 0c-604.29,0 -906.5,225.56 -906.5,676.9 0,225.56 78.5,404.94 235.72,537.91 157.1,132.87 372.61,199.35 646.64,199.35zm8602.58 -5245.92c604.29,0 1136.2,139.1 1595.51,417.06 459.31,277.96 815.87,672.85 1069.71,1184.56 253.83,511.71 380.81,1101.91 380.81,1770.84 0,660.73 -122.93,1240.89 -368.68,1740.49 -245.76,499.7 -596.32,886.4 -1051.59,1160.43 -455.27,274.04 -981.18,410.94 -1577.38,410.94 -411.05,0 -783.67,-78.49 -1118.08,-235.72 -334.51,-157.1 -618.48,-384.73 -852.23,-682.89l0 3191.12 -2151.54 0 0 -8884.22 2151.54 0 0 846.11c475.46,-612.49 1116.11,-918.72 1921.94,-918.72zm-531.91 4943.72c419.02,0 759.55,-149.02 1021.46,-447.19 261.8,-298.16 392.81,-689.01 392.81,-1172.44 0,-483.54 -131.01,-876.37 -392.81,-1178.56 -261.91,-302.21 -602.45,-453.3 -1021.46,-453.3 -410.93,0 -745.34,151.09 -1003.22,453.3 -257.87,302.2 -386.8,695.02 -386.8,1178.56 0,483.43 128.93,874.28 386.8,1172.44 257.88,298.17 592.29,447.19 1003.22,447.19z"/>
  <rect class="fil0" x="-0" y="0" width="78171" height="18721.96"/>
 </g>
</svg>
