<?xml version="1.0" encoding="UTF-8"?>
<!-- Generator: Adobe Illustrator 24.3.0, SVG Export Plug-In . SVG Version: 6.00 Build 0)  -->
<svg version="1.1" id="Layer_1" xmlns="http://www.w3.org/2000/svg" xmlns:xlink="http://www.w3.org/1999/xlink" x="0px" y="0px" viewBox="0 0 227 41" style="enable-background:new 0 0 227 41;" xml:space="preserve">
<style type="text/css">
	.st0{fill:#FB275D;}
	.st1{fill:#FFCC00;}
	.st2{fill:#FCFCFC;}
	.st3{fill:#00CA72;}
</style>
<desc>Created with Sketch.</desc>
<path id="Shape_1_" class="st0" d="M34,31c-1.7,0-3.2-0.9-4.1-2.4s-0.8-3.3,0.1-4.7l8.4-13.2c0.8-1.5,2.4-2.4,4.1-2.3s3.2,1,4,2.5  s0.7,3.3-0.3,4.7l-8.4,13.2C37.1,30.2,35.6,31,34,31z"/>
<ellipse id="Oval" class="st1" cx="48.4" cy="26.5" rx="4.7" ry="4.5"/>
<path id="Shape_3_" class="st2" d="M205.1,11.1h-6.4l-4.5,11.3l-4.4-11.3h-6.4l7.8,17.9l-4.8,11.8h6.3L205.1,11.1z M166.8,21  c0,2.9,2.5,4.7,5,4.7c2.5,0,4.9-1.7,4.9-4.7c0-3-2.4-4.7-4.9-4.7C169.3,16.3,166.8,18.2,166.8,21z M176.7,31v-2.3  c-1.3,1.9-4.3,2.6-5.9,2.6c-5.1,0-10.3-4-10.3-10.4c0-6.4,5.1-10.4,10.3-10.4c1.3,0,4.3,0.4,5.9,2.6v-2.2h5.9V31L176.7,31z   M158.9,31h-5.9v-2.5c-1,1.8-3.4,2.9-5.9,2.9c-5.2,0-9.7-4.1-9.7-10.3c0-6.4,4.6-10.4,9.7-10.4c2.5,0,4.9,1,5.9,2.9V0.2h5.9V31z   M152.8,21c0-3-2.2-4.7-4.7-4.7c-2.5,0-4.7,1.9-4.7,4.7c0,3,2.1,4.8,4.7,4.8C150.7,25.8,152.8,23.8,152.8,21z M122.6,20.5  c0-3,1.6-4,3.7-4c2,0,3.5,1.3,3.5,4V31h6V19.1c0-5.7-2.8-8.4-7.4-8.4c-2.4,0-4.7,1.3-5.8,3.3v-2.9h-6V31h6L122.6,20.5L122.6,20.5z   M104.5,31.3C98.8,31.3,94,27.2,94,21c0-6.3,4.7-10.3,10.4-10.3s10.5,4.1,10.5,10.3C114.9,27.2,110.2,31.3,104.5,31.3L104.5,31.3z   M104.5,25.5c2.5,0,4.6-1.8,4.6-4.6c0-2.7-2.1-4.5-4.6-4.5c-1.2,0-2.4,0.5-3.2,1.3c-0.9,0.9-1.3,2-1.3,3.2  C100,23.7,102,25.5,104.5,25.5L104.5,25.5z M83.3,16.4c1.8,0,3.3,1.4,3.3,4V31h5.9V19.7c0-6-3-9-7.8-9c-1.4,0-4.1,0.4-6,3.5  c-1.1-2.3-3.3-3.5-6.5-3.5c-2.2,0-4.3,1.3-5.3,3.3v-2.9h-6V31h6V20.5c0-3,1.7-4,3.5-4c1.7,0,3.3,1.3,3.3,3.8V31h6V20.5  C79.9,17.6,81.4,16.4,83.3,16.4z"/>
<path id="Shape" class="st3" d="M19.6,31c-1.7,0-3.2-0.9-4.1-2.4c-0.8-1.5-0.8-3.3,0.1-4.7L24,10.7c0.9-1.4,2.4-2.3,4.1-2.3  s3.2,1,4,2.5c0.8,1.5,0.7,3.3-0.3,4.7l-8.4,13.2C22.7,30.2,21.2,31,19.6,31z"/>
</svg>
