<svg width="998" height="258" viewBox="0 0 998 258" fill="none" xmlns="http://www.w3.org/2000/svg">
<path d="M302.617 141.2C295.987 139.329 290.859 136.48 287.146 132.739C283.433 128.999 281.577 123.388 281.577 115.908C281.577 106.913 284.759 99.7882 291.213 94.712C297.666 89.6358 306.418 87.0531 317.469 87.0531C322.066 87.0531 326.574 87.4984 331.083 88.2999C335.592 89.1014 340.1 90.3482 344.697 92.0403C344.432 95.1573 343.901 98.3633 342.929 101.658C341.957 104.954 340.896 107.892 339.57 110.386C336.741 109.228 333.647 108.16 330.199 107.269C326.751 106.378 323.215 105.933 319.414 105.933C315.435 105.933 312.253 106.557 310.043 107.803C307.833 109.05 306.684 111.009 306.684 113.77C306.684 116.353 307.479 118.223 309.07 119.292C310.662 120.36 312.96 121.34 315.878 122.32L325.956 125.348C329.226 126.327 332.232 127.485 334.884 128.821C337.536 130.157 339.835 131.849 341.691 133.897C343.548 135.945 345.051 138.439 346.112 141.378C347.172 144.317 347.703 147.968 347.703 152.243C347.703 156.606 346.819 160.703 344.962 164.533C343.106 168.362 340.454 171.657 337.006 174.418C333.558 177.179 329.315 179.405 324.364 181.008C319.414 182.611 313.844 183.413 307.568 183.413C304.739 183.413 302.175 183.324 299.788 183.145C297.401 182.967 295.191 182.7 292.981 182.255C290.771 181.81 288.649 181.364 286.527 180.741C284.406 180.118 282.107 179.405 279.632 178.425C279.897 175.219 280.428 172.013 281.312 168.718C282.196 165.423 283.345 162.306 284.759 159.189C288.649 160.703 292.362 161.861 295.81 162.662C299.258 163.464 302.882 163.82 306.684 163.82C308.363 163.82 310.131 163.642 312.076 163.375C314.021 163.108 315.789 162.573 317.469 161.772C319.148 160.97 320.474 159.991 321.624 158.744C322.773 157.497 323.303 155.894 323.303 153.846C323.303 150.996 322.419 148.948 320.74 147.701C319.06 146.454 316.673 145.385 313.579 144.406L302.617 141.2Z" fill="white"/>
<path d="M355.129 89.3687C357.869 88.7453 360.433 88.3891 362.82 88.3001C365.207 88.211 367.24 88.1219 368.92 88.1219C371.307 88.1219 373.605 88.211 375.815 88.3001C378.025 88.3891 380.147 88.7453 382.18 89.1906L396.855 157.23L413.829 89.1906C417.453 88.4782 421.52 88.1219 425.852 88.1219C428.946 88.211 431.421 88.3891 433.454 88.4782C435.488 88.5672 437.256 88.8344 438.759 89.1906L455.379 155.983L469.877 89.1906C471.91 88.8344 473.767 88.5672 475.535 88.3891C477.303 88.211 479.336 88.1219 481.546 88.1219C483.226 88.1219 485.171 88.211 487.469 88.3001C489.768 88.3891 492.331 88.7453 495.16 89.3687L466.694 181.275C464.573 181.632 462.274 181.899 459.887 181.988C457.5 182.077 455.467 182.166 453.787 182.166C452.019 182.166 450.074 182.077 447.864 181.988C445.654 181.899 443.621 181.543 441.588 181.097L424.968 120.182L407.817 181.275C405.607 181.632 403.22 181.899 400.833 181.988C398.447 182.077 396.413 182.166 394.734 182.166C393.054 182.166 391.198 182.077 388.987 181.988C386.777 181.899 384.744 181.543 382.711 181.097L355.129 89.3687Z" fill="white"/>
<path d="M513.725 108.427H501.879C501.525 106.913 501.26 105.221 501.083 103.529C500.906 101.836 500.818 100.144 500.818 98.6304C500.818 95.4244 501.172 92.3074 501.879 89.1904H538.301V181.275C534.058 181.988 529.903 182.344 525.925 182.344C522.035 182.344 517.968 181.988 513.725 181.275V108.427ZM510.012 73.6945C509.305 69.687 508.951 65.6794 508.951 61.7609C508.951 57.9315 509.305 54.013 510.012 49.8273C512.045 49.4711 514.167 49.2039 516.465 49.0258C518.764 48.8477 520.886 48.7586 522.742 48.7586C524.775 48.7586 526.897 48.8477 529.284 49.0258C531.671 49.2039 533.792 49.4711 535.826 49.8273C536.179 51.8756 536.445 53.8348 536.533 55.7941C536.621 57.7533 536.71 59.7126 536.71 61.7609C536.71 63.6311 536.621 65.5904 536.533 67.6387C536.445 69.687 536.179 71.6462 535.826 73.6945C533.792 74.0507 531.671 74.3179 529.372 74.407C527.074 74.496 524.952 74.5851 522.919 74.5851C521.062 74.5851 518.941 74.496 516.554 74.407C514.255 74.3179 512.045 74.0507 510.012 73.6945Z" fill="white"/>
<path d="M565.529 108.427H554.037L553.153 104.864L586.216 62.295H590.282V89.1902H611.676C612.03 90.9714 612.295 92.5744 612.383 93.9993C612.472 95.4242 612.56 96.9382 612.56 98.4521C612.56 100.144 612.472 101.747 612.383 103.261C612.295 104.775 612.03 106.556 611.676 108.427H590.282V144.584C590.282 148.235 590.548 151.263 591.166 153.489C591.785 155.716 592.581 157.497 593.73 158.833C594.879 160.169 596.205 161.059 597.885 161.504C599.565 161.95 601.51 162.217 603.72 162.217C605.488 162.217 607.256 162.039 608.936 161.772C610.615 161.504 612.118 161.237 613.444 160.97C614.24 163.196 614.859 165.601 615.212 168.006C615.566 170.41 615.743 172.637 615.743 174.507C615.743 175.843 615.743 176.911 615.654 177.802C615.566 178.692 615.478 179.583 615.389 180.384C609.996 181.72 604.339 182.344 598.592 182.344C587.896 182.344 579.674 179.85 574.016 174.774C568.358 169.698 565.529 161.504 565.529 150.105V108.427Z" fill="white"/>
<path d="M692.123 159.545C693.538 161.95 694.687 164.711 695.659 167.828C696.632 170.945 697.074 174.685 697.074 178.96C692.389 180.83 687.968 182.077 683.813 182.611C679.658 183.145 675.415 183.413 670.906 183.413C663.215 183.413 656.585 182.166 650.927 179.761C645.269 177.357 640.584 173.973 636.871 169.698C633.158 165.423 630.329 160.347 628.473 154.469C626.616 148.591 625.644 142.179 625.644 135.322C625.644 128.554 626.528 122.231 628.384 116.442C630.241 110.653 632.981 105.488 636.694 101.124C640.407 96.7603 645.004 93.2871 650.574 90.7935C656.143 88.2999 662.508 87.0531 669.846 87.0531C672.409 87.0531 674.796 87.1422 677.006 87.2312C679.216 87.3203 681.25 87.5874 683.283 87.9437C685.316 88.2999 687.261 88.7452 689.294 89.3686C691.328 89.992 693.538 90.7044 696.013 91.6841C696.013 94.4448 695.659 97.4728 694.952 100.857C694.245 104.241 693.096 107.447 691.593 110.564C688.057 109.406 684.963 108.605 682.311 108.16C679.658 107.714 676.653 107.536 673.205 107.536C665.867 107.536 660.386 109.941 656.674 114.75C652.961 119.559 651.104 126.416 651.104 135.322C651.104 144.94 653.137 151.976 657.116 156.339C661.094 160.703 666.575 162.93 673.382 162.93C675.15 162.93 676.741 162.93 678.244 162.84C679.747 162.751 681.161 162.662 682.576 162.395C683.99 162.128 685.405 161.772 686.908 161.327C688.41 160.881 690.178 160.258 692.123 159.545Z" fill="white"/>
<path d="M714.401 51.0739C716.434 50.7176 718.468 50.4505 720.589 50.3614C722.711 50.2723 724.744 50.1833 726.778 50.1833C728.811 50.1833 730.844 50.2723 732.966 50.3614C735.088 50.4505 737.209 50.7176 739.331 51.0739V100.055C740.127 98.9865 741.276 97.7397 742.602 96.2257C743.928 94.7118 745.608 93.2868 747.641 91.951C749.674 90.6151 752.061 89.4574 754.89 88.4778C757.719 87.4981 760.99 87.0529 764.614 87.0529C774.781 87.0529 782.472 89.9027 787.688 95.6023C792.904 101.302 795.556 110.297 795.556 122.498V181.453C793.434 181.809 791.312 182.077 789.191 182.166C787.069 182.255 785.036 182.344 783.002 182.344C780.969 182.344 778.936 182.255 776.814 182.166C774.692 182.077 772.571 181.809 770.449 181.453V129.266C770.449 122.854 769.477 117.956 767.443 114.482C765.41 111.009 762.051 109.317 757.188 109.317C755.155 109.317 753.122 109.584 751 110.208C748.879 110.831 746.934 111.989 745.254 113.681C743.574 115.373 742.16 117.777 741.011 120.894C739.861 124.011 739.331 128.019 739.331 133.006V181.453C737.209 181.809 735.088 182.077 732.966 182.166C730.844 182.255 728.811 182.344 726.778 182.344C724.744 182.344 722.711 182.255 720.678 182.166C718.645 182.077 716.523 181.809 714.401 181.453V51.0739Z" fill="white"/>
<path d="M856.908 183.413C849.836 183.413 843.647 182.166 838.343 179.761C833.039 177.357 828.619 173.973 825.083 169.698C821.546 165.423 818.894 160.347 817.215 154.558C815.535 148.769 814.651 142.446 814.651 135.678C814.651 128.91 815.535 122.587 817.215 116.798C818.894 111.009 821.546 105.933 825.083 101.658C828.619 97.3836 833.039 93.9995 838.343 91.5059C843.647 89.0123 849.836 87.7655 856.908 87.7655C863.98 87.7655 870.168 89.0123 875.473 91.5059C880.777 93.9995 885.197 97.3836 888.733 101.658C892.269 105.933 894.921 111.009 896.601 116.798C898.281 122.587 899.165 128.91 899.165 135.678C899.165 142.446 898.281 148.769 896.601 154.558C894.921 160.347 892.269 165.423 888.733 169.698C885.197 173.973 880.777 177.357 875.473 179.761C870.168 182.166 863.98 183.413 856.908 183.413ZM856.908 169.342C865.041 169.342 871.052 166.403 874.942 160.436C878.832 154.469 880.777 146.276 880.777 135.678C880.777 125.08 878.832 116.887 874.942 111.009C871.052 105.132 865.041 102.193 856.908 102.193C848.775 102.193 842.763 105.132 838.962 111.009C835.161 116.887 833.216 125.08 833.216 135.678C833.216 146.276 835.161 154.469 838.962 160.436C842.852 166.403 848.775 169.342 856.908 169.342Z" fill="white"/>
<path d="M922.15 89.9029C923.476 89.6357 924.713 89.4576 925.951 89.3685C927.189 89.2795 928.426 89.1904 929.752 89.1904C931.079 89.1904 932.228 89.2795 933.377 89.3685C934.526 89.4576 935.675 89.6357 937.002 89.9029C937.355 91.684 937.709 94.0885 938.062 97.1165C938.416 100.144 938.593 102.638 938.593 104.686C939.742 102.638 941.245 100.679 943.101 98.6304C944.958 96.5821 946.991 94.801 949.378 93.198C951.765 91.5949 954.417 90.2591 957.511 89.2795C960.605 88.2998 963.965 87.7655 967.589 87.7655C977.932 87.7655 985.624 90.7934 990.574 96.7602C995.525 102.727 998 111.633 998 123.388V181.275C996.674 181.542 995.26 181.72 993.58 181.81C991.9 181.899 990.486 181.988 989.16 181.988C987.834 181.988 986.419 181.899 984.828 181.81C983.237 181.72 981.822 181.542 980.496 181.275V128.197C980.496 119.737 979.17 113.592 976.606 109.584C974.043 105.577 969.888 103.618 964.23 103.618C960.959 103.618 957.776 104.241 954.859 105.399C951.942 106.557 949.29 108.427 947.08 110.92C944.869 113.414 943.013 116.62 941.687 120.627C940.361 124.635 939.654 129.355 939.654 134.966V181.275C938.328 181.542 936.913 181.72 935.322 181.81C933.731 181.899 932.316 181.988 930.99 181.988C929.664 181.988 928.25 181.899 926.57 181.81C924.89 181.72 923.476 181.542 922.15 181.275V89.9029Z" fill="white"/>
<path d="M67.1867 30.1454C70.8485 30.1454 73.817 27.155 73.817 23.4661C73.817 19.7773 70.8485 16.7869 67.1867 16.7869C63.525 16.7869 60.5565 19.7773 60.5565 23.4661C60.5565 27.155 63.525 30.1454 67.1867 30.1454Z" fill="white"/>
<path d="M22.8082 74.8524C26.47 74.8524 29.4384 71.8619 29.4384 68.173C29.4384 64.4841 26.47 61.4937 22.8082 61.4937C19.1464 61.4937 16.1779 64.4841 16.1779 68.173C16.1779 71.8619 19.1464 74.8524 22.8082 74.8524Z" fill="white"/>
<path d="M6.63031 135.767C10.2921 135.767 13.2606 132.777 13.2606 129.088C13.2606 125.399 10.2921 122.408 6.63031 122.408C2.96849 122.408 0 125.399 0 129.088C0 132.777 2.96849 135.767 6.63031 135.767Z" fill="white"/>
<path d="M68.2476 241.21C71.9094 241.21 74.8779 238.22 74.8779 234.531C74.8779 230.842 71.9094 227.852 68.2476 227.852C64.5858 227.852 61.6173 230.842 61.6173 234.531C61.6173 238.22 64.5858 241.21 68.2476 241.21Z" fill="white"/>
<path d="M128.539 257.063C132.201 257.063 135.169 254.072 135.169 250.383C135.169 246.694 132.201 243.704 128.539 243.704C124.877 243.704 121.909 246.694 121.909 250.383C121.909 254.072 124.877 257.063 128.539 257.063Z" fill="white"/>
<path d="M188.565 240.32C192.227 240.32 195.195 237.33 195.195 233.641C195.195 229.952 192.227 226.961 188.565 226.961C184.903 226.961 181.935 229.952 181.935 233.641C181.935 237.33 184.903 240.32 188.565 240.32Z" fill="white"/>
<path d="M247.353 135.054C251.015 135.054 253.984 132.064 253.984 128.375C253.984 124.686 251.015 121.696 247.353 121.696C243.692 121.696 240.723 124.686 240.723 128.375C240.723 132.064 243.692 135.054 247.353 135.054Z" fill="white"/>
<path d="M230.999 74.8524C234.661 74.8524 237.629 71.8619 237.629 68.173C237.629 64.4841 234.661 61.4937 230.999 61.4937C227.337 61.4937 224.368 64.4841 224.368 68.173C224.368 71.8619 227.337 74.8524 230.999 74.8524Z" fill="white"/>
<path d="M193.24 26.1771C194.283 22.641 192.283 18.9224 188.773 17.8714C185.263 16.8205 181.572 18.8351 180.528 22.3713C179.485 25.9074 181.485 29.626 184.995 30.677C188.505 31.7279 192.197 29.7133 193.24 26.1771Z" fill="white"/>
<path d="M189.331 23.4748L4.87695 128.738L6.35847 131.373L190.813 26.1095L189.331 23.4748Z" fill="white"/>
<path d="M249.797 128.329L65.3426 233.592L66.8241 236.226L251.278 130.963L249.797 128.329Z" fill="white"/>
<path d="M250.476 126.388L186.416 21.8015L184.008 23.298L248.069 127.885L250.476 126.388Z" fill="white"/>
<path d="M69.653 233.845L5.5923 129.259L3.18489 130.755L67.2456 235.342L69.653 233.845Z" fill="white"/>
<path d="M233.644 66.0567L21.6524 67.2627L21.6694 70.2907L233.661 69.0847L233.644 66.0567Z" fill="white"/>
<path d="M22.8649 190.684L23.2664 67.7854L20.4375 67.776L20.036 190.674L22.8649 190.684Z" fill="white"/>
<path d="M233.382 190.218L233.784 67.3198L230.955 67.3104L230.553 190.209L233.382 190.218Z" fill="white"/>
<path d="M250.063 131.005L68.195 21.2573L66.6503 23.8549L248.518 133.603L250.063 131.005Z" fill="white"/>
<path d="M189.594 235.863L7.72646 126.115L6.18181 128.713L188.05 238.46L189.594 235.863Z" fill="white"/>
<path d="M6.43944 128.809L68.9752 23.2764L66.546 21.8156L4.01025 127.348L6.43944 128.809Z" fill="white"/>
<path d="M189.309 235.747L251.845 130.214L249.416 128.753L186.88 234.286L189.309 235.747Z" fill="white"/>
<path d="M132.393 251.9L24.2767 68.1971L21.6912 69.7414L129.807 253.444L132.393 251.9Z" fill="white"/>
<path d="M22.4092 69.0157L127.888 7.27148L126.467 4.80753L20.988 66.5517L22.4092 69.0157Z" fill="white"/>
<path d="M128.072 250.991L233.55 189.247L232.129 186.783L126.651 248.527L128.072 250.991Z" fill="white"/>
<path d="M193.105 235.968L188.942 22.452L185.937 22.5114L190.1 236.027L193.105 235.968Z" fill="white"/>
<path d="M71.8562 238.455L67.6929 24.9398L64.6878 24.9992L68.8511 238.515L71.8562 238.455Z" fill="white"/>
<path d="M66.742 25.4407L188.702 22.2689L188.629 19.4199L66.669 22.5917L66.742 25.4407Z" fill="white"/>
<path d="M69.0744 238.422L191.035 235.25L190.962 232.401L69.0014 235.573L69.0744 238.422Z" fill="white"/>
<path d="M128.389 255.823L232.222 69.6431L229.602 68.16L125.768 254.34L128.389 255.823Z" fill="white"/>
<path d="M24.255 192.135L128.089 5.95471L125.468 4.47163L21.6346 190.652L24.255 192.135Z" fill="#4FBA6F"/>
<path d="M232.254 68.6204L129.276 2.72211L127.759 5.12764L230.737 71.0259L232.254 68.6204Z" fill="white"/>
<path d="M127.574 251.969L23.6446 187.608L22.1631 190.035L126.092 254.397L127.574 251.969Z" fill="white"/>
<path d="M127.655 13.8483C131.317 13.8483 134.285 10.8579 134.285 7.16902C134.285 3.48016 131.317 0.489746 127.655 0.489746C123.993 0.489746 121.024 3.48016 121.024 7.16902C121.024 10.8579 123.993 13.8483 127.655 13.8483Z" fill="#4FBA6F"/>
<path d="M23.427 196.682C27.0888 196.682 30.0573 193.692 30.0573 190.003C30.0573 186.314 27.0888 183.324 23.427 183.324C19.7652 183.324 16.7967 186.314 16.7967 190.003C16.7967 193.692 19.7652 196.682 23.427 196.682Z" fill="#4FBA6F"/>
<path d="M233.644 187.889L21.6524 189.095L21.6694 192.123L233.661 190.917L233.644 187.889Z" fill="#4FBA6F"/>
<path d="M232.325 195.702C235.987 195.702 238.955 192.712 238.955 189.023C238.955 185.334 235.987 182.344 232.325 182.344C228.663 182.344 225.695 185.334 225.695 189.023C225.695 192.712 228.663 195.702 232.325 195.702Z" fill="#4FBA6F"/>
<path d="M237.283 190.863L129.168 7.16016L126.582 8.7044L234.698 192.407L237.283 190.863Z" fill="#4FBA6F"/>
</svg>
