<?xml version="1.0" encoding="UTF-8"?>
<svg version="1.1" xmlns="http://www.w3.org/2000/svg" width="245" height="228">
<path d="M0 0 C3.81930363 4.25579547 5.1875 8.36605551 5.1875 14.0625 C3.9037324 18.39521564 2.41760728 20.28251149 -0.8125 23.4375 C-2.1325 23.7675 -3.4525 24.0975 -4.8125 24.4375 C-4.8125 31.6975 -4.8125 38.9575 -4.8125 46.4375 C-2.1725 46.4375 0.4675 46.4375 3.1875 46.4375 C3.14109375 45.62667969 3.0946875 44.81585938 3.046875 43.98046875 C2.72275754 34.03700799 4.01407241 25.92642165 10.4375 18.0625 C17.42322942 10.77823514 25.34776387 7.30866604 35.39239502 7.08265686 C36.13431091 7.07729416 36.87622681 7.07193146 37.640625 7.06640625 C38.42266296 7.05737778 39.20470093 7.0483493 40.01043701 7.03904724 C41.6507997 7.02462987 43.29121879 7.01567937 44.93164062 7.01196289 C47.44497331 6.99996432 49.95592682 6.95061769 52.46875 6.90039062 C54.06769642 6.89093621 55.6666578 6.88369649 57.265625 6.87890625 C58.01563782 6.85937393 58.76565063 6.83984161 59.53839111 6.81971741 C61.65332031 6.83813477 61.65332031 6.83813477 65.1875 7.4375 C67.18261719 9.97241211 67.18261719 9.97241211 68.1875 12.4375 C67.20776367 14.40820312 67.20776367 14.40820312 65.1875 16.4375 C62.29042177 16.81503918 59.75890862 16.94770752 56.86328125 16.90625 C56.04304977 16.91329956 55.2228183 16.92034912 54.37773132 16.9276123 C50.87218041 16.95707159 47.36718465 16.94054923 43.86157227 16.92822266 C41.29931071 16.92582555 38.73793268 16.94685702 36.17578125 16.96875 C35.39527908 16.95743042 34.61477692 16.94611084 33.81062317 16.93444824 C28.20539167 16.98529378 23.84458355 18.24390078 19.1875 21.4375 C11.61542637 29.33470934 11.87878598 39.15559534 11.88671875 49.51171875 C11.88029106 51.37471367 11.88029106 51.37471367 11.87373352 53.27534485 C11.86655159 56.55642937 11.86959494 59.8373285 11.87530518 63.1184082 C11.87499955 65.12796197 11.86493074 67.13722346 11.85131836 69.14672852 C11.82685686 73.01853247 11.82266108 76.88984727 11.82421875 80.76171875 C11.815009 81.95762131 11.80579926 83.15352386 11.79631042 84.38566589 C11.80565361 86.0581414 11.80565361 86.0581414 11.81518555 87.7644043 C11.81455612 88.74177048 11.8139267 89.71913666 11.8132782 90.72612 C12.28926032 94.17479243 12.79206912 95.86599131 15.1875 98.4375 C18.33895198 98.93850056 20.95422898 99.10119865 24.109375 99.05273438 C25.47805725 99.06105789 25.47805725 99.06105789 26.87438965 99.06954956 C29.89595762 99.08137783 32.91603652 99.05703843 35.9375 99.03125 C38.03352795 99.0295397 40.12955804 99.02960376 42.22558594 99.03137207 C46.62065056 99.02971702 51.01520624 99.01098466 55.41015625 98.97949219 C61.04972488 98.93981417 66.68862639 98.93544578 72.32830811 98.94295502 C76.65712621 98.94602151 80.98579372 98.93391559 85.3145752 98.91682434 C87.39423681 98.90978253 89.4739155 98.90667123 91.55358887 98.90751648 C94.45791591 98.90572293 97.36143694 98.88437899 100.265625 98.85742188 C101.12909546 98.86035248 101.99256592 98.86328308 102.88220215 98.86630249 C107.20028363 98.94099495 107.20028363 98.94099495 110.90774441 97.04607487 C112.61957651 94.89440614 112.57129191 93.54544395 112.58813477 90.81420898 C112.60147354 89.87991562 112.61481232 88.94562225 112.6285553 87.98301697 C112.62867111 86.97670731 112.62878693 85.97039764 112.62890625 84.93359375 C112.64211411 83.89936783 112.65532196 82.86514191 112.66893005 81.79957581 C112.70988939 78.49135643 112.73151991 75.18341595 112.75 71.875 C112.77374725 68.56309786 112.80179708 65.25146003 112.84178162 61.93971252 C112.86623163 59.87758089 112.88101436 57.81530843 112.88539124 55.7530365 C112.89557785 54.82189529 112.90576447 53.89075409 112.91625977 52.93139648 C112.92053482 52.10993637 112.92480988 51.28847626 112.92921448 50.44212341 C113.1875 48.4375 113.1875 48.4375 115.1875 46.4375 C117.84111219 46.18421404 120.34544663 46.06722761 123 46.0625 C123.71220703 46.03800781 124.42441406 46.01351562 125.15820312 45.98828125 C128.70323762 45.96860483 130.98095975 46.31955685 134.07421875 48.0859375 C138.98583322 53.55135692 138.524271 59.97657644 138.5 66.9375 C138.51611328 67.86175781 138.53222656 68.78601563 138.54882812 69.73828125 C138.55261876 75.03758606 138.24951945 78.90542437 135.1875 83.4375 C131.76655758 85.71812828 130.50562778 85.65675007 126.5 85.5625 C125.50613281 85.54445313 124.51226562 85.52640625 123.48828125 85.5078125 C122.72902344 85.48460937 121.96976563 85.46140625 121.1875 85.4375 C121.22230469 86.24574219 121.25710937 87.05398437 121.29296875 87.88671875 C121.32003906 88.95535156 121.34710938 90.02398437 121.375 91.125 C121.40980469 92.18074219 121.44460937 93.23648438 121.48046875 94.32421875 C121.01876312 99.23061057 118.87902541 101.7298926 115.5 105.1875 C111.94045508 108.04768849 108.66516291 108.20589675 104.1875 108.4375 C104.69539063 108.82679688 105.20328125 109.21609375 105.7265625 109.6171875 C114.14754114 116.46120385 119.90865058 125.53498574 121.1875 136.4375 C121.34378826 139.68886679 121.37252303 142.93276469 121.375 146.1875 C121.38724609 147.04988281 121.39949219 147.91226563 121.41210938 148.80078125 C121.41404297 149.62449219 121.41597656 150.44820312 121.41796875 151.296875 C121.42207764 152.04420898 121.42618652 152.79154297 121.43041992 153.56152344 C121.1875 155.4375 121.1875 155.4375 119.1875 157.4375 C117.16661072 157.69197559 117.16661072 157.69197559 114.63256836 157.69819641 C113.67349579 157.70528122 112.71442322 157.71236603 111.72628784 157.71966553 C110.67063629 157.71718811 109.61498474 157.71471069 108.52734375 157.7121582 C106.86386398 157.7198246 106.86386398 157.7198246 105.16677856 157.72764587 C101.48613144 157.74159241 97.80567047 157.74058143 94.125 157.73828125 C91.57674082 157.7421651 89.02848229 157.74649912 86.48022461 157.75126648 C81.13360226 157.75873939 75.78704881 157.75856695 70.44042969 157.75317383 C64.25441363 157.74713012 58.0686248 157.75945316 51.88264751 157.7807439 C45.93779507 157.8004547 39.99301334 157.80353723 34.04812622 157.80000877 C31.51546698 157.80052387 28.98280425 157.80579671 26.45016479 157.81582069 C22.9158147 157.82809264 19.38199718 157.82144913 15.84765625 157.80981445 C14.7920047 157.81745819 13.73635315 157.82510193 12.64871216 157.83297729 C11.68963959 157.82596298 10.73056702 157.81894867 9.74243164 157.8117218 C8.90619766 157.81188954 8.06996368 157.81205729 7.20838928 157.81223011 C6.54149582 157.68856917 5.87460236 157.56490824 5.1875 157.4375 C1.21183768 151.47400652 2.72343557 142.04032748 3.6171875 135.1015625 C5.92547972 124.24403983 11.98844 115.73939842 20.1875 108.4375 C19.59582031 108.33953125 19.00414062 108.2415625 18.39453125 108.140625 C13.37620677 107.190991 9.76131077 106.32664701 6.1875 102.4375 C3.3112818 97.198674 2.57688784 92.3588806 2.1875 86.4375 C1.59582031 86.41171875 1.00414063 86.3859375 0.39453125 86.359375 C-4.86231899 85.98204807 -7.98998357 85.37947007 -11.8125 81.4375 C-13.09816729 78.86616541 -12.93259778 77.040329 -12.92602539 74.16162109 C-12.92594986 73.0606308 -12.92587433 71.9596405 -12.92579651 70.82528687 C-12.92063522 69.63255157 -12.91547394 68.43981628 -12.91015625 67.2109375 C-12.9087413 65.99298492 -12.90732635 64.77503235 -12.90586853 63.52017212 C-12.90025639 59.6175901 -12.88770179 55.71506477 -12.875 51.8125 C-12.86998657 49.17187583 -12.86542339 46.53125076 -12.86132812 43.890625 C-12.85028301 37.40623055 -12.83353302 30.92186932 -12.8125 24.4375 C-13.60140625 24.13714844 -14.3903125 23.83679688 -15.203125 23.52734375 C-17.80312927 22.44141382 -19.07274711 21.61219112 -20.8125 19.4375 C-22.67918041 13.83745877 -22.69805522 8.38572149 -20.25 3 C-14.34882718 -3.20379706 -7.41526079 -4.11958933 0 0 Z M-11.9375 6.5625 C-14.09827545 8.36000157 -14.09827545 8.36000157 -14.3125 11.4375 C-14.06768311 14.48028274 -14.06768311 14.48028274 -12.125 16.4375 C-9.79012257 17.73494738 -9.79012257 17.73494738 -7.125 16.6875 C-4.91494853 15.6352169 -4.91494853 15.6352169 -3.8125 14.4375 C-3.39547878 11.5217309 -3.39547878 11.5217309 -3.8125 8.4375 C-6.63922086 5.61077914 -8.28340943 4.62798146 -11.9375 6.5625 Z M-2.8125 54.4375 C-4.9998988 56.21232776 -4.9998988 56.21232776 -5.05541992 58.48461914 C-5.05131104 59.30567139 -5.04720215 60.12672363 -5.04296875 60.97265625 C-5.04103516 61.86404297 -5.03910156 62.75542969 -5.03710938 63.67382812 C-5.02486328 64.60646484 -5.01261719 65.53910156 -5 66.5 C-4.99935547 67.43650391 -4.99871094 68.37300781 -4.99804688 69.33789062 C-5.37019467 73.72186532 -5.37019467 73.72186532 -3.8125 77.4375 C-1.5025 77.4375 0.8075 77.4375 3.1875 77.4375 C3.1875 69.8475 3.1875 62.2575 3.1875 54.4375 C1.2075 54.4375 -0.7725 54.4375 -2.8125 54.4375 Z M121.1875 54.4375 C121.1875 62.0275 121.1875 69.6175 121.1875 77.4375 C123.8275 77.4375 126.4675 77.4375 129.1875 77.4375 C129.21637512 73.79168313 129.23425585 70.14589537 129.25 66.5 C129.25837891 65.45908203 129.26675781 64.41816406 129.27539062 63.34570312 C129.27861328 62.35634766 129.28183594 61.36699219 129.28515625 60.34765625 C129.29039307 59.43121338 129.29562988 58.51477051 129.30102539 57.57055664 C129.42671211 55.45386977 129.42671211 55.45386977 128.1875 54.4375 C125.8775 54.4375 123.5675 54.4375 121.1875 54.4375 Z M36.1875 109.4375 C36.785625 110.51 37.38375 111.5825 38 112.6875 C38.33644531 113.29078125 38.67289063 113.8940625 39.01953125 114.515625 C39.40496094 115.14984375 39.79039063 115.7840625 40.1875 116.4375 C40.5491626 117.12183105 40.9108252 117.80616211 41.28344727 118.51123047 C44.09267348 121.35323519 47.03001243 121.12337157 50.8203125 121.1796875 C51.94722 121.20677292 51.94722 121.20677292 53.09689331 121.23440552 C54.68878259 121.26341494 56.28091044 121.28118537 57.87304688 121.28857422 C60.28677014 121.31224765 62.69002362 121.41037282 65.1015625 121.51171875 C73.72982956 121.76279444 73.72982956 121.76279444 81.31152344 118.14941406 C83.5364949 115.68041909 85.43515152 113.25721703 87.1875 110.4375 C82.50464965 105.75464965 73.38082181 107.27501748 67.08984375 107.25195312 C66.40647949 107.25203369 65.72311523 107.25211426 65.01904297 107.25219727 C62.95649273 107.25002005 60.8944866 107.23184611 58.83203125 107.21289062 C51.08050211 107.18107621 43.75321996 107.67768243 36.1875 109.4375 Z M95.1875 112.4375 C94.26080032 113.4183452 93.37185951 114.4349454 92.5 115.46484375 C91.96632813 116.09197266 91.43265625 116.71910156 90.8828125 117.36523438 C90.32335937 118.02845703 89.76390625 118.69167969 89.1875 119.375 C88.0836086 120.67601486 86.97945533 121.97680758 85.875 123.27734375 C85.13830078 124.14927368 85.13830078 124.14927368 84.38671875 125.03881836 C83.1875 126.4375 83.1875 126.4375 82.1875 127.4375 C76.31305534 127.80367694 70.43684397 127.88006086 64.55224609 127.95239258 C62.56949814 127.983965 60.58693708 128.03164902 58.60498047 128.09594727 C55.7437452 128.18752784 52.88592024 128.2260645 50.0234375 128.25390625 C49.14400482 128.29205948 48.26457214 128.33021271 47.35848999 128.36952209 C43.51699882 128.35748321 41.13595766 128.21842323 38.10650635 125.72409058 C36.31111446 123.70209781 34.72240052 121.66206099 33.1875 119.4375 C32.75488861 118.82560318 32.32227722 118.21370636 31.8765564 117.58326721 C30.94614396 116.2240434 30.06049637 114.83429419 29.1875 113.4375 C23.52154374 114.81106515 20.39183168 118.84316143 17.1875 123.4375 C12.26503463 132.17172061 11.92954608 139.04885484 11.1875 149.4375 C44.8475 149.4375 78.5075 149.4375 113.1875 149.4375 C113.1875 136.81050566 112.67697864 128.58727142 104.1875 119.4375 C100.1797449 114.93113007 100.1797449 114.93113007 95.1875 112.4375 Z " fill="#0C99B3" transform="translate(55.8125,52.5625)"/>
<path d="M0 0 C0.7514328 -0.0065712 1.5028656 -0.0131424 2.27706909 -0.01991272 C4.76967464 -0.03966028 7.26221986 -0.05131247 9.75488281 -0.0612793 C10.60609962 -0.06535482 11.45731644 -0.06943035 12.3343277 -0.07362938 C16.84104673 -0.0944979 21.34773527 -0.10879533 25.85449219 -0.11816406 C30.50622184 -0.12922077 35.1574721 -0.16360966 39.80903244 -0.20333576 C43.38817219 -0.22950395 46.96719787 -0.23785614 50.54642487 -0.24144554 C52.26080812 -0.24631222 53.97518626 -0.2579286 55.68947601 -0.27648354 C58.09284707 -0.30087652 60.4949801 -0.29990999 62.8984375 -0.29296875 C63.60308136 -0.30577881 64.30772522 -0.31858887 65.03372192 -0.33178711 C70.03366821 -0.27931511 72.93930918 0.91392375 76.70800781 4.17700195 C78.69276467 7.69084707 78.96331698 10.72080863 78.98266602 14.71411133 C78.99219803 15.79873657 79.00173004 16.88336182 79.0115509 18.00085449 C79.0106395 19.16242065 79.00972809 20.32398682 79.00878906 21.52075195 C79.01307419 22.72260132 79.01735931 23.92445068 79.02177429 25.16271973 C79.02751165 27.70116547 79.02802224 30.23962765 79.02368164 32.77807617 C79.0205195 36.66263818 79.0439971 40.54644019 79.06933594 44.4309082 C79.07160874 46.89835516 79.07231251 49.36580416 79.07128906 51.83325195 C79.08049881 52.99481812 79.08970856 54.15638428 79.09919739 55.35314941 C79.0929686 56.43777466 79.08673981 57.5223999 79.08032227 58.63989258 C79.08095169 59.59077759 79.08158112 60.5416626 79.08222961 61.5213623 C78.46255131 65.9188674 76.09416753 69.35520219 72.70800781 72.17700195 C69.43071988 73.26943126 66.72060776 73.19183543 63.29800415 73.08366394 C59.61624552 72.96751939 55.93477055 72.94384703 52.25146484 72.91064453 C50.32321426 72.88015772 48.39517514 72.82653787 46.46826172 72.74853516 C34.1680976 72.00709306 34.1680976 72.00709306 23.6328125 77.38256836 C21.29423492 79.83595876 19.27966919 82.42892573 17.27978516 85.16064453 C14.70800781 88.17700195 14.70800781 88.17700195 11.99169922 88.796875 C9.70800781 88.17700195 9.70800781 88.17700195 7.70800781 85.17700195 C7.51269531 82.2590332 7.51269531 82.2590332 7.58300781 78.98950195 C7.60105469 77.90282227 7.61910156 76.81614258 7.63769531 75.6965332 C7.66089844 74.86508789 7.68410156 74.03364258 7.70800781 73.17700195 C6.27908203 73.22920898 6.27908203 73.22920898 4.82128906 73.2824707 C3.56703125 73.30954102 2.31277344 73.33661133 1.02050781 73.36450195 C-0.84154297 73.41670898 -0.84154297 73.41670898 -2.74121094 73.4699707 C-7.22845421 73.09973611 -9.42663004 71.60905381 -12.90515137 68.93856812 C-14.89979083 66.40497571 -14.68654814 64.51557581 -14.71191406 61.31616211 C-14.72782593 60.11126129 -14.74373779 58.90636047 -14.76013184 57.66494751 C-14.76033325 56.3618161 -14.76053467 55.05868469 -14.76074219 53.71606445 C-14.76784414 52.36469201 -14.77554319 51.01332258 -14.78381348 49.66195679 C-14.7972622 46.828996 -14.798826 43.99631386 -14.79296875 41.16333008 C-14.78707862 37.53917255 -14.81763067 33.91635749 -14.85808563 30.29245949 C-14.88398592 27.50079186 -14.88683795 24.70944623 -14.88319397 21.91767502 C-14.88570365 19.93402502 -14.91039184 17.95044309 -14.9354248 15.96694946 C-14.85850725 5.95526417 -14.85850725 5.95526417 -11.87988281 2.8815918 C-7.74529147 0.15822229 -4.84312057 0.01827128 0 0 Z M7.70800781 18.17700195 C7.04800781 19.49700195 6.38800781 20.81700195 5.70800781 22.17700195 C7.48885437 24.37257379 7.48885437 24.37257379 9.80874634 24.41751099 C11.10780411 24.41084915 11.10780411 24.41084915 12.43310547 24.40405273 C13.90440414 24.40382614 13.90440414 24.40382614 15.40542603 24.40359497 C16.46691864 24.3932724 17.52841125 24.38294983 18.62207031 24.37231445 C19.70684662 24.36948456 20.79162292 24.36665466 21.90927124 24.36373901 C25.38396094 24.35251773 28.85839563 24.32740958 32.33300781 24.30200195 C34.6845666 24.29197467 37.03612941 24.28284839 39.38769531 24.2746582 C45.16122025 24.25257206 50.93459582 24.2190754 56.70800781 24.17700195 C57.03800781 22.52700195 57.36800781 20.87700195 57.70800781 19.17700195 C55.290262 17.96812905 53.77469717 18.05640853 51.07470703 18.06347656 C50.113862 18.06355209 49.15301697 18.06362762 48.16305542 18.06370544 C46.60362717 18.07144737 46.60362717 18.07144737 45.01269531 18.0793457 C43.95011505 18.08076065 42.88753479 18.0821756 41.79275513 18.08363342 C38.38947772 18.08924362 34.98626543 18.10179786 31.58300781 18.11450195 C29.27962334 18.11951564 26.97623785 18.12407877 24.67285156 18.12817383 C19.01788132 18.13921636 13.36294922 18.15596444 7.70800781 18.17700195 Z M6.70800781 33.17700195 C6.11730767 35.1230347 6.11730767 35.1230347 5.70800781 37.17700195 C6.71102092 38.40128237 6.71102092 38.40128237 8.72645569 38.29725647 C10.05549171 38.29392555 10.05549171 38.29392555 11.41137695 38.29052734 C12.91282005 38.29041405 12.91282005 38.29041405 14.44459534 38.29029846 C15.53312302 38.28513718 16.6216507 38.27997589 17.74316406 38.2746582 C18.85155136 38.27324326 19.95993866 38.27182831 21.10191345 38.27037048 C24.6581385 38.26475229 28.21430164 38.2521967 31.77050781 38.23950195 C34.17480378 38.2344893 36.57910073 38.22992599 38.98339844 38.22583008 C44.89162285 38.21477695 50.79981091 38.19802112 56.70800781 38.17700195 C57.29870795 36.23096921 57.29870795 36.23096921 57.70800781 34.17700195 C56.70499471 32.95272154 56.70499471 32.95272154 54.68955994 33.05674744 C53.36052391 33.06007835 53.36052391 33.06007835 52.00463867 33.06347656 C50.50319557 33.06358986 50.50319557 33.06358986 48.97142029 33.06370544 C47.88289261 33.06886673 46.79436493 33.07402802 45.67285156 33.0793457 C44.01027061 33.08146812 44.01027061 33.08146812 42.31410217 33.08363342 C38.75787712 33.08925162 35.20171398 33.1018072 31.64550781 33.11450195 C29.24121184 33.11951461 26.83691489 33.12407792 24.43261719 33.12817383 C18.52439277 33.13922696 12.61620471 33.15598279 6.70800781 33.17700195 Z M6.70800781 48.17700195 C6.37800781 49.16700195 6.04800781 50.15700195 5.70800781 51.17700195 C6.03800781 51.83700195 6.36800781 52.49700195 6.70800781 53.17700195 C15.61800781 53.17700195 24.52800781 53.17700195 33.70800781 53.17700195 C34.03800781 51.85700195 34.36800781 50.53700195 34.70800781 49.17700195 C33.63771652 47.88154747 33.63771652 47.88154747 31.1159668 48.06347656 C29.99005127 48.06871338 28.86413574 48.0739502 27.70410156 48.0793457 C25.88168945 48.08417969 25.88168945 48.08417969 24.02246094 48.08911133 C22.74306641 48.09749023 21.46367187 48.10586914 20.14550781 48.11450195 C18.22061523 48.12126953 18.22061523 48.12126953 16.25683594 48.12817383 C13.07384759 48.1400065 9.89095019 48.15649127 6.70800781 48.17700195 Z " fill="#129DB6" transform="translate(145.2919921875,17.822998046875)"/>
<path d="M0 0 C3.81930363 4.25579547 5.1875 8.36605551 5.1875 14.0625 C3.9037324 18.39521564 2.41760728 20.28251149 -0.8125 23.4375 C-2.1325 23.7675 -3.4525 24.0975 -4.8125 24.4375 C-4.8125 31.6975 -4.8125 38.9575 -4.8125 46.4375 C-2.1725 46.4375 0.4675 46.4375 3.1875 46.4375 C3.14109375 45.62667969 3.0946875 44.81585938 3.046875 43.98046875 C2.72275754 34.03700799 4.01407241 25.92642165 10.4375 18.0625 C17.42322942 10.77823514 25.34776387 7.30866604 35.39239502 7.08265686 C36.13431091 7.07729416 36.87622681 7.07193146 37.640625 7.06640625 C38.42266296 7.05737778 39.20470093 7.0483493 40.01043701 7.03904724 C41.6507997 7.02462987 43.29121879 7.01567937 44.93164062 7.01196289 C47.44497331 6.99996432 49.95592682 6.95061769 52.46875 6.90039062 C54.06769642 6.89093621 55.6666578 6.88369649 57.265625 6.87890625 C58.01563782 6.85937393 58.76565063 6.83984161 59.53839111 6.81971741 C61.65332031 6.83813477 61.65332031 6.83813477 65.1875 7.4375 C67.18261719 9.97241211 67.18261719 9.97241211 68.1875 12.4375 C67.20776367 14.40820312 67.20776367 14.40820312 65.1875 16.4375 C62.29042177 16.81503918 59.75890862 16.94770752 56.86328125 16.90625 C56.04304977 16.91329956 55.2228183 16.92034912 54.37773132 16.9276123 C50.87218041 16.95707159 47.36718465 16.94054923 43.86157227 16.92822266 C41.29931071 16.92582555 38.73793268 16.94685702 36.17578125 16.96875 C35.39527908 16.95743042 34.61477692 16.94611084 33.81062317 16.93444824 C28.20539167 16.98529378 23.84458355 18.24390078 19.1875 21.4375 C11.62418231 29.32557743 11.87877351 39.13151428 11.88671875 49.4765625 C11.88029106 51.33599991 11.88029106 51.33599991 11.87373352 53.23300171 C11.86800992 55.84347932 11.86747537 58.45397287 11.87182617 61.06445312 C11.87394529 63.73388684 11.86946097 66.40204671 11.85131836 69.07128906 C11.82682703 72.93568745 11.82266229 76.79959621 11.82421875 80.6640625 C11.815009 81.85480377 11.80579926 83.04554504 11.79631042 84.27236938 C11.82902782 90.12854508 11.87622437 94.50259938 15.1875 99.4375 C13.5375 98.7775 11.8875 98.1175 10.1875 97.4375 C9.8575 75.9875 9.5275 54.5375 9.1875 32.4375 C8.5275 32.1075 7.8675 31.7775 7.1875 31.4375 C5.7067152 34.3990696 5.83435963 37.27256295 5.625 40.5625 C5.54121094 41.84382813 5.45742188 43.12515625 5.37109375 44.4453125 C5.28021484 45.92644531 5.28021484 45.92644531 5.1875 47.4375 C2.2175 47.9325 2.2175 47.9325 -0.8125 48.4375 C-0.4825 49.4275 -0.1525 50.4175 0.1875 51.4375 C2.4975 51.4375 4.8075 51.4375 7.1875 51.4375 C7.1875 52.4275 7.1875 53.4175 7.1875 54.4375 C6.8575 54.4375 6.5275 54.4375 6.1875 54.4375 C6.16244385 55.15929443 6.1373877 55.88108887 6.11157227 56.62475586 C5.99598698 59.875035 5.87309226 63.12499688 5.75 66.375 C5.71068359 67.51130859 5.67136719 68.64761719 5.63085938 69.81835938 C5.58896484 70.89794922 5.54707031 71.97753906 5.50390625 73.08984375 C5.46724854 74.09007568 5.43059082 75.09030762 5.39282227 76.12084961 C5.1875 78.4375 5.1875 78.4375 4.1875 79.4375 C1.85932036 79.80510731 -0.4743385 80.13991581 -2.8125 80.4375 C-3.1425 81.4275 -3.4725 82.4175 -3.8125 83.4375 C-1.1725 83.7675 1.4675 84.0975 4.1875 84.4375 C4.71780068 86.87328787 5.23702312 89.31055975 5.75 91.75 C5.90146484 92.44029297 6.05292969 93.13058594 6.20898438 93.84179688 C6.90511569 97.19294066 7.28905309 99.13284072 6.1875 102.4375 C3.55874595 97.06569824 2.5791035 92.39257399 2.1875 86.4375 C1.59582031 86.41171875 1.00414063 86.3859375 0.39453125 86.359375 C-4.86231899 85.98204807 -7.98998357 85.37947007 -11.8125 81.4375 C-13.09816729 78.86616541 -12.93259778 77.040329 -12.92602539 74.16162109 C-12.92594986 73.0606308 -12.92587433 71.9596405 -12.92579651 70.82528687 C-12.92063522 69.63255157 -12.91547394 68.43981628 -12.91015625 67.2109375 C-12.9087413 65.99298492 -12.90732635 64.77503235 -12.90586853 63.52017212 C-12.90025639 59.6175901 -12.88770179 55.71506477 -12.875 51.8125 C-12.86998657 49.17187583 -12.86542339 46.53125076 -12.86132812 43.890625 C-12.85028301 37.40623055 -12.83353302 30.92186932 -12.8125 24.4375 C-13.60140625 24.13714844 -14.3903125 23.83679688 -15.203125 23.52734375 C-17.80312927 22.44141382 -19.07274711 21.61219112 -20.8125 19.4375 C-22.67918041 13.83745877 -22.69805522 8.38572149 -20.25 3 C-14.34882718 -3.20379706 -7.41526079 -4.11958933 0 0 Z M-11.9375 6.5625 C-14.09827545 8.36000157 -14.09827545 8.36000157 -14.3125 11.4375 C-14.06768311 14.48028274 -14.06768311 14.48028274 -12.125 16.4375 C-9.79012257 17.73494738 -9.79012257 17.73494738 -7.125 16.6875 C-4.91494853 15.6352169 -4.91494853 15.6352169 -3.8125 14.4375 C-3.39547878 11.5217309 -3.39547878 11.5217309 -3.8125 8.4375 C-6.63922086 5.61077914 -8.28340943 4.62798146 -11.9375 6.5625 Z M-2.8125 54.4375 C-4.9998988 56.21232776 -4.9998988 56.21232776 -5.05541992 58.48461914 C-5.05131104 59.30567139 -5.04720215 60.12672363 -5.04296875 60.97265625 C-5.04103516 61.86404297 -5.03910156 62.75542969 -5.03710938 63.67382812 C-5.02486328 64.60646484 -5.01261719 65.53910156 -5 66.5 C-4.99935547 67.43650391 -4.99871094 68.37300781 -4.99804688 69.33789062 C-5.37019467 73.72186532 -5.37019467 73.72186532 -3.8125 77.4375 C-1.5025 77.4375 0.8075 77.4375 3.1875 77.4375 C3.1875 69.8475 3.1875 62.2575 3.1875 54.4375 C1.2075 54.4375 -0.7725 54.4375 -2.8125 54.4375 Z " fill="#1D9DB5" transform="translate(55.8125,52.5625)"/>
<path d="M0 0 C4.29 0.33 8.58 0.66 13 1 C13 3 13 3 11 5.125 C10.34 5.74375 9.68 6.3625 9 7 C9.33 7.33 9.66 7.66 10 8 C10.33 7.34 10.66 6.68 11 6 C12.45880109 6.14107747 13.91703551 6.28802415 15.375 6.4375 C16.18710938 6.51871094 16.99921875 6.59992188 17.8359375 6.68359375 C20 7 20 7 22 8 C22.40729228 10.32156597 22.74438677 12.6568787 23 15 C21.29115995 13.37660195 19.62553283 11.70680947 18 10 C18 9.34 18 8.68 18 8 C9.20750294 13.48973167 5.24377264 20.26868208 2 30 C1.34 34.62 0.68 39.24 0 44 C33.66 44 67.32 44 102 44 C99.72666654 25.81333231 97.40781383 18.91150128 85 7 C86.98 7 88.96 7 91 7 C90.505 5.515 90.505 5.515 90 4 C90.33 3.01 90.66 2.02 91 1 C94.3 1 97.6 1 101 1 C101 1.33 101 1.66 101 2 C98.36 2.33 95.72 2.66 93 3 C93.50789063 3.38929688 94.01578125 3.77859375 94.5390625 4.1796875 C102.96004114 11.02370385 108.72115058 20.09748574 110 31 C110.15628826 34.25136679 110.18502303 37.49526469 110.1875 40.75 C110.19974609 41.61238281 110.21199219 42.47476563 110.22460938 43.36328125 C110.22654297 44.18699219 110.22847656 45.01070312 110.23046875 45.859375 C110.23457764 46.60670898 110.23868652 47.35404297 110.24291992 48.12402344 C110 50 110 50 108 52 C105.97911072 52.25447559 105.97911072 52.25447559 103.44506836 52.26069641 C102.0064595 52.27132362 102.0064595 52.27132362 100.53878784 52.28216553 C99.48313629 52.27968811 98.42748474 52.27721069 97.33984375 52.2746582 C96.23085724 52.27976913 95.12187073 52.28488007 93.97927856 52.29014587 C90.29863144 52.30409241 86.61817047 52.30308143 82.9375 52.30078125 C80.38924082 52.3046651 77.84098229 52.30899912 75.29272461 52.31376648 C69.94610226 52.32123939 64.59954881 52.32106695 59.25292969 52.31567383 C53.06691363 52.30963012 46.8811248 52.32195316 40.69514751 52.3432439 C34.75029507 52.3629547 28.80551334 52.36603723 22.86062622 52.36250877 C20.32796698 52.36302387 17.79530425 52.36829671 15.26266479 52.37832069 C11.7283147 52.39059264 8.19449718 52.38394913 4.66015625 52.37231445 C3.6045047 52.37995819 2.54885315 52.38760193 1.46121216 52.39547729 C0.50213959 52.38846298 -0.45693298 52.38144867 -1.44506836 52.3742218 C-2.28130234 52.37438954 -3.11753632 52.37455729 -3.97911072 52.37473011 C-4.97945091 52.18923871 -4.97945091 52.18923871 -6 52 C-9.97566232 46.03650652 -8.46406443 36.60282748 -7.5703125 29.6640625 C-5.23791789 18.69316934 0.86149665 10.47413573 9 3 C4.545 2.01 4.545 2.01 0 1 C0 0.67 0 0.34 0 0 Z M93 5 C94 7 94 7 94 7 Z " fill="#3CA9BD" transform="translate(67,158)"/>
<path d="M0 0 C0.67484436 -0.00191345 1.34968872 -0.0038269 2.04498291 -0.00579834 C3.46016822 -0.00715094 4.87536633 -0.00351961 6.29052734 0.00488281 C8.46089176 0.01566358 10.63044113 0.00492251 12.80078125 -0.0078125 C14.17968933 -0.00649205 15.5585969 -0.00393204 16.9375 0 C18.18756836 0.00225586 19.43763672 0.00451172 20.72558594 0.00683594 C23.703125 0.265625 23.703125 0.265625 25.703125 2.265625 C25.453125 4.828125 25.453125 4.828125 24.703125 7.265625 C21.89421188 8.67008156 19.51377248 8.41126744 16.375 8.44140625 C14.46267578 8.47717773 14.46267578 8.47717773 12.51171875 8.51367188 C10.48638343 8.54867586 8.46163508 8.57806835 6.43603516 8.59155273 C4.47796917 8.60713098 2.52016915 8.64901966 0.5625 8.69140625 C-1.19368652 8.71328003 -1.19368652 8.71328003 -2.98535156 8.7355957 C-7.67949298 9.48692135 -10.64132983 11.80258508 -14.14453125 14.8984375 C-16.05805561 18.82927059 -15.76856977 22.83208374 -15.734375 27.140625 C-15.75435547 28.02621094 -15.77433594 28.91179687 -15.79492188 29.82421875 C-15.7907526 35.41937936 -15.23663784 38.96892638 -11.296875 43.265625 C-7.82087594 44.9695591 -4.99364662 45.52267057 -1.14282227 45.55615234 C0.35914955 45.5752919 0.35914955 45.5752919 1.89146423 45.59481812 C2.96239822 45.59704376 4.03333221 45.59926941 5.13671875 45.6015625 C6.80275902 45.6115477 6.80275902 45.6115477 8.50245667 45.62173462 C10.84838202 45.63184712 13.19433607 45.63655207 15.5402832 45.63623047 C19.12434327 45.64060513 22.70717318 45.67694553 26.29101562 45.71484375 C28.57291246 45.72071189 30.85481514 45.7246813 33.13671875 45.7265625 C34.74008339 45.74811905 34.74008339 45.74811905 36.37583923 45.77011108 C42.44204748 45.73295012 46.14829812 45.43043755 50.703125 41.265625 C52.47768617 37.84325703 53.61050201 34.59906775 54.640625 30.890625 C55.703125 28.265625 55.703125 28.265625 57.640625 27.265625 C59.703125 27.265625 59.703125 27.265625 62.703125 29.265625 C64.12478445 34.37919077 62.73238036 38.92388807 60.265625 43.453125 C57.30690622 48.53605214 52.95881772 51.77208496 47.703125 54.265625 C43.32080087 55.08596543 39.04983166 55.06171844 34.6015625 54.9921875 C33.36572418 54.99318451 32.12988586 54.99418152 30.8565979 54.99520874 C28.25622085 54.9905472 25.65583309 54.971208 23.05566406 54.93798828 C19.08316196 54.89068498 15.11333846 54.89689422 11.140625 54.91015625 C8.60675489 54.89900476 6.07289603 54.88478629 3.5390625 54.8671875 C2.35661957 54.86901031 1.17417664 54.87083313 -0.0440979 54.87271118 C-7.93994981 54.73729731 -12.43933623 53.6734689 -18.44140625 48.37109375 C-18.99183594 47.73816406 -19.54226562 47.10523438 -20.109375 46.453125 C-20.67269531 45.82792969 -21.23601562 45.20273438 -21.81640625 44.55859375 C-26.63836595 37.0902815 -26.31637969 26.83531405 -25.296875 18.265625 C-23.38735137 11.46294708 -19.41241181 5.9078763 -13.296875 2.265625 C-8.7338347 0.45829824 -4.89447795 0.00880076 0 0 Z " fill="#139BB5" transform="translate(99.296875,83.734375)"/>
<path d="M0 0 C0.78203796 -0.00902847 1.56407593 -0.01805695 2.36981201 -0.02735901 C4.0101747 -0.04177638 5.65059379 -0.05072688 7.29101562 -0.05444336 C9.80434831 -0.06644193 12.31530182 -0.11578856 14.828125 -0.16601562 C16.42707142 -0.17547004 18.0260328 -0.18270976 19.625 -0.1875 C20.75001923 -0.21679848 20.75001923 -0.21679848 21.89776611 -0.24668884 C24.01269531 -0.22827148 24.01269531 -0.22827148 27.546875 0.37109375 C29.54199219 2.90600586 29.54199219 2.90600586 30.546875 5.37109375 C29.56713867 7.34179688 29.56713867 7.34179688 27.546875 9.37109375 C24.64979677 9.74863293 22.11828362 9.88130127 19.22265625 9.83984375 C18.40242477 9.84689331 17.5821933 9.85394287 16.73710632 9.86120605 C13.23155541 9.89066534 9.72655965 9.87414298 6.22094727 9.86181641 C3.65868571 9.8594193 1.09730768 9.88045077 -1.46484375 9.90234375 C-2.24534592 9.89102417 -3.02584808 9.87970459 -3.83000183 9.86804199 C-9.43523333 9.91888753 -13.79604145 11.17749453 -18.453125 14.37109375 C-26.01644269 22.25917118 -25.76185149 32.06510803 -25.75390625 42.41015625 C-25.75819138 43.64978119 -25.7624765 44.88940613 -25.76689148 46.16659546 C-25.77261508 48.77707307 -25.77314963 51.38756662 -25.76879883 53.99804688 C-25.76667971 56.66748059 -25.77116403 59.33564046 -25.78930664 62.00488281 C-25.81379797 65.8692812 -25.81796271 69.73318996 -25.81640625 73.59765625 C-25.825616 74.78839752 -25.83482574 75.97913879 -25.84431458 77.20596313 C-25.81159718 83.06213883 -25.76440063 87.43619313 -22.453125 92.37109375 C-24.103125 91.71109375 -25.753125 91.05109375 -27.453125 90.37109375 C-27.783125 68.92109375 -28.113125 47.47109375 -28.453125 25.37109375 C-29.113125 25.04109375 -29.773125 24.71109375 -30.453125 24.37109375 C-31.9339098 27.33266335 -31.80626537 30.2061567 -32.015625 33.49609375 C-32.09941406 34.77742188 -32.18320312 36.05875 -32.26953125 37.37890625 C-32.33011719 38.36632812 -32.39070313 39.35375 -32.453125 40.37109375 C-36.083125 40.37109375 -39.713125 40.37109375 -43.453125 40.37109375 C-43.453125 32.78109375 -43.453125 25.19109375 -43.453125 17.37109375 C-43.123125 17.37109375 -42.793125 17.37109375 -42.453125 17.37109375 C-42.453125 24.63109375 -42.453125 31.89109375 -42.453125 39.37109375 C-39.813125 39.37109375 -37.173125 39.37109375 -34.453125 39.37109375 C-34.49953125 38.56027344 -34.5459375 37.74945313 -34.59375 36.9140625 C-34.91786746 26.97060174 -33.62655259 18.8600154 -27.203125 10.99609375 C-19.47531701 2.93803756 -10.94860871 0.07913851 0 0 Z " fill="#5BB6C8" transform="translate(93.453125,59.62890625)"/>
<path d="M0 0 C3.62388363 3.62388363 3.12810953 8.37407141 3.13671875 13.23828125 C3.13285156 13.98464844 3.12898438 14.73101562 3.125 15.5 C3.12886719 16.24636719 3.13273437 16.99273437 3.13671875 17.76171875 C3.13542969 18.49003906 3.13414062 19.21835938 3.1328125 19.96875 C3.13168457 20.62294922 3.13055664 21.27714844 3.12939453 21.95117188 C3 24 3 24 2 29 C-31.99 29 -65.98 29 -101 29 C-100.01 28.67 -99.02 28.34 -98 28 C-98 26.35 -98 24.7 -98 23 C-66.32 23 -34.64 23 -2 23 C-2.495 14.09 -2.495 14.09 -3 5 C-2.01 3.35 -1.02 1.7 0 0 Z " fill="#0295B0" transform="translate(172,180)"/>
<path d="M0 0 C0.67484436 -0.00191345 1.34968872 -0.0038269 2.04498291 -0.00579834 C3.46016822 -0.00715094 4.87536633 -0.00351961 6.29052734 0.00488281 C8.46089176 0.01566358 10.63044113 0.00492251 12.80078125 -0.0078125 C14.17968933 -0.00649205 15.5585969 -0.00393204 16.9375 0 C18.18756836 0.00225586 19.43763672 0.00451172 20.72558594 0.00683594 C23.703125 0.265625 23.703125 0.265625 25.703125 2.265625 C25.453125 4.828125 25.453125 4.828125 24.703125 7.265625 C21.89421188 8.67008156 19.51377248 8.41126744 16.375 8.44140625 C14.46267578 8.47717773 14.46267578 8.47717773 12.51171875 8.51367188 C10.48638343 8.54867586 8.46163508 8.57806835 6.43603516 8.59155273 C4.47796917 8.60713098 2.52016915 8.64901966 0.5625 8.69140625 C-1.19368652 8.71328003 -1.19368652 8.71328003 -2.98535156 8.7355957 C-7.67537673 9.48626251 -10.64711252 11.78822577 -14.12890625 14.90625 C-16.03919656 18.7651642 -15.87452443 22.7659771 -15.984375 27.015625 C-16.01853516 27.90378906 -16.05269531 28.79195312 -16.08789062 29.70703125 C-16.17016214 31.89310303 -16.23937672 34.07878451 -16.296875 36.265625 C-18.67383062 32.70019158 -18.76907208 29.84085574 -18.984375 25.703125 C-19.03142578 25.01798828 -19.07847656 24.33285156 -19.12695312 23.62695312 C-19.43174847 18.53537193 -19.43174847 18.53537193 -18.296875 16.265625 C-19.946875 16.595625 -21.596875 16.925625 -23.296875 17.265625 C-23.45079539 25.64573529 -22.97958793 33.91458293 -22.296875 42.265625 C-26.65043957 37.91206043 -25.65632849 30.62917581 -25.68188477 24.79174805 C-25.53443604 17.36112951 -23.64496697 11.9796712 -18.6171875 6.40234375 C-13.07079058 1.23803195 -7.52637738 0.01353317 0 0 Z " fill="#33A8BE" transform="translate(99.296875,83.734375)"/>
<path d="M0 0 C0.99 0.66 1.98 1.32 3 2 C3.36076355 4.7081604 3.36076355 4.7081604 3.34057617 8.19384766 C3.34034958 9.49504547 3.34012299 10.79624329 3.33988953 12.13687134 C3.32456837 13.56260519 3.30892037 14.98833556 3.29296875 16.4140625 C3.28737443 17.86851566 3.28310356 19.32297447 3.28010559 20.7774353 C3.26864374 24.60806855 3.23916547 28.43836128 3.20599365 32.26885986 C3.17532138 36.17658888 3.16160637 40.08437284 3.14648438 43.9921875 C3.11429667 51.66161368 3.06308463 59.33075915 3 67 C4.32 67.66 5.64 68.32 7 69 C6.67 69.66 6.34 70.32 6 71 C5.34 70.67 4.68 70.34 4 70 C4 70.99 4 71.98 4 73 C2.68 72.67 1.36 72.34 0 72 C-0.50904657 70.12743583 -1.00682455 68.25180659 -1.5 66.375 C-1.7784375 65.33085937 -2.056875 64.28671875 -2.34375 63.2109375 C-2.99118596 60.04312582 -3.1161292 57.22258533 -3 54 C-5.97 54 -8.94 54 -12 54 C-11.67 52.35 -11.34 50.7 -11 49 C-8.36 48.67 -5.72 48.34 -3 48 C-2.98018066 47.28344238 -2.96036133 46.56688477 -2.93994141 45.82861328 C-2.84490481 42.5936937 -2.73513981 39.35943906 -2.625 36.125 C-2.57859375 34.43310547 -2.57859375 34.43310547 -2.53125 32.70703125 C-2.49257813 31.63066406 -2.45390625 30.55429688 -2.4140625 29.4453125 C-2.3826416 28.45031738 -2.3512207 27.45532227 -2.31884766 26.43017578 C-2 24 -2 24 0 22 C-2.31 22 -4.62 22 -7 22 C-7.33 20.68 -7.66 19.36 -8 18 C-6.02 17.67 -4.04 17.34 -2 17 C-2.02320313 16.02417969 -2.04640625 15.04835938 -2.0703125 14.04296875 C-2.08835937 12.77066406 -2.10640625 11.49835938 -2.125 10.1875 C-2.14820313 8.92292969 -2.17140625 7.65835938 -2.1953125 6.35546875 C-2 3 -2 3 0 0 Z " fill="#0296B0" transform="translate(63,83)"/>
<path d="M0 0 C3.3 0 6.6 0 10 0 C10 0.33 10 0.66 10 1 C7.36 1.33 4.72 1.66 2 2 C2.50789063 2.38929688 3.01578125 2.77859375 3.5390625 3.1796875 C11.96004114 10.02370385 17.72115058 19.09748574 19 30 C19.15628826 33.25136679 19.18502303 36.49526469 19.1875 39.75 C19.19974609 40.61238281 19.21199219 41.47476563 19.22460938 42.36328125 C19.22654297 43.18699219 19.22847656 44.01070312 19.23046875 44.859375 C19.23457764 45.60670898 19.23868652 46.35404297 19.24291992 47.12402344 C19 49 19 49 17 51 C14.97911072 51.25447559 14.97911072 51.25447559 12.44506836 51.26069641 C11.0064595 51.27132362 11.0064595 51.27132362 9.53878784 51.28216553 C8.48313629 51.27968811 7.42748474 51.27721069 6.33984375 51.2746582 C5.23085724 51.27976913 4.12187073 51.28488007 2.97927856 51.29014587 C-0.70136856 51.30409241 -4.38182953 51.30308143 -8.0625 51.30078125 C-10.61075918 51.3046651 -13.15901771 51.30899912 -15.70727539 51.31376648 C-21.05389774 51.32123939 -26.40045119 51.32106695 -31.74707031 51.31567383 C-37.93308637 51.30963012 -44.1188752 51.32195316 -50.30485249 51.3432439 C-56.24970493 51.3629547 -62.19448666 51.36603723 -68.13937378 51.36250877 C-70.67203302 51.36302387 -73.20469575 51.36829671 -75.73733521 51.37832069 C-79.2716853 51.39059264 -82.80550282 51.38394913 -86.33984375 51.37231445 C-87.3954953 51.37995819 -88.45114685 51.38760193 -89.53878784 51.39547729 C-90.49786041 51.38846298 -91.45693298 51.38144867 -92.44506836 51.3742218 C-93.28130234 51.37438954 -94.11753632 51.37455729 -94.97911072 51.37473011 C-95.97945091 51.18923871 -95.97945091 51.18923871 -97 51 C-99.47846301 47.28230548 -99.26100633 44.41931728 -99.1875 40.125 C-99.18685547 39.41730469 -99.18621094 38.70960938 -99.18554688 37.98046875 C-99.15388927 34.20266084 -98.90008547 30.6723487 -98 27 C-97.67 27 -97.34 27 -97 27 C-96.67 34.26 -96.34 41.52 -96 49 C-59.37 49 -22.74 49 15 49 C15.73286092 46.06855632 16.16043754 43.83174933 16.31640625 40.890625 C16.35830078 40.13652344 16.40019531 39.38242188 16.44335938 38.60546875 C16.48267578 37.82816406 16.52199219 37.05085938 16.5625 36.25 C16.62727539 35.06083984 16.62727539 35.06083984 16.69335938 33.84765625 C16.79902991 31.89862185 16.89997966 29.94933252 17 28 C16.34 27.67 15.68 27.34 15 27 C14.375 24.4375 14.375 24.4375 14 22 C13.01 24.97 12.02 27.94 11 31 C10.00089134 29.00178268 8.99943502 26.99857551 8.17578125 24.921875 C5.08650589 17.14976142 -0.02524443 11.73576535 -6 6 C-4.02 6 -2.04 6 0 6 C-0.495 4.515 -0.495 4.515 -1 3 C-0.67 2.01 -0.34 1.02 0 0 Z M2 4 C3 6 3 6 3 6 Z " fill="#8ECAD6" transform="translate(158,159)"/>
<path d="M0 0 C2.56364483 -0.10845031 5.12266279 -0.18749744 7.6875 -0.25 C8.40873047 -0.28351563 9.12996094 -0.31703125 9.87304688 -0.3515625 C13.59336986 -0.4195136 15.590042 -0.23236486 18.89453125 1.640625 C23.7882741 7.12452237 23.33679194 13.53307021 23.3125 20.5 C23.32861328 21.42425781 23.34472656 22.34851563 23.36132812 23.30078125 C23.36511876 28.60008606 23.06201945 32.46792437 20 37 C16.3558226 39.4294516 14.28758728 39.16179575 10 39 C10.33 38.360625 10.66 37.72125 11 37.0625 C12.07271225 35.23205433 12.07271225 35.23205433 12 34 C9.69 33.34 7.38 32.68 5 32 C5 23.75 5 15.5 5 7 C8.465 6.505 8.465 6.505 12 6 C11.67 5.34 11.34 4.68 11 4 C11.33 3.34 11.66 2.68 12 2 C8.04 1.67 4.08 1.34 0 1 C0 0.67 0 0.34 0 0 Z M6 8 C6 15.59 6 23.18 6 31 C8.64 31 11.28 31 14 31 C14.02887512 27.35418313 14.04675585 23.70839537 14.0625 20.0625 C14.07087891 19.02158203 14.07925781 17.98066406 14.08789062 16.90820312 C14.09111328 15.91884766 14.09433594 14.92949219 14.09765625 13.91015625 C14.10289307 12.99371338 14.10812988 12.07727051 14.11352539 11.13305664 C14.23921211 9.01636977 14.23921211 9.01636977 13 8 C10.69 8 8.38 8 6 8 Z " fill="#50B4C7" transform="translate(171,99)"/>
<path d="M0 0 C4.62 0 9.24 0 14 0 C13.01 0.495 13.01 0.495 12 1 C12.33 2.65 12.66 4.3 13 6 C10.36 6 7.72 6 5 6 C5.33 14.25 5.66 22.5 6 31 C8.31 31.33 10.62 31.66 13 32 C12.505 34.475 12.505 34.475 12 37 C9.69 37.66 7.38 38.32 5 39 C4.34 41.64 3.68 44.28 3 47 C1.66666667 47 0.33333333 47 -1 47 C-1.02529825 40.62793828 -1.04284496 34.25588946 -1.05493164 27.88378906 C-1.05996891 25.71483883 -1.06679891 23.545892 -1.07543945 21.37695312 C-1.08753151 18.26431437 -1.09323428 15.1517204 -1.09765625 12.0390625 C-1.10281754 11.065065 -1.10797882 10.0910675 -1.11329651 9.08755493 C-1.11337204 8.18677216 -1.11344757 7.28598938 -1.11352539 6.35791016 C-1.115746 5.56293121 -1.11796661 4.76795227 -1.12025452 3.94888306 C-1 2 -1 2 0 0 Z " fill="#0595B1" transform="translate(171,100)"/>
<path d="M0 0 C2.92937654 1.81310142 5.43647949 3.87295899 7 7 C7.51441592 11.45827127 7.30466095 13.50146391 4.9375 17.375 C1.43775876 20.50242834 -0.33733635 21.08326185 -5 21 C-8.64886208 19.42435501 -11.13562322 17.53250338 -13 14 C-13.49677002 10.64680233 -13.74097161 8.229464 -11.9453125 5.25 C-8.22976383 0.67701703 -5.86701424 -0.67696318 0 0 Z M-4 8 C-4 9.32 -4 10.64 -4 12 C-3.01 11.67 -2.02 11.34 -1 11 C-1.33 10.01 -1.66 9.02 -2 8 C-2.66 8 -3.32 8 -4 8 Z " fill="#23A2BB" transform="translate(135,100)"/>
<path d="M0 0 C3.01489058 2.05269146 4.62010918 3.5370162 5.55078125 7.12109375 C5.85222189 10.62608 5.68170257 13.00243525 3.66796875 15.94921875 C0.56871798 18.9505248 -1.25213049 19.96131709 -5.625 20.1875 C-9.64390431 18.77344108 -11.43554301 17.39413425 -14 14 C-15.27497059 10.2547739 -15.19474412 8.55177501 -13.875 4.8125 C-10.09943752 -0.85084372 -6.52786763 -1.86510504 0 0 Z M-5 7 C-5.33 8.32 -5.66 9.64 -6 11 C-5.01 11 -4.02 11 -3 11 C-3.33 9.68 -3.66 8.36 -4 7 C-4.33 7 -4.66 7 -5 7 Z " fill="#23A1BB" transform="translate(105,101)"/>
<path d="M0 0 C2.625 0.9375 2.625 0.9375 5 2 C5.76589526 9.91425101 3.99057469 14.78613911 -1 21 C-3.25329254 23.00592509 -5.39751489 24.43850893 -8 26 C-8.66 25.67 -9.32 25.34 -10 25 C-9.67 24.360625 -9.34 23.72125 -9 23.0625 C-7.92728775 21.23205433 -7.92728775 21.23205433 -8 20 C-8.70965912 20.00444122 -9.41931824 20.00888245 -10.15048218 20.01345825 C-16.83097068 20.0534948 -23.51142581 20.08396388 -30.19200706 20.10362434 C-33.62675459 20.1140717 -37.06140317 20.12824805 -40.49609375 20.15087891 C-44.44269638 20.17672063 -48.38925863 20.18646493 -52.3359375 20.1953125 C-53.57242035 20.20563507 -54.8089032 20.21595764 -56.08285522 20.22659302 C-57.22388702 20.22674408 -58.36491882 20.22689514 -59.54052734 20.22705078 C-60.548685 20.231492 -61.55684265 20.23593323 -62.59555054 20.24050903 C-65 20 -65 20 -67 18 C-66.33680756 18.00888245 -65.67361511 18.01776489 -64.99032593 18.0269165 C-58.07973866 18.11549956 -51.16931304 18.17578015 -44.25830078 18.21972656 C-41.68010912 18.23982563 -39.10196296 18.26710941 -36.52392578 18.30175781 C-32.81531539 18.35034847 -29.10730844 18.37298658 -25.3984375 18.390625 C-23.67311295 18.42159271 -23.67311295 18.42159271 -21.91293335 18.45318604 C-15.66692633 18.45493224 -11.65848709 18.36325146 -7 14 C-5.23464127 10.5953796 -4.08708793 7.27663225 -2.9375 3.625 C-2 1 -2 1 0 0 Z " fill="#0B98B2" transform="translate(157,111)"/>
<path d="M0 0 C13.2 0 26.4 0 40 0 C40.495 1.485 40.495 1.485 41 3 C39 6 39 6 37.20297241 6.36076355 C36.47905304 6.35410172 35.75513367 6.34743988 35.00927734 6.34057617 C33.77822769 6.34023628 33.77822769 6.34023628 32.52230835 6.33988953 C31.63580597 6.32440567 30.74930359 6.30892181 29.8359375 6.29296875 C28.92872955 6.28872391 28.02152161 6.28447906 27.08682251 6.28010559 C24.18258268 6.26328133 21.2790309 6.2256226 18.375 6.1875 C16.40886417 6.17245799 14.44271749 6.15876875 12.4765625 6.14648438 C7.65077561 6.11336557 2.82550455 6.06155786 -2 6 C-1.34 5.01 -0.68 4.02 0 3 C0 2.01 0 1.02 0 0 Z " fill="#0C98B1" transform="translate(83,62)"/>
<path d="M0 0 C0.79339783 0.00141495 1.58679565 0.0028299 2.40423584 0.00428772 C4.93098772 0.0098721 7.45765004 0.02242171 9.984375 0.03515625 C11.70051955 0.04017327 13.41666549 0.04473582 15.1328125 0.04882812 C19.33336769 0.05983641 23.53385617 0.07709029 27.734375 0.09765625 C28.229375 1.08765625 28.229375 1.08765625 28.734375 2.09765625 C15.864375 2.09765625 2.994375 2.09765625 -10.265625 2.09765625 C-9.935625 3.41765625 -9.605625 4.73765625 -9.265625 6.09765625 C-9.595625 6.42765625 -9.925625 6.75765625 -10.265625 7.09765625 C2.274375 7.42765625 14.814375 7.75765625 27.734375 8.09765625 C27.734375 8.42765625 27.734375 8.75765625 27.734375 9.09765625 C26.0783728 9.1116748 26.0783728 9.1116748 24.38891602 9.12597656 C20.2566835 9.16612763 16.12517601 9.23195362 11.9934082 9.30517578 C10.21192809 9.33324075 8.43032681 9.35452664 6.64868164 9.36865234 C-6.85330903 9.30122734 -6.85330903 9.30122734 -19.265625 14.09765625 C-19.925625 12.77765625 -20.585625 11.45765625 -21.265625 10.09765625 C-21.925625 10.75765625 -22.585625 11.41765625 -23.265625 12.09765625 C-23.925625 12.18015625 -24.585625 12.26265625 -25.265625 12.34765625 C-25.925625 12.59515625 -26.585625 12.84265625 -27.265625 13.09765625 C-28.5701906 16.09381571 -28.5701906 16.09381571 -29.265625 19.09765625 C-29.925625 19.09765625 -30.585625 19.09765625 -31.265625 19.09765625 C-29.96021988 13.1508107 -26.93891412 9.76281353 -22.265625 6.09765625 C-14.71663085 1.58681335 -8.75526986 -0.05893036 0 0 Z " fill="#7AC5D2" transform="translate(93.265625,59.90234375)"/>
<path d="M0 0 C0.66 0.33 1.32 0.66 2 1 C0.50867052 5.72254335 0.50867052 5.72254335 -2.0625 7.125 C-3.0215625 7.558125 -3.0215625 7.558125 -4 8 C-4.33 8.99 -4.66 9.98 -5 11 C-8.8215538 12.27385127 -12.4068447 12.12353188 -16.38671875 12.09765625 C-17.20372757 12.0962413 -18.02073639 12.09482635 -18.86250305 12.09336853 C-21.47087268 12.08777294 -24.07915634 12.07522129 -26.6875 12.0625 C-28.45637897 12.05748443 -30.22525928 12.05292162 -31.99414062 12.04882812 C-36.32946019 12.03780496 -40.66471552 12.02054338 -45 12 C-45.33 11.01 -45.66 10.02 -46 9 C-43.05807216 6.05807216 -39.87809027 6.64462603 -35.9296875 6.5859375 C-35.13345978 6.56657135 -34.33723206 6.5472052 -33.51687622 6.5272522 C-30.96969366 6.46739526 -28.42246605 6.42104721 -25.875 6.375 C-24.1497197 6.33682579 -22.42445857 6.29777439 -20.69921875 6.2578125 C-16.46630124 6.16168891 -12.23329451 6.07768092 -8 6 C-8 5.34 -8 4.68 -8 4 C-6.865625 3.525625 -5.73125 3.05125 -4.5625 2.5625 C-1.24259834 1.36377917 -1.24259834 1.36377917 0 0 Z " fill="#0296B1" transform="translate(143,168)"/>
<path d="M0 0 C2 1.5625 2 1.5625 3 3 C1.02 3 -0.96 3 -3 3 C-3 2.34 -3 1.68 -3 1 C-5.02045442 1.60183749 -7.02111039 2.27306096 -9 3 C-9.33 3.66 -9.66 4.32 -10 5 C-10.33 4.01 -10.66 3.02 -11 2 C-11.66 2 -12.32 2 -13 2 C-13 3.65 -13 5.3 -13 7 C-8.545 6.505 -8.545 6.505 -4 6 C-3.67 6.66 -3.34 7.32 -3 8 C-3.969375 8.144375 -4.93875 8.28875 -5.9375 8.4375 C-8.86486773 8.67562341 -8.86486773 8.67562341 -10 10 C-10.04080783 11.99958364 -10.04254356 14.00045254 -10 16 C-7.67145537 17.19838209 -7.67145537 17.19838209 -5 18 C-1.68539295 16.29107501 -1.68539295 16.29107501 -1.3125 12.875 C-1.209375 11.92625 -1.10625 10.9775 -1 10 C1.1385485 12.1385485 1.42655063 13.13275314 2 16 C1.01 16.33 0.02 16.66 -1 17 C-1.33 17.99 -1.66 18.98 -2 20 C-3.093125 19.896875 -4.18625 19.79375 -5.3125 19.6875 C-6.529375 19.790625 -7.74625 19.89375 -9 20 C-11.00864359 22.3726974 -11.00864359 22.3726974 -12 25 C-14.54563057 24.03441599 -15.94635204 23.06131195 -17.75 21 C-19.57460149 16.62095643 -19.65942372 12.67591367 -19 8 C-17.12377877 3.8723133 -15.63710408 2.37981205 -11.75 0.0625 C-7.11731468 -1.25009417 -4.67096642 -1.08989216 0 0 Z " fill="#0696B2" transform="translate(53,51)"/>
<path d="M0 0 C1.14391198 2.28782397 1.11026954 3.51193478 1.08178711 6.05078125 C1.0752562 6.88504639 1.06872528 7.71931152 1.06199646 8.57885742 C1.05056107 9.48095947 1.03912567 10.38306152 1.02734375 11.3125 C1.01470006 13.2109357 1.00233891 15.10937329 0.99023438 17.0078125 C0.9653708 20.01015072 0.93736252 23.01239158 0.90405273 26.01464844 C0.87394847 28.90560551 0.85610708 31.79643671 0.83984375 34.6875 C0.82638412 35.58960205 0.8129245 36.4917041 0.79905701 37.42114258 C0.79567825 38.25540771 0.7922995 39.08967285 0.78881836 39.94921875 C0.78136093 40.68487061 0.7739035 41.42052246 0.76622009 42.1784668 C0.84357845 44.25113888 0.84357845 44.25113888 3 46 C3.99 43.36 4.98 40.72 6 38 C6.33 38 6.66 38 7 38 C7.08160748 39.89510699 7.13946459 41.79124504 7.1875 43.6875 C7.23970703 45.27111328 7.23970703 45.27111328 7.29296875 46.88671875 C6.96666615 50.35422768 5.99030125 52.18432448 4 55 C3.505 53.02 3.505 53.02 3 51 C2.42665546 51.3250395 1.85331093 51.650079 1.26259232 51.98496819 C-1.13029589 53.05845263 -2.60206886 53.24717418 -5.20147705 53.24050903 C-6.03156281 53.24325836 -6.86164856 53.24600769 -7.71688843 53.24884033 C-8.6188797 53.24164978 -9.52087097 53.23445923 -10.45019531 53.22705078 C-11.40662933 53.22734283 -12.36306335 53.22763489 -13.34848022 53.22793579 C-16.50845424 53.22654294 -19.6681922 53.21098366 -22.828125 53.1953125 C-25.01959097 53.19158222 -27.21105862 53.18873532 -29.40252686 53.18673706 C-35.16964322 53.17910183 -40.9366588 53.1594542 -46.70373535 53.1373291 C-52.5889347 53.11686836 -58.47415033 53.10773485 -64.359375 53.09765625 C-75.90629427 53.07620828 -87.45313875 53.04207358 -99 53 C-99 52.67 -99 52.34 -99 52 C-97.82902267 51.99413376 -96.65804535 51.98826752 -95.45158386 51.98222351 C-84.4299896 51.92507403 -73.40859413 51.85235336 -62.38720226 51.76428509 C-56.72063295 51.71950865 -51.05413675 51.68026862 -45.38745117 51.65356445 C-39.92139649 51.627604 -34.45562208 51.5872533 -28.98974037 51.53681374 C-26.90173128 51.5200958 -24.81367366 51.50861231 -22.72560692 51.50238609 C-19.80659803 51.4927985 -16.8883142 51.46480362 -13.96948242 51.43237305 C-13.10129883 51.43380814 -12.23311523 51.43524323 -11.33862305 51.4367218 C-7.00307698 51.50772426 -7.00307698 51.50772426 -3.27891445 49.60872555 C-1.56711112 47.45547617 -1.61027423 46.09357688 -1.58349609 43.36083984 C-1.55864639 41.95455826 -1.55864639 41.95455826 -1.53329468 40.51986694 C-1.53004181 39.51042023 -1.52678894 38.50097351 -1.5234375 37.4609375 C-1.50785797 36.4243399 -1.49227844 35.38774231 -1.47622681 34.31973267 C-1.42863521 31.00482941 -1.40091451 27.69013772 -1.375 24.375 C-1.33856682 21.05286949 -1.29800783 17.73086045 -1.25234985 14.40884399 C-1.22502526 12.34004803 -1.203717 10.27116271 -1.18881226 8.20223999 C-1.17855011 7.27102325 -1.16828796 6.33980652 -1.15771484 5.38037109 C-1.14797134 4.14485001 -1.14797134 4.14485001 -1.13803101 2.8843689 C-1 1 -1 1 0 0 Z " fill="#97CED8" transform="translate(170,100)"/>
<path d="M0 0 C-0.66 0 -1.32 0 -2 0 C-2.12375 0.598125 -2.2475 1.19625 -2.375 1.8125 C-3 4 -3 4 -5 7 C-3.02 6.67 -1.04 6.34 1 6 C0.2575 6.556875 -0.485 7.11375 -1.25 7.6875 C-6.07298518 11.60081918 -6.07298518 11.60081918 -8.41308594 17.18481445 C-8.6163908 19.73244688 -8.70807872 22.25720747 -8.75 24.8125 C-8.77964844 25.69615234 -8.80929688 26.57980469 -8.83984375 27.49023438 C-8.9102039 29.65967218 -8.95740607 31.82983948 -9 34 C-11.37695562 30.43456658 -11.47219708 27.57523074 -11.6875 23.4375 C-11.73455078 22.75236328 -11.78160156 22.06722656 -11.83007812 21.36132812 C-12.13487347 16.26974693 -12.13487347 16.26974693 -11 14 C-12.65 14.33 -14.3 14.66 -16 15 C-16.15392039 23.38011029 -15.68271293 31.64895793 -15 40 C-19.35356457 35.64643543 -18.35945349 28.36355081 -18.38500977 22.52612305 C-18.23752724 15.09380114 -16.40330813 9.54937285 -11.1796875 4.1015625 C-4.92096944 -1.47629083 -4.92096944 -1.47629083 0 0 Z " fill="#66BBCA" transform="translate(92,86)"/>
<path d="M0 0 C1.8253125 -0.02513672 1.8253125 -0.02513672 3.6875 -0.05078125 C7.15690777 0.32970805 8.50660897 0.950012 11 3.3125 C10.42655063 6.17974686 10.1385485 7.1739515 8 9.3125 C5.31139384 9.5114393 2.74894817 9.59085301 0.0625 9.5625 C-0.66646484 9.57023438 -1.39542969 9.57796875 -2.14648438 9.5859375 C-5.95838223 9.57196171 -7.7581111 9.47375927 -11 7.3125 C-11.1875 4.6875 -11.1875 4.6875 -11 2.3125 C-7.36951966 0.03437359 -4.22835956 0.01343758 0 0 Z " fill="#54B5C8" transform="translate(145,187.6875)"/>
<path d="M0 0 C1.31871094 -0.01675781 2.63742188 -0.03351563 3.99609375 -0.05078125 C7.62385659 0.3187499 8.99145294 0.82035975 11.5625 3.3125 C11.25 5.1875 11.25 5.1875 10.5625 7.3125 C6.93903931 9.72814046 4.24646018 9.61031669 0.0625 9.5625 C-0.61425781 9.57023438 -1.29101562 9.57796875 -1.98828125 9.5859375 C-5.68669257 9.57134811 -7.28353337 9.41514442 -10.4375 7.3125 C-10.8125 4.8125 -10.8125 4.8125 -10.4375 2.3125 C-6.83638412 -0.08824392 -4.16146229 -0.01994948 0 0 Z " fill="#3AAABF" transform="translate(89.4375,187.6875)"/>
<path d="M0 0 C0.32653564 0.48895752 0.65307129 0.97791504 0.98950195 1.48168945 C4.10611804 3.83533067 7.42102407 3.36812321 11.16796875 3.29296875 C12.36018791 3.28660149 12.36018791 3.28660149 13.57649231 3.28010559 C16.11384021 3.2633193 18.65039238 3.22566824 21.1875 3.1875 C22.90819165 3.17245305 24.62889576 3.15876466 26.34960938 3.14648438 C30.56671262 3.11341607 34.78322142 3.06163495 39 3 C39 3.66 39 4.32 39 5 C35.9450722 6.5274639 32.7236686 6.23991832 29.3671875 6.31640625 C28.61535187 6.33718735 27.86351624 6.35796844 27.08889771 6.37937927 C24.68435915 6.44482705 22.27971033 6.50373738 19.875 6.5625 C18.24608229 6.60568977 16.61717578 6.64930421 14.98828125 6.69335938 C10.99230085 6.80050351 6.99620941 6.90178433 3 7 C2.67 7.99 2.34 8.98 2 10 C15.2 10 28.4 10 42 10 C42.33 8.68 42.66 7.36 43 6 C45.5625 4.75 45.5625 4.75 48 4 C46.52313104 7.44602757 45.02082973 9.74227798 42 12 C38.805467 12.56182092 35.65658923 12.46498708 32.421875 12.390625 C31.4953009 12.38496521 30.56872681 12.37930542 29.61407471 12.37347412 C26.65885438 12.35110921 23.70485295 12.30091262 20.75 12.25 C18.7448092 12.22993515 16.73959936 12.21168435 14.734375 12.1953125 C9.82244806 12.151244 4.91143058 12.08221555 0 12 C-0.66 10.68 -1.32 9.36 -2 8 C-1.34 8 -0.68 8 0 8 C-0.185625 7.4225 -0.37125 6.845 -0.5625 6.25 C-1.04023546 3.79307475 -0.75729364 2.35602466 0 0 Z " fill="#6ABDCE" transform="translate(96,169)"/>
<path d="M0 0 C2.64 0 5.28 0 8 0 C8 8.58 8 17.16 8 26 C5.69 26.33 3.38 26.66 1 27 C0.67 27.99 0.34 28.98 0 30 C2.64 30.33 5.28 30.66 8 31 C8.53030068 33.43578787 9.04952312 35.87305975 9.5625 38.3125 C9.71396484 39.00279297 9.86542969 39.69308594 10.02148438 40.40429688 C10.71761569 43.75544066 11.10155309 45.69534072 10 49 C7.37124595 43.62819824 6.3916035 38.95507399 6 33 C5.06027344 32.90912109 5.06027344 32.90912109 4.1015625 32.81640625 C3.28429688 32.73261719 2.46703125 32.64882812 1.625 32.5625 C0.81289063 32.48128906 0.00078125 32.40007812 -0.8359375 32.31640625 C-3 32 -3 32 -5 31 C-5.6875 29.0625 -5.6875 29.0625 -6 27 C-5.67 26.34 -5.34 25.68 -5 25 C-3.68 25 -2.36 25 -1 25 C-1.33 24.34 -1.66 23.68 -2 23 C-2.2391169 19.5052764 -2.18518692 16.00200511 -2.1875 12.5 C-2.19974609 11.52417969 -2.21199219 10.54835938 -2.22460938 9.54296875 C-2.22654297 8.61097656 -2.22847656 7.67898437 -2.23046875 6.71875 C-2.23457764 5.86216797 -2.23868652 5.00558594 -2.24291992 4.12304688 C-2 2 -2 2 0 0 Z M1 1 C-1.1873988 2.77482776 -1.1873988 2.77482776 -1.24291992 5.04711914 C-1.23881104 5.86817139 -1.23470215 6.68922363 -1.23046875 7.53515625 C-1.22853516 8.42654297 -1.22660156 9.31792969 -1.22460938 10.23632812 C-1.21236328 11.16896484 -1.20011719 12.10160156 -1.1875 13.0625 C-1.18685547 13.99900391 -1.18621094 14.93550781 -1.18554688 15.90039062 C-1.55769467 20.28436532 -1.55769467 20.28436532 0 24 C2.31 24 4.62 24 7 24 C7 16.41 7 8.82 7 1 C5.02 1 3.04 1 1 1 Z " fill="#7CC3D0" transform="translate(52,106)"/>
<path d="M0 0 C4.875 1.875 4.875 1.875 6 3 C6.08758003 4.99964982 6.10696576 7.0023611 6.09765625 9.00390625 C6.09443359 10.21884766 6.09121094 11.43378906 6.08789062 12.68554688 C6.07951172 13.96494141 6.07113281 15.24433594 6.0625 16.5625 C6.05798828 17.84576172 6.05347656 19.12902344 6.04882812 20.45117188 C6.03699545 23.63416022 6.02051068 26.81705762 6 30 C5.67 29.01 5.34 28.02 5 27 C4.01 27.33 3.02 27.66 2 28 C0.44158378 26.44158378 0.80066522 24.86864964 0.71875 22.703125 C0.68136719 21.8265625 0.64398438 20.95 0.60546875 20.046875 C0.57066406 19.12390625 0.53585938 18.2009375 0.5 17.25 C0.43068083 15.44256678 0.35786845 13.63526352 0.28125 11.828125 C0.25095703 11.0227832 0.22066406 10.21744141 0.18945312 9.38769531 C0.04844144 6.93509229 0.04844144 6.93509229 -0.58007812 4.32324219 C-1 2 -1 2 0 0 Z " fill="#0295B0" transform="translate(186,102)"/>
<path d="M0 0 C2.625 0.9375 2.625 0.9375 5 2 C5.05399736 3.45792884 5.09279177 4.91642712 5.125 6.375 C5.14820313 7.18710938 5.17140625 7.99921875 5.1953125 8.8359375 C5 11 5 11 3 13 C3 9.7 3 6.4 3 3 C1.68 3 0.36 3 -1 3 C-0.95875 4.27875 -0.9175 5.5575 -0.875 6.875 C-0.8046875 9.0546875 -0.8046875 9.0546875 -1 11 C-1.66 11.66 -2.32 12.32 -3 13 C-2.505 13.99 -2.505 13.99 -2 15 C-5.75 18 -5.75 18 -8 18 C-8 18.66 -8 19.32 -8 20 C-15.3973076 20.04629419 -22.79458407 20.08185426 -30.19200706 20.10362434 C-33.62675459 20.1140717 -37.06140317 20.12824805 -40.49609375 20.15087891 C-44.44269638 20.17672063 -48.38925863 20.18646493 -52.3359375 20.1953125 C-53.57242035 20.20563507 -54.8089032 20.21595764 -56.08285522 20.22659302 C-57.22388702 20.22674408 -58.36491882 20.22689514 -59.54052734 20.22705078 C-60.548685 20.231492 -61.55684265 20.23593323 -62.59555054 20.24050903 C-65 20 -65 20 -67 18 C-66.33680756 18.00888245 -65.67361511 18.01776489 -64.99032593 18.0269165 C-58.07973866 18.11549956 -51.16931304 18.17578015 -44.25830078 18.21972656 C-41.68010912 18.23982563 -39.10196296 18.26710941 -36.52392578 18.30175781 C-32.81531539 18.35034847 -29.10730844 18.37298658 -25.3984375 18.390625 C-23.67311295 18.42159271 -23.67311295 18.42159271 -21.91293335 18.45318604 C-15.66692633 18.45493224 -11.65848709 18.36325146 -7 14 C-5.23464127 10.5953796 -4.08708793 7.27663225 -2.9375 3.625 C-2 1 -2 1 0 0 Z " fill="#ADD9E2" transform="translate(157,111)"/>
<path d="M0 0 C0.91727371 0.00960754 1.83454742 0.01921509 2.77961731 0.02911377 C5.81515118 0.06212627 8.85054215 0.10245016 11.88598633 0.14282227 C13.98919672 0.16712117 16.09241242 0.19096485 18.19563293 0.21437073 C23.73426349 0.27723442 29.27280024 0.34629468 34.81134033 0.41662598 C40.46182988 0.48728873 46.11238599 0.55211802 51.76293945 0.61743164 C62.85220531 0.74647346 73.94138085 0.88205868 85.03051758 1.02172852 C85.03051758 1.35172852 85.03051758 1.68172852 85.03051758 2.02172852 C39.49051758 2.51672852 39.49051758 2.51672852 -6.96948242 3.02172852 C-6.96948242 3.68172852 -6.96948242 4.34172852 -6.96948242 5.02172852 C-9.27948242 5.35172852 -11.58948242 5.68172852 -13.96948242 6.02172852 C-14.62948242 5.03172852 -15.28948242 4.04172852 -15.96948242 3.02172852 C-14.64948242 3.35172852 -13.32948242 3.68172852 -11.96948242 4.02172852 C-11.96948242 3.03172852 -11.96948242 2.04172852 -11.96948242 1.02172852 C-7.9712041 -0.31103092 -4.1644094 -0.06209805 0 0 Z " fill="#23A4BB" transform="translate(78.969482421875,151.978271484375)"/>
<path d="M0 0 C4.86080395 3.93493653 6.26633166 10.05522946 7 16 C7.11231834 19.29313099 7.09475064 22.58047319 7.0625 25.875 C7.05798828 26.75414062 7.05347656 27.63328125 7.04882812 28.5390625 C7.03712337 30.69273803 7.01919069 32.84637817 7 35 C5.68 35 4.36 35 3 35 C3.15847412 34.42475586 3.31694824 33.84951172 3.48022461 33.25683594 C3.97913326 31.09060223 4.19888324 29.10677317 4.31640625 26.890625 C4.35830078 26.13652344 4.40019531 25.38242188 4.44335938 24.60546875 C4.48267578 23.82816406 4.52199219 23.05085938 4.5625 22.25 C4.60568359 21.45722656 4.64886719 20.66445312 4.69335938 19.84765625 C4.79902991 17.89862185 4.89997966 15.94933252 5 14 C4.34 13.67 3.68 13.34 3 13 C2.375 10.4375 2.375 10.4375 2 8 C1.01 10.97 0.02 13.94 -1 17 C-2.43179085 14.1364183 -3.84229684 11.2790848 -5.1875 8.375 C-5.73470703 7.21097656 -5.73470703 7.21097656 -6.29296875 6.0234375 C-6.52628906 5.35570312 -6.75960937 4.68796875 -7 4 C-6.67 3.34 -6.34 2.68 -6 2 C-5.34 2.33 -4.68 2.66 -4 3 C-4 3.99 -4 4.98 -4 6 C-3.01 6 -2.02 6 -1 6 C-0.67 4.02 -0.34 2.04 0 0 Z " fill="#61B9CA" transform="translate(170,173)"/>
<path d="M0 0 C0.05789006 3.45826342 0.09355821 6.91640293 0.125 10.375 C0.14175781 11.35984375 0.15851563 12.3446875 0.17578125 13.359375 C0.18222656 14.30039063 0.18867187 15.24140625 0.1953125 16.2109375 C0.20578613 17.08024902 0.21625977 17.94956055 0.22705078 18.84521484 C0 21 0 21 -2 23 C-2.99 23 -3.98 23 -5 23 C-6.90417311 4.80834621 -6.90417311 4.80834621 -5 1 C-2 0 -2 0 0 0 Z " fill="#0597B2" transform="translate(81,100)"/>
<path d="M0 0 C2.56364483 -0.10845031 5.12266279 -0.18749744 7.6875 -0.25 C8.40873047 -0.28351563 9.12996094 -0.31703125 9.87304688 -0.3515625 C13.88194518 -0.42478439 15.57169678 -0.28590487 19.01953125 2.015625 C19.67308594 2.67046875 20.32664063 3.3253125 21 4 C20.67 4.66 20.34 5.32 20 6 C18.68 5.34 17.36 4.68 16 4 C15.04451807 7.20359171 14.89616432 10.05087202 14.9375 13.38671875 C14.94523438 14.40701172 14.95296875 15.42730469 14.9609375 16.47851562 C14.97382813 17.53748047 14.98671875 18.59644531 15 19.6875 C15.02538258 21.79552305 15.04645854 23.90360392 15.0625 26.01171875 C15.07410156 26.94459717 15.08570313 27.87747559 15.09765625 28.83862305 C15 31 15 31 14 32 C11.03 32 8.06 32 5 32 C5 23.75 5 15.5 5 7 C8.465 6.505 8.465 6.505 12 6 C11.67 5.34 11.34 4.68 11 4 C11.33 3.34 11.66 2.68 12 2 C8.04 1.67 4.08 1.34 0 1 C0 0.67 0 0.34 0 0 Z M6 8 C6 15.59 6 23.18 6 31 C8.64 31 11.28 31 14 31 C14.02887512 27.35418313 14.04675585 23.70839537 14.0625 20.0625 C14.07087891 19.02158203 14.07925781 17.98066406 14.08789062 16.90820312 C14.09111328 15.91884766 14.09433594 14.92949219 14.09765625 13.91015625 C14.10289307 12.99371338 14.10812988 12.07727051 14.11352539 11.13305664 C14.23921211 9.01636977 14.23921211 9.01636977 13 8 C10.69 8 8.38 8 6 8 Z " fill="#95CCD5" transform="translate(171,99)"/>
<path d="M0 0 C4.29 0.33 8.58 0.66 13 1 C13 3 13 3 11 5.125 C10.34 5.74375 9.68 6.3625 9 7 C9.33 7.33 9.66 7.66 10 8 C10.33 7.34 10.66 6.68 11 6 C12.45880109 6.14107747 13.91703551 6.28802415 15.375 6.4375 C16.18710938 6.51871094 16.99921875 6.59992188 17.8359375 6.68359375 C20 7 20 7 22 8 C22.40729228 10.32156597 22.74438677 12.6568787 23 15 C21.29115995 13.37660195 19.62553283 11.70680947 18 10 C18 9.34 18 8.68 18 8 C13.545 10.97 13.545 10.97 9 14 C7.02 12.68 5.04 11.36 3 10 C4.98 7.69 6.96 5.38 9 3 C4.545 2.01 4.545 2.01 0 1 C0 0.67 0 0.34 0 0 Z " fill="#48AFC0" transform="translate(67,158)"/>
<path d="M0 0 C2 1.5625 2 1.5625 3 3 C1.02 3 -0.96 3 -3 3 C-3 2.34 -3 1.68 -3 1 C-5.02045442 1.60183749 -7.02111039 2.27306096 -9 3 C-9.33 3.66 -9.66 4.32 -10 5 C-10.33 4.01 -10.66 3.02 -11 2 C-11.66 2 -12.32 2 -13 2 C-13 3.65 -13 5.3 -13 7 C-8.545 6.505 -8.545 6.505 -4 6 C-3.67 6.66 -3.34 7.32 -3 8 C-4.98 8.33 -6.96 8.66 -9 9 C-9.66 11.31 -10.32 13.62 -11 16 C-11.33 16 -11.66 16 -12 16 C-12.33 13.69 -12.66 11.38 -13 9 C-13.99 9.66 -14.98 10.32 -16 11 C-16 10.34 -16 9.68 -16 9 C-16.66 9 -17.32 9 -18 9 C-18 11.97 -18 14.94 -18 18 C-18.33 18 -18.66 18 -19 18 C-19.35230537 13.04815227 -19.5204295 9.14494491 -17.4375 4.5625 C-12.14324445 -1.00325583 -7.12534888 -1.6625814 0 0 Z " fill="#62B9C9" transform="translate(53,51)"/>
<path d="M0 0 C1.78764869 2.3239433 3.4460323 4.67580652 5.0625 7.125 C6.85486566 9.98233955 6.85486566 9.98233955 9 12 C7.68 12.33 6.36 12.66 5 13 C5 14.65 5 16.3 5 18 C0.7835599 16.43835552 -1.41869823 13.58514135 -4 10 C-4 8.68 -4 7.36 -4 6 C-3.01 5.34 -2.02 4.68 -1 4 C-0.27617533 1.94074861 -0.27617533 1.94074861 0 0 Z " fill="#1799B2" transform="translate(81,117)"/>
<path d="M0 0 C3 3 3 3 3.5 6.3125 C2.85896872 11.0401057 1.54004626 12.83655441 -2 16 C-5.67470825 17.03149705 -7.85487682 17.44043199 -11.4375 16.0625 C-11.953125 15.711875 -12.46875 15.36125 -13 15 C-12.34 14.67 -11.68 14.34 -11 14 C-10.34 14.33 -9.68 14.66 -9 15 C-8.40267181 12.23735711 -8 9.83967231 -8 7 C-7.34 7 -6.68 7 -6 7 C-6 6.01 -6 5.02 -6 4 C-5.34 4 -4.68 4 -4 4 C-3.67 5.98 -3.34 7.96 -3 10 C-2.01 10 -1.02 10 0 10 C0 6.7 0 3.4 0 0 Z " fill="#55B6C5" transform="translate(139,104)"/>
<path d="M0 0 C0 0.33 0 0.66 0 1 C-2.31 1.33 -4.62 1.66 -7 2 C-7.33 2.99 -7.66 3.98 -8 5 C-6.68 5.66 -5.36 6.32 -4 7 C-4.66 8.32 -5.32 9.64 -6 11 C-6.66 11 -7.32 11 -8 11 C-8 10.01 -8 9.02 -8 8 C-10.50037734 10.17424117 -11.43628586 11.73045798 -12 15 C-11.34 15 -10.68 15 -10 15 C-9.67 15.99 -9.34 16.98 -9 18 C-11.73789749 16.99610425 -12.82231282 16.3046066 -14.3125 13.75 C-15.16010726 10.35957096 -14.97851621 8.35491272 -14 5 C-9.89621665 -1.15567502 -7.05123795 -1.19738003 0 0 Z " fill="#53B3C6" transform="translate(105,101)"/>
<path d="M0 0 C3.37462715 0.54723683 5.08235 1.0549 8 3 C8.1875 5.625 8.1875 5.625 8 8 C7.34 8 6.68 8 6 8 C5.608125 8.94875 5.21625 9.8975 4.8125 10.875 C3 14 3 14 0.5 15.375 C-2 16 -2 16 -5 16 C-5.33 16.66 -5.66 17.32 -6 18 C-7.32 17.67 -8.64 17.34 -10 17 C-8.9375 14.5 -8.9375 14.5 -7 12 C-4.6670386 11.95833998 -2.3329614 11.95833998 0 12 C2.34243941 10.65459838 2.34243941 10.65459838 3 8 C2.31646874 5.1797608 1.23924308 2.61829821 0 0 Z " fill="#0395AF" transform="translate(51,58)"/>
<path d="M0 0 C0.99 0 1.98 0 3 0 C3 0.99 3 1.98 3 3 C5.97 3.495 5.97 3.495 9 4 C9.33 3.01 9.66 2.02 10 1 C10.99 0.67 11.98 0.34 13 0 C14 1 14 1 14.0625 3.5625 C14.041875 4.366875 14.02125 5.17125 14 6 C11.36 6.33 8.72 6.66 6 7 C5.67 7.99 5.34 8.98 5 10 C3.68 9.67 2.36 9.34 1 9 C1 8.34 1 7.68 1 7 C0.34 7 -0.32 7 -1 7 C-0.67 4.69 -0.34 2.38 0 0 Z " fill="#0396B2" transform="translate(94,109)"/>
<path d="M0 0 C5.28 0 10.56 0 16 0 C16.33 4.29 16.66 8.58 17 13 C18.32 12.34 19.64 11.68 21 11 C21 10.34 21 9.68 21 9 C22.32 9.66 23.64 10.32 25 11 C23.3125 13.5 23.3125 13.5 21 16 C18.375 16.5 18.375 16.5 16 16 C12.83579142 11.25368713 13.87887245 6.63243123 14 1 C9.38 1 4.76 1 0 1 C0 0.67 0 0.34 0 0 Z " fill="#86C9D5" transform="translate(139,90)"/>
<path d="M0 0 C0.33 1.32 0.66 2.64 1 4 C0.34 4 -0.32 4 -1 4 C-1 4.99 -1 5.98 -1 7 C-0.01 7.66 0.98 8.32 2 9 C2 9.99 2 10.98 2 12 C2.99 10.68 3.98 9.36 5 8 C4.34 12.62 3.68 17.24 3 22 C2.34 20.68 1.68 19.36 1 18 C0.34 17.01 -0.32 16.02 -1 15 C-1.99 15.495 -1.99 15.495 -3 16 C-4.7353094 12.52938121 -3.74855954 8.71080798 -3 5 C-1.4375 1.9375 -1.4375 1.9375 0 0 Z " fill="#37A9C1" transform="translate(65,174)"/>
<path d="M0 0 C2.40015088 1.72510845 3.78848827 3.14910928 4.51171875 6.05859375 C4.77786755 9.56584351 4.68409498 11.99397797 2.671875 14.953125 C0.84899973 16.71031107 -0.70785146 17.92030069 -3 19 C-6.9375 18.875 -6.9375 18.875 -10 18 C-6.777893 14.1334716 -3.85077588 13.11940982 1 12 C0.9278125 11.30132812 0.855625 10.60265625 0.78125 9.8828125 C0.6884375 8.97273438 0.595625 8.06265625 0.5 7.125 C0.4071875 6.22007813 0.314375 5.31515625 0.21875 4.3828125 C0 2 0 2 0 0 Z " fill="#4BB0C1" transform="translate(106,102)"/>
<path d="M0 0 C1.32 0.66 2.64 1.32 4 2 C4 2.99 4 3.98 4 5 C4.99 5.33 5.98 5.66 7 6 C7.8125 7.8125 7.8125 7.8125 8 10 C7.0625 12.25 7.0625 12.25 6 14 C5.67 13.34 5.34 12.68 5 12 C4.34 12 3.68 12 3 12 C3 11.01 3 10.02 3 9 C2.195625 8.7525 1.39125 8.505 0.5625 8.25 C-2 7 -2 7 -3 5.0625 C-3 3 -3 3 -1.5625 1.25 C-1.046875 0.8375 -0.53125 0.425 0 0 Z " fill="#0295AF" transform="translate(163,167)"/>
<path d="M0 0 C2.375 0.6875 2.375 0.6875 3.375 1.6875 C3.5625 4.125 3.5625 4.125 3.375 6.6875 C1.375 8.6875 1.375 8.6875 -1.125 8.9375 C-3.625 8.6875 -3.625 8.6875 -5.625 6.6875 C-5.9375 4.1875 -5.9375 4.1875 -5.625 1.6875 C-2.625 -0.3125 -2.625 -0.3125 0 0 Z " fill="#78C0CE" transform="translate(111.625,188.3125)"/>
<path d="M0 0 C1.20272819 2.40545638 1.10071472 3.94996953 1.0625 6.625 C1.05347656 7.44226563 1.04445312 8.25953125 1.03515625 9.1015625 C1.02355469 9.72804688 1.01195312 10.35453125 1 11 C-0.32 10.67 -1.64 10.34 -3 10 C-3.33 8.02 -3.66 6.04 -4 4 C-5.65 4 -7.3 4 -9 4 C-9 2.68 -9 1.36 -9 0 C-5.68955197 -1.10348268 -3.34493684 -0.99444068 0 0 Z " fill="#0596AD" transform="translate(139,104)"/>
<path d="M0 0 C3.125 0.375 3.125 0.375 6 1 C6.625 3.875 6.625 3.875 7 7 C5 9 5 9 2.5 9.25 C0 9 0 9 -2 7 C-2.25 4.5 -2.25 4.5 -2 2 C-1.34 1.34 -0.68 0.68 0 0 Z " fill="#8BC6D1" transform="translate(121,188)"/>
<path d="M0 0 C-0.66 0 -1.32 0 -2 0 C-2.12375 0.598125 -2.2475 1.19625 -2.375 1.8125 C-3 4 -3 4 -5 7 C-3.02 6.67 -1.04 6.34 1 6 C0.278125 6.556875 -0.44375 7.11375 -1.1875 7.6875 C-3.97457299 9.97909334 -6.48641528 12.41459857 -9 15 C-9 14.01 -9 13.02 -9 12 C-9.66 11.67 -10.32 11.34 -11 11 C-10.360625 10.236875 -9.72125 9.47375 -9.0625 8.6875 C-6.85767219 6.11753287 -6.85767219 6.11753287 -6 3 C-7.32 3.33 -8.64 3.66 -10 4 C-4.75 -1.425 -4.75 -1.425 0 0 Z " fill="#50B3C7" transform="translate(92,86)"/>
<path d="M0 0 C1.32 1.32 2.64 2.64 4 4 C0.8557224 5.83982899 -1.41868789 6.24536016 -5.04394531 6.22705078 C-6.54504852 6.22682419 -6.54504852 6.22682419 -8.07647705 6.22659302 C-9.14952087 6.21627045 -10.2225647 6.20594788 -11.328125 6.1953125 C-12.43226746 6.1924826 -13.53640991 6.18965271 -14.67401123 6.18673706 C-18.1994512 6.17554489 -21.72463685 6.15044175 -25.25 6.125 C-27.64062133 6.11496897 -30.03124664 6.10584333 -32.421875 6.09765625 C-38.28133673 6.0756087 -44.14065019 6.04214053 -50 6 C-50 5.67 -50 5.34 -50 5 C-33.83 4.67 -17.66 4.34 -1 4 C-0.67 2.68 -0.34 1.36 0 0 Z " fill="#63B8C7" transform="translate(203,37)"/>
<path d="M0 0 C1.32 0 2.64 0 4 0 C4 1.65 4 3.3 4 5 C4.99 5.33 5.98 5.66 7 6 C6.6875 7.875 6.6875 7.875 6 10 C5.01 10.66 4.02 11.32 3 12 C2.67 11.34 2.34 10.68 2 10 C2.66 10 3.32 10 4 10 C3.34 9.34 2.68 8.68 2 8 C-1.11785113 8.64644661 -1.11785113 8.64644661 -2 11 C-3.32 10.67 -4.64 10.34 -6 10 C-3.69 7.36 -1.38 4.72 1 2 C0.67 1.34 0.34 0.68 0 0 Z " fill="#57B6C8" transform="translate(141,161)"/>
<path d="M0 0 C2.375 2 2.375 2 4 4 C3.01 4.495 3.01 4.495 2 5 C2 4.34 2 3.68 2 3 C1.29875 3.33 0.5975 3.66 -0.125 4 C-3.26003116 5.09044562 -5.70563182 5.15322643 -9 5 C-9.33 5.99 -9.66 6.98 -10 8 C-10.66 8 -11.32 8 -12 8 C-12 9.98 -12 11.96 -12 14 C-12.33 14 -12.66 14 -13 14 C-13.59865471 8.01345291 -13.59865471 8.01345291 -11.95703125 5.234375 C-8.18127751 0.67246726 -5.89929128 -0.58992913 0 0 Z " fill="#4DAFC3" transform="translate(135,100)"/>
<path d="M0 0 C2.1385485 2.1385485 2.42655063 3.13275314 3 6 C2.01 6.33 1.02 6.66 0 7 C-0.33 7.99 -0.66 8.98 -1 10 C-2.093125 9.896875 -3.18625 9.79375 -4.3125 9.6875 C-5.529375 9.790625 -6.74625 9.89375 -8 10 C-10.00864359 12.3726974 -10.00864359 12.3726974 -11 15 C-13.46800047 13.84826645 -15.04783565 12.95216435 -17 11 C-17 10.01 -17 9.02 -17 8 C-16.01 8.33 -15.02 8.66 -14 9 C-14 9.66 -14 10.32 -14 11 C-13.01 11.33 -12.02 11.66 -11 12 C-10.67 10.02 -10.34 8.04 -10 6 C-9.071875 6.37125 -8.14375 6.7425 -7.1875 7.125 C-5.6096875 7.558125 -5.6096875 7.558125 -4 8 C-0.68539295 6.29107501 -0.68539295 6.29107501 -0.3125 2.875 C-0.209375 1.92625 -0.10625 0.9775 0 0 Z " fill="#53B3C3" transform="translate(52,61)"/>
<path d="M0 0 C2.87105327 2.87105327 2.80272795 4.98880169 3 9 C1.68566159 12.94301524 0.42574771 16.4679256 -3 19 C-3.66 19 -4.32 19 -5 19 C-5.33 17.68 -5.66 16.36 -6 15 C-5.34 14.67 -4.68 14.34 -4 14 C-3.27306096 12.02111039 -2.60183749 10.02045442 -2 8 C-1.01 8.33 -0.02 8.66 1 9 C0.67 6.03 0.34 3.06 0 0 Z " fill="#4FB1C4" transform="translate(58,57)"/>
<path d="M0 0 C5 1 5 1 7 3 C7.125 6.125 7.125 6.125 7 9 C5.35 9.66 3.7 10.32 2 11 C1.34 7.37 0.68 3.74 0 0 Z " fill="#25A2B9" transform="translate(215,19)"/>
<path d="M0 0 C0.598125 0.763125 1.19625 1.52625 1.8125 2.3125 C3.46959332 4.3483575 5.10297674 6.1978279 7 8 C5.68 8.33 4.36 8.66 3 9 C3 10.65 3 12.3 3 14 C-0.7952131 12.50902342 -2.61042731 10.24299151 -5 7 C-4.21625 7.061875 -3.4325 7.12375 -2.625 7.1875 C-1.75875 7.125625 -0.8925 7.06375 0 7 C0.66 6.01 1.32 5.02 2 4 C1.34 4 0.68 4 0 4 C0 2.68 0 1.36 0 0 Z " fill="#4EAEBF" transform="translate(83,121)"/>
<path d="M0 0 C0.66 0.33 1.32 0.66 2 1 C2 7.27 2 13.54 2 20 C0.68 20 -0.64 20 -2 20 C-1.84152588 19.42024414 -1.68305176 18.84048828 -1.51977539 18.24316406 C-0.71911382 14.78779602 -0.62776918 11.28089697 -0.4375 7.75 C-0.39431641 7.00492188 -0.35113281 6.25984375 -0.30664062 5.4921875 C-0.20103275 3.661651 -0.10005799 1.83084824 0 0 Z " fill="#4FABBB" transform="translate(175,188)"/>
<path d="M0 0 C0.66 0.33 1.32 0.66 2 1 C2 2.32 2 3.64 2 5 C0.68 5 -0.64 5 -2 5 C-2 5.66 -2 6.32 -2 7 C-2.66 7 -3.32 7 -4 7 C-4 8.65 -4 10.3 -4 12 C-5.32 11.67 -6.64 11.34 -8 11 C-7.125 6.25 -7.125 6.25 -6 4 C-4 2.66666667 -2 1.33333333 0 0 Z " fill="#0395B3" transform="translate(72,69)"/>
<path d="M0 0 C1.75 2.1875 1.75 2.1875 3 5 C2.1875 7.8125 2.1875 7.8125 1 10 C-0.875 9.8125 -0.875 9.8125 -3 9 C-4.4375 6.6875 -4.4375 6.6875 -5 4 C-2.83783784 0 -2.83783784 0 0 0 Z " fill="#0395B1" transform="translate(129,109)"/>
<path d="M0 0 C3 2 3 2 3.75 4.3125 C4.01128999 7.12136742 3.69940974 9.28007322 3 12 C2.01 12.33 1.02 12.66 0 13 C-0.66 12.34 -1.32 11.68 -2 11 C-2 9.68 -2 8.36 -2 7 C-1.34 7 -0.68 7 0 7 C0 4.69 0 2.38 0 0 Z " fill="#2FA5BA" transform="translate(93,165)"/>
<path d="M0 0 C0.66 0.33 1.32 0.66 2 1 C1.34 2.32 0.68 3.64 0 5 C0.99 5 1.98 5 3 5 C2.38461538 10.53846154 2.38461538 10.53846154 0.4375 12.875 C-0.2740625 13.431875 -0.2740625 13.431875 -1 14 C-1 12.68 -1 11.36 -1 10 C-1.99 9.34 -2.98 8.68 -4 8 C-3.67 7.01 -3.34 6.02 -3 5 C-2.34 5 -1.68 5 -1 5 C-0.67 3.35 -0.34 1.7 0 0 Z " fill="#0495AD" transform="translate(67,173)"/>
<path d="M0 0 C2.31 0.33 4.62 0.66 7 1 C7 2.32 7 3.64 7 5 C5.56465159 5.2226746 4.12654475 5.42761906 2.6875 5.625 C1.88699219 5.74101563 1.08648437 5.85703125 0.26171875 5.9765625 C-2 6 -2 6 -5 4 C-3.68 4 -2.36 4 -1 4 C-0.67 2.68 -0.34 1.36 0 0 Z " fill="#169EB7" transform="translate(46,72)"/>
<path d="M0 0 C2.625 -0.1875 2.625 -0.1875 5 0 C5 0.66 5 1.32 5 2 C4.34 2 3.68 2 3 2 C2.67 2.99 2.34 3.98 2 5 C-0.31 5.33 -2.62 5.66 -5 6 C-5 4.35 -5 2.7 -5 1 C-4.34 1 -3.68 1 -3 1 C-2.67 1.66 -2.34 2.32 -2 3 C-1.34 2.01 -0.68 1.02 0 0 Z " fill="#0395AE" transform="translate(45,52)"/>
<path d="M0 0 C-3.12621626 3.39417765 -5.56541027 5.6062718 -10 7 C-9.60856977 4.72970466 -9.11258722 3.16591802 -7.8125 1.25 C-5.21312784 -0.54267046 -3.07660784 -0.20510719 0 0 Z " fill="#4DB1C4" transform="translate(157,130)"/>
<path d="M0 0 C1.0528418 0.01353516 1.0528418 0.01353516 2.12695312 0.02734375 C3.85561525 0.05086296 5.58410145 0.08673287 7.3125 0.125 C7.3125 0.455 7.3125 0.785 7.3125 1.125 C1.7025 1.785 -3.9075 2.445 -9.6875 3.125 C-10.0175 4.445 -10.3475 5.765 -10.6875 7.125 C-10.875 4.75 -10.875 4.75 -10.6875 2.125 C-7.00662647 -0.32891569 -4.24394412 -0.10302759 0 0 Z " fill="#B1DBE3" transform="translate(89.6875,187.875)"/>
<path d="M0 0 C4.62 0 9.24 0 14 0 C13.01 0.495 13.01 0.495 12 1 C12.33 2.65 12.66 4.3 13 6 C11.68 6 10.36 6 9 6 C9 4.35 9 2.7 9 1 C6.03 1 3.06 1 0 1 C0 0.67 0 0.34 0 0 Z " fill="#0E91A9" transform="translate(171,100)"/>
<path d="M0 0 C1.42944945 2.35438733 2.08661261 3.48032433 1.625 6.25 C1.41875 6.8275 1.2125 7.405 1 8 C-0.65 8.33 -2.3 8.66 -4 9 C-4.33 8.01 -4.66 7.02 -5 6 C-4.34 5.67 -3.68 5.34 -3 5 C-2.67 4.01 -2.34 3.02 -2 2 C-1.34 2 -0.68 2 0 2 C0 1.34 0 0.68 0 0 Z " fill="#2CA4BA" transform="translate(82,62)"/>
<path d="M0 0 C1.65 0.33 3.3 0.66 5 1 C5 1.99 5 2.98 5 4 C4.34 4.66 3.68 5.32 3 6 C0.875 5.625 0.875 5.625 -1 5 C-0.67 3.35 -0.34 1.7 0 0 Z " fill="#0695AE" transform="translate(122,190)"/>
<path d="M0 0 C0.66 0 1.32 0 2 0 C1.814375 0.556875 1.62875 1.11375 1.4375 1.6875 C0.83463761 4.05608681 0.83463761 4.05608681 1.5625 6.625 C1.706875 7.40875 1.85125 8.1925 2 9 C1.34 9.66 0.68 10.32 0 11 C0 9.68 0 8.36 0 7 C-0.99 7 -1.98 7 -3 7 C-2.67 5.68 -2.34 4.36 -2 3 C-1.34 3 -0.68 3 0 3 C0 2.01 0 1.02 0 0 Z " fill="#25A4B9" transform="translate(70,171)"/>
<path d="M0 0 C0.66 0 1.32 0 2 0 C2.5304408 2.26860837 3.04905434 4.53998489 3.5625 6.8125 C3.85253906 8.07707031 4.14257812 9.34164062 4.44140625 10.64453125 C5 14 5 14 4 17 C1.16625922 11.33251843 0.36776168 6.30267439 0 0 Z " fill="#8DCAD2" transform="translate(58,138)"/>
<path d="M0 0 C2 1.4375 2 1.4375 4 4 C4.35442445 7.02824418 4.23347235 9.96485939 4 13 C1.08410391 8.62615587 -0.30254716 5.29457529 0 0 Z " fill="#63BACA" transform="translate(106,102)"/>
<path d="M0 0 C2.1385485 2.1385485 2.42655063 3.13275314 3 6 C2.01 6.33 1.02 6.66 0 7 C-0.33 7.99 -0.66 8.98 -1 10 C-2.98 10 -4.96 10 -7 10 C-7.33 9.34 -7.66 8.68 -8 8 C-6.02 7.67 -4.04 7.34 -2 7 C-1.34 4.69 -0.68 2.38 0 0 Z " fill="#7FC4D3" transform="translate(52,61)"/>
<path d="M0 0 C1.32 0.66 2.64 1.32 4 2 C4 2.66 4 3.32 4 4 C2.35 4 0.7 4 -1 4 C-0.34 4.33 0.32 4.66 1 5 C0.67 5.99 0.34 6.98 0 8 C-0.99 7.34 -1.98 6.68 -3 6 C-2.42655063 3.13275314 -2.1385485 2.1385485 0 0 Z " fill="#22A3BA" transform="translate(163,167)"/>
<path d="M0 0 C-0.66 1.32 -1.32 2.64 -2 4 C-3.65 4 -5.3 4 -7 4 C-7 2.68 -7 1.36 -7 0 C-3.86650268 -1.04449911 -3.01031744 -0.93423645 0 0 Z " fill="#0696AC" transform="translate(87,191)"/>
<path d="M0 0 C0.928125 0.0825 1.85625 0.165 2.8125 0.25 C2.1525 1.57 1.4925 2.89 0.8125 4.25 C-1.4975 4.25 -3.8075 4.25 -6.1875 4.25 C-4.36434338 1.00883268 -3.82500054 0.30000004 0 0 Z " fill="#1DA1B4" transform="translate(156.1875,125.75)"/>
<path d="M0 0 C-1 3 -1 3 -3 5 C-4.32 5 -5.64 5 -7 5 C-7 3.68 -7 2.36 -7 1 C-4.53721199 -0.231394 -2.7204945 -0.07159196 0 0 Z " fill="#0896AE" transform="translate(142,190)"/>
<path d="M0 0 C1.15837573 3.47512718 0.77265943 5.13670286 0.0625 8.6875 C-0.13214844 9.68136719 -0.32679687 10.67523438 -0.52734375 11.69921875 C-0.68332031 12.45847656 -0.83929688 13.21773437 -1 14 C-2.20628008 11.66785852 -3.1654738 9.50357861 -4 7 C-2.92745123 4.48301368 -1.45196548 2.33194455 0 0 Z " fill="#82C7D3" transform="translate(69,182)"/>
<path d="M0 0 C0 3 0 3 -2.3125 5.6875 C-5 8 -5 8 -8 8 C-8 7.34 -8 6.68 -8 6 C-7.01 6 -6.02 6 -5 6 C-4.9175 5.38125 -4.835 4.7625 -4.75 4.125 C-4 2 -4 2 -1.9375 0.75 C-1.298125 0.5025 -0.65875 0.255 0 0 Z " fill="#71BBCC" transform="translate(143,173)"/>
<path d="M0 0 C1.65 0 3.3 0 5 0 C4.01 0.33 3.02 0.66 2 1 C2.66 2.65 3.32 4.3 4 6 C2.35 5.67 0.7 5.34 -1 5 C-0.67 3.35 -0.34 1.7 0 0 Z " fill="#0F96B1" transform="translate(108,190)"/>
<path d="M0 0 C1.32 0.33 2.64 0.66 4 1 C3.3125 2.9375 3.3125 2.9375 2 5 C-0.625 5.75 -0.625 5.75 -3 6 C-2 4 -1 2 0 0 Z " fill="#0196AE" transform="translate(90,87)"/>
<path d="M0 0 C0.99 0 1.98 0 3 0 C3 1.65 3 3.3 3 5 C1.02 5 -0.96 5 -3 5 C-1.6875 2.5 -1.6875 2.5 0 0 Z " fill="#0496AE" transform="translate(120,85)"/>
<path d="M0 0 C1.65 0 3.3 0 5 0 C5 1.65 5 3.3 5 5 C2.03 4.505 2.03 4.505 -1 4 C-0.67 2.68 -0.34 1.36 0 0 Z " fill="#39A9C1" transform="translate(147,66)"/>
<path d="M0 0 C1.65 0 3.3 0 5 0 C5.5625 1.9375 5.5625 1.9375 6 4 C5 5 5 5 1.9375 5.0625 C0.4834375 5.0315625 0.4834375 5.0315625 -1 5 C0.32 3.68 1.64 2.36 3 1 C2.01 0.67 1.02 0.34 0 0 Z " fill="#40AAB7" transform="translate(150,190)"/>
<path d="M0 0 C-0.33 0.99 -0.66 1.98 -1 3 C-1.66 3 -2.32 3 -3 3 C-3.33 3.66 -3.66 4.32 -4 5 C-5.32 4.67 -6.64 4.34 -8 4 C-3.375 0 -3.375 0 0 0 Z " fill="#32A7BE" transform="translate(143,167)"/>
<path d="M0 0 C1.32 0.33 2.64 0.66 4 1 C4.33 3.31 4.66 5.62 5 8 C2.5 5.6875 2.5 5.6875 0 3 C0 2.01 0 1.02 0 0 Z " fill="#5BB5C7" transform="translate(85,165)"/>
<path d="M0 0 C0.66 0 1.32 0 2 0 C2 2.31 2 4.62 2 7 C0.68 6.67 -0.64 6.34 -2 6 C-1.34 4.02 -0.68 2.04 0 0 Z " fill="#0397B8" transform="translate(138,108)"/>
<path d="M0 0 C1.98 0.495 1.98 0.495 4 1 C4 2.98 4 4.96 4 7 C2.35 5.35 0.7 3.7 -1 2 C-0.67 1.34 -0.34 0.68 0 0 Z " fill="#25A2BE" transform="translate(48,54)"/>
<path d="M0 0 C2.31 0.33 4.62 0.66 7 1 C5.75 2.5625 5.75 2.5625 4 4 C1.8125 3.6875 1.8125 3.6875 0 3 C0 2.01 0 1.02 0 0 Z " fill="#39A8C5" transform="translate(78,164)"/>
<path d="M0 0 C1.98 0 3.96 0 6 0 C6 0.66 6 1.32 6 2 C3 4 3 4 -1 4 C-0.67 2.68 -0.34 1.36 0 0 Z " fill="#53B1C4" transform="translate(185,134)"/>
<path d="M0 0 C1.65 0.33 3.3 0.66 5 1 C5 2.65 5 4.3 5 6 C4.01 5.67 3.02 5.34 2 5 C2 4.01 2 3.02 2 2 C1.01 2.33 0.02 2.66 -1 3 C-0.67 2.01 -0.34 1.02 0 0 Z " fill="#0593AD" transform="translate(156,113)"/>
<path d="M0 0 C0.33 1.32 0.66 2.64 1 4 C0.01 4.33 -0.98 4.66 -2 5 C-2 6.98 -2 8.96 -2 11 C-2.33 11 -2.66 11 -3 11 C-3.36923077 4.6 -3.36923077 4.6 -1.5 1.5625 C-1.005 1.046875 -0.51 0.53125 0 0 Z " fill="#88C7D0" transform="translate(125,103)"/>
<path d="M0 0 C0.33 0.66 0.66 1.32 1 2 C1.99 2 2.98 2 4 2 C3.34 3.32 2.68 4.64 2 6 C1.34 6 0.68 6 0 6 C-0.38218767 4.34385343 -0.71395102 2.67542976 -1 1 C-0.67 0.67 -0.34 0.34 0 0 Z " fill="#0297B5" transform="translate(81,123)"/>
<path d="M0 0 C1.98 0.495 1.98 0.495 4 1 C4 1.99 4 2.98 4 4 C2.35 3.67 0.7 3.34 -1 3 C-0.67 2.01 -0.34 1.02 0 0 Z " fill="#0097AD" transform="translate(103,103)"/>
<path d="M0 0 C0.33 0.99 0.66 1.98 1 3 C0.34 3 -0.32 3 -1 3 C-0.67 2.01 -0.34 1.02 0 0 Z M2 2 C2.66 2.33 3.32 2.66 4 3 C3.67 3.99 3.34 4.98 3 6 C1.35 5.67 -0.3 5.34 -2 5 C-1.67 4.34 -1.34 3.68 -1 3 C-0.01 3.33 0.98 3.66 2 4 C2 3.34 2 2.68 2 2 Z " fill="#219BB9" transform="translate(216,83)"/>
</svg>
