<?xml version="1.0" encoding="UTF-8"?>
<svg id="Layer_2" data-name="Layer 2" xmlns="http://www.w3.org/2000/svg" viewBox="0 0 503.35 374.76">
  <defs>
    <style>
      .cls-1 {
        fill: #fff;
        stroke-width: 0px;
      }
    </style>
  </defs>
  <g id="Layer_1-2" data-name="Layer 1">
    <path class="cls-1" d="M166.86,76.62c.19-.15.33-.22.4-.33,3.97-5.71,8.7-10.74,13.8-15.43,3.62-3.33,7.4-6.46,11.4-9.32,3.73-2.66,7.65-5,11.71-7.12,1.9-.99,3.77-2.04,5.7-2.95,2.32-1.09,4.67-2.13,7.06-3.05,2.66-1.03,5.35-1.97,8.07-2.84,1.76-.57,3.58-.96,5.37-1.43,1.24-.32,2.48-.64,3.73-.93.97-.23,1.95-.43,2.94-.59,1.64-.28,3.29-.53,4.93-.77.47-.07.95-.08,1.42-.15,6.39-.9,12.81-1.14,19.26-1.03,2.11.04,4.18.36,6.27.44,2.48.09,4.92.59,7.38.82,1.89.18,3.76.62,5.63.95,1.36.24,2.72.48,4.06.76,1.3.28,2.59.62,3.88.94,1.11.27,2.22.54,3.31.85,1.46.42,2.93.83,4.36,1.33,1.89.66,3.74,1.41,5.61,2.09,2.91,1.06,5.71,2.35,8.5,3.69,3.22,1.55,6.4,3.17,9.45,5.04,3.01,1.84,5.93,3.81,8.77,5.91,5.07,3.75,9.81,7.89,14.29,12.32,2.17,2.15,4.27,4.36,6.14,6.78.12.15.26.28.4.4.24.2.59.14.73-.15.42-.86.82-1.72,1.21-2.58,1.31-2.85,2.64-5.7,3.92-8.57,2.1-4.69,4.19-9.38,6.24-14.09,2.11-4.84,4.17-9.71,6.23-14.56,2.48-5.82,5.2-11.54,7.84-17.29,1.49-3.24,2.91-6.51,4.38-9.77.43-.95.88-1.9,1.35-2.84.89-1.77,2.32-2.77,4.3-2.85,2.1-.09,4.2-.11,6.29-.12,11.64-.01,23.27,0,34.91,0,.43,0,.86.01,1.29.03.24,0,.48.02.71.06,1.98.4,2.82,1.63,2.04,3.52-.54,1.32-1.15,2.61-1.72,3.92-.93,2.14-1.84,4.28-2.77,6.43-1.08,2.49-2.16,4.97-3.24,7.45-1.11,2.53-2.22,5.05-3.34,7.58-1.67,3.78-3.33,7.58-5.03,11.35-1.48,3.3-2.99,6.59-4.52,9.87-1.26,2.72-2.58,5.41-3.86,8.12-2.25,4.78-4.54,9.54-6.72,14.34-2.46,5.41-4.81,10.87-7.23,16.31-1.55,3.48-3.12,6.94-4.68,10.41-1.21,2.69-2.42,5.38-3.65,8.06-1.39,3.02-2.83,6.02-4.19,9.06-1.5,3.34-2.94,6.71-4.41,10.07-1.22,2.79-2.44,5.57-3.7,8.35-1.63,3.6-3.33,7.16-4.95,10.77-2.31,5.16-4.58,10.35-6.86,15.53-1.38,3.13-2.73,6.28-4.12,9.41-.99,2.22-2.04,4.41-3.02,6.62-1.56,3.52-3.07,7.07-4.63,10.59-2.1,4.74-4.24,9.46-6.35,14.19-2.1,4.69-4.19,9.38-6.28,14.07-1.28,2.87-2.57,5.73-3.87,8.59-.63,1.39-1.26,2.77-1.93,4.13-.73,1.48-1.96,2.28-3.6,2.46-3.66.41-7.32.58-10.99.36-1.57-.09-3.15-.14-4.72-.15-6.77-.04-13.55-.05-20.32-.09-1.67,0-3.34-.1-5-.13-1.17-.03-1.95-.64-2.56-1.57-.34-.53-.39-1.05-.12-1.62.38-.82.75-1.64,1.1-2.47,1.53-3.59,3.03-7.18,4.58-10.76,1.24-2.88,2.53-5.75,3.79-8.62,1.11-2.53,2.21-5.06,3.31-7.58.92-2.09,1.85-4.18,2.75-6.28.54-1.27,1.01-2.56,1.54-3.83.22-.53.53-1.01.75-1.54.06-.14.01-.4-.09-.51-.1-.11-.37-.16-.51-.1-.43.19-.82.48-1.25.67-2.57,1.12-5.12,2.29-7.8,3.11-2.23.68-4.42,1.46-6.65,2.14-1.09.33-2.22.55-3.33.8-1.44.33-2.87.69-4.32.95-1.73.31-3.48.55-5.22.8-.8.11-1.62.12-2.42.24-1.61.25-3.22.36-4.84.39-1.86.03-3.72.19-5.58.17-2.96-.03-5.91-.14-8.87-.25-.85-.03-1.7-.2-2.56-.3-.62-.07-1.23-.18-1.85-.2-1.1-.03-2.17-.23-3.25-.46-1.44-.31-2.91-.49-4.35-.77-1.21-.23-2.43-.49-3.62-.8-1.8-.46-3.59-.94-5.37-1.49-2.14-.65-4.28-1.3-6.37-2.09-2.08-.8-4.1-1.76-6.13-2.69-.69-.31-1.33-.74-1.99-1.1-.16-.09-.34-.22-.51-.22-.16,0-.36.09-.49.21-.07.07-.1.3-.04.39,1.01,1.68,1.73,3.49,2.53,5.27,1.11,2.47,2.23,4.94,3.31,7.43,1.98,4.58,3.95,9.17,5.9,13.77,1.67,3.94,3.32,7.89,4.98,11.84.48,1.14.92,2.3,1.42,3.42.24.54.3,1.1.3,1.67,0,1.03-.67,1.83-1.7,1.96-.71.09-1.43.11-2.14.12-8.16.07-16.31.13-24.47.19-3.48.03-6.96.1-10.44.06-1.86-.02-3.71-.19-5.56-.41-1.44-.17-2.62-.84-3.28-2.22-.73-1.55-1.51-3.07-2.18-4.65-1.93-4.56-3.86-9.11-5.95-13.6-2.03-4.36-4-8.74-5.94-13.14-1.21-2.74-2.29-5.54-3.48-8.29-1.31-3.01-2.67-6-4.02-8.99-1.74-3.86-3.48-7.72-5.24-11.57-2.11-4.63-4.24-9.26-6.36-13.89-1.8-3.93-3.57-7.88-5.39-11.81-1.66-3.58-3.37-7.14-5.05-10.71-1.54-3.27-3.09-6.54-4.59-9.83-2.33-5.1-4.64-10.22-6.93-15.34-2.07-4.65-4.11-9.32-6.16-13.97-1.53-3.48-3.07-6.96-4.61-10.44-1.46-3.31-2.89-6.63-4.38-9.92-.98-2.17-2.04-4.29-3.06-6.44-1.12-2.37-2.25-4.73-3.34-7.11-.93-2.03-1.83-4.08-2.74-6.12-1.11-2.48-2.23-4.95-3.34-7.42-2.09-4.69-4.18-9.39-6.26-14.08-1.06-2.39-2.1-4.79-3.16-7.18-1.13-2.57-2.28-5.13-3.41-7.7-1.5-3.45-2.98-6.9-4.47-10.35-.3-.7-.62-1.39-.91-2.09-.21-.53-.43-1.06-.56-1.61-.3-1.26.42-2.43,1.7-2.69.65-.13,1.33-.19,1.99-.19,13.26.08,26.52.17,39.78.26,1,0,2,.04,3,.14.9.09,1.8.23,2.58.74.73.48,1.32,1.09,1.69,1.89.72,1.55,1.48,3.09,2.19,4.65,1.1,2.43,2.17,4.86,3.25,7.3,1.35,3.05,2.69,6.09,4.02,9.15.99,2.26,1.96,4.54,2.92,6.81,1.6,3.76,3.23,7.51,4.75,11.31,1.75,4.37,3.62,8.69,5.49,13.01,1.62,3.75,3.25,7.5,4.92,11.23.99,2.21,2.09,4.38,3.12,6.57.36.77.67,1.58,1.02,2.35.19.42.34.89.89,1.19ZM258.92,167.27c2.11-.05,3.69-.04,5.26-.14,1.38-.08,2.75-.25,4.12-.42,1.99-.24,3.97-.47,5.95-.77,1.13-.17,2.24-.44,3.35-.71,1.15-.29,2.3-.61,3.43-.96,1.55-.46,3.11-.89,4.62-1.46,2.17-.82,4.29-1.8,6.46-2.65,4.87-1.92,9.25-4.67,13.5-7.67,3.4-2.4,6.46-5.19,9.46-8.06,1.24-1.19,2.44-2.41,3.64-3.64,1.83-1.88,3.53-3.88,5.14-5.95.85-1.09,1.77-2.15,2.43-3.36,1.38-2.55,2.58-5.19,3.69-7.88.92-2.24,1.87-4.47,2.78-6.72.72-1.76,1.4-3.54,2.09-5.31.69-1.77,1.32-3.56,2.06-5.31.32-.75.27-1.3-.18-1.98-1.98-2.98-4.02-5.9-6.15-8.77-3.35-4.5-7.16-8.57-11.36-12.25-5.89-5.16-12.25-9.69-19.22-13.32-2.83-1.47-5.76-2.72-8.75-3.83-2.01-.74-4.04-1.42-6.1-1.98-1.88-.51-3.75-1.07-5.64-1.55-1.2-.3-2.44-.44-3.63-.77-1.89-.52-3.85-.64-5.77-.97-1.45-.25-2.94-.31-4.41-.43-1.04-.09-2.09-.17-3.14-.19-2.19-.03-4.39-.03-6.58-.03-2.24,0-4.48.04-6.69.49-.28.06-.57.07-.85.08-1.91.09-3.76.58-5.64.91-1.26.22-2.51.55-3.75.88-1.75.47-3.49.93-5.21,1.48-1.94.63-3.87,1.29-5.74,2.13-2,.89-4.04,1.69-6,2.64-4.16,2.01-8.22,4.21-12.02,6.86-2.42,1.69-4.85,3.37-7.17,5.2-2.13,1.68-4.19,3.46-6.15,5.34-2.2,2.11-4.34,4.3-6.33,6.61-2.52,2.92-4.89,5.97-6.96,9.24-1.09,1.73-2.1,3.52-3.16,5.27-.38.63-.37,1.22-.03,1.88.81,1.61,1.56,3.26,2.35,4.88,1.93,3.94,4.03,7.78,6.26,11.55,1.35,2.3,2.79,4.54,4.33,6.73,1.56,2.23,3.14,4.44,4.95,6.46,2.61,2.91,5.28,5.76,8.2,8.38,2.67,2.39,5.43,4.65,8.41,6.63,4.25,2.84,8.73,5.25,13.41,7.29,3.31,1.45,6.75,2.56,10.24,3.49,1.01.27,2.03.52,3.06.7,1.55.26,3.09.57,4.63.84,2.36.4,4.73.56,7.1.82,2.08.22,4.19.2,5.74.26Z"/>
    <path class="cls-1" d="M454.87,262.44c3,0,6,.08,8.99-.03,1.45-.06,2.51.24,3.1,1.64,2.8,4.09,5.6,8.18,8.39,12.27,2.01,2.95,4.04,5.9,6.02,8.87,2.33,3.49,4.66,6.97,6.9,10.51.89,1.4,1.55,2.95,2.28,4.44.14.29.14.65.26.96.19.48.4.96.64,1.42.05.09.26.15.38.12.12-.02.28-.15.3-.26.06-.27.09-.56.07-.84-.11-1.57-.24-3.14-.35-4.71-.09-1.19-.22-2.38-.22-3.57-.02-9.83-.02-19.66-.02-29.48,0-.41-.12-.86.23-1.26.11-.03.24-.09.37-.09,3.39,0,6.77.01,10.16.02.1,0,.19-.01.29,0,.43.02.63.19.66.58.03.33.02.67.02,1,0,15.74,0,31.49,0,47.23,0,2.72.01,5.44,0,8.16,0,.37-.04.75-.06,1.19-.27.06-.49.14-.71.14-3.15,0-6.29-.01-9.44.02-.75,0-1.23-.26-1.65-.88-2.01-2.96-4.06-5.88-6.11-8.82-1.55-2.23-3.13-4.44-4.68-6.67-1.96-2.82-3.93-5.62-5.86-8.46-1.9-2.8-3.78-5.61-5.61-8.46-1.11-1.72-2.18-3.47-2.75-5.47-.04-.13-.11-.3-.21-.35-.2-.09-.45-.16-.66-.13-.28.04-.37.31-.32.55.67,2.84.71,5.76.97,8.65.15,1.66.07,3.34.08,5.01,0,7.78,0,15.55,0,23.33,0,.51.13,1.05-.17,1.53-.89.19-9.43.26-11.48.09-.04-.19-.14-.41-.14-.63,0-18.75,0-37.5.02-56.25,0-.41-.16-.86.29-1.37Z"/>
    <path class="cls-1" d="M135.89,288.39c.44-.03.86-.07,1.27-.08,12.63-.14,25.58-.06,26.81.18.03.29.1.61.1.93,0,3.91-.06,7.83.03,11.74.03,1.62-.34,3.12-.88,4.59-1.04,2.8-2.65,5.25-4.74,7.4-2.1,2.17-4.35,4.14-7.01,5.6-2.43,1.34-5.01,2.23-7.74,2.82-3.46.74-6.92.63-10.4.45-1.27-.07-2.55-.38-3.78-.74-3.46-.99-6.66-2.54-9.55-4.71-2.77-2.08-5.09-4.59-7-7.48-1.37-2.07-2.52-4.27-3.35-6.61-.68-1.93-1.25-3.89-1.54-5.93-.28-1.99-.5-3.97-.49-5.98.02-2.59.42-5.11,1.04-7.62.58-2.33,1.43-4.54,2.53-6.65.61-1.18,1.3-2.34,2.08-3.41,2.9-4.02,6.54-7.15,11.12-9.15,1.49-.65,3.02-1.21,4.59-1.51,1.81-.34,3.62-.84,5.51-.78,1.38.05,2.77,0,4.15,0,1.44,0,2.84.24,4.26.45,1.85.27,3.64.75,5.37,1.39,2.61.95,5.04,2.25,7.16,4.07,2.59,2.23,4.74,4.82,6.33,7.86.51.97.91,1.98,1.4,3.06-.31.14-.55.29-.8.35-1.81.4-3.63.78-5.44,1.17-1.21.26-2.42.53-3.61.84-.79.2-1.58.32-2.45.38-.12-.28-.24-.53-.35-.78-1.42-3.3-3.75-5.71-7.05-7.13-1.68-.72-3.42-1.17-5.27-1.13-.81.02-1.62,0-2.43,0-2.63.04-5.07.79-7.32,2.11-3.5,2.05-5.93,5.02-7.35,8.82-1.24,3.32-1.59,6.72-1.29,10.25.26,3.04,1.07,5.89,2.5,8.57,2.04,3.84,5.01,6.76,9,8.45,3.25,1.38,6.69,1.73,10.22.93,2.97-.67,5.56-1.95,7.62-4.21,1.83-2,3-4.28,2.88-7.08-.01-.33.06-.66.06-1,0-.45-.23-.71-.69-.75-.28-.03-.57-.01-.86-.01-4.58.01-9.16.02-13.74.03-.14,0-.29,0-.43,0-.38-.03-.59-.26-.62-.65,0-.09,0-.19,0-.29,0-2.81,0-5.62.01-8.44,0-.04.03-.09.11-.33Z"/>
    <path class="cls-1" d="M414.79,261.33c1.24.05,2.52.09,3.81.15.38.02.78,0,1.13.14,1.21.44,2.5.53,3.74.92,1.32.41,2.61.89,3.85,1.46,3.54,1.63,6.68,3.84,9.3,6.76,2.31,2.58,4.09,5.48,5.35,8.71,1.77,4.51,2.53,9.17,2.18,13.99-.19,2.66-.67,5.27-1.5,7.83-1.59,4.91-4.21,9.15-7.95,12.69-2.51,2.38-5.38,4.24-8.54,5.64-2.23.99-4.57,1.57-6.98,1.98-2.38.41-4.74.53-7.11.27-1.65-.18-3.29-.45-4.91-.88-1.76-.47-3.45-1.05-5.1-1.79-1.49-.67-2.85-1.53-4.19-2.44-1.5-1.03-2.89-2.18-4.16-3.48-2.84-2.9-4.93-6.27-6.43-10.03-.8-2-1.38-4.07-1.67-6.18-.39-2.73-.66-5.49-.34-8.27.1-.85.09-1.72.24-2.56.2-1.17.45-2.34.77-3.48.93-3.38,2.41-6.51,4.46-9.36,1.9-2.65,4.19-4.93,6.85-6.83,1.75-1.25,3.62-2.3,5.6-3.12,1.58-.66,3.23-1.09,4.9-1.49,2.21-.53,4.44-.53,6.72-.64ZM432.01,291.98c.05-3.45-.5-6.52-1.79-9.45-2.74-6.2-7.71-9.21-14.26-9.88-1.7-.17-3.41-.04-5.11.36-1.16.27-2.3.56-3.4,1.03-2.88,1.24-5.18,3.21-6.92,5.8-1.44,2.15-2.45,4.51-2.78,7.11-.04.28-.06.57-.14.85-.32,1.16-.38,2.35-.4,3.54-.02,1.49.23,2.94.46,4.4.32,2.05.94,3.99,1.89,5.81,2.82,5.36,7.35,8.22,13.31,8.85,1.18.12,2.38.04,3.57.02,2.18-.04,4.23-.69,6.17-1.63,3.97-1.93,6.56-5.14,8.08-9.23.93-2.52,1.44-5.14,1.32-7.58Z"/>
    <path class="cls-1" d="M319.51,302.02c.05.25.12.47.15.7.26,2.04,1.03,3.86,2.37,5.41,1.19,1.37,2.75,2.19,4.43,2.77,1.83.63,3.73.8,5.65.6,3.08-.31,5.6-1.63,7.05-4.45,2.02-3.93.45-8.67-3.74-10.14-2.03-.71-4.08-1.28-6.18-1.72-.93-.2-1.85-.44-2.77-.7-2.42-.7-4.87-1.31-7.23-2.21-2.34-.9-4.48-2.09-6.32-3.81-1.58-1.47-2.55-3.31-3.14-5.36-.59-2.03-.77-4.11-.65-6.23.36-6.13,4.03-11.47,9.43-13.75,3.63-1.53,7.4-2.09,11.29-1.99,1.62.04,3.25.15,4.85.39,2.31.35,4.53,1.05,6.57,2.26,2.71,1.61,4.96,3.7,6.57,6.43,1.45,2.46,2.2,5.13,2.33,8.06-.27.09-.48.21-.69.22-3.72.06-7.44.11-11.16.15-.13,0-.26-.08-.42-.13-.22-.77-.44-1.54-.66-2.31-.89-3.16-3.11-4.79-6.22-5.36-1.27-.23-2.58-.21-3.85,0-2.07.33-3.74,1.37-4.95,3.09-.47.67-.77,1.42-.81,2.26-.07,1.29-.17,2.56.39,3.79.82,1.83,2.25,2.94,4.11,3.49,1.87.55,3.78.96,5.69,1.33,2.47.48,4.93,1.06,7.37,1.71,1.88.5,3.72,1.19,5.41,2.18,3.16,1.84,5.49,4.43,6.71,7.88.86,2.44,1.22,4.99.98,7.6-.03.38-.07.76-.11,1.14-.47,4.85-2.63,8.81-6.39,11.86-2.32,1.89-5,3.06-7.9,3.83-2.06.55-4.15.58-6.24.62-1.71.03-3.43-.04-5.15-.11-4.12-.18-7.81-1.55-11.09-4.06-2.75-2.11-4.78-4.77-6-8.01-.45-1.2-.85-2.43-1.11-3.69-.22-1.06-.23-2.18-.31-3.27-.02-.27.17-.44.43-.49.14-.03.28-.03.43-.03,3.43-.03,6.87-.06,10.3-.09.18,0,.36.07.59.12Z"/>
    <path class="cls-1" d="M223.61,320.61c-.97.18-11.1.23-12.67.06-.39-1.03-.82-2.08-1.2-3.15-.89-2.51-1.76-5.03-2.65-7.53-.17-.49-.44-.94-.68-1.42-.29-.04-.52-.09-.75-.09-6.58,0-13.16.02-19.74-.02-.87,0-1.35.43-1.58,1.12-.65,1.89-1.34,3.76-2.01,5.63-.56,1.57-1.1,3.14-1.65,4.71-.24.68-.43.84-1.14.84-3.72.02-7.44.02-11.16.03-.13,0-.27-.07-.47-.13,0-.18-.05-.38,0-.53.9-2.4,1.81-4.8,2.71-7.21.88-2.36,1.74-4.73,2.63-7.09.93-2.5,1.89-4.98,2.81-7.48,1.48-4.01,2.94-8.04,4.42-12.05.89-2.41,1.83-4.8,2.72-7.21.89-2.41,1.73-4.84,2.61-7.25.86-2.37,1.75-4.73,2.63-7.09.13-.36.26-.72.37-1.08.14-.47.35-.89.86-1.22.82,0,1.72,0,2.63,0,2.67,0,5.34,0,8.01,0,.38,0,.76,0,1.14.03.36.03.62.22.75.57.78,2.09,1.57,4.18,2.34,6.28.7,1.87,1.39,3.75,2.08,5.62.74,2.01,1.48,4.02,2.23,6.02.63,1.69,1.28,3.38,1.91,5.07.5,1.33,1.02,2.67,1.51,4,.69,1.87,1.37,3.75,2.07,5.62.72,1.92,1.46,3.82,2.18,5.74,1.12,2.98,2.24,5.96,3.36,8.94,1.07,2.85,2.13,5.71,3.19,8.56.15.4.34.78.48,1.19.06.17.04.36.06.53ZM187.97,298.65c.38.04.7.11,1.02.11,3.91,0,7.82,0,11.73,0,.67,0,1.33.05,2,.05.61,0,.9-.39.71-.92-.41-1.11-.84-2.22-1.26-3.33-.52-1.38-1.04-2.76-1.55-4.14-.71-1.92-1.44-3.82-2.13-5.75-.54-1.52-.98-3.08-1.53-4.6-.36-1-.54-2.02-.64-3.07,0-.09-.03-.19-.05-.28-.01-.05-.02-.11-.05-.13-.18-.14-.34-.33-.54-.38-.26-.06-.46.14-.5.39-.09.51-.08,1.06-.23,1.55-.44,1.46-.91,2.9-1.41,4.34-.66,1.88-1.38,3.75-2.06,5.63-.7,1.92-1.39,3.84-2.08,5.76-.47,1.3-.96,2.58-1.41,3.89-.08.25-.01.55-.01.9Z"/>
    <path class="cls-1" d="M101.35,310.34c.19,1.26.19,9.04,0,10.32-.24.03-.5.1-.77.1-12.11,0-24.23,0-36.34,0-.28,0-.55-.05-.76-.07-.1-.1-.14-.13-.17-.17-.03-.04-.06-.08-.06-.13-.02-19.17-.04-38.35-.06-57.52,0-.08.08-.17.12-.25.08-.05.16-.14.24-.14,12.15,0,24.31,0,36.52,0,.07.3.19.57.2.84,0,3.1,0,6.2-.01,9.3,0,.13-.08.26-.15.45-.48.21-1.01.12-1.52.12-7.2,0-14.4,0-21.6,0-.56,0-1.15-.12-1.8.21-.04.3-.13.67-.13,1.03-.01,3.77,0,7.54,0,11.3,0,.7.22.92.96.92,1.91,0,3.81,0,5.72,0,5.34,0,10.68,0,16.02,0,.23,0,.47.03.77.05.07.27.19.54.19.8.02,2.81.03,5.63.04,8.44,0,.05,0,.1,0,.14-.02.56-.25.79-.78.78-7.25-.02-14.49-.04-21.74-.06-1.01,0-1.15.12-1.15,1.13,0,3.39.01,6.77.02,10.16,0,.48-.03.95,0,1.43.02.46.28.7.73.71.81,0,1.62-.02,2.43-.02,7.01,0,14.02,0,21.03,0,.66,0,1.33-.09,2.06.11Z"/>
    <path class="cls-1" d="M0,262.67c.17-.14.21-.19.24-.19,4.1-.01,8.19-.02,12.29-.02.14,0,.27.07.48.13.21.54.46,1.1.66,1.68,1.01,2.97,2.02,5.94,3.01,8.92.87,2.62,1.69,5.25,2.57,7.86.88,2.61,1.8,5.21,2.68,7.82.71,2.12,1.37,4.25,2.08,6.37.48,1.44,1.04,2.85,1.51,4.3.5,1.53.97,3.08,1.4,4.64.25.91.61,1.81.59,2.79,0,.09.03.21.09.26.13.12.29.29.43.28.15,0,.35-.16.42-.31.1-.2.12-.46.16-.69.54-3.25,1.45-6.4,2.54-9.5.91-2.6,1.75-5.23,2.64-7.84.68-1.98,1.4-3.94,2.08-5.91.91-2.65,1.79-5.32,2.7-7.97.88-2.56,1.79-5.11,2.67-7.67.49-1.43.97-2.88,1.44-4.32.24-.74.41-.86,1.25-.86,3.43.02,6.86.04,10.3.05.33,0,.66-.04,1.01-.06.07.15.2.3.16.39-.77,2.19-1.54,4.38-2.33,6.56-.67,1.83-1.37,3.65-2.04,5.48-.89,2.46-1.76,4.93-2.63,7.39-.53,1.48-1.06,2.95-1.59,4.42-.64,1.79-1.29,3.58-1.92,5.37-.7,1.97-1.38,3.95-2.07,5.92-.76,2.15-1.5,4.31-2.28,6.45-.87,2.41-1.79,4.81-2.67,7.22-.68,1.88-1.32,3.77-2.01,5.64-.43,1.15-.69,2.37-1.42,3.44-.24.01-.47.04-.71.04-3.91,0-7.82,0-11.73-.01-.19,0-.38.01-.57.01-.43,0-.69-.22-.84-.63-.37-1.08-.78-2.14-1.16-3.22-.71-2.02-1.42-4.04-2.13-6.05-.89-2.51-1.8-5.01-2.69-7.52-.9-2.5-1.8-5.01-2.7-7.51-.88-2.46-1.74-4.93-2.62-7.4-.72-2.01-1.47-4.02-2.19-6.03-.68-1.87-1.34-3.75-2.01-5.63-.71-1.97-1.43-3.93-2.14-5.9-.69-1.92-1.38-3.85-2.07-5.78-.29-.8-.58-1.6-.88-2.44Z"/>
    <path class="cls-1" d="M255.15,320.71c-.32.03-.5.06-.69.06-3.86,0-7.72,0-11.59,0-.29,0-.57,0-.86-.01-.93-.02-1.05-.12-1.35-.95-.96-2.69-1.93-5.37-2.89-8.06-.66-1.84-1.29-3.68-1.95-5.52-.7-1.97-1.42-3.93-2.13-5.9-.67-1.88-1.33-3.76-2.01-5.64-.53-1.48-1.08-2.95-1.62-4.42-.47-1.3-.92-2.6-1.38-3.9-.68-1.93-1.35-3.86-2.03-5.78-.52-1.48-1.05-2.95-1.58-4.43-.47-1.3-.94-2.59-1.41-3.89-.71-1.97-1.41-3.94-2.12-5.91-.34-.94-.71-1.87-1.04-2.81-.11-.3-.14-.62-.22-.99.27-.06.44-.13.62-.13,3.62,0,7.25.02,10.87.03.1,0,.19,0,.29,0,.65-.08,1.08.11,1.28.81.26.86.64,1.69.92,2.54,1.08,3.25,2.12,6.51,3.2,9.75.69,2.07,1.43,4.13,2.12,6.2.49,1.48.93,2.99,1.41,4.48.44,1.36.91,2.7,1.37,4.05.53,1.58,1.07,3.15,1.61,4.73.65,1.89,1.3,3.78,1.95,5.66.69,1.98,1.42,3.93,1.9,5.98.16.68.44,1.03.7.92.43-.19.37-.6.45-.97.18-.88.35-1.77.61-2.64.48-1.64,1-3.27,1.53-4.89.68-2.08,1.36-4.16,2.06-6.22.69-2.02,1.42-4.04,2.12-6.06.68-1.98,1.33-3.96,2.02-5.94.9-2.61,1.82-5.2,2.72-7.81.68-1.98,1.35-3.97,2.02-5.95.44-1.31.85-2.62,1.28-3.93.15-.45.47-.7.97-.7.29,0,.57,0,.86,0,3.1.01,6.2.02,9.3.03.47,0,.94,0,1.5,0,.03.16.12.36.07.5-.76,2.15-1.53,4.29-2.32,6.43-.87,2.37-1.76,4.72-2.62,7.09-.92,2.55-1.81,5.11-2.73,7.65-.71,1.97-1.45,3.92-2.15,5.89-.88,2.46-1.74,4.93-2.62,7.4-.69,1.92-1.4,3.84-2.09,5.76-.67,1.83-1.33,3.66-1.99,5.5-.72,2.02-1.43,4.03-2.14,6.05-.52,1.48-1.03,2.96-1.56,4.44-.18.49-.4.96-.64,1.52Z"/>
    <path class="cls-1" d="M297.63,320.69c-2.89.17-10.55.11-11.67-.1-.03-.39-.08-.8-.08-1.21,0-7.44,0-14.88,0-22.31,0-10.97,0-21.93,0-32.9,0-.51-.12-1.05.11-1.52.06-.06.09-.09.13-.12.04-.03.08-.06.12-.06,3.71,0,7.43,0,11.17,0,.33.18.31.51.31.85,0,9.96-.01,19.93,0,29.89,0,8.92.03,17.83.04,26.75,0,.22-.08.45-.13.73Z"/>
    <path class="cls-1" d="M363.46,262.46h11.4c.4.39.28.84.28,1.26.01,3.29.01,6.58.01,9.87,0,15.26,0,30.52,0,45.79,0,.38,0,.75,0,1.16-.24.09-.41.21-.57.22-3.53.01-7.06.01-10.58,0-.14,0-.27-.06-.51-.11-.05-.29-.15-.6-.15-.91,0-10.83,0-21.65,0-32.48,0-8.01-.01-16.02-.01-24.04,0-.22.08-.45.13-.76Z"/>
    <path class="cls-1" d="M250.41,348.02c.36-.05.55-.09.73-.09,1.57,0,3.15-.02,4.72,0,.77,0,.89.15,1.09.86.56,1.97,1.14,3.93,1.71,5.89.49,1.69.92,3.4,1.46,5.08.42,1.32.66,2.68.91,4.03.07.37.16.77.67.78.39-.24.4-.64.39-1.02-.03-1.32.49-2.52.81-3.76.47-1.84,1.06-3.65,1.62-5.46.48-1.54.99-3.07,1.48-4.61.17-.54.33-1.09.48-1.6.97-.25,3.89-.29,5.24-.06.07.22.16.47.24.74.53,1.73,1.07,3.45,1.6,5.18.46,1.5.92,3,1.37,4.5.27.91.49,1.84.81,2.73.27.73.43,1.46.4,2.23,0,.14,0,.29.03.43.04.29.1.58.43.66.25.07.57-.21.66-.63.12-.56.22-1.13.26-1.69.06-.72.18-1.4.42-2.09.31-.89.5-1.83.75-2.75.55-2.02,1.12-4.03,1.64-6.06.28-1.1.55-2.21.97-3.24,1.22-.24,5.02-.21,6.01.04-.18.68-.33,1.36-.53,2.04-.7,2.37-1.44,4.73-2.13,7.1-.49,1.69-.92,3.39-1.4,5.08-.46,1.6-.96,3.18-1.43,4.78-.51,1.73-.99,3.47-1.51,5.2-.19.63-.45,1.24-.69,1.91h-5.5c-.41-.26-.5-.73-.62-1.19-.58-2.21-1.17-4.41-1.75-6.62-.46-1.75-.84-3.52-1.39-5.24-.41-1.29-.59-2.6-.76-3.92-.02-.14-.02-.31-.09-.41-.13-.17-.3-.38-.5-.43-.27-.07-.41.17-.5.41-.03.09-.06.18-.07.28-.22,3.17-1.37,6.1-2.23,9.11-.51,1.78-.96,3.58-1.45,5.37-.19.69-.39,1.37-.6,2.05-.14.47-.34.62-.82.64-.57.02-1.14,0-1.72,0-1,0-1.99,0-3.04,0-.17-.36-.37-.68-.48-1.03-.5-1.63-.97-3.28-1.47-4.92-.46-1.5-.93-2.99-1.39-4.49-.52-1.68-1.03-3.36-1.55-5.04-.52-1.68-1.04-3.36-1.55-5.05-.57-1.86-1.13-3.72-1.73-5.72Z"/>
    <path class="cls-1" d="M174.27,360.43c.16,3.38-.46,5.95-1.92,8.27-1.65,2.62-3.93,4.45-6.95,5.38-1.96.61-3.92.68-5.92.6-1.79-.07-3.47-.48-5.07-1.28-2.48-1.23-4.34-3.06-5.55-5.55-1.27-2.6-1.52-5.37-1.35-8.21.14-2.33.81-4.49,2.04-6.46,1.39-2.22,3.41-3.67,5.79-4.67,1.34-.56,2.76-.71,4.15-.99.6-.12,1.24-.12,1.85-.06,2.44.23,4.77.8,6.91,2.07,2.8,1.67,4.55,4.07,5.51,7.18.45,1.45.43,2.91.52,3.73ZM168.56,361.46c.01-1.81-.15-3.12-.69-4.37-.87-2-2.39-3.33-4.44-3.93-1.41-.41-2.89-.49-4.38-.18-2.47.51-4.16,1.9-5.2,4.19-.53,1.17-.63,2.39-.66,3.62-.03,1.42.09,2.83.64,4.19.53,1.33,1.32,2.41,2.51,3.18,2.61,1.69,5.37,1.78,8.14.53,1.7-.77,2.87-2.1,3.53-3.91.46-1.25.49-2.51.54-3.31Z"/>
    <path class="cls-1" d="M340.4,374.28c-1.06.21-4.47.22-5.5.03-.05-.08-.14-.16-.14-.24-.01-8.58-.02-17.16-.02-25.75,0-.08.08-.16.17-.33.17-.02.39-.08.62-.08,3.81,0,7.63.01,11.44.01,1.56,0,3.02.4,4.36,1.18,1.95,1.13,3.22,2.76,3.58,5.05.21,1.29.25,2.54.01,3.83-.33,1.85-1.33,3.24-2.79,4.32-.61.45-1.26.84-2.02,1.04-.66.18-.77.64-.41,1.2,1.24,1.92,2.47,3.84,3.7,5.76.64,1,1.31,1.99,1.94,2.99.17.27.28.57.41.84-.16.1-.24.18-.32.18-1.62-.02-3.24-.09-4.86-.07-.75.01-1.24-.2-1.65-.85-1.71-2.69-3.46-5.36-5.2-8.04-.13-.2-.25-.4-.39-.6-.26-.37-.59-.6-1.07-.59-1.5.03-1.9-.39-1.85,1.73.07,2.48.03,4.96.02,7.44,0,.28-.04.56-.06.91ZM340.4,356.09s.03,0,.04,0c0,.9-.02,1.81,0,2.71.02.73.24.93.95.93,1,0,2,0,3-.05.76-.04,1.52-.12,2.26-.27,1.68-.34,2.73-1.57,2.61-3.53-.1-1.59-1.02-2.63-2.6-2.92-.42-.08-.85-.13-1.27-.14-1.38-.03-2.76-.05-4.14-.05-.6,0-.84.26-.85.88,0,.81,0,1.62,0,2.43Z"/>
    <path class="cls-1" d="M322.12,374.33c-.24.07-.41.16-.58.16-1.52.01-3.05.02-4.58,0-.81,0-.98-.14-1.23-.9-.41-1.26-.83-2.53-1.23-3.79-.15-.48-.47-.69-.95-.71-.1,0-.19,0-.29,0-2.91,0-5.81,0-8.72,0-.23,0-.46.06-.77.11-.26.71-.53,1.41-.78,2.12-.26.76-.48,1.54-.73,2.31-.22.68-.46.87-1.13.87-1.67,0-3.34,0-5,0-.09,0-.18-.06-.26-.09-.02-.04-.05-.08-.07-.12-.02-.04-.04-.09-.03-.13,3.36-8.49,6.72-16.97,10.08-25.46.1-.26.29-.49.46-.78.32-.03.65-.08.97-.08,1.24-.01,2.48-.01,3.72-.02.85,0,1.11.17,1.4.92.78,2.04,1.56,4.08,2.35,6.12.7,1.82,1.41,3.63,2.12,5.45.91,2.34,1.83,4.69,2.73,7.04.83,2.17,1.64,4.36,2.46,6.54.03.09.03.19.06.45ZM308.75,364.51h0c.95-.01,1.9,0,2.85-.02.43,0,.69-.35.61-.77-.02-.14-.05-.28-.1-.41-.31-.79-.64-1.58-.93-2.38-.64-1.78-1.4-3.53-1.72-5.41-.04-.23-.1-.46-.17-.69-.03-.09-.07-.19-.14-.24-.11-.08-.25-.17-.36-.15-.11.02-.27.14-.3.24-.19.73-.28,1.49-.52,2.2-.77,2.24-1.6,4.45-2.41,6.68-.21.57.04.95.64.95.85,0,1.71,0,2.56,0Z"/>
    <path class="cls-1" d="M386.25,369.52c.2,1.28.18,3.9-.03,4.85-.15.04-.33.12-.51.13-2.01.12-15.8,0-16.8-.14-.04-.19-.13-.41-.13-.63,0-8.3,0-16.6,0-24.9,0-.23.04-.46.07-.76.3-.06.56-.15.83-.15,5.15,0,10.3,0,15.45,0,.27,0,.55.07.87.12v4.8c-.31.04-.58.11-.84.11-3.29,0-6.58-.01-9.87-.02-.65,0-.85.2-.85.86-.02,1.29-.02,2.57-.03,3.86,0,.75.19.96.9.98.33.01.67-.01,1-.01,2.53,0,5.05,0,7.58.02.37,0,.74.04,1.09.07.26.97.29,2.43.12,4.3-.32.39-.78.26-1.19.26-2.62.02-5.24.02-7.87.02-1.6,0-1.59,0-1.57,1.57.01,1.14,0,2.29-.02,3.43,0,1.01.09,1.13,1.15,1.13,2.72,0,5.44-.01,8.15,0,.8,0,1.61-.07,2.49.08Z"/>
    <path class="cls-1" d="M129.34,355.2c-.1-.26-.18-.48-.27-.69-.22-.47-.38-.99-.68-1.4-.51-.71-1.2-1.19-2.13-1.29-.96-.11-1.92-.06-2.84.19-1.13.31-1.88,1.43-1.91,2.59-.03,1.32.59,2.35,1.83,2.78.89.31,1.83.5,2.76.7,1.72.37,3.48.56,5.13,1.22,1.64.65,3.1,1.57,3.84,3.23.75,1.68,1.02,3.43.62,5.3-.75,3.43-2.95,5.47-6.13,6.56-.93.32-1.97.38-2.97.38-1.38,0-2.8.02-4.13-.3-2.48-.6-4.54-1.96-5.85-4.24-.64-1.12-1.14-2.31-1.26-3.62-.02-.18,0-.37,0-.59.22-.08.39-.19.56-.19,1.34-.02,2.67-.03,4.01-.02.66,0,.89.17.99.79.17,1,.65,1.8,1.44,2.39.85.63,1.8,1.07,2.9,1.05.52,0,1.05.03,1.57-.02,1.43-.15,2.5-.84,3.11-2.17.74-1.62.1-3.39-1.58-4-1.43-.51-2.93-.84-4.39-1.24-1.69-.46-3.42-.83-4.98-1.69-1.95-1.09-2.97-2.76-3.07-4.98-.06-1.39,0-2.74.58-4.06.51-1.14,1.24-2.04,2.23-2.72.86-.6,1.83-.96,2.85-1.26,1.4-.41,2.8-.49,4.24-.5,1.76-.01,3.4.41,4.96,1.18,2.21,1.09,3.44,2.93,3.97,5.29.05.23.05.48.03.71,0,.13-.09.26-.17.46-1.73.06-3.48.13-5.27.19Z"/>
    <path class="cls-1" d="M193.49,353.06c-.07.25-.14.39-.14.53-.01,1.67-.02,3.34-.01,5,0,.65.21.86.87.86,2.05,0,4.1,0,6.15-.02,1.1,0,2.19-.02,3.29-.01.56,0,.76.21.76.79,0,1.05,0,2.1-.02,3.14,0,.68-.17.85-.83.85-2.95,0-5.91,0-8.86,0-1.25,0-1.34.08-1.33,1.4,0,2.67.02,5.34.02,8.01,0,.23-.04.46-.05.67-.91.27-2.86.33-5.51.17-.06-.23-.18-.49-.18-.75-.01-8.44-.01-16.87-.01-25.31,0-.09.06-.17.14-.36.22-.03.49-.1.76-.1,5.19,0,10.39-.01,15.58,0,.27,0,.54.07.87.11v4.82c-.34.05-.65.12-.97.12-3.29,0-6.57-.02-9.86-.03-.18,0-.36.06-.63.11Z"/>
    <path class="cls-1" d="M239.88,347.97c0,1.6,0,3.02,0,4.44,0,.13-.12.25-.21.44-.36,0-.74,0-1.11,0-2.1-.02-4.19-.04-6.29-.06-.85,0-1.08.21-1.08,1.11,0,6.48.03,12.97.04,19.45,0,.32-.04.64-.06.94-1,.26-4.15.29-5.51.06-.03-.19-.11-.41-.11-.63,0-6.01,0-12.01,0-18.02,0-.71.03-1.43.03-2.14,0-.37-.25-.64-.6-.69-.33-.04-.66-.04-1-.04-1.95,0-3.91,0-5.86,0-.24,0-.5.05-.71-.03-.19-.07-.33-.29-.47-.46-.05-.06-.04-.18-.04-.28,0-1.28,0-2.57,0-3.77.33-.45.73-.36,1.1-.36,1.91,0,3.81-.01,5.72,0,4.86,0,9.72,0,14.58,0,.47,0,.94.03,1.59.05Z"/>
    <path class="cls-1" d="M258.82,150.47c-1.3-.06-2.7-.02-4.06-.2-2.49-.33-4.97-.78-7.38-1.56-4.61-1.48-8.61-3.98-12.3-7.04-4.49-3.73-7.72-8.37-10.06-13.68-.98-2.24-1.65-4.56-2.2-6.92-.91-3.89-.88-7.86-.61-11.81.11-1.6.6-3.17.92-4.76.39-1.97,1.14-3.82,1.88-5.68.84-2.09,1.92-4.05,3.15-5.91,2.15-3.24,4.72-6.11,7.78-8.51,2.94-2.31,6.15-4.14,9.67-5.43,1.97-.72,3.99-1.3,6.03-1.68,1.95-.37,3.93-.76,5.95-.72.81.02,1.62.01,2.43,0,1.24-.01,2.47.12,3.7.27,2.99.38,5.91,1.09,8.68,2.23,3.26,1.34,6.33,3.07,9.1,5.29,4.66,3.73,8.23,8.29,10.78,13.68,1.31,2.77,2.32,5.66,2.77,8.67.55,3.67,1.03,7.38.33,11.1-.09.47-.08.95-.15,1.42-.1.66-.22,1.31-.37,1.96-.22.97-.48,1.93-.73,2.9-.79,3.18-2.26,6.05-3.91,8.85-2.28,3.87-5.34,7.08-8.8,9.88-2.75,2.22-5.8,3.97-9.14,5.2-2.06.76-4.15,1.34-6.29,1.83-2.36.53-4.73.51-7.19.62Z"/>
  </g>
</svg>