<svg id="Camada_1" data-name="Camada 1" xmlns="http://www.w3.org/2000/svg" viewBox="0 0 1080 1080"><defs><style>.cls-1,.cls-3{fill:none;stroke-miterlimit:10;}.cls-1{stroke:#222d5d;stroke-width:60px;}.cls-2{fill:#107ef4;}.cls-3{stroke:#107ef4;stroke-width:55px;}</style></defs><path class="cls-1" d="M303,865.18C188.2,788.55,112.6,657.86,112.6,509.5,112.6,273.46,304,82.1,540,82.1M967.4,509.5c0,209.24-150.37,383.34-348.92,420.19"/><path class="cls-2" d="M666.85,515.62c39.49,0,73.24-13.85,101.08-41.85,27.84-27.85,41.84-61.73,41.84-101.37,0-39.48-14-73.07-41.84-101.07q-41.76-41.77-101.08-41.84c-39.63,0-73.52,14-101.37,41.84-27.55,28-41.4,61.59-41.4,101.07,0,39.64,13.85,73.52,41.4,101.37,27.85,28,61.74,41.85,101.37,41.85ZM471.78,827.48h-1.33a50.6,50.6,0,0,1-36.69-15c-10.43-10.29-15.47,6.84-15.47-7.45V372.4c0-68.5,24.91-126.71,73.38-174.89S598.49,125,666.85,125,794,149.34,842.63,198s72.93,107.26,72.93,175.77-24.31,127-72.93,175.63-107.27,72.93-175.78,72.93c-62.61,0-110.35-14.44-142.77-43.17V805c0,14.24-5.1-2.91-15.62,7.45a50.49,50.49,0,0,1-36.68,15Z"/><path class="cls-3" d="M467.18,997.9a90.13,90.13,0,1,0-90.13-90.13,90.13,90.13,0,0,0,90.13,90.13Z"/></svg>