<svg width="256" height="256" viewBox="0 0 256 256" fill="none" xmlns="http://www.w3.org/2000/svg">
<path d="M256 0C252.906 16.74 248.636 33.8701 244.944 51.6535C229.694 43.2773 215.874 29.7822 204.913 13.7411C221.058 8.69943 239.534 1.92395 256 0Z" fill="#4D9CFF"/>
<path d="M218.019 106.81C211.396 115.144 205.573 123.733 198.509 131.204C185.086 145.402 171.045 159.05 157.072 172.743C150.738 178.951 143.952 184.721 136.832 191.178C131.489 185.585 126.14 179.983 120.786 174.386C119.812 173.368 118.832 172.355 117.824 171.371C101.329 155.257 81.6809 134.984 65.0547 119C65.0547 119 77.1559 107.605 81.4886 103.289C95.3459 89.4832 109.066 75.5447 123.037 61.8496C143.652 41.6413 171.376 26.9899 198.241 16.2874C208.649 32.4694 225.385 47.9489 242.113 58.3442C236.037 75.3145 228.227 91.4403 218.019 106.81ZM210.626 83.9858C210.945 82.194 211.467 80.4113 211.552 78.6089C212.164 65.6323 205.819 55.9184 194.903 49.785C184.903 44.1661 173.984 44.7783 164.199 51.2078C154.583 57.5259 149.622 66.8627 149.826 78.0539C149.956 85.2142 152.729 92.0355 157.706 97.6381C163.069 103.676 175.772 109.802 186.081 107.504C199.127 104.597 206.439 96.4817 210.626 83.9858Z" fill="#4D9CFF"/>
<path d="M0.593928 255.67C9.16101 216.98 30.5787 191.883 56.6062 167.833C50.4705 158.109 54.3773 151.531 61.0547 144.5C61.0547 144.5 57.1428 140.688 56.6062 140.17C47.1186 150.929 36.5423 161.24 27.0547 172C29.6513 136.872 30.5631 100.37 33.1792 64.977C61.071 72.7714 85.357 71.3217 111.507 60.4953C111.411 60.1267 111.603 60.864 111.507 60.4953C92.0102 80.3024 51.4603 119.594 51.4603 119.594C77.9232 145.86 110.564 177.343 137.241 203.822L195.382 147.981C187.357 173.315 181.738 196.69 190.249 222.463C154.386 225.185 119.406 227.84 83.0571 230.599C83.0571 230.599 104.845 210.48 115.055 199.5L111.055 195.819C105.317 201.906 98.0063 203.027 90.5941 200.761C77.878 212.189 42.894 255.67 0.593928 255.67C3.05742 254.266 -1.56863 256.88 0.593928 255.67Z" fill="#4D9CFF"/>
<ellipse cx="180.503" cy="76.8579" rx="21.9531" ry="21.4366" fill="#4D9CFF"/>
</svg>
