<?xml version="1.0" encoding="utf-8"?>
<!-- Generator: Adobe Illustrator 16.0.3, SVG Export Plug-In . SVG Version: 6.00 Build 0)  -->
<!DOCTYPE svg PUBLIC "-//W3C//DTD SVG 1.1//EN" "http://www.w3.org/Graphics/SVG/1.1/DTD/svg11.dtd">
<svg version="1.1" id="Capa_2" xmlns="http://www.w3.org/2000/svg" xmlns:xlink="http://www.w3.org/1999/xlink" x="0px" y="0px"
	 width="2458px" height="512px" viewBox="0 0 2458 512" enable-background="new 0 0 2458 512" xml:space="preserve">
<g>
	<g>
		<path fill="#7A5F4C" d="M252.649,373.262c125.758-2.636,191.07-73.51,221.864-124.419
			C452.234,124.281,370.042,2.284,245.062,2.284c-94.001,0-196.013,90.529-211.537,235.66
			C57.573,291.245,117.212,376.098,252.649,373.262z"/>
		<path fill="#5E493B" d="M474.512,248.846c-30.794,50.91-96.106,121.781-221.864,124.418
			C117.212,376.101,57.573,291.25,33.522,237.95c-2.332,21.824-2.729,44.864-0.836,69.037C47.214,491.897,197.279,512,267.919,512
			c70.641,0,217.595-68.327,212.465-208.975C479.734,285.157,477.757,266.975,474.512,248.846z"/>
	</g>
	<path fill="#493028" d="M205.604,41.15c10.197,0,18.465,5.072,18.465,11.331c0,6.264-8.268,11.336-18.465,11.336
		c-10.203,0-18.47-5.072-18.47-11.336C187.134,46.222,195.401,41.15,205.604,41.15z"/>
	<path fill="#493028" d="M290.184,41.15c10.203,0,18.47,5.072,18.47,11.331c0,6.264-8.267,11.336-18.47,11.336
		c-10.197,0-18.47-5.072-18.47-11.336C271.715,46.222,279.988,41.15,290.184,41.15z"/>
	<ellipse fill="#493028" cx="249.452" cy="26.173" rx="18.47" ry="7.694"/>
</g>
<g>
	<path fill="#1C1C1C" stroke="#191919" stroke-width="8" d="M753.023,411.092c-20.944,0-40.347-3.764-58.202-11.278
		c-17.861-7.514-33.431-17.986-46.723-31.417c-13.292-13.424-23.632-28.931-31.014-46.521
		c-7.389-17.584-11.077-36.452-11.077-56.591c0-20.14,3.556-39.07,10.674-56.793c7.112-17.722,17.181-33.291,30.208-46.722
		c13.021-13.425,28.528-23.966,46.521-31.619c17.986-7.653,37.861-11.479,59.611-11.479c23.091,0,42.896,3.625,59.41,10.875
		s31.077,18.396,43.702,33.431l-39.875,34.639c-16.917-17.722-38-26.583-63.237-26.583c-17.993,0-33.632,4.298-46.924,12.89
		c-13.292,8.596-23.563,20.006-30.813,34.236c-7.25,14.235-10.875,29.943-10.875,47.125c0,17.188,3.625,32.826,10.875,46.924
		s17.584,25.375,31.014,33.834c13.424,8.458,29.403,12.688,47.931,12.688c13.694,0,25.778-2.278,36.25-6.848
		c10.473-4.563,19.869-11.41,28.195-20.542l41.083,35.042c-10.743,12.889-25.042,23.563-42.896,32.021
		C799.003,406.862,777.724,411.092,753.023,411.092z"/>
	<path fill="#1C1C1C" stroke="#191919" stroke-width="8" d="M970.523,411.092c-21.486,0-40.681-4.972-57.598-14.903
		c-16.917-9.931-30.146-23.159-39.674-39.674c-9.535-16.514-14.299-34.841-14.299-54.979s4.764-38.528,14.299-55.181
		c9.528-16.646,22.757-29.938,39.674-39.876c16.917-9.931,36.112-14.902,57.598-14.902c21.75,0,41.014,4.972,57.799,14.902
		c16.778,9.938,29.938,23.229,39.473,39.876c9.528,16.652,14.299,35.042,14.299,55.181s-4.771,38.466-14.299,54.979
		c-9.535,16.515-22.694,29.743-39.473,39.674C1011.537,406.12,992.273,411.092,970.523,411.092z M970.523,361.55
		c11.542,0,21.612-2.75,30.208-8.257c8.59-5.501,15.236-12.82,19.938-21.952c4.695-9.125,7.049-19.063,7.049-29.806
		c0-11.007-2.354-21.077-7.049-30.208c-4.701-9.126-11.347-16.445-19.938-21.952c-8.597-5.5-18.667-8.257-30.208-8.257
		c-11.548,0-21.618,2.757-30.208,8.257c-8.597,5.507-15.243,12.826-19.938,21.952c-4.701,9.131-7.048,19.201-7.048,30.208
		c0,10.743,2.347,20.681,7.048,29.806c4.695,9.132,11.341,16.451,19.938,21.952C948.905,358.8,958.974,361.55,970.523,361.55z"/>
	<path fill="#1C1C1C" stroke="#191919" stroke-width="8" d="M1204.137,411.092c-15.042,0-29.069-2.819-42.091-8.459
		c-13.027-5.639-24.506-13.493-34.438-23.563c-9.938-10.069-17.66-21.75-23.16-35.042c-5.507-13.291-8.257-27.59-8.257-42.896
		c0-20.403,4.764-38.869,14.299-55.383c9.528-16.514,22.688-29.736,39.472-39.674c16.778-9.932,35.778-14.902,56.994-14.902
		c19.063-0.265,36.112,3.09,51.153,10.068c15.035,6.986,26.986,16.653,35.848,29.001l-41.889,34.236
		c-4.834-7.25-11.077-13.021-18.729-17.319c-7.653-4.293-16.181-6.445-25.577-6.445c-11.548,0-21.618,2.757-30.208,8.258
		c-8.597,5.507-15.243,12.826-19.938,21.951c-4.701,9.132-7.048,19.201-7.048,30.209c0,10.742,2.479,20.743,7.451,30.007
		c4.966,9.264,11.813,16.652,20.542,22.153c8.723,5.507,18.861,8.257,30.41,8.257c10.472,0,19.333-2.348,26.583-7.049
		c7.25-4.695,13.557-10.674,18.931-17.924l39.473,34.236c-9.938,12.625-22.222,22.493-36.854,29.604
		C1242.464,407.529,1224.812,411.092,1204.137,411.092z"/>
	<path fill="#1C1C1C" stroke="#191919" stroke-width="8" d="M1405.527,411.092c-21.486,0-40.681-4.972-57.598-14.903
		c-16.917-9.931-30.146-23.159-39.674-39.674c-9.535-16.514-14.299-34.841-14.299-54.979s4.764-38.528,14.299-55.181
		c9.528-16.646,22.757-29.938,39.674-39.876c16.917-9.931,36.111-14.902,57.598-14.902c21.75,0,41.015,4.972,57.799,14.902
		c16.778,9.938,29.938,23.229,39.473,39.876c9.528,16.652,14.299,35.042,14.299,55.181s-4.771,38.466-14.299,54.979
		c-9.534,16.515-22.694,29.743-39.473,39.674C1446.541,406.12,1427.277,411.092,1405.527,411.092z M1405.527,361.55
		c11.542,0,21.611-2.75,30.208-8.257c8.591-5.501,15.237-12.82,19.938-21.952c4.694-9.125,7.048-19.063,7.048-29.806
		c0-11.007-2.354-21.077-7.048-30.208c-4.701-9.126-11.348-16.445-19.938-21.952c-8.597-5.5-18.666-8.257-30.208-8.257
		c-11.549,0-21.618,2.757-30.209,8.257c-8.597,5.507-15.242,12.826-19.938,21.952c-4.701,9.131-7.049,19.201-7.049,30.208
		c0,10.743,2.348,20.681,7.049,29.806c4.695,9.132,11.341,16.451,19.938,21.952C1383.908,358.8,1393.978,361.55,1405.527,361.55z"/>
	<path fill="#1C1C1C" stroke="#191919" stroke-width="8" d="M1735.004,411.092c-20.945,0-40.348-3.764-58.202-11.278
		c-17.861-7.514-33.431-17.986-46.723-31.417c-13.292-13.424-23.632-28.931-31.015-46.521
		c-7.388-17.584-11.076-36.452-11.076-56.591c0-20.14,3.556-39.07,10.674-56.793c7.111-17.722,17.182-33.291,30.209-46.722
		c13.021-13.425,28.527-23.966,46.521-31.619c17.987-7.653,37.861-11.479,59.612-11.479c23.09,0,42.896,3.625,59.41,10.875
		c16.514,7.25,31.076,18.396,43.701,33.431l-39.875,34.639c-16.917-17.722-38-26.583-63.236-26.583
		c-17.993,0-33.633,4.298-46.925,12.89c-13.291,8.596-23.563,20.006-30.813,34.236c-7.25,14.235-10.875,29.943-10.875,47.125
		c0,17.188,3.625,32.826,10.875,46.924s17.584,25.375,31.015,33.834c13.424,8.458,29.402,12.688,47.931,12.688
		c13.694,0,25.778-2.278,36.25-6.848c10.473-4.563,19.868-11.41,28.194-20.542l41.084,35.042
		c-10.743,12.889-25.041,23.563-42.896,32.021C1780.984,406.862,1759.705,411.092,1735.004,411.092z"/>
	<path fill="#1C1C1C" stroke="#191919" stroke-width="8" d="M1860.666,405.855v-294.03h54.375V225.41
		c11.278-22.557,32.354-33.834,63.237-33.834c15.034,0,28.597,3.492,40.681,10.473c12.083,6.985,21.611,16.916,28.598,29.805
		c6.979,12.89,10.472,28.195,10.472,45.918v128.084h-54.375V291.062c0-18.257-4.166-31.479-12.486-39.674
		c-8.326-8.188-19.201-12.285-32.625-12.285c-11.549,0-21.688,4.098-30.41,12.285c-8.729,8.194-13.091,21.417-13.091,39.674v114.793
		H1860.666z"/>
	<path fill="#1C1C1C" stroke="#191919" stroke-width="8" d="M2183.691,411.092c-19.069,0-36.452-4.902-52.16-14.702
		c-15.708-9.799-28.194-22.958-37.459-39.472c-9.264-16.515-13.896-34.841-13.896-54.979c0-15.035,2.681-29.202,8.056-42.494
		c5.368-13.291,12.75-24.972,22.153-35.042c9.396-10.069,20.34-17.986,32.826-23.764c12.486-5.771,25.979-8.66,40.479-8.66
		c18.257,0,32.486,3.424,42.694,10.271c10.202,6.848,18.126,15.91,23.765,27.188V196.41h53.973v209.445h-52.765v-34.236
		c-5.639,11.819-13.632,21.348-23.965,28.598C2217.052,407.467,2202.483,411.092,2183.691,411.092z M2192.552,361.952
		c12.083,0,22.486-2.75,31.216-8.257c8.723-5.5,15.507-12.819,20.34-21.951c4.833-9.126,7.25-19.063,7.25-29.806
		c0-11.008-2.417-21.077-7.25-30.209c-4.833-9.126-11.617-16.514-20.34-22.153c-8.729-5.639-19.133-8.458-31.216-8.458
		c-11.549,0-21.688,2.757-30.41,8.257c-8.729,5.507-15.507,12.826-20.341,21.952c-4.833,9.131-7.25,19.201-7.25,30.208
		c0,10.473,2.417,20.341,7.25,29.604c4.834,9.264,11.612,16.716,20.341,22.354C2170.865,359.133,2181.003,361.952,2192.552,361.952z
		"/>
	<path fill="#1C1C1C" stroke="#191919" stroke-width="8" d="M2415.692,405.855c-20.681,0-36.521-5.098-47.528-15.306
		c-11.014-10.202-16.514-26.716-16.514-49.542v-98.278h-29.403V196.41h29.403v-42.293l54.375-5.639v47.932h44.307v46.319h-44.307
		v95.459c0,12.889,5.64,19.333,16.917,19.333h22.556v48.334H2415.692z"/>
</g>
</svg>
