<svg width="2701" height="544" viewBox="0 0 2701 544" fill="none" xmlns="http://www.w3.org/2000/svg">
<g clip-path="url(#clip0_6_521)">
<path d="M1 259.469C13.4675 259 25.935 259 38.7568 259C38.7568 280.312 38.7568 301.248 38.7568 322.379C44.6049 319.169 49.8676 315.57 55.655 313.321C60.5811 311.407 66.0971 310.236 71.3767 310.144C91.7037 309.789 112.041 310.104 132.374 309.967C148.809 309.856 163.052 315.615 175.928 325.419C191.422 337.217 200.037 353.153 203.88 371.922C204.536 375.128 204.943 378.448 204.95 381.716C205.027 414.877 204.997 448.037 204.997 481.599C192.11 481.599 179.391 481.599 166 481.599C166 479.931 166 478.168 166 476.404C166 446.238 165.917 416.071 166.032 385.905C166.098 368.491 155.769 354.623 139.154 349.696C135.742 348.684 132.077 348.109 128.522 348.074C111.857 347.908 95.187 347.811 78.5239 348.051C60.4444 348.312 45.5475 357.533 40.7437 375.752C39.7509 379.517 39.0924 383.492 39.0745 387.374C38.9384 416.873 39 446.374 39 475.873C39 477.686 39 479.499 39 482C26.4593 482 14.1983 482 1.46866 482C1 407.979 1 333.958 1 259.469Z" fill="#4D9CFF"/>
<path d="M510.444 545C505.725 544.338 501.457 543.629 497.174 543.024C486.018 541.449 476.382 536.442 467.548 529.752C466.73 529.132 466.147 526.878 466.623 526.078C472.049 516.968 477.702 507.993 483.594 498.498C490.321 504.479 498.299 506.391 506.558 507.882C515.116 509.426 529.596 502.289 534.9 493.346C537.235 489.41 541.197 485.501 541.341 481.469C541.484 477.488 537.814 473.329 535.692 469.313C520.154 439.912 504.587 410.526 489.027 381.137C480.674 365.362 472.333 349.58 463.952 333.82C459.907 326.214 455.781 318.65 451.343 310.419C453.518 310.235 454.908 310.019 456.299 310.016C467.296 309.988 478.303 310.272 489.286 309.869C493.818 309.702 496.147 311.442 498.079 315.153C502.918 324.45 508.03 333.605 512.96 342.856C526.979 369.16 540.956 395.486 554.963 421.797C557.808 427.14 560.713 432.451 563.946 438.437C566.443 433.954 568.827 429.829 571.067 425.627C579.774 409.297 588.371 392.907 597.13 376.604C608.599 355.257 620.147 333.952 631.805 312.708C632.496 311.448 634.451 310.138 635.837 310.118C649.318 309.924 662.804 310.001 676.9 310.001C672.853 317.753 669.043 325.143 665.146 332.488C661.39 339.568 657.495 346.576 653.747 353.661C643.48 373.067 633.293 392.516 623.009 411.913C609.047 438.248 595.066 464.574 581.001 490.854C576.602 499.073 572.333 507.412 567.253 515.206C555.797 532.785 539.466 542.624 518.198 544.634C515.629 545 513.259 545 510.444 545Z" fill="#4D9CFF"/>
<path d="M2702 410.531C2645.55 411 2589.1 411 2532.71 411C2529.12 428.334 2539.38 440.571 2555.3 443.889C2560.25 444.921 2565.46 444.924 2570.56 444.954C2589.89 445.068 2609.22 444.787 2628.54 445.075C2641.31 445.266 2651.68 440.754 2659.51 430.783C2661.13 428.72 2661.86 428.789 2663.7 430.149C2673.3 437.236 2682.99 444.203 2693.59 451.894C2689.67 456.831 2686.31 462.31 2681.77 466.494C2672.64 474.894 2661.99 480.986 2649.69 483.611C2645.85 484.429 2641.87 484.925 2637.96 484.941C2609.8 485.051 2581.64 485.102 2553.49 484.973C2521.4 484.827 2496.75 464.917 2488.28 434.386C2487.33 430.952 2487.08 427.235 2487.05 423.646C2486.93 405.82 2486.87 387.991 2487.03 370.166C2487.26 344.223 2505.43 320.024 2529.52 310.974C2537.32 308.044 2545.27 306.855 2553.63 306.918C2582.28 307.132 2610.95 306.566 2639.6 307.138C2662.32 307.592 2679.42 318.908 2691.83 337.568C2697.66 346.331 2700.19 356.267 2701.64 366.812C2702 381.354 2702 395.708 2702 410.531ZM2619.5 314C2598.17 314 2576.85 313.947 2555.52 314.045C2551.25 314.065 2546.9 314.205 2542.74 315.072C2521.18 319.572 2506 332.227 2498.23 352.687C2495.4 360.154 2494.35 368.654 2494.2 376.714C2493.88 394.128 2493.44 411.696 2495.32 428.954C2497.38 447.979 2509.25 461.553 2525.67 470.799C2534.79 475.937 2545.01 477.995 2555.44 477.939C2584.7 477.781 2613.96 477.453 2643.22 476.938C2653.84 476.751 2675.35 466.623 2682.4 453.242C2675.81 448.491 2669.22 443.74 2662.72 439.047C2652.34 448.868 2645.05 451.714 2635.92 451.859C2610.26 452.264 2584.6 452.185 2558.94 451.909C2548.69 451.798 2539.51 447.611 2532.8 440.019C2523.81 429.855 2523.06 417.224 2524.38 403.795C2581.35 403.795 2638.06 403.795 2695.87 403.795C2694.89 389.526 2694.81 375.738 2692.82 362.232C2689.47 339.498 2675.05 325.31 2654.32 317.023C2643.41 312.658 2631.85 314.201 2619.5 314Z" fill="white"/>
<path d="M380.497 447.966C390.886 445.74 399.297 440.969 405.47 432.814C413.461 438.491 421.013 443.918 428.637 449.242C432.068 451.638 432.201 453.678 429.514 457.173C419.982 469.574 407.422 476.983 392.508 480.664C388.715 481.601 384.688 481.93 380.765 481.944C352.604 482.049 324.437 482.316 296.281 481.913C266.654 481.49 242.508 462.699 235.139 433.532C233.706 427.861 233.224 421.845 233.092 415.971C232.798 402.813 232.748 389.638 233.06 376.481C233.516 357.21 239.474 339.971 253.968 326.643C265.278 316.243 278.601 310.031 294.298 310.011C323.96 309.973 353.622 309.854 383.283 310.043C411.018 310.219 438.194 334.339 440.911 361.854C442.402 376.949 442.888 392.144 443.866 407.907C385.949 407.907 329.236 407.907 272.62 407.907C268.828 430.002 283.683 447.755 306.061 447.95C330.721 448.165 355.385 447.994 380.497 447.966ZM374.5 375C384.25 375 394.001 375 404.041 375C403.576 373.408 403.131 372.494 403.061 371.552C401.786 354.522 387.219 341.417 369.42 341.875C348.604 342.41 327.762 342.15 306.935 341.941C295.253 341.824 285.73 345.715 279.088 355.496C275.207 361.212 272.765 367.496 273.165 375C306.9 375 340.2 375 374.5 375Z" fill="#4D9CFF"/>
<path d="M1666 394.001C1665.35 385.991 1665.64 378.249 1663.84 371.025C1661.17 360.314 1648.83 352.011 1637.77 352.002C1627.77 351.994 1617.74 352.499 1607.78 351.884C1592.58 350.945 1577.49 366.473 1577.8 381.966C1578.45 414.276 1578 446.609 1578 478.932C1578 480.741 1578 482.55 1578 484.675C1562.96 484.675 1548.24 484.675 1533.26 484.675C1533.26 425.623 1533.26 366.703 1533.26 307.392C1547.91 307.392 1562.62 307.392 1577.73 307.392C1577.73 310.23 1577.73 313.16 1577.73 316.624C1583.5 314.093 1588.61 311.324 1594.05 309.621C1598.83 308.126 1603.96 307.313 1608.97 307.111C1618.45 306.728 1627.97 307.191 1637.46 306.958C1654.28 306.545 1668.27 313.326 1681.01 323.516C1683.58 325.573 1686.07 327.722 1688.82 330.004C1693.54 326.153 1698.09 321.877 1703.19 318.411C1714.26 310.888 1726.44 306.659 1740.07 306.95C1751.56 307.195 1763.07 306.731 1774.56 307.063C1791.62 307.556 1806.34 314.212 1818.94 325.502C1829.13 334.624 1837.54 345.195 1841.11 358.636C1843.11 366.164 1844.73 374.039 1844.83 381.779C1845.24 414.097 1845 446.424 1845 478.747C1845 480.572 1845 482.396 1845 484.609C1830.09 484.609 1815.38 484.609 1800 484.609C1800 482.918 1800 481.154 1800 479.39C1800 446.733 1800.01 414.076 1800 381.42C1799.99 365.837 1786.17 351.947 1770.39 351.995C1760.56 352.024 1750.73 351.986 1740.9 352.004C1727.25 352.028 1713.99 363.39 1712.03 376.909C1711.44 380.967 1711.06 385.094 1711.04 389.19C1710.96 419.181 1711 449.172 1711 479.162C1711 480.948 1711 482.734 1711 484.756C1695.91 484.756 1681.31 484.756 1666 484.756C1666 454.659 1666 424.58 1666 394.001ZM1715.03 320.472C1705.95 327.204 1696.86 333.937 1687.47 340.893C1687.85 341.251 1687.19 340.756 1686.68 340.136C1677 328.279 1665.31 318.871 1650.06 316.199C1638.77 314.22 1627.06 314.507 1615.52 314.033C1599.33 313.369 1585.65 318.999 1574.57 330.894C1573.44 332.101 1572.08 333.09 1569.83 335.059C1569.83 327.138 1569.83 320.728 1569.83 314.39C1559.63 314.39 1549.91 314.39 1540.27 314.39C1540.27 369.042 1540.27 423.304 1540.27 477.66C1550.27 477.66 1559.99 477.66 1570 477.66C1570 475.511 1570 473.7 1570 471.889C1570 444.559 1569.95 417.228 1570.04 389.898C1570.06 385.299 1570.56 380.691 1571 376.104C1572.74 358.246 1589.04 344.652 1607.01 344.059C1617 343.73 1627.02 343.748 1637 344.074C1646.27 344.376 1654.55 347.697 1661.47 353.996C1670.13 361.873 1673.92 371.94 1673.96 383.414C1674.07 413.077 1674 442.741 1674 472.404C1674 474.167 1674 475.93 1674 477.6C1684.39 477.6 1694.11 477.6 1704 477.6C1704 447.211 1703.96 417.22 1704.04 387.23C1704.06 382.633 1704.41 378.001 1705.05 373.447C1707.07 359.04 1723.37 345.027 1737.93 345.004C1749.1 344.985 1760.27 344.818 1771.43 345.094C1775.62 345.198 1780.05 345.675 1783.91 347.174C1796.62 352.109 1807.21 365.122 1807.08 380.019C1806.82 410.847 1807 441.678 1807 472.508C1807 474.261 1807 476.014 1807 477.74C1817.68 477.74 1827.61 477.74 1838 477.74C1838 475.697 1838 473.907 1838 472.116C1838 442.12 1838.15 412.122 1837.87 382.128C1837.81 376.162 1836.53 370.091 1835.01 364.281C1831.41 350.596 1823.77 339.472 1812.92 330.315C1800.66 319.976 1786.77 314.292 1770.75 314.028C1761.42 313.874 1752.09 314.16 1742.76 313.956C1733.18 313.746 1724.27 316.102 1715.03 320.472Z" fill="white"/>
<path d="M1364.03 317.992C1374.08 311.282 1384.78 307.385 1396.51 307.077C1409.33 306.739 1422.17 306.769 1435 307.058C1451.19 307.423 1465.01 313.954 1477.53 323.945C1488.65 332.816 1496.38 343.999 1500.94 357.286C1502.94 363.089 1504.76 369.307 1504.82 375.356C1505.18 410.513 1505 445.676 1505 480.836C1505 481.985 1505 483.134 1505 484.641C1490.02 484.641 1475.31 484.641 1460 484.641C1460 482.84 1460 481.066 1460 479.292C1460 446.298 1460.02 413.303 1459.99 380.309C1459.98 365.276 1446.66 352.819 1431.91 352.09C1422.27 351.613 1412.58 352.329 1402.93 351.927C1385.99 351.222 1371.41 366.841 1371.78 383.075C1372.52 415.053 1372 447.059 1372 479.054C1372 480.85 1372 482.645 1372 484.718C1356.99 484.718 1342.39 484.718 1327 484.718C1327 483.068 1327 481.321 1327 479.575C1327 448.08 1326.97 416.586 1327.01 385.091C1327.03 372.392 1321.94 362.356 1311.08 355.842C1307.46 353.673 1302.85 352.376 1298.63 352.169C1288.15 351.655 1277.64 351.999 1267.14 352C1255.35 352.002 1243.74 360.105 1240.11 371.351C1238.87 375.18 1238.11 379.341 1238.09 383.355C1237.93 415.182 1238 447.01 1238 478.838C1238 480.654 1238 482.47 1238 484.642C1223.02 484.642 1208.31 484.642 1193.29 484.642C1193.29 425.68 1193.29 366.755 1193.29 307.415C1207.87 307.415 1222.58 307.415 1237.77 307.415C1237.77 310.35 1237.77 313.434 1237.77 317.262C1241.98 315.093 1245.36 312.728 1249.12 311.559C1255.3 309.632 1261.66 307.646 1268.06 307.191C1278.17 306.473 1288.38 307.099 1298.54 306.977C1314.78 306.782 1328.44 313.15 1340.71 323.209C1343.38 325.401 1346.04 327.606 1348.9 329.964C1353.75 326.064 1358.71 322.068 1364.03 317.992ZM1364 474.309C1364 446.318 1363.95 418.327 1364.04 390.336C1364.06 385.571 1364.49 380.789 1365.02 376.047C1366.97 358.486 1383.35 344.594 1399.99 344.957C1410.48 345.186 1420.99 345.204 1431.48 344.941C1441.51 344.69 1449.72 348.706 1456.7 355.315C1464.48 362.667 1467.87 372.219 1467.93 382.712C1468.12 412.534 1468 442.359 1468 472.182C1468 473.966 1468 475.751 1468 477.681C1478.23 477.681 1487.94 477.681 1498 477.681C1498 475.561 1498 473.756 1498 471.951C1498 442.96 1497.83 413.968 1498.05 384.98C1498.23 361.459 1488.96 342.631 1470.65 328.243C1459.86 319.765 1447.51 314.576 1433.68 314.087C1421.86 313.668 1410 313.545 1398.2 314.132C1387.1 314.684 1376.57 318.053 1367.67 324.954C1360.99 330.132 1354.84 335.986 1348.35 341.629C1348.45 341.692 1348.1 341.573 1347.91 341.331C1337.96 328.749 1325.92 318.793 1309.79 316.136C1298.63 314.298 1287.12 314.627 1275.76 314.002C1262.91 313.295 1251.45 317.018 1241.38 324.946C1237.96 327.637 1234.79 330.65 1230.75 334.181C1230.75 326.898 1230.75 320.519 1230.75 314.29C1220.26 314.29 1210.33 314.29 1200.34 314.29C1200.34 368.952 1200.34 423.323 1200.34 477.598C1210.73 477.598 1220.78 477.598 1231 477.598C1231 444.379 1231 411.562 1231.01 378.745C1231.01 377.085 1230.79 375.34 1231.2 373.776C1236.16 355.072 1250.17 344.76 1268.58 344.055C1277.07 343.731 1285.58 344.125 1294.07 343.976C1317.32 343.57 1334.52 361.575 1334.13 383.897C1333.61 413.378 1334 442.875 1334 472.366C1334 474.132 1334 475.899 1334 477.991C1343.61 477.991 1352.58 478.062 1361.54 477.872C1362.38 477.854 1363.18 476.175 1364 474.309Z" fill="white"/>
<path d="M2080.83 411C2025.07 411 1969.8 411 1914.57 411C1912.72 428.643 1922.66 440.806 1938.2 443.915C1942.53 444.78 1947.04 444.93 1951.48 444.954C1970.97 445.06 1990.47 444.716 2009.95 445.095C2024.01 445.369 2035.28 440.652 2043.97 428.503C2054.69 436.233 2065.35 443.929 2076.24 451.783C2065.66 467.848 2051.99 479.177 2033.14 483.375C2029.32 484.225 2025.37 484.912 2021.47 484.93C1993.15 485.06 1964.83 485.177 1936.5 484.949C1909.91 484.734 1890.04 472.625 1877 449.591C1872.71 442.018 1870.15 433.706 1869.99 424.822C1869.69 408.225 1868.66 391.609 1869.15 375.036C1870.05 344.269 1886.1 320.109 1915.68 309.876C1920.99 308.039 1926.89 307.174 1932.53 307.124C1962.35 306.86 1992.18 306.869 2022 307.037C2051.04 307.202 2078.2 329.525 2082.67 358.968C2085.12 375.059 2084.28 391.644 2085.04 408.001C2085.18 411.069 2083.48 411.162 2080.83 411ZM1877.01 366.907C1877.01 377.237 1877 387.568 1877 397.899C1877 407.396 1875.79 417.086 1877.25 426.355C1882 456.465 1905.85 477.13 1936.53 477.865C1963.51 478.511 1990.52 478.069 2017.51 477.928C2021.74 477.906 2026.03 477.238 2030.17 476.34C2044.83 473.165 2056.57 465.324 2065.68 453.601C2058.91 448.726 2052.21 443.898 2045.61 439.14C2036.13 448.105 2025.53 452.357 2012.72 452.119C1989.9 451.695 1967.05 452.462 1944.24 451.883C1915.95 451.164 1903.2 430.584 1907.81 403.865C1964.34 403.865 2020.93 403.865 2078.78 403.865C2077.83 389.634 2077.91 375.686 2075.78 362.082C2071.42 334.147 2046.68 314.323 2019.67 314.058C1992.67 313.793 1965.68 313.953 1938.69 314.045C1934.09 314.061 1929.39 314.181 1924.92 315.1C1909.98 318.164 1898.14 326.234 1888.9 338.317C1882.6 346.564 1879.17 355.981 1877.01 366.907Z" fill="white"/>
<path d="M2274.23 336.277C2285.89 321.907 2300.42 312.686 2318.06 308.511C2321.87 307.61 2325.86 307.084 2329.76 307.065C2355.59 306.94 2381.42 307.33 2407.24 306.906C2432.39 306.494 2452.89 315.888 2470.11 334.671C2463.47 340.131 2456.97 345.543 2450.4 350.874C2446.07 354.382 2441.54 357.638 2437.33 361.278C2435.35 362.996 2434.1 363.442 2431.91 361.518C2424.06 354.651 2415.14 351.529 2404.38 351.816C2381.73 352.421 2359.05 352.415 2336.4 351.841C2323.22 351.508 2306.63 363.597 2305 378.515C2303.6 391.32 2302.27 404.241 2306 416.819C2310.22 431 2323.02 439.997 2337.81 439.999C2358.64 440.003 2379.47 439.68 2400.29 440.117C2413.2 440.389 2424.99 438.68 2433.59 427.709C2445.97 437.515 2458 447.051 2470.38 456.862C2461.54 466.796 2451.42 474.307 2439.25 479.045C2427.76 483.518 2415.88 485.194 2403.57 485.066C2381.24 484.834 2358.91 485.121 2336.59 484.973C2300.64 484.734 2269.21 461.821 2259.47 426.735C2257.86 420.954 2257.17 414.752 2257.13 408.738C2257.06 396.478 2256.8 384.099 2258.32 371.982C2259.97 358.89 2265.71 347.01 2274.23 336.277ZM2443.95 445.482C2440.81 443.12 2437.66 440.758 2434.38 438.297C2426.2 444.832 2416.78 447.297 2406.14 447.12C2382.82 446.733 2359.49 447.04 2336.17 446.954C2332.91 446.942 2329.53 446.746 2326.41 445.895C2309.5 441.281 2297.17 426.736 2297.01 408.616C2296.93 399.454 2296.49 390.251 2297.19 381.142C2297.61 375.74 2298.96 369.945 2301.57 365.264C2309.72 350.65 2322.89 344.026 2339.47 344.007C2361.79 343.98 2384.12 344.023 2406.44 343.99C2416.96 343.974 2426.27 347.391 2434.58 353.629C2442.54 347.174 2450.49 340.727 2458.77 334.014C2445.22 321.671 2430.14 314.658 2412.94 314.187C2386.8 313.471 2360.63 313.886 2334.47 314.039C2316.09 314.146 2300.27 321.141 2287.04 333.581C2271.39 348.301 2264.45 367.04 2264.08 388.246C2263.93 396.669 2264.39 405.13 2265.05 413.536C2266.71 434.615 2277.05 450.846 2293.73 463.314C2307.81 473.84 2323.98 477.866 2341.26 477.972C2360.92 478.093 2380.58 478.303 2400.23 477.864C2409.21 477.664 2418.29 476.67 2427.07 474.835C2439.23 472.293 2449.75 466.096 2458.93 457.566C2453.93 453.558 2449.2 449.772 2443.95 445.482Z" fill="white"/>
<path d="M907.023 479.057C896.974 483.153 886.888 484.998 876.443 484.999C852.945 485.002 829.446 485.04 805.948 484.989C780.247 484.934 758.809 475.076 742.319 455.568C733.134 444.701 726.96 431.905 726.072 417.34C725.356 405.597 724.464 393.756 725.201 382.057C726.359 363.692 732.545 347.122 745.235 333.075C756.483 320.624 770.032 312.546 786.105 308.497C789.892 307.543 793.9 307.082 797.81 307.064C823.641 306.94 849.479 307.33 875.304 306.906C900.464 306.493 920.976 315.877 938.108 334.706C931.456 340.162 924.919 345.573 918.326 350.915C913.999 354.421 909.468 357.687 905.274 361.342C903.237 363.117 901.991 363.32 899.844 361.457C892.121 354.756 883.374 351.566 872.783 351.826C849.798 352.39 826.79 351.919 803.792 352.028C787.791 352.103 775.258 363.997 773.353 377.839C771.706 389.805 771.56 402.402 773.392 414.314C775.65 428.998 787.981 439.298 803.622 439.791C828.429 440.573 853.279 440.028 878.11 439.983C885.873 439.969 891.895 436.839 901.894 427.893C913.899 437.387 925.95 446.917 938.343 456.718C929.851 466.975 919.482 474.145 907.023 479.057ZM765.06 413.955C765.04 402.961 765.013 391.966 765.011 380.972C765.011 379.816 765.008 378.625 765.267 377.511C770.247 356.045 785.931 344.001 807.71 344C829.2 344 850.692 344.15 872.18 343.939C883.526 343.827 893.68 346.897 902.578 353.606C910.625 347.105 918.491 340.751 926.741 334.087C913.455 321.672 898.414 314.902 881.213 314.16C864.253 313.428 847.235 313.877 830.244 314.041C817.815 314.161 805.334 314.036 792.976 315.142C776.795 316.592 763.46 324.813 752.461 336.24C738.159 351.098 732.212 369.59 732.063 389.979C732.008 397.408 732.703 404.841 732.992 412.276C733.799 432.997 744.058 448.896 759.403 461.576C773.846 473.51 791.189 477.994 809.761 477.999C829.252 478.004 848.744 477.871 868.234 478.047C880.682 478.159 892.981 477.067 904.332 471.859C912.364 468.174 919.758 463.096 928.016 458.304C918.641 450.916 910.559 444.548 902.52 438.213C894.553 444.314 885.914 447.236 875.88 447.104C851.396 446.784 826.905 447.01 802.416 446.979C800.614 446.977 798.761 446.895 797.017 446.486C779.925 442.48 769.568 431.691 765.06 413.955Z" fill="white"/>
<path d="M1077 307C1089.84 307.076 1102.21 306.146 1114.13 310.904C1141.09 321.668 1158.74 340.54 1163.86 369.42C1167.68 390.96 1168.53 412.895 1160.91 433.832C1151.25 460.374 1132.29 477.201 1104.3 482.952C1098.07 484.232 1091.6 484.834 1085.23 484.91C1064.92 485.152 1044.59 485.062 1024.27 484.986C993.409 484.87 963.257 465.62 953.031 435.568C950.068 426.861 947.764 417.577 947.301 408.449C946.452 391.707 945.931 374.75 951.81 358.53C961.495 331.807 980.607 315.449 1007.78 308.223C1011.54 307.223 1015.6 307.075 1019.53 307.052C1038.52 306.937 1057.51 307 1077 307ZM990.377 468.09C991.471 468.806 992.509 469.634 993.669 470.222C1004.4 475.661 1015.94 477.818 1027.82 477.945C1046.98 478.149 1066.14 478.206 1085.29 477.929C1098.68 477.736 1111.58 475.235 1123.24 467.98C1145.4 454.193 1157.47 434.609 1157.98 408.29C1158.12 400.797 1157.79 393.291 1158.05 385.804C1158.5 372.47 1155.36 360.095 1148.33 348.824C1134.7 326.953 1115.25 314.596 1089.15 314.067C1071.83 313.715 1054.5 313.903 1037.18 314.045C1029.58 314.106 1021.87 313.919 1014.41 315.111C987.024 319.484 968.682 335.423 959.035 361.083C952.022 379.736 954.071 399.307 956.202 418.415C958.643 440.307 971.017 456.471 990.377 468.09Z" fill="white"/>
<path d="M2226 352C2213.84 352 2202.18 352.106 2190.52 351.974C2174.64 351.794 2159.07 366.676 2159.02 383.63C2158.94 415.445 2159 447.261 2159 479.077C2159 480.87 2159 482.663 2159 484.725C2143.98 484.725 2129.38 484.725 2114.39 484.725C2114.39 425.777 2114.39 366.749 2114.39 307.36C2128.97 307.36 2143.68 307.36 2158.76 307.36C2158.76 310.626 2158.76 313.896 2158.76 317.106C2165.24 314.318 2171.31 311.302 2177.67 309.117C2181.62 307.761 2185.99 307.153 2190.19 307.091C2205.67 306.862 2221.17 307 2236.66 307C2238.28 307 2239.9 307 2241.75 307C2241.75 322.084 2241.75 336.678 2241.75 352C2236.68 352 2231.59 352 2226 352ZM2138.49 478C2142.91 478 2147.34 478 2152 478C2152 475.459 2152 473.643 2152 471.827C2152 441.841 2152.12 411.856 2151.96 381.871C2151.85 362.501 2170.55 344.536 2188.87 344.942C2202.19 345.238 2215.52 345.008 2228.85 344.99C2230.46 344.988 2232.06 344.845 2233.62 344.769C2233.62 334.32 2233.62 324.271 2233.62 314.002C2218.77 314.002 2204.23 313.217 2189.83 314.328C2182.49 314.895 2174.95 318.022 2168.33 321.538C2162.41 324.676 2157.62 329.939 2151.8 334.705C2151.8 327.601 2151.8 320.896 2151.8 314.264C2141.31 314.264 2131.38 314.264 2121.3 314.264C2121.3 368.892 2121.3 423.257 2121.3 478C2126.9 478 2132.2 478 2138.49 478Z" fill="white"/>
<path d="M2620 314C2631.85 314.201 2643.41 312.658 2654.32 317.023C2675.05 325.31 2689.47 339.498 2692.82 362.232C2694.81 375.738 2694.89 389.526 2695.87 403.795C2638.06 403.795 2581.35 403.795 2524.38 403.795C2523.06 417.224 2523.81 429.855 2532.8 440.019C2539.51 447.611 2548.69 451.798 2558.94 451.909C2584.6 452.185 2610.26 452.264 2635.92 451.859C2645.05 451.714 2652.34 448.868 2662.72 439.047C2669.22 443.739 2675.81 448.491 2682.4 453.24C2675.35 466.623 2653.84 476.751 2643.22 476.938C2613.96 477.453 2584.7 477.781 2555.44 477.939C2545.01 477.995 2534.79 475.937 2525.67 470.799C2509.25 461.553 2497.38 447.979 2495.32 428.954C2493.44 411.696 2493.88 394.128 2494.2 376.714C2494.35 368.654 2495.4 360.154 2498.23 352.687C2506.01 332.227 2521.18 319.572 2542.74 315.072C2546.9 314.205 2551.25 314.065 2555.52 314.045C2576.85 313.947 2598.17 314 2620 314ZM2642.47 340.877C2637.87 339.918 2633.28 338.189 2628.67 338.13C2606.18 337.842 2583.69 338.137 2561.2 337.918C2554.38 337.851 2548.33 339.495 2542.45 342.827C2530.39 349.659 2522.53 366.717 2525.69 379.592C2571.77 379.592 2617.8 379.592 2664.1 379.592C2664.3 362.511 2658.99 348.961 2642.47 340.877Z" fill="white"/>
<path d="M1715.36 320.271C1724.27 316.102 1733.18 313.745 1742.76 313.956C1752.09 314.16 1761.42 313.874 1770.75 314.028C1786.77 314.292 1800.66 319.976 1812.92 330.315C1823.77 339.472 1831.41 350.596 1835.01 364.28C1836.53 370.091 1837.81 376.162 1837.87 382.128C1838.15 412.122 1838 442.12 1838 472.116C1838 473.907 1838 475.697 1838 477.74C1827.61 477.74 1817.68 477.74 1807 477.74C1807 476.014 1807 474.261 1807 472.508C1807 441.678 1806.82 410.847 1807.08 380.019C1807.21 365.122 1796.62 352.109 1783.91 347.174C1780.05 345.675 1775.62 345.197 1771.43 345.094C1760.27 344.818 1749.1 344.985 1737.93 345.004C1723.37 345.027 1707.07 359.04 1705.05 373.447C1704.41 378.001 1704.06 382.632 1704.04 387.23C1703.96 417.22 1704 447.211 1704 477.6C1694.11 477.6 1684.39 477.6 1674 477.6C1674 475.93 1674 474.167 1674 472.404C1674 442.741 1674.07 413.077 1673.96 383.414C1673.92 371.939 1670.13 361.873 1661.47 353.996C1654.55 347.697 1646.27 344.376 1637 344.074C1627.02 343.748 1617 343.73 1607.01 344.059C1589.04 344.652 1572.74 358.246 1571 376.104C1570.56 380.691 1570.06 385.298 1570.04 389.898C1569.95 417.228 1570 444.559 1570 471.889C1570 473.7 1570 475.511 1570 477.66C1559.99 477.66 1550.27 477.66 1540.27 477.66C1540.27 423.304 1540.27 369.042 1540.27 314.39C1549.91 314.39 1559.63 314.39 1569.83 314.39C1569.83 320.728 1569.83 327.138 1569.83 335.059C1572.08 333.09 1573.44 332.101 1574.57 330.894C1585.65 318.999 1599.33 313.369 1615.52 314.033C1627.06 314.507 1638.77 314.22 1650.06 316.199C1665.31 318.871 1677 328.279 1686.68 340.136C1687.19 340.756 1687.85 341.251 1687.47 340.893C1696.86 333.937 1705.95 327.204 1715.36 320.271Z" fill="white"/>
<path d="M1364 474.788C1363.18 476.175 1362.38 477.854 1361.54 477.872C1352.58 478.062 1343.61 477.991 1334 477.991C1334 475.899 1334 474.132 1334 472.366C1334 442.875 1333.61 413.378 1334.13 383.897C1334.52 361.575 1317.32 343.57 1294.07 343.976C1285.58 344.124 1277.07 343.731 1268.58 344.055C1250.17 344.76 1236.16 355.072 1231.2 373.776C1230.79 375.34 1231.01 377.085 1231.01 378.745C1231 411.562 1231 444.379 1231 477.598C1220.78 477.598 1210.73 477.598 1200.34 477.598C1200.34 423.323 1200.34 368.952 1200.34 314.29C1210.33 314.29 1220.26 314.29 1230.75 314.29C1230.75 320.519 1230.75 326.898 1230.75 334.181C1234.79 330.65 1237.96 327.637 1241.38 324.945C1251.45 317.018 1262.91 313.295 1275.76 314.002C1287.12 314.627 1298.63 314.298 1309.79 316.136C1325.92 318.793 1337.96 328.749 1347.91 341.331C1348.1 341.573 1348.45 341.692 1348.35 341.629C1354.84 335.986 1360.99 330.132 1367.67 324.954C1376.57 318.053 1387.1 314.684 1398.2 314.132C1410 313.545 1421.86 313.668 1433.68 314.087C1447.51 314.576 1459.86 319.765 1470.65 328.243C1488.96 342.631 1498.23 361.459 1498.05 384.98C1497.83 413.968 1498 442.96 1498 471.951C1498 473.756 1498 475.561 1498 477.681C1487.94 477.681 1478.23 477.681 1468 477.681C1468 475.751 1468 473.966 1468 472.182C1468 442.359 1468.12 412.534 1467.93 382.712C1467.87 372.219 1464.48 362.667 1456.7 355.315C1449.72 348.706 1441.51 344.69 1431.48 344.941C1420.99 345.204 1410.48 345.186 1399.99 344.957C1383.35 344.594 1366.97 358.486 1365.02 376.047C1364.49 380.789 1364.06 385.571 1364.04 390.336C1363.95 418.327 1364 446.318 1364 474.788Z" fill="white"/>
<path d="M1877.04 366.451C1879.17 355.981 1882.6 346.564 1888.9 338.317C1898.14 326.234 1909.98 318.164 1924.91 315.1C1929.39 314.181 1934.09 314.061 1938.69 314.045C1965.68 313.953 1992.67 313.793 2019.66 314.058C2046.68 314.323 2071.41 334.147 2075.78 362.082C2077.91 375.685 2077.83 389.634 2078.78 403.865C2020.93 403.865 1964.34 403.865 1907.81 403.865C1903.2 430.584 1915.95 451.164 1944.24 451.883C1967.05 452.462 1989.9 451.695 2012.72 452.119C2025.53 452.357 2036.13 448.105 2045.61 439.14C2052.21 443.898 2058.91 448.726 2065.68 453.601C2056.57 465.324 2044.83 473.165 2030.17 476.34C2026.03 477.238 2021.74 477.906 2017.51 477.928C1990.52 478.069 1963.51 478.511 1936.53 477.865C1905.85 477.13 1882 456.465 1877.25 426.355C1875.79 417.086 1877 407.396 1877 397.899C1877 387.568 1877.01 377.237 1877.04 366.451ZM1912.05 356.759C1908.71 364.031 1907.12 371.571 1908.34 379.727C1954.56 379.727 2000.57 379.727 2047.35 379.727C2046.88 375.523 2046.49 371.654 2046 367.798C2044.02 352.362 2029.21 337.562 2011.32 337.898C1988.86 338.321 1966.38 338.15 1943.91 337.946C1929.71 337.816 1919.62 344.312 1912.05 356.759Z" fill="white"/>
<path d="M2444.21 445.733C2449.2 449.772 2453.93 453.558 2458.93 457.566C2449.74 466.096 2439.23 472.293 2427.07 474.835C2418.29 476.67 2409.21 477.663 2400.23 477.864C2380.58 478.303 2360.92 478.093 2341.26 477.972C2323.98 477.866 2307.81 473.84 2293.73 463.314C2277.05 450.846 2266.71 434.615 2265.05 413.536C2264.39 405.13 2263.93 396.669 2264.08 388.246C2264.45 367.04 2271.39 348.301 2287.04 333.581C2300.27 321.141 2316.09 314.146 2334.47 314.039C2360.63 313.886 2386.8 313.471 2412.94 314.187C2430.14 314.658 2445.22 321.671 2458.77 334.014C2450.49 340.727 2442.54 347.174 2434.58 353.629C2426.27 347.391 2416.96 343.974 2406.44 343.99C2384.12 344.023 2361.79 343.98 2339.47 344.007C2322.89 344.026 2309.72 350.65 2301.57 365.264C2298.96 369.945 2297.61 375.74 2297.19 381.142C2296.49 390.251 2296.93 399.454 2297.01 408.616C2297.17 426.736 2309.5 441.281 2326.41 445.895C2329.53 446.746 2332.91 446.942 2336.17 446.954C2359.49 447.04 2382.82 446.733 2406.14 447.12C2416.78 447.297 2426.2 444.832 2434.38 438.297C2437.66 440.758 2440.81 443.12 2444.21 445.733Z" fill="white"/>
<path d="M765.201 414.376C769.568 431.691 779.925 442.48 797.017 446.486C798.761 446.895 800.613 446.977 802.416 446.979C826.904 447.01 851.396 446.784 875.88 447.104C885.913 447.236 894.552 444.314 902.52 438.213C910.559 444.548 918.64 450.916 928.015 458.304C919.758 463.096 912.364 468.174 904.331 471.859C892.981 477.067 880.681 478.159 868.233 478.047C848.744 477.871 829.252 478.004 809.761 477.999C791.189 477.994 773.845 473.51 759.403 461.576C744.058 448.896 733.798 432.997 732.992 412.276C732.702 404.842 732.008 397.408 732.062 389.979C732.212 369.59 738.158 351.099 752.46 336.24C763.459 324.813 776.795 316.592 792.976 315.142C805.333 314.036 817.815 314.161 830.244 314.041C847.234 313.877 864.252 313.428 881.213 314.16C898.413 314.902 913.454 321.672 926.74 334.087C918.49 340.751 910.625 347.105 902.578 353.606C893.68 346.897 883.525 343.827 872.179 343.939C850.692 344.15 829.2 344 807.71 344C785.931 344.001 770.247 356.045 765.266 377.511C765.008 378.625 765.011 379.816 765.011 380.972C765.012 391.966 765.039 402.961 765.201 414.376Z" fill="white"/>
<path d="M990.013 468.008C971.017 456.471 958.643 440.307 956.202 418.415C954.071 399.307 952.022 379.736 959.035 361.083C968.682 335.423 987.024 319.484 1014.41 315.111C1021.87 313.92 1029.58 314.106 1037.18 314.045C1054.5 313.904 1071.83 313.715 1089.15 314.067C1115.25 314.596 1134.7 326.953 1148.33 348.824C1155.36 360.095 1158.5 372.47 1158.05 385.804C1157.79 393.291 1158.12 400.797 1157.98 408.29C1157.47 434.609 1145.4 454.193 1123.24 467.98C1111.58 475.235 1098.68 477.736 1085.29 477.929C1066.14 478.206 1046.98 478.149 1027.82 477.945C1015.94 477.818 1004.4 475.661 993.669 470.222C992.509 469.634 991.471 468.806 990.013 468.008ZM1000.71 352.065C993.232 357.999 987.214 365.606 986.328 374.882C985.065 388.113 984.952 401.654 986.237 414.879C988.039 433.434 1005.24 447.08 1023.71 447.018C1045.69 446.943 1067.68 447.02 1089.66 446.994C1110.73 446.97 1127.7 429.455 1127.98 408.816C1128.09 400.49 1128.13 392.159 1127.98 383.835C1127.57 361.598 1110.77 344.536 1088.7 344.094C1067.22 343.663 1045.73 343.816 1024.25 344.093C1015.95 344.2 1008.14 346.693 1000.71 352.065Z" fill="white"/>
<path d="M2137.99 478C2132.2 478 2126.9 478 2121.3 478C2121.3 423.257 2121.3 368.893 2121.3 314.264C2131.38 314.264 2141.31 314.264 2151.8 314.264C2151.8 320.896 2151.8 327.601 2151.8 334.705C2157.62 329.939 2162.41 324.676 2168.33 321.538C2174.95 318.022 2182.49 314.895 2189.83 314.328C2204.23 313.217 2218.77 314.002 2233.62 314.002C2233.62 324.271 2233.62 334.32 2233.62 344.769C2232.06 344.845 2230.46 344.988 2228.85 344.99C2215.52 345.008 2202.19 345.238 2188.87 344.942C2170.55 344.536 2151.85 362.501 2151.96 381.872C2152.12 411.856 2152 441.842 2152 471.827C2152 473.643 2152 475.459 2152 478C2147.34 478 2142.91 478 2137.99 478Z" fill="white"/>
<path d="M2642.85 340.964C2658.99 348.961 2664.3 362.511 2664.1 379.592C2617.8 379.592 2571.77 379.592 2525.69 379.592C2522.53 366.717 2530.39 349.659 2542.45 342.827C2548.33 339.495 2554.38 337.851 2561.2 337.918C2583.69 338.137 2606.18 337.842 2628.67 338.13C2633.28 338.189 2637.87 339.918 2642.85 340.964ZM2655.02 365.712C2650.24 351.435 2639.75 345.286 2628.11 345.103C2605.64 344.75 2583.16 344.835 2560.69 345.083C2551.93 345.18 2544.36 348.836 2538.86 355.778C2535.24 360.348 2532.86 365.599 2533.17 371.642C2574.43 371.642 2615.12 371.642 2656.33 371.642C2655.86 369.636 2655.5 368.083 2655.02 365.712Z" fill="white"/>
<path d="M1912.24 356.425C1919.62 344.312 1929.71 337.816 1943.91 337.946C1966.38 338.15 1988.86 338.321 2011.32 337.898C2029.21 337.562 2044.02 352.362 2046 367.798C2046.49 371.654 2046.88 375.523 2047.35 379.727C2000.57 379.727 1954.56 379.727 1908.34 379.727C1907.12 371.571 1908.71 364.031 1912.24 356.425ZM2021.5 372C2027.27 372 2033.03 372 2038.84 372C2037.42 356.501 2026.47 345.46 2010.94 345.121C1988.97 344.643 1966.97 344.998 1944.99 345.001C1929.03 345.002 1917.29 355.682 1915.6 371.743C1915.93 371.816 1916.25 371.953 1916.57 371.953C1951.21 371.976 1985.86 371.987 2021.5 372Z" fill="white"/>
<path d="M1001.06 351.984C1008.14 346.693 1015.95 344.2 1024.25 344.093C1045.73 343.816 1067.22 343.663 1088.7 344.093C1110.77 344.536 1127.57 361.598 1127.98 383.835C1128.13 392.159 1128.09 400.49 1127.98 408.815C1127.7 429.455 1110.73 446.97 1089.66 446.994C1067.68 447.019 1045.69 446.943 1023.71 447.017C1005.24 447.08 988.039 433.434 986.237 414.879C984.952 401.654 985.065 388.113 986.328 374.882C987.214 365.606 993.232 357.999 1001.06 351.984ZM1118.63 373.158C1118.09 372.143 1117.56 371.132 1117.03 370.114C1110.91 358.258 1101.51 351.864 1087.84 351.96C1066.17 352.111 1044.5 352.156 1022.84 351.941C1009.93 351.813 995.275 363.317 993.329 377.745C991.78 389.232 991.986 401.205 993.251 412.762C995.021 428.926 1008.62 439.495 1024.55 439.874C1045.87 440.382 1067.22 440.344 1088.54 439.867C1100.77 439.594 1111.09 434.203 1116.45 422.814C1123.86 407.046 1121.78 390.401 1118.63 373.158Z" fill="white"/>
<path d="M966 1C962.7 18.8517 958.146 37.1193 954.209 56.0836C937.947 47.1512 923.209 32.7599 911.52 15.6536C928.737 10.2771 948.44 3.05172 966 1Z" fill="#4D9CFF"/>
<path d="M925.497 114.903C918.434 123.79 912.224 132.95 904.692 140.917C890.377 156.058 853.82 190.271 838.919 204.874C837.881 203.788 763.45 128.953 762.375 127.902C762.375 127.902 809.309 81.5612 824.207 66.9567C846.191 45.4064 875.757 29.7821 904.405 18.3688C915.505 35.6254 933.353 52.1328 951.192 63.2185C944.712 81.3157 936.383 98.5123 925.497 114.903ZM917.613 90.5628C917.954 88.652 918.51 86.7509 918.601 84.8289C919.254 70.9905 912.487 60.6316 900.846 54.0909C890.182 48.0988 878.537 48.7517 868.103 55.6082C857.848 62.3458 852.558 72.3026 852.775 84.237C852.915 91.8728 855.872 99.147 861.178 105.122C866.898 111.561 880.445 118.093 891.438 115.643C905.35 112.542 913.148 103.888 917.613 90.5628Z" fill="#4D9CFF"/>
<path d="M693.633 273.648C702.769 232.389 725.609 205.626 753.365 179.978C746.822 169.609 750.988 162.594 758.109 155.096C758.109 155.096 753.937 151.031 753.365 150.478C743.248 161.952 731.969 172.948 721.851 184.422C724.62 146.961 725.593 108.036 728.383 70.2919C758.126 78.6039 784.025 77.0579 811.912 65.5126C811.81 65.1195 812.014 65.9057 811.912 65.5126C791.12 86.6349 747.878 128.536 747.878 128.536L839.355 218.357L901.356 158.807C892.799 185.825 886.807 210.752 895.883 238.235C857.638 241.138 820.336 243.97 781.573 246.912C781.573 246.912 804.807 225.457 815.695 213.748L811.429 209.822C805.311 216.314 797.515 217.51 789.61 215.092C776.05 227.279 738.742 273.648 693.633 273.648C696.26 272.15 691.327 274.939 693.633 273.648Z" fill="#4D9CFF"/>
<ellipse cx="885.489" cy="82.9618" rx="23.411" ry="22.8601" fill="#4D9CFF"/>
</g>
<defs>
<clipPath id="clip0_6_521">
<rect width="2701" height="544" fill="white"/>
</clipPath>
</defs>
</svg>
