<svg width="2458px" height="512px" viewBox="0 0 2458 512" version="1.1" xmlns="http://www.w3.org/2000/svg" xmlns:xlink="http://www.w3.org/1999/xlink">
    <!-- EcoRay Horizontal Logo - Full version -->
    <defs>
        <linearGradient id="ecoGradient" x1="0%" y1="0%" x2="100%" y2="0%">
            <stop offset="0%" style="stop-color:#287754;stop-opacity:1" />
            <stop offset="100%" style="stop-color:#2D7A52;stop-opacity:1" />
        </linearGradient>
    </defs>
    <g id="EcoRay-Logo" stroke="none" stroke-width="1" fill="none" fill-rule="evenodd">
        <!-- Sun/Flower Icon -->
        <circle id="sun-center" fill="url(#ecoGradient)" cx="180" cy="256" r="120"/>
        <path id="petal-1" fill="url(#ecoGradient)" d="M180,136 C160,136 144,120 144,100 C144,80 160,64 180,64 C200,64 216,80 216,100 C216,120 200,136 180,136 Z"/>
        <path id="petal-2" fill="url(#ecoGradient)" d="M180,376 C160,376 144,360 144,340 C144,320 160,304 180,304 C200,304 216,320 216,340 C216,360 200,376 180,376 Z"/>
        <path id="petal-3" fill="url(#ecoGradient)" d="M300,256 C300,236 284,220 264,220 C244,220 228,236 228,256 C228,276 244,292 264,292 C284,292 300,276 300,256 Z"/>
        <path id="petal-4" fill="url(#ecoGradient)" d="M60,256 C60,236 44,220 24,220 C4,220 -12,236 -12,256 C-12,276 4,292 24,292 C44,292 60,276 60,256 Z"/>
        <path id="petal-5" fill="url(#ecoGradient)" d="M242,150 C236,130 218,114 198,120 C178,126 164,146 170,166 C176,186 196,202 216,196 C236,190 248,170 242,150 Z"/>
        <path id="petal-6" fill="url(#ecoGradient)" d="M242,362 C236,382 218,398 198,392 C178,386 164,366 170,346 C176,326 196,310 216,316 C236,322 248,342 242,362 Z"/>
        <path id="petal-7" fill="url(#ecoGradient)" d="M118,362 C94,356 76,334 82,310 C88,286 110,268 134,274 C158,280 176,302 170,326 C164,350 142,368 118,362 Z"/>
        <path id="petal-8" fill="url(#ecoGradient)" d="M118,150 C94,156 76,178 82,202 C88,226 110,244 134,238 C158,232 176,210 170,186 C164,162 142,144 118,150 Z"/>
        <!-- EcoRay Text -->
        <text x="400" y="280" font-family="Arial, sans-serif" font-size="200" font-weight="bold" fill="url(#ecoGradient)">EcoRay</text>
    </g>
</svg>