<?xml version="1.0" encoding="UTF-8"?>
<svg version="1.1" xmlns="http://www.w3.org/2000/svg" width="512" height="512">
<path d="M0 0 C1.04655762 0.42732422 1.04655762 0.42732422 2.11425781 0.86328125 C18.26970672 7.50437616 32.75319993 15.88375703 47.14160156 25.76416016 C48.72714796 26.81855268 50.37084935 27.78460757 52.0234375 28.73046875 C52.67570312 29.14941406 53.32796875 29.56835938 54 30 C54 30.66 54 31.32 54 32 C54.61875 32.309375 55.2375 32.61875 55.875 32.9375 C57.25 33.625 58.625 34.3125 60 35 C60 35.66 60 36.32 60 37 C60.55558594 37.2371875 61.11117188 37.474375 61.68359375 37.71875 C64.54371121 39.3007374 66.66948669 41.27662715 69.0625 43.5 C71.65920335 45.90536731 74.05106306 48.03404204 77 50 C77 50.66 77 51.32 77 52 C77.99 52.33 78.98 52.66 80 53 C81.48011069 54.63213757 82.88758718 56.33090189 84.25 58.0625 C86.94979668 61.45142087 89.65630182 64.78647971 92.5625 68 C116.64864102 95.35299693 132.80763384 131.52139534 140 167 C140.18481934 167.86270508 140.36963867 168.72541016 140.56005859 169.61425781 C146.64846011 198.84477144 146.4676438 230.86718617 140 260 C139.68378692 261.54925324 139.36862976 263.0987225 139.0546875 264.6484375 C136.86147554 275.02531079 133.55544642 285.01988342 130 295 C129.59910156 296.14210938 129.19820313 297.28421875 128.78515625 298.4609375 C124.06385795 311.3372056 117.6007412 323.22392857 110.625 335 C110.10091553 335.89146729 109.57683105 336.78293457 109.03686523 337.70141602 C108.54259033 338.52182373 108.04831543 339.34223145 107.5390625 340.1875 C107.09771973 340.92355469 106.65637695 341.65960938 106.20166016 342.41796875 C105.8051123 342.94003906 105.40856445 343.46210938 105 344 C104.34 344 103.68 344 103 344 C102.67 345.32 102.34 346.64 102 348 C101.34 348 100.68 348 100 348 C99.77054687 348.70125 99.54109375 349.4025 99.3046875 350.125 C97.74178675 353.56899686 95.59062422 356.18091368 93.125 359 C92.6410376 359.56106445 92.1570752 360.12212891 91.65844727 360.70019531 C90.11636767 362.47656809 88.56121031 364.24042529 87 366 C86.49549316 366.56912109 85.99098633 367.13824219 85.47119141 367.72460938 C79.10054174 374.86565363 72.60262181 382.13901466 65 388 C64.34 388 63.68 388 63 388 C62.67 388.99 62.34 389.98 62 391 C60.54125977 392.3503418 60.54125977 392.3503418 58.69140625 393.69921875 C58.02689453 394.18583984 57.36238281 394.67246094 56.67773438 395.17382812 C55.97970703 395.67333984 55.28167969 396.17285156 54.5625 396.6875 C53.52125977 397.45416992 53.52125977 397.45416992 52.45898438 398.23632812 C47.26823264 402 47.26823264 402 45 402 C45 402.66 45 403.32 45 404 C43.234375 405.29345703 43.234375 405.29345703 40.75 406.7578125 C39.83976074 407.29712402 38.92952148 407.83643555 37.99169922 408.39208984 C37.00443848 408.9639502 36.01717773 409.53581055 35 410.125 C33.99340332 410.71104004 32.98680664 411.29708008 31.94970703 411.90087891 C17.34754053 420.33298492 3.0389548 426.7697632 -13 432 C-14.39852274 432.46849562 -15.79696526 432.9372308 -17.1953125 433.40625 C-21.10464661 434.69763176 -25.03980232 435.87516908 -29 437 C-30.25296875 437.35964844 -31.5059375 437.71929687 -32.796875 438.08984375 C-54.26292837 443.74931486 -78.48590585 445.19205948 -100.54248047 443.21923828 C-103.01776788 442.99841491 -105.49346429 442.82313794 -107.97265625 442.65234375 C-146.26163116 439.73569783 -181.90056921 425.32534761 -214.125 405 C-214.72344727 404.62625244 -215.32189453 404.25250488 -215.93847656 403.86743164 C-217.33022384 402.96770992 -218.67164599 401.99092647 -220 401 C-220 400.34 -220 399.68 -220 399 C-220.72574219 398.7421875 -221.45148438 398.484375 -222.19921875 398.21875 C-225.12047667 396.94757501 -227.30872649 395.45983598 -229.8125 393.5 C-230.60269531 392.8915625 -231.39289063 392.283125 -232.20703125 391.65625 C-232.79871094 391.1096875 -233.39039063 390.563125 -234 390 C-234 389.34 -234 388.68 -234 388 C-234.58934326 387.7313916 -235.17868652 387.4627832 -235.78588867 387.18603516 C-238.01099408 385.99411079 -239.58545815 384.74022954 -241.42578125 383.0234375 C-242.36925415 382.14606934 -242.36925415 382.14606934 -243.33178711 381.25097656 C-244.31223999 380.32236816 -244.31223999 380.32236816 -245.3125 379.375 C-245.98095947 378.74561523 -246.64941895 378.11623047 -247.33813477 377.46777344 C-257.1029274 368.19342805 -257.1029274 368.19342805 -260 364 C-260 363.34 -260 362.68 -260 362 C-260.66 362 -261.32 362 -262 362 C-265 358.53846154 -265 358.53846154 -265 356 C-265.66 356 -266.32 356 -267 356 C-271 350.58823529 -271 350.58823529 -271 348 C-271.66 348 -272.32 348 -273 348 C-277 341.25 -277 341.25 -277 339 C-277.66 339 -278.32 339 -279 339 C-312.02518884 282.55694997 -324.23702243 219.14503917 -308 155 C-305.11043665 144.0261742 -301.77108809 133.31289041 -297 123 C-296.66516602 122.2570166 -296.33033203 121.5140332 -295.98535156 120.74853516 C-291.47680679 110.7664384 -286.68602349 101.05726655 -281 91.6875 C-280.29689697 90.52226807 -280.29689697 90.52226807 -279.57958984 89.33349609 C-278.44745193 87.51617151 -277.23172502 85.75135901 -276 84 C-275.34 84 -274.68 84 -274 84 C-273.75765625 83.29617187 -273.5153125 82.59234375 -273.265625 81.8671875 C-266.03308332 65.48235542 -247.06722232 47.63619248 -233 37 C-232.34 37 -231.68 37 -231 37 C-231 36.34 -231 35.68 -231 35 C-220.62088378 26.19609269 -208.11195111 18.18928319 -196 12 C-195.43732422 11.70915527 -194.87464844 11.41831055 -194.29492188 11.11865234 C-134.29264586 -19.8209828 -63.1510759 -26.19514706 0 0 Z " fill="#FEFEFE" transform="translate(341,42)"/>
<path d="M0 0 C0 40.92 0 81.84 0 124 C27.06 124 54.12 124 82 124 C81.95359375 115.45609375 81.9071875 106.9121875 81.859375 98.109375 C81.83634519 92.01730361 81.81583899 85.92526482 81.79898453 79.83317757 C81.77680105 71.93670178 81.7486185 64.04039462 81.69824219 56.14404297 C81.6583822 49.89311934 81.63256911 43.64232283 81.62364602 37.39127564 C81.6184297 34.08108076 81.60407046 30.77133449 81.57707977 27.46123505 C81.54814501 23.76657837 81.54404 20.07268099 81.54589844 16.37792969 C81.53151733 15.27957291 81.51713623 14.18121613 81.50231934 13.04957581 C81.50781799 12.04279282 81.51331665 11.03600983 81.51898193 9.99871826 C81.51529476 9.12485851 81.51160759 8.25099876 81.50780869 7.35065842 C82.18004666 4.14011445 83.40780991 2.96126768 86 1 C88.26531982 0.51898193 88.26531982 0.51898193 90.76855469 0.54589844 C91.70922791 0.54620056 92.64990112 0.54650269 93.61907959 0.54681396 C94.62650208 0.56745911 95.63392456 0.58810425 96.671875 0.609375 C97.70942932 0.61503479 98.74698364 0.62069458 99.815979 0.62652588 C103.12778992 0.64890509 106.43851644 0.69910581 109.75 0.75 C111.99607812 0.77006294 114.24217321 0.78831406 116.48828125 0.8046875 C121.99255709 0.84877482 127.49620107 0.91570259 133 1 C133.09364717 16.47328466 133.16407873 31.94654798 133.20724869 47.42004967 C133.22783051 54.60548784 133.25586658 61.79074943 133.30175781 68.97607422 C133.34176057 75.24243756 133.36746462 81.50867294 133.37635398 87.77516043 C133.38154622 91.09001841 133.39578953 94.40442737 133.42292023 97.71918869 C133.45207225 101.42938439 133.45595089 105.13882879 133.45410156 108.84912109 C133.46848267 109.93525696 133.48286377 111.02139282 133.49768066 112.14044189 C133.44143578 122.60909874 130.4468731 130.29350634 123.23828125 137.87109375 C120.30663899 140.65947949 117.23336653 143.16985607 114.03125 145.640625 C110.14556396 148.66505073 106.35654016 151.79935448 102.5625 154.9375 C100.5129213 156.63020745 98.4643587 158.32143202 96.39082336 159.98475647 C93.95582085 161.9780308 93.95582085 161.9780308 91.71853638 164.29034424 C83.99005171 171.6220639 77.26638402 172.27130946 67.11328125 172.01953125 C65.60118193 172.01287824 64.08906402 172.00966289 62.57695007 172.00968933 C59.42685923 172.0004553 56.27910751 171.96155281 53.12963867 171.89868164 C49.11141945 171.81922302 45.09549344 171.7970221 41.07656574 171.79483509 C37.96123845 171.78984229 34.84639248 171.76350695 31.73125267 171.72995567 C30.25025459 171.71481904 28.76920422 171.70408202 27.28814125 171.69800758 C18.34810888 171.63974402 10.72019958 171.58584854 3.94140625 165 C3.48636719 164.34 3.03132813 163.68 2.5625 163 C2.08941406 162.34 1.61632812 161.68 1.12890625 161 C-1.24226381 156.79917276 -1.11783561 152.80920435 -1.09765625 148.046875 C-1.0962413 147.38665344 -1.09482635 146.72643188 -1.09336853 146.04620361 C-1.08779245 143.94742206 -1.07524447 141.84874905 -1.0625 139.75 C-1.0574819 138.32291821 -1.05291954 136.89583475 -1.04882812 135.46875 C-1.03783088 131.97913168 -1.0205828 128.48957644 -1 125 C-2.27117676 125.02618408 -3.54235352 125.05236816 -4.85205078 125.0793457 C-9.58185122 125.17005196 -14.31157524 125.22732374 -19.04199219 125.2746582 C-21.08672019 125.29975583 -23.13135889 125.33384164 -25.17578125 125.37719727 C-28.12001611 125.43805815 -31.06306196 125.4662573 -34.0078125 125.48828125 C-34.9174173 125.51408768 -35.82702209 125.5398941 -36.76419067 125.56648254 C-41.14734524 125.56840635 -44.07774283 125.41189352 -47.56201172 122.59448242 C-50.68803169 119.26780365 -51.12436155 117.87760815 -51.15390015 113.45852661 C-51.16250061 112.50234436 -51.17110107 111.54616211 -51.17996216 110.56100464 C-51.18422211 109.50849518 -51.18848206 108.45598572 -51.19287109 107.37158203 C-51.20104858 106.26580811 -51.20922607 105.16003418 -51.21765137 104.02075195 C-51.24253017 100.34977771 -51.25902598 96.67884215 -51.2734375 93.0078125 C-51.27876118 91.75692715 -51.28408485 90.50604179 -51.28956985 89.21725082 C-51.31080268 83.96208341 -51.32993334 78.70692183 -51.34119225 73.4517231 C-51.35743767 65.91852732 -51.39063181 58.38584682 -51.44759309 50.85284531 C-51.49093631 44.91870561 -51.50693449 38.98468123 -51.51332474 33.05038071 C-51.52005879 30.52492476 -51.53533615 27.99947694 -51.55921555 25.47412491 C-51.59069001 21.94474959 -51.59093008 18.41668473 -51.58349609 14.88720703 C-51.59990143 13.83874603 -51.61630676 12.79028503 -51.63320923 11.71005249 C-51.62489075 10.74823059 -51.61657227 9.78640869 -51.60800171 8.79544067 C-51.61131186 7.96105028 -51.614622 7.12665989 -51.61803246 6.26698494 C-47.05920827 -10.4550912 -17.33236015 0 0 0 Z " fill="#232323" transform="translate(209,184)"/>
<path d="M0 0 C27.06 0 54.12 0 82 0 C82 14.85 82 29.7 82 45 C64.5214722 45.16043524 64.5214722 45.16043524 57.0546875 45.1953125 C51.96532451 45.21919773 46.87625015 45.24741359 41.78710938 45.30175781 C37.68276945 45.34531017 33.57873917 45.36915688 29.47418594 45.37950897 C27.91050468 45.38688357 26.34683983 45.40128466 24.78329086 45.42292023 C22.58806874 45.45208062 20.39411599 45.45595097 18.19873047 45.45410156 C16.95074677 45.46298401 15.70276306 45.47186646 14.41696167 45.48101807 C10.2068987 44.88835226 8.24770881 43.73323983 5 41 C0 34 0 34 0 0 Z " fill="#202021" transform="translate(209,309)"/>
<path d="M0 0 C15.18 0 30.36 0 46 0 C46 40.92 46 81.84 46 124 C73.06 124 100.12 124 128 124 C128 84.73 128 45.46 128 5 C128.33 5 128.66 5 129 5 C129 44.6 129 84.2 129 125 C101.61 125 74.22 125 46 125 C46 134.9 46 144.8 46 155 C45.67 155 45.34 155 45 155 C45 145.1 45 135.2 45 125 C30.81 125 16.62 125 2 125 C2 124.67 2 124.34 2 124 C16.19 124 30.38 124 45 124 C45 83.41 45 42.82 45 1 C30.15 1 15.3 1 0 1 C0 0.67 0 0.34 0 0 Z " fill="#797979" transform="translate(163,184)"/>
</svg>
