<svg width="138" height="40" viewBox="0 0 138 40" fill="none" xmlns="http://www.w3.org/2000/svg">
<g clip-path="url(#clip0_71_941)">
<path d="M62.8233 14.208C62.9591 14.344 63.031 14.536 63.031 14.776V27.024C63.031 29.104 62.3918 30.736 61.1213 31.912C59.8507 33.088 58.0768 33.68 55.8074 33.68C53.3862 33.68 51.3166 33.112 49.5986 31.96C49.3589 31.808 49.231 31.616 49.231 31.392C49.231 31.232 49.295 31.072 49.4148 30.896L50.4297 29.416C50.6055 29.176 50.8052 29.048 51.029 29.048C51.1888 29.048 51.3486 29.096 51.5244 29.2C52.0757 29.568 52.699 29.848 53.3942 30.048C54.0894 30.248 54.8006 30.344 55.5277 30.344C57.9729 30.344 59.1875 29.232 59.1875 27.016V26.784C58.1647 27.632 56.8302 28.056 55.1841 28.056C53.6979 28.056 52.3794 27.744 51.2367 27.12C50.094 26.496 49.2071 25.632 48.5838 24.52C47.9765 23.408 47.6729 22.208 47.6729 20.904C47.6729 19.6 47.9765 18.336 48.5838 17.264C49.1911 16.192 50.0621 15.328 51.2048 14.688C52.3155 14.048 53.6419 13.728 55.1762 13.728C56.8222 13.728 58.1567 14.152 59.1795 15V14.768C59.1795 14.528 59.2514 14.336 59.3873 14.2C59.5231 14.064 59.7149 13.992 59.9546 13.992H62.24C62.4797 13.992 62.6715 14.064 62.8153 14.2L62.8233 14.208ZM57.4056 24.288C58.0049 23.952 58.4763 23.48 58.8199 22.872C59.1635 22.264 59.3393 21.616 59.3393 20.92C59.3393 20.224 59.1715 19.536 58.8359 18.944C58.5003 18.352 58.0288 17.888 57.4215 17.536C56.8302 17.208 56.167 17.04 55.4239 17.04C54.2652 17.04 53.3223 17.408 52.5951 18.136C51.868 18.864 51.5004 19.792 51.5004 20.92C51.5004 22.048 51.852 23.016 52.5632 23.728C53.2744 24.44 54.2253 24.792 55.4239 24.792C56.151 24.792 56.8143 24.624 57.4136 24.288H57.4056Z" fill="#FFFBFB"/>
<path d="M75.9678 28.096C75.832 27.96 75.7601 27.768 75.7601 27.528V26.88C75.4165 27.352 74.8331 27.76 74.0181 28.104C73.203 28.448 72.34 28.624 71.4211 28.624C69.9668 28.624 68.6963 28.296 67.6015 27.648C66.5068 27 65.6758 26.096 65.1084 24.928C64.5331 23.8 64.2534 22.544 64.2534 21.16C64.2534 19.776 64.5411 18.488 65.1244 17.36C65.7077 16.232 66.5308 15.336 67.6015 14.68C68.6723 14.024 69.9508 13.688 71.4211 13.688C72.372 13.688 73.227 13.856 73.9941 14.184C74.7532 14.512 75.3446 14.944 75.7601 15.488V14.784C75.7601 14.544 75.832 14.352 75.9678 14.216C76.1037 14.08 76.2954 14.008 76.5352 14.008H78.8205C79.0602 14.008 79.252 14.08 79.3959 14.216C79.5317 14.352 79.6036 14.544 79.6036 14.784V27.528C79.6036 27.768 79.5317 27.96 79.3959 28.096C79.26 28.232 79.0682 28.304 78.8205 28.304H76.5352C76.2954 28.304 76.1037 28.232 75.9678 28.096ZM74.8331 18.216C74.114 17.472 73.1631 17.096 71.9884 17.096C70.8138 17.096 69.8389 17.472 69.1278 18.216C68.4166 18.96 68.065 19.944 68.065 21.152C68.065 22.36 68.4326 23.296 69.1597 24.048C69.8869 24.8 70.8298 25.176 71.9884 25.176C73.1471 25.176 74.1619 24.816 74.8571 24.096C75.5603 23.376 75.9119 22.392 75.9119 21.144C75.9119 19.896 75.5523 18.952 74.8331 18.208V18.216Z" fill="#FFFBFB"/>
<path d="M89.9917 13.952C90.1275 14.088 90.1994 14.288 90.1994 14.552V16.76C90.1994 17.232 89.9357 17.488 89.4163 17.544C88.865 17.576 88.3056 17.712 87.7543 17.944C87.2029 18.176 86.6995 18.536 86.244 19.024C85.6207 19.704 85.3091 20.688 85.3091 21.992V27.528C85.3091 27.768 85.2372 27.96 85.1013 28.096C84.9655 28.232 84.7737 28.304 84.526 28.304H82.2167C81.977 28.304 81.7852 28.232 81.6413 28.096C81.5055 27.96 81.4336 27.768 81.4336 27.528V14.784C81.4336 14.544 81.5055 14.352 81.6413 14.216C81.7772 14.08 81.969 14.008 82.2167 14.008H84.526C84.7657 14.008 84.9575 14.08 85.1013 14.216C85.2372 14.352 85.3091 14.544 85.3091 14.784V15.904C85.8125 15.248 86.4278 14.744 87.155 14.392C87.8821 14.04 88.6332 13.84 89.4163 13.768C89.6561 13.752 89.8478 13.808 89.9917 13.952Z" fill="#FFFBFB"/>
<path d="M101.347 28.096C101.211 27.96 101.139 27.768 101.139 27.528V26.88C100.795 27.352 100.212 27.76 99.397 28.104C98.5819 28.448 97.7189 28.624 96.8 28.624C95.3457 28.624 94.0752 28.296 92.9804 27.648C91.8857 27 91.0547 26.096 90.4873 24.928C89.912 23.8 89.6323 22.544 89.6323 21.16C89.6323 19.776 89.92 18.488 90.5033 17.36C91.0866 16.232 91.9097 15.336 92.9804 14.68C94.0512 14.024 95.3297 13.688 96.8 13.688C97.7509 13.688 98.6059 13.856 99.373 14.184C100.132 14.512 100.723 14.944 101.139 15.488V14.784C101.139 14.544 101.211 14.352 101.347 14.216C101.483 14.08 101.674 14.008 101.914 14.008H104.199C104.439 14.008 104.631 14.08 104.775 14.216C104.911 14.352 104.983 14.544 104.983 14.784V27.528C104.983 27.768 104.911 27.96 104.775 28.096C104.639 28.232 104.447 28.304 104.199 28.304H101.914C101.674 28.304 101.483 28.232 101.347 28.096ZM100.212 18.216C99.4929 17.472 98.542 17.096 97.3674 17.096C96.1927 17.096 95.2178 17.472 94.5067 18.216C93.7955 18.96 93.4439 19.944 93.4439 21.152C93.4439 22.36 93.8115 23.296 94.5386 24.048C95.2658 24.8 96.2087 25.176 97.3674 25.176C98.526 25.176 99.5408 24.816 100.236 24.096C100.939 23.376 101.291 22.392 101.291 21.144C101.291 19.896 100.931 18.952 100.212 18.208V18.216Z" fill="#FFFBFB"/>
<path d="M121.347 14.208C121.483 14.344 121.555 14.536 121.555 14.776V27.024C121.555 29.104 120.916 30.736 119.645 31.912C118.375 33.088 116.601 33.68 114.331 33.68C111.91 33.68 109.841 33.112 108.123 31.96C107.883 31.808 107.755 31.616 107.755 31.392C107.755 31.232 107.819 31.072 107.939 30.896L108.954 29.416C109.129 29.176 109.329 29.048 109.553 29.048C109.713 29.048 109.873 29.096 110.048 29.2C110.6 29.568 111.223 29.848 111.918 30.048C112.613 30.248 113.325 30.344 114.052 30.344C116.497 30.344 117.711 29.232 117.711 27.016V26.784C116.689 27.632 115.354 28.056 113.708 28.056C112.222 28.056 110.903 27.744 109.761 27.12C108.618 26.496 107.731 25.632 107.108 24.52C106.5 23.408 106.197 22.208 106.197 20.904C106.197 19.6 106.5 18.336 107.108 17.264C107.715 16.192 108.586 15.328 109.729 14.688C110.839 14.048 112.166 13.728 113.7 13.728C115.346 13.728 116.681 14.152 117.703 15V14.768C117.703 14.528 117.775 14.336 117.911 14.2C118.047 14.064 118.239 13.992 118.479 13.992H120.764C121.004 13.992 121.195 14.064 121.339 14.2L121.347 14.208ZM115.929 24.288C116.529 23.952 117 23.48 117.344 22.872C117.687 22.264 117.863 21.616 117.863 20.92C117.863 20.224 117.695 19.536 117.36 18.944C117.024 18.352 116.553 17.888 115.945 17.536C115.354 17.208 114.691 17.04 113.948 17.04C112.789 17.04 111.846 17.408 111.119 18.136C110.392 18.864 110.024 19.792 110.024 20.92C110.024 22.048 110.376 23.016 111.087 23.728C111.798 24.44 112.749 24.792 113.948 24.792C114.675 24.792 115.338 24.624 115.937 24.288H115.929Z" fill="#FFFBFB"/>
<path d="M126.989 27.912C125.83 27.408 124.847 26.632 124.056 25.576C123.209 24.464 122.786 23.008 122.786 21.208C122.786 19.736 123.129 18.432 123.808 17.304C124.496 16.176 125.423 15.304 126.597 14.688C127.772 14.072 129.09 13.768 130.545 13.768C131.823 13.768 133.022 14.048 134.14 14.616C135.259 15.184 136.17 15.992 136.881 17.048C137.345 17.744 137.648 18.416 137.792 19.08C137.928 19.736 138 20.512 138 21.392C138 21.76 137.904 22.056 137.712 22.304C137.521 22.544 137.257 22.672 136.905 22.672H126.645C126.837 23.576 127.308 24.232 128.076 24.648C128.843 25.064 129.658 25.272 130.545 25.272C131.256 25.272 131.863 25.168 132.367 24.96C132.87 24.752 133.317 24.456 133.717 24.072C133.941 23.88 134.148 23.784 134.34 23.784C134.5 23.784 134.652 23.832 134.804 23.936L136.49 24.928C136.769 25.088 136.905 25.272 136.905 25.504C136.905 25.64 136.833 25.808 136.698 26C135.107 27.784 133.054 28.68 130.537 28.68C129.322 28.68 128.139 28.432 126.981 27.928L126.989 27.912ZM127.908 17.952C127.221 18.472 126.837 19.12 126.749 19.904H133.893C133.845 19.44 133.669 18.992 133.373 18.576C133.078 18.16 132.686 17.824 132.207 17.56C131.719 17.296 131.16 17.168 130.521 17.168C129.466 17.168 128.595 17.432 127.908 17.952Z" fill="#FFFBFB"/>
<path d="M13.9678 6C17.5477 6 20.8079 7.344 23.285 9.56C23.9323 10.136 24.8672 10.232 25.6103 9.8L30.9082 6.736C32.1947 5.992 32.2426 4.152 31.0041 3.328C27.8397 1.232 24.0441 0 19.9609 0C9.16537 0 0.383555 8.568 0 19.28C0.375565 11.88 6.48049 6 13.9678 6Z" fill="#F75B00"/>
<path d="M39.4423 15.568C39.2345 14.656 38.4274 14 37.4925 14H11.9781C11.9781 14 10.2441 14 10.0124 18.832C9.98842 19.192 9.98043 19.584 9.98043 20C9.98043 21.04 10.0364 21.904 10.1402 22.616C10.5638 25.6 11.6745 25.952 11.9302 25.992H11.9781H26.6012C24.3558 30.72 19.5453 33.992 13.9678 33.992C6.48049 34 0.375565 28.12 0 20.72C0.391546 31.736 9.66879 40.48 20.8718 39.976C31.084 39.52 39.4023 31.232 39.9057 21.016C40.0016 19.136 39.8338 17.312 39.4343 15.568H39.4423Z" fill="#F75B00"/>
</g>
<defs>
<clipPath id="clip0_71_941">
<rect width="138" height="40" fill="white"/>
</clipPath>
</defs>
</svg>
