<?xml version="1.0" encoding="UTF-8"?>
<svg version="1.1" xmlns="http://www.w3.org/2000/svg" width="512" height="512">
<path d="M0 0 C0.88574707 0.14453613 1.77149414 0.28907227 2.68408203 0.43798828 C14.61974527 2.46124788 26.11272289 5.59968957 37.64135742 9.26269531 C40.17830189 10.05573664 42.72658127 10.80348111 45.27734375 11.55078125 C48.6145566 12.549554 51.78427762 13.62874333 54.9375 15.125 C55.84886719 15.55554688 56.76023437 15.98609375 57.69921875 16.4296875 C58.78847656 16.94789062 59.87773437 17.46609375 61 18 C62.46420988 18.67065647 63.92910799 19.33981151 65.39453125 20.0078125 C75.6839566 24.73569845 85.45941726 29.90283704 95 36 C95.59554688 36.37608398 96.19109375 36.75216797 96.8046875 37.13964844 C104.20425978 41.8290062 104.20425978 41.8290062 107 44 C107 44.66 107 45.32 107 46 C107.763125 46.28875 108.52625 46.5775 109.3125 46.875 C112 48 112 48 115 50 C115 50.66 115 51.32 115 52 C116.0828125 52.37125 116.0828125 52.37125 117.1875 52.75 C120.27606582 54.12269592 122.51011418 55.72353296 125 58 C125 58.66 125 59.32 125 60 C125.66 60 126.32 60 127 60 C127 60.66 127 61.32 127 62 C127.57975586 62.25523438 128.15951172 62.51046875 128.75683594 62.7734375 C131.23015312 64.12584777 132.89602109 65.63732524 134.890625 67.625 C135.95410156 68.68460938 135.95410156 68.68460938 137.0390625 69.765625 C137.76867187 70.50296875 138.49828125 71.2403125 139.25 72 C139.99507813 72.73734375 140.74015625 73.4746875 141.5078125 74.234375 C142.21164062 74.94078125 142.91546875 75.6471875 143.640625 76.375 C144.28547852 77.02210937 144.93033203 77.66921875 145.59472656 78.3359375 C147 80 147 80 147 82 C147.66 82 148.32 82 149 82 C149 82.66 149 83.32 149 84 C149.66 84 150.32 84 151 84 C152.5078125 85.6796875 152.5078125 85.6796875 154.125 87.875 C154.66382813 88.59429687 155.20265625 89.31359375 155.7578125 90.0546875 C157 92 157 92 157 94 C157.66 94 158.32 94 159 94 C160.26513672 95.46533203 160.26513672 95.46533203 161.6796875 97.5078125 C162.19660156 98.24773437 162.71351563 98.98765625 163.24609375 99.75 C163.78363281 100.53375 164.32117188 101.3175 164.875 102.125 C165.40480469 102.88554688 165.93460937 103.64609375 166.48046875 104.4296875 C167.51838912 105.92346868 168.55075931 107.42112379 169.57714844 108.92285156 C170.46502391 110.21901569 171.3625515 111.50868336 172.27441406 112.78808594 C175 116.67114537 175 116.67114537 175 120 C175.66 120 176.32 120 177 120 C180.0625 126.125 180.0625 126.125 181.01513672 128.03686523 C182.60793651 131.23078956 184.21052087 134.41838825 185.84765625 137.58984375 C189.26263797 144.26219265 192.27965329 150.92511022 194.859375 157.96484375 C195.65938641 160.09364124 196.53225795 162.19579668 197.45703125 164.2734375 C199.34175698 168.62955311 200.64443407 173.12651154 201.9375 177.6875 C202.19692383 178.60088135 202.45634766 179.5142627 202.72363281 180.45532227 C205.33455534 189.8693642 207.35697414 199.37241311 209 209 C209.17805176 209.92022949 209.35610352 210.84045898 209.53955078 211.78857422 C211.47833929 223.03146842 211.37217365 234.32048487 211.37060547 245.69921875 C211.37493939 249.20103068 211.41124379 252.70153815 211.44921875 256.203125 C211.6879895 304.01024257 195.92740139 345.83750356 173 387 C172.34 387 171.68 387 171 387 C170.34 388.98 169.68 390.96 169 393 C168.34 393 167.68 393 167 393 C166.34 394.98 165.68 396.96 165 399 C164.34 399 163.68 399 163 399 C162.71125 399.763125 162.4225 400.52625 162.125 401.3125 C161 404 161 404 159 407 C158.34 407 157.68 407 157 407 C156.731875 407.57234375 156.46375 408.1446875 156.1875 408.734375 C154.95867364 411.07884634 153.57477824 413.12404938 152 415.25 C151.2265625 416.30960937 151.2265625 416.30960937 150.4375 417.390625 C149.963125 417.92171875 149.48875 418.4528125 149 419 C148.34 419 147.68 419 147 419 C147 419.66 147 420.32 147 421 C146.34 421 145.68 421 145 421 C145 421.66 145 422.32 145 423 C144.34 423 143.68 423 143 423 C143 423.66 143 424.32 143 425 C142.34 425 141.68 425 141 425 C141 425.66 141 426.32 141 427 C140.34 427 139.68 427 139 427 C139 427.66 139 428.32 139 429 C138.34 429 137.68 429 137 429 C137 429.66 137 430.32 137 431 C135.6015625 432.41015625 135.6015625 432.41015625 133.625 434.0625 C130.45515833 436.74937105 127.36589155 439.49398472 124.3125 442.3125 C93.15845012 470.32736318 52.69238161 489.77675837 11.8125 498.125 C10.63880859 498.37636719 9.46511719 498.62773437 8.25585938 498.88671875 C-7.29066225 502.09860153 -22.60648894 503.34006568 -38.45898438 503.26074219 C-40.99894049 503.25000448 -43.53818976 503.26072805 -46.078125 503.2734375 C-60.5733039 503.28628737 -74.87764453 502.07831467 -89.125 499.3125 C-89.97843994 499.14806396 -90.83187988 498.98362793 -91.71118164 498.81420898 C-102.66752703 496.59368873 -113.35001369 493.36994719 -124 490 C-124.72364746 489.7716748 -125.44729492 489.54334961 -126.19287109 489.30810547 C-134.58811591 486.61091428 -142.33727842 483.02775219 -150.14648438 478.95458984 C-152.09190605 477.95266693 -154.05072945 476.98266917 -156.015625 476.01953125 C-174.02990657 467.1835882 -174.02990657 467.1835882 -180 463 C-180 462.34 -180 461.68 -180 461 C-181.98 460.34 -183.96 459.68 -186 459 C-186 458.34 -186 457.68 -186 457 C-186.763125 456.71125 -187.52625 456.4225 -188.3125 456.125 C-191 455 -191 455 -194 453 C-194 452.34 -194 451.68 -194 451 C-194.763125 450.71125 -195.52625 450.4225 -196.3125 450.125 C-199 449 -199 449 -202 447 C-202 446.34 -202 445.68 -202 445 C-202.66 445 -203.32 445 -204 445 C-204 444.34 -204 443.68 -204 443 C-204.5671875 442.74992187 -205.134375 442.49984375 -205.71875 442.2421875 C-212.85906567 438.3541389 -218.63091332 431.45690239 -224.375 425.75 C-224.87451172 425.25516113 -225.37402344 424.76032227 -225.88867188 424.25048828 C-234 416.10358416 -234 416.10358416 -234 413 C-234.66 413 -235.32 413 -236 413 C-237.5078125 411.3203125 -237.5078125 411.3203125 -239.125 409.125 C-239.66382813 408.40570313 -240.20265625 407.68640625 -240.7578125 406.9453125 C-242 405 -242 405 -242 403 C-242.66 403 -243.32 403 -244 403 C-248 397.58823529 -248 397.58823529 -248 395 C-248.66 395 -249.32 395 -250 395 C-250.66 393.02 -251.32 391.04 -252 389 C-252.66 389 -253.32 389 -254 389 C-254.36351562 388.32195312 -254.72703125 387.64390625 -255.1015625 386.9453125 C-257.56425808 382.38616837 -260.04774054 377.88334414 -262.8125 373.5 C-284.78207557 337.23001828 -294.25269173 294.20836702 -294.13037109 252.18652344 C-294.12500462 250.0018826 -294.13035954 247.81744724 -294.13671875 245.6328125 C-294.14472043 232.71337905 -293.42534631 220.00480559 -291.25 207.25 C-291.0744458 206.21705811 -290.8988916 205.18411621 -290.71801758 204.11987305 C-289.08229217 194.86889735 -286.80717294 185.95722418 -284 177 C-283.75411133 176.19030762 -283.50822266 175.38061523 -283.25488281 174.54638672 C-275.54440392 149.2817498 -264.05898268 125.85284948 -248.6796875 104.37109375 C-247.00115425 102.12906046 -247.00115425 102.12906046 -246 100 C-245.34 100 -244.68 100 -244 100 C-243.7525 99.278125 -243.505 98.55625 -243.25 97.8125 C-241.87730408 94.72393418 -240.27646704 92.48988582 -238 90 C-237.34 90 -236.68 90 -236 90 C-235.62875 89.17242187 -235.62875 89.17242187 -235.25 88.328125 C-233.75765526 85.54863293 -231.96327477 83.2185293 -230 80.75 C-229.29875 79.85796875 -228.5975 78.9659375 -227.875 78.046875 C-227.25625 77.37140625 -226.6375 76.6959375 -226 76 C-225.34 76 -224.68 76 -224 76 C-224 75.34 -224 74.68 -224 74 C-223.34 74 -222.68 74 -222 74 C-222 73.34 -222 72.68 -222 72 C-221.34 72 -220.68 72 -220 72 C-220 71.34 -220 70.68 -220 70 C-219.34 70 -218.68 70 -218 70 C-218 69.34 -218 68.68 -218 68 C-217.34 68 -216.68 68 -216 68 C-216 67.34 -216 66.68 -216 66 C-215.34 66 -214.68 66 -214 66 C-214 65.34 -214 64.68 -214 64 C-212.28667246 62.41466298 -210.50310953 60.90458785 -208.6875 59.4375 C-207.20830078 58.22900391 -207.20830078 58.22900391 -205.69921875 56.99609375 C-203 55 -203 55 -200 54 C-200 53.34 -200 52.68 -200 52 C-194.58823529 48 -194.58823529 48 -192 48 C-192 47.34 -192 46.68 -192 46 C-190.3034668 44.57958984 -190.3034668 44.57958984 -187.94921875 42.9609375 C-186.68368164 42.09082031 -186.68368164 42.09082031 -185.39257812 41.203125 C-184.49990234 40.59984375 -183.60722656 39.9965625 -182.6875 39.375 C-181.36588867 38.45847656 -181.36588867 38.45847656 -180.01757812 37.5234375 C-179.17001953 36.9459375 -178.32246094 36.3684375 -177.44921875 35.7734375 C-176.66893311 35.24153809 -175.88864746 34.70963867 -175.0847168 34.16162109 C-173 33 -173 33 -170 33 C-170 32.34 -170 31.68 -170 31 C-143.89019202 17.76405728 -117.85583208 6.67679514 -89 1 C-87.98035156 0.79632813 -86.96070313 0.59265625 -85.91015625 0.3828125 C-82.94626796 -0.15758789 -79.98578803 -0.59709848 -77 -1 C-76.36094727 -1.09023437 -75.72189453 -1.18046875 -75.06347656 -1.2734375 C-50.24213864 -4.66076623 -24.68658379 -4.03758579 0 0 Z " fill="#000000" transform="translate(297,6)"/>
<path d="M0 0 C1.56116547 0.00045319 1.56116547 0.00045319 3.15386963 0.00091553 C4.8290567 0.03188324 4.8290567 0.03188324 6.53808594 0.06347656 C8.26088776 0.07196625 8.26088776 0.07196625 10.01849365 0.08062744 C13.68690668 0.10301825 17.3543431 0.15322215 21.02246094 0.20410156 C23.509426 0.22416295 25.99640637 0.24241435 28.48339844 0.25878906 C34.58008583 0.30289201 40.67620361 0.36983207 46.77246094 0.45410156 C46.84267511 17.23126833 46.89550971 34.00838713 46.92789745 50.78566551 C46.94333822 58.57639872 46.96437407 66.3670404 46.9987793 74.15771484 C47.02876744 80.9514547 47.04805621 87.74512824 47.05472642 94.53893244 C47.05862281 98.13314887 47.06772093 101.72717564 47.08965111 105.32133102 C47.11398699 109.34272268 47.11442492 113.36378876 47.11303711 117.38525391 C47.12382294 118.56489716 47.13460876 119.74454041 47.14572144 120.95993042 C47.10050606 133.10348869 44.2414898 142.81828374 35.65136719 151.62988281 C30.41171578 156.47376416 24.80023791 160.8506396 19.16601562 165.22045898 C14.0167466 169.22180623 9.04522863 173.40277853 4.10058594 177.65332031 C3.57598785 178.08237671 3.05138977 178.51143311 2.51089478 178.95349121 C0.68972777 180.4763116 0.68972777 180.4763116 -1.1234436 182.44396973 C-8.89535576 189.89830929 -16.6631879 189.58170339 -26.76660156 189.41113281 C-28.45950179 189.40889866 -30.15240786 189.40949307 -31.8453064 189.4127655 C-35.37768004 189.41103043 -38.90841466 189.38213671 -42.44042969 189.33227539 C-46.95089874 189.26981255 -51.45914202 189.26501995 -55.96994972 189.27925587 C-59.46013291 189.28568823 -62.94981965 189.26685779 -66.43989182 189.23999596 C-68.1023198 189.22917643 -69.76480378 189.22482637 -71.42726517 189.22727394 C-81.11233762 189.22128885 -88.43943562 189.02441878 -95.72598267 182.01203918 C-106.48162163 170.32752906 -101.22753906 151.08541047 -101.22753906 137.45410156 C-70.86753906 137.45410156 -40.50753906 137.45410156 -9.22753906 137.45410156 C-9.27394531 127.89957031 -9.32035156 118.34503906 -9.36816406 108.50097656 C-9.38859548 102.45800351 -9.40801611 96.4150554 -9.42285156 90.37207031 C-9.44660242 80.77449004 -9.47454992 71.17705005 -9.52929688 61.57958984 C-9.5691468 54.59033837 -9.59496759 47.6012005 -9.60389304 40.61183858 C-9.60911099 36.91044251 -9.62138678 33.20937149 -9.65045929 29.50807953 C-9.68263996 25.37763507 -9.68349968 21.24775687 -9.68164062 17.1171875 C-9.69602173 15.88792038 -9.71040283 14.65865326 -9.72521973 13.39213562 C-9.71972107 12.26755447 -9.71422241 11.14297333 -9.70855713 9.98431396 C-9.7122443 9.0072134 -9.71593147 8.03011284 -9.71973038 7.02340317 C-8.66129294 1.49822437 -5.26945747 -0.05115978 0 0 Z " fill="#FEFEFE" transform="translate(311.2275390625,173.5458984375)"/>
<path d="M0 0 C16.83 0 33.66 0 51 0 C51 45.21 51 90.42 51 137 C3 137 3 137 -4 131 C-4.98621062 128.04136814 -5.13474068 126.09021662 -5.15390015 123.00332642 C-5.16250061 121.97148727 -5.17110107 120.93964813 -5.17996216 119.87654114 C-5.18422211 118.74504135 -5.18848206 117.61354156 -5.19287109 116.44775391 C-5.20513733 114.65961021 -5.20513733 114.65961021 -5.21765137 112.83534241 C-5.24250637 108.88242937 -5.25917237 104.92952382 -5.2734375 100.9765625 C-5.27879831 99.61493295 -5.28417582 98.25330346 -5.28956985 96.89167404 C-5.3111904 91.22813903 -5.32992763 85.56460684 -5.34119225 79.90104103 C-5.35743728 71.78740053 -5.39063707 63.67423842 -5.44759309 55.56077826 C-5.4862902 49.85368041 -5.50582445 44.14671056 -5.51111281 38.43948495 C-5.51476593 35.0314567 -5.52678188 31.62393915 -5.55921555 28.21605301 C-5.5907144 24.41400707 -5.59092619 20.61317646 -5.58349609 16.81103516 C-5.59990143 15.68358383 -5.61630676 14.55613251 -5.63320923 13.39451599 C-5.62489075 12.3570372 -5.61657227 11.31955841 -5.60800171 10.25064087 C-5.61131186 9.35210199 -5.614622 8.45356312 -5.61803246 7.52779579 C-5 5 -5 5 0 0 Z " fill="#FDFDFD" transform="translate(159,174)"/>
<path d="M0 0 C17.16 0 34.32 0 52 0 C52 42.9 52 85.8 52 130 C51.67 130 51.34 130 51 130 C51 87.43 51 44.86 51 1 C21.90718981 -3.08673982 21.90718981 -3.08673982 -2 5 C-2.2838484 7.49083957 -2.38354076 9.72903423 -2.3473053 12.21876526 C-2.34845744 12.95904038 -2.34960958 13.6993155 -2.35079664 14.4620232 C-2.35105536 16.9496183 -2.32984752 19.43657255 -2.30883789 21.92407227 C-2.30471878 23.70449573 -2.30194868 25.48492276 -2.3004303 27.26535034 C-2.29432936 31.10249282 -2.27879822 34.93944205 -2.25605965 38.77652168 C-2.22033998 44.83879618 -2.20630004 50.90100084 -2.19541931 56.96336365 C-2.17126767 68.73458589 -2.12455284 80.50566794 -2.07582855 92.27680969 C-2.01503182 107.26412651 -1.96539871 122.25146172 -1.93383402 137.23886913 C-1.92041016 143.27054313 -1.89648532 149.3020595 -1.8644315 155.33366215 C-1.84638078 159.0791013 -1.83644449 162.82453032 -1.82866478 166.57000351 C-1.82330405 168.3123549 -1.8144632 170.05469943 -1.80196381 171.79701424 C-1.78539688 174.16749361 -1.78098712 176.53768894 -1.77967834 178.90821838 C-1.7718063 179.60460798 -1.76393426 180.30099758 -1.75582367 181.0184899 C-1.77184284 185.77184284 -1.77184284 185.77184284 -4 188 C-6.42619321 188.2138826 -8.73980777 188.30409122 -11.16845703 188.30639648 C-11.90692368 188.31472 -12.64539032 188.32304352 -13.40623474 188.33161926 C-15.85681384 188.35578543 -18.30712672 188.36450188 -20.7578125 188.37109375 C-22.46214885 188.3800593 -24.16648438 188.38918114 -25.87081909 188.39845276 C-29.45035718 188.4149662 -33.02980153 188.42264639 -36.609375 188.42553711 C-41.18260127 188.4309051 -45.75493754 188.46850851 -50.32791328 188.51428127 C-53.85225578 188.54412855 -57.37638671 188.55126242 -60.90084457 188.55226326 C-62.58567225 188.55645501 -64.27050117 188.56884726 -65.95520401 188.58978081 C-75.75650685 188.70180943 -83.11780905 188.66825495 -90.49734497 181.55711365 C-101.25690251 169.88410321 -96 150.6019001 -96 137 C-65.64 137 -35.28 137 -4 137 C-4.04640625 127.44546875 -4.0928125 117.8909375 -4.140625 108.046875 C-4.16105642 102.00390195 -4.18047705 95.96095384 -4.1953125 89.91796875 C-4.21906336 80.32038848 -4.24701086 70.72294848 -4.30175781 61.12548828 C-4.34160774 54.13623681 -4.36742853 47.14709894 -4.37635398 40.15773702 C-4.38157193 36.45634095 -4.39384771 32.75526993 -4.42292023 29.05397797 C-4.4551009 24.92353351 -4.45596061 20.79365531 -4.45410156 16.66308594 C-4.46848267 15.43381882 -4.48286377 14.2045517 -4.49768066 12.93803406 C-4.49218201 11.81345291 -4.48668335 10.68887177 -4.48101807 9.5302124 C-4.48470524 8.55311184 -4.48839241 7.57601128 -4.49219131 6.56930161 C-4 4 -4 4 0 0 Z " fill="#ECECED" transform="translate(306,174)"/>
</svg>
