<svg width="40" height="40" viewBox="0 0 40 40" fill="none" xmlns="http://www.w3.org/2000/svg">
<path d="M13.9678 6C17.5477 6 20.8079 7.344 23.285 9.56C23.9323 10.136 24.8672 10.232 25.6103 9.8L30.9082 6.736C32.1947 5.992 32.2426 4.152 31.0041 3.328C27.8397 1.232 24.0441 0 19.9609 0C9.16537 0 0.383555 8.568 0 19.28C0.375565 11.88 6.48049 6 13.9678 6Z" fill="#F75B00"/>
<path d="M39.4423 15.568C39.2345 14.656 38.4274 14 37.4925 14H11.9781C11.9781 14 10.2441 14 10.0124 18.832C9.98842 19.192 9.98043 19.584 9.98043 20C9.98043 21.04 10.0364 21.904 10.1402 22.616C10.5638 25.6 11.6745 25.952 11.9302 25.992H11.9781H26.6012C24.3558 30.72 19.5453 33.992 13.9678 33.992C6.48049 34 0.375565 28.12 0 20.72C0.391546 31.736 9.66879 40.48 20.8718 39.976C31.084 39.52 39.4023 31.232 39.9057 21.016C40.0016 19.136 39.8338 17.312 39.4343 15.568H39.4423Z" fill="#F75B00"/>
</svg>
