<svg width="1674" height="850" viewBox="0 0 1674 850" fill="none" xmlns="http://www.w3.org/2000/svg">
<path d="M1253.88 0.0778032C1117.32 0.0778032 1001.8 59.9085 910.577 178.014C834.858 275.968 753.218 420.838 746.752 432.352C717.851 479.423 680.849 536.842 646.339 581.501C582.85 663.661 510.948 701.941 420.116 701.941C270.08 701.941 148.011 580.023 148.011 430.174C148.011 280.325 270.08 158.407 420.116 158.407C515.466 158.407 602.17 206.879 652.104 288.105L824.263 0H651.948L616.659 59.0526C557.299 27.6979 490.227 10.5812 420.116 10.5812C188.519 10.5812 0 198.787 0 430.174C0 661.561 188.441 849.767 420.116 849.767C556.676 849.767 672.202 789.936 763.423 671.831C839.142 573.876 920.782 429.007 927.247 417.492C956.148 370.421 993.151 313.002 1027.66 268.343C1091.15 186.183 1163.05 147.904 1253.88 147.904C1403.92 147.904 1525.99 269.822 1525.99 419.67C1525.99 569.519 1403.92 691.437 1253.88 691.437C1158.53 691.437 1071.83 642.966 1021.9 561.739L849.737 850H1022.05L1057.34 790.947C1116.7 822.302 1183.77 839.419 1253.88 839.419C1485.48 839.419 1674 651.213 1674 419.826C1674 188.439 1485.56 0.0778032 1253.88 0.0778032Z" fill="#6C47E4"/>
</svg>
