<svg version="1.1" id="Layer_1" xmlns="http://www.w3.org/2000/svg" xmlns:xlink="http://www.w3.org/1999/xlink" x="0px" y="0px"
	 width="100%" viewBox="0 0 1230 446" enable-background="new 0 0 1230 446" xml:space="preserve">
<path fill="#5E17EB" opacity="1.000000" stroke="none" 
	d="
M793.000000,447.000000 
	C528.666687,447.000000 264.833405,447.000000 1.000071,447.000000 
	C1.000047,298.333374 1.000047,149.666763 1.000024,1.000111 
	C410.999908,1.000074 820.999817,1.000074 1230.999756,1.000037 
	C1230.999878,149.666550 1230.999878,298.333099 1231.000000,446.999817 
	C1085.166626,447.000000 939.333313,447.000000 793.000000,447.000000 
M506.829895,180.834976 
	C506.829895,180.834976 506.563263,180.573654 506.398590,179.700516 
	C506.398590,150.240417 506.398590,120.780327 506.398590,91.104218 
	C497.834076,91.104218 488.755157,91.104218 479.466431,91.104218 
	C479.466431,168.593765 479.466431,245.801987 479.466431,323.159241 
	C488.860779,323.159241 497.922546,323.159241 507.410828,323.159241 
	C507.410828,312.169678 507.364227,301.533417 507.420135,290.897705 
	C507.551514,265.903534 506.872620,240.866882 508.113220,215.926590 
	C509.610138,185.833496 531.212097,169.049500 561.007812,173.149796 
	C574.136230,174.956436 581.444336,181.405441 584.191650,194.358749 
	C585.324463,199.699951 585.973938,205.245407 586.002991,210.702438 
	C586.192322,246.200729 586.150452,281.700226 586.183899,317.199341 
	C586.185730,319.130585 586.184143,321.061829 586.184143,323.062622 
	C596.048218,323.062622 605.253418,323.062622 614.536560,323.062622 
	C614.623840,321.623566 614.736267,320.633148 614.736450,319.642731 
	C614.742249,283.476685 614.826782,247.310242 614.656677,211.144989 
	C614.623901,204.177322 614.005554,197.149078 612.930908,190.262131 
	C610.258789,173.137375 602.191589,160.007629 584.806580,154.199326 
	C573.983521,150.583374 562.841309,150.164337 551.692444,151.286301 
	C538.574280,152.606400 526.759888,157.300018 517.809509,167.471405 
	C513.997681,171.803146 510.651306,176.544357 506.829895,180.834976 
M190.448303,284.076019 
	C195.094131,289.451752 195.673874,295.162598 192.019775,301.329620 
	C191.269333,302.596130 190.944305,304.115723 190.430511,305.521332 
	C181.351517,330.357697 172.184830,355.162537 163.234131,380.045044 
	C158.942841,391.974579 167.052551,401.316315 179.518723,399.084869 
	C181.141434,398.794403 182.734695,398.256256 184.291763,397.694672 
	C216.050232,386.240936 247.786469,374.725037 279.585236,363.384460 
	C281.897400,362.559875 284.854980,362.266937 287.172852,362.924316 
	C339.387970,377.733002 388.030212,370.110107 432.960266,339.711548 
	C440.160980,334.839783 446.603577,328.847443 453.934021,322.940094 
	C446.520599,316.104126 439.936829,310.033173 433.640839,304.227600 
	C426.254486,309.704437 418.911530,316.086243 410.716156,321.064941 
	C373.579437,343.625580 334.102112,348.186920 292.699097,334.989563 
	C286.714935,333.082092 281.218903,332.762299 275.238647,335.035858 
	C259.383972,341.063538 243.384003,346.709259 227.436905,352.493347 
	C218.446136,355.754395 209.445679,358.988708 199.598328,362.542236 
	C200.338455,360.063293 200.715302,358.510193 201.260696,357.018646 
	C208.114105,338.276367 214.696487,319.426849 221.996552,300.859680 
	C225.306610,292.440857 224.386795,285.756805 219.503601,278.022156 
	C193.929871,237.515076 189.586670,194.262085 207.487564,150.017593 
	C241.239944,66.594078 342.668427,37.049782 416.803833,88.215439 
	C417.969147,89.019707 419.244354,89.664810 420.648132,90.489906 
	C426.255524,82.998451 431.613922,75.839645 436.968750,68.685600 
	C378.351318,23.860716 290.493622,21.889505 227.504135,75.356415 
	C167.986557,125.876289 151.819748,213.777878 190.448303,284.076019 
M788.944580,206.608780 
	C788.634521,202.961716 788.545166,199.279861 787.976746,195.673508 
	C785.232849,178.263809 777.030090,164.234650 760.232971,157.578171 
	C733.967102,147.169342 707.333252,147.669235 681.709045,159.724533 
	C666.848206,166.716034 659.347412,179.868927 656.795654,196.508774 
	C666.774231,197.430649 676.289734,198.309738 685.584961,199.168472 
	C686.007629,198.321335 686.211975,198.038742 686.293762,197.724304 
	C686.544617,196.759659 686.741577,195.781158 686.971619,194.810928 
	C689.380859,184.650146 695.002319,177.263062 705.430908,174.581467 
	C716.889160,171.635117 728.529480,171.095856 739.965149,174.513245 
	C748.757690,177.140808 755.620178,182.767319 757.651489,191.914490 
	C759.641357,200.875214 760.102234,210.175507 761.276733,219.670227 
	C758.411255,219.856064 756.952759,219.999527 755.491516,220.037781 
	C742.500122,220.377823 729.503113,220.563217 716.518127,221.063950 
	C703.139893,221.579849 689.986755,223.536789 677.641602,229.068832 
	C665.011353,234.728638 656.081787,243.914658 651.919373,257.301758 
	C648.111206,269.549713 648.081482,281.930328 651.508789,294.238007 
	C655.822693,309.730072 665.491516,320.511688 681.366211,323.973602 
	C689.997620,325.855957 699.154236,326.204132 708.029480,325.908478 
	C725.501221,325.326477 740.281616,318.455170 751.217102,304.398590 
	C754.507568,300.168884 757.506470,295.712280 760.752869,291.201385 
	C761.126587,291.898529 761.379456,292.174652 761.420532,292.479340 
	C761.642639,294.126678 761.758423,295.789276 762.008728,297.431702 
	C763.707642,308.579315 767.116089,318.868652 779.028503,322.890106 
	C790.579956,326.789734 802.256836,325.069183 814.006653,322.343994 
	C814.006653,319.108826 814.006653,316.286316 814.006653,313.463776 
	C814.006653,310.718109 814.006653,307.972443 814.006653,305.144379 
	C810.964233,305.461609 808.658264,305.831512 806.341370,305.921143 
	C796.429199,306.304504 791.832642,302.775146 790.107056,292.971344 
	C789.332703,288.571594 789.046875,284.036957 789.027283,279.561401 
	C788.922241,255.568756 788.971008,231.575439 788.944580,206.608780 
M1046.386353,299.829681 
	C1053.973755,284.308594 1054.675659,268.797485 1045.809204,253.560028 
	C1039.244995,242.279221 1028.691895,236.004150 1016.639160,232.268509 
	C1002.667786,227.938263 988.459534,224.372345 974.489868,220.037079 
	C967.876343,217.984680 961.012756,215.801361 955.251831,212.126404 
	C941.886475,203.600586 943.309814,183.272614 957.954651,177.350571 
	C965.739868,174.202408 974.738159,172.853424 983.196899,172.821594 
	C1000.748718,172.755569 1017.542236,175.463638 1024.126953,195.965668 
	C1032.368164,194.889618 1040.566284,193.819168 1048.772339,192.747696 
	C1046.372681,177.143600 1037.906250,164.800720 1024.008057,159.020874 
	C997.796326,148.120285 971.107361,148.392029 944.645142,158.211121 
	C934.653748,161.918564 926.804138,168.837845 922.802551,178.991501 
	C913.891174,201.603180 919.072998,223.450790 942.680969,235.193924 
	C953.140808,240.396866 964.808228,243.202225 975.983215,246.929001 
	C987.942566,250.917374 1000.197815,254.129562 1011.889709,258.773712 
	C1020.934204,262.366333 1025.024292,270.217041 1024.530884,280.048767 
	C1023.986389,290.899933 1018.401672,298.071350 1008.119263,301.486084 
	C996.527710,305.335571 984.588867,305.889557 972.576904,304.495636 
	C967.653992,303.924377 962.693176,302.894989 957.994385,301.336273 
	C947.135986,297.734344 940.273865,289.999420 937.059509,278.730499 
	C928.587830,280.465210 920.546631,282.111755 912.269653,283.806580 
	C917.000000,303.658752 928.634216,316.134827 947.399475,321.907928 
	C966.610779,327.818207 986.259155,327.840454 1005.778503,324.594360 
	C1022.074951,321.884247 1036.805176,315.499084 1046.386353,299.829681 
M866.785217,236.500122 
	C866.785217,215.932632 866.785217,195.365158 866.785217,174.412918 
	C877.601746,174.412918 887.560303,174.412918 897.731201,174.412918 
	C897.731201,167.464859 897.731201,160.915009 897.731201,153.896988 
	C887.365601,153.896988 877.283997,153.896988 866.631836,153.896988 
	C866.631836,141.042816 866.631836,128.648560 866.631836,116.191322 
	C860.093872,116.191322 854.142090,116.191322 847.872375,116.191322 
	C845.089478,128.757523 842.332825,141.204941 839.460388,154.175568 
	C832.509521,154.175568 825.783447,154.175568 819.230591,154.175568 
	C819.230591,161.216476 819.230591,167.645645 819.230591,174.768585 
	C825.740784,174.768585 831.962646,174.768585 838.427246,174.768585 
	C838.427246,189.955658 838.369873,204.438614 838.439941,218.920944 
	C838.562378,244.238113 838.402405,269.564667 839.088196,294.867584 
	C839.414673,306.914215 844.070984,317.644653 856.025879,322.690765 
	C870.242126,328.691345 884.824890,325.737549 899.212097,322.604218 
	C899.895691,322.455383 900.811401,321.231171 900.826660,320.491394 
	C900.955688,314.235352 900.900208,307.975494 900.900208,301.824890 
	C894.306458,302.410919 888.361816,303.254181 882.400818,303.392303 
	C874.270508,303.580688 869.655457,299.774933 867.847778,291.884918 
	C867.257996,289.310669 866.940125,286.619171 866.920593,283.978180 
	C866.806091,268.485992 866.816772,252.992920 866.785217,236.500122 
M394.379974,225.099945 
	C406.245178,220.876343 411.956818,210.336456 408.375000,199.274307 
	C404.889496,188.509552 394.056274,182.839203 382.982056,185.983063 
	C372.795258,188.874985 366.729431,199.543991 369.142426,210.325165 
	C371.561523,221.133560 381.935211,227.489822 394.379974,225.099945 
M287.697235,202.138962 
	C285.097687,192.216187 278.902039,186.036652 269.870026,185.129501 
	C261.350708,184.273865 254.598831,187.752533 250.036240,194.997787 
	C245.406891,202.349045 246.313477,212.045761 251.976562,218.696304 
	C257.750580,225.477066 266.592590,227.664917 275.034393,224.401703 
	C283.751526,221.032059 288.345093,213.338928 287.697235,202.138962 
M314.332672,190.829910 
	C307.309875,198.602554 306.079315,207.124252 310.764496,215.539719 
	C314.933044,223.027222 323.671051,227.204239 331.860474,225.624176 
	C340.745300,223.909973 347.133911,217.519394 348.729889,208.749527 
	C350.192932,200.710159 345.960663,192.009766 338.459381,187.636246 
	C331.027435,183.303146 322.556915,184.269089 314.332672,190.829910 
M604.067078,368.340607 
	C601.412415,363.914490 598.578674,359.583282 596.165894,355.029053 
	C594.548523,351.976227 592.517578,351.013245 589.326965,352.171661 
	C589.326965,363.110870 589.326965,373.986298 589.326965,385.067139 
	C591.318848,384.962921 592.925598,384.878815 595.118103,384.764099 
	C595.118103,378.156372 595.118103,371.819427 595.118103,365.482513 
	C598.755127,369.852356 601.524963,374.354584 604.265259,378.874664 
	C606.253601,382.154236 608.106750,382.132874 610.058289,378.807495 
	C612.712219,374.285461 615.460327,369.818695 618.168091,365.328217 
	C618.523682,365.409058 618.879272,365.489899 619.234863,365.570709 
	C619.234863,371.930298 619.234863,378.289856 619.234863,384.681152 
	C621.612732,384.681152 623.341858,384.681152 625.026978,384.681152 
	C625.026978,373.584808 625.026978,362.824310 625.026978,352.229736 
	C621.345093,350.855682 619.555664,352.422272 617.975525,355.300385 
	C614.700562,361.265717 611.111145,367.058380 607.392639,373.359985 
	C606.243896,371.660614 605.334839,370.315704 604.067078,368.340607 
M682.319153,370.792877 
	C682.319153,375.415619 682.319153,380.038391 682.319153,384.663330 
	C684.643677,384.663330 686.364441,384.663330 688.021912,384.663330 
	C688.021912,373.559387 688.021912,362.809509 688.021912,352.228241 
	C684.336365,350.859100 682.551086,352.429779 680.973755,355.303497 
	C677.700256,361.267273 674.112854,367.058777 670.265564,373.580353 
	C666.394714,367.166595 662.651367,361.315796 659.291748,355.252350 
	C657.552795,352.113800 655.580750,350.813965 652.225159,352.276031 
	C652.225159,363.148651 652.225159,373.908661 652.225159,384.663452 
	C654.217285,384.663452 655.931274,384.663452 658.261597,384.663452 
	C658.261597,378.038025 658.261597,371.749176 658.261597,364.102936 
	C661.740540,369.796600 664.384399,374.217316 667.123901,378.577942 
	C669.396973,382.195831 670.875854,382.212219 673.106995,378.643646 
	C675.866211,374.230682 678.527832,369.756683 681.968323,364.097260 
	C682.145020,367.040070 682.230652,368.465698 682.319153,370.792877 
M544.164551,385.260620 
	C553.926453,386.034485 561.140442,382.075500 563.920593,374.418579 
	C567.262024,365.215851 562.531372,355.250488 553.384399,352.223572 
	C543.063843,348.808319 532.543945,353.876129 529.719910,363.623657 
	C526.832092,373.591400 532.535339,382.580902 544.164551,385.260620 
M783.665405,352.481110 
	C777.252625,352.155518 770.839905,351.829926 764.371338,351.501526 
	C764.371338,363.124481 764.371338,373.888519 764.371338,384.810852 
	C766.427917,384.810852 768.206360,384.810852 770.159973,384.810852 
	C770.375305,381.702332 770.577881,378.778412 770.773865,375.949127 
	C776.216980,374.300293 780.205139,375.235077 782.685730,380.368683 
	C784.512573,384.149200 787.251404,386.303802 792.140991,384.423462 
	C789.872986,381.046661 787.687012,377.791992 785.517273,374.561554 
	C794.883911,366.440765 794.370178,357.574432 783.665405,352.481110 
M714.989624,383.238007 
	C715.947388,383.826416 716.897217,384.908661 717.864197,384.924194 
	C724.851868,385.036255 731.843140,384.938293 738.832947,384.876709 
	C739.114624,384.874237 739.393677,384.569550 739.943970,384.247833 
	C739.861206,382.982361 739.769836,381.584686 739.647949,379.719727 
	C733.406189,379.719727 727.488708,379.719727 721.509399,379.719727 
	C721.509399,376.508667 721.509399,373.799591 721.509399,370.680725 
	C726.836365,370.680725 731.785706,370.680725 736.896301,370.680725 
	C736.896301,368.827209 736.896301,367.391602 736.896301,365.306976 
	C731.595764,365.306976 726.536194,365.306976 721.414185,365.306976 
	C721.414185,362.241577 721.414185,359.831116 721.414185,356.887909 
	C727.426453,356.887909 733.169617,356.887909 739.232239,356.887909 
	C739.096436,354.925018 738.999573,353.523987 738.900208,352.087494 
	C730.799866,352.087494 723.075500,352.087494 714.969299,352.087494 
	C714.969299,362.365295 714.969299,372.322021 714.989624,383.238007 
M884.440308,385.009125 
	C887.392029,385.009125 890.343811,385.009125 893.508118,385.009125 
	C893.508118,383.122833 893.508118,381.739929 893.508118,379.687500 
	C887.227173,379.687500 881.193848,379.687500 875.245850,379.687500 
	C875.245850,376.414825 875.245850,373.822174 875.245850,370.683746 
	C880.575195,370.683746 885.632202,370.683746 890.992615,370.683746 
	C890.879517,368.694031 890.799072,367.278992 890.685181,365.275269 
	C885.333191,365.275269 880.285339,365.275269 875.224854,365.275269 
	C875.224854,362.243683 875.224854,359.826111 875.224854,356.910583 
	C881.205750,356.910583 886.938965,356.910583 892.722290,356.910583 
	C892.722290,354.991699 892.722290,353.592590 892.722290,352.031799 
	C884.722534,352.031799 876.998596,352.031799 869.135315,352.031799 
	C869.135315,363.126373 869.135315,373.943726 869.135315,385.009125 
	C874.184448,385.009125 878.822266,385.009125 884.440308,385.009125 
M844.605103,379.710236 
	C843.742432,378.316132 842.879761,376.922028 842.210938,375.841187 
	C833.643738,381.132477 827.628052,380.990082 823.320862,376.228943 
	C819.801392,372.338593 819.468811,365.696442 822.579468,361.421631 
	C826.526611,355.997101 832.413147,355.564362 841.722046,360.268280 
	C842.808960,359.304047 844.010315,358.238342 845.208984,357.174988 
	C837.577576,349.493439 826.142456,349.312622 819.091309,356.179901 
	C812.536560,362.563751 812.277771,373.476318 818.524475,380.081818 
	C825.268311,387.213043 836.989624,387.348694 844.605103,379.710236 
M502.861816,376.929108 
	C501.897003,377.570648 500.995667,378.349274 499.956573,378.830414 
	C495.018188,381.117004 489.173096,379.910004 485.843842,376.000427 
	C482.573517,372.160065 482.197174,366.430054 484.926605,362.035950 
	C487.540833,357.827454 492.932220,355.715485 498.029602,357.235168 
	C500.173218,357.874237 502.116516,359.185211 504.170898,360.200623 
	C504.930023,359.527252 505.604950,359.032104 506.145599,358.418640 
	C506.644196,357.852844 506.998627,357.159943 507.383972,356.572662 
	C499.712555,349.307465 488.040344,349.492065 481.260376,356.755615 
	C474.930695,363.536743 475.384888,374.787140 482.238556,380.985962 
	C489.352386,387.420166 501.116791,386.967194 507.418488,379.799255 
	C506.810211,379.115875 506.245300,378.322418 505.522308,377.718079 
	C504.916443,377.211517 504.126038,376.925690 502.861816,376.929108 
z"/>
<path fill="#F3F4FC" opacity="1.000000" stroke="none" 
	d="
M190.258240,283.760956 
	C151.819748,213.777878 167.986557,125.876289 227.504135,75.356415 
	C290.493622,21.889505 378.351318,23.860716 436.968750,68.685600 
	C431.613922,75.839645 426.255524,82.998451 420.648132,90.489906 
	C419.244354,89.664810 417.969147,89.019707 416.803833,88.215439 
	C342.668427,37.049782 241.239944,66.594078 207.487564,150.017593 
	C189.586670,194.262085 193.929871,237.515076 219.503601,278.022156 
	C224.386795,285.756805 225.306610,292.440857 221.996552,300.859680 
	C214.696487,319.426849 208.114105,338.276367 201.260696,357.018646 
	C200.715302,358.510193 200.338455,360.063293 199.598328,362.542236 
	C209.445679,358.988708 218.446136,355.754395 227.436905,352.493347 
	C243.384003,346.709259 259.383972,341.063538 275.238647,335.035858 
	C281.218903,332.762299 286.714935,333.082092 292.699097,334.989563 
	C334.102112,348.186920 373.579437,343.625580 410.716156,321.064941 
	C418.911530,316.086243 426.254486,309.704437 433.640839,304.227600 
	C439.936829,310.033173 446.520599,316.104126 453.934021,322.940094 
	C446.603577,328.847443 440.160980,334.839783 432.960266,339.711548 
	C388.030212,370.110107 339.387970,377.733002 287.172852,362.924316 
	C284.854980,362.266937 281.897400,362.559875 279.585236,363.384460 
	C247.786469,374.725037 216.050232,386.240936 184.291763,397.694672 
	C182.734695,398.256256 181.141434,398.794403 179.518723,399.084869 
	C167.052551,401.316315 158.942841,391.974579 163.234131,380.045044 
	C172.184830,355.162537 181.351517,330.357697 190.430511,305.521332 
	C190.944305,304.115723 191.269333,302.596130 192.019775,301.329620 
	C195.673874,295.162598 195.094131,289.451752 190.258240,283.760956 
z"/>
<path fill="#F2F4FC" opacity="1.000000" stroke="none" 
	d="
M788.955627,207.095566 
	C788.971008,231.575439 788.922241,255.568756 789.027283,279.561401 
	C789.046875,284.036957 789.332703,288.571594 790.107056,292.971344 
	C791.832642,302.775146 796.429199,306.304504 806.341370,305.921143 
	C808.658264,305.831512 810.964233,305.461609 814.006653,305.144379 
	C814.006653,307.972443 814.006653,310.718109 814.006653,313.463776 
	C814.006653,316.286316 814.006653,319.108826 814.006653,322.343994 
	C802.256836,325.069183 790.579956,326.789734 779.028503,322.890106 
	C767.116089,318.868652 763.707642,308.579315 762.008728,297.431702 
	C761.758423,295.789276 761.642639,294.126678 761.420532,292.479340 
	C761.379456,292.174652 761.126587,291.898529 760.752869,291.201385 
	C757.506470,295.712280 754.507568,300.168884 751.217102,304.398590 
	C740.281616,318.455170 725.501221,325.326477 708.029480,325.908478 
	C699.154236,326.204132 689.997620,325.855957 681.366211,323.973602 
	C665.491516,320.511688 655.822693,309.730072 651.508789,294.238007 
	C648.081482,281.930328 648.111206,269.549713 651.919373,257.301758 
	C656.081787,243.914658 665.011353,234.728638 677.641602,229.068832 
	C689.986755,223.536789 703.139893,221.579849 716.518127,221.063950 
	C729.503113,220.563217 742.500122,220.377823 755.491516,220.037781 
	C756.952759,219.999527 758.411255,219.856064 761.276733,219.670227 
	C760.102234,210.175507 759.641357,200.875214 757.651489,191.914490 
	C755.620178,182.767319 748.757690,177.140808 739.965149,174.513245 
	C728.529480,171.095856 716.889160,171.635117 705.430908,174.581467 
	C695.002319,177.263062 689.380859,184.650146 686.971619,194.810928 
	C686.741577,195.781158 686.544617,196.759659 686.293762,197.724304 
	C686.211975,198.038742 686.007629,198.321335 685.584961,199.168472 
	C676.289734,198.309738 666.774231,197.430649 656.795654,196.508774 
	C659.347412,179.868927 666.848206,166.716034 681.709045,159.724533 
	C707.333252,147.669235 733.967102,147.169342 760.232971,157.578171 
	C777.030090,164.234650 785.232849,178.263809 787.976746,195.673508 
	C788.545166,199.279861 788.634521,202.961716 788.955627,207.095566 
M755.107788,275.552521 
	C761.122742,264.345215 760.582092,252.309402 760.159973,240.859222 
	C746.445129,240.859222 733.315918,240.669556 720.197144,240.956543 
	C715.246277,241.064865 710.282410,242.081329 705.387939,243.016281 
	C678.924561,248.071289 674.350708,271.723145 680.477844,289.621216 
	C683.611938,298.776245 690.864502,303.748627 700.337341,304.916016 
	C724.029907,307.835693 743.704346,297.371887 755.107788,275.552521 
z"/>
<path fill="#F2F3FC" opacity="1.000000" stroke="none" 
	d="
M507.093384,181.099487 
	C510.651306,176.544357 513.997681,171.803146 517.809509,167.471405 
	C526.759888,157.300018 538.574280,152.606400 551.692444,151.286301 
	C562.841309,150.164337 573.983521,150.583374 584.806580,154.199326 
	C602.191589,160.007629 610.258789,173.137375 612.930908,190.262131 
	C614.005554,197.149078 614.623901,204.177322 614.656677,211.144989 
	C614.826782,247.310242 614.742249,283.476685 614.736450,319.642731 
	C614.736267,320.633148 614.623840,321.623566 614.536560,323.062622 
	C605.253418,323.062622 596.048218,323.062622 586.184143,323.062622 
	C586.184143,321.061829 586.185730,319.130585 586.183899,317.199341 
	C586.150452,281.700226 586.192322,246.200729 586.002991,210.702438 
	C585.973938,205.245407 585.324463,199.699951 584.191650,194.358749 
	C581.444336,181.405441 574.136230,174.956436 561.007812,173.149796 
	C531.212097,169.049500 509.610138,185.833496 508.113220,215.926590 
	C506.872620,240.866882 507.551514,265.903534 507.420135,290.897705 
	C507.364227,301.533417 507.410828,312.169678 507.410828,323.159241 
	C497.922546,323.159241 488.860779,323.159241 479.466431,323.159241 
	C479.466431,245.801987 479.466431,168.593765 479.466431,91.104218 
	C488.755157,91.104218 497.834076,91.104218 506.398590,91.104218 
	C506.398590,120.780327 506.398590,150.240417 506.358154,180.328430 
	C506.405487,181.224243 506.493256,181.492126 506.581055,181.759995 
	C506.751831,181.539825 506.922607,181.319656 507.093384,181.099487 
z"/>
<path fill="#F2F4FC" opacity="1.000000" stroke="none" 
	d="
M1046.206787,300.151367 
	C1036.805176,315.499084 1022.074951,321.884247 1005.778503,324.594360 
	C986.259155,327.840454 966.610779,327.818207 947.399475,321.907928 
	C928.634216,316.134827 917.000000,303.658752 912.269653,283.806580 
	C920.546631,282.111755 928.587830,280.465210 937.059509,278.730499 
	C940.273865,289.999420 947.135986,297.734344 957.994385,301.336273 
	C962.693176,302.894989 967.653992,303.924377 972.576904,304.495636 
	C984.588867,305.889557 996.527710,305.335571 1008.119263,301.486084 
	C1018.401672,298.071350 1023.986389,290.899933 1024.530884,280.048767 
	C1025.024292,270.217041 1020.934204,262.366333 1011.889709,258.773712 
	C1000.197815,254.129562 987.942566,250.917374 975.983215,246.929001 
	C964.808228,243.202225 953.140808,240.396866 942.680969,235.193924 
	C919.072998,223.450790 913.891174,201.603180 922.802551,178.991501 
	C926.804138,168.837845 934.653748,161.918564 944.645142,158.211121 
	C971.107361,148.392029 997.796326,148.120285 1024.008057,159.020874 
	C1037.906250,164.800720 1046.372681,177.143600 1048.772339,192.747696 
	C1040.566284,193.819168 1032.368164,194.889618 1024.126953,195.965668 
	C1017.542236,175.463638 1000.748718,172.755569 983.196899,172.821594 
	C974.738159,172.853424 965.739868,174.202408 957.954651,177.350571 
	C943.309814,183.272614 941.886475,203.600586 955.251831,212.126404 
	C961.012756,215.801361 967.876343,217.984680 974.489868,220.037079 
	C988.459534,224.372345 1002.667786,227.938263 1016.639160,232.268509 
	C1028.691895,236.004150 1039.244995,242.279221 1045.809204,253.560028 
	C1054.675659,268.797485 1053.973755,284.308594 1046.206787,300.151367 
z"/>
<path fill="#F1F1FC" opacity="1.000000" stroke="none" 
	d="
M866.785217,237.000122 
	C866.816772,252.992920 866.806091,268.485992 866.920593,283.978180 
	C866.940125,286.619171 867.257996,289.310669 867.847778,291.884918 
	C869.655457,299.774933 874.270508,303.580688 882.400818,303.392303 
	C888.361816,303.254181 894.306458,302.410919 900.900208,301.824890 
	C900.900208,307.975494 900.955688,314.235352 900.826660,320.491394 
	C900.811401,321.231171 899.895691,322.455383 899.212097,322.604218 
	C884.824890,325.737549 870.242126,328.691345 856.025879,322.690765 
	C844.070984,317.644653 839.414673,306.914215 839.088196,294.867584 
	C838.402405,269.564667 838.562378,244.238113 838.439941,218.920944 
	C838.369873,204.438614 838.427246,189.955658 838.427246,174.768585 
	C831.962646,174.768585 825.740784,174.768585 819.230591,174.768585 
	C819.230591,167.645645 819.230591,161.216476 819.230591,154.175568 
	C825.783447,154.175568 832.509521,154.175568 839.460388,154.175568 
	C842.332825,141.204941 845.089478,128.757523 847.872375,116.191322 
	C854.142090,116.191322 860.093872,116.191322 866.631836,116.191322 
	C866.631836,128.648560 866.631836,141.042816 866.631836,153.896988 
	C877.283997,153.896988 887.365601,153.896988 897.731201,153.896988 
	C897.731201,160.915009 897.731201,167.464859 897.731201,174.412918 
	C887.560303,174.412918 877.601746,174.412918 866.785217,174.412918 
	C866.785217,195.365158 866.785217,215.932632 866.785217,237.000122 
z"/>
<path fill="#F2F4FC" opacity="1.000000" stroke="none" 
	d="
M393.980713,225.199799 
	C381.935211,227.489822 371.561523,221.133560 369.142426,210.325165 
	C366.729431,199.543991 372.795258,188.874985 382.982056,185.983063 
	C394.056274,182.839203 404.889496,188.509552 408.375000,199.274307 
	C411.956818,210.336456 406.245178,220.876343 393.980713,225.199799 
z"/>
<path fill="#F2F4FC" opacity="1.000000" stroke="none" 
	d="
M287.763824,202.555206 
	C288.345093,213.338928 283.751526,221.032059 275.034393,224.401703 
	C266.592590,227.664917 257.750580,225.477066 251.976562,218.696304 
	C246.313477,212.045761 245.406891,202.349045 250.036240,194.997787 
	C254.598831,187.752533 261.350708,184.273865 269.870026,185.129501 
	C278.902039,186.036652 285.097687,192.216187 287.763824,202.555206 
z"/>
<path fill="#F3F4FC" opacity="1.000000" stroke="none" 
	d="
M314.596436,190.578674 
	C322.556915,184.269089 331.027435,183.303146 338.459381,187.636246 
	C345.960663,192.009766 350.192932,200.710159 348.729889,208.749527 
	C347.133911,217.519394 340.745300,223.909973 331.860474,225.624176 
	C323.671051,227.204239 314.933044,223.027222 310.764496,215.539719 
	C306.079315,207.124252 307.309875,198.602554 314.596436,190.578674 
z"/>
<path fill="#EEEEFB" opacity="1.000000" stroke="none" 
	d="
M604.246399,368.655701 
	C605.334839,370.315704 606.243896,371.660614 607.392639,373.359985 
	C611.111145,367.058380 614.700562,361.265717 617.975525,355.300385 
	C619.555664,352.422272 621.345093,350.855682 625.026978,352.229736 
	C625.026978,362.824310 625.026978,373.584808 625.026978,384.681152 
	C623.341858,384.681152 621.612732,384.681152 619.234863,384.681152 
	C619.234863,378.289856 619.234863,371.930298 619.234863,365.570709 
	C618.879272,365.489899 618.523682,365.409058 618.168091,365.328217 
	C615.460327,369.818695 612.712219,374.285461 610.058289,378.807495 
	C608.106750,382.132874 606.253601,382.154236 604.265259,378.874664 
	C601.524963,374.354584 598.755127,369.852356 595.118103,365.482513 
	C595.118103,371.819427 595.118103,378.156372 595.118103,384.764099 
	C592.925598,384.878815 591.318848,384.962921 589.326965,385.067139 
	C589.326965,373.986298 589.326965,363.110870 589.326965,352.171661 
	C592.517578,351.013245 594.548523,351.976227 596.165894,355.029053 
	C598.578674,359.583282 601.412415,363.914490 604.246399,368.655701 
z"/>
<path fill="#EEEEFB" opacity="1.000000" stroke="none" 
	d="
M682.317688,370.342102 
	C682.230652,368.465698 682.145020,367.040070 681.968323,364.097260 
	C678.527832,369.756683 675.866211,374.230682 673.106995,378.643646 
	C670.875854,382.212219 669.396973,382.195831 667.123901,378.577942 
	C664.384399,374.217316 661.740540,369.796600 658.261597,364.102936 
	C658.261597,371.749176 658.261597,378.038025 658.261597,384.663452 
	C655.931274,384.663452 654.217285,384.663452 652.225159,384.663452 
	C652.225159,373.908661 652.225159,363.148651 652.225159,352.276031 
	C655.580750,350.813965 657.552795,352.113800 659.291748,355.252350 
	C662.651367,361.315796 666.394714,367.166595 670.265564,373.580353 
	C674.112854,367.058777 677.700256,361.267273 680.973755,355.303497 
	C682.551086,352.429779 684.336365,350.859100 688.021912,352.228241 
	C688.021912,362.809509 688.021912,373.559387 688.021912,384.663330 
	C686.364441,384.663330 684.643677,384.663330 682.319153,384.663330 
	C682.319153,380.038391 682.319153,375.415619 682.317688,370.342102 
z"/>
<path fill="#EDECFB" opacity="1.000000" stroke="none" 
	d="
M543.766235,385.198303 
	C532.535339,382.580902 526.832092,373.591400 529.719910,363.623657 
	C532.543945,353.876129 543.063843,348.808319 553.384399,352.223572 
	C562.531372,355.250488 567.262024,365.215851 563.920593,374.418579 
	C561.140442,382.075500 553.926453,386.034485 543.766235,385.198303 
M557.502808,363.255798 
	C553.357239,356.905273 546.748169,354.948273 540.936096,358.350342 
	C535.703918,361.412933 533.837402,368.470917 536.785522,374.045441 
	C539.644165,379.450775 546.534607,381.577576 552.267578,378.824249 
	C557.467468,376.326843 559.372070,371.238403 557.502808,363.255798 
z"/>
<path fill="#EFEFFB" opacity="1.000000" stroke="none" 
	d="
M784.036133,352.633728 
	C794.370178,357.574432 794.883911,366.440765 785.517273,374.561554 
	C787.687012,377.791992 789.872986,381.046661 792.140991,384.423462 
	C787.251404,386.303802 784.512573,384.149200 782.685730,380.368683 
	C780.205139,375.235077 776.216980,374.300293 770.773865,375.949127 
	C770.577881,378.778412 770.375305,381.702332 770.159973,384.810852 
	C768.206360,384.810852 766.427917,384.810852 764.371338,384.810852 
	C764.371338,373.888519 764.371338,363.124481 764.371338,351.501526 
	C770.839905,351.829926 777.252625,352.155518 784.036133,352.633728 
M770.578308,358.053375 
	C770.578308,361.965118 770.578308,365.876831 770.578308,370.028961 
	C773.931213,370.028961 776.747314,370.207703 779.531311,369.985596 
	C783.361206,369.679962 785.705017,367.488586 785.751770,363.566620 
	C785.796204,359.839447 783.476990,357.661865 779.967773,357.255219 
	C777.042664,356.916260 774.038635,357.257843 770.578308,358.053375 
z"/>
<path fill="#F2F3FC" opacity="1.000000" stroke="none" 
	d="
M714.979492,382.758392 
	C714.969299,372.322021 714.969299,362.365295 714.969299,352.087494 
	C723.075500,352.087494 730.799866,352.087494 738.900208,352.087494 
	C738.999573,353.523987 739.096436,354.925018 739.232239,356.887909 
	C733.169617,356.887909 727.426453,356.887909 721.414185,356.887909 
	C721.414185,359.831116 721.414185,362.241577 721.414185,365.306976 
	C726.536194,365.306976 731.595764,365.306976 736.896301,365.306976 
	C736.896301,367.391602 736.896301,368.827209 736.896301,370.680725 
	C731.785706,370.680725 726.836365,370.680725 721.509399,370.680725 
	C721.509399,373.799591 721.509399,376.508667 721.509399,379.719727 
	C727.488708,379.719727 733.406189,379.719727 739.647949,379.719727 
	C739.769836,381.584686 739.861206,382.982361 739.943970,384.247833 
	C739.393677,384.569550 739.114624,384.874237 738.832947,384.876709 
	C731.843140,384.938293 724.851868,385.036255 717.864197,384.924194 
	C716.897217,384.908661 715.947388,383.826416 714.979492,382.758392 
z"/>
<path fill="#F1F2FC" opacity="1.000000" stroke="none" 
	d="
M883.950195,385.009125 
	C878.822266,385.009125 874.184448,385.009125 869.135315,385.009125 
	C869.135315,373.943726 869.135315,363.126373 869.135315,352.031799 
	C876.998596,352.031799 884.722534,352.031799 892.722290,352.031799 
	C892.722290,353.592590 892.722290,354.991699 892.722290,356.910583 
	C886.938965,356.910583 881.205750,356.910583 875.224854,356.910583 
	C875.224854,359.826111 875.224854,362.243683 875.224854,365.275269 
	C880.285339,365.275269 885.333191,365.275269 890.685181,365.275269 
	C890.799072,367.278992 890.879517,368.694031 890.992615,370.683746 
	C885.632202,370.683746 880.575195,370.683746 875.245850,370.683746 
	C875.245850,373.822174 875.245850,376.414825 875.245850,379.687500 
	C881.193848,379.687500 887.227173,379.687500 893.508118,379.687500 
	C893.508118,381.739929 893.508118,383.122833 893.508118,385.009125 
	C890.343811,385.009125 887.392029,385.009125 883.950195,385.009125 
z"/>
<path fill="#ECEAFB" opacity="1.000000" stroke="none" 
	d="
M844.564697,380.046509 
	C836.989624,387.348694 825.268311,387.213043 818.524475,380.081818 
	C812.277771,373.476318 812.536560,362.563751 819.091309,356.179901 
	C826.142456,349.312622 837.577576,349.493439 845.208984,357.174988 
	C844.010315,358.238342 842.808960,359.304047 841.722046,360.268280 
	C832.413147,355.564362 826.526611,355.997101 822.579468,361.421631 
	C819.468811,365.696442 819.801392,372.338593 823.320862,376.228943 
	C827.628052,380.990082 833.643738,381.132477 842.210938,375.841187 
	C842.879761,376.922028 843.742432,378.316132 844.564697,380.046509 
z"/>
<path fill="#EEEDFB" opacity="1.000000" stroke="none" 
	d="
M503.139587,376.735657 
	C504.126038,376.925690 504.916443,377.211517 505.522308,377.718079 
	C506.245300,378.322418 506.810211,379.115875 507.418488,379.799255 
	C501.116791,386.967194 489.352386,387.420166 482.238556,380.985962 
	C475.384888,374.787140 474.930695,363.536743 481.260376,356.755615 
	C488.040344,349.492065 499.712555,349.307465 507.383972,356.572662 
	C506.998627,357.159943 506.644196,357.852844 506.145599,358.418640 
	C505.604950,359.032104 504.930023,359.527252 504.170898,360.200623 
	C502.116516,359.185211 500.173218,357.874237 498.029602,357.235168 
	C492.932220,355.715485 487.540833,357.827454 484.926605,362.035950 
	C482.197174,366.430054 482.573517,372.160065 485.843842,376.000427 
	C489.173096,379.910004 495.018188,381.117004 499.956573,378.830414 
	C500.995667,378.349274 501.897003,377.570648 503.139587,376.735657 
z"/>
<path fill="#5F18EB" opacity="1.000000" stroke="none" 
	d="
M754.969849,275.899994 
	C743.704346,297.371887 724.029907,307.835693 700.337341,304.916016 
	C690.864502,303.748627 683.611938,298.776245 680.477844,289.621216 
	C674.350708,271.723145 678.924561,248.071289 705.387939,243.016281 
	C710.282410,242.081329 715.246277,241.064865 720.197144,240.956543 
	C733.315918,240.669556 746.445129,240.859222 760.159973,240.859222 
	C760.582092,252.309402 761.122742,264.345215 754.969849,275.899994 
z"/>
<path fill="#5E17EB" opacity="1.000000" stroke="none" 
	d="
M506.961639,180.967224 
	C506.922607,181.319656 506.751831,181.539825 506.581055,181.759995 
	C506.493256,181.492126 506.405487,181.224243 506.440491,180.765015 
	C506.563263,180.573654 506.829895,180.834976 506.961639,180.967224 
z"/>
<path fill="#621CEB" opacity="1.000000" stroke="none" 
	d="
M557.668823,363.603119 
	C559.372070,371.238403 557.467468,376.326843 552.267578,378.824249 
	C546.534607,381.577576 539.644165,379.450775 536.785522,374.045441 
	C533.837402,368.470917 535.703918,361.412933 540.936096,358.350342 
	C546.748169,354.948273 553.357239,356.905273 557.668823,363.603119 
z"/>
<path fill="#6522EC" opacity="1.000000" stroke="none" 
	d="
M770.823975,357.675690 
	C774.038635,357.257843 777.042664,356.916260 779.967773,357.255219 
	C783.476990,357.661865 785.796204,359.839447 785.751770,363.566620 
	C785.705017,367.488586 783.361206,369.679962 779.531311,369.985596 
	C776.747314,370.207703 773.931213,370.028961 770.578308,370.028961 
	C770.578308,365.876831 770.578308,361.965118 770.823975,357.675690 
z"/>
</svg>