<?xml version="1.0" encoding="UTF-8"?>
<svg version="1.1" xmlns="http://www.w3.org/2000/svg" width="746" height="746" viewBox="0 -159 746 746">
<path d="M0 0 C6.18408657 4.08628338 6.18408657 4.08628338 13.25805664 5.06445312 C17.40615645 3.59426701 20.82689254 1.09069114 24.37817383 -1.45507812 C27.54308062 -3.51667583 30.96218981 -4.78039594 34.50366211 -6.05175781 C35.18428711 -6.29619629 35.86491211 -6.54063477 36.56616211 -6.79248047 C60.51260725 -15.11888817 85.90753526 -10.7836519 108.39038086 -0.20019531 C127.05303132 9.53457634 139.26113481 24.46306246 148.62304688 42.85839844 C155.56290845 56.45339396 162.89709504 64.65343852 177.25366211 70.32324219 C191.98024736 74.1855828 206.21830682 69.2122518 219.87524414 64.0234375 C225.44015225 61.92953419 231.02451343 60.10125688 236.75366211 58.51074219 C237.7923645 58.21901123 237.7923645 58.21901123 238.85205078 57.92138672 C277.16372871 47.58555143 319.08090419 56.41146567 353.25366211 75.32324219 C358.22038613 78.28658173 362.7766945 81.67169015 367.25366211 85.32324219 C367.8340625 85.78843262 368.41446289 86.25362305 369.01245117 86.73291016 C403.02292237 114.17046819 425.28689831 155.33946669 430.02661133 198.79101562 C433.57402892 238.35425781 418.88329132 278.55909567 394.25366211 309.32324219 C390.75513571 313.4861097 387.0286411 317.4118839 383.25366211 321.32324219 C382.46475586 322.1753125 381.67584961 323.02738281 380.86303711 323.90527344 C358.29775301 347.62870954 327.11909945 359.51899685 295.55957031 365.46386719 C288.47390559 366.86917215 283.11865837 369.01877847 276.80444336 372.54980469 C249.79394587 386.04019617 216.85864597 385.26108997 188.69116211 376.19824219 C170.90631269 370.14863101 156.57813156 360.71270043 142.44116211 348.44824219 C127.46448899 335.4674916 111.72354994 322.86572951 90.94116211 323.01074219 C90.09811523 323.01638184 89.25506836 323.02202148 88.38647461 323.02783203 C70.88646801 323.36931207 57.85825172 333.0213706 45.58544922 344.76025391 C24.78147335 364.57328085 0.24043235 380.3760818 -26.74633789 390.32324219 C-27.46917969 390.59571777 -28.19202148 390.86819336 -28.93676758 391.14892578 C-37.90031947 394.48864307 -46.97401582 396.99513668 -56.30883789 399.07324219 C-57.19345703 399.27199951 -58.07807617 399.47075684 -58.98950195 399.67553711 C-73.09414707 402.65292917 -87.23727001 403.73815146 -101.62133789 403.69824219 C-102.37136078 403.69769836 -103.12138367 403.69715454 -103.89413452 403.69659424 C-148.08838169 403.55087522 -192.01497624 389.53997036 -227.74633789 363.32324219 C-228.31578125 362.9078418 -228.88522461 362.49244141 -229.47192383 362.06445312 C-252.63671048 344.97439387 -272.63265012 323.48188997 -286.74633789 298.32324219 C-287.19477051 297.53127441 -287.64320313 296.73930664 -288.10522461 295.92333984 C-306.16229443 263.69685816 -316.24275157 228.62845482 -316.05883789 191.63574219 C-316.05560516 190.45644638 -316.05560516 190.45644638 -316.05230713 189.25332642 C-315.99746852 176.74045644 -315.43557863 164.58550344 -312.74633789 152.32324219 C-312.44832275 150.9593335 -312.44832275 150.9593335 -312.14428711 149.56787109 C-303.21758805 110.10985526 -284.25914857 74.89409776 -256.74633789 45.32324219 C-255.53314099 43.93163398 -254.32457575 42.53597031 -253.12133789 41.13574219 C-246.6107232 33.70353363 -239.48341828 27.46650419 -231.74633789 21.32324219 C-230.76793945 20.52789062 -229.78954102 19.73253906 -228.78149414 18.91308594 C-167.09951838 -30.16803223 -68.5318888 -42.48882082 0 0 Z " fill="#FB77B7" transform="translate(315.746337890625,24.6767578125)"/>
<path d="M0 0 C13.7624167 6.58994027 25.08455637 17.54911995 36 28 C36.88558594 28.83273438 37.77117187 29.66546875 38.68359375 30.5234375 C56.09202189 47.30722626 67.65644292 68.84233031 78.6237793 90.14282227 C82.51325857 97.60270729 86.87586952 104.33180578 92 111 C92.49048828 111.66555908 92.98097656 112.33111816 93.48632812 113.0168457 C101.20169427 123.34634099 114.50462064 129.99568337 127 132 C146.85399102 133.62703868 165.4473241 128.02692591 184.19311523 122.00537109 C205.00277105 115.41333734 227.05060129 116.65255588 248 122 C248.99918457 122.2489502 248.99918457 122.2489502 250.01855469 122.50292969 C271.80172181 128.17221111 291.91452497 141.57921402 308 157 C308.83144531 157.76828125 309.66289063 158.5365625 310.51953125 159.328125 C325.81581579 173.89601503 335.47817877 192.7981058 341 213 C341.17934082 213.65597168 341.35868164 214.31194336 341.54345703 214.98779297 C346.38759415 233.84962181 346.13441091 256.24283755 341 275 C340.83371094 275.63583008 340.66742187 276.27166016 340.49609375 276.92675781 C332.32020818 307.737734 312.82615734 333.58261039 287.44262695 352.53710938 C284.72829362 354.56979691 282.90454968 356.14317548 281 359 C278.11710903 359.55692212 275.41109465 359.93077725 272.5 360.1875 C271.35144531 360.3102832 271.35144531 360.3102832 270.1796875 360.43554688 C233.60115314 364.07504988 194.82843263 352.78982467 165.9375 330.125 C128.9648495 299.68379564 112.20195279 261.7369317 105.5 214.9375 C103.37203471 200.55580198 98.84891136 186.97754174 87.0625 177.5625 C82.97966348 174.78457006 78.63812625 172.68103423 74 171 C73.03191406 170.64292969 72.06382812 170.28585938 71.06640625 169.91796875 C65.36863797 168.33317923 59.36739647 168.65759871 53.5 168.5625 C26.70397779 167.82542039 5.43949175 161.11923653 -14 142 C-14.77214844 141.24074219 -15.54429687 140.48148438 -16.33984375 139.69921875 C-33.01029076 122.28786298 -40.58090654 98.30070392 -40.2109375 74.5390625 C-39.31140262 48.43034017 -26.51611934 23.93042882 -8.12109375 5.91796875 C-5.55257827 3.59542529 -2.97836046 1.75646899 0 0 Z " fill="#F7017E" transform="translate(327,32)"/>
<path d="M0 0 C12.41523631 10.1538897 20.64475537 21.15189323 27.86938477 35.34765625 C34.80924634 48.94265177 42.14343293 57.14269634 56.5 62.8125 C71.22658525 66.67484061 85.46464471 61.70150961 99.12158203 56.51269531 C104.68649014 54.418792 110.27085132 52.5905147 116 51 C116.69246826 50.8055127 117.38493652 50.61102539 118.09838867 50.41064453 C156.4100666 40.07480925 198.32724208 48.90072348 232.5 67.8125 C237.46672402 70.77583954 242.02303239 74.16094796 246.5 77.8125 C247.08040039 78.27769043 247.66080078 78.74288086 248.25878906 79.22216797 C282.26926026 106.659726 304.53323621 147.8287245 309.27294922 191.28027344 C312.82036681 230.84351562 298.12962921 271.04835348 273.5 301.8125 C270.0014736 305.97536752 266.27497899 309.90114171 262.5 313.8125 C261.71109375 314.66457031 260.9221875 315.51664062 260.109375 316.39453125 C238.83682533 338.75888396 206.94155767 353.59548768 176.5 357.8125 C174.83373025 357.84887151 173.16595413 357.86122992 171.5 357.8125 C174.47683229 353.73932216 177.85568627 350.84829808 181.875 347.875 C209.7314511 326.5119027 228.5690891 296.0642146 233.29931641 261.00488281 C236.3440091 227.7429115 229.84631743 194.29315918 208.30859375 168.0625 C185.64773847 141.46168166 152.78118902 121.75537958 117.5 118.8125 C102.60962587 117.89902568 88.81960683 118.63845645 74.5 122.8125 C73.0780835 123.22242188 73.0780835 123.22242188 71.62744141 123.640625 C67.45247467 124.84918544 63.28153606 126.07112546 59.11230469 127.29931641 C39.66813414 133.01910688 19.40365172 137.11363087 0.4765625 127.234375 C-2.29706254 125.54740306 -4.90163676 123.75713491 -7.5 121.8125 C-8.20640625 121.28914062 -8.9128125 120.76578125 -9.640625 120.2265625 C-21.80299087 110.41047981 -28.61185586 95.83970485 -35.8203125 82.33984375 C-54.12881407 48.13185398 -76.30458612 22.47220535 -108.5 0.8125 C-108.20117188 -1.05102539 -108.20117188 -1.05102539 -107.5 -3.1875 C-105.0074008 -4.87847446 -102.66579442 -6.26364391 -100 -7.625 C-99.24549561 -8.01751953 -98.49099121 -8.41003906 -97.71362305 -8.81445312 C-66.49342231 -24.45849201 -28.06610825 -20.78970982 0 0 Z " fill="#A1B0E9" transform="translate(436.5,32.1875)"/>
</svg>
