<?xml version="1.0" encoding="utf-8"?>
<!-- Generator: Adobe Illustrator 24.3.0, SVG Export Plug-In . SVG Version: 6.00 Build 0)  -->
<svg version="1.1" id="Layer_1" xmlns="http://www.w3.org/2000/svg" xmlns:xlink="http://www.w3.org/1999/xlink" x="0px" y="0px"
	 viewBox="0 0 480.1 144.2" style="enable-background:new 0 0 480.1 144.2;" xml:space="preserve">
<style type="text/css">
	.st0{fill-rule:evenodd;clip-rule:evenodd;fill:#5E6261;}
	.st1{fill-rule:evenodd;clip-rule:evenodd;fill:#F29227;}
</style>
<g>
	<g>
		<path class="st0" d="M53,19.3c10-2.8,20.6,1.1,26.3,9.7c2.1,3.1,13.4,5.9,11.2,1.5c-1.8-3.6-5.1-6.4-8.9-7.7
			c10.3,1.3,10.1,7.1,14,9.5c0.7,0.4,1.6,0.5,2.3,0.2c1.1-0.4,0.8-1.7,2.8-2c1-0.1,2,0.3,2.7,1.1c0.5,0.9,0.5,1.9,0.1,2.8
			c-0.3,0.6-0.8,1.1-1.5,1.4c-0.9,0.4-2.9,0.6-3.8,0.6c4.3,1.7,7.6,5.1,9.3,9.4c0.8,2.6-0.3,5.5-2.7,6.9c-2.1-1.3-3.3-2.2-3.4-2.7
			c0.8-0.5,1.3-1.4,1.1-2.4c-0.1-0.9-0.8-1.7-1.7-2c-1.3-0.3-2.6,0.4-3,1.6c-2.6-0.6-4.7-2.6-5.4-5.2c-0.1,4.2,2.7,8,6.8,9
			c4.5,1,8.3,4.1,10,8.4c-2.3,1.1-4.9,1.1-7.2,0c-0.7,0.7-1.7,1.2-2.7,1.2c-1,0-2-0.4-2.7-1.2c-3.2,0.2-6.5,0.2-9.7,0
			c1.9,4.4,6.7,6.9,11.5,5.8c1,3.1,0.9,6.4-0.4,9.3C96,79.6,89,74.6,81.6,86.7c-4.7-0.1-8.8-3.3-9.9-7.9c-1.1-4.6,1-9.4,5.2-11.6
			c-0.2-1.3,0.7-2.6,2-2.9c-3.9-1.4-5.9,6.1-11.2,5.4c-2.2-0.3-4.1-1.9-4.7-4c-2.3,1.9-5.5,2.2-8.1,0.9c-2.7-1.3-4.3-4.1-4.2-7
			c-3.9,5.4-3.9,12.8,0,18.2c-5.9-5.6-9-13.6-8.4-21.8c0.6-8.2,4.9-15.6,11.6-20.3c-3.8,1-7.9-0.2-10.5-3.1
			c-0.7,3.8-0.5,7.7,0.7,11.4c-4.1-1.1-7.2-4.4-8-8.6c-0.7-3.8,1.3-10.5,5.5-11.2c4.8-0.7,5.6,3,8.1,4.3c3.5,1.8,11,3.3,14.3,0.8
			c3.3-2.4,6.7-2.1,10.2,0.9C69.7,23,61.6,18.8,53,19.3L53,19.3z M68.5,34.1c-13.9,1.5-24.1,13.8-23,27.8
			C47.6,49.5,55.2,40.3,68.5,34.1L68.5,34.1z M31.1,15c0.5-0.2,0.9-0.4,1.4-0.6C32,14.6,31.5,14.8,31.1,15L31.1,15z M33.3,14.1
			c0.5-0.2,1.1-0.4,1.6-0.6C34.4,13.7,33.8,13.9,33.3,14.1L33.3,14.1z M43.3,11.3c0.6-0.1,1.1-0.2,1.7-0.3L43.3,11.3L43.3,11.3z
			 M46.1,10.9c0.5-0.1,1-0.1,1.4-0.2C47,10.8,46.5,10.9,46.1,10.9L46.1,10.9z M49.4,10.6l0.5,0C29.2,8.5,14.3,12.2,5.1,21.7
			c5.1-0.5,9.6-0.1,13.4,1.3c-5.2,4.4-9.6,9.8-12.8,16.1c-8.6,16.8-7.4,37,3,52.8C8.5,85.4,9.9,79,12.8,73.3
			c-2.4,11.4,2.9,23,13,28.7c9.1,4.5,15.5,8.7,19.3,12.6c5.3,4.4,9.1,10.2,11,16.8c2.6-5.9,1.3-12.7-3.3-17.2
			c15.2,5.8,18.3,13.9,20.7,30c8.2-3.7,22.7-4.9,26.9-27c0.8,5.8-0.7,8.2-1.2,14.1c5.2-11,13.6-22.9,8.4-34c3.8-0.7,7.6,1.8,8.4,5.6
			c3.5-7,3.2-15.3-0.9-22c-1.8-5.8,1.5-7.4,1.4-12.4c0-5.5-2.5-10.8-6.8-14.5c2.7-2.2,3.9-5.8,3-9.2c-0.9-3.4-3.7-5.9-7.2-6.5
			c2.9-5.2,3.3-11.4,0.9-16.8c-2.3-5.4-7.1-9.5-12.9-10.9c1.7,3.2,1.7,7.1,0,10.3C80.1,1.8,61.9-4.2,39.1,2.9
			c5.5,0.6,9.2,3.2,11.2,7.7L49.4,10.6L49.4,10.6z M68,49.4c0.4,1.2,1.5,2.1,2.8,2.2c1.3,0.2,2.5-0.4,3.2-1.4
			c2.7-0.3,5.4,0.5,7.4,2.3c-0.1-2.6-1.8-4.9-4.3-5.8c-1.7-2.4-4.5-3.7-7.4-3.5c-2.9,0.3-5.5,2-6.7,4.7c-0.1,1.2,0.7,2.3,1.9,2.7
			C66.1,51,67.4,50.5,68,49.4L68,49.4z M99.7,69.9c0,1.8,1.3,4.7,2.6,5.8c2,0.9,4.2,1.8,7.7,5.1c3.7-5.7,4.4-12.9,1.7-19.1
			c-2.5,2.8-6.2,4.2-9.9,3.6C100.5,66.5,99.7,68.1,99.7,69.9L99.7,69.9z M87.8,95.5c5.4,3.3,10.1,7.3,15.4,2.4
			c4.9-4.6,11.1-12.9,2.9-17c-4.6-2.3-9.1-2.3-13.1-0.7c-3,1.2-5.7,3.2-8.2,5.7C81.1,89.8,83.8,93,87.8,95.5L87.8,95.5z M27.3,70.1
			C26,78.3,33.1,86.6,48.8,95c20,11.2,30.8,24.2,32.5,39.1c-0.3-19-9.1-33.4-26.2-43.2c-18.4-8.1-25.2-20-20.4-35.6
			C30.2,60.8,27.8,65.8,27.3,70.1L27.3,70.1z M34.8,28.1c-14.3,6.6-22.1,22.2-18.9,37.5c-4.3-7.3-4.5-16.3-0.7-23.9
			C19,34.2,26.4,29,34.8,28.1L34.8,28.1z M20.2,67.3c-8.8,9.6-5.5,18,9.8,25.1c11.8,6.2,18.2,14.1,19.3,23.8
			c0-11.9-5.8-21.2-17.3-27.8C21.3,83.9,17.4,76.8,20.2,67.3L20.2,67.3z M70.3,95.3c9,1,16.8,6.9,20.1,15.4
			c3.3,8.5,1.6,18.1-4.4,24.9C90.7,120.1,84.2,103.4,70.3,95.3z"/>
	</g>
	<path class="st1" d="M164.8,45.5v-8.9h-34.2v44.9h9.9V64.1h21.4v-8.9h-21.4v-9.7H164.8L164.8,45.5z M190.2,81.5V36.6h-9.9v44.9
		H190.2L190.2,81.5z M250,59v-0.1c0-3.2-0.6-6.1-1.7-8.8c-1.2-2.7-2.8-5.1-4.9-7.1c-2.1-2-4.6-3.6-7.6-4.7c-2.9-1.1-6.1-1.7-9.6-1.7
		h-17.5v44.9h17.5c3.5,0,6.7-0.6,9.6-1.7c2.9-1.2,5.4-2.7,7.6-4.7c2.1-2,3.8-4.4,4.9-7.1C249.4,65.1,250,62.2,250,59L250,59z
		 M239.7,59.2c0,2-0.3,3.8-1,5.4c-0.7,1.6-1.6,3-2.8,4.2c-1.2,1.2-2.6,2.1-4.3,2.8c-1.7,0.6-3.5,1-5.5,1h-7.6V45.5h7.6
		c2,0,3.8,0.3,5.5,1c1.7,0.7,3.1,1.6,4.3,2.8c1.2,1.2,2.1,2.6,2.8,4.3c0.7,1.7,1,3.5,1,5.4V59.2L239.7,59.2z M300,81.5v-8.8h-24.4
		v-9.4h21.2v-8.8h-21.2v-9.1h24v-8.8h-33.8v44.9H300L300,81.5z M348.3,81.5v-8.9h-22.4v-36h-9.9v44.9H348.3L348.3,81.5z M373.3,81.5
		V36.6h-9.9v44.9H373.3L373.3,81.5z M425.6,45.7v-9.1h-37.2v9.1h13.7v35.8h9.9V45.7H425.6L425.6,45.7z M480.1,36.6h-11.2l-10.9,18
		l-10.7-18h-11.5L453,63.8v17.7h9.9V63.6L480.1,36.6z"/>
	<path class="st0" d="M224.4,107.4l-3.1-4.4c0.4-0.1,0.8-0.3,1.1-0.5c0.3-0.2,0.6-0.5,0.9-0.7c0.2-0.3,0.4-0.6,0.6-1
		c0.1-0.4,0.2-0.8,0.2-1.3c0-0.6-0.1-1.1-0.3-1.5c-0.2-0.5-0.5-0.8-0.9-1.2c-0.4-0.3-0.8-0.6-1.4-0.7c-0.5-0.2-1.1-0.3-1.8-0.3h-5.2
		v11.6h2v-4.1h2.6l2.9,4.1H224.4L224.4,107.4z M130.7,102.6h69v-2h-69V102.6L130.7,102.6z M411.1,102.6h69v-2h-69V102.6L411.1,102.6
		z M221.9,99.6c0,0.6-0.2,1.1-0.7,1.4c-0.4,0.4-1,0.5-1.8,0.5h-3v-3.9h3c0.8,0,1.4,0.2,1.8,0.5C221.7,98.5,221.9,99,221.9,99.6
		L221.9,99.6z M242.3,95.8h-8.6v11.6h8.7v-1.8h-6.7v-3.1h5.8v-1.8h-5.8v-3h6.6V95.8L242.3,95.8z M257.9,95.7h-1.9l-5.1,11.7h2.1
		l1.2-2.8h5.5l1.2,2.8h2.2L257.9,95.7L257.9,95.7z M259,102.8h-4l2-4.7L259,102.8L259,102.8z M272.2,107.4h8.1v-1.8h-6.1v-9.8h-2
		V107.4L272.2,107.4z M307.3,95.8h-8.6v11.6h8.7v-1.8h-6.7v-3.1h5.8v-1.8h-5.8v-3h6.6V95.8L307.3,95.8z M318.7,98.9
		c0-0.4,0.2-0.7,0.5-1c0.3-0.3,0.8-0.4,1.4-0.4c0.5,0,1.1,0.1,1.6,0.3c0.5,0.2,1,0.5,1.6,0.9l1.1-1.5c-0.6-0.5-1.2-0.8-1.9-1.1
		c-0.7-0.2-1.4-0.4-2.3-0.4c-0.6,0-1.1,0.1-1.6,0.2c-0.5,0.2-0.9,0.4-1.2,0.7c-0.3,0.3-0.6,0.7-0.8,1.1c-0.2,0.4-0.3,0.9-0.3,1.4
		c0,0.5,0.1,1,0.3,1.4c0.2,0.4,0.4,0.7,0.8,1c0.3,0.3,0.7,0.5,1.2,0.7c0.5,0.2,1,0.3,1.7,0.5c0.5,0.1,1,0.3,1.3,0.4
		c0.3,0.1,0.6,0.3,0.8,0.4c0.2,0.1,0.3,0.3,0.4,0.5c0.1,0.2,0.1,0.4,0.1,0.6c0,0.5-0.2,0.8-0.6,1.1c-0.4,0.3-0.9,0.4-1.5,0.4
		c-0.7,0-1.4-0.1-2-0.4c-0.6-0.3-1.1-0.6-1.7-1.1l-1.2,1.5c0.7,0.6,1.5,1.1,2.3,1.4c0.8,0.3,1.7,0.5,2.6,0.5c0.6,0,1.2-0.1,1.7-0.2
		c0.5-0.2,0.9-0.4,1.3-0.7c0.4-0.3,0.6-0.7,0.9-1.1c0.2-0.4,0.3-0.9,0.3-1.5c0-0.5-0.1-0.9-0.2-1.3c-0.2-0.4-0.4-0.7-0.7-0.9
		c-0.3-0.3-0.7-0.5-1.2-0.7c-0.5-0.2-1-0.4-1.6-0.5c-0.6-0.1-1-0.3-1.4-0.4c-0.4-0.1-0.6-0.3-0.9-0.4c-0.2-0.1-0.3-0.3-0.4-0.5
		C318.7,99.3,318.7,99.1,318.7,98.9L318.7,98.9z M339.4,97.7h3.7v-1.9h-9.4v1.9h3.7v9.7h2.1V97.7L339.4,97.7z M356.9,95.7H355
		l-5.1,11.7h2.1l1.2-2.8h5.5l1.2,2.8h2.2L356.9,95.7L356.9,95.7z M358,102.8h-4l2-4.7L358,102.8L358,102.8z M374.6,97.7h3.7v-1.9
		h-9.4v1.9h3.7v9.7h2.1V97.7L374.6,97.7z M396.2,95.8h-8.6v11.6h8.7v-1.8h-6.7v-3.1h5.8v-1.8h-5.8v-3h6.6V95.8z"/>
</g>
</svg>
