<?xml version="1.0" encoding="iso-8859-1"?>
<!-- Uploaded to: SVG Repo, www.svgrepo.com, Generator: SVG Repo Mixer Tools -->
<svg height="800px" width="800px" version="1.1" id="Layer_1" xmlns="http://www.w3.org/2000/svg" xmlns:xlink="http://www.w3.org/1999/xlink" 
	 viewBox="0 0 324.143 324.143" xml:space="preserve">
<g>
	<path style="fill:#C3C6C8;" d="M162.071,7.5C77.162,7.5,8.33,76.331,8.33,161.241c0,38.283,13.997,73.295,37.147,100.207
		c-6.953,19.986-19.807,37.209-36.479,49.581c10.592,3.619,21.938,5.613,33.757,5.613c20.214,0,39.082-5.751,55.067-15.698
		c19.551,9.007,41.312,14.039,64.249,14.039c84.909,0,153.741-68.833,153.741-153.742C315.813,76.331,246.98,7.5,162.071,7.5z"/>
	<path style="fill:#071C2C;" d="M162.071,145.571c-10.493,0-19,8.506-19,19c0,10.493,8.507,19,19,19s19-8.507,19-19
		C181.071,154.077,172.564,145.571,162.071,145.571z M88.071,145.571c-10.493,0-19,8.506-19,19c0,10.493,8.507,19,19,19
		s19-8.507,19-19C107.071,154.077,98.564,145.571,88.071,145.571z M162.071,0C73.162,0,0.83,72.332,0.83,161.241
		c0,37.076,12.788,73.004,36.1,101.677c-6.65,16.756-17.788,31.245-32.401,42.089c-2.237,1.66-3.37,4.424-2.94,7.177
		c0.429,2.754,2.349,5.042,4.985,5.942c11.683,3.992,23.856,6.017,36.182,6.017c19.572,0,38.698-5.093,55.569-14.763
		c20.158,8.696,41.584,13.104,63.747,13.104c88.909,0,161.241-72.333,161.241-161.242S250.98,0,162.071,0z M162.071,307.483
		c-21.32,0-41.881-4.492-61.11-13.351c-2.292-1.057-4.959-0.891-7.102,0.443c-15.313,9.529-32.985,14.566-51.104,14.566
		c-6.053,0-12.065-0.564-17.981-1.684c12.521-12.12,22.014-26.95,27.788-43.547c0.878-2.525,0.346-5.328-1.398-7.354
		C28.378,230.07,15.83,196.22,15.83,161.241C15.83,80.604,81.434,15,162.071,15s146.241,65.604,146.241,146.241
		C308.313,241.88,242.709,307.483,162.071,307.483z M236.071,145.571c-10.493,0-19,8.506-19,19c0,10.493,8.507,19,19,19
		s19-8.507,19-19C255.071,154.077,246.564,145.571,236.071,145.571z"/>
</g>
</svg>