<?xml version="1.0" encoding="UTF-8"?>
<svg version="1.1" xmlns="http://www.w3.org/2000/svg" width="1091" height="228">
<path d="M0 0 C6.6 0 13.2 0 20 0 C21.71635338 1.71635338 21.1261073 3.97146467 21.12698364 6.3145752 C21.13121338 8.04357811 21.13121338 8.04357811 21.13552856 9.80751038 C21.13249222 11.72133766 21.13249222 11.72133766 21.12939453 13.67382812 C21.13074856 15.02209012 21.1325285 16.37035175 21.13470459 17.71861267 C21.13927873 21.39000028 21.13748945 25.06135991 21.1343255 28.73274803 C21.1318018 32.56666517 21.13413947 36.40057984 21.13571167 40.23449707 C21.13753334 46.67407666 21.13512713 53.1136448 21.13037109 59.55322266 C21.12492848 67.00872163 21.12669114 74.46419326 21.1321975 81.91969156 C21.13672871 88.30948576 21.13737914 94.6992717 21.13475883 101.08906698 C21.1331961 104.91038048 21.13300217 108.7316811 21.13629532 112.55299377 C21.13917416 116.14473825 21.13719812 119.73644731 21.13140106 123.32818794 C21.12943793 125.28295467 21.13242727 127.23772437 21.13552856 129.19248962 C21.13270874 130.34515823 21.12988892 131.49782684 21.12698364 132.6854248 C21.1264181 134.19752155 21.1264181 134.19752155 21.12584114 135.74016571 C21 138 21 138 20 139 C18.59651265 139.09860131 17.18819523 139.13078937 15.78125 139.1328125 C14.50701172 139.13474609 14.50701172 139.13474609 13.20703125 139.13671875 C12.31371094 139.13285156 11.42039062 139.12898437 10.5 139.125 C9.16001953 139.13080078 9.16001953 139.13080078 7.79296875 139.13671875 C6.94347656 139.13542969 6.09398437 139.13414062 5.21875 139.1328125 C4.43435547 139.13168457 3.64996094 139.13055664 2.84179688 139.12939453 C1 139 1 139 0 138 C-0.23287008 136.31816052 -0.41264166 134.6287584 -0.5625 132.9375 C-0.64628906 132.01839844 -0.73007812 131.09929687 -0.81640625 130.15234375 C-0.87699219 129.44207031 -0.93757812 128.73179687 -1 128 C-1.76183594 128.61488281 -2.52367187 129.22976562 -3.30859375 129.86328125 C-13.98741448 138.22235815 -23.6441103 142.19312823 -37.4921875 140.59765625 C-50.57425208 138.17876247 -60.70721233 132.52112177 -69 122 C-78.37773067 107.30596089 -80.16540526 91.07023057 -77.34765625 74.0625 C-74.00061684 62.11083996 -67.11212512 52.20296603 -57 45 C-45.25995255 38.50812277 -33.4483142 35.82112299 -20.22265625 38.87109375 C-12.10544054 41.55920536 -8.20341401 44.39734466 -1 50 C-0.67 33.5 -0.34 17 0 0 Z M-50 66 C-57.68735411 76.10672443 -58.03809716 86.74393144 -57 99 C-55.47203901 106.7945352 -50.93220225 112.83698206 -45 118 C-38.40003838 122.30483983 -30.9979098 123.60794942 -23.23828125 122.6640625 C-15.88673564 121.08506944 -10.81639182 117.75452437 -6 112 C0.52183466 101.593149 1.51443455 90.20211502 -0.4609375 78.19921875 C-1.1302468 75.98262383 -1.93428945 74.0544306 -3 72 C-3.39058594 71.23300781 -3.78117188 70.46601562 -4.18359375 69.67578125 C-8.05934373 63.03320692 -13.643939 58.70561943 -21.01171875 56.359375 C-32.58505047 54.26753508 -42.10239305 57.34367098 -50 66 Z " fill="#0496B0" transform="translate(746,30)"/>
<path d="M0 0 C3.81930363 4.25579547 5.1875 8.36605551 5.1875 14.0625 C3.9037324 18.39521564 2.41760728 20.28251149 -0.8125 23.4375 C-2.1325 23.7675 -3.4525 24.0975 -4.8125 24.4375 C-4.8125 31.6975 -4.8125 38.9575 -4.8125 46.4375 C-2.1725 46.4375 0.4675 46.4375 3.1875 46.4375 C3.14109375 45.62667969 3.0946875 44.81585938 3.046875 43.98046875 C2.72275754 34.03700799 4.01407241 25.92642165 10.4375 18.0625 C17.42322942 10.77823514 25.34776387 7.30866604 35.39239502 7.08265686 C36.13431091 7.07729416 36.87622681 7.07193146 37.640625 7.06640625 C38.42266296 7.05737778 39.20470093 7.0483493 40.01043701 7.03904724 C41.6507997 7.02462987 43.29121879 7.01567937 44.93164062 7.01196289 C47.44497331 6.99996432 49.95592682 6.95061769 52.46875 6.90039062 C54.06769642 6.89093621 55.6666578 6.88369649 57.265625 6.87890625 C58.01563782 6.85937393 58.76565063 6.83984161 59.53839111 6.81971741 C61.65332031 6.83813477 61.65332031 6.83813477 65.1875 7.4375 C67.18261719 9.97241211 67.18261719 9.97241211 68.1875 12.4375 C67.20776367 14.40820312 67.20776367 14.40820312 65.1875 16.4375 C62.29042177 16.81503918 59.75890862 16.94770752 56.86328125 16.90625 C56.04304977 16.91329956 55.2228183 16.92034912 54.37773132 16.9276123 C50.87218041 16.95707159 47.36718465 16.94054923 43.86157227 16.92822266 C41.29931071 16.92582555 38.73793268 16.94685702 36.17578125 16.96875 C35.39527908 16.95743042 34.61477692 16.94611084 33.81062317 16.93444824 C28.20539167 16.98529378 23.84458355 18.24390078 19.1875 21.4375 C11.61542637 29.33470934 11.87878598 39.15559534 11.88671875 49.51171875 C11.88029106 51.37471367 11.88029106 51.37471367 11.87373352 53.27534485 C11.86655159 56.55642937 11.86959494 59.8373285 11.87530518 63.1184082 C11.87499955 65.12796197 11.86493074 67.13722346 11.85131836 69.14672852 C11.82685686 73.01853247 11.82266108 76.88984727 11.82421875 80.76171875 C11.815009 81.95762131 11.80579926 83.15352386 11.79631042 84.38566589 C11.80565361 86.0581414 11.80565361 86.0581414 11.81518555 87.7644043 C11.81455612 88.74177048 11.8139267 89.71913666 11.8132782 90.72612 C12.28926032 94.17479243 12.79206912 95.86599131 15.1875 98.4375 C18.33895198 98.93850056 20.95422898 99.10119865 24.109375 99.05273438 C25.47805725 99.06105789 25.47805725 99.06105789 26.87438965 99.06954956 C29.89595762 99.08137783 32.91603652 99.05703843 35.9375 99.03125 C38.03352795 99.0295397 40.12955804 99.02960376 42.22558594 99.03137207 C46.62065056 99.02971702 51.01520624 99.01098466 55.41015625 98.97949219 C61.04972488 98.93981417 66.68862639 98.93544578 72.32830811 98.94295502 C76.65712621 98.94602151 80.98579372 98.93391559 85.3145752 98.91682434 C87.39423681 98.90978253 89.4739155 98.90667123 91.55358887 98.90751648 C94.45791591 98.90572293 97.36143694 98.88437899 100.265625 98.85742188 C101.12909546 98.86035248 101.99256592 98.86328308 102.88220215 98.86630249 C107.20028363 98.94099495 107.20028363 98.94099495 110.90774441 97.04607487 C112.61957651 94.89440614 112.57129191 93.54544395 112.58813477 90.81420898 C112.60147354 89.87991562 112.61481232 88.94562225 112.6285553 87.98301697 C112.62867111 86.97670731 112.62878693 85.97039764 112.62890625 84.93359375 C112.64211411 83.89936783 112.65532196 82.86514191 112.66893005 81.79957581 C112.70988939 78.49135643 112.73151991 75.18341595 112.75 71.875 C112.77374725 68.56309786 112.80179708 65.25146003 112.84178162 61.93971252 C112.86623163 59.87758089 112.88101436 57.81530843 112.88539124 55.7530365 C112.89557785 54.82189529 112.90576447 53.89075409 112.91625977 52.93139648 C112.92053482 52.10993637 112.92480988 51.28847626 112.92921448 50.44212341 C113.1875 48.4375 113.1875 48.4375 115.1875 46.4375 C117.84111219 46.18421404 120.34544663 46.06722761 123 46.0625 C123.71220703 46.03800781 124.42441406 46.01351562 125.15820312 45.98828125 C128.70323762 45.96860483 130.98095975 46.31955685 134.07421875 48.0859375 C138.98583322 53.55135692 138.524271 59.97657644 138.5 66.9375 C138.51611328 67.86175781 138.53222656 68.78601563 138.54882812 69.73828125 C138.55261876 75.03758606 138.24951945 78.90542437 135.1875 83.4375 C131.76655758 85.71812828 130.50562778 85.65675007 126.5 85.5625 C125.50613281 85.54445313 124.51226562 85.52640625 123.48828125 85.5078125 C122.72902344 85.48460937 121.96976563 85.46140625 121.1875 85.4375 C121.22230469 86.24574219 121.25710937 87.05398437 121.29296875 87.88671875 C121.32003906 88.95535156 121.34710938 90.02398437 121.375 91.125 C121.40980469 92.18074219 121.44460937 93.23648438 121.48046875 94.32421875 C121.01876312 99.23061057 118.87902541 101.7298926 115.5 105.1875 C111.94045508 108.04768849 108.66516291 108.20589675 104.1875 108.4375 C104.69539063 108.82679688 105.20328125 109.21609375 105.7265625 109.6171875 C114.14754114 116.46120385 119.90865058 125.53498574 121.1875 136.4375 C121.34378826 139.68886679 121.37252303 142.93276469 121.375 146.1875 C121.38724609 147.04988281 121.39949219 147.91226563 121.41210938 148.80078125 C121.41404297 149.62449219 121.41597656 150.44820312 121.41796875 151.296875 C121.42207764 152.04420898 121.42618652 152.79154297 121.43041992 153.56152344 C121.1875 155.4375 121.1875 155.4375 119.1875 157.4375 C117.16661072 157.69197559 117.16661072 157.69197559 114.63256836 157.69819641 C113.67349579 157.70528122 112.71442322 157.71236603 111.72628784 157.71966553 C110.67063629 157.71718811 109.61498474 157.71471069 108.52734375 157.7121582 C106.86386398 157.7198246 106.86386398 157.7198246 105.16677856 157.72764587 C101.48613144 157.74159241 97.80567047 157.74058143 94.125 157.73828125 C91.57674082 157.7421651 89.02848229 157.74649912 86.48022461 157.75126648 C81.13360226 157.75873939 75.78704881 157.75856695 70.44042969 157.75317383 C64.25441363 157.74713012 58.0686248 157.75945316 51.88264751 157.7807439 C45.93779507 157.8004547 39.99301334 157.80353723 34.04812622 157.80000877 C31.51546698 157.80052387 28.98280425 157.80579671 26.45016479 157.81582069 C22.9158147 157.82809264 19.38199718 157.82144913 15.84765625 157.80981445 C14.7920047 157.81745819 13.73635315 157.82510193 12.64871216 157.83297729 C11.68963959 157.82596298 10.73056702 157.81894867 9.74243164 157.8117218 C8.90619766 157.81188954 8.06996368 157.81205729 7.20838928 157.81223011 C6.54149582 157.68856917 5.87460236 157.56490824 5.1875 157.4375 C1.21183768 151.47400652 2.72343557 142.04032748 3.6171875 135.1015625 C5.92547972 124.24403983 11.98844 115.73939842 20.1875 108.4375 C19.59582031 108.33953125 19.00414062 108.2415625 18.39453125 108.140625 C13.37620677 107.190991 9.76131077 106.32664701 6.1875 102.4375 C3.3112818 97.198674 2.57688784 92.3588806 2.1875 86.4375 C1.59582031 86.41171875 1.00414063 86.3859375 0.39453125 86.359375 C-4.86231899 85.98204807 -7.98998357 85.37947007 -11.8125 81.4375 C-13.09816729 78.86616541 -12.93259778 77.040329 -12.92602539 74.16162109 C-12.92594986 73.0606308 -12.92587433 71.9596405 -12.92579651 70.82528687 C-12.92063522 69.63255157 -12.91547394 68.43981628 -12.91015625 67.2109375 C-12.9087413 65.99298492 -12.90732635 64.77503235 -12.90586853 63.52017212 C-12.90025639 59.6175901 -12.88770179 55.71506477 -12.875 51.8125 C-12.86998657 49.17187583 -12.86542339 46.53125076 -12.86132812 43.890625 C-12.85028301 37.40623055 -12.83353302 30.92186932 -12.8125 24.4375 C-13.60140625 24.13714844 -14.3903125 23.83679688 -15.203125 23.52734375 C-17.80312927 22.44141382 -19.07274711 21.61219112 -20.8125 19.4375 C-22.67918041 13.83745877 -22.69805522 8.38572149 -20.25 3 C-14.34882718 -3.20379706 -7.41526079 -4.11958933 0 0 Z M-11.9375 6.5625 C-14.09827545 8.36000157 -14.09827545 8.36000157 -14.3125 11.4375 C-14.06768311 14.48028274 -14.06768311 14.48028274 -12.125 16.4375 C-9.79012257 17.73494738 -9.79012257 17.73494738 -7.125 16.6875 C-4.91494853 15.6352169 -4.91494853 15.6352169 -3.8125 14.4375 C-3.39547878 11.5217309 -3.39547878 11.5217309 -3.8125 8.4375 C-6.63922086 5.61077914 -8.28340943 4.62798146 -11.9375 6.5625 Z M-2.8125 54.4375 C-4.9998988 56.21232776 -4.9998988 56.21232776 -5.05541992 58.48461914 C-5.05131104 59.30567139 -5.04720215 60.12672363 -5.04296875 60.97265625 C-5.04103516 61.86404297 -5.03910156 62.75542969 -5.03710938 63.67382812 C-5.02486328 64.60646484 -5.01261719 65.53910156 -5 66.5 C-4.99935547 67.43650391 -4.99871094 68.37300781 -4.99804688 69.33789062 C-5.37019467 73.72186532 -5.37019467 73.72186532 -3.8125 77.4375 C-1.5025 77.4375 0.8075 77.4375 3.1875 77.4375 C3.1875 69.8475 3.1875 62.2575 3.1875 54.4375 C1.2075 54.4375 -0.7725 54.4375 -2.8125 54.4375 Z M121.1875 54.4375 C121.1875 62.0275 121.1875 69.6175 121.1875 77.4375 C123.8275 77.4375 126.4675 77.4375 129.1875 77.4375 C129.21637512 73.79168313 129.23425585 70.14589537 129.25 66.5 C129.25837891 65.45908203 129.26675781 64.41816406 129.27539062 63.34570312 C129.27861328 62.35634766 129.28183594 61.36699219 129.28515625 60.34765625 C129.29039307 59.43121338 129.29562988 58.51477051 129.30102539 57.57055664 C129.42671211 55.45386977 129.42671211 55.45386977 128.1875 54.4375 C125.8775 54.4375 123.5675 54.4375 121.1875 54.4375 Z M36.1875 109.4375 C36.785625 110.51 37.38375 111.5825 38 112.6875 C38.33644531 113.29078125 38.67289063 113.8940625 39.01953125 114.515625 C39.40496094 115.14984375 39.79039063 115.7840625 40.1875 116.4375 C40.5491626 117.12183105 40.9108252 117.80616211 41.28344727 118.51123047 C44.09267348 121.35323519 47.03001243 121.12337157 50.8203125 121.1796875 C51.94722 121.20677292 51.94722 121.20677292 53.09689331 121.23440552 C54.68878259 121.26341494 56.28091044 121.28118537 57.87304688 121.28857422 C60.28677014 121.31224765 62.69002362 121.41037282 65.1015625 121.51171875 C73.72982956 121.76279444 73.72982956 121.76279444 81.31152344 118.14941406 C83.5364949 115.68041909 85.43515152 113.25721703 87.1875 110.4375 C82.50464965 105.75464965 73.38082181 107.27501748 67.08984375 107.25195312 C66.40647949 107.25203369 65.72311523 107.25211426 65.01904297 107.25219727 C62.95649273 107.25002005 60.8944866 107.23184611 58.83203125 107.21289062 C51.08050211 107.18107621 43.75321996 107.67768243 36.1875 109.4375 Z M95.1875 112.4375 C94.26080032 113.4183452 93.37185951 114.4349454 92.5 115.46484375 C91.96632813 116.09197266 91.43265625 116.71910156 90.8828125 117.36523438 C90.32335937 118.02845703 89.76390625 118.69167969 89.1875 119.375 C88.0836086 120.67601486 86.97945533 121.97680758 85.875 123.27734375 C85.13830078 124.14927368 85.13830078 124.14927368 84.38671875 125.03881836 C83.1875 126.4375 83.1875 126.4375 82.1875 127.4375 C76.31305534 127.80367694 70.43684397 127.88006086 64.55224609 127.95239258 C62.56949814 127.983965 60.58693708 128.03164902 58.60498047 128.09594727 C55.7437452 128.18752784 52.88592024 128.2260645 50.0234375 128.25390625 C49.14400482 128.29205948 48.26457214 128.33021271 47.35848999 128.36952209 C43.51699882 128.35748321 41.13595766 128.21842323 38.10650635 125.72409058 C36.31111446 123.70209781 34.72240052 121.66206099 33.1875 119.4375 C32.75488861 118.82560318 32.32227722 118.21370636 31.8765564 117.58326721 C30.94614396 116.2240434 30.06049637 114.83429419 29.1875 113.4375 C23.52154374 114.81106515 20.39183168 118.84316143 17.1875 123.4375 C12.26503463 132.17172061 11.92954608 139.04885484 11.1875 149.4375 C44.8475 149.4375 78.5075 149.4375 113.1875 149.4375 C113.1875 136.81050566 112.67697864 128.58727142 104.1875 119.4375 C100.1797449 114.93113007 100.1797449 114.93113007 95.1875 112.4375 Z " fill="#0B95AF" transform="translate(55.8125,52.5625)"/>
<path d="M0 0 C0.7514328 -0.0065712 1.5028656 -0.0131424 2.27706909 -0.01991272 C4.76967464 -0.03966028 7.26221986 -0.05131247 9.75488281 -0.0612793 C10.60609962 -0.06535482 11.45731644 -0.06943035 12.3343277 -0.07362938 C16.84104673 -0.0944979 21.34773527 -0.10879533 25.85449219 -0.11816406 C30.50622184 -0.12922077 35.1574721 -0.16360966 39.80903244 -0.20333576 C43.38817219 -0.22950395 46.96719787 -0.23785614 50.54642487 -0.24144554 C52.26080812 -0.24631222 53.97518626 -0.2579286 55.68947601 -0.27648354 C58.09284707 -0.30087652 60.4949801 -0.29990999 62.8984375 -0.29296875 C63.60308136 -0.30577881 64.30772522 -0.31858887 65.03372192 -0.33178711 C70.03366821 -0.27931511 72.93930918 0.91392375 76.70800781 4.17700195 C78.69276467 7.69084707 78.96331698 10.72080863 78.98266602 14.71411133 C78.99219803 15.79873657 79.00173004 16.88336182 79.0115509 18.00085449 C79.0106395 19.16242065 79.00972809 20.32398682 79.00878906 21.52075195 C79.01307419 22.72260132 79.01735931 23.92445068 79.02177429 25.16271973 C79.02751165 27.70116547 79.02802224 30.23962765 79.02368164 32.77807617 C79.0205195 36.66263818 79.0439971 40.54644019 79.06933594 44.4309082 C79.07160874 46.89835516 79.07231251 49.36580416 79.07128906 51.83325195 C79.08049881 52.99481812 79.08970856 54.15638428 79.09919739 55.35314941 C79.0929686 56.43777466 79.08673981 57.5223999 79.08032227 58.63989258 C79.08095169 59.59077759 79.08158112 60.5416626 79.08222961 61.5213623 C78.46255131 65.9188674 76.09416753 69.35520219 72.70800781 72.17700195 C69.43071988 73.26943126 66.72060776 73.19183543 63.29800415 73.08366394 C59.61624552 72.96751939 55.93477055 72.94384703 52.25146484 72.91064453 C50.32321426 72.88015772 48.39517514 72.82653787 46.46826172 72.74853516 C34.1680976 72.00709306 34.1680976 72.00709306 23.6328125 77.38256836 C21.29423492 79.83595876 19.27966919 82.42892573 17.27978516 85.16064453 C14.70800781 88.17700195 14.70800781 88.17700195 11.99169922 88.796875 C9.70800781 88.17700195 9.70800781 88.17700195 7.70800781 85.17700195 C7.51269531 82.2590332 7.51269531 82.2590332 7.58300781 78.98950195 C7.60105469 77.90282227 7.61910156 76.81614258 7.63769531 75.6965332 C7.66089844 74.86508789 7.68410156 74.03364258 7.70800781 73.17700195 C6.27908203 73.22920898 6.27908203 73.22920898 4.82128906 73.2824707 C3.56703125 73.30954102 2.31277344 73.33661133 1.02050781 73.36450195 C-0.84154297 73.41670898 -0.84154297 73.41670898 -2.74121094 73.4699707 C-7.22845421 73.09973611 -9.42663004 71.60905381 -12.90515137 68.93856812 C-14.89979083 66.40497571 -14.68654814 64.51557581 -14.71191406 61.31616211 C-14.72782593 60.11126129 -14.74373779 58.90636047 -14.76013184 57.66494751 C-14.76033325 56.3618161 -14.76053467 55.05868469 -14.76074219 53.71606445 C-14.76784414 52.36469201 -14.77554319 51.01332258 -14.78381348 49.66195679 C-14.7972622 46.828996 -14.798826 43.99631386 -14.79296875 41.16333008 C-14.78707862 37.53917255 -14.81763067 33.91635749 -14.85808563 30.29245949 C-14.88398592 27.50079186 -14.88683795 24.70944623 -14.88319397 21.91767502 C-14.88570365 19.93402502 -14.91039184 17.95044309 -14.9354248 15.96694946 C-14.85850725 5.95526417 -14.85850725 5.95526417 -11.87988281 2.8815918 C-7.74529147 0.15822229 -4.84312057 0.01827128 0 0 Z M7.70800781 18.17700195 C7.04800781 19.49700195 6.38800781 20.81700195 5.70800781 22.17700195 C7.48885437 24.37257379 7.48885437 24.37257379 9.80874634 24.41751099 C11.10780411 24.41084915 11.10780411 24.41084915 12.43310547 24.40405273 C13.90440414 24.40382614 13.90440414 24.40382614 15.40542603 24.40359497 C16.46691864 24.3932724 17.52841125 24.38294983 18.62207031 24.37231445 C19.70684662 24.36948456 20.79162292 24.36665466 21.90927124 24.36373901 C25.38396094 24.35251773 28.85839563 24.32740958 32.33300781 24.30200195 C34.6845666 24.29197467 37.03612941 24.28284839 39.38769531 24.2746582 C45.16122025 24.25257206 50.93459582 24.2190754 56.70800781 24.17700195 C57.03800781 22.52700195 57.36800781 20.87700195 57.70800781 19.17700195 C55.290262 17.96812905 53.77469717 18.05640853 51.07470703 18.06347656 C50.113862 18.06355209 49.15301697 18.06362762 48.16305542 18.06370544 C46.60362717 18.07144737 46.60362717 18.07144737 45.01269531 18.0793457 C43.95011505 18.08076065 42.88753479 18.0821756 41.79275513 18.08363342 C38.38947772 18.08924362 34.98626543 18.10179786 31.58300781 18.11450195 C29.27962334 18.11951564 26.97623785 18.12407877 24.67285156 18.12817383 C19.01788132 18.13921636 13.36294922 18.15596444 7.70800781 18.17700195 Z M6.70800781 33.17700195 C6.11730767 35.1230347 6.11730767 35.1230347 5.70800781 37.17700195 C6.71102092 38.40128237 6.71102092 38.40128237 8.72645569 38.29725647 C10.05549171 38.29392555 10.05549171 38.29392555 11.41137695 38.29052734 C12.91282005 38.29041405 12.91282005 38.29041405 14.44459534 38.29029846 C15.53312302 38.28513718 16.6216507 38.27997589 17.74316406 38.2746582 C18.85155136 38.27324326 19.95993866 38.27182831 21.10191345 38.27037048 C24.6581385 38.26475229 28.21430164 38.2521967 31.77050781 38.23950195 C34.17480378 38.2344893 36.57910073 38.22992599 38.98339844 38.22583008 C44.89162285 38.21477695 50.79981091 38.19802112 56.70800781 38.17700195 C57.29870795 36.23096921 57.29870795 36.23096921 57.70800781 34.17700195 C56.70499471 32.95272154 56.70499471 32.95272154 54.68955994 33.05674744 C53.36052391 33.06007835 53.36052391 33.06007835 52.00463867 33.06347656 C50.50319557 33.06358986 50.50319557 33.06358986 48.97142029 33.06370544 C47.88289261 33.06886673 46.79436493 33.07402802 45.67285156 33.0793457 C44.01027061 33.08146812 44.01027061 33.08146812 42.31410217 33.08363342 C38.75787712 33.08925162 35.20171398 33.1018072 31.64550781 33.11450195 C29.24121184 33.11951461 26.83691489 33.12407792 24.43261719 33.12817383 C18.52439277 33.13922696 12.61620471 33.15598279 6.70800781 33.17700195 Z M6.70800781 48.17700195 C6.37800781 49.16700195 6.04800781 50.15700195 5.70800781 51.17700195 C6.03800781 51.83700195 6.36800781 52.49700195 6.70800781 53.17700195 C15.61800781 53.17700195 24.52800781 53.17700195 33.70800781 53.17700195 C34.03800781 51.85700195 34.36800781 50.53700195 34.70800781 49.17700195 C33.63771652 47.88154747 33.63771652 47.88154747 31.1159668 48.06347656 C29.99005127 48.06871338 28.86413574 48.0739502 27.70410156 48.0793457 C25.88168945 48.08417969 25.88168945 48.08417969 24.02246094 48.08911133 C22.74306641 48.09749023 21.46367187 48.10586914 20.14550781 48.11450195 C18.22061523 48.12126953 18.22061523 48.12126953 16.25683594 48.12817383 C13.07384759 48.1400065 9.89095019 48.15649127 6.70800781 48.17700195 Z " fill="#0596B1" transform="translate(145.2919921875,17.822998046875)"/>
<path d="M0 0 C2.1640625 1.5 2.1640625 1.5 5.1640625 4.5 C5.4940625 1.2 5.8240625 -2.1 6.1640625 -5.5 C13.0940625 -5.5 20.0240625 -5.5 27.1640625 -5.5 C27.18661156 7.26034185 27.20497645 20.02067057 27.21587467 32.78102779 C27.22110399 38.70550715 27.22820251 44.62997222 27.23950195 50.55444336 C27.25032911 56.26672571 27.25633897 61.97899428 27.25893974 67.69128609 C27.2607943 69.87588277 27.2644155 72.06047865 27.26979256 74.2450695 C27.27700071 77.29352349 27.27805354 80.34191979 27.27758789 83.39038086 C27.28118317 84.30315796 27.28477844 85.21593506 27.28848267 86.15637207 C27.27811466 92.38594784 27.27811466 92.38594784 26.1640625 93.5 C24.76057515 93.59860131 23.35225773 93.63078937 21.9453125 93.6328125 C20.67107422 93.63474609 20.67107422 93.63474609 19.37109375 93.63671875 C18.47777344 93.63285156 17.58445312 93.62898438 16.6640625 93.625 C15.77074219 93.62886719 14.87742187 93.63273437 13.95703125 93.63671875 C13.10753906 93.63542969 12.25804687 93.63414062 11.3828125 93.6328125 C10.59841797 93.63168457 9.81402344 93.63055664 9.00585938 93.62939453 C7.1640625 93.5 7.1640625 93.5 6.1640625 92.5 C5.93042369 90.65108054 5.75102615 88.79511969 5.6015625 86.9375 C5.51777344 85.92558594 5.43398438 84.91367188 5.34765625 83.87109375 C5.28707031 83.08863281 5.22648437 82.30617188 5.1640625 81.5 C4.58140625 82.01949219 3.99875 82.53898437 3.3984375 83.07421875 C-6.5235982 91.51418937 -16.64788966 96.01564642 -29.8359375 95.5 C-40.9427466 94.1439361 -50.37723411 89.99463442 -57.8359375 81.5 C-58.55523437 80.74976563 -58.55523437 80.74976563 -59.2890625 79.984375 C-69.5757975 68.86638868 -72.68350684 54.58672212 -72.18359375 39.8203125 C-71.27778111 25.33380355 -65.6621899 13.43023928 -55.1953125 3.47265625 C-38.72636826 -10.29690806 -17.82852049 -10.86690773 0 0 Z M-45.8359375 23.5 C-51.43745177 33.09563748 -52.37984184 44.49006281 -49.6484375 55.20703125 C-46.84251772 63.12566064 -42.27780579 69.45074814 -34.8359375 73.5 C-27.71088395 76.37571509 -18.29531489 77.18153958 -10.9609375 74.4375 C-2.50997895 69.1979057 3.32143082 63.27412126 6.1640625 53.5 C7.7094567 43.18645819 7.4248307 32.95255342 1.92578125 23.8515625 C-3.00200501 17.27389659 -8.84870922 13.57854771 -16.8359375 11.5 C-28.76556327 9.82985239 -38.54353969 13.95083242 -45.8359375 23.5 Z " fill="#0496B0" transform="translate(330.8359375,75.5)"/>
<path d="M0 0 C5.33056689 4.02771596 9.58127118 8.50648596 13.12109375 14.16796875 C13.49878906 14.76996094 13.87648438 15.37195313 14.265625 15.9921875 C19.90261665 26.06276808 20.97226695 37.84081773 20.12109375 49.16796875 C19.12109375 50.16796875 19.12109375 50.16796875 16.19151306 50.28822327 C14.87913162 50.28600266 13.56675018 50.28378204 12.21459961 50.28149414 C11.49268936 50.28164017 10.77077911 50.28178619 10.0269928 50.28193665 C7.62994428 50.28123744 5.23297252 50.2734447 2.8359375 50.265625 C1.17826886 50.26376085 -0.47940032 50.26233693 -2.1370697 50.26133728 C-6.50844839 50.25751187 -10.87979406 50.2476814 -15.25115967 50.2366333 C-19.70845086 50.22641967 -24.16574736 50.22183976 -28.62304688 50.21679688 C-37.37501518 50.20605915 -46.12695661 50.18898246 -54.87890625 50.16796875 C-54.12244694 52.07735292 -53.35619954 53.98286083 -52.5859375 55.88671875 C-52.16030518 56.94826172 -51.73467285 58.00980469 -51.29614258 59.10351562 C-48.39097305 65.38528788 -43.85827856 70.61435394 -37.4375 73.41796875 C-26.0245994 76.76342969 -14.68011311 77.44059559 -4.00390625 71.73046875 C-1.14730923 70.04918748 1.49416097 68.1882332 4.12109375 66.16796875 C8.11354096 67.67622658 9.71488304 70.01229823 11.99609375 73.54296875 C12.63289062 74.49945313 13.2696875 75.4559375 13.92578125 76.44140625 C15.12109375 79.16796875 15.12109375 79.16796875 14.625 81.30078125 C6.80394424 91.01107905 -8.07438119 94.69467672 -19.87890625 96.16796875 C-34.51216881 97.3874073 -49.04740417 92.36224158 -60.19140625 82.98046875 C-70.91505782 72.6355015 -75.85362201 60.1078741 -76.37890625 45.23046875 C-75.81297142 29.09219819 -70.34640011 15.50736358 -58.53515625 4.2421875 C-41.75173731 -8.86368817 -18.28829295 -11.6380046 0 0 Z M-49.00390625 21.16796875 C-51.99582778 25.03344402 -53.87890625 28.19317102 -53.87890625 33.16796875 C-36.38890625 33.16796875 -18.89890625 33.16796875 -0.87890625 33.16796875 C-2.93810454 24.9311756 -4.31828582 20.91261367 -10.87890625 15.85546875 C-23.19662737 8.92675062 -39.21309152 10.5091024 -49.00390625 21.16796875 Z " fill="#0496B1" transform="translate(860.87890625,74.83203125)"/>
<path d="M0 0 C9.53640563 7.45673037 16.65558058 17.37703046 18.88671875 29.546875 C19.44507437 35.73455367 19.44245834 41.98598821 19.125 48.1875 C18.125 49.1875 18.125 49.1875 15.19541931 49.30775452 C13.88303787 49.30553391 12.57065643 49.30331329 11.21850586 49.30102539 C10.49659561 49.30117142 9.77468536 49.30131744 9.03089905 49.3014679 C6.63385053 49.30076869 4.23687877 49.29297595 1.83984375 49.28515625 C0.18217511 49.2832921 -1.47549407 49.28186818 -3.13316345 49.28086853 C-7.50454214 49.27704312 -11.87588781 49.26721265 -16.24725342 49.25616455 C-20.70454461 49.24595092 -25.16184111 49.24137101 -29.61914062 49.23632812 C-38.37110893 49.2255904 -47.12305036 49.20851371 -55.875 49.1875 C-55.11854069 51.09688417 -54.35229329 53.00239208 -53.58203125 54.90625 C-53.15639893 55.96779297 -52.7307666 57.02933594 -52.29223633 58.12304688 C-49.36452397 64.45356289 -44.82904328 69.62896183 -38.359375 72.4375 C-28.8395977 75.31139504 -18.40762203 76.45619963 -8.875 73.1875 C-5.84819076 71.49947177 -3.04956733 69.68978868 -0.25 67.6484375 C2.125 66.1875 2.125 66.1875 6.125 66.1875 C8.30078125 68.453125 8.30078125 68.453125 10.4375 71.4375 C11.15550781 72.41203125 11.87351562 73.3865625 12.61328125 74.390625 C14.125 77.1875 14.125 77.1875 14.13671875 79.328125 C10.64717155 85.74134688 0.85530037 89.98467168 -5.875 92.1875 C-21.58908977 96.57579158 -37.06741134 96.09129433 -51.8125 88.71875 C-63.12266553 82.05831919 -71.27063957 72.43456111 -74.83984375 59.76171875 C-78.1709906 45.4700242 -77.8324804 29.61571146 -70.44140625 16.48828125 C-62.40073619 4.67792049 -51.52160136 -3.85116279 -37.5859375 -7.39453125 C-23.94122116 -9.49825553 -11.49433164 -7.9564258 0 0 Z M-49.4375 19.4375 C-52.50097697 23.80601993 -52.50097697 23.80601993 -54.875 32.1875 C-37.385 32.1875 -19.895 32.1875 -1.875 32.1875 C-3.81578445 23.45396998 -5.13774408 19.62723546 -12 14.64453125 C-23.57655529 7.84711309 -40.02024268 9.51120175 -49.4375 19.4375 Z " fill="#0596B0" transform="translate(524.875,75.8125)"/>
<path d="M0 0 C7.59 0 15.18 0 23 0 C28.62131519 11.24263039 28.62131519 11.24263039 30.83984375 16.59765625 C31.33911377 17.79640381 31.83838379 18.99515137 32.3527832 20.23022461 C32.61096832 20.85460419 32.86915344 21.47898376 33.13516235 22.12228394 C34.53350345 25.50375791 35.94354588 28.88035879 37.3515625 32.2578125 C37.64450699 32.96145432 37.93745148 33.66509613 38.23927307 34.39006042 C41.72490111 42.75562666 45.26831334 51.09661644 48.8125 59.4375 C49.43548181 60.90437133 50.05844772 62.3712494 50.68139648 63.83813477 C52.12024209 67.22571616 53.5598668 70.61296575 55 74 C58.51559697 65.7677779 61.73037329 57.4659166 64.7578125 49.04296875 C65.18754364 47.85576736 65.61727478 46.66856598 66.06002808 45.44538879 C67.18857232 42.3270172 68.31487692 39.20785116 69.43969727 36.08813477 C71.0279397 31.68326573 72.61814757 27.27911415 74.21139526 22.87605286 C75.05598762 20.54173844 75.89863545 18.20671926 76.73904419 15.87089539 C77.12309418 14.80901505 77.50714417 13.7471347 77.90283203 12.65307617 C78.23638702 11.72774582 78.56994202 10.80241547 78.91360474 9.8490448 C80.18000961 6.52792923 81.59986263 3.26698719 83 0 C90.92 0 98.84 0 107 0 C105.01667275 6.61109084 103.02892017 12.59125868 100.25 18.8125 C95.94356169 28.65799679 91.89065409 38.59610235 87.875 48.5625 C84.03411683 58.09447083 80.18284102 67.61971596 76.19140625 77.08984375 C75.88010269 77.82874344 75.56879913 78.56764313 75.24806213 79.32893372 C74.62211249 80.81437237 73.99616136 82.2998104 73.37020874 83.7852478 C65.4158 102.67329235 58.13287419 121.78849911 51 141 C43.41 141 35.82 141 28 141 C28.598125 139.370625 29.19625 137.74125 29.8125 136.0625 C30.24433594 134.87785156 30.67617188 133.69320312 31.12109375 132.47265625 C32.5184753 128.91860795 34.25105412 125.64967065 36.09765625 122.30859375 C42.69721823 110.7939292 42.69721823 110.7939292 43.3046875 98.05078125 C41.60334102 93.57618446 39.205778 89.4860146 36.81738281 85.34814453 C33.37922987 79.01407286 30.61596314 72.35693838 27.72784424 65.75869751 C25.90034391 61.60158688 24.03404838 57.46197545 22.171875 53.3203125 C17.43848749 42.76628069 12.77342625 32.18301 8.13720703 21.5859375 C7.02767166 19.06292362 5.90494268 16.54623534 4.77734375 14.03125 C4.4417041 13.27827637 4.10606445 12.52530273 3.76025391 11.74951172 C3.15367307 10.38978312 2.54304727 9.0318473 1.92724609 7.67626953 C0.69910693 4.91123258 0 3.06795938 0 0 Z " fill="#0596B0" transform="translate(961,70)"/>
<path d="M0 0 C8.24385723 6.62236325 10.87033553 15.30427979 12.6875 25.45703125 C13.07747633 30.87214255 13.06372417 36.2632808 13.015625 41.6875 C13.01255974 43.21494866 13.01068946 44.74240013 13.00994873 46.26985168 C13.00538468 49.44246416 12.9910982 52.61481724 12.96875 55.78735352 C12.9402035 59.86067153 12.92950773 63.93378877 12.9250679 68.00719738 C12.92092521 71.14777131 12.91112174 74.28830455 12.89919281 77.4288578 C12.89348926 78.93242379 12.88873084 80.43599367 12.88492584 81.93956566 C12.87809038 84.02643218 12.8644783 86.11313612 12.84863281 88.19995117 C12.84180481 89.38731369 12.83497681 90.57467621 12.82794189 91.79801941 C12.6875 94.45703125 12.6875 94.45703125 11.6875 95.45703125 C10.28401265 95.55563256 8.87569523 95.58782062 7.46875 95.58984375 C6.19451172 95.59177734 6.19451172 95.59177734 4.89453125 95.59375 C4.00121094 95.58988281 3.10789062 95.58601563 2.1875 95.58203125 C1.29417969 95.58589844 0.40085937 95.58976562 -0.51953125 95.59375 C-1.36902344 95.59246094 -2.21851563 95.59117187 -3.09375 95.58984375 C-3.87814453 95.58871582 -4.66253906 95.58758789 -5.47070312 95.58642578 C-7.3125 95.45703125 -7.3125 95.45703125 -8.3125 94.45703125 C-8.42052138 92.4441867 -8.45879089 90.42757387 -8.47021484 88.41186523 C-8.48047699 87.11639267 -8.49073914 85.8209201 -8.50131226 84.4861908 C-8.50475018 83.78880232 -8.5081881 83.09141384 -8.51173019 82.37289238 C-8.52350615 80.19040172 -8.54295973 78.00811014 -8.56484985 75.82569885 C-8.62647855 69.6184867 -8.68034151 63.41128978 -8.71386719 57.20385742 C-8.73491381 53.40942663 -8.7703068 49.61535027 -8.81462479 45.82112312 C-8.82871845 44.37920392 -8.83749214 42.93722191 -8.84067917 41.49523735 C-8.74672654 28.53323617 -8.74672654 28.53323617 -14.875 17.51953125 C-19.59653998 13.52438204 -24.42790986 13.9864307 -30.3984375 14.11328125 C-37.2862566 14.71819949 -42.72668841 17.31079149 -47.3125 22.51953125 C-50.54326529 27.26471778 -51.56300202 30.04383475 -51.61547852 35.86206055 C-51.63212051 37.15987961 -51.64876251 38.45769867 -51.66590881 39.79484558 C-51.67446822 41.20698002 -51.68296591 42.61911484 -51.69140625 44.03125 C-51.70758379 45.48046486 -51.72476406 46.92966885 -51.74290466 48.37886047 C-51.78853531 52.18749988 -51.82337603 55.99615377 -51.85510254 59.80493164 C-51.90704183 65.91209962 -51.97197526 72.0191086 -52.04331779 78.12607765 C-52.06620777 80.26272274 -52.08243821 82.39934733 -52.09803772 84.53605652 C-52.11152756 85.8244191 -52.1250174 87.11278168 -52.13891602 88.44018555 C-52.14842789 89.58061813 -52.15793976 90.72105072 -52.16773987 91.89604187 C-52.3125 94.45703125 -52.3125 94.45703125 -53.3125 95.45703125 C-54.71598735 95.55563256 -56.12430477 95.58782062 -57.53125 95.58984375 C-58.80548828 95.59177734 -58.80548828 95.59177734 -60.10546875 95.59375 C-60.99878906 95.58988281 -61.89210938 95.58601563 -62.8125 95.58203125 C-63.70582031 95.58589844 -64.59914063 95.58976562 -65.51953125 95.59375 C-66.36902344 95.59246094 -67.21851563 95.59117187 -68.09375 95.58984375 C-68.87814453 95.58871582 -69.66253906 95.58758789 -70.47070312 95.58642578 C-72.3125 95.45703125 -72.3125 95.45703125 -73.3125 94.45703125 C-73.40780981 91.41300703 -73.43801639 88.39171417 -73.42602539 85.34741211 C-73.42617142 84.39141617 -73.42631744 83.43542023 -73.4264679 82.45045471 C-73.42576835 79.2742388 -73.41797403 76.09808073 -73.41015625 72.921875 C-73.40829222 70.72612032 -73.40686825 68.53036523 -73.40586853 66.33460999 C-73.40204219 60.54282492 -73.39221091 54.75106475 -73.38116455 48.95928955 C-73.37095293 43.05424334 -73.36637145 37.14919312 -73.36132812 31.24414062 C-73.35058875 19.64842653 -73.33351093 8.05273096 -73.3125 -3.54296875 C-70.00001813 -3.57185021 -66.68756833 -3.58972674 -63.375 -3.60546875 C-62.42947266 -3.61384766 -61.48394531 -3.62222656 -60.50976562 -3.63085938 C-59.16108398 -3.63569336 -59.16108398 -3.63569336 -57.78515625 -3.640625 C-56.53617554 -3.64848022 -56.53617554 -3.64848022 -55.26196289 -3.65649414 C-53.3125 -3.54296875 -53.3125 -3.54296875 -52.3125 -2.54296875 C-52.07886119 -0.69404929 -51.89946365 1.16191156 -51.75 3.01953125 C-51.62431641 4.53740234 -51.62431641 4.53740234 -51.49609375 6.0859375 C-51.43550781 6.86839844 -51.37492188 7.65085937 -51.3125 8.45703125 C-50.673125 7.75578125 -50.03375 7.05453125 -49.375 6.33203125 C-36.19810352 -6.73351117 -16.0231051 -10.69109208 0 0 Z " fill="#0697B1" transform="translate(636.3125,73.54296875)"/>
<path d="M0 0 C0.99 0.99 0.99 0.99 2 2 C1.84304462 8.12125996 -1.39177146 13.59105372 -4 19 C-5.7015625 18.01 -5.7015625 18.01 -7.4375 17 C-11.95324202 14.75416028 -16.01526729 14.00894094 -21 15 C-24.03215675 17.19831364 -24.81654398 18.44963194 -26 22 C-26.22560676 24.39254576 -26.40848595 26.78928123 -26.5625 29.1875 C-26.706875 31.435625 -26.85125 33.68375 -27 36 C-19.41 36 -11.82 36 -4 36 C-4 42.27 -4 48.54 -4 55 C-11.59 55 -19.18 55 -27 55 C-27 80.74 -27 106.48 -27 133 C-33.6 133 -40.2 133 -47 133 C-47 107.26 -47 81.52 -47 55 C-52.28 55 -57.56 55 -63 55 C-63 48.73 -63 42.46 -63 36 C-57.72 36 -52.44 36 -47 36 C-47.08701172 33.90011719 -47.08701172 33.90011719 -47.17578125 31.7578125 C-47.77850365 11.2983272 -47.77850365 11.2983272 -40.1328125 2.96484375 C-28.49566611 -8.06101285 -13.31987043 -8.36727673 0 0 Z " fill="#0196B1" transform="translate(958,36)"/>
<path d="M0 0 C6.93 0 13.86 0 21 0 C21 8.25 21 16.5 21 25 C28.26 25 35.52 25 43 25 C43 31.6 43 38.2 43 45 C35.74 45 28.48 45 21 45 C21.00523682 47.35761475 21.01047363 49.71522949 21.01586914 52.14428711 C21.0324053 59.91551993 21.04347133 67.6867535 21.05181217 75.45799923 C21.05704089 80.17179733 21.06413834 84.88557747 21.07543945 89.59936523 C21.08626873 94.14455404 21.09227692 98.68972552 21.09487724 103.23492622 C21.09673142 104.97294958 21.10035189 106.71097194 21.10573006 108.44898796 C21.11294103 110.87478595 21.11399092 113.30051146 21.11352539 115.72631836 C21.11712067 116.45208069 21.12071594 117.17784302 21.12442017 117.92559814 C21.11405216 122.88594784 21.11405216 122.88594784 20 124 C18.59651265 124.09860131 17.18819523 124.13078937 15.78125 124.1328125 C14.50701172 124.13474609 14.50701172 124.13474609 13.20703125 124.13671875 C12.31371094 124.13285156 11.42039062 124.12898438 10.5 124.125 C9.60667969 124.12886719 8.71335937 124.13273437 7.79296875 124.13671875 C6.94347656 124.13542969 6.09398437 124.13414062 5.21875 124.1328125 C4.43435547 124.13168457 3.64996094 124.13055664 2.84179688 124.12939453 C1 124 1 124 0 123 C-0.09498646 120.56603981 -0.12558417 118.16057048 -0.11352539 115.72631836 C-0.11367142 114.96539383 -0.11381744 114.2044693 -0.1139679 113.42048645 C-0.11326862 110.89357702 -0.10547555 108.36674038 -0.09765625 105.83984375 C-0.09579212 104.0924941 -0.0943682 102.34514393 -0.09336853 100.59779358 C-0.08954293 95.98968066 -0.07971229 91.38159905 -0.06866455 86.77349854 C-0.05845134 82.07491479 -0.0538711 77.37632601 -0.04882812 72.67773438 C-0.03809005 63.45180692 -0.02049292 54.22591096 0 45 C-6.6 45 -13.2 45 -20 45 C-20 38.4 -20 31.8 -20 25 C-13.4 25 -6.8 25 0 25 C0 16.75 0 8.5 0 0 Z " fill="#0496B0" transform="translate(395,45)"/>
<path d="M0 0 C0.67484436 -0.00191345 1.34968872 -0.0038269 2.04498291 -0.00579834 C3.46016822 -0.00715094 4.87536633 -0.00351961 6.29052734 0.00488281 C8.46089176 0.01566358 10.63044113 0.00492251 12.80078125 -0.0078125 C14.17968933 -0.00649205 15.5585969 -0.00393204 16.9375 0 C18.18756836 0.00225586 19.43763672 0.00451172 20.72558594 0.00683594 C23.703125 0.265625 23.703125 0.265625 25.703125 2.265625 C25.453125 4.828125 25.453125 4.828125 24.703125 7.265625 C21.89421188 8.67008156 19.51377248 8.41126744 16.375 8.44140625 C14.46267578 8.47717773 14.46267578 8.47717773 12.51171875 8.51367188 C10.48638343 8.54867586 8.46163508 8.57806835 6.43603516 8.59155273 C4.47796917 8.60713098 2.52016915 8.64901966 0.5625 8.69140625 C-1.19368652 8.71328003 -1.19368652 8.71328003 -2.98535156 8.7355957 C-7.67949298 9.48692135 -10.64132983 11.80258508 -14.14453125 14.8984375 C-16.05805561 18.82927059 -15.76856977 22.83208374 -15.734375 27.140625 C-15.75435547 28.02621094 -15.77433594 28.91179687 -15.79492188 29.82421875 C-15.7907526 35.41937936 -15.23663784 38.96892638 -11.296875 43.265625 C-7.82087594 44.9695591 -4.99364662 45.52267057 -1.14282227 45.55615234 C0.35914955 45.5752919 0.35914955 45.5752919 1.89146423 45.59481812 C2.96239822 45.59704376 4.03333221 45.59926941 5.13671875 45.6015625 C6.80275902 45.6115477 6.80275902 45.6115477 8.50245667 45.62173462 C10.84838202 45.63184712 13.19433607 45.63655207 15.5402832 45.63623047 C19.12434327 45.64060513 22.70717318 45.67694553 26.29101562 45.71484375 C28.57291246 45.72071189 30.85481514 45.7246813 33.13671875 45.7265625 C34.74008339 45.74811905 34.74008339 45.74811905 36.37583923 45.77011108 C42.44204748 45.73295012 46.14829812 45.43043755 50.703125 41.265625 C52.47768617 37.84325703 53.61050201 34.59906775 54.640625 30.890625 C55.703125 28.265625 55.703125 28.265625 57.640625 27.265625 C59.703125 27.265625 59.703125 27.265625 62.703125 29.265625 C64.12478445 34.37919077 62.73238036 38.92388807 60.265625 43.453125 C57.30690622 48.53605214 52.95881772 51.77208496 47.703125 54.265625 C43.32080087 55.08596543 39.04983166 55.06171844 34.6015625 54.9921875 C33.36572418 54.99318451 32.12988586 54.99418152 30.8565979 54.99520874 C28.25622085 54.9905472 25.65583309 54.971208 23.05566406 54.93798828 C19.08316196 54.89068498 15.11333846 54.89689422 11.140625 54.91015625 C8.60675489 54.89900476 6.07289603 54.88478629 3.5390625 54.8671875 C2.35661957 54.86901031 1.17417664 54.87083313 -0.0440979 54.87271118 C-7.93994981 54.73729731 -12.43933623 53.6734689 -18.44140625 48.37109375 C-18.99183594 47.73816406 -19.54226562 47.10523438 -20.109375 46.453125 C-20.67269531 45.82792969 -21.23601562 45.20273438 -21.81640625 44.55859375 C-26.63836595 37.0902815 -26.31637969 26.83531405 -25.296875 18.265625 C-23.38735137 11.46294708 -19.41241181 5.9078763 -13.296875 2.265625 C-8.7338347 0.45829824 -4.89447795 0.00880076 0 0 Z " fill="#0B95AF" transform="translate(99.296875,83.734375)"/>
<path d="M0 0 C0 6.6 0 13.2 0 20 C-34.32 20 -68.64 20 -104 20 C-103.01 19.67 -102.02 19.34 -101 19 C-101 17.35 -101 15.7 -101 14 C-69.32 14 -37.64 14 -5 14 C-4.67 10.04 -4.34 6.08 -4 2 C-1 0 -1 0 0 0 Z " fill="#0195B0" transform="translate(175,189)"/>
<path d="M0 0 C3.81930363 4.25579547 5.1875 8.36605551 5.1875 14.0625 C3.9037324 18.39521564 2.41760728 20.28251149 -0.8125 23.4375 C-3.125 24.3125 -3.125 24.3125 -4.8125 24.4375 C-5.1425 23.4475 -5.4725 22.4575 -5.8125 21.4375 C-7.1325 21.4375 -8.4525 21.4375 -9.8125 21.4375 C-10.95100229 23.71450458 -10.93916883 24.96891868 -10.94189453 27.49731445 C-10.94504669 28.33611649 -10.94819885 29.17491852 -10.95144653 30.03913879 C-10.9494223 30.9504808 -10.94739807 31.86182281 -10.9453125 32.80078125 C-10.94626923 33.74374557 -10.94722595 34.6867099 -10.94821167 35.6582489 C-10.94889361 37.66319851 -10.94703838 39.66815031 -10.94287109 41.6730957 C-10.93758827 44.69943416 -10.94278132 47.72561971 -10.94921875 50.75195312 C-10.95443632 58.89061094 -10.94062919 67.03723816 -10.5546875 75.16796875 C-10.50940918 76.13500732 -10.46413086 77.1020459 -10.41748047 78.09838867 C-9.99555652 80.58356756 -9.99555652 80.58356756 -7.90917969 82.23925781 C-5.52887557 83.59958998 -3.90954995 83.85889039 -1.1875 84 C2.97836116 84.22836116 2.97836116 84.22836116 5.1875 86.4375 C5.3828125 89.2578125 5.3828125 89.2578125 5.3125 92.5625 C5.29445313 93.65820312 5.27640625 94.75390625 5.2578125 95.8828125 C5.23460938 96.72585937 5.21140625 97.56890625 5.1875 98.4375 C3.16399676 95.40224514 2.86625982 94.24323798 2.5625 90.75 C2.48773438 89.94175781 2.41296875 89.13351563 2.3359375 88.30078125 C2.28695312 87.68589844 2.23796875 87.07101563 2.1875 86.4375 C1.59582031 86.41171875 1.00414063 86.3859375 0.39453125 86.359375 C-4.86231899 85.98204807 -7.98998357 85.37947007 -11.8125 81.4375 C-13.09816729 78.86616541 -12.93259778 77.040329 -12.92602539 74.16162109 C-12.92594986 73.0606308 -12.92587433 71.9596405 -12.92579651 70.82528687 C-12.92063522 69.63255157 -12.91547394 68.43981628 -12.91015625 67.2109375 C-12.9087413 65.99298492 -12.90732635 64.77503235 -12.90586853 63.52017212 C-12.90025639 59.6175901 -12.88770179 55.71506477 -12.875 51.8125 C-12.86998657 49.17187583 -12.86542339 46.53125076 -12.86132812 43.890625 C-12.85028301 37.40623055 -12.83353302 30.92186932 -12.8125 24.4375 C-13.60140625 24.13714844 -14.3903125 23.83679688 -15.203125 23.52734375 C-17.80312927 22.44141382 -19.07274711 21.61219112 -20.8125 19.4375 C-22.67918041 13.83745877 -22.69805522 8.38572149 -20.25 3 C-14.34882718 -3.20379706 -7.41526079 -4.11958933 0 0 Z M-11.9375 6.5625 C-14.09827545 8.36000157 -14.09827545 8.36000157 -14.3125 11.4375 C-14.06768311 14.48028274 -14.06768311 14.48028274 -12.125 16.4375 C-9.79012257 17.73494738 -9.79012257 17.73494738 -7.125 16.6875 C-4.91494853 15.6352169 -4.91494853 15.6352169 -3.8125 14.4375 C-3.39547878 11.5217309 -3.39547878 11.5217309 -3.8125 8.4375 C-6.63922086 5.61077914 -8.28340943 4.62798146 -11.9375 6.5625 Z " fill="#1293AB" transform="translate(55.8125,52.5625)"/>
<path d="M0 0 C2.92937654 1.81310142 5.43647949 3.87295899 7 7 C7.51441592 11.45827127 7.30466095 13.50146391 4.9375 17.375 C1.43775876 20.50242834 -0.33733635 21.08326185 -5 21 C-8.64886208 19.42435501 -11.13562322 17.53250338 -13 14 C-13.49677002 10.64680233 -13.74097161 8.229464 -11.9453125 5.25 C-8.22976383 0.67701703 -5.86701424 -0.67696318 0 0 Z M-4 8 C-4 9.32 -4 10.64 -4 12 C-3.01 11.67 -2.02 11.34 -1 11 C-1.33 10.01 -1.66 9.02 -2 8 C-2.66 8 -3.32 8 -4 8 Z " fill="#1194AA" transform="translate(135,100)"/>
<path d="M0 0 C3.01489058 2.05269146 4.62010918 3.5370162 5.55078125 7.12109375 C5.85222189 10.62608 5.68170257 13.00243525 3.66796875 15.94921875 C0.56871798 18.9505248 -1.25213049 19.96131709 -5.625 20.1875 C-9.64390431 18.77344108 -11.43554301 17.39413425 -14 14 C-15.27497059 10.2547739 -15.19474412 8.55177501 -13.875 4.8125 C-10.09943752 -0.85084372 -6.52786763 -1.86510504 0 0 Z M-5 7 C-5.33 8.32 -5.66 9.64 -6 11 C-5.01 11 -4.02 11 -3 11 C-3.33 9.68 -3.66 8.36 -4 7 C-4.33 7 -4.66 7 -5 7 Z " fill="#0C96AF" transform="translate(105,101)"/>
<path d="M0 0 C0.33 0 0.66 0 1 0 C1 4.62 1 9.24 1 14 C8.59 14 16.18 14 24 14 C24 20.27 24 26.54 24 33 C16.41 33 8.82 33 1 33 C1 58.74 1 84.48 1 111 C-5.6 111 -12.2 111 -19 111 C-19 110.34 -19 109.68 -19 109 C-13.06 109 -7.12 109 -1 109 C-1.00523682 106.70820801 -1.01047363 104.41641602 -1.01586914 102.05517578 C-1.03241552 94.49549381 -1.04347544 86.93581106 -1.05181217 79.3761158 C-1.0570378 74.79126149 -1.06412967 70.20642569 -1.07543945 65.62158203 C-1.08627967 61.19958183 -1.09227925 56.77759946 -1.09487724 52.35558701 C-1.09672944 50.66583856 -1.10034614 48.97609113 -1.10573006 47.28635025 C-1.11295551 44.92541622 -1.1139903 42.56455653 -1.11352539 40.20361328 C-1.11712067 39.50014771 -1.12071594 38.79668213 -1.12442017 38.07189941 C-1.11405216 33.22810432 -1.11405216 33.22810432 0 31 C7.59 31 15.18 31 23 31 C23 25.72 23 20.44 23 15 C15.41 15 7.82 15 0 15 C0 10.05 0 5.1 0 0 Z " fill="#1B90A5" transform="translate(930,58)"/>
<path d="M0 0 C2.6875 0.875 2.6875 0.875 5 2 C5.65610654 8.77976763 4.60185208 12.6839977 1.19140625 18.54296875 C-2.75809361 22.97119587 -7.02749755 26.462345 -12.98796082 27.54045105 C-16.42064831 27.72436159 -19.80531641 27.72751181 -23.2421875 27.65625 C-24.48751251 27.65250366 -25.73283752 27.64875732 -27.01589966 27.64489746 C-30.30007746 27.62810031 -33.58245245 27.58431041 -36.8661499 27.52856445 C-40.21539239 27.48094055 -43.56450166 27.47856556 -46.9140625 27.46875 C-49.46095675 27.45042083 -52.007835 27.42967276 -54.5546875 27.40625 C-55.75777557 27.39775024 -56.96086365 27.38925049 -58.20040894 27.38049316 C-59.31231598 27.36127808 -60.42422302 27.34206299 -61.56982422 27.32226562 C-63.03801102 27.30178162 -63.03801102 27.30178162 -64.53585815 27.28088379 C-67 27 -67 27 -70 25 C-68.90791985 25.00666183 -68.90791985 25.00666183 -67.79377747 25.01345825 C-60.92291702 25.05358016 -54.05207416 25.08400739 -47.18112659 25.10362434 C-43.64893904 25.11404876 -40.11684852 25.1281833 -36.5847168 25.15087891 C-32.52131229 25.17682394 -28.45800926 25.18648387 -24.39453125 25.1953125 C-22.49741142 25.21079636 -22.49741142 25.21079636 -20.56196594 25.22659302 C-18.79069588 25.22681961 -18.79069588 25.22681961 -16.98364258 25.22705078 C-15.94661697 25.231492 -14.90959137 25.23593323 -13.84114075 25.24050903 C-10.87068616 24.98905329 -8.69174685 24.24812854 -6 23 C-6 22.34 -6 21.68 -6 21 C-5.01 20.505 -5.01 20.505 -4 20 C-5.65 19.01 -7.3 18.02 -9 17 C-8.38125 16.195625 -7.7625 15.39125 -7.125 14.5625 C-4.83271868 11.19244431 -4.19355107 7.94166325 -3.58984375 3.953125 C-3 2 -3 2 0 0 Z " fill="#0397B0" transform="translate(157,111)"/>
<path d="M0 0 C4.82380802 -0.0246519 9.64757967 -0.04283693 14.47143555 -0.05493164 C16.11369464 -0.05997174 17.75594923 -0.06680378 19.39819336 -0.07543945 C21.75375479 -0.08751926 24.10925709 -0.09323139 26.46484375 -0.09765625 C27.20339096 -0.10281754 27.94193817 -0.10797882 28.7028656 -0.11329651 C30.46898088 -0.1134925 32.23497146 -0.06194719 34 0 C35 1 35 1 35 6 C21.8 6 8.6 6 -5 6 C-5 6.66 -5 7.32 -5 8 C-6.32 7.67 -7.64 7.34 -9 7 C-7.8125 5.0625 -7.8125 5.0625 -6 3 C-3.375 2.375 -3.375 2.375 -1 2 C-0.67 1.34 -0.34 0.68 0 0 Z " fill="#0497B2" transform="translate(86,61)"/>
<path d="M0 0 C1 3 1 3 0.09375 5.17578125 C-1.5661985 9.46200541 -1.42897888 13.84171431 -1.56640625 18.38085938 C-1.79821884 23.79821884 -1.79821884 23.79821884 -4 26 C-5.32 26 -6.64 26 -8 26 C-7.67 27.32 -7.34 28.64 -7 30 C-6.360625 30.12375 -5.72125 30.2475 -5.0625 30.375 C-4.381875 30.58125 -3.70125 30.7875 -3 31 C-1.72138385 33.55723229 -1.88663391 35.36737102 -1.90234375 38.2265625 C-1.90556641 39.2578125 -1.90878906 40.2890625 -1.91210938 41.3515625 C-1.92048828 42.43179688 -1.92886719 43.51203125 -1.9375 44.625 C-1.94201172 45.71296875 -1.94652344 46.8009375 -1.95117188 47.921875 C-1.96298224 50.61463789 -1.97945222 53.30729188 -2 56 C-3.45823212 56.0270043 -4.91660675 56.04639787 -6.375 56.0625 C-7.59316406 56.07990234 -7.59316406 56.07990234 -8.8359375 56.09765625 C-11 56 -11 56 -13 55 C-13 48.4 -13 41.8 -13 35 C-13.66 34.67 -14.32 34.34 -15 34 C-13.35 31.36 -11.7 28.72 -10 26 C-11.32 25.67 -12.64 25.34 -14 25 C-14.33 17.41 -14.66 9.82 -15 2 C-14.01 2 -13.02 2 -12 2 C-12 9.26 -12 16.52 -12 24 C-9.36 24 -6.72 24 -4 24 C-4.04640625 23.18917969 -4.0928125 22.37835938 -4.140625 21.54296875 C-4.40317495 13.48831128 -3.29871289 7.34847202 0 0 Z M-10 32 C-12.1873988 33.77482776 -12.1873988 33.77482776 -12.24291992 36.04711914 C-12.23881104 36.86817139 -12.23470215 37.68922363 -12.23046875 38.53515625 C-12.22853516 39.42654297 -12.22660156 40.31792969 -12.22460938 41.23632812 C-12.21236328 42.16896484 -12.20011719 43.10160156 -12.1875 44.0625 C-12.18685547 44.99900391 -12.18621094 45.93550781 -12.18554688 46.90039062 C-12.55769467 51.28436532 -12.55769467 51.28436532 -11 55 C-8.69 55 -6.38 55 -4 55 C-4 47.41 -4 39.82 -4 32 C-5.98 32 -7.96 32 -10 32 Z " fill="#218FA5" transform="translate(63,75)"/>
<path d="M0 0 C6.93 0 13.86 0 21 0 C21 8.25 21 16.5 21 25 C28.26 25 35.52 25 43 25 C43 31.6 43 38.2 43 45 C35.74 45 28.48 45 21 45 C21 44.67 21 44.34 21 44 C27.93 44 34.86 44 42 44 C41.67 38.39 41.34 32.78 41 27 C39.49566406 27.01160156 37.99132812 27.02320312 36.44140625 27.03515625 C34.48177207 27.04453249 32.52213655 27.05363287 30.5625 27.0625 C29.07266602 27.07506836 29.07266602 27.07506836 27.55273438 27.08789062 C26.60849609 27.09111328 25.66425781 27.09433594 24.69140625 27.09765625 C23.37958374 27.10551147 23.37958374 27.10551147 22.04125977 27.11352539 C20 27 20 27 19 26 C18.91273777 24.21928754 18.89300959 22.4351686 18.90234375 20.65234375 C18.90556641 19.57275391 18.90878906 18.49316406 18.91210938 17.38085938 C18.92048828 16.24455078 18.92886719 15.10824219 18.9375 13.9375 C18.94201172 12.79732422 18.94652344 11.65714844 18.95117188 10.48242188 C18.96300253 7.65489649 18.9794859 4.8274736 19 2 C17.30230469 2.01740234 17.30230469 2.01740234 15.5703125 2.03515625 C14.08854331 2.04453454 12.60677235 2.0536347 11.125 2.0625 C10.37863281 2.07087891 9.63226563 2.07925781 8.86328125 2.08789062 C3.2265625 2.11328125 3.2265625 2.11328125 1 1 C1 8.92 1 16.84 1 25 C0.67 25 0.34 25 0 25 C0 16.75 0 8.5 0 0 Z " fill="#2492AA" transform="translate(395,45)"/>
<path d="M0 0 C2.375 -0.1875 2.375 -0.1875 5 0 C7 3 7 3 7 5 C7.65194336 5.43546143 8.30388672 5.87092285 8.97558594 6.31958008 C11 8 11 8 11.45410156 10.26831055 C11.4331543 11.13238525 11.41220703 11.99645996 11.390625 12.88671875 C11.37773437 13.82451172 11.36484375 14.76230469 11.3515625 15.72851562 C11.31804687 16.70498047 11.28453125 17.68144531 11.25 18.6875 C11.23195312 19.67556641 11.21390625 20.66363281 11.1953125 21.68164062 C11.14815447 24.12206842 11.08236042 26.56054769 11 29 C9.00045254 29.04254356 6.99958364 29.04080783 5 29 C3.41596476 27.41596476 3.78025065 25.7228362 3.68359375 23.52734375 C3.62075195 22.17866211 3.62075195 22.17866211 3.55664062 20.80273438 C3.51732422 19.85720703 3.47800781 18.91167969 3.4375 17.9375 C3.39431641 16.98810547 3.35113281 16.03871094 3.30664062 15.06054688 C3.20020724 12.70718647 3.09818992 10.35371646 3 8 C2.34 7.67 1.68 7.34 1 7 C-0.1875 4.5625 -0.1875 4.5625 -1 2 C-0.67 1.34 -0.34 0.68 0 0 Z " fill="#0398B0" transform="translate(183,101)"/>
<path d="M0 0 C0.66 0.33 1.32 0.66 2 1 C2.02312589 9.8488239 2.04091634 18.69763747 2.05181217 27.54648495 C2.05704046 31.65494285 2.06413713 35.76338014 2.07543945 39.87182617 C2.08627025 43.83346828 2.09227724 47.79509052 2.09487724 51.75674629 C2.09673114 53.27148311 2.1003511 54.78621879 2.10573006 56.30094719 C2.11294307 58.41541813 2.11399083 60.52980594 2.11352539 62.64428711 C2.115746 63.85007919 2.11796661 65.05587128 2.12025452 66.29820251 C2 69 2 69 1 70 C-0.40348735 70.09860131 -1.81180477 70.13078937 -3.21875 70.1328125 C-4.49298828 70.13474609 -4.49298828 70.13474609 -5.79296875 70.13671875 C-6.68628906 70.13285156 -7.57960938 70.12898438 -8.5 70.125 C-9.39332031 70.12886719 -10.28664063 70.13273437 -11.20703125 70.13671875 C-12.05652344 70.13542969 -12.90601563 70.13414062 -13.78125 70.1328125 C-14.56564453 70.13168457 -15.35003906 70.13055664 -16.15820312 70.12939453 C-18 70 -18 70 -19 69 C-19.07205511 67.31391034 -19.08386068 65.62499341 -19.0625 63.9375 C-19.05347656 63.01839844 -19.04445313 62.09929687 -19.03515625 61.15234375 C-19.02355469 60.44207031 -19.01195312 59.73179687 -19 59 C-18.67 59 -18.34 59 -18 59 C-18 61.97 -18 64.94 -18 68 C-12.06 68 -6.12 68 0 68 C0 45.56 0 23.12 0 0 Z " fill="#12929E" transform="translate(765,99)"/>
<path d="M0 0 C0.33 0 0.66 0 1 0 C1.86860031 4.48776828 2.13464852 8.74392767 2.125 13.3125 C2.12886719 15.16294922 2.12886719 15.16294922 2.1328125 17.05078125 C2 20 2 20 1 21 C-1.30053835 21.09443335 -3.60402173 21.11742128 -5.90649414 21.11352539 C-6.62840439 21.11367142 -7.35031464 21.11381744 -8.09410095 21.1139679 C-10.49114947 21.11326869 -12.88812123 21.10547595 -15.28515625 21.09765625 C-16.94282489 21.0957921 -18.60049407 21.09436818 -20.25816345 21.09336853 C-24.62954214 21.08954312 -29.00088781 21.07971265 -33.37225342 21.06866455 C-37.82954461 21.05845092 -42.28684111 21.05387101 -46.74414062 21.04882812 C-55.49610893 21.0380904 -64.24805036 21.02101371 -73 21 C-73 20.34 -73 19.68 -73 19 C-48.91 19 -24.82 19 0 19 C0 12.73 0 6.46 0 0 Z " fill="#2995A7" transform="translate(879,104)"/>
<path d="M0 0 C1.8253125 -0.02513672 1.8253125 -0.02513672 3.6875 -0.05078125 C7.15690777 0.32970805 8.50660897 0.950012 11 3.3125 C10.42655063 6.17974686 10.1385485 7.1739515 8 9.3125 C5.31139384 9.5114393 2.74894817 9.59085301 0.0625 9.5625 C-0.66646484 9.57023438 -1.39542969 9.57796875 -2.14648438 9.5859375 C-5.95838223 9.57196171 -7.7581111 9.47375927 -11 7.3125 C-11.1875 4.6875 -11.1875 4.6875 -11 2.3125 C-7.36951966 0.03437359 -4.22835956 0.01343758 0 0 Z " fill="#04ACC0" transform="translate(145,187.6875)"/>
<path d="M0 0 C1.31871094 -0.01675781 2.63742188 -0.03351563 3.99609375 -0.05078125 C7.62385659 0.3187499 8.99145294 0.82035975 11.5625 3.3125 C11.25 5.1875 11.25 5.1875 10.5625 7.3125 C6.93903931 9.72814046 4.24646018 9.61031669 0.0625 9.5625 C-0.61425781 9.57023438 -1.29101562 9.57796875 -1.98828125 9.5859375 C-5.68669257 9.57134811 -7.28353337 9.41514442 -10.4375 7.3125 C-10.8125 4.8125 -10.8125 4.8125 -10.4375 2.3125 C-6.83638412 -0.08824392 -4.16146229 -0.01994948 0 0 Z " fill="#1592AB" transform="translate(89.4375,187.6875)"/>
<path d="M0 0 C2.87525669 -0.05425013 5.74947646 -0.09379277 8.625 -0.125 C9.43324219 -0.14175781 10.24148437 -0.15851563 11.07421875 -0.17578125 C15.86016224 -0.21469136 19.44959188 0.37387818 24 2 C24.99 1.67 25.98 1.34 27 1 C29.33299825 0.96045766 31.66708189 0.95598268 34 1 C33.01 1.99 32.02 2.98 31 4 C33.31 4.33 35.62 4.66 38 5 C38 5.33 38 5.66 38 6 C32.90968245 6.04936158 27.81950357 6.08570105 22.72900391 6.10986328 C20.99655735 6.11993376 19.26412784 6.13359089 17.53173828 6.15087891 C15.04455361 6.17508162 12.55759325 6.18647239 10.0703125 6.1953125 C9.29317902 6.20563507 8.51604553 6.21595764 7.71536255 6.22659302 C5.80874507 6.22699271 3.90268964 6.1223214 2 6 C1.34 5.34 0.68 4.68 0 4 C0 2.68 0 1.36 0 0 Z " fill="#0497B2" transform="translate(98,175)"/>
<path d="M0 0 C0.71220703 -0.02449219 1.42441406 -0.04898438 2.15820312 -0.07421875 C5.83544003 -0.09462895 7.9946107 0.25641634 11.1484375 2.1953125 C13.66141689 4.88160081 13.9409437 6.75884097 14.1875 10.375 C12.25 9.5625 12.25 9.5625 10.1875 8.375 C9.1875 5.375 9.1875 5.375 9.1875 3.375 C6.7125 2.88 6.7125 2.88 4.1875 2.375 C4.5175 4.355 4.8475 6.335 5.1875 8.375 C2.8775 8.375 0.5675 8.375 -1.8125 8.375 C-1.8125 15.965 -1.8125 23.555 -1.8125 31.375 C-2.4725 31.375 -3.1325 31.375 -3.8125 31.375 C-3.8125 23.455 -3.8125 15.535 -3.8125 7.375 C-2.1625 7.375 -0.5125 7.375 1.1875 7.375 C1.1875 5.725 1.1875 4.075 1.1875 2.375 C-3.2675 2.87 -3.2675 2.87 -7.8125 3.375 C-8.1425 18.555 -8.4725 33.735 -8.8125 49.375 C-9.1425 49.375 -9.4725 49.375 -9.8125 49.375 C-9.8630916 42.71813186 -9.8981876 36.06131306 -9.92236328 29.40429688 C-9.93243859 27.13832751 -9.94609918 24.87237119 -9.96337891 22.60644531 C-9.98756011 19.35478499 -9.99896763 16.10329613 -10.0078125 12.8515625 C-10.01813507 11.83381744 -10.02845764 10.81607239 -10.03909302 9.76748657 C-10.03924408 8.82666229 -10.03939514 7.88583801 -10.03955078 6.91650391 C-10.043992 6.08599518 -10.04843323 5.25548645 -10.05300903 4.39981079 C-9.40766676 -1.03323256 -4.25183591 0.00757228 0 0 Z " fill="#248FA1" transform="translate(178.8125,98.625)"/>
<path d="M0 0 C5 2 5 2 6.78979492 4.34521484 C8.57121077 9.7250404 8.40800662 14.84546981 8.36328125 20.4765625 C8.36377975 21.67936859 8.36427826 22.88217468 8.36479187 24.12142944 C8.36245591 26.65811825 8.3527557 29.19480958 8.33618164 31.73144531 C8.31254228 35.61804865 8.31563059 39.5039678 8.32226562 43.390625 C8.31669018 45.85677493 8.30958114 48.32292197 8.30078125 50.7890625 C8.30214836 52.53444809 8.30214836 52.53444809 8.30354309 54.31509399 C8.29401108 55.39656708 8.28447906 56.47804016 8.2746582 57.59228516 C8.27005081 58.54237457 8.26544342 59.49246399 8.26069641 60.47134399 C7.99008421 63.09617938 7.3335641 64.74488102 6 67 C4.96298539 63.88895616 4.91122918 61.86587192 4.97827148 58.6105957 C4.99836777 57.50968094 5.01846405 56.40876617 5.03916931 55.27449036 C5.07972191 53.49312935 5.07972191 53.49312935 5.12109375 51.67578125 C5.14470474 50.45924362 5.16831573 49.24270599 5.19264221 47.98930359 C5.26932415 44.09691836 5.35332942 40.20472981 5.4375 36.3125 C5.49071612 33.67644197 5.54345655 31.0403743 5.59570312 28.40429688 C5.7249455 21.93607575 5.8602037 15.46800116 6 9 C4.35 9.66 2.7 10.32 1 11 C0.67 7.37 0.34 3.74 0 0 Z " fill="#1596AD" transform="translate(216,19)"/>
<path d="M0 0 C2.92937654 1.81310142 5.43647949 3.87295899 7 7 C7.25 10.4375 7.25 10.4375 7 14 C6.01 14.99 5.02 15.98 4 17 C4.33 14.03 4.66 11.06 5 8 C2.94729537 9.84188612 2.94729537 9.84188612 2 12 C1.34 12 0.68 12 0 12 C0 10.68 0 9.36 0 8 C-1.94999129 8.19471111 -1.94999129 8.19471111 -4 9 C-5.28436734 10.9837767 -5.28436734 10.9837767 -6 13 C-6.33 10.36 -6.66 7.72 -7 5 C-7.99 5.33 -8.98 5.66 -10 6 C-11.22969878 9.51190809 -11.22969878 9.51190809 -12 13 C-11.34 13 -10.68 13 -10 13 C-9.67 14.65 -9.34 16.3 -9 18 C-12.01264559 15.64637063 -12.92389342 14.45663946 -13.5625 10.625 C-12.82530613 5.87419505 -11.36513232 4.36513232 -8 1 C-5.09704195 -0.45147903 -3.22738221 -0.37239025 0 0 Z " fill="#1194AC" transform="translate(135,100)"/>
<path d="M0 0 C4.92951281 -0.12357051 9.85812532 -0.21432177 14.78881836 -0.2746582 C16.46606141 -0.29980792 18.1431948 -0.33393259 19.82006836 -0.37719727 C22.23058085 -0.4378346 24.63964552 -0.46620284 27.05078125 -0.48828125 C28.17592888 -0.52699089 28.17592888 -0.52699089 29.32380676 -0.56648254 C31.4465332 -0.56762695 31.4465332 -0.56762695 35 0 C36.99682617 2.53051758 36.99682617 2.53051758 38 5 C37.02685547 6.96411133 37.02685547 6.96411133 35 9 C32.07114291 9.41402193 29.50275333 9.58121385 26.5703125 9.57421875 C25.32929276 9.59546562 25.32929276 9.59546562 24.0632019 9.61714172 C21.4170033 9.65908525 18.77148427 9.6742796 16.125 9.6875 C13.4859758 9.71661927 10.84712162 9.75127318 8.20822144 9.78999329 C6.56663683 9.81235144 4.92494803 9.82824898 3.28323364 9.83683777 C-0.60835027 9.87330261 -4.19858182 10.04988263 -8 11 C-7.06518555 9.02441406 -7.06518555 9.02441406 -5 7 C-1.9925744 6.4094726 0.9886383 6.53600736 4.04296875 6.609375 C5.36836418 6.61786469 5.36836418 6.61786469 6.72053528 6.62652588 C9.54340743 6.64892133 12.36501138 6.69912273 15.1875 6.75 C17.10089313 6.77006094 19.01430615 6.78831242 20.92773438 6.8046875 C25.61897842 6.84879643 30.30927418 6.91784515 35 7 C34.505 4.525 34.505 4.525 34 2 C22.78 1.67 11.56 1.34 0 1 C0 0.67 0 0.34 0 0 Z " fill="#2C96AC" transform="translate(86,60)"/>
<path d="M0 0 C0 6.93 0 13.86 0 21 C0.66 21.33 1.32 21.66 2 22 C2 22.99 2 23.98 2 25 C2.66 25 3.32 25 4 25 C3.34 26.32 2.68 27.64 2 29 C1.34 29 0.68 29 0 29 C-0.268125 28.401875 -0.53625 27.80375 -0.8125 27.1875 C-1.86047309 24.94430723 -1.86047309 24.94430723 -3.6875 23.5625 C-4.120625 23.046875 -4.55375 22.53125 -5 22 C-4.625 19.375 -4.625 19.375 -4 17 C-4.33 16.67 -4.66 16.34 -5 16 C-5.09927286 14.0437407 -5.12969729 12.08377091 -5.125 10.125 C-5.12757812 9.05507812 -5.13015625 7.98515625 -5.1328125 6.8828125 C-5 4 -5 4 -4 1 C-1 0 -1 0 0 0 Z " fill="#0296B2" transform="translate(81,100)"/>
<path d="M0 0 C0.33 0 0.66 0 1 0 C1 25.41 1 50.82 1 77 C-5.6 77 -12.2 77 -19 77 C-19 76.34 -19 75.68 -19 75 C-13.06 75 -7.12 75 -1 75 C-0.67 50.25 -0.34 25.5 0 0 Z " fill="#288C9B" transform="translate(930,92)"/>
<path d="M0 0 C0.33 0 0.66 0 1 0 C1.02578125 0.89203125 1.0515625 1.7840625 1.078125 2.703125 C1.13484375 3.87359375 1.1915625 5.0440625 1.25 6.25 C1.29640625 7.41015625 1.3428125 8.5703125 1.390625 9.765625 C2.09486601 13.50351959 3.19718584 14.55594605 6 17 C6 17.66 6 18.32 6 19 C7.82337891 18.98259766 7.82337891 18.98259766 9.68359375 18.96484375 C11.26822764 18.95546722 12.85286318 18.94636687 14.4375 18.9375 C15.23994141 18.92912109 16.04238281 18.92074219 16.86914062 18.91210938 C18.91295221 18.9034857 20.95683902 18.9477185 23 19 C24 20 24 20 24.09765625 23.16015625 C24.08605469 24.44792969 24.07445312 25.73570313 24.0625 27.0625 C24.05347656 28.35285156 24.04445312 29.64320312 24.03515625 30.97265625 C24.02355469 31.97167969 24.01195312 32.97070312 24 34 C24.99 33.34 25.98 32.68 27 32 C27.66 31.67 28.32 31.34 29 31 C29 30.34 29 29.68 29 29 C30.65 29.33 32.3 29.66 34 30 C29.73756432 35.84562607 29.73756432 35.84562607 26.3125 36.5625 C24 36 24 36 22 33 C21.8046875 30.08203125 21.8046875 30.08203125 21.875 26.8125 C21.89304688 25.72582031 21.91109375 24.63914062 21.9296875 23.51953125 C21.95289063 22.68808594 21.97609375 21.85664062 22 21 C20.57107422 21.05220703 20.57107422 21.05220703 19.11328125 21.10546875 C17.85902344 21.13253906 16.60476562 21.15960938 15.3125 21.1875 C13.45044922 21.23970703 13.45044922 21.23970703 11.55078125 21.29296875 C7.73827708 20.9784057 6.02344274 20.2715533 3 18 C2.40574219 17.60167969 1.81148437 17.20335938 1.19921875 16.79296875 C-0.75408186 13.87256165 -0.31065509 10.69452827 -0.1875 7.3125 C-0.17396484 6.61060547 -0.16042969 5.90871094 -0.14648438 5.18554688 C-0.11120182 3.45670171 -0.05739583 1.72825235 0 0 Z " fill="#2B92A2" transform="translate(131,70)"/>
<path d="M0 0 C4.95 0 9.9 0 15 0 C15 0.33 15 0.66 15 1 C10.71 1 6.42 1 2 1 C2 6.28 2 11.56 2 17 C6.62 16.67 11.24 16.34 16 16 C17.17426264 18.34852528 17.11508173 19.73774065 17.09765625 22.3515625 C17.09443359 23.20234375 17.09121094 24.053125 17.08789062 24.9296875 C17.07951172 25.81914063 17.07113281 26.70859375 17.0625 27.625 C17.05798828 28.5221875 17.05347656 29.419375 17.04882812 30.34375 C17.03702591 32.56256648 17.02056155 34.78125018 17 37 C16.67 37 16.34 37 16 37 C16 31.06 16 25.12 16 19 C10.72 19 5.44 19 0 19 C0 12.73 0 6.46 0 0 Z " fill="#218EA2" transform="translate(895,72)"/>
<path d="M0 0 C0.33 0.99 0.66 1.98 1 3 C-1.61941217 4.74627478 -3.03824877 5.38722388 -6 6 C-5.67 7.32 -5.34 8.64 -5 10 C-5.66 10 -6.32 10 -7 10 C-7.33 10.99 -7.66 11.98 -8 13 C-10.0625 14.1875 -10.0625 14.1875 -12 15 C-13 12 -13 12 -13 10 C-15.71224618 11.61268692 -18.37352812 13.24901874 -21 15 C-18.41865024 9.14380354 -13.81642063 5.2694248 -8.02734375 2.66015625 C-5.36845731 1.69609549 -2.71164029 0.80252589 0 0 Z " fill="#1393A7" transform="translate(85,60)"/>
<path d="M0 0 C0.33 0 0.66 0 1 0 C1 2.97 1 5.94 1 9 C0.34 9 -0.32 9 -1 9 C-0.67 15.6 -0.34 22.2 0 29 C0.66 29.33 1.32 29.66 2 30 C1.67 32.31 1.34 34.62 1 37 C1.66 37 2.32 37 3 37 C3 38.65 3 40.3 3 42 C4.485 41.505 4.485 41.505 6 41 C6 42.32 6 43.64 6 45 C6.66 45 7.32 45 8 45 C8.66 47.97 9.32 50.94 10 54 C2.90606735 48.12217009 -0.4971122 38.93559585 -2 30 C-2.26876526 26.3282692 -2.28008275 22.68012306 -2.25 19 C-2.25773438 18.05382812 -2.26546875 17.10765625 -2.2734375 16.1328125 C-2.25759044 10.41202439 -1.63029609 5.48607574 0 0 Z " fill="#1D91A7" transform="translate(670,100)"/>
<path d="M0 0 C0 0.66 0 1.32 0 2 C-0.969375 2.2475 -1.93875 2.495 -2.9375 2.75 C-4.29471843 3.15661605 -5.64864624 3.57429882 -7 4 C-7.74507812 4.22171875 -8.49015625 4.4434375 -9.2578125 4.671875 C-15.51600658 6.92058202 -17.83063759 10.08205474 -20.80859375 15.953125 C-21.20175781 16.62859375 -21.59492187 17.3040625 -22 18 C-22.66 18 -23.32 18 -24 18 C-24.33 25.59 -24.66 33.18 -25 41 C-25.33 41 -25.66 41 -26 41 C-27.06391408 17.27962633 -27.06391408 17.27962633 -21 10 C-15.15365406 3.62772754 -8.95468611 -0.65522094 0 0 Z " fill="#1E8FA5" transform="translate(937,31)"/>
<path d="M0 0 C0.99 0 1.98 0 3 0 C1.67915553 5.61358901 -2.43687627 7.99594354 -7 11 C-9.59844604 12.29922302 -11.50210978 12.13416238 -14.41186523 12.14526367 C-15.54321396 12.15164352 -16.67456268 12.15802338 -17.8401947 12.16459656 C-19.06726639 12.16570938 -20.29433807 12.1668222 -21.55859375 12.16796875 C-23.44143822 12.17296135 -23.44143822 12.17296135 -25.36231995 12.17805481 C-28.02128638 12.18312549 -30.68015064 12.18589473 -33.33911133 12.18530273 C-36.74669304 12.1852011 -40.15406645 12.19885443 -43.56159878 12.21607494 C-46.81058939 12.22986554 -50.05957783 12.2292836 -53.30859375 12.23046875 C-55.14616493 12.24124702 -55.14616493 12.24124702 -57.02085876 12.25224304 C-58.72261009 12.2476281 -58.72261009 12.2476281 -60.45874023 12.24291992 C-61.45864487 12.24434494 -62.4585495 12.24576996 -63.48875427 12.24723816 C-66 12 -66 12 -69 10 C-67.90791985 10.00666183 -67.90791985 10.00666183 -66.79377747 10.01345825 C-59.92291702 10.05358016 -53.05207416 10.08400739 -46.18112659 10.10362434 C-42.64893904 10.11404876 -39.11684852 10.1281833 -35.5847168 10.15087891 C-31.52131229 10.17682394 -27.45800926 10.18648387 -23.39453125 10.1953125 C-21.49741142 10.21079636 -21.49741142 10.21079636 -19.56196594 10.22659302 C-17.79069588 10.22681961 -17.79069588 10.22681961 -15.98364258 10.22705078 C-14.94661697 10.231492 -13.90959137 10.23593323 -12.84114075 10.24050903 C-9.87068616 9.98905329 -7.69174685 9.24812854 -5 8 C-5 7.34 -5 6.68 -5 6 C-3.625 4.375 -3.625 4.375 -2 3 C-1.34 3 -0.68 3 0 3 C0 2.01 0 1.02 0 0 Z " fill="#1B95AC" transform="translate(156,126)"/>
<path d="M0 0 C0.33 0 0.66 0 1 0 C1.33 1.65 1.66 3.3 2 5 C2.66 5 3.32 5 4 5 C4 6.32 4 7.64 4 9 C8.62 9 13.24 9 18 9 C18 9.99 18 10.98 18 12 C10.41 12 2.82 12 -5 12 C-1 2 -1 2 0 0 Z " fill="#1B94A7" transform="translate(994,199)"/>
<path d="M0 0 C0.66 0.33 1.32 0.66 2 1 C2.33 7.6 2.66 14.2 3 21 C3.99 21 4.98 21 6 21 C6 22.32 6 23.64 6 25 C5.34 25 4.68 25 4 25 C4 25.66 4 26.32 4 27 C3.34 27 2.68 27 2 27 C2 26.34 2 25.68 2 25 C0.68 25.33 -0.64 25.66 -2 26 C-2 25.34 -2 24.68 -2 24 C-3.65 24 -5.3 24 -7 24 C-7.33 23.34 -7.66 22.68 -8 22 C-5.36 22 -2.72 22 0 22 C0 14.74 0 7.48 0 0 Z " fill="#1D96AE" transform="translate(185,108)"/>
<path d="M0 0 C3.78010855 1.49192754 5.49429699 3.58559193 7.8125 6.875 C8.43769531 7.73867187 9.06289063 8.60234375 9.70703125 9.4921875 C11 12 11 12 10.828125 14.2421875 C9.71465959 16.60567541 8.38247165 17.07775291 6 18 C4.9375 16.1875 4.9375 16.1875 4 14 C4.33 13.01 4.66 12.02 5 11 C4.34 10.67 3.68 10.34 3 10 C3.66 8.68 4.32 7.36 5 6 C4.34 6 3.68 6 3 6 C2.67 5.01 2.34 4.02 2 3 C0.05925139 3.27617533 0.05925139 3.27617533 -2 4 C-2.99 5.485 -2.99 5.485 -4 7 C-6.4375 8.25 -6.4375 8.25 -9 9 C-9.99 8.67 -10.98 8.34 -12 8 C-11.21753906 7.50628906 -10.43507813 7.01257813 -9.62890625 6.50390625 C-8.61699219 5.86324219 -7.60507812 5.22257813 -6.5625 4.5625 C-5.55316406 3.92441406 -4.54382813 3.28632813 -3.50390625 2.62890625 C-1.15446165 1.22350458 -1.15446165 1.22350458 0 0 Z " fill="#1194AD" transform="translate(528,141)"/>
<path d="M0 0 C3.45925163 1.2491742 6.14693203 2.67527795 9 5 C8.49487476 11.22987798 5.67395877 16.45474233 3 22 C0.36 20.68 -2.28 19.36 -5 18 C-1 16 -1 16 1.25 16.375 C2.11625 16.684375 2.11625 16.684375 3 17 C3.71660695 12.30224334 4.23048303 8.64849145 3 4 C3 3.34 3 2.68 3 2 C2.01 2 1.02 2 0 2 C0 1.34 0 0.68 0 0 Z " fill="#1593A9" transform="translate(951,33)"/>
<path d="M0 0 C4.073417 0.23961276 6.5347378 0.68322574 9.9375 3 C12.34287183 6.49872266 12.85870763 8.58325837 12.61328125 12.76953125 C11.66295426 16.22581603 9.85488914 17.94351093 7.0234375 20.046875 C3.8140896 21.55861417 1.31204259 20.94629788 -2 20 C-2 19.67 -2 19.34 -2 19 C-0.02 19 1.96 19 4 19 C4 18.34 4 17.68 4 17 C4.66 16.67 5.32 16.34 6 16 C5.67 15.01 5.34 14.02 5 13 C6.32 13 7.64 13 9 13 C10.26221698 11.95420381 10.26221698 11.95420381 10.1875 9.625 C10.20048548 6.76555137 10.20048548 6.76555137 8 4 C6.33499557 3.65846063 4.66821323 3.32550502 3 3 C1.1875 1.4375 1.1875 1.4375 0 0 Z M1 13 C2.98 13.99 2.98 13.99 5 15 C3.68 15.33 2.36 15.66 1 16 C1 15.01 1 14.02 1 13 Z " fill="#1993A6" transform="translate(98,100)"/>
<path d="M0 0 C6.6 0 13.2 0 20 0 C20 1.32 20 2.64 20 4 C19.34 3.34 18.68 2.68 18 2 C12.39 1.67 6.78 1.34 1 1 C1 18.16 1 35.32 1 53 C-1 51 -1 51 -1.20254517 48.82333374 C-1.18033905 47.92176544 -1.15813293 47.02019714 -1.13525391 46.09130859 C-1.11508209 45.07040131 -1.09491028 44.04949402 -1.0741272 42.99765015 C-1.04193085 41.89240997 -1.0097345 40.7871698 -0.9765625 39.6484375 C-0.95153656 38.5192691 -0.92651062 37.39010071 -0.90072632 36.22671509 C-0.81835115 32.60917922 -0.7218287 28.99217511 -0.625 25.375 C-0.5667784 22.92710527 -0.50947476 20.47918853 -0.453125 18.03125 C-0.31274605 12.02052579 -0.15967563 6.01024131 0 0 Z " fill="#2892A6" transform="translate(746,30)"/>
<path d="M0 0 C2.33944736 0.28730055 4.6739143 0.61936779 7 1 C7 2.32 7 3.64 7 5 C10.96 5.33 14.92 5.66 19 6 C18.67 6.66 18.34 7.32 18 8 C15.39555652 8.05394705 12.79223002 8.09364469 10.1875 8.125 C9.44951172 8.14175781 8.71152344 8.15851563 7.95117188 8.17578125 C4.08753574 8.21074628 2.29096332 8.19397555 -1 6 C-1.25 3.4375 -1.25 3.4375 -1 1 C-0.67 0.67 -0.34 0.34 0 0 Z " fill="#1C94A8" transform="translate(135,189)"/>
<path d="M0 0 C0.99 0 1.98 0 3 0 C3.33 2.64 3.66 5.28 4 8 C5.32 8.33 6.64 8.66 8 9 C6.75 11 6.75 11 5 13 C3.68 13 2.36 13 1 13 C0.67 11.35 0.34 9.7 0 8 C-0.66 8 -1.32 8 -2 8 C-1.125 1.125 -1.125 1.125 0 0 Z " fill="#0396B2" transform="translate(125,105)"/>
<path d="M0 0 C2.94194821 2.73905523 5.33889284 5.30865076 7 9 C6.35843534 12.42167821 4.06258537 13.80532441 1.375 15.75 C0.2556547 16.50841355 -0.8676025 17.26121661 -2 18 C-2.66 17.67 -3.32 17.34 -4 17 C-3.34 15.02 -2.68 13.04 -2 11 C-0.02 10.67 1.96 10.34 4 10 C4 9.34 4 8.68 4 8 C2.68 7.67 1.36 7.34 0 7 C0 4.69 0 2.38 0 0 Z " fill="#1791A6" transform="translate(869,145)"/>
<path d="M0 0 C1 3 1 3 0 6 C-0.06937062 8.22818441 -0.08457084 10.45834524 -0.0625 12.6875 C-0.05347656 13.86699219 -0.04445313 15.04648438 -0.03515625 16.26171875 C-0.02355469 17.16535156 -0.01195313 18.06898437 0 19 C0.66 19.33 1.32 19.66 2 20 C1.835 20.78375 1.67 21.5675 1.5 22.375 C0.9376293 24.88208039 0.9376293 24.88208039 1 27 C2.32 27.66 3.64 28.32 5 29 C5 29.99 5 30.98 5 32 C5.99 32.33 6.98 32.66 8 33 C9.1875 35.5625 9.1875 35.5625 10 38 C7.00379332 36.67051435 5.03127413 35.27923245 2.875 32.8125 C2.37742187 32.26207031 1.87984375 31.71164063 1.3671875 31.14453125 C-2.14028511 25.64280993 -2.31684494 19.68070622 -2.25 13.375 C-2.25773437 12.63765625 -2.26546875 11.9003125 -2.2734375 11.140625 C-2.2585497 6.98692885 -1.85899333 3.73274057 0 0 Z " fill="#2592A5" transform="translate(76,97)"/>
<path d="M0 0 C2.375 0.6875 2.375 0.6875 3.375 1.6875 C3.5625 4.125 3.5625 4.125 3.375 6.6875 C1.375 8.6875 1.375 8.6875 -1.125 8.9375 C-3.625 8.6875 -3.625 8.6875 -5.625 6.6875 C-5.9375 4.1875 -5.9375 4.1875 -5.625 1.6875 C-2.625 -0.3125 -2.625 -0.3125 0 0 Z " fill="#288CA1" transform="translate(111.625,188.3125)"/>
<path d="M0 0 C0.33 0 0.66 0 1 0 C1.08160748 1.89510699 1.13946459 3.79124504 1.1875 5.6875 C1.22230469 6.74324219 1.25710937 7.79898438 1.29296875 8.88671875 C0.79442805 14.18454459 -2.06951446 17.57667388 -6 21 C-6.66 21 -7.32 21 -8 21 C-8 19.35 -8 17.7 -8 16 C-9.32 15.34 -10.64 14.68 -12 14 C-10.35 12.68 -8.7 11.36 -7 10 C-7 11.32 -7 12.64 -7 14 C-6.01 14 -5.02 14 -4 14 C-3.67 13.01 -3.34 12.02 -3 11 C-2.34 10.01 -1.68 9.02 -1 8 C-0.54860541 5.9507906 -0.54860541 5.9507906 -0.375 3.8125 C-0.25125 2.554375 -0.1275 1.29625 0 0 Z " fill="#1393AA" transform="translate(176,138)"/>
<path d="M0 0 C1.31223496 3.93670488 0.24296256 6.12488144 -1 10 C-0.34 10 0.32 10 1 10 C0.67 11.32 0.34 12.64 0 14 C-0.66 14 -1.32 14 -2 14 C-1.67 16.64 -1.34 19.28 -1 22 C-1.99 21.67 -2.98 21.34 -4 21 C-3.835 21.99 -3.67 22.98 -3.5 24 C-2.91525483 28.02732942 -2.92867976 31.93474623 -3 36 C-3.33 36 -3.66 36 -4 36 C-5.43139791 27.59053728 -5.15526686 20.03347016 -3.625 11.6875 C-3.49899414 10.99342041 -3.37298828 10.29934082 -3.24316406 9.58422852 C-2.56664416 6.11179187 -1.80857661 3.05885349 0 0 Z " fill="#228DA2" transform="translate(453,96)"/>
<path d="M0 0 C0.66 0 1.32 0 2 0 C2.02578125 1.30195312 2.0515625 2.60390625 2.078125 3.9453125 C2.13442701 5.67190756 2.19177387 7.39846876 2.25 9.125 C2.26417969 9.9809375 2.27835937 10.836875 2.29296875 11.71875 C2.50646964 17.26977307 3.31075134 20.59492697 7 25 C9.10575643 26.83300909 9.10575643 26.83300909 11 28 C7.625 28.125 7.625 28.125 4 28 C3.34 27.34 2.68 26.68 2 26 C2.66 25.01 3.32 24.02 4 23 C3.34 23 2.68 23 2 23 C2 22.01 2 21.02 2 20 C1.01 19.67 0.02 19.34 -1 19 C-0.67 12.73 -0.34 6.46 0 0 Z " fill="#1A8FA6" transform="translate(81,102)"/>
<path d="M0 0 C3.125 0.375 3.125 0.375 6 1 C6.625 3.875 6.625 3.875 7 7 C5 9 5 9 2.5 9.25 C0 9 0 9 -2 7 C-2.25 4.5 -2.25 4.5 -2 2 C-1.34 1.34 -0.68 0.68 0 0 Z " fill="#258DA0" transform="translate(121,188)"/>
<path d="M0 0 C0 0.99 0 1.98 0 3 C-0.66 3.66 -1.32 4.32 -2 5 C-2.433125 6.155 -2.86625 7.31 -3.3125 8.5 C-5.29206157 12.60575732 -6.00990988 12.46534995 -10 14 C-11.31357916 16.68529342 -11.31357916 16.68529342 -12 20 C-12.18433594 20.71671875 -12.36867188 21.4334375 -12.55859375 22.171875 C-13.05689281 24.11008653 -13.53042772 26.05462914 -14 28 C-14.66 27.67 -15.32 27.34 -16 27 C-14.34857537 15.80701081 -8.35054287 7.43680566 0 0 Z " fill="#1C8DA9" transform="translate(803,79)"/>
<path d="M0 0 C0.66 0 1.32 0 2 0 C1.855625 0.60585937 1.71125 1.21171875 1.5625 1.8359375 C-0.76299595 12.33296784 -1.51941213 23.37990322 4.1875 32.9375 C4.785625 33.948125 5.38375 34.95875 6 36 C5.67 36.66 5.34 37.32 5 38 C0.68083614 34.29785955 -1.10912959 29.48866335 -2 24 C-2.21008434 20.45999063 -2.18508468 16.92068793 -2.1875 13.375 C-2.19974609 12.42109375 -2.21199219 11.4671875 -2.22460938 10.484375 C-2.22654297 9.56914063 -2.22847656 8.65390625 -2.23046875 7.7109375 C-2.23457764 6.87868652 -2.23868652 6.04643555 -2.24291992 5.18896484 C-2 3 -2 3 0 0 Z " fill="#2190A3" transform="translate(281,104)"/>
<path d="M0 0 C3.79152334 -0.0867982 7.58279296 -0.14032207 11.375 -0.1875 C12.99535156 -0.22520508 12.99535156 -0.22520508 14.6484375 -0.26367188 C15.6796875 -0.27333984 16.7109375 -0.28300781 17.7734375 -0.29296875 C18.72653809 -0.3086792 19.67963867 -0.32438965 20.66162109 -0.34057617 C21.81911865 -0.17199097 21.81911865 -0.17199097 23 0 C23.66 0.99 24.32 1.98 25 3 C24.67 3.99 24.34 4.98 24 6 C23.67 4.68 23.34 3.36 23 2 C16.07 2 9.14 2 2 2 C2 2.66 2 3.32 2 4 C2.99 4.33 3.98 4.66 5 5 C4.01 5.66 3.02 6.32 2 7 C0.5393715 4.35261084 0 3.10551666 0 0 Z " fill="#2396AC" transform="translate(961,70)"/>
<path d="M0 0 C0.66 0 1.32 0 2 0 C1.62951193 2.5934165 0.94398898 4.08065587 -0.5625 6.25 C-4.17209103 8.84150125 -6.60920968 8.35409599 -11 8 C-11.66 7.67 -12.32 7.34 -13 7 C-12.67 5.35 -12.34 3.7 -12 2 C-10.68 2 -9.36 2 -8 2 C-8 2.66 -8 3.32 -8 4 C-6.68 3.67 -5.36 3.34 -4 3 C-4 3.66 -4 4.32 -4 5 C-3.34 5 -2.68 5 -2 5 C-2 4.34 -2 3.68 -2 3 C-1.34 3 -0.68 3 0 3 C0 2.01 0 1.02 0 0 Z " fill="#0D92AA" transform="translate(191,130)"/>
<path d="M0 0 C0 1.65 0 3.3 0 5 C3.04913228 6.01111093 3.04913228 6.01111093 6 5 C6.33 5.99 6.66 6.98 7 8 C6.01 8 5.02 8 4 8 C4 8.66 4 9.32 4 10 C-1.42857143 10.36190476 -1.42857143 10.36190476 -3.875 8.8125 C-5.39684676 6.36063578 -5.43566323 4.83181098 -5 2 C-2 0 -2 0 0 0 Z " fill="#0495B4" transform="translate(98,109)"/>
<path d="M0 0 C1.5625 1.75 1.5625 1.75 3 4 C2.6875 6.25 2.6875 6.25 2 8 C1.34 7.67 0.68 7.34 0 7 C0.66 8.98 1.32 10.96 2 13 C-1.88862987 11.73882275 -3.89375599 10.54735833 -6 7 C-6 6.34 -6 5.68 -6 5 C-4.68 5 -3.36 5 -2 5 C-2 4.01 -2 3.02 -2 2 C-1.34 1.34 -0.68 0.68 0 0 Z " fill="#1593A8" transform="translate(67,146)"/>
<path d="M0 0 C2.97 0.495 2.97 0.495 6 1 C6 1.66 6 2.32 6 3 C9.75960806 6.75960806 12.75900345 7.58894145 18 8 C18.33 8.99 18.66 9.98 19 11 C19.66 11 20.32 11 21 11 C21 11.66 21 12.32 21 13 C12.66942342 10.75488007 5.00588566 7.28844359 0 0 Z M19 7 C19.99 7.495 19.99 7.495 21 8 C20.01 8.495 20.01 8.495 19 9 C19 8.34 19 7.68 19 7 Z " fill="#1A92A5" transform="translate(799,155)"/>
<path d="M0 0 C0.66 0 1.32 0 2 0 C2 1.32 2 2.64 2 4 C4.475 4.99 4.475 4.99 7 6 C6.34 6.66 5.68 7.32 5 8 C4.74951397 10.13767051 4.59588224 12.28734069 4.5 14.4375 C4.22155689 20.66766467 4.22155689 20.66766467 2 24 C1.93941406 22.68644531 1.87882812 21.37289062 1.81640625 20.01953125 C1.73196744 18.28384459 1.64732112 16.54816802 1.5625 14.8125 C1.52318359 13.94818359 1.48386719 13.08386719 1.44335938 12.19335938 C1.23652984 8.04085878 0.99896469 4.05462138 0 0 Z " fill="#1F8FA5" transform="translate(335,104)"/>
<path d="M0 0 C4.95 0 9.9 0 15 0 C15 0.33 15 0.66 15 1 C11.7 1.33 8.4 1.66 5 2 C4.34 3.65 3.68 5.3 3 7 C1.35 6.67 -0.3 6.34 -2 6 C-1.49396008 3.83125748 -1.00016187 2.00032373 0 0 Z " fill="#03B8C7" transform="translate(82,188)"/>
<path d="M0 0 C-1.74807129 5.46737191 -3.65794081 10.75824848 -6 16 C-6.33 16 -6.66 16 -7 16 C-7.33 13.69 -7.66 11.38 -8 9 C-7.34 8.67 -6.68 8.34 -6 8 C-6.0928125 6.8553125 -6.0928125 6.8553125 -6.1875 5.6875 C-6 3 -6 3 -4.6875 1.1875 C-3 0 -3 0 0 0 Z " fill="#1491AA" transform="translate(1064,80)"/>
<path d="M0 0 C0.33 0 0.66 0 1 0 C0.49540386 4.28906722 -0.05649073 8.11298145 -2 12 C-2.99 12.495 -2.99 12.495 -4 13 C-4 13.66 -4 14.32 -4 15 C-5.63790712 16.04644066 -7.31008021 17.0398183 -9 18 C-9.70125 18.5775 -10.4025 19.155 -11.125 19.75 C-11.74375 20.1625 -12.3625 20.575 -13 21 C-13.99 20.67 -14.98 20.34 -16 20 C-15.46890625 19.62488281 -14.9378125 19.24976563 -14.390625 18.86328125 C-7.01853153 13.5225493 -3.42920422 8.37236563 0 0 Z " fill="#228FA2" transform="translate(336,129)"/>
<path d="M0 0 C2.31566913 4.63133825 2.27250999 6.07962803 1 11 C-0.86491706 14.11747329 -2.82771389 16.55643228 -6.3125 17.875 C-6.869375 17.91625 -7.42625 17.9575 -8 18 C-7.67 16.35 -7.34 14.7 -7 13 C-6.360625 12.87625 -5.72125 12.7525 -5.0625 12.625 C-4.381875 12.41875 -3.70125 12.2125 -3 12 C-2.67 11.34 -2.34 10.68 -2 10 C-1.34 10 -0.68 10 0 10 C0 6.7 0 3.4 0 0 Z " fill="#198EA6" transform="translate(59,59)"/>
<path d="M0 0 C0.66 0 1.32 0 2 0 C-0.27435204 7.18216433 -3.03584181 14.0758202 -6 21 C-7.04296875 19.11328125 -7.04296875 19.11328125 -8 17 C-7.3125 15.1875 -7.3125 15.1875 -6 13 C-5.44397121 11.75632208 -4.9030911 10.50579559 -4.375 9.25 C-3.92125 8.1775 -3.4675 7.105 -3 6 C-2.34 6 -1.68 6 -1 6 C-0.67 4.02 -0.34 2.04 0 0 Z " fill="#1C90A7" transform="translate(1034,148)"/>
<path d="M0 0 C1.13665504 3.40996511 0.91583208 3.86305848 -0.43359375 7.01171875 C-0.75263672 7.76904297 -1.07167969 8.52636719 -1.40039062 9.30664062 C-1.74263672 10.09232422 -2.08488281 10.87800781 -2.4375 11.6875 C-2.77587891 12.48478516 -3.11425781 13.28207031 -3.46289062 14.10351562 C-4.3000701 16.07265607 -5.1489353 18.03682084 -6 20 C-7.27645823 16.17062532 -6.40385598 14.05424303 -5.375 10.25390625 C-4.97108948 7.82623575 -5.23983611 6.31744409 -6 4 C-4.68 4 -3.36 4 -2 4 C-1.34 2.68 -0.68 1.36 0 0 Z " fill="#1993A8" transform="translate(1056,96)"/>
<path d="M0 0 C0.66 0.33 1.32 0.66 2 1 C0.33846988 6.85659906 -1.47041916 12.4590134 -4 18 C-5.17571451 14.32589215 -5.07366746 10.83070817 -5 7 C-4.34 7 -3.68 7 -3 7 C-3 6.34 -3 5.68 -3 5 C-2.01 5 -1.02 5 0 5 C0 3.35 0 1.7 0 0 Z " fill="#1A92A6" transform="translate(1047,115)"/>
<path d="M0 0 C1.98 0 3.96 0 6 0 C5.278125 0.66 4.55625 1.32 3.8125 2 C-0.48317271 6.2834691 -3.35857007 11.58446559 -6 17 C-6 14.69 -6 12.38 -6 10 C-5.34 10 -4.68 10 -4 10 C-4.04125 9.21625 -4.0825 8.4325 -4.125 7.625 C-4 5 -4 5 -2 3 C-1.01 3 -0.02 3 1 3 C0.67 2.01 0.34 1.02 0 0 Z " fill="#1D90A3" transform="translate(589,90)"/>
<path d="M0 0 C-1.28519565 2.86697492 -2.57129254 4.97607712 -5 7 C-5.66 7 -6.32 7 -7 7 C-7 7.66 -7 8.32 -7 9 C-8.65 8.67 -10.3 8.34 -12 8 C-4.43243243 0 -4.43243243 0 0 0 Z " fill="#1293A9" transform="translate(695,73)"/>
<path d="M0 0 C0.99 0 1.98 0 3 0 C1.86062202 4.84235642 -0.94300282 7.00620859 -4.82421875 9.7734375 C-7.95544381 11.53861644 -10.43254813 11.85135617 -14 12 C-11.06279492 10.47700477 -8.0831351 9.19899698 -5 8 C-5 7.34 -5 6.68 -5 6 C-3.625 4.375 -3.625 4.375 -2 3 C-1.34 3 -0.68 3 0 3 C0 2.01 0 1.02 0 0 Z " fill="#188DA0" transform="translate(156,126)"/>
<path d="M0 0 C2.625 0.9375 2.625 0.9375 5 2 C5.4726477 10.19256018 5.4726477 10.19256018 3.5 13.5625 C3.005 14.036875 2.51 14.51125 2 15 C1.375 13.1875 1.375 13.1875 1 11 C1.66 10.01 2.32 9.02 3 8 C3.16699232 4.87478167 3.16699232 4.87478167 3 2 C-0.72614153 3.11854586 -0.72614153 3.11854586 -3 6 C-2.625 3.5625 -2.625 3.5625 -2 1 C-1.34 0.67 -0.68 0.34 0 0 Z " fill="#2692A8" transform="translate(157,111)"/>
<path d="M0 0 C6 7.71428571 6 7.71428571 6 12 C6.66 12 7.32 12 8 12 C8 12.66 8 13.32 8 14 C8.66 14 9.32 14 10 14 C10.33 15.65 10.66 17.3 11 19 C5.26788359 13.75920786 0.60034929 8.00465726 0 0 Z " fill="#228FA2" transform="translate(788,136)"/>
<path d="M0 0 C2.99324263 1.0975223 3.84610901 1.67682892 5.25 4.625 C5.4975 5.40875 5.745 6.1925 6 7 C5.01 6.67 4.02 6.34 3 6 C2.67 5.01 2.34 4.02 2 3 C0.05925139 3.27617533 0.05925139 3.27617533 -2 4 C-2.99 5.485 -2.99 5.485 -4 7 C-6.4375 8.25 -6.4375 8.25 -9 9 C-9.99 8.67 -10.98 8.34 -12 8 C-11.21753906 7.50628906 -10.43507813 7.01257813 -9.62890625 6.50390625 C-8.61699219 5.86324219 -7.60507812 5.22257813 -6.5625 4.5625 C-5.55316406 3.92441406 -4.54382813 3.28632813 -3.50390625 2.62890625 C-1.15446165 1.22350458 -1.15446165 1.22350458 0 0 Z " fill="#2590A1" transform="translate(528,141)"/>
<path d="M0 0 C0.33 0.66 0.66 1.32 1 2 C0.67 2.763125 0.34 3.52625 0 4.3125 C-1.19335323 7.51963682 -0.83762105 8.72566317 0 12 C0.37747588 14.66219829 0.68317767 17.32964035 1 20 C-2 18 -2 18 -3 15 C-3.50156459 9.30917105 -3.7258549 4.65731863 0 0 Z " fill="#1E93A6" transform="translate(37,54)"/>
<path d="M0 0 C-3.58282235 2.38854824 -5.31393033 2.26898802 -9.5625 2.25 C-11.29693359 2.25773438 -11.29693359 2.25773438 -13.06640625 2.265625 C-16 2 -16 2 -18 0 C-15.75067773 -0.1954625 -13.50049858 -0.38108226 -11.25 -0.5625 C-9.99703125 -0.66691406 -8.7440625 -0.77132812 -7.453125 -0.87890625 C-4.60547636 -0.97876723 -2.65713933 -0.90584295 0 0 Z " fill="#2492A6" transform="translate(320,151)"/>
<path d="M0 0 C2.25597827 2.25597827 2.96574192 4.04603867 4.125 7 C4.47820313 7.886875 4.83140625 8.77375 5.1953125 9.6875 C6 12 6 12 6 14 C5.34 14 4.68 14 4 14 C3.67 12.02 3.34 10.04 3 8 C2.01 8.33 1.02 8.66 0 9 C0 8.34 0 7.68 0 7 C-0.66 6.67 -1.32 6.34 -2 6 C-1.34 4.02 -0.68 2.04 0 0 Z " fill="#1993A9" transform="translate(1004,118)"/>
<path d="M0 0 C1.65 0.33 3.3 0.66 5 1 C1.91709845 5.22797927 1.91709845 5.22797927 0 7 C-2.8125 7.375 -2.8125 7.375 -5 7 C-5 6.01 -5 5.02 -5 4 C-4.01 3.67 -3.02 3.34 -2 3 C-1.34 2.67 -0.68 2.34 0 2 C0 1.34 0 0.68 0 0 Z " fill="#1790A7" transform="translate(160,99)"/>
<path d="M0 0 C-1.16290805 3.48872415 -2.13967609 4.09976864 -5.0625 6.1875 C-5.79597656 6.71730469 -6.52945312 7.24710938 -7.28515625 7.79296875 C-7.85105469 8.19128906 -8.41695313 8.58960938 -9 9 C-9.66 8.67 -10.32 8.34 -11 8 C-8.25 3.125 -8.25 3.125 -6 2 C-3 0 -3 0 0 0 Z " fill="#1990A4" transform="translate(335,156)"/>
<path d="M0 0 C1.31223496 3.93670488 0.24296256 6.12488144 -1 10 C-0.34 10 0.32 10 1 10 C0.6875 11.9375 0.6875 11.9375 0 14 C-0.99 14.33 -1.98 14.66 -3 15 C-3.36263859 9.1977825 -2.25684543 5.36000789 0 0 Z " fill="#1892AA" transform="translate(453,96)"/>
<path d="M0 0 C1.32 0.66 2.64 1.32 4 2 C2.33333333 5.33333333 0.66666667 8.66666667 -1 12 C-1 11.01 -1 10.02 -1 9 C-1.99 8.67 -2.98 8.34 -4 8 C-3.67 6.35 -3.34 4.7 -3 3 C-2.01 3.33 -1.02 3.66 0 4 C0 2.68 0 1.36 0 0 Z " fill="#1292A9" transform="translate(68,76)"/>
<path d="M0 0 C1.49337756 2.32303176 2.11386938 3.4306531 1.5625 6.1875 C-0.84378566 8.97879137 -3.46102665 8.73785383 -7 9 C-6.02180976 7.68677212 -5.0424189 6.37443848 -4.0625 5.0625 C-3.51722656 4.33160156 -2.97195313 3.60070312 -2.41015625 2.84765625 C-1 1 -1 1 0 0 Z " fill="#1596AD" transform="translate(741,139)"/>
<path d="M0 0 C1.670625 0.061875 1.670625 0.061875 3.375 0.125 C2.6325 0.681875 1.89 1.23875 1.125 1.8125 C-1.55041152 4.06227787 -3.51175275 6.3559174 -5.625 9.125 C-6.285 9.785 -6.945 10.445 -7.625 11.125 C-7.34258359 9.66484709 -7.04873386 8.20690207 -6.75 6.75 C-6.58757812 5.93789062 -6.42515625 5.12578125 -6.2578125 4.2890625 C-5.11805873 0.39138603 -4.02462638 0.13878022 0 0 Z " fill="#1B90A0" transform="translate(479.625,89.875)"/>
<path d="M0 0 C3 1 3 1 4 3 C4.61875 3.268125 5.2375 3.53625 5.875 3.8125 C9.20208538 5.67175359 10.34309083 8.68618166 12 12 C8.16780823 10.43873668 5.82638778 7.97133075 3 5 C2.401875 4.443125 1.80375 3.88625 1.1875 3.3125 C0 2 0 2 0 0 Z " fill="#1D91A4" transform="translate(269,151)"/>
<path d="M0 0 C0.99 0.66 1.98 1.32 3 2 C2.67 3.32 2.34 4.64 2 6 C-0.64 6 -3.28 6 -6 6 C-6 5.01 -6 4.02 -6 3 C-4.68 2.67 -3.36 2.34 -2 2 C-2 2.99 -2 3.98 -2 5 C-1.01 5 -0.02 5 1 5 C0.67 3.35 0.34 1.7 0 0 Z " fill="#1491AB" transform="translate(153,189)"/>
<path d="M0 0 C1 2 1 2 0.44140625 3.9453125 C0.15136719 4.66460937 -0.13867188 5.38390625 -0.4375 6.125 C-0.72496094 6.84945312 -1.01242188 7.57390625 -1.30859375 8.3203125 C-1.53675781 8.87460938 -1.76492187 9.42890625 -2 10 C-2.66 10 -3.32 10 -4 10 C-4.33 11.65 -4.66 13.3 -5 15 C-6.04537095 12.29840881 -6.08156212 11.21584123 -5.0390625 8.45703125 C-4.57242188 7.58433594 -4.10578125 6.71164063 -3.625 5.8125 C-3.16351563 4.93207031 -2.70203125 4.05164063 -2.2265625 3.14453125 C-1 1 -1 1 0 0 Z " fill="#2092A8" transform="translate(67,171)"/>
<path d="M0 0 C0.99 0.33 1.98 0.66 3 1 C3 1.66 3 2.32 3 3 C1.7934375 3.433125 1.7934375 3.433125 0.5625 3.875 C-2.1326468 4.73262568 -2.1326468 4.73262568 -3 7 C-4.32 6.34 -5.64 5.68 -7 5 C-5.90554162 4.13342884 -4.79902219 3.28207276 -3.6875 2.4375 C-3.07261719 1.96183594 -2.45773437 1.48617187 -1.82421875 0.99609375 C-1.22222656 0.66738281 -0.62023437 0.33867187 0 0 Z " fill="#1B91A2" transform="translate(865,141)"/>
<path d="M0 0 C0.66 0.33 1.32 0.66 2 1 C1.195625 1.886875 0.39125 2.77375 -0.4375 3.6875 C-2.7039159 6.38287032 -3.68417366 8.42063478 -4 12 C-3.34 12 -2.68 12 -2 12 C-1.67 13.65 -1.34 15.3 -1 17 C-4.01264559 14.64637063 -4.92389342 13.45663946 -5.5625 9.625 C-4.83271916 4.92196795 -3.277931 3.35987928 0 0 Z " fill="#2B8FA0" transform="translate(127,101)"/>
<path d="M0 0 C1.77108948 1.12459671 3.54186236 2.24969203 5.3125 3.375 C6.29863281 4.00148437 7.28476562 4.62796875 8.30078125 5.2734375 C10.21287929 6.49651613 12.1114034 7.7409356 14 9 C11.03 8.67 8.06 8.34 5 8 C5 7.34 5 6.68 5 6 C4.01 6 3.02 6 2 6 C1.34 4.02 0.68 2.04 0 0 Z " fill="#1D91A6" transform="translate(287,142)"/>
<path d="M0 0 C0.99 0.495 0.99 0.495 2 1 C2 2.65 2 4.3 2 6 C2.66 6.33 3.32 6.66 4 7 C3.47731534 9.76276177 2.89130413 12.3260876 2 15 C-0.10428384 9.87080814 -0.21755666 5.4389165 0 0 Z " fill="#1393AC" transform="translate(450,126)"/>
<path d="M0 0 C0.99 0.33 1.98 0.66 3 1 C0.525 6.94 0.525 6.94 -2 13 C-2.33 13 -2.66 13 -3 13 C-2.88652381 11.02013918 -2.7589065 9.04108402 -2.625 7.0625 C-2.55539062 5.96035156 -2.48578125 4.85820313 -2.4140625 3.72265625 C-2.27742187 2.82417969 -2.14078125 1.92570312 -2 1 C-1.34 0.67 -0.68 0.34 0 0 Z " fill="#1991A7" transform="translate(692,97)"/>
<path d="M0 0 C0.33 0 0.66 0 1 0 C1.33 3.3 1.66 6.6 2 10 C0.35 10.33 -1.3 10.66 -3 11 C-2.44894091 7.0507432 -1.61064629 3.65079826 0 0 Z " fill="#1792A7" transform="translate(1036,91)"/>
<path d="M0 0 C2.64 0.33 5.28 0.66 8 1 C8.73080266 2.97746603 9.39421747 4.98072489 10 7 C9.67 7.66 9.34 8.32 9 9 C8.443125 8.2575 7.88625 7.515 7.3125 6.75 C5.06972822 4.08292005 2.77925025 2.08443768 0 0 Z " fill="#188FA0" transform="translate(510,89)"/>
<path d="M0 0 C1.65 0 3.3 0 5 0 C5.33 1.65 5.66 3.3 6 5 C4.02 5 2.04 5 0 5 C0 3.35 0 1.7 0 0 Z " fill="#0495B1" transform="translate(108,190)"/>
<path d="M0 0 C0.33 0 0.66 0 1 0 C1.08160748 1.89510699 1.13946459 3.79124504 1.1875 5.6875 C1.22230469 6.74324219 1.25710937 7.79898438 1.29296875 8.88671875 C0.96666615 12.35422768 -0.00969875 14.18432448 -2 17 C-2.33 15.68 -2.66 14.36 -3 13 C-2.34 13 -1.68 13 -1 13 C-0.67 8.71 -0.34 4.42 0 0 Z " fill="#2395A6" transform="translate(176,138)"/>
<path d="M0 0 C0.66 0 1.32 0 2 0 C2.433125 0.94875 2.86625 1.8975 3.3125 2.875 C4.79302201 6.20041937 4.79302201 6.20041937 8 8 C7.34 9.32 6.68 10.64 6 12 C4.99157547 10.56839732 3.99352109 9.12948547 3 7.6875 C2.1646875 6.48673828 2.1646875 6.48673828 1.3125 5.26171875 C0 3 0 3 0 0 Z " fill="#1C8BA5" transform="translate(453,141)"/>
<path d="M0 0 C1.875 0.125 1.875 0.125 4 1 C5.25 4.0625 5.25 4.0625 6 7 C3.69 6.34 1.38 5.68 -1 5 C-0.67 3.35 -0.34 1.7 0 0 Z " fill="#0C94A8" transform="translate(467,130)"/>
<path d="M0 0 C0.99 0.495 0.99 0.495 2 1 C2 2.98 2 4.96 2 7 C5.3863251 8.50930183 5.3863251 8.50930183 9 9 C9 9.66 9 10.32 9 11 C6.36 11 3.72 11 1 11 C-0.28317892 7.15046324 -0.06643637 4.05261865 0 0 Z " fill="#1F8BA5" transform="translate(41,60)"/>
<path d="M0 0 C2.97 0.495 2.97 0.495 6 1 C6 1.99 6 2.98 6 4 C5.01 4 4.02 4 3 4 C2.67 4.66 2.34 5.32 2 6 C1.34 5.67 0.68 5.34 0 5 C0 3.35 0 1.7 0 0 Z " fill="#0495AF" transform="translate(121,190)"/>
<path d="M0 0 C-0.33 0.66 -0.66 1.32 -1 2 C-5.29 2 -9.58 2 -14 2 C-9.21904213 -0.39047894 -5.18781778 -1.72927259 0 0 Z " fill="#2293A5" transform="translate(852,151)"/>
<path d="M0 0 C0.66 0 1.32 0 2 0 C2 0.66 2 1.32 2 2 C2.66 2.33 3.32 2.66 4 3 C3.67 3.66 3.34 4.32 3 5 C3.66 5 4.32 5 5 5 C5.33 5.99 5.66 6.98 6 8 C6.66 8.66 7.32 9.32 8 10 C6.35 9.67 4.7 9.34 3 9 C2.01 6.03 1.02 3.06 0 0 Z " fill="#1493A7" transform="translate(520,98)"/>
<path d="M0 0 C0.99 0.99 1.98 1.98 3 3 C0.36095629 4.41377341 -2.07120629 5.37240135 -5 6 C-4.67 4.35 -4.34 2.7 -4 1 C-2.02 1.495 -2.02 1.495 0 2 C0 1.34 0 0.68 0 0 Z " fill="#1792AC" transform="translate(709,83)"/>
<path d="M0 0 C0.144375 0.598125 0.28875 1.19625 0.4375 1.8125 C0.8872439 3.56150404 1.42892341 5.28677023 2 7 C0.1875 8.5625 0.1875 8.5625 -2 10 C-2.99 9.67 -3.98 9.34 -5 9 C-4.360625 8.071875 -3.72125 7.14375 -3.0625 6.1875 C-0.91377907 3.15780057 -0.91377907 3.15780057 0 0 Z " fill="#168EA8" transform="translate(153,119)"/>
<path d="M0 0 C1.9375 0.5625 1.9375 0.5625 4 2 C4.75 5.625 4.75 5.625 5 9 C2.69 7.02 0.38 5.04 -2 3 C-1.34 2.67 -0.68 2.34 0 2 C0 1.34 0 0.68 0 0 Z " fill="#1893A8" transform="translate(851,88)"/>
<path d="M0 0 C4.05281712 1.22527029 7.44360764 2.69880494 11 5 C7.06329512 6.31223496 4.87511856 5.24296256 1 4 C0.67 2.68 0.34 1.36 0 0 Z " fill="#1C8EA2" transform="translate(319,70)"/>
<path d="M0 0 C0.99 0.33 1.98 0.66 3 1 C2.34 1.66 1.68 2.32 1 3 C1.33 3.33 1.66 3.66 2 4 C2.04080783 5.99958364 2.04254356 8.00045254 2 10 C1.34 10 0.68 10 0 10 C-1.125 6.6875 -1.125 6.6875 -2 3 C-1.34 2.01 -0.68 1.02 0 0 Z " fill="#1195AC" transform="translate(203,46)"/>
<path d="M0 0 C0.598125 0.309375 1.19625 0.61875 1.8125 0.9375 C4.08956772 2.10209704 4.08956772 2.10209704 7 3 C8.39712274 4.95597184 9.73779907 6.95436401 11 9 C5.70841026 7.59928507 3.22521956 4.14512755 0 0 Z " fill="#208EA1" transform="translate(460,153)"/>
<path d="M0 0 C0.33 0 0.66 0 1 0 C2.125 6.75 2.125 6.75 1 9 C0.34 9 -0.32 9 -1 9 C-1 9.66 -1 10.32 -1 11 C-1.66 11 -2.32 11 -3 11 C-2.01 7.37 -1.02 3.74 0 0 Z " fill="#1E91A7" transform="translate(1026,118)"/>
<path d="M0 0 C4.875 1.75 4.875 1.75 6 4 C5.72057545 5.67654729 5.39171753 7.34608154 5 9 C4.54625 8.525625 4.0925 8.05125 3.625 7.5625 C2.06741796 5.90972192 2.06741796 5.90972192 0 5 C0 3.35 0 1.7 0 0 Z " fill="#079CB7" transform="translate(538,105)"/>
<path d="M0 0 C2.625 -0.1875 2.625 -0.1875 5 0 C4.02471263 1.33617352 3.04466681 2.6688751 2.0625 4 C1.51722656 4.7425 0.97195313 5.485 0.41015625 6.25 C-0.05519531 6.8275 -0.52054688 7.405 -1 8 C-1.33 8 -1.66 8 -2 8 C-2.20086443 4.28400809 -2.1519437 3.22791555 0 0 Z " fill="#1891A5" transform="translate(811,92)"/>
<path d="M0 0 C0.66 0.33 1.32 0.66 2 1 C-0.88341534 5.21422242 -3.04303419 6.76075855 -8 8 C-3.375 2.25 -3.375 2.25 0 0 Z " fill="#1B90A3" transform="translate(281,75)"/>
<path d="M0 0 C3.93673644 1.31224548 6.22719294 2.91910327 9 6 C6.69 5.67 4.38 5.34 2 5 C2.33 4.01 2.66 3.02 3 2 C2.01 2 1.02 2 0 2 C0 1.34 0 0.68 0 0 Z " fill="#1C90A5" transform="translate(517,72)"/>
<path d="M0 0 C4.35535069 1.16142685 6.64619703 2.07699505 9 6 C5 6 5 6 3 5 C3 4.01 3 3.02 3 2 C2.01 1.67 1.02 1.34 0 1 C0 0.67 0 0.34 0 0 Z " fill="#1990A5" transform="translate(630,71)"/>
<path d="M0 0 C2.3125 -0.3125 2.3125 -0.3125 5 0 C6.8125 2.5 6.8125 2.5 8 5 C7.01 6.485 7.01 6.485 6 8 C3.375 8.1875 3.375 8.1875 1 8 C2.32 7.67 3.64 7.34 5 7 C4.81171228 4.55519921 4.81171228 4.55519921 4 2 C2.03241727 0.63979849 2.03241727 0.63979849 0 0 Z " fill="#2292A1" transform="translate(116,60)"/>
<path d="M0 0 C1.32 0.33 2.64 0.66 4 1 C-0.455 3.97 -0.455 3.97 -5 7 C-5.33 6.34 -5.66 5.68 -6 5 C-5.34 5 -4.68 5 -4 5 C-4 4.01 -4 3.02 -4 2 C-2.68 2 -1.36 2 0 2 C0 1.34 0 0.68 0 0 Z " fill="#1D8DA2" transform="translate(736,161)"/>
<path d="M0 0 C0.33 0 0.66 0 1 0 C1.06058594 0.73605469 1.12117188 1.47210938 1.18359375 2.23046875 C1.26738281 3.20628906 1.35117187 4.18210938 1.4375 5.1875 C1.51871094 6.15042969 1.59992188 7.11335937 1.68359375 8.10546875 C1.97666151 10.78649602 2.42703754 13.3662986 3 16 C2.01 15.67 1.02 15.34 0 15 C0 10.05 0 5.1 0 0 Z " fill="#2F94A7" transform="translate(337,153)"/>
<path d="M0 0 C0.99 0.495 0.99 0.495 2 1 C2 1.99 2 2.98 2 4 C2.99 4.33 3.98 4.66 5 5 C6.1875 7.5625 6.1875 7.5625 7 10 C3.17398693 8.54875366 1.77670876 6.64225296 0 3 C0 2.01 0 1.02 0 0 Z " fill="#148FA1" transform="translate(79,125)"/>
<path d="M0 0 C-1 3 -1 3 -2.99609375 4.203125 C-3.80175781 4.54859375 -4.60742188 4.8940625 -5.4375 5.25 C-6.24058594 5.60578125 -7.04367187 5.9615625 -7.87109375 6.328125 C-10 7 -10 7 -12 6 C-10.37829621 4.99466333 -8.75252763 3.99588093 -7.125 3 C-5.76761719 2.1646875 -5.76761719 2.1646875 -4.3828125 1.3125 C-2 0 -2 0 0 0 Z " fill="#238EA1" transform="translate(816,72)"/>
<path d="M0 0 C0.66 0.33 1.32 0.66 2 1 C1.67 3.31 1.34 5.62 1 8 C-0.32 7.67 -1.64 7.34 -3 7 C-2.625 4.0625 -2.625 4.0625 -2 1 C-1.34 0.67 -0.68 0.34 0 0 Z " fill="#029BB7" transform="translate(72,69)"/>
<path d="M0 0 C1.77706209 2.66559313 2.87548273 5.0280615 4 8 C2.35 8.33 0.7 8.66 -1 9 C-1.33 8.34 -1.66 7.68 -2 7 C-1.34 7 -0.68 7 0 7 C0 4.69 0 2.38 0 0 Z " fill="#1492A6" transform="translate(691,134)"/>
<path d="M0 0 C2.6855594 2.6855594 3.06049974 5.37621328 4 9 C2.02 9.66 0.04 10.32 -2 11 C-2 10.34 -2 9.68 -2 9 C-1.34 8.67 -0.68 8.34 0 8 C0 5.36 0 2.72 0 0 Z " fill="#1997A8" transform="translate(805,125)"/>
<path d="M0 0 C2.49361571 1.20381448 4.68143083 2.45428722 7 4 C7.1875 7.125 7.1875 7.125 7 10 C4.3513141 6.80331012 2.06007659 3.60513403 0 0 Z " fill="#2090A1" transform="translate(736,92)"/>
<path d="M0 0 C-1.24176695 0.70226141 -2.49385599 1.38629109 -3.75 2.0625 C-4.79414063 2.63677734 -4.79414063 2.63677734 -5.859375 3.22265625 C-8.36140628 4.1312406 -9.5332355 3.88336837 -12 3 C-10.75823305 2.29773859 -9.50614401 1.61370891 -8.25 0.9375 C-7.20585937 0.36322266 -7.20585937 0.36322266 -6.140625 -0.22265625 C-3.63859372 -1.1312406 -2.4667645 -0.88336837 0 0 Z " fill="#2192A3" transform="translate(295,71)"/>
<path d="M0 0 C2.18975773 3.28463659 2.99806563 6.20696275 4 10 C2.35 10 0.7 10 -1 10 C-1 9.34 -1 8.68 -1 8 C-0.34 8 0.32 8 1 8 C0.67 5.36 0.34 2.72 0 0 Z " fill="#1F91AB" transform="translate(1011,134)"/>
<path d="M0 0 C2.64 0.33 5.28 0.66 8 1 C4.71536341 3.18975773 1.79303725 3.99806563 -2 5 C-1.34 3.35 -0.68 1.7 0 0 Z " fill="#1B95A5" transform="translate(820,86)"/>
<path d="M0 0 C0.99 0 1.98 0 3 0 C2.67 1.65 2.34 3.3 2 5 C1.01 5 0.02 5 -1 5 C-1 5.66 -1 6.32 -1 7 C-1.66 7 -2.32 7 -3 7 C-2.690625 6.401875 -2.38125 5.80375 -2.0625 5.1875 C-0.89790296 2.91043228 -0.89790296 2.91043228 0 0 Z " fill="#1B98AD" transform="translate(142,161)"/>
<path d="M0 0 C3 3.75 3 3.75 3 6 C1.68 6.33 0.36 6.66 -1 7 C-1.625 5.1875 -1.625 5.1875 -2 3 C-1.34 2.01 -0.68 1.02 0 0 Z " fill="#1092A6" transform="translate(267,89)"/>
<path d="M0 0 C0.66 0 1.32 0 2 0 C2 1.98 2 3.96 2 6 C0.68 6 -0.64 6 -2 6 C-1.34 4.02 -0.68 2.04 0 0 Z " fill="#0297B9" transform="translate(138,108)"/>
<path d="M0 0 C0.33 1.32 0.66 2.64 1 4 C-1.31 4 -3.62 4 -6 4 C-3.94766315 1.7522025 -2.99332739 0.9977758 0 0 Z " fill="#0295B7" transform="translate(51,53)"/>
<path d="M0 0 C0.66 0 1.32 0 2 0 C1.45773019 3.79588866 -0.20127563 5.47211993 -3 8 C-3 6.68 -3 5.36 -3 4 C-2.34 4 -1.68 4 -1 4 C-0.67 2.68 -0.34 1.36 0 0 Z " fill="#1C91A5" transform="translate(146,167)"/>
<path d="M0 0 C1.32 0.33 2.64 0.66 4 1 C4.33 3.31 4.66 5.62 5 8 C2.27573689 5.64722731 1.1858237 3.37503669 0 0 Z " fill="#1990A2" transform="translate(264,143)"/>
</svg>
