<?xml version="1.0" encoding="UTF-8"?>
<!DOCTYPE svg PUBLIC "-//W3C//DTD SVG 1.1//EN" "http://www.w3.org/Graphics/SVG/1.1/DTD/svg11.dtd">
<svg xmlns="http://www.w3.org/2000/svg" version="1.1" width="160px" height="160px" style="shape-rendering:geometricPrecision; text-rendering:geometricPrecision; image-rendering:optimizeQuality; fill-rule:evenodd; clip-rule:evenodd" xmlns:xlink="http://www.w3.org/1999/xlink">
<g><path style="opacity:0.924" fill="#6b58ff" d="M 39.5,26.5 C 66.1687,26.3334 92.8354,26.5 119.5,27C 126.743,28.6515 130.909,33.1515 132,40.5C 132.926,50.9072 132.592,61.2405 131,71.5C 127.067,73.4777 122.9,73.9777 118.5,73C 116.304,71.7775 114.804,69.9442 114,67.5C 113.5,60.1742 113.334,52.8409 113.5,45.5C 90.8333,45.5 68.1667,45.5 45.5,45.5C 45.6663,52.8409 45.4997,60.1742 45,67.5C 43.9563,68.6226 43.2896,69.9559 43,71.5C 38,74.1667 33,74.1667 28,71.5C 26.0229,59.8467 26.0229,48.18 28,36.5C 30.5658,31.6447 34.3992,28.3113 39.5,26.5 Z"/></g>
<g><path style="opacity:0.88" fill="#ff6767" d="M 75.5,55.5 C 79.3834,55.1091 83.05,55.7758 86.5,57.5C 94.5159,66.3495 103.016,74.6828 112,82.5C 112.953,84.4552 114.287,86.1218 116,87.5C 118.16,97.3304 114.327,101.83 104.5,101C 98.9545,97.0395 93.9545,92.5395 89.5,87.5C 88.6673,100.487 88.1673,113.487 88,126.5C 84.7702,132.475 79.9369,133.975 73.5,131C 72.5399,129.581 71.7065,128.081 71,126.5C 70.8327,113.487 70.3327,100.487 69.5,87.5C 65.0455,92.5395 60.0455,97.0395 54.5,101C 44.6731,101.83 40.8398,97.3304 43,87.5C 53.7284,76.604 64.5617,65.9373 75.5,55.5 Z"/></g>
</svg>
