<?xml version="1.0" encoding="utf-8"?>
<!-- Generator: Adobe Illustrator 16.0.3, SVG Export Plug-In . SVG Version: 6.00 Build 0)  -->
<!DOCTYPE svg PUBLIC "-//W3C//DTD SVG 1.1//EN" "http://www.w3.org/Graphics/SVG/1.1/DTD/svg11.dtd">
<svg version="1.1" id="Capa_2" xmlns="http://www.w3.org/2000/svg" xmlns:xlink="http://www.w3.org/1999/xlink" x="0px" y="0px"
	 width="2458px" height="512px" viewBox="0 0 2458 512" enable-background="new 0 0 2458 512" xml:space="preserve">
<g>
	<path fill="#1C1C1C" stroke="#191919" stroke-width="8" d="M753.023,411.092c-20.944,0-40.347-3.764-58.202-11.277
		c-17.861-7.515-33.431-17.986-46.723-31.417c-13.292-13.424-23.632-28.932-31.014-46.521c-7.39-17.584-11.077-36.452-11.077-56.591
		c0-20.14,3.556-39.07,10.674-56.793c7.112-17.722,17.181-33.291,30.208-46.722c13.021-13.425,28.527-23.966,46.521-31.619
		c17.986-7.653,37.861-11.479,59.611-11.479c23.091,0,42.896,3.625,59.41,10.875c16.514,7.25,31.077,18.396,43.702,33.432
		l-39.875,34.639c-16.917-17.722-38-26.583-63.237-26.583c-17.993,0-33.632,4.298-46.924,12.89
		c-13.292,8.597-23.563,20.007-30.813,34.236c-7.25,14.235-10.875,29.943-10.875,47.125c0,17.188,3.625,32.826,10.875,46.924
		c7.25,14.099,17.584,25.375,31.015,33.834c13.424,8.458,29.402,12.688,47.931,12.688c13.694,0,25.778-2.278,36.25-6.849
		c10.473-4.563,19.869-11.409,28.195-20.542l41.083,35.042c-10.743,12.89-25.042,23.563-42.896,32.021
		C799.003,406.862,777.724,411.092,753.023,411.092z"/>
	<path fill="#1C1C1C" stroke="#191919" stroke-width="8" d="M970.523,411.092c-21.486,0-40.681-4.972-57.598-14.902
		c-16.917-9.932-30.146-23.159-39.675-39.674c-9.534-16.515-14.299-34.842-14.299-54.979s4.765-38.528,14.299-55.181
		c9.528-16.646,22.758-29.938,39.675-39.876c16.917-9.932,36.111-14.902,57.598-14.902c21.75,0,41.014,4.972,57.799,14.902
		c16.778,9.938,29.938,23.229,39.474,39.876c9.527,16.651,14.299,35.042,14.299,55.181s-4.771,38.466-14.299,54.979
		c-9.535,16.515-22.694,29.742-39.474,39.674C1011.536,406.12,992.273,411.092,970.523,411.092z M970.523,361.55
		c11.542,0,21.612-2.75,30.208-8.257c8.59-5.501,15.236-12.819,19.938-21.952c4.694-9.125,7.049-19.063,7.049-29.806
		c0-11.007-2.354-21.077-7.049-30.208c-4.701-9.126-11.348-16.445-19.938-21.952c-8.597-5.5-18.667-8.257-30.208-8.257
		c-11.548,0-21.618,2.757-30.208,8.257c-8.597,5.507-15.243,12.826-19.938,21.952c-4.701,9.131-7.049,19.201-7.049,30.208
		c0,10.743,2.348,20.681,7.049,29.806c4.694,9.133,11.341,16.451,19.938,21.952C948.905,358.8,958.974,361.55,970.523,361.55z"/>
	<path fill="#1C1C1C" stroke="#191919" stroke-width="8" d="M1204.137,411.092c-15.042,0-29.069-2.818-42.091-8.459
		c-13.027-5.639-24.507-13.492-34.438-23.563c-9.938-10.069-17.66-21.75-23.16-35.042c-5.507-13.291-8.257-27.59-8.257-42.896
		c0-20.402,4.765-38.868,14.299-55.383c9.528-16.514,22.688-29.735,39.473-39.674c16.777-9.932,35.777-14.902,56.993-14.902
		c19.063-0.265,36.112,3.091,51.153,10.068c15.035,6.986,26.986,16.653,35.849,29.001l-41.89,34.236
		c-4.834-7.25-11.077-13.021-18.729-17.319c-7.653-4.293-16.182-6.445-25.577-6.445c-11.548,0-21.618,2.758-30.208,8.259
		c-8.598,5.507-15.243,12.825-19.938,21.95c-4.701,9.133-7.048,19.201-7.048,30.209c0,10.742,2.479,20.743,7.451,30.008
		c4.966,9.264,11.813,16.651,20.542,22.152c8.723,5.507,18.861,8.257,30.41,8.257c10.472,0,19.333-2.348,26.583-7.049
		c7.25-4.694,13.557-10.674,18.931-17.924l39.474,34.236c-9.938,12.625-22.223,22.493-36.854,29.604
		C1242.464,407.529,1224.812,411.092,1204.137,411.092z"/>
	<path fill="#1C1C1C" stroke="#191919" stroke-width="8" d="M1405.527,411.092c-21.485,0-40.681-4.972-57.598-14.902
		c-16.917-9.932-30.146-23.159-39.674-39.674c-9.535-16.515-14.3-34.842-14.3-54.979s4.765-38.528,14.3-55.181
		c9.527-16.646,22.757-29.938,39.674-39.876c16.917-9.932,36.11-14.902,57.598-14.902c21.75,0,41.015,4.972,57.799,14.902
		c16.778,9.938,29.938,23.229,39.474,39.876c9.527,16.651,14.299,35.042,14.299,55.181s-4.771,38.466-14.299,54.979
		c-9.534,16.515-22.694,29.742-39.474,39.674C1446.541,406.12,1427.277,411.092,1405.527,411.092z M1405.527,361.55
		c11.542,0,21.611-2.75,30.208-8.257c8.591-5.501,15.237-12.819,19.938-21.952c4.693-9.125,7.048-19.063,7.048-29.806
		c0-11.007-2.354-21.077-7.048-30.208c-4.701-9.126-11.349-16.445-19.938-21.952c-8.597-5.5-18.666-8.257-30.208-8.257
		c-11.549,0-21.618,2.757-30.209,8.257c-8.597,5.507-15.242,12.826-19.938,21.952c-4.701,9.131-7.05,19.201-7.05,30.208
		c0,10.743,2.349,20.681,7.05,29.806c4.694,9.133,11.341,16.451,19.938,21.952C1383.907,358.8,1393.978,361.55,1405.527,361.55z"/>
	<path fill="#1C1C1C" stroke="#191919" stroke-width="8" d="M1735.004,411.092c-20.945,0-40.349-3.764-58.202-11.277
		c-17.861-7.515-33.432-17.986-46.724-31.417c-13.292-13.424-23.632-28.932-31.015-46.521
		c-7.388-17.584-11.076-36.452-11.076-56.591c0-20.14,3.556-39.07,10.674-56.793c7.111-17.722,17.183-33.291,30.209-46.722
		c13.021-13.425,28.527-23.966,46.521-31.619c17.987-7.653,37.86-11.479,59.612-11.479c23.09,0,42.896,3.625,59.409,10.875
		c16.515,7.25,31.076,18.396,43.701,33.432l-39.875,34.639c-16.917-17.722-38-26.583-63.235-26.583
		c-17.993,0-33.634,4.298-46.926,12.89c-13.291,8.597-23.563,20.007-30.813,34.236c-7.25,14.235-10.875,29.943-10.875,47.125
		c0,17.188,3.625,32.826,10.875,46.924c7.25,14.099,17.584,25.375,31.015,33.834c13.424,8.458,29.402,12.688,47.932,12.688
		c13.693,0,25.777-2.278,36.25-6.849c10.473-4.563,19.868-11.409,28.193-20.542l41.084,35.042
		c-10.743,12.89-25.041,23.563-42.896,32.021C1780.984,406.862,1759.704,411.092,1735.004,411.092z"/>
	<path fill="#1C1C1C" stroke="#191919" stroke-width="8" d="M1860.666,405.855v-294.03h54.375V225.41
		c11.277-22.557,32.354-33.834,63.236-33.834c15.034,0,28.598,3.492,40.682,10.473c12.083,6.985,21.61,16.916,28.598,29.806
		c6.979,12.89,10.472,28.194,10.472,45.918v128.084h-54.375V291.062c0-18.257-4.166-31.479-12.485-39.674
		c-8.326-8.188-19.201-12.285-32.625-12.285c-11.549,0-21.688,4.098-30.41,12.285c-8.729,8.193-13.091,21.417-13.091,39.674v114.793
		H1860.666z"/>
	<path fill="#1C1C1C" stroke="#191919" stroke-width="8" d="M2183.691,411.092c-19.069,0-36.452-4.901-52.16-14.701
		s-28.194-22.958-37.459-39.473c-9.264-16.515-13.896-34.841-13.896-54.979c0-15.035,2.681-29.202,8.056-42.494
		c5.368-13.291,12.75-24.972,22.153-35.042c9.396-10.069,20.34-17.986,32.826-23.764c12.485-5.771,25.979-8.66,40.479-8.66
		c18.257,0,32.486,3.424,42.694,10.271c10.202,6.849,18.126,15.91,23.765,27.188V196.41h53.973v209.445h-52.765v-34.236
		c-5.639,11.819-13.632,21.348-23.965,28.598C2217.052,407.467,2202.483,411.092,2183.691,411.092z M2192.552,361.952
		c12.083,0,22.485-2.75,31.216-8.257c8.723-5.5,15.507-12.819,20.34-21.951c4.833-9.126,7.25-19.063,7.25-29.806
		c0-11.008-2.417-21.077-7.25-30.209c-4.833-9.126-11.617-16.515-20.34-22.153c-8.729-5.639-19.133-8.458-31.216-8.458
		c-11.55,0-21.688,2.757-30.41,8.257c-8.729,5.507-15.507,12.826-20.341,21.952c-4.833,9.131-7.25,19.201-7.25,30.208
		c0,10.473,2.417,20.341,7.25,29.604c4.834,9.264,11.611,16.716,20.341,22.354C2170.865,359.133,2181.002,361.952,2192.552,361.952z
		"/>
	<path fill="#1C1C1C" stroke="#191919" stroke-width="8" d="M2415.692,405.855c-20.681,0-36.521-5.099-47.528-15.307
		c-11.014-10.201-16.514-26.716-16.514-49.542v-98.277h-29.403V196.41h29.403v-42.293l54.375-5.639v47.932h44.307v46.319h-44.307
		v95.459c0,12.889,5.64,19.333,16.917,19.333h22.556v48.334H2415.692L2415.692,405.855z"/>
</g>
<path fill="#8B5E3C" d="M73.972,436.354C-32.484,329.915-22.899,147.741,95.384,29.458l385.484,385.485
	C362.585,533.226,180.413,542.797,73.972,436.354L73.972,436.354z"/>
<path fill="#603913" d="M95.384,29.458c-59.133,59.134-20.791,193.378,85.65,299.835c106.472,106.441,240.7,144.782,299.82,85.649
	c59.133-59.12,20.807-193.363-85.666-299.82C288.762,8.666,154.519-29.66,95.384,29.458z"/>
<path fill="#F5F8FA" d="M468.981,346.254c5.923,5.904,15.512,5.89,21.417-0.033c1.945-1.95,3.32-4.395,3.979-7.069
	c1.016-4.074,23.851-101.005-45.625-170.482c-16.961-16.96-42.144-57.15-49.307-68.81c-6.058-6.286-11.1-4.089-22.685-15.673
	c-5.301-5.301-21.276-34.043-67.221,9.524c-5.233,5.137-5.977,13.31-1.757,19.307l159.428,231.131
	C467.755,344.905,468.345,345.618,468.981,346.254L468.981,346.254z"/>
<path fill="#603913" d="M358.134,94.044c10.706,10.706,22.078,21.457,22.078,21.457s36.406,42.462,57.833,63.874
	c64.237,64.253,41.643,156.173,41.643,156.173l-176.448-237.4C303.239,98.148,345.519,82.368,358.134,94.044z M377.381,73.54
	c-27.757-21.776-72.339-4.771-83.288,5.997c-10.342,10.342-7.071,30.044,1.227,42.067l159.427,231.131
	c9.482,13.771,28.331,17.246,42.1,7.764c6.114-4.209,10.468-10.519,12.234-17.729c1.09-4.436,25.819-109.378-49.624-184.821
	c-13.508-13.508-29.347-26.319-44.051-44.112c-9.829-12.307-20.313-24.075-31.407-35.253L377.381,73.54L377.381,73.54z"/>
<path fill="#F5F8FA" d="M116.797,50.871c-47.307,47.307-8.965,162.365,85.665,256.979c94.599,94.613,209.673,132.971,256.979,85.665
	c47.308-47.308,8.95-162.381-85.664-256.995C279.161,41.921,164.104,3.564,116.797,50.871L116.797,50.871z"/>
<path fill="#99AAB5" d="M148.249,83.67c-35.102,35.103-1.257,125.901,75.625,202.783c76.897,76.897,167.666,110.728,202.782,75.626
	c35.103-35.103,1.257-125.887-75.625-202.784C274.165,82.399,183.366,48.554,148.249,83.67L148.249,83.67z"/>
<path fill="#99AAB5" d="M296.47,130.039l17.808-5.073c8.512-4.725,20.504-5.043,28.712,2.528l18.338,19.278
	c8.677,10.448,29.061,32.361,45.354,48.655c57.649,57.65,35.116,132.078,34.118,135.229c-1.253,3.989-5.503,6.208-9.493,4.955
	c-1.605-0.504-2.997-1.527-3.955-2.911L294.138,140.851c-2.378-3.459-1.501-8.193,1.958-10.571
	C296.219,130.196,296.343,130.116,296.47,130.039L296.47,130.039z"/>
<path fill="#F5F8FA" d="M350.395,374.101c0,0-48.595-31.572-57.105-57.105c-9.51-28.543-70.597-34.102-80.107-62.661
	c-9.495-28.545-25.38-72.158-34.118-89.618c-8.722-17.459-19.049-0.015-28.559-28.559c-9.509-28.576-28.545-47.61-28.545-47.61
	s0,133.274,28.545,161.819c28.559,28.561,142.785,142.785,152.31,133.245C312.325,374.101,350.395,374.101,350.395,374.101
	L350.395,374.101z"/>
<path fill="#603913" d="M336.433,399.452c0,0-56.483-38.418-65.357-65.026c-9.919-29.74-80.107-39.659-90.011-69.4
	c-9.919-29.741-24.168-83.075-28.969-89.224c-13.871-17.869-19.822-0.015-29.741-29.741c-9.919-29.757-29.742-49.579-29.742-49.579
	s0,138.802,29.742,168.543c29.741,29.758,148.706,148.721,158.639,138.803C290.913,393.924,336.433,399.452,336.433,399.452
	L336.433,399.452z"/>
<path fill="#8B5E3C" d="M320.245,425.649c0,0-54.667-35.511-64.238-64.237c-10.707-32.118-96.386-53.547-107.092-85.665
	c-10.707-32.134-10.707-74.958-21.413-85.666c-10.706-10.72-21.412,0-32.119-32.133c-10.706-32.118-32.118-53.532-32.118-53.532
	s0,149.918,32.118,182.037c32.119,32.119,160.608,160.607,171.314,149.901C277.42,425.649,320.245,425.649,320.245,425.649
	L320.245,425.649z"/>
<path fill="#A97C50" d="M154.306,477.029c1.378-4.315,12.66-0.924,16.854,0.016c105.002,23.106,176.569-20.973,177.357-21.336
	c4.119-2.061,8.768-0.516,10.372,3.392c1.605,3.907-0.393,8.737-4.482,10.781c-3.407,1.696-72.808,38.615-183.61,14.22
	c-1.378-0.318-10.918-1.983-11.827-2.893C157.108,479.345,153.367,479.938,154.306,477.029L154.306,477.029z M27.65,326.082
	c1.741,1.728,1.634,3.212,4.392,2.499c4.36-1.105,4.527-7.829,3.861-12.084c-7.451-48.337,5.452-98.491,27.878-156.762
	c1.62-4.255-0.409-8.707-4.452-9.873c-4.119-1.212-8.768,1.271-10.403,5.512c-23.548,61.088-31.149,115.634-23.259,166.773
	C25.898,323.633,26.592,325.01,27.65,326.082z M184.487,465.067c1.144,1.122,2.633,1.827,4.226,1.998
	c57.074,6.451,104.381-17.217,106.365-18.232c4.074-2.073,6.057-6.905,4.407-10.812c-1.636-3.924-6.315-5.392-10.418-3.302
	c-0.439,0.229-41.538,27.908-93.6,22.003c-4.316-0.485-12.508-0.242-13.462,4.165C181.459,463.566,182.806,463.402,184.487,465.067
	L184.487,465.067z"/>
</svg>
