<?xml version="1.0" encoding="iso-8859-1"?>
<!-- Generator: Adobe Illustrator 19.0.0, SVG Export Plug-In . SVG Version: 6.00 Build 0)  -->
<svg version="1.1" id="Capa_1" xmlns="http://www.w3.org/2000/svg" xmlns:xlink="http://www.w3.org/1999/xlink" x="0px" y="0px"
	 viewBox="0 0 512 512" style="enable-background:new 0 0 512 512;" xml:space="preserve">
<circle style="fill:#1A2B63;" cx="256" cy="267" r="245"/>
<path style="fill:#D9EAFC;" d="M216.796,378.925c12.65,0,24.304,6.362,31.175,17.02c0.169,0.263,0.453,0.432,0.765,0.455
	c0.025,0.002,0.051,0.003,0.076,0.003c0.286,0,0.559-0.122,0.749-0.338c10.3-11.651,25.108-18.333,40.627-18.333
	c5.288,0,10.396,0.774,15.231,2.193l-17.846-45.745h-63.146l-18.041,46.244C209.691,379.454,213.182,378.925,216.796,378.925z"/>
<g>
	<path style="fill:#AEC1ED;" d="M232.659,334.179h-8.232l-18.041,46.244c2.808-0.823,5.756-1.306,8.794-1.44L232.659,334.179z"/>
	<path style="fill:#AEC1ED;" d="M197.586,426.192c0.04,0.264,0.183,0.501,0.398,0.659c0.172,0.127,0.38,0.194,0.591,0.194
		c0.052,0,0.105-0.004,0.157-0.012c3.57-0.568,7.155-0.856,10.655-0.856c17.099,0,33.41,6.425,45.931,18.091
		c0.192,0.179,0.437,0.268,0.682,0.268c0.245,0,0.49-0.089,0.682-0.268c12.52-11.666,28.832-18.091,45.931-18.091
		c3.499,0,7.085,0.288,10.655,0.856c0.053,0.008,0.105,0.012,0.157,0.012c0.211,0,0.419-0.067,0.591-0.194
		c0.215-0.158,0.358-0.395,0.398-0.659c1.848-12.438,6.529-24.218,13.552-34.499c-9.878-9.272-23.159-14.962-37.778-14.962
		c-16.477,0-31.259,7.226-41.376,18.671c-6.776-10.511-18.578-17.478-32.015-17.478c-12.889,0-24.273,6.411-31.162,16.212
		C191.765,403.825,195.883,414.727,197.586,426.192z"/>
</g>
<path style="fill:#445EA0;" d="M198.576,426.045c-6.018-40.51-40.935-71.591-83.119-71.591c-29.285,0-55.061,14.984-70.105,37.697
	c23.034,38.687,56.425,70.475,96.344,91.571C145.965,454.156,169.144,430.721,198.576,426.045z"/>
<path style="fill:#293D7C;" d="M123.849,364.787c21.432,0,41.078,7.602,56.425,20.237c-15.413-18.665-38.719-30.57-64.817-30.57
	c-29.285,0-55.061,14.984-70.105,37.697c1.987,3.337,4.057,6.62,6.196,9.852C67.667,379.477,94.036,364.787,123.849,364.787z"/>
<path style="fill:#445EA0;" d="M396.543,354.454c-42.184,0-77.101,31.082-83.119,71.591c29.432,4.676,52.611,28.111,56.88,57.677
	c39.918-21.096,73.31-52.885,96.344-91.571C451.604,369.438,425.828,354.454,396.543,354.454z"/>
<g>
	<path style="fill:#293D7C;" d="M401.627,354.61c-1.682-0.1-3.376-0.156-5.084-0.156c-42.184,0-77.101,31.082-83.119,71.591
		c3.136,0.498,6.196,1.222,9.174,2.131C330.96,389.897,362.404,360.256,401.627,354.61z"/>
	<path style="fill:#293D7C;" d="M302.612,425.177c-18.016,0-34.395,6.976-46.612,18.359c-12.217-11.384-28.596-18.359-46.612-18.359
		c-34.435,0-62.92,25.446-67.695,58.558C175.821,501.772,214.713,512,256,512s80.179-10.228,114.307-28.265
		C365.532,450.623,337.047,425.177,302.612,425.177z"/>
</g>
<path style="fill:#1A2B63;" d="M223.686,433.681c9.435,0,18.439,1.835,26.68,5.162c-11.423-8.569-25.6-13.666-40.979-13.666
	c-34.435,0-62.92,25.446-67.695,58.558c4.023,2.126,8.114,4.14,12.265,6.044C160.964,457.704,189.508,433.681,223.686,433.681z"/>
<g>
	<path style="fill:#AEC1ED;" d="M278.528,334.179h-15.119l1.929,15.261c0.519,4.11,4.277,7.017,8.381,6.5
		c4.109-0.52,7.02-4.272,6.5-8.381L278.528,334.179z"/>
	<path style="fill:#AEC1ED;" d="M233.472,334.179l-3.966,31.38c-0.519,4.109,2.391,7.862,6.501,8.381
		c0.319,0.04,0.636,0.06,0.95,0.06c3.723-0.001,6.953-2.771,7.432-6.561l4.204-33.261h-15.121V334.179z"/>
</g>
<path style="fill:#FE3745;" d="M179.108,195.717c0-8.155,0.306-16.288,0.878-24.362c-24.06,13.549-40.636,43.733-40.636,78.678
	c0,18.456,4.589,36.057,13.27,50.9c0.815,1.394,2.29,2.191,3.822,2.191c0.56,0,1.127-0.106,1.672-0.329
	c11.409-4.664,23.601-7.06,36.244-7.16C184.375,264.907,179.108,230.591,179.108,195.717z"/>
<path style="fill:#B7092B;" d="M150.689,250.033c0-28.863,11.315-54.467,28.808-70.143c0.134-2.851,0.289-5.697,0.49-8.535
	c-24.06,13.549-40.636,43.733-40.636,78.678c0,18.456,4.589,36.057,13.27,50.9c0.815,1.394,2.29,2.191,3.822,2.191
	c0.56,0,1.127-0.106,1.672-0.329c1.88-0.769,3.79-1.453,5.711-2.098C155.233,285.903,150.689,268.392,150.689,250.033z"/>
<g>
	<path style="fill:#FE3745;" d="M332.013,171.355c0.572,8.075,0.878,16.208,0.878,24.362c0,34.873-5.267,69.189-15.251,99.918
		c12.644,0.1,24.835,2.496,36.244,7.16c0.545,0.223,1.113,0.329,1.672,0.329c1.533,0,3.007-0.798,3.822-2.191
		c8.682-14.843,13.27-32.444,13.27-50.9C372.649,215.088,356.073,184.904,332.013,171.355z"/>
	<path style="fill:#FE3745;" d="M217.708,307.125v23.054c0,2.75,2.25,5,5,5h66.583c2.75,0,5-2.25,5-5v-23.054H217.708z"/>
</g>
<path style="fill:#B7092B;" d="M234.715,330.179v-23.054h-17.007v23.054c0,2.75,2.25,5,5,5h17.007
	C236.965,335.179,234.715,332.929,234.715,330.179z"/>
<path style="fill:#EEF6FF;" d="M316.854,90.318H195.145c-11.154,32.153-17.037,68.343-17.037,105.399
	c0,38.522,6.389,76.387,18.475,109.5c0.638,1.746,2.298,2.908,4.157,2.908h110.519c1.859,0,3.52-1.162,4.157-2.908
	c12.086-33.113,18.475-70.978,18.475-109.5C333.892,158.661,328.009,122.472,316.854,90.318z"/>
<path style="fill:#D9EAFC;" d="M210.756,305.217c-12.087-33.113-18.475-70.978-18.475-109.5c0-37.056,5.883-73.246,17.037-105.399
	h-14.172c-11.154,32.153-17.037,68.343-17.037,105.399c0,38.522,6.389,76.387,18.475,109.5c0.638,1.746,2.298,2.908,4.157,2.908
	h14.172C213.054,308.125,211.394,306.963,210.756,305.217z"/>
<path style="fill:#EA2A3D;" d="M227.179,90.318v16.594c0,2.75,2.25,5,5,5h47.642c2.75,0,5-2.25,5-5V90.318H227.179z"/>
<path style="fill:#B7092B;" d="M238.517,106.912V90.318h-11.338v16.594c0,2.75,2.25,5,5,5h11.338
	C240.767,111.912,238.517,109.662,238.517,106.912z"/>
<path style="fill:#FE3745;" d="M256,0c-0.987,0-1.973,0.329-2.785,0.986c-22.338,18.089-41.154,45.529-54.411,79.354
	c-1.41,3.599-2.735,7.269-4.006,10.978h122.403c-1.271-3.709-2.596-7.379-4.006-10.978c-13.257-33.825-32.072-61.265-54.411-79.354
	C257.973,0.329,256.987,0,256,0z"/>
<path style="fill:#B7092B;" d="M263.086,4.628c-1.419-1.251-2.852-2.468-4.301-3.642C257.973,0.329,256.987,0,256,0
	s-1.973,0.329-2.785,0.986c-22.338,18.089-41.154,45.529-54.411,79.354c-1.41,3.599-2.735,7.269-4.006,10.978h14.172
	c1.271-3.709,2.596-7.379,4.006-10.978C225.374,48.709,242.632,22.667,263.086,4.628z"/>
<circle style="fill:#445EA0;" cx="256" cy="180.93" r="51.02"/>
<circle style="fill:#69CDFF;" cx="256" cy="180.93" r="32.731"/>
<path style="fill:#52BBEF;" d="M235.268,180.932c0,16.027,11.521,29.355,26.732,32.174c-1.946,0.36-3.949,0.558-6,0.558
	c-18.078,0-32.731-14.655-32.731-32.732s14.654-32.731,32.731-32.731c2.05,0,4.054,0.198,6,0.558
	C246.789,151.578,235.268,164.905,235.268,180.932z"/>
<path style="fill:#FFD00D;" d="M110.136,178.737c-1.147,0-2.181-0.691-2.62-1.751c-5.583-13.479-9.699-17.594-23.178-23.177
	c-1.06-0.439-1.75-1.473-1.75-2.62c0-1.147,0.691-2.181,1.75-2.62c13.48-5.585,17.595-9.701,23.178-23.179
	c0.439-1.06,1.473-1.751,2.62-1.751s2.181,0.691,2.62,1.751c5.584,13.478,9.7,17.594,23.179,23.179
	c1.06,0.439,1.751,1.473,1.751,2.62c0,1.147-0.691,2.182-1.751,2.62c-13.479,5.582-17.595,9.698-23.179,23.177
	C112.317,178.046,111.283,178.737,110.136,178.737L110.136,178.737z"/>
<path style="fill:#FFAF10;" d="M113.185,171.317c-5.583-13.479-9.699-17.594-23.178-23.177c-0.666-0.275-1.185-0.787-1.48-1.413
	c-1.294,0.606-2.674,1.214-4.189,1.842c-1.06,0.439-1.75,1.473-1.75,2.62c0,1.147,0.691,2.182,1.75,2.62
	c13.479,5.583,17.595,9.698,23.178,23.177c0.439,1.06,1.473,1.751,2.62,1.751s2.181-0.691,2.62-1.751
	c0.627-1.515,1.236-2.895,1.841-4.188C113.972,172.503,113.461,171.983,113.185,171.317z"/>
<path style="fill:#FFFFFF;" d="M411.469,201.404c-1.008,0-1.917-0.607-2.303-1.539c-4.907-11.848-8.525-15.465-20.373-20.372
	c-0.931-0.385-1.539-1.295-1.539-2.303c0-1.009,0.607-1.917,1.539-2.303c11.849-4.909,15.466-8.527,20.373-20.374
	c0.386-0.932,1.295-1.539,2.303-1.539s1.917,0.607,2.303,1.539c4.908,11.848,8.526,15.465,20.375,20.374
	c0.931,0.386,1.538,1.294,1.538,2.303c0,1.008-0.607,1.917-1.539,2.303c-11.848,4.907-15.466,8.524-20.374,20.372
	C413.387,200.796,412.478,201.404,411.469,201.404L411.469,201.404z"/>
<path style="fill:#D9EAFC;" d="M414.149,194.882c-4.908-11.848-8.525-15.465-20.374-20.373c-0.585-0.242-1.042-0.691-1.301-1.242
	c-1.137,0.532-2.351,1.067-3.682,1.619c-0.931,0.386-1.539,1.294-1.539,2.303c0,1.008,0.607,1.917,1.539,2.303
	c11.849,4.907,15.466,8.524,20.373,20.372c0.386,0.932,1.295,1.539,2.303,1.539s1.917-0.607,2.303-1.539
	c0.551-1.331,1.086-2.545,1.619-3.682C414.841,195.924,414.392,195.467,414.149,194.882z"/>
<path style="fill:#FF9518;" d="M385.469,96.071c-1.175,0-2.234-0.708-2.684-1.793c-5.718-13.806-9.933-18.021-23.739-23.738
	c-1.085-0.449-1.792-1.509-1.792-2.683c0-1.176,0.708-2.234,1.792-2.684c13.807-5.72,18.022-9.935,23.739-23.739
	c0.45-1.086,1.509-1.794,2.684-1.794s2.234,0.708,2.684,1.794c5.719,13.805,9.934,18.02,23.74,23.739
	c1.085,0.45,1.792,1.508,1.792,2.684c0,1.174-0.708,2.234-1.793,2.683c-13.806,5.717-18.02,9.933-23.74,23.738
	C387.703,95.363,386.644,96.071,385.469,96.071L385.469,96.071z"/>
<path style="fill:#EF8318;" d="M388.592,88.472c-5.719-13.805-9.934-18.02-23.74-23.738c-0.682-0.282-1.213-0.806-1.516-1.447
	c-1.324,0.621-2.739,1.244-4.291,1.886c-1.085,0.45-1.792,1.508-1.792,2.684c0,1.174,0.708,2.234,1.792,2.683
	c13.806,5.718,18.022,9.933,23.739,23.738c0.45,1.085,1.509,1.793,2.684,1.793s2.234-0.708,2.684-1.793
	c0.643-1.552,1.266-2.966,1.886-4.29C389.397,89.686,388.874,89.154,388.592,88.472z"/>
<g>
</g>
<g>
</g>
<g>
</g>
<g>
</g>
<g>
</g>
<g>
</g>
<g>
</g>
<g>
</g>
<g>
</g>
<g>
</g>
<g>
</g>
<g>
</g>
<g>
</g>
<g>
</g>
<g>
</g>
</svg>
