<svg width="16" height="16" viewBox="0 0 16 16" fill="none" xmlns="http://www.w3.org/2000/svg">
<g clip-path="url(#clip0_139_153)">
<path d="M4.42865 -0.0232886C4.60331 -0.0243094 4.77798 -0.0253301 4.95794 -0.0263818C5.14445 -0.0265599 5.33097 -0.0267379 5.52314 -0.0269214C5.71724 -0.0274539 5.91134 -0.0279865 6.11133 -0.0285352C6.52137 -0.0293439 6.93142 -0.0297206 7.34146 -0.0296948C7.9661 -0.0300442 8.59069 -0.0329504 9.21533 -0.0359839C9.6146 -0.0364535 10.0139 -0.0367709 10.4131 -0.0369214C10.5987 -0.0380711 10.7842 -0.0392208 10.9754 -0.0404053C12.6614 -0.0356945 13.8176 0.0698287 15.0588 1.26558C15.8658 2.16135 16.0178 3.11237 16.0258 4.2798C16.0273 4.46088 16.0289 4.64197 16.0305 4.82854C16.0311 5.02288 16.0318 5.21722 16.0325 5.41745C16.0334 5.61889 16.0343 5.82032 16.0353 6.02785C16.0368 6.45392 16.0379 6.87998 16.0385 7.30605C16.0393 7.84848 16.0432 8.39084 16.0477 8.93325C16.0514 9.45465 16.0517 9.97605 16.0525 10.4975C16.0545 10.6905 16.0565 10.8835 16.0585 11.0824C16.0542 12.7034 15.8242 13.8984 14.6925 15.0943C13.7893 15.9145 12.7441 16.0185 11.5688 16.0232C11.3061 16.0247 11.3061 16.0247 11.038 16.0263C10.7575 16.0266 10.7575 16.0266 10.4713 16.0268C10.2768 16.0274 10.0823 16.0279 9.88192 16.0284C9.47121 16.0293 9.06049 16.0296 8.64978 16.0296C8.02338 16.03 7.39703 16.0329 6.77064 16.0359C6.37085 16.0364 5.97106 16.0367 5.57126 16.0368C5.29171 16.0386 5.29171 16.0386 5.0065 16.0403C3.32117 16.0356 2.09085 15.8508 0.850013 14.61C-0.0828599 13.4034 -0.0711777 11.983 -0.0637366 10.52C-0.0641958 10.3194 -0.064655 10.1189 -0.0651282 9.9123C-0.0655364 9.38256 -0.0636196 8.85289 -0.0609241 8.32316C-0.0599873 8.00019 -0.0609213 7.67729 -0.0625647 7.35433C-0.0655422 6.72951 -0.0651675 6.10478 -0.0637366 5.47995C-0.0647082 5.28891 -0.0656798 5.09788 -0.0666809 4.90105C-0.0532129 3.28959 0.182529 2.09438 1.30751 0.905579C2.2099 0.0861019 3.25429 -0.0185981 4.42865 -0.0232886Z" fill="#F4F7F8"/>
<path d="M11.07 3.63005C12.1831 4.43609 13.0226 5.52265 13.28 6.88005C13.4364 8.10574 13.4364 8.10574 12.9756 8.73727C12.2735 9.27957 11.7248 9.22195 10.8619 9.19817C10.7068 9.19704 10.5516 9.19591 10.3918 9.19474C9.89774 9.19028 9.40397 9.18024 8.91 9.17005C8.57449 9.16603 8.23897 9.16238 7.90344 9.15911C7.08218 9.1503 6.26114 9.1365 5.44 9.12005C5.88871 9.9079 6.31831 10.4261 7.2 10.72C7.52651 10.7404 7.85357 10.7523 8.18063 10.7594C8.37254 10.7647 8.56446 10.7699 8.76219 10.7754C9.16801 10.7852 9.57384 10.7943 9.97969 10.8029C10.1714 10.8083 10.3631 10.8138 10.5606 10.8194C10.7369 10.8234 10.9131 10.8274 11.0947 10.8316C11.52 10.88 11.52 10.88 11.84 11.2C11.8769 11.6457 11.8769 11.6457 11.87 12.17C11.869 12.3435 11.8679 12.517 11.8669 12.6957C11.84 13.12 11.84 13.12 11.68 13.28C11.0511 13.327 10.4215 13.3304 9.79098 13.3361C9.47736 13.34 9.16382 13.349 8.85032 13.3582C7.08209 13.3744 5.43632 12.9889 4.13188 11.72C2.99203 10.3141 2.51769 8.93209 2.6425 7.14192C2.84581 5.61548 3.63977 4.51075 4.83313 3.55817C6.90161 2.10283 9.02691 2.28927 11.07 3.63005Z" fill="#0863BA"/>
<path d="M9.07875 5.14623C9.91528 5.61905 10.1864 5.78595 10.56 6.71998C8.8704 6.71998 7.1808 6.71998 5.44 6.71998C5.60413 6.06346 5.65212 5.97038 6.14 5.56998C6.23694 5.48851 6.33388 5.40704 6.43375 5.32311C7.22036 4.76493 8.21764 4.78069 9.07875 5.14623Z" fill="#ECF4FA"/>
</g>
<defs>
<clipPath id="clip0_139_153">
<rect width="16" height="16" fill="white"/>
</clipPath>
</defs>
</svg>
