<?xml version="1.0" encoding="UTF-8"?>
<svg version="1.1" xmlns="http://www.w3.org/2000/svg" width="1938" height="428">
<path d="M0 0 C0.93233459 0.00304138 1.86466919 0.00608276 2.82525635 0.00921631 C17.79115061 0.08110781 32.13847684 0.94818104 46.75 4.4375 C47.63091309 4.64117188 48.51182617 4.84484375 49.41943359 5.0546875 C68.21806824 9.53565688 86.87893399 16.85385051 103.39941406 26.92114258 C106.47098771 28.70019486 108.18578976 29.53632898 111.73828125 28.9140625 C115.28869547 27.17339249 118.81455863 25.4062341 122.3125 23.5625 C142.50027116 13.18175652 166.95522845 10.60255758 188.89453125 17.109375 C215.98341073 26.09981241 234.80950842 42.78864341 247.70092773 68.19335938 C253.87983452 80.29123378 261.5252572 89.56944709 274.55859375 94.5 C289.23578688 98.86612385 301.99140302 94.43666047 315.75 89.4375 C330.8655081 84.03840179 346.58404638 79.07526489 362.75 78.4375 C363.59433594 78.39753906 364.43867187 78.35757813 365.30859375 78.31640625 C401.23042475 77.46942827 440.06730906 87.90933236 467.75 111.4375 C468.58144531 112.14261719 469.41289063 112.84773438 470.26953125 113.57421875 C472.8177596 115.80943637 475.29020918 118.10539297 477.75 120.4375 C478.70777344 121.33082031 479.66554688 122.22414063 480.65234375 123.14453125 C508.51790296 149.65222527 527.68418449 190.3611385 529.03125 228.8984375 C529.9256213 273.00309606 513.62774211 313.44530903 483.453125 345.65625 C482.56109375 346.5740625 481.6690625 347.491875 480.75 348.4375 C480.20923828 348.99800049 479.66847656 349.55850098 479.11132812 350.13598633 C457.22275368 372.4973491 427.83492979 384.02615274 397.73828125 390.296875 C390.91587833 391.77834862 384.54334622 393.96204557 378.23413086 396.93701172 C351.75252476 409.40753561 320.86726118 411.19287064 292.75 403.4375 C292.09467285 403.26621582 291.4393457 403.09493164 290.76416016 402.91845703 C270.39498835 397.47167875 253.86277485 385.63055779 238.17285156 372.03320312 C227.86273283 363.16367632 217.55720447 355.31727392 204.75 350.4375 C204.07066406 350.17324219 203.39132812 349.90898437 202.69140625 349.63671875 C189.38390494 345.42983124 175.27287763 349.03511404 163.1875 355 C157.69506893 358.15675284 153.26465663 362.29370734 148.71875 366.640625 C145.15431033 370.04262276 141.35028349 373.11757891 137.5078125 376.19921875 C135.64352189 377.71230447 133.80518836 379.25785345 131.9921875 380.83203125 C123.77439433 387.94142998 115.02518228 393.80323357 105.75 399.4375 C105.04101562 399.87094727 104.33203125 400.30439453 103.6015625 400.75097656 C75.64249975 417.63650942 41.49795276 428.36305456 8.6953125 428.67578125 C7.84453629 428.6855751 6.99376007 428.69536896 6.11720276 428.70545959 C-20.74210217 428.95076887 -45.59740172 427.04270435 -71.25 418.4375 C-72.52254639 418.01259277 -72.52254639 418.01259277 -73.82080078 417.57910156 C-92.66689322 411.14662422 -111.19467686 402.3034604 -127.25 390.4375 C-128.29929687 389.67050781 -129.34859375 388.90351563 -130.4296875 388.11328125 C-138.15082355 382.37487639 -145.31714304 376.10323075 -152.25 369.4375 C-152.85134766 368.86338379 -153.45269531 368.28926758 -154.07226562 367.69775391 C-162.63688046 359.48088518 -170.38623985 351.12341534 -177.25 341.4375 C-178.40822266 339.85582031 -178.40822266 339.85582031 -179.58984375 338.2421875 C-211.55230898 293.41908537 -224.38741127 236.38690503 -215.4375 182.2109375 C-209.85215412 151.39523609 -197.72631261 120.83780151 -179.25 95.4375 C-178.55519531 94.47070312 -177.86039063 93.50390625 -177.14453125 92.5078125 C-171.52542571 84.84991646 -165.47648023 77.60196565 -159.25 70.4375 C-158.45207031 69.51453125 -157.65414062 68.5915625 -156.83203125 67.640625 C-152.87554961 63.14617081 -148.83619191 58.9887476 -144.25390625 55.1328125 C-142.17472642 53.37381826 -140.18825797 51.53492885 -138.1875 49.6875 C-114.41310696 28.60454768 -84.91217311 13.97519504 -54.25 6.125 C-52.9196875 5.77961182 -52.9196875 5.77961182 -51.5625 5.42724609 C-34.53946957 1.30750347 -17.46740462 -0.12206185 0 0 Z " fill="#FB77B7" transform="translate(218.25,-0.4375)"/>
<path d="M0 0 C13.7624167 6.58994027 25.08455637 17.54911995 36 28 C36.88558594 28.83273438 37.77117187 29.66546875 38.68359375 30.5234375 C56.09202189 47.30722626 67.65644292 68.84233031 78.6237793 90.14282227 C82.51325857 97.60270729 86.87586952 104.33180578 92 111 C92.49048828 111.66555908 92.98097656 112.33111816 93.48632812 113.0168457 C101.20169427 123.34634099 114.50462064 129.99568337 127 132 C146.85399102 133.62703868 165.4473241 128.02692591 184.19311523 122.00537109 C205.00277105 115.41333734 227.05060129 116.65255588 248 122 C248.99918457 122.2489502 248.99918457 122.2489502 250.01855469 122.50292969 C271.80172181 128.17221111 291.91452497 141.57921402 308 157 C308.83144531 157.76828125 309.66289063 158.5365625 310.51953125 159.328125 C325.81581579 173.89601503 335.47817877 192.7981058 341 213 C341.17934082 213.65597168 341.35868164 214.31194336 341.54345703 214.98779297 C346.38759415 233.84962181 346.13441091 256.24283755 341 275 C340.83371094 275.63583008 340.66742187 276.27166016 340.49609375 276.92675781 C331.67279568 310.17751998 310.02885536 335.63342955 283 356 C282.28070312 356.7425 281.56140625 357.485 280.8203125 358.25 C276.30248069 361.05330838 271.65774141 360.77030501 266.4375 360.875 C265.32431396 360.9061792 264.21112793 360.9373584 263.06420898 360.96948242 C220.36988188 361.79035112 181.81569127 346.54542613 151 317 C122.90592245 289.03004945 111.01598383 253.45536436 105.5 214.9375 C103.37203471 200.55580198 98.84891136 186.97754174 87.0625 177.5625 C82.97966348 174.78457006 78.63812625 172.68103423 74 171 C73.03191406 170.64292969 72.06382812 170.28585938 71.06640625 169.91796875 C65.36863797 168.33317923 59.36739647 168.65759871 53.5 168.5625 C26.70397779 167.82542039 5.43949175 161.11923653 -14 142 C-14.77214844 141.24074219 -15.54429687 140.48148438 -16.33984375 139.69921875 C-33.01029076 122.28786298 -40.58090654 98.30070392 -40.2109375 74.5390625 C-39.31140262 48.43034017 -26.51611934 23.93042882 -8.12109375 5.91796875 C-5.55257827 3.59542529 -2.97836046 1.75646899 0 0 Z " fill="#F7017E" transform="translate(328,32)"/>
<path d="M0 0 C13.66068532 10.17150099 22.82622669 22.56281873 30.47436523 37.63476562 C36.65327202 49.73264003 44.2986947 59.01085334 57.33203125 63.94140625 C72.00922438 68.3075301 84.76484052 63.87806672 98.5234375 58.87890625 C113.6389456 53.47980804 129.35748388 48.51667114 145.5234375 47.87890625 C146.78994141 47.81896484 146.78994141 47.81896484 148.08203125 47.7578125 C184.00386225 46.91083452 222.84074656 57.35073861 250.5234375 80.87890625 C251.35488281 81.58402344 252.18632813 82.28914063 253.04296875 83.015625 C255.5911971 85.25084262 258.06364668 87.54679922 260.5234375 89.87890625 C261.48121094 90.77222656 262.43898438 91.66554688 263.42578125 92.5859375 C291.29134046 119.09363152 310.45762199 159.80254475 311.8046875 198.33984375 C312.6990588 242.44450231 296.40117961 282.88671528 266.2265625 315.09765625 C265.33453125 316.01546875 264.4425 316.93328125 263.5234375 317.87890625 C262.98267578 318.43940674 262.44191406 318.99990723 261.88476562 319.57739258 C239.84214943 342.09612436 210.15422869 353.52620938 179.92578125 360.12890625 C178.75776978 360.38414062 178.75776978 360.38414062 177.56616211 360.64453125 C175.5234375 360.87890625 175.5234375 360.87890625 172.5234375 359.87890625 C177.33603736 355.45541021 182.15069329 351.11362594 187.3359375 347.12890625 C213.51937128 326.32169476 230.83727107 296.31663245 235.32275391 263.07128906 C238.3674466 229.80931775 231.86975493 196.35956543 210.33203125 170.12890625 C187.67117597 143.52808791 154.80462652 123.82178583 119.5234375 120.87890625 C104.63306337 119.96543193 90.84304433 120.7048627 76.5234375 124.87890625 C75.101521 125.28882813 75.101521 125.28882813 73.65087891 125.70703125 C69.47591217 126.91559169 65.30497356 128.13753171 61.13574219 129.36572266 C41.69157164 135.08551313 21.42708922 139.18003712 2.5 129.30078125 C-0.27362504 127.61380931 -2.87819926 125.82354116 -5.4765625 123.87890625 C-6.18296875 123.35554687 -6.889375 122.8321875 -7.6171875 122.29296875 C-19.77955337 112.47688606 -26.58841836 97.9061111 -33.796875 84.40625 C-49.69909575 54.69420597 -68.86661382 28.24598389 -97.25 9.3359375 C-97.85457031 8.93149414 -98.45914062 8.52705078 -99.08203125 8.11035156 C-100.75197983 7.00719017 -102.43805338 5.92855109 -104.125 4.8515625 C-104.90101563 4.20058594 -105.67703125 3.54960938 -106.4765625 2.87890625 C-106.4765625 1.55890625 -106.4765625 0.23890625 -106.4765625 -1.12109375 C-72.32304158 -20.52266071 -33.46479486 -22.46060556 0 0 Z " fill="#A1B0E9" transform="translate(435.4765625,30.12109375)"/>
<path d="M0 0 C2.32567721 0.00315067 4.65006563 -0.02035554 6.97558594 -0.0456543 C20.07697506 -0.10191431 32.85271439 1.42251425 45.21777344 6.00317383 C45.91668701 6.25881104 46.61560059 6.51444824 47.33569336 6.77783203 C60.059506 11.62162999 69.97551381 18.79889303 79.59277344 28.31567383 C80.27082031 28.93313477 80.94886719 29.5505957 81.64746094 30.18676758 C86.7044037 34.87286787 90.1596079 40.37121128 93.59277344 46.31567383 C94.10839844 47.19739258 94.62402344 48.07911133 95.15527344 48.98754883 C111.93298349 79.92145174 110.91568407 119.10962139 110.89355469 153.22192383 C110.89745534 155.77689685 110.90179275 158.33186923 110.90653992 160.88684082 C110.91391117 166.1740126 110.91377216 171.46111742 110.90844727 176.74829102 C110.90233356 182.85130694 110.9149423 188.95409665 110.93601733 195.05707407 C110.95571399 200.98115121 110.95881576 206.90515752 110.95528221 212.82926941 C110.95579559 215.33319133 110.96103635 217.83711691 110.97109413 220.34101868 C110.98336317 223.8125719 110.97673112 227.28358314 110.96508789 230.75512695 C110.97273163 231.78660858 110.98037537 232.81809021 110.98825073 233.88082886 C110.98123642 234.8219754 110.97422211 235.76312195 110.96699524 236.73278809 C110.96716298 237.55037849 110.96733072 238.3679689 110.96750355 239.21033478 C110.49575421 241.86075508 109.7572353 242.74580417 107.59277344 244.31567383 C104.84293119 244.55014774 102.33109407 244.60923479 99.58886719 244.52270508 C98.79338974 244.50947708 97.99791229 244.49624908 97.17832947 244.48262024 C95.49642969 244.45332459 93.8146318 244.417564 92.13299561 244.37579346 C89.6860025 244.31788029 87.24000883 244.28361781 84.79248047 244.25854492 C80.86714539 244.21602716 76.94332551 244.14283493 73.01879883 244.05322266 C71.41637449 244.01929052 69.81381073 243.99149035 68.21118164 243.96923828 C65.84958718 243.93587641 63.48907333 243.88374691 61.12792969 243.82739258 C60.41242447 243.82100266 59.69691925 243.81461273 58.95973206 243.80802917 C56.04987961 243.72107844 54.05495424 243.64163049 51.63793945 241.93701172 C50.12529547 239.59048785 50.33660212 237.82798751 50.46777344 235.06567383 C50.65352544 230.68192658 50.29371974 226.65075715 49.59277344 222.31567383 C48.94953125 222.87254883 48.30628906 223.42942383 47.64355469 224.00317383 C26.99998241 241.43683259 5.53051424 248.97207413 -21.40722656 247.31567383 C-46.15881291 244.84160031 -69.59293989 233.88405848 -85.5300293 214.60229492 C-99.36270457 196.93724851 -105.96396345 176.00820814 -110.40722656 154.31567383 C-110.65601563 153.11040039 -110.90480469 151.90512695 -111.16113281 150.66333008 C-116.9437822 116.00787185 -111.32459554 73.92697699 -91.40722656 44.31567383 C-73.3695169 19.98958832 -48.67515483 5.44810953 -18.89648438 0.70825195 C-12.60765785 0.00069297 -6.32289428 -0.01783516 0 0 Z M-38.40722656 76.31567383 C-45.7002154 86.06103035 -49.74935735 98.32946999 -51.40722656 110.31567383 C-51.5296875 111.17805664 -51.65214844 112.04043945 -51.77832031 112.92895508 C-54.14519942 134.05554267 -51.18474603 156.71193462 -38.30566406 174.16333008 C-29.41028068 184.58318729 -19.15866141 191.08786715 -5.40722656 192.31567383 C8.40171064 193.17370488 21.76125523 190.15985624 32.49902344 181.21801758 C46.90487664 168.12911738 52.8235477 148.41912542 53.79589844 129.32739258 C54.18162053 107.92723441 50.71399064 86.44951082 35.60839844 70.19458008 C26.40298262 61.61356262 14.49038904 57.43888796 1.96777344 56.87817383 C-14.40401235 57.8448888 -27.88222829 63.66308198 -38.40722656 76.31567383 Z " fill="#211C37" transform="translate(1197.4072265625,114.684326171875)"/>
<path d="M0 0 C0.80953125 0.74894531 1.6190625 1.49789062 2.453125 2.26953125 C3.20239258 2.94943115 3.20239258 2.94943115 3.96679688 3.64306641 C31.04390773 28.43666341 40.80504754 64.05827335 42.58203125 99.8671875 C43.31822658 131.62174616 33.08367234 166.49507126 11.453125 190.26953125 C10.57011719 191.24535156 9.68710938 192.22117187 8.77734375 193.2265625 C-9.40883502 212.66727781 -34.83817906 222.16510224 -61.24072266 223.39501953 C-92.37997349 224.43143213 -121.07870991 218.35918259 -145.546875 198.26953125 C-146.24941406 197.73070312 -146.95195313 197.191875 -147.67578125 196.63671875 C-166.57567295 181.44044219 -178.22902343 156.09129764 -182.18725586 132.62036133 C-183.02810917 124.78552654 -182.89010813 116.89040775 -182.859375 109.01953125 C-182.85788452 108.08466888 -182.85639404 107.14980652 -182.8548584 106.18661499 C-182.79899711 86.73458768 -181.60249528 67.88799768 -175.546875 49.26953125 C-175.33691895 48.61936035 -175.12696289 47.96918945 -174.91064453 47.29931641 C-166.62157556 22.13112661 -149.14862325 0.54869226 -125.54003906 -11.77832031 C-116.56895208 -16.18783764 -107.28543374 -19.45050029 -97.546875 -21.73046875 C-96.59554688 -21.95605469 -95.64421875 -22.18164062 -94.6640625 -22.4140625 C-63.05927084 -28.52432222 -24.8128405 -21.39474512 0 0 Z M-106.18359375 49.20703125 C-119.85972796 67.40089968 -126.25378331 89.91660327 -123.24951172 112.50537109 C-120.44456792 129.37656065 -113.26607224 147.65772964 -99.78125 158.73828125 C-87.47404297 167.17259097 -72.64421686 169.29421949 -58.1640625 166.65234375 C-45.81661557 163.00936332 -37.0668795 155.18874758 -30.546875 144.26953125 C-18.91962774 122.84949801 -15.65768847 96.78683467 -22.546875 73.26953125 C-27.42627745 58.64919718 -35.57340045 45.86337146 -49.421875 38.39453125 C-69.08603352 29.48709894 -91.69937374 32.06103333 -106.18359375 49.20703125 Z " fill="#211C37" transform="translate(1895.546875,138.73046875)"/>
<path d="M0 0 C1.63684753 -0.01418472 1.63684753 -0.01418472 3.3067627 -0.02865601 C5.07400696 -0.01954697 5.07400696 -0.01954697 6.87695312 -0.01025391 C8.69108704 -0.01455917 8.69108704 -0.01455917 10.54187012 -0.01895142 C13.10067208 -0.02099426 15.65948957 -0.01544908 18.21826172 -0.00292969 C22.14260667 0.01311981 26.06592159 -0.00277203 29.99023438 -0.02197266 C32.47330957 -0.01999026 34.95638413 -0.01614668 37.43945312 -0.01025391 C38.61761597 -0.0163266 39.79577881 -0.02239929 41.00964355 -0.02865601 C42.10087524 -0.01919952 43.19210693 -0.00974304 44.31640625 0 C45.27776489 0.00238678 46.23912354 0.00477356 47.22961426 0.00723267 C50.1536652 0.46590228 50.85135534 1.09496773 52.65820312 3.38818359 C53.03737736 5.35575962 53.03737736 5.35575962 53.04347229 7.63612366 C53.05312012 8.50298798 53.06276794 9.36985229 53.07270813 10.26298523 C53.06813095 11.21188126 53.06355377 12.16077728 53.05883789 13.13842773 C53.06930649 14.64188751 53.06930649 14.64188751 53.07998657 16.17572021 C53.10006157 19.50834435 53.09946368 22.84066036 53.09960938 26.17333984 C53.1113908 28.50574062 53.12475689 30.83813388 53.13963318 33.17051697 C53.17593365 39.34027508 53.19603163 45.50996693 53.21118164 51.67980957 C53.23590583 61.47153869 53.27659236 71.26312053 53.3330822 81.05471611 C53.34908917 84.43837497 53.35316225 87.82189009 53.35609436 91.20558167 C52.09566939 131.21433397 52.09566939 131.21433397 67.90820312 166.26318359 C76.31199813 173.91631282 87.62507369 177.14116239 98.83398438 177.48583984 C111.39777266 176.81772659 122.72765862 171.84892985 131.40820312 162.70068359 C144.79432558 146.24690808 143.13957022 123.73623125 143.26744843 103.7828908 C143.29413398 100.21631712 143.33939894 96.64998381 143.38330078 93.08358765 C143.50063516 83.29065845 143.59063832 73.4975186 143.67904663 63.7042923 C143.76064878 54.67966024 143.84810921 45.6552021 143.95988274 36.63088644 C144.01153882 32.39313441 144.04888654 28.15557064 144.07530212 23.91758943 C144.09910079 20.67930065 144.14190917 17.44125159 144.18164062 14.203125 C144.18484314 13.029207 144.18804565 11.855289 144.19134521 10.64579773 C144.20796204 9.58074509 144.22457886 8.51569244 144.24169922 7.41836548 C144.2538295 6.02536696 144.2538295 6.02536696 144.26620483 4.60422707 C144.39556427 3.87293272 144.52492371 3.14163837 144.65820312 2.38818359 C147.97529533 0.17678879 149.04192209 0.12889317 152.90820312 0.09765625 C153.97941406 0.08489655 155.050625 0.07213684 156.15429688 0.05899048 C157.88873047 0.05565201 157.88873047 0.05565201 159.65820312 0.05224609 C160.84542969 0.04558929 162.03265625 0.0389325 163.25585938 0.03207397 C165.76756234 0.02194281 168.27929225 0.0172571 170.79101562 0.01757812 C174.64302614 0.01320084 178.49389512 -0.02312754 182.34570312 -0.06103516 C184.78319919 -0.06690222 187.22070072 -0.07087235 189.65820312 -0.07275391 C190.81449219 -0.08712494 191.97078125 -0.10149597 193.16210938 -0.11630249 C194.23332031 -0.11014923 195.30453125 -0.10399597 196.40820312 -0.09765625 C197.35179687 -0.10050629 198.29539062 -0.10335632 199.26757812 -0.10629272 C201.65820312 0.38818359 201.65820312 0.38818359 203.46305847 1.81573486 C205.32315621 5.8194394 205.06663032 9.67069859 205.03051758 14.03320312 C205.03416824 15.01305176 205.03781891 15.99290039 205.0415802 17.00244141 C205.04971276 20.25880052 205.03602369 23.51466498 205.02148438 26.77099609 C205.02096485 29.06037394 205.02148611 31.34975223 205.022995 33.63912964 C205.02290507 38.46293726 205.01245738 43.28657852 204.99438477 48.11035156 C204.97207564 54.18843688 204.97126594 60.26627344 204.97764301 66.34438801 C205.06726905 179.61291536 205.06726905 179.61291536 173.21679688 213.88037109 C163.90166384 223.01062362 153.51098024 229.12062156 141.65820312 234.38818359 C140.03785156 235.11328125 140.03785156 235.11328125 138.38476562 235.85302734 C113.02432708 246.36131989 84.32981274 247.35542459 58.65820312 237.38818359 C32.3660841 226.11086886 12.6191769 205.8876262 1.86767578 179.44384766 C-9.21319059 150.38001806 -8.4949806 117.54736103 -8.54492188 86.89208984 C-8.54774925 85.70979231 -8.55057663 84.52749477 -8.55348969 83.30937004 C-8.56834354 77.0813259 -8.57766617 70.8533042 -8.58203125 64.62524414 C-8.5875692 58.19589372 -8.61174647 51.76674941 -8.6400032 45.33746433 C-8.65856736 40.37822337 -8.66383133 35.41903345 -8.66536713 30.45976067 C-8.66839635 28.08701356 -8.6764339 25.71426741 -8.68955231 23.34155464 C-8.7065198 20.04386176 -8.70475809 16.74669285 -8.69824219 13.44897461 C-8.70745697 12.46880875 -8.71667175 11.48864288 -8.72616577 10.47877502 C-8.72059662 9.58352112 -8.71502747 8.68826721 -8.70928955 7.7658844 C-8.71075611 6.98822503 -8.71222267 6.21056566 -8.71373367 5.40934086 C-7.80363956 0.46376047 -4.46079259 0.01107488 0 0 Z " fill="#211C37" transform="translate(1338.341796875,114.61181640625)"/>
<path d="M0 0 C1.64613462 1.45560978 3.27258267 2.93389841 4.875 4.4375 C5.6484375 5.13230469 6.421875 5.82710937 7.21875 6.54296875 C31.59397016 29.45734524 39.77125459 65.19317922 40.94895935 97.46409988 C41.10094328 103.08837502 41.16278154 108.71400803 41.2265625 114.33984375 C41.24978682 116.18461814 41.27317715 118.02939045 41.29672241 119.87416077 C41.34499119 123.74298251 41.38988525 127.61182621 41.43261719 131.48071289 C41.4758821 135.36556481 41.5243152 139.25028971 41.578125 143.13500977 C41.75895245 156.23585771 41.87653003 169.33531232 41.875 182.4375 C41.87505539 183.35163918 41.87511078 184.26577835 41.87516785 185.20761871 C41.86992605 190.51002131 41.83138578 195.81054165 41.74604416 201.11227608 C41.72284011 202.73435449 41.70778506 204.35657217 41.70131302 205.97880363 C41.68993712 208.19870619 41.64711592 210.41573621 41.59521484 212.63500977 C41.57711761 213.8825856 41.55902039 215.13016144 41.54037476 216.4155426 C40.875 219.4375 40.875 219.4375 38.65409851 221.33938599 C35.76776585 222.47987177 33.77805246 222.81201665 30.68920898 222.80981445 C29.17755409 222.81915764 29.17755409 222.81915764 27.63536072 222.82868958 C26.55815262 222.81947983 25.48094452 222.81027008 24.37109375 222.80078125 C23.25565689 222.80127975 22.14022003 222.80177826 20.99098206 222.80229187 C18.63662939 222.79995458 16.28227407 222.79024646 13.92797852 222.77368164 C10.32220153 222.75006355 6.71716295 222.75312686 3.11132812 222.75976562 C0.82291225 222.75418952 -1.4655005 222.74708007 -3.75390625 222.73828125 C-5.37275475 222.73964836 -5.37275475 222.73964836 -7.02430725 222.74104309 C-8.02892502 222.73151108 -9.03354279 222.72197906 -10.06860352 222.7121582 C-10.95064957 222.70755081 -11.83269562 222.70294342 -12.74147034 222.69819641 C-15.3456219 222.41336968 -16.95105066 221.89428937 -19.125 220.4375 C-20.07609334 217.58421998 -20.25585335 215.79912095 -20.26976013 212.83874512 C-20.28010788 211.42230461 -20.28010788 211.42230461 -20.29066467 209.97724915 C-20.29458473 208.42520027 -20.29458473 208.42520027 -20.29858398 206.84179688 C-20.305271 205.75021774 -20.31195801 204.65863861 -20.31884766 203.53398132 C-20.33291679 201.15717188 -20.34480488 198.78034877 -20.35479546 196.40351868 C-20.37122594 192.6258561 -20.39447247 188.84829221 -20.41969299 185.07067871 C-20.49035794 174.32695334 -20.55018702 163.58318814 -20.60180664 152.83935547 C-20.63346463 146.26760116 -20.67523815 139.69594683 -20.72200203 133.12428284 C-20.73787402 130.63361089 -20.75026254 128.14291393 -20.75890923 125.65220642 C-19.92830673 88.07447214 -19.92830673 88.07447214 -35.828125 55.328125 C-47.1196751 46.03371981 -60.01825664 44.27981332 -74.125 45.4375 C-85.18470939 47.71986927 -94.59118937 54.32283417 -101.125 63.4375 C-109.83728517 77.0267709 -110.26105079 93.96690709 -110.29858398 109.63256836 C-110.305271 110.80939178 -110.31195801 111.98621521 -110.31884766 113.19869995 C-110.33282337 115.73639359 -110.34474071 118.27409924 -110.35479546 120.81181145 C-110.37128992 124.82507271 -110.39431735 128.83824369 -110.41969299 132.85145569 C-110.49057966 144.25549535 -110.55086266 155.65957487 -110.60180664 167.0637207 C-110.63009016 173.37885114 -110.66544308 179.69390264 -110.70846039 186.00895029 C-110.73083292 189.34506134 -110.74819354 192.68108413 -110.75890923 196.01725578 C-110.77101045 199.72768243 -110.7951333 203.43784873 -110.82202148 207.14819336 C-110.82261063 208.25313644 -110.82319977 209.35807953 -110.82380676 210.49650574 C-110.83352509 211.50429077 -110.84324341 212.51207581 -110.85325623 213.55039978 C-110.85748816 214.42694182 -110.8617201 215.30348387 -110.86608028 216.20658779 C-111.125 218.4375 -111.125 218.4375 -113.125 221.4375 C-115.14897156 221.9433136 -115.14897156 221.9433136 -117.61206055 222.11450195 C-118.51105072 222.17876373 -119.41004089 222.24302551 -120.33627319 222.30923462 C-124.67051799 222.50858493 -128.99333056 222.59993989 -133.33203125 222.60546875 C-134.26045334 222.60879715 -135.18887543 222.61212555 -136.14543152 222.61555481 C-138.08905548 222.62057699 -140.03268792 222.62296461 -141.97631836 222.62280273 C-144.94724485 222.62500723 -147.91780996 222.64326152 -150.88867188 222.66210938 C-152.78645707 222.66504073 -154.68424402 222.66702725 -156.58203125 222.66796875 C-157.46542679 222.67515427 -158.34882233 222.68233978 -159.25898743 222.68974304 C-160.08722519 222.68666641 -160.91546295 222.68358978 -161.76879883 222.68041992 C-162.85273674 222.68255745 -162.85273674 222.68255745 -163.95857239 222.68473816 C-166.58484136 222.38502175 -168.69404498 221.44967657 -171.125 220.4375 C-171.17207096 204.55403234 -171.20715845 188.67058402 -171.22862434 172.7870636 C-171.23886368 165.40928797 -171.25278027 158.0315561 -171.27587891 150.65380859 C-171.29604114 144.21078647 -171.30876949 137.76779608 -171.31317699 131.32474327 C-171.31574649 127.92462602 -171.3216248 124.52459941 -171.33646011 121.12451172 C-171.47916533 84.25584326 -170.89231886 43.68537174 -145.125 14.4375 C-144.46113281 13.63183594 -143.79726563 12.82617188 -143.11328125 11.99609375 C-137.50209131 5.39765675 -131.25317906 0.32809173 -124.125 -4.5625 C-123.34769531 -5.10648438 -122.57039062 -5.65046875 -121.76953125 -6.2109375 C-85.64963889 -29.7106265 -33.45736252 -26.7190965 0 0 Z " fill="#211C37" transform="translate(1021.125,136.5625)"/>
<path d="M0 0 C1.0310939 -0.00622879 2.06218781 -0.01245758 3.12452698 -0.01887512 C4.78559731 -0.0050605 4.78559731 -0.0050605 6.48022461 0.0090332 C7.62164413 0.0085347 8.76306366 0.00803619 9.93907166 0.00752258 C12.35067487 0.00986211 14.76228056 0.01958345 17.17382812 0.03613281 C20.87188459 0.05974623 24.56922119 0.05668994 28.26733398 0.05004883 C30.60913517 0.05562486 32.95093331 0.06273426 35.29272461 0.0715332 C36.40212906 0.0706218 37.51153351 0.06971039 38.65455627 0.06877136 C39.68249802 0.07830338 40.71043976 0.08783539 41.76953125 0.09765625 C43.12710289 0.10456734 43.12710289 0.10456734 44.51210022 0.11161804 C46.82006836 0.37231445 46.82006836 0.37231445 49.82006836 2.37231445 C50.21206665 4.80126953 50.21206665 4.80126953 50.23657227 7.8918457 C50.25313873 9.04644287 50.2697052 10.20104004 50.28677368 11.390625 C50.29002655 12.64270752 50.29327942 13.89479004 50.29663086 15.18481445 C50.32042996 17.13981736 50.34423328 19.09482022 50.36829185 21.04981995 C50.39832217 23.79305744 50.4147203 26.53631661 50.43133545 29.27966309 C50.46284036 34.08045106 50.51386777 38.88105838 50.56771851 43.68164062 C50.59502718 46.23903695 50.61634244 48.79650527 50.6312561 51.35400391 C50.64151825 52.50860107 50.6517804 53.66319824 50.66235352 54.8527832 C50.66884918 55.87267334 50.67534485 56.89256348 50.68203735 57.94335938 C50.65987682 60.38172072 50.65987682 60.38172072 51.82006836 62.37231445 C52.41475418 62.37818069 53.00944 62.38404694 53.62214661 62.39009094 C59.8027759 62.45394568 65.98288066 62.53834438 72.16308594 62.63476562 C74.47063285 62.66805302 76.77826193 62.69607295 79.0859375 62.71875 C82.40001498 62.75222553 85.71333681 62.80453844 89.02709961 62.8605957 C90.06155716 62.86698563 91.09601471 62.87337555 92.16181946 62.87995911 C93.60297371 62.90965034 93.60297371 62.90965034 95.07324219 62.93994141 C96.3423217 62.95659599 96.3423217 62.95659599 97.63703918 62.97358704 C100.32072613 63.46375894 101.1821771 64.22376804 102.82006836 66.37231445 C103.7794106 69.25034117 103.95171286 71.0810012 103.96533203 74.0715332 C103.97171188 75.02261963 103.97809174 75.97370605 103.98466492 76.95361328 C103.98577774 77.97865967 103.98689056 79.00370605 103.98803711 80.05981445 C103.99302971 81.64088989 103.99302971 81.64088989 103.99812317 83.25390625 C104.00318719 85.48314985 104.00553166 87.71240104 104.00537109 89.94165039 C104.00755968 93.35876883 104.02572688 96.77556557 104.04467773 100.19262695 C104.04761129 102.35668835 104.04959634 104.52075128 104.05053711 106.68481445 C104.05772263 107.70986084 104.06490814 108.73490723 104.0723114 109.79101562 C104.06923477 110.74210205 104.06615814 111.69318848 104.06298828 112.6730957 C104.0644133 113.5101001 104.06583832 114.34710449 104.06730652 115.20947266 C103.82006836 117.37231445 103.82006836 117.37231445 101.82006836 120.37231445 C99.6434021 120.77104187 99.6434021 120.77104187 96.91137695 120.8046875 C95.89046967 120.82448166 94.86956238 120.84427582 93.81771851 120.8646698 C92.71247833 120.87105972 91.60723816 120.87744965 90.46850586 120.8840332 C89.33933746 120.90198441 88.21016907 120.91993561 87.04678345 120.93843079 C83.42958343 120.99274333 79.8125169 121.02649711 76.19506836 121.05981445 C73.74713303 121.09296897 71.29921536 121.12745686 68.85131836 121.16333008 C62.84102141 121.24848171 56.83070761 121.31674254 50.82006836 121.37231445 C50.7504071 133.71641633 50.69717525 146.06047106 50.66463184 158.40472984 C50.64900878 164.13732242 50.6278319 169.86978001 50.59375 175.60229492 C50.56103675 181.13956648 50.5431901 186.67670859 50.53543663 192.21406937 C50.52991457 194.32146872 50.51913153 196.42886138 50.50287819 198.53620529 C50.4809449 201.49914337 50.47810807 204.46155371 50.47949219 207.42456055 C50.46870636 208.28627869 50.45792053 209.14799683 50.44680786 210.03582764 C50.48452432 217.54900148 51.71680259 225.90407514 56.82006836 231.74731445 C66.34176927 241.11799914 79.39156747 239.97006395 91.82006836 239.99731445 C94.49731893 240.01368319 97.17422291 240.03568124 99.85131836 240.06893921 C101.50617486 240.08851162 103.16119115 240.09791031 104.81616211 240.09585571 C108.67374896 240.13188502 110.53472274 240.18208404 113.82006836 242.37231445 C114.18083191 244.77676392 114.18083191 244.77676392 114.16064453 247.83178711 C114.16041794 248.97281891 114.16019135 250.11385071 114.15995789 251.28945923 C114.14447403 252.52594208 114.12899017 253.76242493 114.11303711 255.03637695 C114.10879227 256.29872162 114.10454742 257.56106628 114.10017395 258.86166382 C114.08619973 262.21892796 114.05924138 265.57558377 114.02606201 268.93267822 C113.99538188 272.35781594 113.98167306 275.78301646 113.96655273 279.20825195 C113.93341477 285.92977495 113.88316375 292.65100957 113.82006836 299.37231445 C110.77436074 301.13045711 108.56507684 301.62740934 105.06176758 301.64697266 C104.11913055 301.65650467 103.17649353 301.66603668 102.20529175 301.67585754 C100.68042648 301.67449043 100.68042648 301.67449043 99.12475586 301.6730957 C97.53257736 301.67952339 97.53257736 301.67952339 95.90823364 301.68608093 C93.65375479 301.69182768 91.3992574 301.69232197 89.14477539 301.68798828 C85.75625144 301.68487074 82.36863785 301.70813413 78.98022461 301.73364258 C51.97287866 301.81350849 28.81409753 297.96037349 8.82006836 278.37231445 C7.8784082 277.48479492 7.8784082 277.48479492 6.91772461 276.5793457 C-8.25111161 260.99775204 -11.36780196 237.76703798 -11.29345703 217.04760742 C-11.29367607 215.42144753 -11.29367607 215.42144753 -11.29389954 213.76243591 C-11.29320818 210.21310356 -11.28545244 206.66382503 -11.27758789 203.11450195 C-11.27572095 200.64014718 -11.27429835 198.16579204 -11.27330017 195.69143677 C-11.26949675 189.20437587 -11.25968517 182.71733764 -11.24859619 176.23028564 C-11.23833517 169.60054818 -11.23379253 162.9708078 -11.22875977 156.34106445 C-11.21806083 143.35147149 -11.20120513 130.36189418 -11.17993164 117.37231445 C-10.51993164 117.37231445 -9.85993164 117.37231445 -9.17993164 117.37231445 C-9.18361881 116.78755435 -9.18730598 116.20279425 -9.19110489 115.60031414 C-9.27939958 101.37909706 -9.34561367 87.15792101 -9.38718033 72.93648815 C-9.40781542 66.05912121 -9.43595372 59.1819371 -9.48168945 52.3046875 C-9.52577983 45.67169407 -9.54904846 39.03884109 -9.55944061 32.40569496 C-9.56684947 29.87104611 -9.58131657 27.33640803 -9.60285187 24.80183983 C-9.63175532 21.26023985 -9.63589299 17.7194327 -9.6340332 14.17773438 C-9.64841431 13.12253601 -9.66279541 12.06733765 -9.6776123 10.98016357 C-9.67211365 10.01682602 -9.66661499 9.05348846 -9.66094971 8.06095886 C-9.66463688 7.22304904 -9.66832405 6.38513922 -9.67212296 5.52183819 C-9.17993164 3.37231445 -9.17993164 3.37231445 -7.3020525 1.60266304 C-4.68663718 0.0863156 -3.01345537 -0.0020939 0 0 Z " fill="#211C37" transform="translate(1578.179931640625,57.627685546875)"/>
</svg>
