<?xml version="1.0" encoding="UTF-8"?>
<svg xmlns="http://www.w3.org/2000/svg" xmlns:xlink="http://www.w3.org/1999/xlink" width="512px" height="512px" viewBox="0 0 512 512" version="1.1">
<g id="surface1">
<path style=" stroke:none;fill-rule:nonzero;fill:rgb(88.627451%,88.627451%,88.627451%);fill-opacity:1;" d="M 256.335938 363.871094 C 253.1875 367.367188 250.109375 370.808594 247.0625 374.269531 C 241.285156 380.824219 235.523438 387.398438 229.753906 393.957031 C 222.636719 402.046875 215.519531 410.136719 208.402344 418.21875 C 201.160156 426.445312 193.910156 434.664062 186.671875 442.890625 C 180.960938 449.382812 175.207031 455.839844 169.566406 462.394531 C 164.433594 468.359375 158.105469 471.488281 150.148438 471.480469 C 114.148438 471.429688 78.148438 471.460938 42.144531 471.457031 C 32.542969 471.453125 24.140625 465.390625 20.648438 457.042969 C 19.644531 454.644531 19.046875 452.140625 18.851562 449.5 C 18.339844 442.621094 20.789062 436.863281 25.015625 431.617188 C 30.648438 424.613281 36.144531 417.5 41.730469 410.460938 C 47.890625 402.699219 54.089844 394.976562 60.257812 387.222656 C 66.707031 379.117188 73.148438 371.003906 79.589844 362.886719 C 85.910156 354.914062 92.21875 346.929688 98.542969 338.957031 C 104.980469 330.839844 111.429688 322.730469 117.867188 314.613281 C 124.191406 306.640625 130.5 298.660156 136.828125 290.6875 C 145.457031 279.816406 154.089844 268.945312 162.746094 258.09375 C 163.210938 257.511719 163.210938 257.195312 162.742188 256.605469 C 153.734375 245.253906 144.757812 233.878906 135.773438 222.507812 C 130.046875 215.261719 124.320312 208.015625 118.597656 200.769531 C 108.328125 187.769531 98.0625 174.765625 87.800781 161.765625 C 78.226562 149.640625 68.664062 137.507812 59.082031 125.386719 C 52.894531 117.566406 46.667969 109.773438 40.488281 101.949219 C 34.34375 94.164062 28.097656 86.453125 22.140625 78.523438 C 15.929688 70.25 16.265625 58.550781 22.480469 50.457031 C 26.367188 45.390625 31.496094 42.378906 37.824219 41.335938 C 39.25 41.101562 40.652344 41.109375 42.0625 41.109375 C 78.109375 41.09375 114.15625 41.121094 150.203125 41.078125 C 158.046875 41.070312 164.316406 44.140625 169.421875 49.996094 C 178.019531 59.859375 186.703125 69.652344 195.34375 79.480469 C 204.472656 89.863281 213.589844 100.253906 222.722656 110.636719 C 232.433594 121.679688 242.152344 132.714844 251.871094 143.753906 C 253.273438 145.347656 254.675781 146.945312 256.164062 148.589844 C 257.820312 149.738281 258.84375 151.363281 260.105469 152.761719 C 264.15625 157.246094 268.035156 161.878906 272.214844 166.382812 C 274.597656 169.332031 277.132812 172.019531 279.554688 174.800781 C 283.402344 179.222656 287.285156 183.613281 291.164062 188.003906 C 294.253906 191.5 297.339844 194.992188 300.417969 198.492188 C 304.074219 202.652344 307.730469 206.808594 311.382812 210.976562 C 314.394531 214.410156 317.417969 217.835938 320.4375 221.265625 C 323.546875 224.800781 326.664062 228.328125 329.765625 231.871094 C 331.40625 233.746094 333.03125 235.632812 334.800781 237.53125 C 337.8125 240.773438 340.550781 244.097656 341.917969 248.285156 C 343.886719 254.308594 343.757812 260.257812 341.164062 266.128906 C 339.484375 269.9375 336.707031 272.890625 333.914062 275.988281 C 329.988281 280.417969 326.152344 284.785156 322.316406 289.160156 C 319.304688 292.59375 316.285156 296.027344 313.273438 299.460938 C 310.257812 302.894531 307.230469 306.320312 304.210938 309.75 C 301.132812 313.25 298.054688 316.75 294.976562 320.25 C 291.960938 323.683594 288.933594 327.109375 285.917969 330.539062 C 282.808594 334.074219 279.667969 337.578125 276.597656 341.148438 C 275.214844 342.757812 273.730469 344.277344 272.347656 346.019531 C 268.710938 349.894531 265.398438 353.921875 261.894531 357.777344 C 260.066406 359.789062 258.460938 362.003906 256.335938 363.871094 Z M 256.335938 363.871094 "/>
<path style=" stroke:none;fill-rule:nonzero;fill:rgb(22.745098%,84.313725%,36.470588%);fill-opacity:1;" d="M 429.238281 358.386719 C 432.460938 362.359375 435.625 366.273438 438.753906 370.214844 C 448.183594 382.078125 457.605469 393.953125 467.019531 405.828125 C 474.398438 415.132812 481.949219 424.304688 489.101562 433.78125 C 499.625 447.710938 491.570312 467.917969 474.398438 471.128906 C 472.855469 471.417969 471.289062 471.472656 469.714844 471.472656 C 433.992188 471.460938 398.273438 471.421875 362.550781 471.492188 C 354.460938 471.507812 348.066406 468.34375 342.847656 462.292969 C 336.382812 454.800781 329.796875 447.414062 323.261719 439.984375 C 316.085938 431.824219 308.914062 423.660156 301.734375 415.5 C 294.582031 407.378906 287.421875 399.269531 280.269531 391.148438 C 275.53125 385.769531 270.804688 380.382812 266.035156 374.910156 C 265.554688 374.222656 265.933594 373.769531 266.3125 373.363281 C 268.648438 370.875 271.207031 368.640625 273.769531 366.386719 C 275.320312 365.023438 277.546875 364.597656 278.617188 362.675781 C 280.800781 362.253906 281.894531 360.0625 284.03125 359.425781 C 285.53125 360.34375 286.417969 361.738281 287.480469 362.945312 C 292.632812 368.816406 297.804688 374.671875 302.96875 380.535156 C 308.070312 386.328125 313.179688 392.117188 318.28125 397.910156 C 323.324219 403.636719 328.359375 409.367188 333.390625 415.101562 C 337.84375 420.171875 342.324219 425.222656 346.785156 430.289062 C 350.394531 434.382812 354.003906 438.472656 357.589844 442.582031 C 358.746094 443.90625 359.9375 445.199219 361.082031 446.53125 C 361.714844 447.261719 362.457031 447.585938 363.402344 447.503906 C 363.632812 447.480469 363.867188 447.5 364.097656 447.5 C 397.875 447.5 431.652344 447.5 465.429688 447.5 C 466.125 447.5 466.820312 447.527344 467.507812 447.414062 C 468.898438 447.183594 468.96875 447.03125 468.121094 445.945312 C 466.1875 443.460938 464.226562 441 462.269531 438.539062 C 447.828125 420.347656 433.398438 402.152344 418.976562 383.949219 C 412.136719 375.320312 405.277344 366.707031 398.449219 358.066406 C 398.222656 357.777344 397.972656 357.5 397.765625 357.074219 C 397.660156 356.679688 397.726562 356.355469 397.515625 355.988281 C 397.46875 355.839844 397.464844 355.777344 397.476562 355.621094 C 398.859375 355.4375 400.15625 354.808594 401.546875 355.050781 C 401.917969 355.113281 402.261719 355.125 402.632812 355.050781 C 404.078125 354.765625 404.460938 354.957031 405.261719 356.335938 C 406.101562 355.019531 407.070312 354.96875 408.183594 355.976562 C 408.667969 356.417969 409.292969 356.417969 409.847656 356.023438 C 410.398438 355.632812 411.085938 355.6875 411.636719 355.480469 C 413.40625 354.808594 414.972656 355.617188 416.632812 355.8125 C 418.550781 356.039062 420.417969 355.125 422.378906 355.480469 C 423.21875 355.632812 424.082031 355.667969 424.972656 355.546875 C 425.789062 355.429688 426.601562 355.789062 427.199219 356.453125 C 427.535156 356.828125 427.839844 357.246094 428.441406 357.433594 C 428.539062 357.445312 428.570312 357.480469 428.585938 357.496094 C 428.558594 357.945312 428.953125 358.078125 429.238281 358.386719 Z M 429.238281 358.386719 "/>
<path style=" stroke:none;fill-rule:nonzero;fill:rgb(10.980392%,69.803922%,23.921569%);fill-opacity:1;" d="M 301.308594 97.800781 C 304.480469 93.996094 307.707031 90.25 310.964844 86.53125 C 316.820312 79.855469 322.652344 73.164062 328.566406 66.546875 C 334.328125 60.101562 339.71875 53.3125 345.871094 47.234375 C 350 43.152344 355.214844 41.128906 361.023438 41.125 C 397.898438 41.074219 434.777344 41.089844 471.65625 41.105469 C 482.21875 41.109375 491.894531 48.859375 494.203125 59.195312 C 496.042969 67.425781 493.816406 74.570312 488.542969 81.089844 C 479.480469 92.296875 470.636719 103.683594 461.695312 114.992188 C 460.695312 116.261719 459.671875 117.515625 458.585938 118.828125 C 458.320312 118.996094 458.164062 118.933594 458.054688 118.757812 C 457.800781 118.355469 457.914062 117.6875 457.238281 117.589844 C 456.46875 117.480469 455.695312 117.15625 454.917969 117.476562 C 454.125 117.800781 453.347656 117.71875 452.640625 117.34375 C 451.9375 116.964844 451.457031 117.148438 450.917969 117.636719 C 450.125 118.355469 449.257812 118.359375 448.214844 118.039062 C 446.65625 117.550781 444.988281 117.324219 443.367188 117.304688 C 441.585938 117.285156 439.796875 117.28125 438.011719 117.242188 C 437.78125 117.238281 437.542969 117.246094 437.332031 117.347656 C 435.636719 118.160156 433.933594 117.945312 432.222656 117.402344 C 431.925781 117.304688 431.691406 117.492188 431.429688 117.570312 C 430.851562 117.75 430.441406 117.542969 430.148438 116.910156 C 430.109375 116.097656 430.53125 115.601562 430.933594 115.089844 C 442.761719 100.082031 454.617188 85.09375 466.472656 70.105469 C 467.476562 68.835938 468.453125 67.542969 469.46875 66.28125 C 469.691406 66.003906 470.101562 65.738281 469.949219 65.347656 C 469.789062 64.921875 469.308594 65.117188 468.964844 65.082031 C 468.6875 65.054688 468.410156 65.074219 468.128906 65.074219 C 433.472656 65.074219 398.8125 65.085938 364.152344 65.046875 C 362.632812 65.046875 361.539062 65.445312 360.539062 66.601562 C 354.164062 73.988281 347.660156 81.265625 341.238281 88.609375 C 338.378906 91.882812 335.5 95.136719 332.625 98.394531 C 332.257812 98.8125 331.875 99.21875 331.261719 99.5 C 330.457031 99.511719 330.445312 99.082031 330.613281 98.578125 C 330.734375 98.203125 331.078125 97.839844 330.632812 97.46875 C 330.308594 97.425781 330.273438 97.691406 330.140625 97.867188 C 329.574219 98.613281 329.226562 98.574219 328.777344 97.722656 C 328.121094 96.46875 327.503906 96.347656 326.371094 97.246094 C 324.902344 98.414062 324.882812 98.4375 323.566406 97.289062 C 323.117188 96.894531 322.734375 97.046875 322.292969 97.191406 C 321.222656 97.542969 320.160156 97.863281 319.199219 96.890625 C 318.800781 96.488281 318.425781 96.800781 318.09375 97.046875 C 317.480469 97.5 316.847656 97.433594 316.125 97.335938 C 314.910156 97.175781 313.652344 96.636719 312.457031 97.578125 C 311.96875 97.957031 311.398438 97.542969 310.882812 97.351562 C 310.304688 97.132812 309.765625 96.730469 309.152344 97.429688 C 308.753906 97.882812 308.203125 97.503906 307.742188 97.304688 C 306.601562 96.804688 305.601562 96.714844 304.621094 97.789062 C 303.660156 98.835938 302.46875 98.09375 301.308594 97.800781 Z M 301.308594 97.800781 "/>
<path style=" stroke:none;fill-rule:nonzero;fill:rgb(19.607843%,80%,32.54902%);fill-opacity:1;" d="M 428.503906 357.367188 C 427.898438 357.8125 427.484375 357.460938 427.148438 356.972656 C 426.402344 355.886719 425.441406 355.695312 424.210938 356.066406 C 423.414062 356.308594 422.578125 355.90625 421.761719 355.835938 C 420.402344 355.71875 419.175781 356.148438 417.902344 356.222656 C 416.996094 356.277344 415.75 357.035156 414.96875 355.761719 C 414.816406 355.511719 414.515625 355.328125 414.261719 355.421875 C 412.894531 355.941406 411.292969 355.457031 410.039062 356.394531 C 408.996094 357.171875 408.191406 356.582031 407.476562 355.929688 C 406.773438 355.289062 406.332031 355.269531 405.941406 356.191406 C 405.78125 356.570312 405.535156 357.015625 405.066406 356.953125 C 404.441406 356.871094 404.828125 356.304688 404.707031 355.992188 C 404.398438 355.183594 403.644531 355.042969 402.90625 355.3125 C 402.523438 355.449219 402.199219 355.8125 401.777344 355.527344 C 401.003906 355.015625 400.308594 355.121094 399.644531 355.710938 C 399.261719 356.050781 398.882812 355.910156 398.496094 355.707031 C 398.109375 355.503906 397.710938 355.328125 397.464844 356.039062 C 396.65625 356.082031 396.371094 355.421875 395.984375 354.933594 C 390.78125 348.433594 385.621094 341.902344 380.445312 335.378906 C 374.234375 327.550781 368.019531 319.726562 361.820312 311.890625 C 355.851562 304.34375 349.839844 296.832031 343.890625 289.269531 C 343.605469 288.910156 343.257812 288.582031 343.320312 287.964844 C 344.621094 286.527344 346.113281 285.371094 347.6875 284.515625 C 349.351562 283.609375 350.46875 282.277344 351.648438 280.941406 C 352.226562 280.285156 352.765625 279.589844 353.347656 278.933594 C 354.148438 278.023438 355.0625 277.269531 356.410156 277.296875 C 357.828125 277.328125 358.386719 276.167969 358.902344 275.191406 C 360.292969 272.546875 359.976562 272.382812 362.5625 274.703125 C 362.800781 274.914062 362.980469 275.199219 363.378906 275.375 C 366.523438 279.242188 369.601562 283.042969 372.640625 286.867188 C 382.121094 298.792969 391.585938 310.726562 401.054688 322.65625 C 410.0625 334.007812 419.074219 345.359375 428.082031 356.714844 C 428.222656 356.894531 428.339844 357.097656 428.503906 357.367188 Z M 428.503906 357.367188 "/>
<path style=" stroke:none;fill-rule:nonzero;fill:rgb(13.72549%,72.941176%,26.666667%);fill-opacity:1;" d="M 430.160156 116.683594 C 430.648438 117.472656 431.117188 117.777344 431.769531 116.90625 C 431.925781 116.695312 432.300781 116.578125 432.339844 116.71875 C 432.789062 118.34375 434 116.746094 434.617188 117.269531 C 435.667969 118.15625 436.390625 117.023438 437.253906 116.992188 C 438.316406 116.957031 439.40625 116.390625 440.480469 117.046875 C 441.109375 117.429688 441.714844 116.839844 442.359375 116.882812 C 444.535156 117.035156 446.714844 117.101562 448.792969 117.890625 C 449.84375 118.289062 450.585938 117.667969 451.148438 116.921875 C 451.566406 116.367188 451.808594 116.378906 452.355469 116.761719 C 453.089844 117.28125 453.855469 117.570312 454.875 117.085938 C 455.890625 116.609375 457.023438 117.117188 458.050781 117.453125 C 458.714844 117.671875 457.835938 118.414062 458.425781 118.832031 C 456.3125 121.640625 454.089844 124.378906 451.90625 127.152344 C 448.949219 130.910156 446.039062 134.703125 443.074219 138.460938 C 440.171875 142.144531 437.207031 145.785156 434.304688 149.472656 C 427.417969 158.230469 420.554688 167.011719 413.667969 175.777344 C 410.703125 179.554688 407.707031 183.308594 404.640625 187.113281 C 404.285156 187.089844 403.972656 186.917969 403.746094 187.074219 C 401.230469 188.777344 398.449219 187.21875 395.84375 187.730469 C 393.832031 186.40625 391.875 187.101562 389.917969 187.890625 C 389.792969 187.941406 389.617188 187.976562 389.511719 187.910156 C 388.089844 187.035156 386.679688 187.695312 385.265625 187.921875 C 385.128906 187.945312 384.957031 187.984375 384.855469 187.917969 C 382.78125 186.515625 380.726562 187.734375 378.667969 187.949219 C 378.574219 187.957031 378.476562 187.996094 378.390625 187.96875 C 377.011719 187.523438 375.683594 187.910156 374.253906 188.183594 C 373.535156 187.402344 374.242188 186.964844 374.597656 186.511719 C 380.378906 179.113281 386.214844 171.761719 392.03125 164.394531 C 400.289062 153.945312 408.546875 143.496094 416.792969 133.039062 C 420.660156 128.140625 424.554688 123.257812 428.394531 118.335938 C 428.871094 117.726562 429.304688 117.039062 430.160156 116.683594 Z M 430.160156 116.683594 "/>
<path style=" stroke:none;fill-rule:nonzero;fill:rgb(12.54902%,71.372549%,25.490196%);fill-opacity:1;" d="M 301.15625 97.769531 C 301.835938 97.769531 302.433594 97.667969 303.015625 97.902344 C 303.644531 98.152344 304.101562 97.964844 304.558594 97.40625 C 305.457031 96.304688 306.511719 96.140625 307.785156 96.9375 C 308.765625 97.550781 309.328125 97.570312 309.398438 95.957031 C 310.027344 96.898438 310.9375 96.828125 311.582031 97.304688 C 311.8125 97.480469 312.214844 97.558594 312.359375 97.363281 C 313.558594 95.710938 314.992188 96.996094 316.289062 97.074219 C 316.980469 97.117188 317.53125 97.191406 318.039062 96.652344 C 318.578125 96.070312 319.019531 95.769531 319.628906 96.730469 C 320.199219 97.628906 321.179688 97.234375 321.976562 96.933594 C 322.816406 96.621094 323.515625 96.054688 324.097656 97.421875 C 324.480469 98.320312 325.398438 98.023438 325.839844 97.292969 C 326.117188 96.839844 326.445312 96.742188 326.855469 96.539062 C 328.15625 95.890625 328.988281 95.9375 329.058594 97.644531 C 329.070312 97.890625 329.21875 98.109375 329.457031 98.15625 C 329.757812 98.210938 329.828125 97.96875 329.847656 97.722656 C 329.878906 97.3125 329.828125 96.816406 330.375 96.738281 C 330.796875 96.675781 331.003906 97.070312 331.195312 97.375 C 331.464844 97.796875 331.601562 98.214844 331.039062 98.546875 C 330.703125 98.746094 330.617188 99.015625 330.984375 99.386719 C 331.257812 99.917969 330.949219 100.214844 330.65625 100.515625 C 326.714844 104.550781 323.175781 108.941406 319.414062 113.132812 C 316.324219 116.570312 313.292969 120.058594 310.242188 123.527344 C 307.1875 126.996094 304.144531 130.472656 301.085938 133.9375 C 297.996094 137.4375 294.898438 140.925781 291.835938 144.449219 C 289.261719 147.410156 286.636719 150.332031 284.121094 153.347656 C 282.328125 155.496094 280.648438 157.789062 278.320312 159.582031 C 277.542969 159.738281 277.078125 159.390625 276.679688 158.902344 C 272.789062 154.160156 269.0625 149.292969 265.410156 144.367188 C 264.640625 143.335938 263.722656 142.402344 263.15625 141.109375 C 264.550781 138.972656 266.339844 137.246094 267.957031 135.367188 C 271.828125 130.867188 275.761719 126.425781 279.6875 121.96875 C 282.671875 118.585938 285.683594 115.230469 288.667969 111.847656 C 291.132812 109.050781 293.5625 106.226562 296.027344 103.429688 C 297.691406 101.539062 299.390625 99.683594 301.15625 97.769531 Z M 301.15625 97.769531 "/>
<path style=" stroke:none;fill-rule:nonzero;fill:rgb(16.078431%,75.294118%,29.019608%);fill-opacity:1;" d="M 373.851562 187.941406 C 374.363281 187.957031 374.816406 188.078125 375.148438 187.757812 C 375.765625 187.160156 376.503906 187.140625 377.191406 187.4375 C 378.632812 188.0625 380.007812 186.597656 381.433594 187.363281 C 381.488281 187.394531 381.652344 187.339844 381.679688 187.28125 C 382.5 185.582031 383.296875 186.832031 384.074219 187.308594 C 385.125 187.949219 386.09375 187.492188 387.035156 187.082031 C 387.339844 186.949219 387.566406 186.433594 387.933594 186.820312 C 389.175781 188.136719 390.421875 187.3125 391.6875 186.910156 C 392.917969 186.515625 393.992188 186.433594 395.308594 187.15625 C 396.332031 187.714844 397.863281 187.351562 399.167969 187.386719 C 399.300781 187.390625 399.453125 187.246094 399.5625 187.28125 C 401.105469 187.753906 402.535156 187.632812 403.863281 186.625 C 404.054688 186.476562 404.40625 186.621094 404.535156 187.054688 C 404.554688 187.152344 404.550781 187.144531 404.554688 187.144531 C 404.113281 187.3125 403.945312 187.691406 403.769531 188.179688 C 400.65625 192.242188 397.605469 196.230469 394.316406 200.039062 C 392.449219 202.207031 390.730469 204.511719 388.964844 206.769531 C 386.722656 209.632812 384.507812 212.519531 382.265625 215.386719 C 378.792969 219.816406 375.328125 224.253906 371.824219 228.660156 C 368.5 232.847656 364.996094 236.90625 361.816406 241.203125 C 358.386719 245.835938 354.707031 250.265625 351.09375 254.863281 C 349.78125 255.414062 349.816406 254.457031 349.777344 253.757812 C 349.664062 251.5 349.539062 249.242188 349.019531 247.035156 C 347.710938 241.523438 345.742188 236.28125 342.511719 231.578125 C 342.066406 230.925781 341.660156 230.261719 341.367188 229.414062 C 341.257812 228.53125 341.761719 228.027344 342.191406 227.484375 C 352.089844 214.90625 362.0625 202.386719 371.953125 189.804688 C 372.484375 189.128906 372.878906 188.289062 373.851562 187.941406 Z M 373.851562 187.941406 "/>
<path style=" stroke:none;fill-rule:nonzero;fill:rgb(17.647059%,76.078431%,30.196078%);fill-opacity:1;" d="M 363.433594 275.34375 C 362.289062 275.488281 361.699219 274.476562 361.078125 273.832031 C 360.296875 273.023438 360.21875 273.4375 359.929688 274.0625 C 359.757812 274.433594 359.535156 274.789062 359.324219 275.140625 C 358.539062 276.46875 357.914062 277.902344 355.882812 277.703125 C 354.828125 277.601562 354.132812 278.558594 353.460938 279.3125 C 351.976562 280.992188 350.859375 283.109375 348.886719 284.207031 C 346.972656 285.273438 345.476562 286.878906 343.460938 287.921875 C 343.003906 288 342.730469 287.804688 342.535156 287.550781 C 341.179688 285.8125 339.671875 284.1875 338.539062 282.164062 C 338.730469 280.84375 339.6875 280.117188 340.421875 279.257812 C 344.238281 274.800781 347.863281 270.214844 350.515625 264.9375 C 350.765625 264.4375 350.871094 263.886719 351.097656 263.386719 C 351.398438 262.722656 351.613281 261.972656 352.554688 261.789062 C 355.414062 265.246094 358.1875 268.671875 360.945312 272.105469 C 361.78125 273.140625 362.585938 274.203125 363.433594 275.34375 Z M 363.433594 275.34375 "/>
<path style=" stroke:none;fill-rule:nonzero;fill:rgb(20.392157%,78.431373%,32.941176%);fill-opacity:1;" d="M 284.027344 359.5 C 282.933594 359.945312 282.324219 360.871094 281.472656 361.484375 C 280.777344 361.984375 280.296875 362.800781 279.253906 362.652344 C 279.117188 362.632812 278.855469 362.785156 278.8125 362.914062 C 278.34375 364.292969 276.941406 364.367188 275.992188 365.066406 C 274.796875 365.945312 273.625 366.882812 272.464844 367.820312 C 270.929688 369.050781 269.527344 370.449219 268.140625 371.84375 C 267.316406 372.667969 266.367188 373.429688 266 374.726562 C 263.902344 372.476562 261.804688 370.125 259.660156 367.695312 C 259.78125 366.320312 260.863281 365.621094 261.628906 364.773438 C 265.683594 360.292969 269.847656 355.914062 274.136719 351.65625 C 274.621094 351.175781 275.039062 350.582031 275.890625 350.464844 C 277.636719 351.132812 278.371094 352.746094 279.507812 353.929688 C 280.941406 355.425781 282.28125 357.023438 283.652344 358.582031 C 283.867188 358.828125 284.082031 359.074219 284.027344 359.5 Z M 284.027344 359.5 "/>
<path style=" stroke:none;fill-rule:nonzero;fill:rgb(15.686275%,72.156863%,27.843137%);fill-opacity:1;" d="M 341.394531 229.003906 C 342.964844 231.925781 344.894531 234.574219 346.300781 237.535156 C 347.203125 239.429688 347.675781 241.429688 348.378906 243.371094 C 349.609375 246.773438 350.082031 250.304688 350.125 253.90625 C 350.128906 254.382812 350.101562 254.863281 350.898438 254.902344 C 350.753906 255.285156 350.546875 255.722656 350.214844 256.019531 C 349.148438 256.964844 349.058594 257.871094 350.195312 258.914062 C 348.921875 265.441406 345.96875 271.09375 342.007812 276.246094 C 340.773438 277.855469 339.398438 279.359375 338.023438 280.992188 C 336.75 280.828125 336.367188 279.90625 336.085938 278.808594 C 337.242188 276.902344 338.601562 275.265625 339.820312 273.523438 C 343.90625 267.679688 346.265625 261.242188 346.101562 254.085938 C 346.003906 249.570312 344.769531 245.246094 342.855469 241.125 C 341.589844 238.390625 339.976562 235.863281 338.339844 233.226562 C 338.738281 231.34375 339.984375 230.144531 341.394531 229.003906 Z M 341.394531 229.003906 "/>
<path style=" stroke:none;fill-rule:nonzero;fill:rgb(19.215686%,72.54902%,30.980392%);fill-opacity:1;" d="M 276.113281 350.550781 C 275.445312 350.664062 275.109375 351.140625 274.730469 351.53125 C 271.265625 355.078125 267.78125 358.613281 264.355469 362.199219 C 262.738281 363.894531 261.242188 365.699219 259.648438 367.535156 C 258.546875 366.417969 257.480469 365.21875 256.332031 363.972656 C 258.023438 361.445312 260.175781 359.292969 262.160156 357 C 265.363281 353.300781 268.621094 349.652344 271.9375 345.941406 C 273.796875 347.058594 275.050781 348.683594 276.113281 350.550781 Z M 276.113281 350.550781 "/>
<path style=" stroke:none;fill-rule:nonzero;fill:rgb(12.54902%,67.843137%,24.313725%);fill-opacity:1;" d="M 263.050781 141.058594 C 264.199219 141.957031 264.902344 143.199219 265.765625 144.308594 C 269.011719 148.5 272.0625 152.84375 275.542969 156.855469 C 276.019531 157.40625 276.441406 158.011719 276.855469 158.617188 C 277.160156 159.054688 277.496094 159.398438 278.179688 159.394531 C 278.328125 159.589844 278.351562 159.800781 278.234375 159.941406 C 277.171875 161.183594 276.226562 162.539062 274.738281 163.464844 C 273.292969 162.78125 272.589844 161.46875 271.722656 160.367188 C 268.074219 155.714844 264.121094 151.320312 260.464844 146.679688 C 260.042969 146.144531 259.507812 145.640625 259.832031 144.761719 C 260.921875 143.488281 261.949219 142.296875 263.050781 141.058594 Z M 263.050781 141.058594 "/>
<path style=" stroke:none;fill-rule:nonzero;fill:rgb(12.54902%,64.705882%,23.921569%);fill-opacity:1;" d="M 259.8125 144.722656 C 259.773438 145.875 260.742188 146.5 261.351562 147.246094 C 265.738281 152.621094 270.1875 157.945312 274.660156 163.382812 C 274.332031 164.882812 273.335938 165.796875 272.117188 166.632812 C 267.523438 161.582031 263.023438 156.507812 258.527344 151.433594 C 257.761719 150.570312 257.023438 149.6875 256.257812 148.722656 C 257.40625 147.339844 258.570312 146.050781 259.8125 144.722656 Z M 259.8125 144.722656 "/>
<path style=" stroke:none;fill-rule:nonzero;fill:rgb(16.078431%,75.294118%,29.019608%);fill-opacity:1;" d="M 337.863281 281.148438 C 338.132812 280.128906 338.800781 279.484375 339.402344 278.808594 C 343.601562 274.105469 346.882812 268.855469 348.894531 262.855469 C 349.304688 261.621094 349.304688 260.261719 350.109375 259.0625 C 351.257812 259.65625 351.84375 260.71875 352.617188 261.726562 C 351.898438 262.15625 351.605469 262.871094 351.371094 263.554688 C 350.175781 267.035156 348.007812 269.921875 345.921875 272.890625 C 343.699219 276.050781 341.066406 278.871094 338.738281 282.042969 C 338.101562 282.171875 337.945312 281.738281 337.863281 281.148438 Z M 337.863281 281.148438 "/>
<path style=" stroke:none;fill-rule:nonzero;fill:rgb(13.72549%,72.941176%,26.666667%);fill-opacity:1;" d="M 403.792969 188.210938 C 403.757812 187.789062 403.535156 187.175781 404.453125 187.148438 C 404.332031 187.492188 404.101562 187.832031 403.792969 188.210938 Z M 403.792969 188.210938 "/>
<path style=" stroke:none;fill-rule:nonzero;fill:rgb(19.607843%,80%,32.54902%);fill-opacity:1;" d="M 429.289062 358.347656 C 428.832031 358.425781 428.476562 358.28125 428.550781 357.613281 C 428.820312 357.765625 429.042969 358.015625 429.289062 358.347656 Z M 429.289062 358.347656 "/>
<path style=" stroke:none;fill-rule:nonzero;fill:rgb(0%,0%,0%);fill-opacity:1;" d="M 74.691406 64.730469 C 99.679688 64.730469 124.527344 64.734375 149.378906 64.707031 C 150.402344 64.703125 151.0625 65.007812 151.734375 65.769531 C 173.136719 90.136719 194.566406 114.480469 215.988281 138.828125 C 229.804688 154.527344 243.621094 170.222656 257.4375 185.917969 C 273.882812 204.601562 290.328125 223.285156 306.773438 241.96875 C 310.703125 246.433594 314.617188 250.917969 318.578125 255.359375 C 319.164062 256.015625 319.3125 256.371094 318.644531 257.132812 C 294.777344 284.199219 270.9375 311.289062 247.097656 338.378906 C 220.566406 368.523438 194.039062 398.671875 167.507812 428.816406 C 162.222656 434.824219 156.925781 440.828125 151.667969 446.859375 C 151.03125 447.59375 150.378906 447.847656 149.414062 447.847656 C 114.386719 447.820312 79.355469 447.828125 44.324219 447.820312 C 43.832031 447.820312 43.320312 447.945312 42.671875 447.628906 C 43.007812 447.171875 43.304688 446.742188 43.625 446.335938 C 93.25 383.761719 142.875 321.183594 192.527344 258.628906 C 193.269531 257.691406 193.332031 257.113281 192.5625 256.152344 C 185.855469 247.785156 179.179688 239.390625 172.539062 230.96875 C 160.039062 215.128906 147.578125 199.261719 135.082031 183.417969 C 122.132812 166.996094 109.164062 150.589844 96.203125 134.175781 C 84.757812 119.6875 73.320312 105.195312 61.875 90.707031 C 55.449219 82.570312 49.015625 74.4375 42.589844 66.300781 C 42.25 65.871094 41.921875 65.425781 41.390625 64.730469 C 52.601562 64.730469 63.578125 64.730469 74.691406 64.730469 Z M 74.691406 64.730469 "/>
<path style=" stroke:none;fill-rule:nonzero;fill:rgb(0%,0%,0%);fill-opacity:1;" d="M 272.058594 166.742188 C 272.890625 165.644531 273.757812 164.636719 274.667969 163.550781 C 275.871094 162.175781 277.035156 160.875 278.246094 159.488281 C 280.527344 156.953125 282.773438 154.515625 284.824219 151.890625 C 286.371094 149.90625 288.171875 148.117188 289.835938 146.222656 C 291.496094 144.335938 293.113281 142.410156 294.773438 140.527344 C 296.566406 138.5 298.402344 136.507812 300.191406 134.480469 C 301.824219 132.628906 303.402344 130.738281 305.03125 128.886719 C 306.722656 126.953125 308.457031 125.058594 310.152344 123.128906 C 311.875 121.175781 313.5625 119.191406 315.285156 117.238281 C 317.011719 115.277344 318.78125 113.351562 320.511719 111.390625 C 322.203125 109.472656 323.84375 107.511719 325.546875 105.601562 C 327.339844 103.585938 329.171875 101.605469 331.027344 99.519531 C 335.09375 94.90625 339.125 90.386719 343.136719 85.847656 C 349.140625 79.054688 355.132812 72.253906 361.109375 65.433594 C 361.585938 64.886719 362.078125 64.707031 362.78125 64.707031 C 398.503906 64.722656 434.230469 64.722656 469.953125 64.722656 C 470.222656 64.722656 470.496094 64.75 470.84375 64.769531 C 470.804688 65.480469 470.304688 65.859375 469.953125 66.304688 C 456.910156 82.816406 443.859375 99.324219 430.8125 115.835938 C 430.640625 116.050781 430.492188 116.289062 430.292969 116.589844 C 426.632812 121.195312 422.984375 125.703125 419.390625 130.25 C 410.433594 141.582031 401.5 152.933594 392.558594 164.277344 C 386.378906 172.109375 380.199219 179.941406 373.984375 187.867188 C 371.269531 191.300781 368.574219 194.640625 365.902344 197.996094 C 360.351562 204.976562 354.808594 211.960938 349.277344 218.957031 C 346.6875 222.234375 344.136719 225.546875 341.535156 228.929688 C 340.5 230.253906 339.503906 231.496094 338.472656 232.820312 C 337.488281 234.710938 336.25 236.289062 334.652344 237.6875 C 330.9375 233.632812 327.296875 229.570312 323.695312 225.480469 C 306.605469 206.078125 289.527344 186.667969 272.445312 167.261719 C 272.324219 167.121094 272.210938 166.972656 272.058594 166.742188 Z M 272.058594 166.742188 "/>
<path style=" stroke:none;fill-rule:nonzero;fill:rgb(0%,0%,0%);fill-opacity:1;" d="M 337.800781 281.003906 C 338.113281 281.386719 338.339844 281.726562 338.648438 282.101562 C 340.222656 284.050781 341.71875 285.957031 343.289062 287.910156 C 346.996094 292.570312 350.613281 297.195312 354.261719 301.792969 C 368.597656 319.871094 382.941406 337.941406 397.351562 356.074219 C 397.421875 356.136719 397.441406 356.144531 397.453125 356.148438 C 397.710938 356.027344 397.75 356.21875 397.796875 356.464844 C 401.84375 361.707031 405.890625 366.878906 409.96875 372.019531 C 429.621094 396.804688 449.285156 421.582031 468.9375 446.367188 C 469.214844 446.714844 469.746094 447.058594 469.558594 447.523438 C 469.351562 448.03125 468.738281 447.789062 468.3125 447.789062 C 458.503906 447.8125 448.699219 447.824219 438.890625 447.824219 C 413.632812 447.828125 388.375 447.820312 363.117188 447.847656 C 362.15625 447.847656 361.503906 447.59375 360.863281 446.859375 C 342.726562 426.222656 324.570312 405.601562 306.414062 384.984375 C 298.988281 376.546875 291.546875 368.125 284.035156 359.636719 C 281.386719 356.628906 278.808594 353.683594 276.152344 350.691406 C 274.765625 349.117188 273.453125 347.585938 272.082031 345.980469 C 275.632812 341.761719 279.234375 337.609375 282.859375 333.484375 C 299.707031 314.332031 316.558594 295.1875 333.480469 275.96875 C 334.972656 276.277344 335.332031 277.660156 336.125 278.722656 C 336.648438 279.53125 337.183594 280.246094 337.800781 281.003906 Z M 337.800781 281.003906 "/>
<path style=" stroke:none;fill-rule:nonzero;fill:rgb(16.078431%,69.803922%,27.843137%);fill-opacity:1;" d="M 336.210938 278.78125 C 335.308594 277.882812 334.503906 276.945312 333.625 275.953125 C 334.640625 274.65625 335.734375 273.410156 336.824219 272.160156 C 340.078125 268.429688 342.089844 264.191406 342.667969 259.195312 C 343.496094 252.058594 341.539062 245.882812 336.894531 240.484375 C 336.144531 239.609375 335.375 238.75 334.585938 237.792969 C 335.796875 236.140625 337.039062 234.574219 338.359375 232.957031 C 342.339844 238.308594 345.121094 244.199219 346.203125 250.816406 C 346.859375 254.832031 346.398438 258.761719 345.378906 262.679688 C 343.917969 268.285156 340.867188 273 337.375 277.492188 C 337.039062 277.921875 336.664062 278.324219 336.210938 278.78125 Z M 336.210938 278.78125 "/>
<path style=" stroke:none;fill-rule:nonzero;fill:rgb(20%,20%,20%);fill-opacity:1;" d="M 42.703125 447.660156 C 42.566406 447.835938 42.550781 447.789062 42.703125 447.660156 Z M 42.703125 447.660156 "/>
<path style=" stroke:none;fill-rule:nonzero;fill:rgb(19.607843%,80%,32.54902%);fill-opacity:1;" d="M 397.863281 356.503906 C 397.691406 356.457031 397.597656 356.363281 397.488281 356.210938 C 397.625 356.054688 397.804688 355.945312 397.960938 356.105469 C 398.015625 356.164062 397.953125 356.335938 397.863281 356.503906 Z M 397.863281 356.503906 "/>
<path style=" stroke:none;fill-rule:nonzero;fill:rgb(10.980392%,69.803922%,23.921569%);fill-opacity:1;" d="M 315.527344 98 C 315.640625 97.792969 315.753906 97.792969 315.855469 97.9375 C 315.875 97.96875 315.875 98.039062 315.851562 98.070312 C 315.75 98.214844 315.636719 98.207031 315.527344 98 Z M 315.527344 98 "/>
</g>
</svg>
