<svg version="1.1" id="Layer_1" xmlns="http://www.w3.org/2000/svg" xmlns:xlink="http://www.w3.org/1999/xlink" x="0px" y="0px"
	 width="100%" viewBox="0 0 1000 1000" enable-background="new 0 0 1000 1000" xml:space="preserve">
<path fill="#5E17EB" opacity="1.000000" stroke="none" 
	d="
M438.000000,1001.000000 
	C292.000000,1001.000000 146.500000,1001.000000 1.000000,1001.000000 
	C1.000000,667.666687 1.000000,334.333344 1.000000,1.000000 
	C334.333344,1.000000 667.666687,1.000000 1001.000000,1.000000 
	C1001.000000,334.333344 1001.000000,667.666687 1001.000000,1001.000000 
	C813.500000,1001.000000 626.000000,1001.000000 438.000000,1001.000000 
M114.950127,556.575806 
	C79.082581,503.889008 85.045441,433.482269 125.209801,386.856506 
	C164.046753,341.771667 244.248901,316.520172 314.669708,366.440277 
	C320.106079,359.199524 325.549347,351.949585 331.156738,344.480988 
	C293.340515,317.237671 251.824326,306.039398 206.205933,312.953827 
	C152.019547,321.167023 110.513458,349.605621 84.405632,397.487976 
	C54.196575,452.892029 55.852539,509.113831 86.977219,564.197205 
	C88.573288,567.021790 89.085625,569.350952 87.859673,572.515259 
	C83.534477,583.679138 79.526062,594.966003 75.418663,606.213928 
	C69.257668,623.085632 62.944141,639.904358 57.024990,656.860657 
	C53.210583,667.787537 60.914204,676.811401 72.368507,675.226562 
	C74.483597,674.933899 76.578308,674.270996 78.597809,673.543884 
	C110.362732,662.108276 142.094604,650.580078 173.906113,639.275940 
	C176.331833,638.413940 179.368835,638.658997 182.002777,639.100037 
	C194.944031,641.266663 207.761581,644.828918 220.776642,645.769104 
	C253.850723,648.158630 284.885620,640.359009 313.783539,624.125549 
	C326.000092,617.262878 337.047394,608.857422 347.426453,598.697571 
	C340.504120,592.307068 333.924530,586.233032 327.506165,580.307739 
	C320.358917,585.623169 313.038483,592.009033 304.861053,596.987122 
	C268.089203,619.372192 228.919678,624.180908 187.817886,611.303223 
	C180.757919,609.091248 174.481995,609.035706 167.519684,611.670166 
	C144.812836,620.262268 121.917931,628.357666 99.088806,636.625977 
	C97.488380,637.205566 95.834396,637.637268 93.488586,638.357910 
	C94.333992,635.834656 94.821159,634.260315 95.385605,632.714233 
	C102.628487,612.874512 109.802200,593.008972 117.183319,573.220764 
	C119.347092,567.419861 119.097809,562.180847 114.950127,556.575806 
M578.087036,502.560608 
	C560.294006,508.464386 548.446899,519.931946 544.482849,538.672546 
	C542.273743,549.116577 542.542053,559.567444 545.370056,569.844177 
	C549.684204,585.521118 559.344910,596.550171 575.453186,599.991943 
	C584.414978,601.906799 593.926270,602.272949 603.121399,601.849915 
	C619.999146,601.073486 634.343323,594.266052 644.970337,580.706116 
	C648.351135,576.392273 651.429504,571.841370 655.257996,566.554321 
	C655.586182,569.624817 655.798828,571.585266 656.004761,573.546326 
	C657.711609,589.798645 666.200562,599.571045 680.922974,600.538879 
	C689.752686,601.119385 698.698669,599.931580 707.579712,599.539062 
	C707.579712,592.549194 707.579712,586.887329 707.579712,581.219360 
	C704.672668,581.494934 702.196777,581.873291 699.712646,581.939392 
	C690.576843,582.182251 686.149109,578.817444 684.255127,569.821838 
	C683.471436,566.099976 683.083557,562.229736 683.060059,558.423645 
	C682.936707,538.425964 683.078979,518.426575 682.935974,498.429169 
	C682.872925,489.612885 683.036255,480.710693 681.898987,472.003967 
	C679.508972,453.707092 670.216736,440.108582 652.740356,432.762604 
	C637.189819,426.226196 620.938965,426.183929 604.566711,427.509491 
	C591.580688,428.560852 579.307556,432.005127 568.802124,440.062195 
	C558.264038,448.144287 552.747192,459.093811 550.821594,472.518860 
	C560.813049,473.444305 570.218079,474.315430 579.802673,475.203217 
	C580.245178,473.591919 580.647034,472.348206 580.926331,471.077545 
	C583.418213,459.742004 590.096558,452.301147 601.566589,449.970398 
	C611.747559,447.901611 622.071472,447.307678 632.279968,450.043060 
	C640.542664,452.257111 647.120911,456.728729 650.609253,464.867706 
	C654.860657,474.786987 654.501770,485.189941 654.117249,496.799225 
	C641.687439,496.799225 629.716858,496.709229 617.748230,496.823303 
	C604.548523,496.949097 591.483276,498.207672 578.087036,502.560608 
M506.365234,463.163239 
	C502.919525,446.552338 494.278961,434.103973 477.136932,430.023712 
	C468.352661,427.932800 459.062866,427.092041 450.013733,427.166687 
	C430.249939,427.329742 414.956909,436.299255 404.245209,452.967773 
	C403.333405,454.386597 402.367584,455.770782 400.916870,457.930267 
	C400.916870,426.888397 400.916870,397.026306 400.916870,367.222046 
	C391.596741,367.222046 382.534332,367.222046 373.384521,367.222046 
	C373.384521,444.716583 373.384521,521.811584 373.384521,599.212769 
	C382.704163,599.212769 391.775787,599.212769 401.411499,599.212769 
	C401.411499,597.176758 401.411499,595.384460 401.411499,593.592102 
	C401.411530,570.925537 401.362488,548.258850 401.432495,525.592468 
	C401.466949,514.430847 401.187408,503.231781 401.979248,492.115875 
	C404.131378,461.903076 424.891815,445.221710 454.816254,449.128082 
	C468.119873,450.864746 475.510498,457.416321 478.266357,470.657349 
	C479.378998,476.003143 479.981903,481.550934 480.010010,487.010956 
	C480.192047,522.343079 480.151428,557.676331 480.183441,593.009216 
	C480.185211,594.966797 480.183624,596.924377 480.183624,599.135010 
	C489.904907,599.135010 499.130524,599.135010 508.746368,599.135010 
	C508.746368,597.109070 508.746368,595.465942 508.746368,593.822754 
	C508.746063,559.156250 508.882416,524.488892 508.648926,489.823944 
	C508.590790,481.199615 507.337311,472.583282 506.365234,463.163239 
M841.217224,571.338379 
	C837.497925,566.151611 833.778687,560.964783 829.544006,555.059265 
	C822.647156,556.457825 814.594055,558.090881 806.282227,559.776367 
	C809.236511,572.493591 814.980347,582.682068 825.235352,589.976257 
	C837.815186,598.924011 852.327820,601.543762 867.294434,602.235168 
	C885.556946,603.078735 903.626892,602.238953 920.498962,593.987305 
	C944.587769,582.206177 953.424683,553.632629 940.222717,530.306702 
	C934.058411,519.415222 924.392517,512.790344 912.835510,509.104248 
	C898.110596,504.407715 883.098450,500.615845 868.342773,496.009186 
	C861.732727,493.945587 854.867126,491.744843 849.127625,488.041016 
	C835.810181,479.447144 837.402527,459.197174 852.099121,453.283447 
	C859.745483,450.206635 868.560974,448.865784 876.859558,448.821198 
	C894.578186,448.726074 911.563599,451.312683 918.110291,471.983307 
	C926.488831,470.876556 934.652405,469.798187 943.036804,468.690643 
	C939.656860,452.267517 931.540955,439.966217 916.042603,434.096222 
	C890.629822,424.471252 864.843506,424.437653 839.412842,433.939606 
	C823.682068,439.817322 815.003662,451.869385 813.141602,468.604858 
	C811.228882,485.794617 817.503113,499.181091 832.040161,508.679932 
	C843.694092,516.294800 857.096802,519.148682 870.151489,523.045837 
	C882.073425,526.604919 894.092651,530.032837 905.631287,534.619751 
	C914.845520,538.282593 919.083435,546.170959 918.514038,556.249512 
	C917.884766,567.387634 911.918335,574.399048 901.459167,577.731201 
	C890.322632,581.279114 878.861816,581.791321 867.351501,580.659180 
	C858.181213,579.757263 849.247192,577.783020 841.217224,571.338379 
M732.426514,462.505005 
	C732.426453,472.667145 732.380066,482.829498 732.435486,492.991333 
	C732.577271,518.974365 732.384399,544.967590 733.099976,570.935425 
	C733.437073,583.166870 738.242310,593.986694 750.543396,598.915344 
	C764.659424,604.571167 779.057068,601.720276 793.273987,598.584717 
	C793.943420,598.437073 794.818420,597.182861 794.833618,596.428589 
	C794.959412,590.188232 794.904785,583.944214 794.904785,577.696655 
	C788.891785,578.330078 783.619385,579.080200 778.321045,579.401794 
	C768.301025,580.009888 762.994934,575.793030 761.390625,565.863098 
	C760.810364,562.271240 760.814392,558.560669 760.809814,554.903992 
	C760.769165,522.085449 760.785950,489.266876 760.785889,456.448334 
	C760.785889,454.663513 760.785889,452.878662 760.785889,450.539368 
	C771.423523,450.539368 781.506958,450.539368 791.705078,450.539368 
	C791.705078,443.419250 791.705078,436.863922 791.705078,429.846802 
	C781.310303,429.846802 771.227356,429.846802 760.572632,429.846802 
	C760.572632,416.999146 760.572632,404.609375 760.572632,392.220947 
	C754.038086,392.220947 748.093384,392.220947 741.860046,392.220947 
	C739.071899,404.817291 736.317566,417.261139 733.487244,430.048187 
	C726.575500,430.048187 719.977722,430.048187 713.260254,430.048187 
	C713.260254,437.028076 713.260254,443.565521 713.260254,450.631958 
	C719.677063,450.631958 725.768372,450.631958 732.426514,450.631958 
	C732.426514,454.599121 732.426514,458.052124 732.426514,462.505005 
M302.376953,487.714417 
	C304.800110,478.592529 302.596863,470.824951 295.032898,465.096985 
	C288.158905,459.891541 280.580170,459.545654 273.042816,463.675690 
	C264.867462,468.155334 261.129974,476.930786 263.106628,486.173248 
	C264.894989,494.535309 272.138733,500.874695 281.020538,501.850647 
	C290.036499,502.841309 298.077087,497.732056 302.376953,487.714417 
M181.740051,484.949066 
	C182.603058,474.129486 177.426910,465.189514 168.574799,462.210785 
	C159.216263,459.061676 149.248016,462.446411 144.197449,470.680725 
	C139.657394,478.082733 139.995224,485.669678 144.609970,492.793213 
	C149.051117,499.648804 155.801010,502.783508 163.885559,501.707367 
	C173.207077,500.466522 179.177811,494.983124 181.740051,484.949066 
M208.843536,496.678680 
	C216.577286,502.794342 225.122711,503.633698 232.966019,499.048035 
	C240.116241,494.867584 244.138123,486.198334 242.646744,478.180969 
	C240.978836,469.214661 234.316071,462.654907 225.339020,461.140839 
	C217.409805,459.803497 208.511963,464.370728 204.463318,471.856384 
	C200.188629,479.760010 201.594101,488.624695 208.843536,496.678680 
M507.875519,648.447449 
	C509.336151,646.032776 510.796783,643.618103 512.257385,641.203430 
	C512.645996,641.370483 513.034546,641.537598 513.423096,641.704651 
	C513.423096,647.997314 513.423096,654.290039 513.423096,660.714844 
	C515.581665,660.714844 517.313354,660.714844 519.062073,660.714844 
	C519.062073,649.639404 519.062073,638.864807 519.062073,628.074585 
	C511.649353,626.356995 511.665619,633.093811 509.121094,636.500549 
	C506.226105,640.376282 504.051544,644.790100 501.228333,649.533691 
	C497.275238,642.976685 493.604462,637.238586 490.315582,631.289490 
	C488.588776,628.165894 486.633881,626.801086 483.221008,628.271362 
	C483.221008,639.128357 483.221008,649.893616 483.221008,660.667236 
	C485.210358,660.667236 486.925385,660.667236 489.263367,660.667236 
	C489.263367,654.045776 489.263367,647.757202 489.263367,640.173706 
	C491.609802,643.969788 493.252258,646.472961 494.742188,649.063843 
	C501.464539,660.753601 501.364990,659.611694 507.875519,648.447449 
M571.670410,637.082886 
	C569.318726,641.034546 566.967041,644.986267 564.250366,649.551270 
	C560.312317,643.021790 556.552856,637.160889 553.198914,631.076538 
	C551.413513,627.837585 549.335815,626.946228 546.295898,628.259094 
	C546.295898,639.324524 546.295898,650.090393 546.295898,661.057434 
	C548.262756,660.964661 549.876465,660.888489 552.068237,660.785034 
	C552.068237,654.202759 552.068237,647.857605 552.068237,641.512390 
	C555.561890,645.550415 558.139587,649.759583 560.747375,653.950073 
	C563.609009,658.548462 564.746948,658.558289 567.528259,653.998230 
	C570.120605,649.747925 572.675842,645.474976 575.247375,641.211975 
	C575.640747,641.379700 576.034119,641.547424 576.427490,641.715210 
	C576.427490,648.007751 576.427490,654.300354 576.427490,660.709656 
	C578.591309,660.709656 580.321106,660.709656 582.057068,660.709656 
	C582.057068,649.630737 582.057068,638.858521 582.057068,628.230042 
	C578.429382,626.856140 576.419922,628.235535 575.027649,631.257874 
	C574.195923,633.063416 573.034668,634.717163 571.670410,637.082886 
M454.502045,655.986755 
	C459.966431,648.820923 460.443939,640.753784 455.783203,634.343018 
	C451.037323,627.815186 441.852478,625.402405 433.768097,628.559814 
	C426.658417,631.336548 422.338715,638.252380 423.109802,645.980347 
	C423.755737,652.453857 427.016541,657.390991 433.060883,659.845825 
	C440.563477,662.892944 447.725372,662.079895 454.502045,655.986755 
M684.632019,658.019043 
	C682.880737,655.496460 681.129517,652.973816 679.197021,650.190186 
	C685.222839,647.071777 686.956787,642.302002 685.706421,636.510742 
	C684.685547,631.782654 681.215820,628.772217 676.653259,628.328003 
	C670.615723,627.740112 664.477722,628.183167 658.393372,628.183167 
	C658.393372,639.197754 658.393372,649.959534 658.393372,660.774475 
	C660.469788,660.774475 662.244385,660.774475 664.175537,660.774475 
	C664.381897,657.630737 664.573547,654.710632 664.753174,651.974121 
	C670.314819,650.261108 674.298950,651.300537 676.746643,656.432861 
	C677.381226,657.763367 678.204468,659.490723 679.375610,659.966614 
	C681.224792,660.718201 683.441284,660.566162 685.502319,660.796570 
	C685.350952,660.083008 685.199585,659.369446 684.632019,658.019043 
M784.925842,645.395630 
	C784.806274,644.171509 784.686707,642.947388 784.525696,641.298706 
	C779.201782,641.298706 774.278687,641.298706 769.343018,641.298706 
	C769.343018,638.266174 769.343018,635.728760 769.343018,632.878235 
	C775.342041,632.878235 780.964172,632.878235 786.978088,632.878235 
	C786.891235,631.017578 786.820496,629.500916 786.755188,628.101929 
	C778.516846,628.101929 770.767761,628.101929 763.008911,628.101929 
	C763.008911,639.202271 763.008911,649.955261 763.008911,660.658203 
	C771.381287,660.658203 779.460144,660.658203 787.873169,660.658203 
	C787.695618,658.883972 787.556396,657.492859 787.371460,655.644653 
	C781.084839,655.644653 775.164001,655.644653 769.198975,655.644653 
	C769.198975,652.539001 769.198975,649.935425 769.198975,647.163269 
	C774.495544,646.844482 779.568298,646.539062 784.925842,645.395630 
M620.708374,655.843445 
	C618.950378,655.843445 617.192444,655.843445 615.409668,655.843445 
	C615.409668,652.490601 615.409668,649.898499 615.409668,646.697998 
	C620.727234,646.697998 625.778687,646.697998 631.178284,646.697998 
	C631.041321,644.655334 630.947266,643.253113 630.822021,641.385498 
	C625.534241,641.385498 620.601929,641.385498 615.487610,641.385498 
	C615.487610,638.351196 615.487610,635.814636 615.487610,632.901489 
	C621.448914,632.901489 627.058899,632.901489 632.780518,632.901489 
	C632.780518,631.003967 632.780518,629.508911 632.780518,628.164917 
	C624.644592,628.164917 616.926514,628.164917 609.315735,628.164917 
	C609.315735,639.297607 609.315735,650.024109 609.315735,660.781494 
	C617.602539,660.781494 625.536499,660.781494 633.540100,660.781494 
	C633.540100,659.047485 633.540100,657.547852 633.540100,655.843506 
	C629.308167,655.843506 625.486206,655.843506 620.708374,655.843445 
M722.351562,633.311096 
	C726.762390,633.866089 731.173279,634.421143 736.640320,635.109009 
	C736.749023,634.993958 737.835266,633.844666 738.924133,632.692627 
	C730.787781,625.215149 719.058899,625.475037 712.299011,632.989746 
	C705.928467,640.071716 706.757385,651.542053 714.072327,657.526978 
	C721.403198,663.524841 733.082764,662.691406 738.769897,655.553955 
	C737.590088,654.502441 736.398987,653.440918 735.287354,652.450134 
	C726.845520,657.575745 719.541077,656.666870 715.928833,650.267029 
	C712.494141,644.181702 714.844116,637.312561 722.351562,633.311096 
M382.375031,634.585632 
	C387.978790,631.337524 393.152527,632.882202 398.195435,636.408569 
	C399.449402,635.037537 400.505280,633.883118 401.552155,632.738464 
	C393.683655,625.199463 381.745941,625.479797 375.015533,633.037292 
	C368.553314,640.293640 369.618805,651.986023 377.277832,657.863098 
	C384.685516,663.547302 396.430908,662.474243 401.393402,655.453796 
	C400.206207,654.411682 399.000580,653.353333 397.864807,652.356384 
	C390.563843,657.278870 383.992157,657.026550 379.737762,651.875183 
	C375.588531,646.851196 376.363434,640.277832 382.375031,634.585632 
z"/>
<path fill="#F3F4FC" opacity="1.000000" stroke="none" 
	d="
M115.140564,556.890503 
	C119.097809,562.180847 119.347092,567.419861 117.183319,573.220764 
	C109.802200,593.008972 102.628487,612.874512 95.385605,632.714233 
	C94.821159,634.260315 94.333992,635.834656 93.488586,638.357910 
	C95.834396,637.637268 97.488380,637.205566 99.088806,636.625977 
	C121.917931,628.357666 144.812836,620.262268 167.519684,611.670166 
	C174.481995,609.035706 180.757919,609.091248 187.817886,611.303223 
	C228.919678,624.180908 268.089203,619.372192 304.861053,596.987122 
	C313.038483,592.009033 320.358917,585.623169 327.506165,580.307739 
	C333.924530,586.233032 340.504120,592.307068 347.426453,598.697571 
	C337.047394,608.857422 326.000092,617.262878 313.783539,624.125549 
	C284.885620,640.359009 253.850723,648.158630 220.776642,645.769104 
	C207.761581,644.828918 194.944031,641.266663 182.002777,639.100037 
	C179.368835,638.658997 176.331833,638.413940 173.906113,639.275940 
	C142.094604,650.580078 110.362732,662.108276 78.597809,673.543884 
	C76.578308,674.270996 74.483597,674.933899 72.368507,675.226562 
	C60.914204,676.811401 53.210583,667.787537 57.024990,656.860657 
	C62.944141,639.904358 69.257668,623.085632 75.418663,606.213928 
	C79.526062,594.966003 83.534477,583.679138 87.859673,572.515259 
	C89.085625,569.350952 88.573288,567.021790 86.977219,564.197205 
	C55.852539,509.113831 54.196575,452.892029 84.405632,397.487976 
	C110.513458,349.605621 152.019547,321.167023 206.205933,312.953827 
	C251.824326,306.039398 293.340515,317.237671 331.156738,344.480988 
	C325.549347,351.949585 320.106079,359.199524 314.669708,366.440277 
	C244.248901,316.520172 164.046753,341.771667 125.209801,386.856506 
	C85.045441,433.482269 79.082581,503.889008 115.140564,556.890503 
z"/>
<path fill="#F2F4FC" opacity="1.000000" stroke="none" 
	d="
M578.453613,502.409302 
	C591.483276,498.207672 604.548523,496.949097 617.748230,496.823303 
	C629.716858,496.709229 641.687439,496.799225 654.117249,496.799225 
	C654.501770,485.189941 654.860657,474.786987 650.609253,464.867706 
	C647.120911,456.728729 640.542664,452.257111 632.279968,450.043060 
	C622.071472,447.307678 611.747559,447.901611 601.566589,449.970398 
	C590.096558,452.301147 583.418213,459.742004 580.926331,471.077545 
	C580.647034,472.348206 580.245178,473.591919 579.802673,475.203217 
	C570.218079,474.315430 560.813049,473.444305 550.821594,472.518860 
	C552.747192,459.093811 558.264038,448.144287 568.802124,440.062195 
	C579.307556,432.005127 591.580688,428.560852 604.566711,427.509491 
	C620.938965,426.183929 637.189819,426.226196 652.740356,432.762604 
	C670.216736,440.108582 679.508972,453.707092 681.898987,472.003967 
	C683.036255,480.710693 682.872925,489.612885 682.935974,498.429169 
	C683.078979,518.426575 682.936707,538.425964 683.060059,558.423645 
	C683.083557,562.229736 683.471436,566.099976 684.255127,569.821838 
	C686.149109,578.817444 690.576843,582.182251 699.712646,581.939392 
	C702.196777,581.873291 704.672668,581.494934 707.579712,581.219360 
	C707.579712,586.887329 707.579712,592.549194 707.579712,599.539062 
	C698.698669,599.931580 689.752686,601.119385 680.922974,600.538879 
	C666.200562,599.571045 657.711609,589.798645 656.004761,573.546326 
	C655.798828,571.585266 655.586182,569.624817 655.257996,566.554321 
	C651.429504,571.841370 648.351135,576.392273 644.970337,580.706116 
	C634.343323,594.266052 619.999146,601.073486 603.121399,601.849915 
	C593.926270,602.272949 584.414978,601.906799 575.453186,599.991943 
	C559.344910,596.550171 549.684204,585.521118 545.370056,569.844177 
	C542.542053,559.567444 542.273743,549.116577 544.482849,538.672546 
	C548.446899,519.931946 560.294006,508.464386 578.453613,502.409302 
M640.502319,516.052856 
	C625.795654,517.291992 610.806152,517.150330 596.448364,520.092163 
	C574.613708,524.565857 564.570862,551.383606 576.761841,570.070801 
	C578.764893,573.141174 581.827393,575.949585 585.038574,577.723145 
	C595.166443,583.317017 606.069946,582.158020 616.579041,579.290894 
	C642.871399,572.117615 658.554443,545.276184 653.762329,516.038330 
	C649.723816,516.038330 645.610779,516.038330 640.502319,516.052856 
z"/>
<path fill="#F2F3FC" opacity="1.000000" stroke="none" 
	d="
M506.499237,463.563263 
	C507.337311,472.583282 508.590790,481.199615 508.648926,489.823944 
	C508.882416,524.488892 508.746063,559.156250 508.746368,593.822754 
	C508.746368,595.465942 508.746368,597.109070 508.746368,599.135010 
	C499.130524,599.135010 489.904907,599.135010 480.183624,599.135010 
	C480.183624,596.924377 480.185211,594.966797 480.183441,593.009216 
	C480.151428,557.676331 480.192047,522.343079 480.010010,487.010956 
	C479.981903,481.550934 479.378998,476.003143 478.266357,470.657349 
	C475.510498,457.416321 468.119873,450.864746 454.816254,449.128082 
	C424.891815,445.221710 404.131378,461.903076 401.979248,492.115875 
	C401.187408,503.231781 401.466949,514.430847 401.432495,525.592468 
	C401.362488,548.258850 401.411530,570.925537 401.411499,593.592102 
	C401.411499,595.384460 401.411499,597.176758 401.411499,599.212769 
	C391.775787,599.212769 382.704163,599.212769 373.384521,599.212769 
	C373.384521,521.811584 373.384521,444.716583 373.384521,367.222046 
	C382.534332,367.222046 391.596741,367.222046 400.916870,367.222046 
	C400.916870,397.026306 400.916870,426.888397 400.916870,457.930267 
	C402.367584,455.770782 403.333405,454.386597 404.245209,452.967773 
	C414.956909,436.299255 430.249939,427.329742 450.013733,427.166687 
	C459.062866,427.092041 468.352661,427.932800 477.136932,430.023712 
	C494.278961,434.103973 502.919525,446.552338 506.499237,463.563263 
z"/>
<path fill="#F2F4FC" opacity="1.000000" stroke="none" 
	d="
M841.498413,571.563110 
	C849.247192,577.783020 858.181213,579.757263 867.351501,580.659180 
	C878.861816,581.791321 890.322632,581.279114 901.459167,577.731201 
	C911.918335,574.399048 917.884766,567.387634 918.514038,556.249512 
	C919.083435,546.170959 914.845520,538.282593 905.631287,534.619751 
	C894.092651,530.032837 882.073425,526.604919 870.151489,523.045837 
	C857.096802,519.148682 843.694092,516.294800 832.040161,508.679932 
	C817.503113,499.181091 811.228882,485.794617 813.141602,468.604858 
	C815.003662,451.869385 823.682068,439.817322 839.412842,433.939606 
	C864.843506,424.437653 890.629822,424.471252 916.042603,434.096222 
	C931.540955,439.966217 939.656860,452.267517 943.036804,468.690643 
	C934.652405,469.798187 926.488831,470.876556 918.110291,471.983307 
	C911.563599,451.312683 894.578186,448.726074 876.859558,448.821198 
	C868.560974,448.865784 859.745483,450.206635 852.099121,453.283447 
	C837.402527,459.197174 835.810181,479.447144 849.127625,488.041016 
	C854.867126,491.744843 861.732727,493.945587 868.342773,496.009186 
	C883.098450,500.615845 898.110596,504.407715 912.835510,509.104248 
	C924.392517,512.790344 934.058411,519.415222 940.222717,530.306702 
	C953.424683,553.632629 944.587769,582.206177 920.498962,593.987305 
	C903.626892,602.238953 885.556946,603.078735 867.294434,602.235168 
	C852.327820,601.543762 837.815186,598.924011 825.235352,589.976257 
	C814.980347,582.682068 809.236511,572.493591 806.282227,559.776367 
	C814.594055,558.090881 822.647156,556.457825 829.544006,555.059265 
	C833.778687,560.964783 837.497925,566.151611 841.498413,571.563110 
z"/>
<path fill="#F1F1FC" opacity="1.000000" stroke="none" 
	d="
M732.426514,462.005066 
	C732.426514,458.052124 732.426514,454.599121 732.426514,450.631958 
	C725.768372,450.631958 719.677063,450.631958 713.260254,450.631958 
	C713.260254,443.565521 713.260254,437.028076 713.260254,430.048187 
	C719.977722,430.048187 726.575500,430.048187 733.487244,430.048187 
	C736.317566,417.261139 739.071899,404.817291 741.860046,392.220947 
	C748.093384,392.220947 754.038086,392.220947 760.572632,392.220947 
	C760.572632,404.609375 760.572632,416.999146 760.572632,429.846802 
	C771.227356,429.846802 781.310303,429.846802 791.705078,429.846802 
	C791.705078,436.863922 791.705078,443.419250 791.705078,450.539368 
	C781.506958,450.539368 771.423523,450.539368 760.785889,450.539368 
	C760.785889,452.878662 760.785889,454.663513 760.785889,456.448334 
	C760.785950,489.266876 760.769165,522.085449 760.809814,554.903992 
	C760.814392,558.560669 760.810364,562.271240 761.390625,565.863098 
	C762.994934,575.793030 768.301025,580.009888 778.321045,579.401794 
	C783.619385,579.080200 788.891785,578.330078 794.904785,577.696655 
	C794.904785,583.944214 794.959412,590.188232 794.833618,596.428589 
	C794.818420,597.182861 793.943420,598.437073 793.273987,598.584717 
	C779.057068,601.720276 764.659424,604.571167 750.543396,598.915344 
	C738.242310,593.986694 733.437073,583.166870 733.099976,570.935425 
	C732.384399,544.967590 732.577271,518.974365 732.435486,492.991333 
	C732.380066,482.829498 732.426453,472.667145 732.426514,462.005066 
z"/>
<path fill="#F2F4FC" opacity="1.000000" stroke="none" 
	d="
M302.247314,488.079529 
	C298.077087,497.732056 290.036499,502.841309 281.020538,501.850647 
	C272.138733,500.874695 264.894989,494.535309 263.106628,486.173248 
	C261.129974,476.930786 264.867462,468.155334 273.042816,463.675690 
	C280.580170,459.545654 288.158905,459.891541 295.032898,465.096985 
	C302.596863,470.824951 304.800110,478.592529 302.247314,488.079529 
z"/>
<path fill="#F2F4FC" opacity="1.000000" stroke="none" 
	d="
M181.632660,485.354004 
	C179.177811,494.983124 173.207077,500.466522 163.885559,501.707367 
	C155.801010,502.783508 149.051117,499.648804 144.609970,492.793213 
	C139.995224,485.669678 139.657394,478.082733 144.197449,470.680725 
	C149.248016,462.446411 159.216263,459.061676 168.574799,462.210785 
	C177.426910,465.189514 182.603058,474.129486 181.632660,485.354004 
z"/>
<path fill="#F3F4FC" opacity="1.000000" stroke="none" 
	d="
M208.581665,496.429535 
	C201.594101,488.624695 200.188629,479.760010 204.463318,471.856384 
	C208.511963,464.370728 217.409805,459.803497 225.339020,461.140839 
	C234.316071,462.654907 240.978836,469.214661 242.646744,478.180969 
	C244.138123,486.198334 240.116241,494.867584 232.966019,499.048035 
	C225.122711,503.633698 216.577286,502.794342 208.581665,496.429535 
z"/>
<path fill="#EEEEFB" opacity="1.000000" stroke="none" 
	d="
M507.675293,648.752869 
	C501.364990,659.611694 501.464539,660.753601 494.742188,649.063843 
	C493.252258,646.472961 491.609802,643.969788 489.263367,640.173706 
	C489.263367,647.757202 489.263367,654.045776 489.263367,660.667236 
	C486.925385,660.667236 485.210358,660.667236 483.221008,660.667236 
	C483.221008,649.893616 483.221008,639.128357 483.221008,628.271362 
	C486.633881,626.801086 488.588776,628.165894 490.315582,631.289490 
	C493.604462,637.238586 497.275238,642.976685 501.228333,649.533691 
	C504.051544,644.790100 506.226105,640.376282 509.121094,636.500549 
	C511.665619,633.093811 511.649353,626.356995 519.062073,628.074585 
	C519.062073,638.864807 519.062073,649.639404 519.062073,660.714844 
	C517.313354,660.714844 515.581665,660.714844 513.423096,660.714844 
	C513.423096,654.290039 513.423096,647.997314 513.423096,641.704651 
	C513.034546,641.537598 512.645996,641.370483 512.257385,641.203430 
	C510.796783,643.618103 509.336151,646.032776 507.675293,648.752869 
z"/>
<path fill="#EEEEFB" opacity="1.000000" stroke="none" 
	d="
M571.846008,636.760986 
	C573.034668,634.717163 574.195923,633.063416 575.027649,631.257874 
	C576.419922,628.235535 578.429382,626.856140 582.057068,628.230042 
	C582.057068,638.858521 582.057068,649.630737 582.057068,660.709656 
	C580.321106,660.709656 578.591309,660.709656 576.427490,660.709656 
	C576.427490,654.300354 576.427490,648.007751 576.427490,641.715210 
	C576.034119,641.547424 575.640747,641.379700 575.247375,641.211975 
	C572.675842,645.474976 570.120605,649.747925 567.528259,653.998230 
	C564.746948,658.558289 563.609009,658.548462 560.747375,653.950073 
	C558.139587,649.759583 555.561890,645.550415 552.068237,641.512390 
	C552.068237,647.857605 552.068237,654.202759 552.068237,660.785034 
	C549.876465,660.888489 548.262756,660.964661 546.295898,661.057434 
	C546.295898,650.090393 546.295898,639.324524 546.295898,628.259094 
	C549.335815,626.946228 551.413513,627.837585 553.198914,631.076538 
	C556.552856,637.160889 560.312317,643.021790 564.250366,649.551270 
	C566.967041,644.986267 569.318726,641.034546 571.846008,636.760986 
z"/>
<path fill="#EDECFB" opacity="1.000000" stroke="none" 
	d="
M454.245514,656.246460 
	C447.725372,662.079895 440.563477,662.892944 433.060883,659.845825 
	C427.016541,657.390991 423.755737,652.453857 423.109802,645.980347 
	C422.338715,638.252380 426.658417,631.336548 433.768097,628.559814 
	C441.852478,625.402405 451.037323,627.815186 455.783203,634.343018 
	C460.443939,640.753784 459.966431,648.820923 454.245514,656.246460 
M451.403015,649.649475 
	C451.787781,648.217468 452.416748,646.801453 452.512177,645.350403 
	C452.817780,640.703430 451.222229,636.793701 447.078247,634.414368 
	C443.051300,632.102234 438.791748,632.116882 434.781952,634.501465 
	C430.663177,636.951050 429.071198,640.867859 429.496033,645.506042 
	C429.966248,650.639893 432.756531,654.086426 437.760468,655.556335 
	C442.828674,657.045227 447.204803,655.287476 451.403015,649.649475 
z"/>
<path fill="#EFEFFB" opacity="1.000000" stroke="none" 
	d="
M684.840088,658.337463 
	C685.199585,659.369446 685.350952,660.083008 685.502319,660.796570 
	C683.441284,660.566162 681.224792,660.718201 679.375610,659.966614 
	C678.204468,659.490723 677.381226,657.763367 676.746643,656.432861 
	C674.298950,651.300537 670.314819,650.261108 664.753174,651.974121 
	C664.573547,654.710632 664.381897,657.630737 664.175537,660.774475 
	C662.244385,660.774475 660.469788,660.774475 658.393372,660.774475 
	C658.393372,649.959534 658.393372,639.197754 658.393372,628.183167 
	C664.477722,628.183167 670.615723,627.740112 676.653259,628.328003 
	C681.215820,628.772217 684.685547,631.782654 685.706421,636.510742 
	C686.956787,642.302002 685.222839,647.071777 679.197021,650.190186 
	C681.129517,652.973816 682.880737,655.496460 684.840088,658.337463 
M674.730225,645.867493 
	C678.443787,644.725159 680.291199,642.230835 679.621216,638.368225 
	C678.926086,634.360657 675.833923,633.203796 672.260559,633.031189 
	C669.821350,632.913330 667.371887,633.008606 664.703247,633.008606 
	C664.703247,637.564453 664.703247,641.633484 664.703247,645.999939 
	C667.965881,645.999939 670.927002,645.999939 674.730225,645.867493 
z"/>
<path fill="#F1F1FC" opacity="1.000000" stroke="none" 
	d="
M784.783447,645.814697 
	C779.568298,646.539062 774.495544,646.844482 769.198975,647.163269 
	C769.198975,649.935425 769.198975,652.539001 769.198975,655.644653 
	C775.164001,655.644653 781.084839,655.644653 787.371460,655.644653 
	C787.556396,657.492859 787.695618,658.883972 787.873169,660.658203 
	C779.460144,660.658203 771.381287,660.658203 763.008911,660.658203 
	C763.008911,649.955261 763.008911,639.202271 763.008911,628.101929 
	C770.767761,628.101929 778.516846,628.101929 786.755188,628.101929 
	C786.820496,629.500916 786.891235,631.017578 786.978088,632.878235 
	C780.964172,632.878235 775.342041,632.878235 769.343018,632.878235 
	C769.343018,635.728760 769.343018,638.266174 769.343018,641.298706 
	C774.278687,641.298706 779.201782,641.298706 784.525696,641.298706 
	C784.686707,642.947388 784.806274,644.171509 784.783447,645.814697 
z"/>
<path fill="#F2F3FC" opacity="1.000000" stroke="none" 
	d="
M621.186279,655.843506 
	C625.486206,655.843506 629.308167,655.843506 633.540100,655.843506 
	C633.540100,657.547852 633.540100,659.047485 633.540100,660.781494 
	C625.536499,660.781494 617.602539,660.781494 609.315735,660.781494 
	C609.315735,650.024109 609.315735,639.297607 609.315735,628.164917 
	C616.926514,628.164917 624.644592,628.164917 632.780518,628.164917 
	C632.780518,629.508911 632.780518,631.003967 632.780518,632.901489 
	C627.058899,632.901489 621.448914,632.901489 615.487610,632.901489 
	C615.487610,635.814636 615.487610,638.351196 615.487610,641.385498 
	C620.601929,641.385498 625.534241,641.385498 630.822021,641.385498 
	C630.947266,643.253113 631.041321,644.655334 631.178284,646.697998 
	C625.778687,646.697998 620.727234,646.697998 615.409668,646.697998 
	C615.409668,649.898499 615.409668,652.490601 615.409668,655.843445 
	C617.192444,655.843445 618.950378,655.843445 621.186279,655.843506 
z"/>
<path fill="#ECEAFB" opacity="1.000000" stroke="none" 
	d="
M721.984741,633.474243 
	C714.844116,637.312561 712.494141,644.181702 715.928833,650.267029 
	C719.541077,656.666870 726.845520,657.575745 735.287354,652.450134 
	C736.398987,653.440918 737.590088,654.502441 738.769897,655.553955 
	C733.082764,662.691406 721.403198,663.524841 714.072327,657.526978 
	C706.757385,651.542053 705.928467,640.071716 712.299011,632.989746 
	C719.058899,625.475037 730.787781,625.215149 738.924133,632.692627 
	C737.835266,633.844666 736.749023,634.993958 736.640320,635.109009 
	C731.173279,634.421143 726.762390,633.866089 721.984741,633.474243 
z"/>
<path fill="#EEEDFB" opacity="1.000000" stroke="none" 
	d="
M382.049866,634.802612 
	C376.363434,640.277832 375.588531,646.851196 379.737762,651.875183 
	C383.992157,657.026550 390.563843,657.278870 397.864807,652.356384 
	C399.000580,653.353333 400.206207,654.411682 401.393402,655.453796 
	C396.430908,662.474243 384.685516,663.547302 377.277832,657.863098 
	C369.618805,651.986023 368.553314,640.293640 375.015533,633.037292 
	C381.745941,625.479797 393.683655,625.199463 401.552155,632.738464 
	C400.505280,633.883118 399.449402,635.037537 398.195435,636.408569 
	C393.152527,632.882202 387.978790,631.337524 382.049866,634.802612 
z"/>
<path fill="#5F18EB" opacity="1.000000" stroke="none" 
	d="
M641.000000,516.045593 
	C645.610779,516.038330 649.723816,516.038330 653.762329,516.038330 
	C658.554443,545.276184 642.871399,572.117615 616.579041,579.290894 
	C606.069946,582.158020 595.166443,583.317017 585.038574,577.723145 
	C581.827393,575.949585 578.764893,573.141174 576.761841,570.070801 
	C564.570862,551.383606 574.613708,524.565857 596.448364,520.092163 
	C610.806152,517.150330 625.795654,517.291992 641.000000,516.045593 
z"/>
<path fill="#621CEB" opacity="1.000000" stroke="none" 
	d="
M451.228394,649.987122 
	C447.204803,655.287476 442.828674,657.045227 437.760468,655.556335 
	C432.756531,654.086426 429.966248,650.639893 429.496033,645.506042 
	C429.071198,640.867859 430.663177,636.951050 434.781952,634.501465 
	C438.791748,632.116882 443.051300,632.102234 447.078247,634.414368 
	C451.222229,636.793701 452.817780,640.703430 452.512177,645.350403 
	C452.416748,646.801453 451.787781,648.217468 451.228394,649.987122 
z"/>
<path fill="#6522EC" opacity="1.000000" stroke="none" 
	d="
M674.309204,645.933716 
	C670.927002,645.999939 667.965881,645.999939 664.703247,645.999939 
	C664.703247,641.633484 664.703247,637.564453 664.703247,633.008606 
	C667.371887,633.008606 669.821350,632.913330 672.260559,633.031189 
	C675.833923,633.203796 678.926086,634.360657 679.621216,638.368225 
	C680.291199,642.230835 678.443787,644.725159 674.309204,645.933716 
z"/>
</svg>