<svg width="2732" height="550" viewBox="0 0 2732 550" fill="none" xmlns="http://www.w3.org/2000/svg">
<g clip-path="url(#clip0_19_11)">
<path d="M1.01147 262.33C13.6221 261.857 26.2326 261.857 39.2016 261.857C39.2016 283.403 39.2016 304.57 39.2016 325.934C45.1168 322.689 50.44 319.051 56.2937 316.777C61.2764 314.842 66.8557 313.658 72.1959 313.564C92.7562 313.206 113.327 313.524 133.893 313.386C150.517 313.274 164.924 319.096 177.947 329.008C193.619 340.936 202.333 357.048 206.22 376.024C206.884 379.266 207.295 382.622 207.303 385.926C207.381 419.452 207.35 452.979 207.35 486.911C194.315 486.911 181.45 486.911 167.905 486.911C167.905 485.224 167.905 483.442 167.905 481.659C167.905 451.16 167.821 420.66 167.937 390.161C168.005 372.555 157.557 358.535 140.751 353.552C137.3 352.53 133.593 351.949 129.997 351.913C113.141 351.745 96.2795 351.647 79.4251 351.89C61.1381 352.154 46.0702 361.476 41.2113 379.896C40.2071 383.703 39.5411 387.722 39.5229 391.647C39.3853 421.471 39.4476 451.297 39.4476 481.122C39.4476 482.955 39.4476 484.787 39.4476 487.316C26.763 487.316 14.3613 487.316 1.48551 487.316C1.01147 412.479 1.01147 337.642 1.01147 262.33Z" fill="#2D3748"/>
<path d="M516.303 551.011C511.529 550.342 507.212 549.625 502.88 549.013C491.596 547.421 481.85 542.359 472.914 535.595C472.087 534.968 471.497 532.689 471.978 531.881C477.466 522.67 483.185 513.596 489.145 503.996C495.948 510.043 504.018 511.977 512.372 513.483C521.028 515.045 535.674 507.829 541.039 498.787C543.401 494.808 547.408 490.856 547.554 486.779C547.699 482.754 543.986 478.549 541.84 474.49C526.124 444.764 510.379 415.054 494.639 385.341C486.191 369.391 477.754 353.436 469.277 337.502C465.185 329.812 461.012 322.164 456.523 313.842C458.723 313.657 460.129 313.438 461.536 313.435C472.66 313.407 483.793 313.694 494.901 313.287C499.485 313.118 501.842 314.878 503.796 318.629C508.69 328.029 513.86 337.285 518.847 346.637C533.027 373.231 547.164 399.848 561.333 426.449C564.21 431.851 567.148 437.221 570.418 443.273C572.945 438.74 575.356 434.57 577.621 430.322C586.428 413.811 595.124 397.24 603.984 380.757C615.584 359.175 627.265 337.635 639.056 316.157C639.755 314.883 641.733 313.558 643.134 313.538C656.771 313.343 670.411 313.421 684.669 313.421C680.576 321.258 676.722 328.73 672.78 336.155C668.981 343.314 665.041 350.398 661.25 357.561C650.865 377.182 640.562 396.845 630.16 416.456C616.037 443.082 601.896 469.698 587.669 496.268C583.22 504.578 578.902 513.008 573.764 520.888C562.176 538.661 545.657 548.608 524.145 550.641C521.547 551.011 519.15 551.011 516.303 551.011Z" fill="#2D3748"/>
<path d="M2733.01 415.059C2675.91 415.533 2618.81 415.533 2561.78 415.533C2558.15 433.058 2568.53 445.43 2584.62 448.785C2589.63 449.828 2594.91 449.831 2600.06 449.862C2619.61 449.977 2639.16 449.693 2658.71 449.984C2671.63 450.177 2682.12 445.615 2690.04 435.535C2691.68 433.449 2692.41 433.518 2694.27 434.894C2703.99 442.058 2713.79 449.103 2724.51 456.878C2720.54 461.87 2717.15 467.409 2712.55 471.639C2703.32 480.132 2692.54 486.291 2680.1 488.945C2676.22 489.772 2672.19 490.274 2668.23 490.289C2639.76 490.401 2611.27 490.452 2582.8 490.322C2550.33 490.174 2525.4 470.045 2516.84 439.177C2515.87 435.705 2515.62 431.948 2515.6 428.319C2515.48 410.296 2515.42 392.271 2515.57 374.248C2515.81 348.019 2534.18 323.554 2558.55 314.404C2566.44 311.442 2574.49 310.24 2582.94 310.303C2611.92 310.52 2640.92 309.947 2669.89 310.526C2692.87 310.985 2710.18 322.425 2722.73 341.291C2728.62 350.151 2731.18 360.196 2732.65 370.857C2733.01 385.56 2733.01 400.073 2733.01 415.059ZM2649.56 317.463C2627.99 317.463 2606.42 317.409 2584.85 317.509C2580.54 317.529 2576.13 317.671 2571.93 318.547C2550.12 323.097 2534.77 335.891 2526.91 356.577C2524.04 364.127 2522.98 372.72 2522.83 380.869C2522.5 398.475 2522.06 416.236 2523.96 433.685C2526.05 452.92 2538.05 466.644 2554.66 475.992C2563.88 481.186 2574.22 483.267 2584.77 483.21C2614.37 483.051 2643.96 482.719 2673.55 482.198C2684.29 482.01 2706.06 471.769 2713.18 458.241C2706.52 453.437 2699.86 448.634 2693.28 443.89C2682.78 453.818 2675.41 456.697 2666.17 456.842C2640.22 457.252 2614.26 457.173 2588.31 456.893C2577.94 456.781 2568.65 452.548 2561.87 444.872C2552.78 434.596 2552.02 421.826 2553.36 408.248C2610.98 408.248 2668.34 408.248 2726.81 408.248C2725.82 393.822 2725.74 379.882 2723.73 366.227C2720.34 343.242 2705.75 328.898 2684.79 320.519C2673.75 316.106 2662.06 317.667 2649.56 317.463Z" fill="#273445"/>
<path d="M971.625 1.01105C968.342 19.196 964.654 37.381 960.736 56.6994C941.474 45.6343 927.787 31.6022 916.68 13.8249C933.814 8.34812 950.312 3.47014 967.787 1.38012C969.063 1.01105 970.142 1.01105 971.625 1.01105ZM946.042 10.0033C938.601 11.9816 931.161 13.9599 923.72 15.9382C923.449 16.496 923.178 17.0537 922.908 17.6115C933.823 28.4462 944.739 39.281 955.655 50.1158C956.331 49.8488 957.007 49.5819 957.683 49.3149C960.936 35.1381 964.188 20.9612 967.741 5.47709C959.924 7.00308 953.354 8.28548 946.042 10.0033Z" fill="#2D3748"/>
<path d="M384.864 452.907C395.372 450.656 403.88 445.833 410.123 437.587C418.207 443.327 425.845 448.814 433.556 454.197C437.027 456.62 437.161 458.682 434.444 462.216C424.802 474.753 412.098 482.244 397.013 485.966C393.177 486.912 389.103 487.245 385.136 487.26C356.651 487.365 328.161 487.636 299.682 487.229C269.715 486.8 245.291 467.802 237.837 438.313C236.388 432.58 235.9 426.498 235.767 420.559C235.47 407.256 235.419 393.935 235.735 380.633C236.196 361.15 242.222 343.721 256.883 330.245C268.322 319.731 281.798 313.451 297.676 313.43C327.678 313.391 357.681 313.271 387.682 313.462C415.735 313.641 443.223 338.027 445.971 365.845C447.479 381.107 447.971 396.469 448.96 412.406C390.379 412.406 333.015 412.406 275.749 412.406C271.914 434.745 286.939 452.693 309.573 452.891C334.517 453.109 359.464 452.935 384.864 452.907ZM378.798 379.136C388.66 379.136 398.523 379.136 408.679 379.136C408.208 377.526 407.758 376.602 407.687 375.65C406.397 358.432 391.663 345.183 373.66 345.646C352.605 346.187 331.524 345.924 310.458 345.713C298.642 345.594 289.01 349.528 282.292 359.417C278.365 365.196 275.896 371.549 276.3 379.136C310.423 379.136 344.105 379.136 378.798 379.136Z" fill="#2D3748"/>
<path d="M931.318 117.041C924.29 126.094 918.11 135.424 910.614 143.54C896.369 158.964 881.469 173.79 866.641 188.665C859.918 195.409 852.717 201.676 845.161 208.691C839.491 202.615 833.815 196.529 828.132 190.449C827.099 189.344 826.059 188.243 824.989 187.174C807.484 169.669 790.043 152.1 772.398 134.737C769.354 131.74 769.334 129.911 772.445 127.089C777.303 122.681 781.831 117.904 786.429 113.215C801.135 98.218 815.695 83.0763 830.521 68.1991C852.398 46.2465 878.576 30.9236 907.086 19.2972C909.792 18.1938 911.602 18.3184 913.517 21.3669C924.562 38.9458 939.136 53.0985 956.888 64.3912C950.44 82.8263 942.152 100.344 931.318 117.041ZM923.473 92.246C923.812 90.2995 924.366 88.363 924.456 86.405C925.105 72.3083 918.372 61.7559 906.788 55.0931C896.175 48.9892 884.587 49.6543 874.203 56.6388C863.999 63.5022 858.734 73.6449 858.95 85.8021C859.089 93.5804 862.031 100.991 867.313 107.077C873.004 113.636 886.485 120.29 897.425 117.794C911.27 114.636 919.03 105.821 923.473 92.246Z" fill="#2D3748"/>
<path d="M1685.12 398.346C1684.47 390.248 1684.75 382.421 1682.94 375.117C1680.24 364.288 1667.75 355.893 1656.56 355.884C1646.45 355.876 1636.31 356.387 1626.24 355.765C1610.86 354.815 1595.6 370.515 1595.91 386.179C1596.57 418.846 1596.11 451.535 1596.11 484.214C1596.11 486.043 1596.11 487.872 1596.11 490.021C1580.89 490.021 1566.01 490.021 1550.86 490.021C1550.86 430.318 1550.86 370.748 1550.86 310.782C1565.67 310.782 1580.56 310.782 1595.84 310.782C1595.84 313.651 1595.84 316.614 1595.84 320.116C1601.67 317.558 1606.84 314.758 1612.35 313.036C1617.18 311.525 1622.37 310.702 1627.44 310.498C1637.03 310.111 1646.65 310.579 1656.25 310.344C1673.26 309.926 1687.42 316.781 1700.3 327.084C1702.9 329.164 1705.43 331.336 1708.2 333.644C1712.98 329.751 1717.58 325.427 1722.74 321.922C1733.94 314.317 1746.26 310.041 1760.04 310.335C1771.66 310.583 1783.3 310.114 1794.92 310.45C1812.18 310.949 1827.07 317.678 1839.82 329.092C1850.12 338.315 1858.63 349.003 1862.24 362.591C1864.26 370.202 1865.9 378.164 1866 385.99C1866.41 418.665 1866.18 451.348 1866.18 484.027C1866.18 485.872 1866.18 487.717 1866.18 489.954C1851.09 489.954 1836.21 489.954 1820.66 489.954C1820.66 488.244 1820.66 486.461 1820.66 484.677C1820.66 451.66 1820.67 418.643 1820.65 385.626C1820.65 369.872 1806.67 355.829 1790.71 355.877C1780.77 355.907 1770.83 355.868 1760.88 355.886C1747.07 355.911 1733.66 367.398 1731.68 381.066C1731.09 385.169 1730.69 389.341 1730.68 393.483C1730.6 423.804 1730.64 454.126 1730.64 484.447C1730.64 486.253 1730.64 488.058 1730.64 490.103C1715.37 490.103 1700.61 490.103 1685.12 490.103C1685.12 459.674 1685.12 429.263 1685.12 398.346ZM1734.72 324.006C1725.52 330.813 1716.33 337.62 1706.84 344.653C1707.22 345.015 1706.56 344.514 1706.04 343.887C1696.24 331.9 1684.42 322.388 1669 319.687C1657.57 317.686 1645.73 317.976 1634.07 317.497C1617.69 316.825 1603.85 322.518 1592.64 334.543C1591.5 335.764 1590.13 336.764 1587.85 338.755C1587.85 330.746 1587.85 324.266 1587.85 317.858C1577.53 317.858 1567.7 317.858 1557.95 317.858C1557.95 373.113 1557.95 427.973 1557.95 482.928C1568.06 482.928 1577.89 482.928 1588.02 482.928C1588.02 480.755 1588.02 478.924 1588.02 477.093C1588.02 449.462 1587.97 421.83 1588.06 394.199C1588.08 389.548 1588.58 384.89 1589.03 380.252C1590.79 362.197 1607.28 348.453 1625.46 347.854C1635.56 347.521 1645.69 347.539 1655.79 347.869C1665.16 348.175 1673.54 351.532 1680.54 357.9C1689.3 365.864 1693.13 376.042 1693.18 387.643C1693.28 417.633 1693.21 447.624 1693.21 477.614C1693.21 479.397 1693.21 481.18 1693.21 482.868C1703.72 482.868 1713.55 482.868 1723.56 482.868C1723.56 452.143 1723.51 421.822 1723.6 391.501C1723.62 386.853 1723.97 382.17 1724.62 377.566C1726.66 363 1743.15 348.833 1757.88 348.809C1769.17 348.79 1780.47 348.621 1791.76 348.9C1796 349.005 1800.48 349.488 1804.38 351.003C1817.24 355.992 1827.95 369.15 1827.82 384.21C1827.55 415.378 1827.74 446.549 1827.74 477.719C1827.74 479.492 1827.74 481.264 1827.74 483.01C1838.54 483.01 1848.58 483.01 1859.1 483.01C1859.1 480.944 1859.1 479.133 1859.1 477.323C1859.1 446.996 1859.25 416.667 1858.96 386.342C1858.9 380.311 1857.61 374.173 1856.07 368.298C1852.43 354.463 1844.7 343.216 1833.73 333.958C1821.33 323.505 1807.28 317.758 1791.08 317.492C1781.64 317.336 1772.2 317.625 1762.76 317.418C1753.08 317.206 1744.06 319.588 1734.72 324.006Z" fill="#273445"/>
<path d="M1379.68 321.499C1389.85 314.716 1400.68 310.776 1412.53 310.464C1425.5 310.122 1438.49 310.153 1451.47 310.445C1467.84 310.813 1481.83 317.417 1494.49 327.518C1505.73 336.487 1513.56 347.793 1518.17 361.227C1520.18 367.094 1522.03 373.381 1522.09 379.496C1522.46 415.041 1522.27 450.591 1522.27 486.14C1522.27 487.301 1522.27 488.463 1522.27 489.987C1507.12 489.987 1492.24 489.987 1476.76 489.987C1476.76 488.165 1476.76 486.372 1476.76 484.579C1476.76 451.22 1476.78 417.862 1476.75 384.504C1476.73 369.305 1463.26 356.71 1448.35 355.973C1438.6 355.491 1428.79 356.215 1419.03 355.809C1401.9 355.096 1387.15 370.887 1387.53 387.3C1388.27 419.63 1387.75 451.99 1387.75 484.338C1387.75 486.153 1387.75 487.969 1387.75 490.064C1372.56 490.064 1357.8 490.064 1342.23 490.064C1342.23 488.396 1342.23 486.63 1342.23 484.864C1342.23 453.022 1342.2 421.18 1342.25 389.338C1342.26 376.499 1337.11 366.353 1326.13 359.767C1322.47 357.574 1317.81 356.263 1313.53 356.053C1302.94 355.533 1292.3 355.882 1281.68 355.883C1269.75 355.884 1258.01 364.076 1254.34 375.447C1253.09 379.318 1252.32 383.525 1252.3 387.583C1252.14 419.761 1252.21 451.941 1252.21 484.12C1252.21 485.955 1252.21 487.791 1252.21 489.987C1237.06 489.987 1222.17 489.987 1206.99 489.987C1206.99 430.375 1206.99 370.8 1206.99 310.805C1221.73 310.805 1236.61 310.805 1251.98 310.805C1251.98 313.773 1251.98 316.891 1251.98 320.761C1256.24 318.569 1259.66 316.177 1263.45 314.995C1269.71 313.047 1276.14 311.039 1282.61 310.579C1292.84 309.853 1303.16 310.486 1313.44 310.363C1329.87 310.166 1343.69 316.604 1356.09 326.774C1358.8 328.99 1361.49 331.219 1364.38 333.603C1369.28 329.66 1374.3 325.62 1379.68 321.499ZM1379.65 479.54C1379.66 451.241 1379.61 422.941 1379.7 394.641C1379.72 389.824 1380.15 384.989 1380.68 380.194C1382.66 362.44 1399.23 348.395 1416.06 348.762C1426.67 348.993 1437.29 349.012 1447.9 348.746C1458.05 348.492 1466.35 352.552 1473.42 359.234C1481.28 366.667 1484.72 376.325 1484.78 386.933C1484.97 417.084 1484.85 447.238 1484.85 477.39C1484.85 479.194 1484.85 480.998 1484.85 482.95C1495.19 482.95 1505.02 482.95 1515.19 482.95C1515.19 480.806 1515.19 478.981 1515.19 477.156C1515.19 447.846 1515.02 418.534 1515.25 389.226C1515.43 365.445 1506.05 346.41 1487.53 331.864C1476.61 323.292 1464.12 318.046 1450.13 317.551C1438.18 317.128 1426.18 317.004 1414.24 317.597C1403.02 318.155 1392.37 321.561 1383.37 328.538C1376.62 333.773 1370.39 339.692 1363.82 345.397C1363.92 345.461 1363.57 345.341 1363.38 345.096C1353.31 332.375 1341.13 322.309 1324.83 319.623C1313.54 317.764 1301.89 318.097 1290.4 317.465C1277.41 316.751 1265.81 320.515 1255.62 328.529C1252.17 331.251 1248.96 334.297 1244.87 337.867C1244.87 330.503 1244.87 324.054 1244.87 317.756C1234.26 317.756 1224.22 317.756 1214.12 317.756C1214.12 373.021 1214.12 427.992 1214.12 482.866C1224.63 482.866 1234.79 482.866 1245.13 482.866C1245.13 449.281 1245.13 416.102 1245.14 382.923C1245.14 381.244 1244.91 379.48 1245.33 377.898C1250.35 358.989 1264.52 348.562 1283.14 347.85C1291.73 347.522 1300.33 347.92 1308.92 347.77C1332.44 347.36 1349.84 365.563 1349.44 388.131C1348.91 417.937 1349.31 447.76 1349.31 477.576C1349.31 479.362 1349.31 481.148 1349.31 483.262C1359.03 483.262 1368.1 483.335 1377.17 483.143C1378.02 483.125 1378.83 481.427 1379.65 479.54Z" fill="#273445"/>
<path d="M2104.71 415.533C2048.31 415.533 1992.4 415.533 1936.54 415.533C1934.67 433.371 1944.72 445.668 1960.45 448.811C1964.82 449.685 1969.39 449.837 1973.87 449.862C1993.59 449.969 2013.31 449.621 2033.02 450.004C2047.24 450.281 2058.64 445.512 2067.43 433.23C2078.27 441.045 2089.06 448.825 2100.07 456.765C2089.37 473.008 2075.54 484.462 2056.48 488.706C2052.61 489.566 2048.61 490.26 2044.68 490.278C2016.03 490.41 1987.38 490.528 1958.73 490.297C1931.83 490.081 1911.73 477.837 1898.54 454.55C1894.21 446.893 1891.61 438.489 1891.45 429.508C1891.15 412.728 1890.11 395.928 1890.6 379.173C1891.51 348.066 1907.75 323.639 1937.67 313.294C1943.04 311.437 1949.01 310.562 1954.71 310.511C1984.87 310.244 2015.04 310.253 2045.2 310.424C2074.58 310.59 2102.05 333.159 2106.58 362.927C2109.05 379.195 2108.2 395.963 2108.97 412.501C2109.11 415.603 2107.39 415.697 2104.71 415.533ZM1898.55 370.953C1898.55 381.398 1898.54 391.843 1898.54 402.287C1898.55 411.889 1897.32 421.687 1898.8 431.058C1903.6 461.5 1927.72 482.393 1958.76 483.135C1986.05 483.788 2013.36 483.342 2040.66 483.199C2044.94 483.177 2049.28 482.502 2053.47 481.594C2068.3 478.384 2080.17 470.457 2089.39 458.604C2082.54 453.676 2075.76 448.794 2069.08 443.983C2059.5 453.047 2048.78 457.346 2035.82 457.106C2012.73 456.677 1989.63 457.452 1966.55 456.867C1937.94 456.141 1925.05 435.333 1929.71 408.32C1986.89 408.32 2044.12 408.32 2102.64 408.32C2101.68 393.931 2101.76 379.829 2099.61 366.076C2095.19 337.833 2070.17 317.79 2042.85 317.522C2015.55 317.254 1988.24 317.416 1960.94 317.509C1956.29 317.525 1951.54 317.646 1947.01 318.575C1931.9 321.673 1919.93 329.832 1910.58 342.049C1904.21 350.387 1900.74 359.907 1898.55 370.953Z" fill="#273445"/>
<path d="M2300.33 339.986C2312.13 325.458 2326.83 316.135 2344.67 311.914C2348.52 311.003 2352.55 310.471 2356.5 310.451C2382.63 310.325 2408.75 310.719 2434.87 310.291C2460.3 309.874 2481.04 319.372 2498.46 338.362C2491.75 343.882 2485.17 349.354 2478.52 354.744C2474.15 358.291 2469.56 361.583 2465.31 365.263C2463.3 366.999 2462.04 367.45 2459.82 365.506C2451.89 358.563 2442.86 355.406 2431.97 355.697C2409.07 356.308 2386.12 356.302 2363.22 355.722C2349.89 355.384 2333.1 367.608 2331.45 382.689C2330.04 395.636 2328.69 408.699 2332.47 421.417C2336.73 435.754 2349.68 444.85 2364.64 444.852C2385.71 444.855 2406.78 444.53 2427.84 444.972C2440.9 445.246 2452.82 443.519 2461.53 432.427C2474.04 442.34 2486.21 451.982 2498.73 461.901C2489.8 471.945 2479.56 479.538 2467.25 484.329C2455.62 488.851 2443.61 490.545 2431.15 490.416C2408.57 490.181 2385.99 490.471 2363.4 490.321C2327.05 490.08 2295.26 466.914 2285.4 431.442C2283.78 425.597 2283.07 419.327 2283.04 413.246C2282.96 400.851 2282.7 388.335 2284.24 376.085C2285.91 362.848 2291.71 350.837 2300.33 339.986ZM2472 450.395C2468.82 448.007 2465.64 445.62 2462.32 443.131C2454.05 449.738 2444.52 452.23 2433.75 452.051C2410.17 451.66 2386.57 451.971 2362.98 451.884C2359.68 451.872 2356.27 451.674 2353.11 450.813C2336.01 446.148 2323.54 431.442 2323.38 413.123C2323.3 403.86 2322.85 394.556 2323.56 385.346C2323.98 379.885 2325.34 374.025 2327.99 369.293C2336.23 354.517 2349.55 347.821 2366.32 347.801C2388.9 347.774 2411.48 347.818 2434.06 347.784C2444.7 347.768 2454.12 351.222 2462.53 357.529C2470.58 351.003 2478.62 344.485 2486.99 337.698C2473.28 325.219 2458.03 318.129 2440.63 317.653C2414.19 316.929 2387.72 317.348 2361.27 317.503C2342.68 317.611 2326.67 324.683 2313.29 337.26C2297.46 352.143 2290.44 371.088 2290.06 392.528C2289.91 401.044 2290.38 409.598 2291.05 418.097C2292.73 439.409 2303.19 455.819 2320.06 468.424C2334.3 479.066 2350.65 483.137 2368.13 483.244C2388.02 483.366 2407.91 483.579 2427.78 483.135C2436.86 482.932 2446.04 481.928 2454.93 480.072C2467.23 477.502 2477.86 471.237 2487.15 462.612C2482.09 458.561 2477.31 454.732 2472 450.395Z" fill="#273445"/>
<path d="M917.432 484.34C907.269 488.482 897.067 490.347 886.502 490.349C862.734 490.351 838.966 490.389 815.198 490.338C789.202 490.283 767.518 480.316 750.839 460.593C741.548 449.606 735.303 436.669 734.405 421.943C733.68 410.07 732.779 398.099 733.524 386.271C734.695 367.703 740.952 350.95 753.788 336.749C765.165 324.161 778.869 315.994 795.127 311.9C798.957 310.935 803.012 310.469 806.967 310.45C833.094 310.326 859.228 310.72 885.349 310.291C910.799 309.873 931.546 319.361 948.875 338.398C942.147 343.914 935.534 349.384 928.865 354.785C924.488 358.33 919.906 361.632 915.663 365.327C913.603 367.122 912.343 367.327 910.172 365.444C902.36 358.669 893.512 355.444 882.8 355.707C859.551 356.277 836.279 355.801 813.017 355.91C796.832 355.987 784.155 368.011 782.229 382.006C780.563 394.104 780.415 406.84 782.268 418.883C784.553 433.73 797.025 444.144 812.845 444.642C837.936 445.432 863.072 444.881 888.188 444.836C896.04 444.822 902.131 441.658 912.245 432.613C924.388 442.211 936.577 451.846 949.113 461.755C940.523 472.125 930.034 479.374 917.432 484.34ZM773.84 418.521C773.82 407.405 773.792 396.289 773.791 385.174C773.791 384.006 773.788 382.801 774.049 381.675C779.087 359.972 794.951 347.795 816.98 347.794C838.717 347.794 860.455 347.946 882.19 347.732C893.666 347.62 903.937 350.723 912.937 357.506C921.076 350.934 929.032 344.51 937.377 337.772C923.938 325.219 908.725 318.375 891.327 317.625C874.172 316.885 856.959 317.339 839.773 317.505C827.201 317.626 814.576 317.499 802.077 318.618C785.71 320.083 772.222 328.396 761.097 339.948C746.63 354.971 740.616 373.667 740.464 394.28C740.409 401.791 741.112 409.307 741.405 416.823C742.22 437.772 752.598 453.847 768.118 466.667C782.727 478.732 800.27 483.266 819.055 483.271C838.769 483.276 858.485 483.141 878.198 483.319C890.789 483.433 903.23 482.329 914.711 477.064C922.836 473.338 930.314 468.204 938.667 463.359C929.184 455.889 921.009 449.451 912.878 443.046C904.819 449.215 896.081 452.168 885.933 452.036C861.167 451.712 836.395 451.94 811.625 451.909C809.802 451.907 807.929 451.824 806.165 451.411C788.876 447.361 778.401 436.453 773.84 418.521Z" fill="#273445"/>
<path d="M1089.36 310.386C1102.34 310.463 1114.86 309.523 1126.91 314.333C1154.19 325.216 1172.04 344.296 1177.22 373.495C1181.08 395.272 1181.94 417.449 1174.23 438.617C1164.47 465.452 1145.28 482.464 1116.97 488.279C1110.67 489.573 1104.13 490.182 1097.69 490.258C1077.14 490.503 1056.58 490.412 1036.02 490.335C1004.81 490.218 974.313 470.756 963.969 440.372C960.973 431.569 958.642 422.183 958.174 412.954C957.315 396.027 956.787 378.884 962.734 362.484C972.53 335.467 991.862 318.928 1019.34 311.623C1023.15 310.612 1027.26 310.462 1031.23 310.438C1050.44 310.322 1069.65 310.386 1089.36 310.386ZM1001.74 473.252C1002.85 473.977 1003.9 474.814 1005.07 475.408C1015.93 480.907 1027.6 483.088 1039.62 483.217C1058.99 483.423 1078.38 483.481 1097.75 483.201C1111.29 483.005 1124.34 480.477 1136.13 473.141C1158.54 459.203 1170.76 439.402 1171.27 412.793C1171.41 405.217 1171.08 397.629 1171.34 390.059C1171.79 376.578 1168.62 364.067 1161.51 352.672C1147.73 330.559 1128.05 318.066 1101.65 317.531C1084.13 317.175 1066.6 317.366 1049.08 317.508C1041.39 317.571 1033.6 317.382 1026.05 318.586C998.352 323.008 979.799 339.123 970.042 365.066C962.949 383.924 965.021 403.711 967.176 423.029C969.646 445.163 982.161 461.505 1001.74 473.252Z" fill="#273445"/>
<path d="M738.661 267.225C726.301 271.723 714.256 275.999 701.15 280.653C707.503 238.477 732.6 209.934 761.371 184.132C754.86 173.569 757.81 165.384 764.897 157.745C764.262 156.997 763.78 156.346 763.211 155.782C762.76 155.337 762.202 154.999 760.023 153.28C749.954 164.968 739.886 176.656 729.817 188.345C728.836 187.685 727.855 187.026 726.874 186.366C729.63 148.205 732.385 110.045 735.162 71.5964C764.761 80.0636 792.997 78.887 820.748 67.1261C820.85 67.5266 820.951 67.9271 821.053 68.3276C800.363 89.8443 779.672 111.361 758.666 133.206C786.749 161.739 814.895 190.336 843.206 219.101C862.487 199.404 881.893 179.58 901.299 159.756C892.783 187.277 892.816 214.679 901.848 242.676C863.789 245.633 826.668 248.517 788.093 251.514C799.598 238.849 810.433 226.921 821.269 214.993C821.072 214.573 820.876 214.152 820.68 213.732C819.51 214.138 817.967 214.202 817.228 215.005C811.139 221.618 803.958 221.563 796.092 219.1C794.816 218.701 792.529 219.472 791.553 220.501C784.54 227.895 777.671 235.431 770.899 243.048C763.685 251.162 755.26 257.711 745.875 263.087C743.58 264.402 741.275 265.699 738.661 267.225ZM732.327 166.536C732.327 169.47 732.327 172.403 732.327 175.995C742.673 166.168 752.371 156.956 762.472 147.36C764.143 149.228 765.539 151.201 767.338 152.686C769.135 154.17 771.335 155.167 773.976 156.747C770.053 160.296 767.901 161.961 766.089 163.938C761.879 168.531 761.059 176.311 764.809 180.391C767.42 183.23 766.499 184.71 764.314 186.993C753.655 198.131 742.718 209.046 732.687 220.732C719.826 235.713 712.097 253.46 707.013 272.741C708.131 272.84 708.824 273.077 709.424 272.931C737.937 265.974 760.751 250.37 778.901 227.499C783.514 221.685 788.831 216.429 793.939 210.79C805.467 223.074 812.152 212.643 819.293 205.951C822.272 209.366 824.869 212.344 827.478 215.335C818.346 225.327 809.38 235.137 799.298 246.169C832.471 243.599 864.11 241.148 895.755 238.697C890.083 217.544 889.706 196.603 892.686 178.006C876.779 192.463 859.457 208.207 841.685 224.36C812.805 195.019 782.532 164.263 751.991 133.234C769.841 114.684 787.314 96.5266 804.787 78.3687C782.919 83.4329 761.426 82.7807 739.281 77.6582C738.28 89.6877 737.198 101.235 736.389 112.801C735.562 124.625 735.098 136.474 734.283 148.299C733.884 154.085 733.049 159.841 732.327 166.536Z" fill="#2D3748"/>
<path d="M2251.55 355.882C2239.25 355.882 2227.45 355.99 2215.66 355.856C2199.6 355.674 2183.85 370.72 2183.8 387.861C2183.72 420.027 2183.78 452.194 2183.78 484.361C2183.78 486.174 2183.78 487.987 2183.78 490.072C2168.58 490.072 2153.82 490.072 2138.66 490.072C2138.66 430.473 2138.66 370.794 2138.66 310.75C2153.4 310.75 2168.29 310.75 2183.54 310.75C2183.54 314.052 2183.54 317.358 2183.54 320.604C2190.09 317.785 2196.23 314.736 2202.66 312.527C2206.66 311.155 2211.08 310.541 2215.32 310.478C2230.99 310.246 2246.66 310.386 2262.33 310.386C2263.97 310.386 2265.6 310.386 2267.48 310.386C2267.48 325.636 2267.48 340.391 2267.48 355.882C2262.35 355.882 2257.2 355.882 2251.55 355.882ZM2163.04 483.272C2167.51 483.272 2171.98 483.272 2176.7 483.272C2176.7 480.703 2176.7 478.867 2176.7 477.031C2176.7 446.715 2176.82 416.398 2176.65 386.083C2176.54 366.499 2195.46 348.336 2213.99 348.747C2227.47 349.046 2240.95 348.813 2254.43 348.795C2256.06 348.793 2257.68 348.648 2259.26 348.572C2259.26 338.007 2259.26 327.847 2259.26 317.465C2244.23 317.465 2229.53 316.672 2214.97 317.795C2207.53 318.368 2199.92 321.53 2193.21 325.084C2187.23 328.257 2182.39 333.578 2176.5 338.397C2176.5 331.214 2176.5 324.435 2176.5 317.73C2165.89 317.73 2155.84 317.73 2145.65 317.73C2145.65 372.961 2145.65 427.925 2145.65 483.272C2151.31 483.272 2156.67 483.272 2163.04 483.272Z" fill="#273445"/>
<path d="M2650.07 317.463C2662.06 317.667 2673.75 316.106 2684.79 320.519C2705.75 328.898 2720.34 343.242 2723.73 366.227C2725.74 379.882 2725.82 393.822 2726.81 408.248C2668.34 408.248 2610.98 408.248 2553.36 408.248C2552.02 421.826 2552.78 434.596 2561.87 444.872C2568.65 452.548 2577.94 456.781 2588.31 456.893C2614.26 457.173 2640.22 457.252 2666.17 456.842C2675.41 456.697 2682.78 453.818 2693.28 443.89C2699.86 448.634 2706.52 453.437 2713.18 458.239C2706.05 471.769 2684.29 482.01 2673.55 482.198C2643.96 482.719 2614.37 483.051 2584.77 483.21C2574.22 483.267 2563.88 481.186 2554.66 475.992C2538.05 466.644 2526.05 452.92 2523.95 433.685C2522.06 416.236 2522.5 398.475 2522.83 380.869C2522.98 372.72 2524.04 364.127 2526.91 356.577C2534.77 335.891 2550.12 323.097 2571.93 318.547C2576.13 317.671 2580.53 317.529 2584.85 317.509C2606.42 317.409 2627.99 317.463 2650.07 317.463ZM2672.8 344.636C2668.15 343.667 2663.51 341.92 2658.84 341.86C2636.1 341.568 2613.34 341.866 2590.6 341.645C2583.7 341.577 2577.58 343.24 2571.63 346.608C2559.44 353.515 2551.48 370.762 2554.68 383.778C2601.28 383.778 2647.85 383.778 2694.68 383.778C2694.88 366.509 2689.5 352.81 2672.8 344.636Z" fill="#273445"/>
<path d="M1735.05 323.803C1744.06 319.588 1753.08 317.206 1762.76 317.418C1772.2 317.625 1781.64 317.336 1791.08 317.491C1807.28 317.758 1821.33 323.505 1833.73 333.958C1844.7 343.216 1852.43 354.462 1856.07 368.298C1857.61 374.173 1858.9 380.311 1858.96 386.342C1859.25 416.667 1859.1 446.996 1859.1 477.323C1859.1 479.133 1859.1 480.944 1859.1 483.01C1848.58 483.01 1838.54 483.01 1827.74 483.01C1827.74 481.264 1827.74 479.492 1827.74 477.719C1827.74 446.549 1827.55 415.378 1827.82 384.21C1827.95 369.149 1817.24 355.992 1804.38 351.003C1800.48 349.488 1796 349.005 1791.76 348.9C1780.47 348.621 1769.17 348.79 1757.88 348.809C1743.15 348.833 1726.66 363 1724.62 377.566C1723.97 382.17 1723.62 386.853 1723.6 391.501C1723.51 421.822 1723.56 452.143 1723.56 482.868C1713.55 482.868 1703.72 482.868 1693.21 482.868C1693.21 481.18 1693.21 479.397 1693.21 477.614C1693.21 447.624 1693.28 417.633 1693.18 387.643C1693.13 376.042 1689.3 365.864 1680.54 357.9C1673.54 351.532 1665.16 348.175 1655.79 347.869C1645.69 347.539 1635.56 347.521 1625.46 347.854C1607.28 348.453 1590.79 362.197 1589.03 380.252C1588.58 384.89 1588.08 389.548 1588.06 394.199C1587.97 421.83 1588.02 449.462 1588.02 477.093C1588.02 478.924 1588.02 480.755 1588.02 482.928C1577.89 482.928 1568.06 482.928 1557.95 482.928C1557.95 427.973 1557.95 373.113 1557.95 317.858C1567.7 317.858 1577.53 317.858 1587.85 317.858C1587.85 324.266 1587.85 330.746 1587.85 338.755C1590.13 336.764 1591.5 335.764 1592.64 334.543C1603.85 322.518 1617.69 316.825 1634.07 317.497C1645.73 317.976 1657.57 317.686 1669 319.687C1684.42 322.388 1696.24 331.9 1706.04 343.887C1706.56 344.514 1707.22 345.015 1706.84 344.652C1716.33 337.62 1725.52 330.813 1735.05 323.803Z" fill="#273445"/>
<path d="M1379.65 480.025C1378.83 481.427 1378.02 483.125 1377.17 483.143C1368.1 483.335 1359.03 483.262 1349.31 483.262C1349.31 481.148 1349.31 479.362 1349.31 477.576C1349.31 447.76 1348.91 417.937 1349.44 388.131C1349.84 365.563 1332.44 347.36 1308.92 347.77C1300.33 347.92 1291.73 347.522 1283.14 347.85C1264.52 348.562 1250.35 358.989 1245.33 377.898C1244.91 379.48 1245.14 381.244 1245.14 382.923C1245.13 416.101 1245.13 449.28 1245.13 482.866C1234.79 482.866 1224.63 482.866 1214.11 482.866C1214.11 427.992 1214.11 373.021 1214.11 317.756C1224.22 317.756 1234.26 317.756 1244.87 317.756C1244.87 324.054 1244.87 330.503 1244.87 337.867C1248.96 334.297 1252.17 331.251 1255.62 328.529C1265.81 320.515 1277.41 316.751 1290.4 317.465C1301.89 318.097 1313.54 317.764 1324.82 319.623C1341.13 322.309 1353.31 332.375 1363.38 345.096C1363.57 345.341 1363.92 345.461 1363.82 345.397C1370.39 339.692 1376.62 333.773 1383.37 328.538C1392.37 321.561 1403.02 318.154 1414.24 317.597C1426.18 317.004 1438.18 317.128 1450.13 317.551C1464.12 318.046 1476.61 323.292 1487.53 331.863C1506.05 346.41 1515.43 365.445 1515.25 389.226C1515.02 418.534 1515.19 447.846 1515.19 477.156C1515.19 478.981 1515.19 480.806 1515.19 482.95C1505.02 482.95 1495.19 482.95 1484.85 482.95C1484.85 480.998 1484.85 479.194 1484.85 477.39C1484.85 447.238 1484.97 417.084 1484.78 386.933C1484.72 376.324 1481.28 366.667 1473.42 359.234C1466.35 352.552 1458.05 348.492 1447.9 348.746C1437.29 349.012 1426.67 348.993 1416.06 348.762C1399.23 348.395 1382.66 362.44 1380.68 380.194C1380.15 384.989 1379.72 389.823 1379.7 394.641C1379.61 422.941 1379.66 451.241 1379.65 480.025Z" fill="#273445"/>
<path d="M1898.58 370.492C1900.74 359.907 1904.21 350.387 1910.58 342.049C1919.93 329.832 1931.9 321.673 1947.01 318.575C1951.54 317.646 1956.29 317.525 1960.94 317.509C1988.24 317.416 2015.55 317.254 2042.85 317.522C2070.17 317.79 2095.19 337.833 2099.61 366.076C2101.76 379.829 2101.68 393.931 2102.64 408.32C2044.12 408.32 1986.89 408.32 1929.71 408.32C1925.05 435.333 1937.94 456.141 1966.55 456.867C1989.63 457.452 2012.73 456.677 2035.82 457.106C2048.78 457.346 2059.5 453.047 2069.08 443.983C2075.76 448.794 2082.54 453.676 2089.39 458.604C2080.17 470.457 2068.3 478.384 2053.47 481.594C2049.28 482.502 2044.94 483.177 2040.66 483.2C2013.36 483.342 1986.05 483.788 1958.76 483.136C1927.72 482.393 1903.6 461.5 1898.8 431.058C1897.32 421.687 1898.55 411.889 1898.54 402.287C1898.54 391.843 1898.55 381.398 1898.58 370.492ZM1934 360.694C1930.62 368.046 1929 375.669 1930.24 383.915C1977 383.915 2023.53 383.915 2070.85 383.915C2070.37 379.665 2069.98 375.753 2069.48 371.855C2067.48 356.249 2052.5 341.285 2034.4 341.625C2011.68 342.052 1988.95 341.879 1966.23 341.673C1951.86 341.542 1941.65 348.11 1934 360.694Z" fill="#273445"/>
<path d="M2472.27 450.65C2477.31 454.732 2482.09 458.561 2487.15 462.612C2477.86 471.237 2467.23 477.502 2454.93 480.072C2446.04 481.928 2436.86 482.932 2427.78 483.135C2407.91 483.579 2388.02 483.366 2368.13 483.244C2350.65 483.137 2334.3 479.066 2320.06 468.424C2303.19 455.819 2292.73 439.409 2291.05 418.097C2290.38 409.598 2289.91 401.044 2290.06 392.528C2290.44 371.088 2297.46 352.143 2313.29 337.26C2326.67 324.683 2342.68 317.611 2361.27 317.503C2387.72 317.348 2414.19 316.929 2440.63 317.653C2458.03 318.129 2473.28 325.219 2486.99 337.698C2478.62 344.485 2470.58 351.003 2462.53 357.529C2454.12 351.222 2444.7 347.768 2434.06 347.784C2411.48 347.818 2388.9 347.774 2366.32 347.801C2349.55 347.821 2336.23 354.517 2327.99 369.293C2325.34 374.025 2323.98 379.885 2323.56 385.346C2322.85 394.556 2323.3 403.86 2323.38 413.123C2323.54 431.442 2336.01 446.148 2353.11 450.813C2356.27 451.674 2359.68 451.872 2362.98 451.884C2386.57 451.971 2410.17 451.66 2433.75 452.051C2444.52 452.23 2454.05 449.738 2462.32 443.131C2465.64 445.62 2468.82 448.007 2472.27 450.65Z" fill="#273445"/>
<path d="M773.984 418.947C778.401 436.453 788.876 447.361 806.165 451.411C807.929 451.824 809.802 451.907 811.625 451.909C836.395 451.94 861.168 451.712 885.933 452.036C896.082 452.168 904.82 449.215 912.878 443.046C921.01 449.451 929.184 455.889 938.667 463.359C930.314 468.204 922.836 473.338 914.711 477.064C903.23 482.329 890.79 483.433 878.198 483.319C858.485 483.141 838.77 483.276 819.055 483.271C800.27 483.266 782.727 478.732 768.119 466.666C752.598 453.847 742.221 437.772 741.405 416.823C741.112 409.307 740.409 401.791 740.464 394.28C740.616 373.667 746.631 354.971 761.097 339.948C772.222 328.396 785.71 320.083 802.077 318.618C814.577 317.499 827.201 317.626 839.773 317.505C856.959 317.339 874.172 316.885 891.327 317.625C908.725 318.375 923.939 325.219 937.377 337.772C929.032 344.51 921.077 350.934 912.937 357.506C903.937 350.723 893.666 347.62 882.19 347.732C860.455 347.946 838.717 347.794 816.981 347.794C794.952 347.795 779.087 359.972 774.05 381.675C773.788 382.801 773.791 384.006 773.791 385.174C773.793 396.289 773.82 407.405 773.984 418.947Z" fill="#273445"/>
<path d="M1001.38 473.17C982.161 461.505 969.646 445.163 967.176 423.029C965.021 403.711 962.949 383.924 970.042 365.066C979.799 339.123 998.352 323.008 1026.05 318.586C1033.6 317.382 1041.39 317.571 1049.08 317.508C1066.6 317.366 1084.13 317.175 1101.65 317.531C1128.05 318.066 1147.73 330.559 1161.51 352.672C1168.62 364.067 1171.79 376.578 1171.34 390.059C1171.08 397.629 1171.41 405.217 1171.27 412.793C1170.76 439.402 1158.54 459.203 1136.13 473.141C1124.34 480.477 1111.29 483.005 1097.75 483.201C1078.38 483.481 1058.99 483.423 1039.62 483.217C1027.6 483.088 1015.93 480.907 1005.07 475.408C1003.9 474.814 1002.85 473.977 1001.38 473.17ZM1012.19 355.948C1004.63 361.947 998.544 369.639 997.648 379.016C996.371 392.393 996.257 406.084 997.556 419.455C999.379 438.215 1016.78 452.011 1035.46 451.948C1057.69 451.873 1079.93 451.95 1102.16 451.924C1123.48 451.9 1140.64 434.192 1140.93 413.324C1141.04 404.907 1141.07 396.485 1140.92 388.068C1140.52 365.586 1123.52 348.336 1101.19 347.889C1079.47 347.453 1057.73 347.608 1036 347.888C1027.61 347.996 1019.71 350.517 1012.19 355.948Z" fill="#273445"/>
<path d="M2162.53 483.272C2156.67 483.272 2151.31 483.272 2145.65 483.272C2145.65 427.925 2145.65 372.961 2145.65 317.73C2155.84 317.73 2165.89 317.73 2176.5 317.73C2176.5 324.435 2176.5 331.214 2176.5 338.397C2182.39 333.578 2187.23 328.257 2193.21 325.084C2199.92 321.53 2207.53 318.368 2214.97 317.795C2229.53 316.672 2244.23 317.465 2259.26 317.465C2259.26 327.847 2259.26 338.007 2259.26 348.572C2257.68 348.648 2256.06 348.793 2254.43 348.795C2240.95 348.813 2227.47 349.046 2213.99 348.747C2195.46 348.336 2176.54 366.499 2176.65 386.083C2176.82 416.398 2176.7 446.715 2176.7 477.031C2176.7 478.867 2176.7 480.703 2176.7 483.272C2171.98 483.272 2167.51 483.272 2162.53 483.272Z" fill="#273445"/>
<path d="M2673.19 344.725C2689.5 352.81 2694.88 366.509 2694.68 383.778C2647.85 383.778 2601.28 383.778 2554.68 383.778C2551.48 370.762 2559.44 353.515 2571.63 346.608C2577.58 343.24 2583.7 341.577 2590.6 341.645C2613.35 341.866 2636.1 341.568 2658.84 341.86C2663.51 341.92 2668.15 343.667 2673.19 344.725ZM2685.49 369.746C2680.66 355.312 2670.05 349.094 2658.28 348.909C2635.55 348.552 2612.81 348.638 2590.08 348.889C2581.22 348.987 2573.56 352.683 2568 359.702C2564.34 364.322 2561.93 369.631 2562.24 375.741C2603.98 375.741 2645.13 375.741 2686.81 375.741C2686.35 373.713 2685.98 372.143 2685.49 369.746Z" fill="#273445"/>
<path d="M878.708 103.466C869.478 97.2648 865.924 84.7491 871.127 74.6123C875.617 65.8639 884.404 59.2962 896.728 62.5362C906.882 65.2057 913.955 72.8933 914.375 81.8642C914.943 94.0266 909.846 103.117 899.19 106.439C892.44 108.543 885.208 108.446 878.708 103.466Z" fill="#2D3748"/>
<path d="M1934.18 360.356C1941.65 348.11 1951.86 341.542 1966.23 341.673C1988.95 341.879 2011.68 342.052 2034.4 341.625C2052.5 341.285 2067.48 356.249 2069.48 371.855C2069.98 375.753 2070.37 379.665 2070.85 383.915C2023.53 383.915 1977 383.915 1930.24 383.915C1929 375.669 1930.62 368.046 1934.18 360.356ZM2044.7 376.103C2050.53 376.103 2056.37 376.103 2062.24 376.103C2060.8 360.433 2049.73 349.27 2034.02 348.928C2011.8 348.444 1989.55 348.803 1967.31 348.806C1951.17 348.807 1939.3 359.605 1937.59 375.843C1937.92 375.917 1938.24 376.056 1938.57 376.056C1973.61 376.078 2008.65 376.09 2044.7 376.103Z" fill="#273445"/>
<path d="M1012.55 355.866C1019.71 350.517 1027.61 347.996 1036 347.888C1057.73 347.608 1079.47 347.453 1101.19 347.889C1123.52 348.336 1140.52 365.586 1140.92 388.068C1141.07 396.485 1141.04 404.907 1140.93 413.324C1140.64 434.192 1123.48 451.9 1102.16 451.924C1079.93 451.95 1057.69 451.873 1035.46 451.948C1016.78 452.011 999.379 438.215 997.556 419.455C996.257 406.084 996.371 392.393 997.648 379.016C998.544 369.639 1004.63 361.947 1012.55 355.866ZM1131.47 377.273C1130.93 376.248 1130.38 375.225 1129.85 374.196C1123.66 362.209 1114.15 355.745 1100.32 355.842C1078.41 355.994 1056.49 356.04 1034.58 355.823C1021.52 355.694 1006.7 367.324 1004.73 381.911C1003.16 393.525 1003.37 405.631 1004.65 417.314C1006.44 433.657 1020.2 444.342 1036.31 444.726C1057.87 445.239 1079.47 445.201 1101.03 444.719C1113.41 444.442 1123.84 438.992 1129.26 427.477C1136.76 411.535 1134.66 394.707 1131.47 377.273Z" fill="#273445"/>
</g>
<defs>
<clipPath id="clip0_19_11">
<rect width="2732" height="550" fill="white"/>
</clipPath>
</defs>
</svg>
