<?xml version="1.0" encoding="utf-8"?>
<!-- Generator: Adobe Illustrator 16.0.3, SVG Export Plug-In . SVG Version: 6.00 Build 0)  -->
<!DOCTYPE svg PUBLIC "-//W3C//DTD SVG 1.1//EN" "http://www.w3.org/Graphics/SVG/1.1/DTD/svg11.dtd">
<svg version="1.1" id="Capa_2" xmlns="http://www.w3.org/2000/svg" xmlns:xlink="http://www.w3.org/1999/xlink" x="0px" y="0px"
	 width="2458px" height="512px" viewBox="0 0 2458 512" enable-background="new 0 0 2458 512" xml:space="preserve">
<g>
	<path fill="#EDEDED" stroke="#EEEEEE" stroke-width="8" d="M759.095,424.072c-20.944,0-40.348-3.764-58.202-11.278
		c-17.861-7.514-33.432-17.985-46.723-31.417c-13.293-13.424-23.633-28.931-31.015-46.521
		c-7.389-17.584-11.077-36.452-11.077-56.591c0-20.141,3.557-39.07,10.674-56.792c7.112-17.723,17.182-33.292,30.209-46.723
		c13.021-13.424,28.527-23.966,46.521-31.619c17.986-7.652,37.861-11.479,59.611-11.479c23.091,0,42.896,3.625,59.409,10.875
		c16.515,7.25,31.077,18.396,43.702,33.431l-39.875,34.64c-16.917-17.723-38-26.583-63.236-26.583
		c-17.993,0-33.632,4.298-46.925,12.889c-13.291,8.597-23.563,20.007-30.813,34.236c-7.25,14.235-10.875,29.943-10.875,47.125
		c0,17.188,3.625,32.825,10.875,46.924c7.25,14.098,17.584,25.375,31.014,33.834c13.424,8.458,29.403,12.688,47.932,12.688
		c13.693,0,25.777-2.277,36.25-6.848c10.473-4.563,19.869-11.41,28.194-20.542l41.083,35.042
		c-10.742,12.889-25.042,23.563-42.896,32.021C805.074,419.843,783.797,424.072,759.095,424.072z"/>
	<path fill="#EDEDED" stroke="#EEEEEE" stroke-width="8" d="M976.595,424.072c-21.486,0-40.682-4.972-57.599-14.903
		c-16.917-9.931-30.146-23.158-39.674-39.674c-9.535-16.514-14.299-34.841-14.299-54.979c0-20.139,4.764-38.528,14.299-55.182
		c9.528-16.646,22.757-29.938,39.674-39.875c16.917-9.931,36.112-14.902,57.599-14.902c21.75,0,41.014,4.972,57.799,14.902
		c16.778,9.938,29.938,23.229,39.473,39.875c9.528,16.652,14.299,35.042,14.299,55.182c0,20.139-4.771,38.466-14.299,54.979
		c-9.535,16.516-22.693,29.743-39.473,39.674C1017.609,419.1,998.345,424.072,976.595,424.072z M976.595,374.53
		c11.542,0,21.611-2.75,30.208-8.257c8.59-5.501,15.235-12.82,19.938-21.952c4.695-9.125,7.049-19.063,7.049-29.806
		c0-11.008-2.354-21.077-7.049-30.208c-4.701-9.126-11.347-16.445-19.938-21.952c-8.598-5.5-18.667-8.257-30.208-8.257
		c-11.548,0-21.618,2.757-30.208,8.257c-8.598,5.507-15.243,12.826-19.938,21.952c-4.701,9.131-7.048,19.2-7.048,30.208
		c0,10.742,2.347,20.681,7.048,29.806c4.695,9.132,11.341,16.451,19.938,21.952C954.977,371.78,965.047,374.53,976.595,374.53z"/>
	<path fill="#EDEDED" stroke="#EEEEEE" stroke-width="8" d="M1210.209,424.072c-15.041,0-29.068-2.818-42.091-8.459
		c-13.026-5.639-24.506-13.493-34.438-23.563c-9.938-10.068-17.66-21.75-23.16-35.042c-5.507-13.291-8.257-27.59-8.257-42.896
		c0-20.403,4.764-38.869,14.299-55.383c9.528-16.515,22.688-29.736,39.472-39.674c16.778-9.932,35.778-14.903,56.994-14.903
		c19.063-0.264,36.112,3.09,51.153,10.069c15.035,6.985,26.986,16.652,35.848,29l-41.889,34.235
		c-4.834-7.25-11.077-13.021-18.729-17.318c-7.652-4.292-16.181-6.445-25.577-6.445c-11.548,0-21.617,2.756-30.207,8.257
		c-8.598,5.507-15.243,12.826-19.938,21.951c-4.701,9.132-7.048,19.201-7.048,30.209c0,10.742,2.479,20.743,7.451,30.007
		c4.966,9.264,11.813,16.652,20.542,22.153c8.723,5.507,18.86,8.257,30.41,8.257c10.472,0,19.333-2.348,26.583-7.049
		c7.25-4.695,13.557-10.675,18.931-17.925l39.473,34.236c-9.938,12.625-22.222,22.493-36.854,29.604
		C1248.535,420.51,1230.884,424.072,1210.209,424.072z"/>
	<path fill="#EDEDED" stroke="#EEEEEE" stroke-width="8" d="M1411.599,424.072c-21.486,0-40.681-4.972-57.599-14.903
		c-16.916-9.931-30.146-23.158-39.674-39.674c-9.535-16.514-14.299-34.841-14.299-54.979c0-20.139,4.765-38.528,14.299-55.182
		c9.528-16.646,22.758-29.938,39.674-39.875c16.918-9.931,36.111-14.902,57.599-14.902c21.75,0,41.015,4.972,57.799,14.902
		c16.778,9.938,29.938,23.229,39.473,39.875c9.528,16.652,14.3,35.042,14.3,55.182c0,20.139-4.771,38.466-14.3,54.979
		c-9.534,16.516-22.693,29.743-39.473,39.674C1452.614,419.1,1433.349,424.072,1411.599,424.072z M1411.599,374.53
		c11.542,0,21.61-2.75,30.208-8.257c8.591-5.501,15.237-12.82,19.938-21.952c4.694-9.125,7.049-19.063,7.049-29.806
		c0-11.008-2.354-21.077-7.049-30.208c-4.701-9.126-11.348-16.445-19.938-21.952c-8.598-5.5-18.666-8.257-30.208-8.257
		c-11.549,0-21.618,2.757-30.209,8.257c-8.597,5.507-15.242,12.826-19.938,21.952c-4.701,9.131-7.049,19.2-7.049,30.208
		c0,10.742,2.349,20.681,7.049,29.806c4.695,9.132,11.342,16.451,19.938,21.952C1389.981,371.78,1400.05,374.53,1411.599,374.53z"/>
	<path fill="#EDEDED" stroke="#EEEEEE" stroke-width="8" d="M1741.075,424.072c-20.944,0-40.348-3.764-58.202-11.278
		c-17.86-7.514-33.431-17.985-46.723-31.417c-13.292-13.424-23.632-28.931-31.015-46.521c-7.388-17.584-11.076-36.452-11.076-56.591
		c0-20.141,3.556-39.07,10.674-56.792c7.111-17.723,17.182-33.292,30.209-46.723c13.021-13.424,28.527-23.966,46.521-31.619
		c17.987-7.652,37.861-11.479,59.612-11.479c23.09,0,42.896,3.625,59.41,10.875c16.515,7.25,31.076,18.396,43.701,33.431
		l-39.875,34.64c-16.917-17.723-38-26.583-63.236-26.583c-17.993,0-33.633,4.298-46.925,12.889
		c-13.291,8.597-23.563,20.007-30.813,34.236c-7.25,14.235-10.875,29.943-10.875,47.125c0,17.188,3.625,32.825,10.875,46.924
		c7.25,14.098,17.584,25.375,31.015,33.834c13.424,8.458,29.402,12.688,47.931,12.688c13.694,0,25.778-2.277,36.25-6.848
		c10.474-4.563,19.868-11.41,28.194-20.542l41.084,35.042c-10.743,12.889-25.041,23.563-42.896,32.021
		C1787.056,419.843,1765.778,424.072,1741.075,424.072z"/>
	<path fill="#EDEDED" stroke="#EEEEEE" stroke-width="8" d="M1866.739,418.836V124.806h54.375V238.39
		c11.278-22.557,32.354-33.833,63.237-33.833c15.034,0,28.597,3.492,40.681,10.472c12.083,6.986,21.611,16.917,28.599,29.806
		c6.979,12.89,10.472,28.195,10.472,45.917v128.084h-54.375V304.043c0-18.257-4.166-31.479-12.486-39.674
		c-8.326-8.188-19.201-12.285-32.625-12.285c-11.549,0-21.688,4.098-30.41,12.285c-8.729,8.194-13.091,21.417-13.091,39.674v114.793
		H1866.739z"/>
	<path fill="#EDEDED" stroke="#EEEEEE" stroke-width="8" d="M2189.763,424.072c-19.069,0-36.452-4.902-52.16-14.702
		c-15.708-9.799-28.194-22.958-37.459-39.472c-9.264-16.516-13.896-34.841-13.896-54.979c0-15.035,2.681-29.202,8.056-42.494
		c5.368-13.29,12.75-24.972,22.153-35.042c9.396-10.069,20.34-17.986,32.825-23.764c12.486-5.771,25.979-8.66,40.479-8.66
		c18.257,0,32.486,3.423,42.693,10.271c10.202,6.847,18.127,15.91,23.766,27.188V209.39h53.973v209.445h-52.765V384.6
		c-5.64,11.818-13.632,21.348-23.966,28.598C2223.123,420.447,2208.555,424.072,2189.763,424.072z M2198.623,374.932
		c12.084,0,22.486-2.75,31.217-8.258c8.723-5.5,15.507-12.818,20.34-21.95c4.833-9.126,7.25-19.063,7.25-29.807
		c0-11.008-2.417-21.077-7.25-30.209c-4.833-9.126-11.617-16.514-20.34-22.152c-8.729-5.64-19.133-8.458-31.217-8.458
		c-11.549,0-21.688,2.757-30.409,8.257c-8.729,5.507-15.507,12.826-20.341,21.952c-4.834,9.131-7.25,19.2-7.25,30.208
		c0,10.473,2.416,20.341,7.25,29.604c4.834,9.264,11.611,16.716,20.341,22.354C2176.937,372.113,2187.074,374.932,2198.623,374.932z
		"/>
	<path fill="#EDEDED" stroke="#EEEEEE" stroke-width="8" d="M2421.764,418.836c-20.682,0-36.521-5.098-47.528-15.306
		c-11.014-10.202-16.514-26.716-16.514-49.542V255.71h-29.403V209.39h29.403v-42.292l54.375-5.64v47.932h44.307v46.319h-44.307
		v95.459c0,12.89,5.64,19.333,16.917,19.333h22.556v48.334H2421.764z"/>
</g>
<path fill="#8B5E3C" d="M74.482,437.598C-32.709,330.424-23.056,146.995,96.042,27.895l388.143,388.144
	C365.086,535.138,181.658,544.774,74.482,437.598L74.482,437.598z"/>
<path fill="#603913" d="M96.042,27.895c-59.542,59.542-20.935,194.712,86.241,301.903c107.206,107.175,242.36,145.782,301.887,86.24
	c59.542-59.526,20.95-194.697-86.256-301.887C290.754,6.961,155.584-31.631,96.042,27.895z"/>
<path fill="#F5F8FA" d="M472.216,346.876c5.964,5.945,15.618,5.931,21.563-0.032c1.958-1.965,3.343-4.426,4.007-7.119
	c1.022-4.102,24.015-101.701-45.941-171.658c-17.078-17.077-42.434-57.544-49.646-69.285c-6.1-6.328-11.177-4.117-22.841-15.781
	c-5.337-5.337-21.423-34.277-67.684,9.59c-5.271,5.173-6.02,13.402-1.769,19.44l160.527,232.725
	C470.981,345.518,471.575,346.235,472.216,346.876L472.216,346.876z"/>
<path fill="#603913" d="M360.604,92.927c10.78,10.78,22.23,21.605,22.23,21.605s36.656,42.754,58.231,64.314
	c64.68,64.696,41.931,157.25,41.931,157.25L305.331,97.059C305.331,97.059,347.902,81.171,360.604,92.927z M379.983,72.281
	c-27.949-21.926-72.837-4.803-83.862,6.038c-10.414,10.414-7.12,30.251,1.236,42.358l160.526,232.725
	c9.547,13.864,28.526,17.364,42.39,7.817c6.156-4.238,10.54-10.591,12.318-17.851c1.098-4.468,25.997-110.134-49.966-186.097
	c-13.601-13.601-29.55-26.5-44.355-44.417c-9.896-12.392-20.452-24.241-31.624-35.497L379.983,72.281L379.983,72.281z"/>
<path fill="#F5F8FA" d="M117.603,49.456c-47.634,47.634-9.027,163.485,86.255,258.752c95.252,95.267,211.119,133.89,258.752,86.256
	c47.634-47.634,9.012-163.5-86.255-258.768C281.087,40.445,165.236,1.822,117.603,49.456L117.603,49.456z"/>
<path fill="#99AAB5" d="M149.272,82.482c-35.344,35.344-1.266,126.769,76.146,204.181c77.428,77.428,168.821,111.491,204.18,76.146
	c35.344-35.344,1.266-126.753-76.146-204.181C276.055,81.201,184.631,47.123,149.272,82.482L149.272,82.482z"/>
<path fill="#99AAB5" d="M298.515,129.171l17.931-5.108c8.569-4.757,20.645-5.078,28.91,2.546l18.465,19.41
	c8.737,10.521,29.26,32.583,45.667,48.99c58.047,58.048,35.359,132.989,34.353,136.161c-1.261,4.018-5.54,6.251-9.558,4.989
	c-1.616-0.507-3.018-1.538-3.982-2.931L296.167,140.057c-2.395-3.483-1.512-8.249,1.971-10.644
	C298.262,129.329,298.387,129.248,298.515,129.171L298.515,129.171z"/>
<path fill="#F5F8FA" d="M352.812,374.916c0,0-48.93-31.791-57.5-57.498c-9.575-28.742-71.084-34.338-80.66-63.095
	c-9.56-28.742-25.555-72.655-34.353-90.235c-8.783-17.58-19.181-0.015-28.757-28.757c-9.575-28.772-28.741-47.938-28.741-47.938
	s0,134.194,28.741,162.935c28.757,28.758,143.77,143.77,153.361,134.165C314.479,374.916,352.812,374.916,352.812,374.916
	L352.812,374.916z"/>
<path fill="#603913" d="M338.754,400.44c0,0-56.874-38.683-65.809-65.473c-9.987-29.946-80.66-39.934-90.632-69.88
	c-9.987-29.946-24.335-83.648-29.168-89.839c-13.967-17.993-19.959-0.016-29.946-29.947c-9.987-29.961-29.946-49.92-29.946-49.92
	s0,139.76,29.946,169.706c29.946,29.962,149.731,149.746,159.734,139.76C292.92,394.875,338.754,400.44,338.754,400.44
	L338.754,400.44z"/>
<path fill="#8B5E3C" d="M322.454,426.819c0,0-55.043-35.756-64.68-64.681c-10.78-32.34-97.051-53.916-107.831-86.256
	c-10.78-32.355-10.78-75.475-21.56-86.256c-10.78-10.794-21.561,0-32.34-32.355c-10.78-32.34-32.34-53.9-32.34-53.9
	s0,150.951,32.34,183.292c32.34,32.341,161.716,161.717,172.496,150.936C279.333,426.819,322.454,426.819,322.454,426.819
	L322.454,426.819z"/>
<path fill="#A97C50" d="M155.371,478.554c1.388-4.346,12.747-0.931,16.971,0.015c105.727,23.268,177.787-21.118,178.58-21.483
	c4.147-2.074,8.828-0.519,10.444,3.415s-0.396,8.798-4.513,10.856c-3.431,1.708-73.311,38.882-184.877,14.317
	c-1.388-0.32-10.994-1.997-11.908-2.912C158.192,480.886,154.425,481.482,155.371,478.554L155.371,478.554z M27.84,326.566
	c1.753,1.738,1.646,3.232,4.422,2.516c4.391-1.113,4.559-7.883,3.888-12.168c-7.501-48.67,5.489-99.17,28.071-157.843
	c1.631-4.284-0.412-8.767-4.483-9.941c-4.147-1.22-8.828,1.28-10.475,5.55c-23.71,61.509-31.364,116.43-23.42,167.921
	C26.076,324.099,26.775,325.486,27.84,326.566z M185.76,466.509c1.151,1.131,2.65,1.84,4.254,2.013
	c57.468,6.495,105.101-17.336,107.099-18.358c4.102-2.089,6.1-6.953,4.437-10.887c-1.646-3.949-6.358-5.429-10.49-3.323
	c-0.442,0.229-41.825,28.101-94.246,22.154c-4.345-0.488-12.594-0.244-13.555,4.192C182.71,464.999,184.067,464.832,185.76,466.509
	L185.76,466.509z"/>
</svg>
