<?xml version="1.0" encoding="UTF-8"?>
<svg version="1.1" xmlns="http://www.w3.org/2000/svg" width="512" height="512">
<path d="M0 0 C0 0.66 0 1.32 0 2 C0.94875 2.0825 1.8975 2.165 2.875 2.25 C3.90625 2.4975 4.9375 2.745 6 3 C7.1875 5 7.1875 5 8 7 C8.99 7.33 9.98 7.66 11 8 C11 8.66 11 9.32 11 10 C11.66 10 12.32 10 13 10 C15.73785133 16.7448433 16.46549189 22.69312109 16.375 29.9375 C16.38660156 30.86240234 16.39820313 31.78730469 16.41015625 32.74023438 C16.38268418 39.27400905 15.19671743 44.85602989 13 51 C12.34 51 11.68 51 11 51 C10.67 53.31 10.34 55.62 10 58 C9.34 58 8.68 58 8 58 C7.938125 58.66 7.87625 59.32 7.8125 60 C6.22224608 65.87170678 3.03567889 70.58293218 -2 74 C-2.33 74.99 -2.66 75.98 -3 77 C-3.66 77 -4.32 77 -5 77 C-5 77.66 -5 78.32 -5 79 C-6.55315386 80.37248681 -8.16885684 81.67478701 -9.8125 82.9375 C-13.39038068 85.66255319 -13.39038068 85.66255319 -16.63671875 88.75390625 C-18 90 -18 90 -21 90 C-21 90.66 -21 91.32 -21 92 C-27.625 95 -27.625 95 -31 95 C-31 95.66 -31 96.32 -31 97 C-33.62353518 98.00399524 -36.24867795 99.00334445 -38.875 100 C-39.62136719 100.28617187 -40.36773437 100.57234375 -41.13671875 100.8671875 C-46.7734375 103 -46.7734375 103 -49 103 C-48.94779297 104.04220703 -48.94779297 104.04220703 -48.89453125 105.10546875 C-48.60678579 115.91647689 -50.29641214 126.35106562 -52 137 C-52.66 137 -53.32 137 -54 137 C-54.33 141.95 -54.66 146.9 -55 152 C-55.66 152 -56.32 152 -57 152 C-56.94779297 152.99966797 -56.94779297 152.99966797 -56.89453125 154.01953125 C-56.49411702 167.65268254 -61.67323837 183.63987558 -71 194 C-71.66 194 -72.32 194 -73 194 C-73 194.66 -73 195.32 -73 196 C-73.66 196 -74.32 196 -75 196 C-75 196.99 -75 197.98 -75 199 C-76.65 199.66 -78.3 200.32 -80 201 C-80 201.66 -80 202.32 -80 203 C-81.65 203.33 -83.3 203.66 -85 204 C-85 204.66 -85 205.32 -85 206 C-87.64 206.33 -90.28 206.66 -93 207 C-93 207.66 -93 208.32 -93 209 C-100.18808741 209.88826175 -106.82242235 210.01202288 -114 209 C-114 208.34 -114 207.68 -114 207 C-115.74990234 206.87044922 -115.74990234 206.87044922 -117.53515625 206.73828125 C-122.12441745 206.16070396 -125.5004673 204.53269462 -129.4375 202.1875 C-130.06076172 201.84396484 -130.68402344 201.50042969 -131.32617188 201.14648438 C-135.7712516 198.56843487 -135.7712516 198.56843487 -136.91015625 195.73828125 C-136.93980469 195.16464844 -136.96945313 194.59101563 -137 194 C-137.8971875 193.8453125 -137.8971875 193.8453125 -138.8125 193.6875 C-141.31258286 192.90175967 -142.37535082 192.03081147 -144 190 C-144 189.34 -144 188.68 -144 188 C-144.66 188 -145.32 188 -146 188 C-150 183.52941176 -150 183.52941176 -150 181 C-150.66 181 -151.32 181 -152 181 C-152 180.01 -152 179.02 -152 178 C-152.66 178 -153.32 178 -154 178 C-154.33 176.35 -154.66 174.7 -155 173 C-155.66 173 -156.32 173 -157 173 C-160 166.5 -160 166.5 -160 162 C-160.66 162 -161.32 162 -162 162 C-163.00109515 158.68929162 -163.10356134 155.69915231 -163.0625 152.25 C-163.05347656 151.26515625 -163.04445313 150.2803125 -163.03515625 149.265625 C-163.02355469 148.51796875 -163.01195312 147.7703125 -163 147 C-163.66 147 -164.32 147 -165 147 C-165 142.38 -165 137.76 -165 133 C-164.34 133 -163.68 133 -163 133 C-163.04640625 131.9584375 -163.0928125 130.916875 -163.140625 129.84375 C-163.62585577 114.04307448 -159.58452374 100.64793113 -154 86 C-153.34 86 -152.68 86 -152 86 C-152 84.68 -152 83.36 -152 82 C-151.34 82 -150.68 82 -150 82 C-149.81824219 81.41992188 -149.63648438 80.83984375 -149.44921875 80.2421875 C-147.9581894 75.60852707 -146.31666424 71.30237645 -144 67 C-143.34 67 -142.68 67 -142 67 C-141.731875 66.236875 -141.46375 65.47375 -141.1875 64.6875 C-140.03396359 62.07686496 -139.01370135 60.92614911 -137 59 C-136.67 58.01 -136.34 57.02 -136 56 C-135.34 56 -134.68 56 -134 56 C-133.67 54.68 -133.34 53.36 -133 52 C-132.34 52 -131.68 52 -131 52 C-131 51.34 -131 50.68 -131 50 C-129.68799596 48.64567325 -128.35368596 47.31266518 -127 46 C-126.505 45.01 -126.505 45.01 -126 44 C-125.34 44 -124.68 44 -124 44 C-123.67 43.01 -123.34 42.02 -123 41 C-122.34 41 -121.68 41 -121 41 C-121 40.34 -121 39.68 -121 39 C-119.34928604 37.97388051 -117.68029994 36.97691857 -116 36 C-115.443125 35.443125 -114.88625 34.88625 -114.3125 34.3125 C-113.879375 33.879375 -113.44625 33.44625 -113 33 C-112.34 33 -111.68 33 -111 33 C-110.67 32.01 -110.34 31.02 -110 30 C-107.4375 28.8125 -107.4375 28.8125 -105 28 C-105 27.34 -105 26.68 -105 26 C-102.91796875 24.4921875 -102.91796875 24.4921875 -100.1875 22.875 C-99.29417969 22.33617187 -98.40085937 21.79734375 -97.48046875 21.2421875 C-95 20 -95 20 -92 20 C-92 19.34 -92 18.68 -92 18 C-90.39967863 17.15930585 -88.79458829 16.32768495 -87.1875 15.5 C-86.29417969 15.0359375 -85.40085937 14.571875 -84.48046875 14.09375 C-82 13 -82 13 -79 13 C-79 12.34 -79 11.68 -79 11 C-75.535 10.505 -75.535 10.505 -72 10 C-72 9.34 -72 8.68 -72 8 C-71.04287109 7.80083984 -71.04287109 7.80083984 -70.06640625 7.59765625 C-69.24011719 7.42105469 -68.41382813 7.24445313 -67.5625 7.0625 C-66.73878906 6.88847656 -65.91507812 6.71445313 -65.06640625 6.53515625 C-63.02338796 6.19247006 -63.02338796 6.19247006 -62 5 C-60.96875 4.855625 -59.9375 4.71125 -58.875 4.5625 C-55.02116581 4.10199364 -55.02116581 4.10199364 -51.5 2.9375 C-47.84974167 1.95975223 -44.76039651 1.84651443 -41 2 C-41 1.34 -41 0.68 -41 0 C-27.37441188 -1.34811473 -13.60395798 -1.75534942 0 0 Z " fill="#BFD352" transform="translate(241,110)"/>
<path d="M0 0 C2.31 0.33 4.62 0.66 7 1 C7.0825 1.61875 7.165 2.2375 7.25 2.875 C7.4975 3.57625 7.745 4.2775 8 5 C8.66 5.28875 9.32 5.5775 10 5.875 C10.66 6.24625 11.32 6.6175 12 7 C12.75 10.125 12.75 10.125 13 13 C13.66 13 14.32 13 15 13 C16.99115012 19.69978185 18.32718388 26.0475668 19 33 C19.33 33.33 19.66 33.66 20 34 C20.08631874 35.34267413 20.10706473 36.68974322 20.09765625 38.03515625 C20.09443359 38.84404297 20.09121094 39.65292969 20.08789062 40.48632812 C20.07951172 41.33646484 20.07113281 42.18660156 20.0625 43.0625 C20.05798828 43.91650391 20.05347656 44.77050781 20.04882812 45.65039062 C20.03700373 47.76695663 20.01906769 49.88348685 20 52 C19.34 52 18.68 52 18 52 C18.03480469 52.69222656 18.06960938 53.38445312 18.10546875 54.09765625 C18.48104993 67.67223332 15.22151682 80.54869066 10 93 C9.34 93 8.68 93 8 93 C7.67 95.64 7.34 98.28 7 101 C6.34 101 5.68 101 5 101 C4.87625 101.721875 4.7525 102.44375 4.625 103.1875 C4.0095069 105.95721894 3.11555626 108.3970354 2 111 C1.34 111 0.68 111 0 111 C-0.33 112.65 -0.66 114.3 -1 116 C-1.66 116 -2.32 116 -3 116 C-3 116.99 -3 117.98 -3 119 C-3.66 119 -4.32 119 -5 119 C-5.2578125 119.71542969 -5.515625 120.43085938 -5.78125 121.16796875 C-7.07384765 124.17160111 -8.6277709 126.63505372 -10.5 129.3125 C-11.41265625 130.63701172 -11.41265625 130.63701172 -12.34375 131.98828125 C-12.8903125 132.65214844 -13.436875 133.31601562 -14 134 C-14.66 134 -15.32 134 -16 134 C-16 134.66 -16 135.32 -16 136 C-18.43239346 138.64088432 -20.93986123 140.95216235 -23.75 143.1875 C-26.07487388 144.80309077 -26.07487388 144.80309077 -27 147 C-27.66 147 -28.32 147 -29 147 C-29 147.66 -29 148.32 -29 149 C-33.47058824 153 -33.47058824 153 -36 153 C-36 153.66 -36 154.32 -36 155 C-37.90374355 156.44963959 -39.87467159 157.81184323 -41.875 159.125 C-43.51082031 160.21167969 -43.51082031 160.21167969 -45.1796875 161.3203125 C-48 163 -48 163 -50 163 C-50 163.66 -50 164.32 -50 165 C-52.31 165.33 -54.62 165.66 -57 166 C-57 166.66 -57 167.32 -57 168 C-57.99 168 -58.98 168 -60 168 C-60 168.66 -60 169.32 -60 170 C-63.72965139 172.03435531 -65.66905042 173 -70 173 C-70 173.66 -70 174.32 -70 175 C-72.64 175.33 -75.28 175.66 -78 176 C-78 176.66 -78 177.32 -78 178 C-81.63 178.33 -85.26 178.66 -89 179 C-89 179.66 -89 180.32 -89 181 C-91.31 181 -93.62 181 -96 181 C-96 181.66 -96 182.32 -96 183 C-112.92139412 184.86902973 -129.20997283 185.63882385 -146.1875 184.1875 C-147.06083984 184.11756836 -147.93417969 184.04763672 -148.83398438 183.97558594 C-154.17388975 183.45648592 -158.14030668 182.23755664 -163 180 C-166.03514951 179.2427968 -166.03514951 179.2427968 -168.9375 178.8125 C-169.89527344 178.65394531 -170.85304688 178.49539063 -171.83984375 178.33203125 C-172.55269531 178.22246094 -173.26554687 178.11289062 -174 178 C-174 177.34 -174 176.68 -174 176 C-175.051875 175.87625 -176.10375 175.7525 -177.1875 175.625 C-180.45958771 175.08859218 -183.00536076 174.36119965 -186 173 C-186 172.34 -186 171.68 -186 171 C-187.98 170.67 -189.96 170.34 -192 170 C-192 169.34 -192 168.68 -192 168 C-193.32 168 -194.64 168 -196 168 C-196 167.34 -196 166.68 -196 166 C-196.69867188 165.91621094 -197.39734375 165.83242188 -198.1171875 165.74609375 C-201.70293491 164.81807511 -204.08587879 163.16855768 -207.125 161.0625 C-208.67574219 159.99708984 -208.67574219 159.99708984 -210.2578125 158.91015625 C-211.16273438 158.27980469 -212.06765625 157.64945313 -213 157 C-213.99 156.34 -214.98 155.68 -216 155 C-216 154.34 -216 153.68 -216 153 C-217.32 152.67 -218.64 152.34 -220 152 C-220 151.34 -220 150.68 -220 150 C-220.99 149.67 -221.98 149.34 -223 149 C-223 148.34 -223 147.68 -223 147 C-223.763125 146.731875 -224.52625 146.46375 -225.3125 146.1875 C-227.88988618 145.04865495 -229.26954864 144.18583329 -231 142 C-231 141.34 -231 140.68 -231 140 C-231.66 140 -232.32 140 -233 140 C-236 136.53846154 -236 136.53846154 -236 134 C-236.66 134 -237.32 134 -238 134 C-238 133.34 -238 132.68 -238 132 C-238.99 131.67 -239.98 131.34 -241 131 C-244 126.66666667 -244 126.66666667 -244 124 C-244.66 124 -245.32 124 -246 124 C-247.43991093 122.0051234 -248.73055989 120.03713554 -250 117.9375 C-250.35578125 117.37611328 -250.7115625 116.81472656 -251.078125 116.23632812 C-253.54359898 112.21153385 -254.89132605 108.53285962 -256 104 C-254.02 103.01 -254.02 103.01 -252 102 C-252 102.66 -252 103.32 -252 104 C-251.40074707 104.10957031 -250.80149414 104.21914063 -250.18408203 104.33203125 C-246.58835544 105.43173033 -244.39774403 108.33608052 -241.875 111 C-238.31087316 114.97988997 -238.31087316 114.97988997 -234 118 C-234 118.66 -234 119.32 -234 120 C-233.34 120 -232.68 120 -232 120 C-230.375 121.375 -230.375 121.375 -229 123 C-229 123.66 -229 124.32 -229 125 C-227.824375 125.4640625 -227.824375 125.4640625 -226.625 125.9375 C-224 127 -224 127 -222 128 C-222 128.66 -222 129.32 -222 130 C-220.68 130.33 -219.36 130.66 -218 131 C-218 131.66 -218 132.32 -218 133 C-216.68 133 -215.36 133 -214 133 C-214 133.66 -214 134.32 -214 135 C-213.29875 135.0825 -212.5975 135.165 -211.875 135.25 C-209 136 -209 136 -206.5 137.8125 C-201.69431049 141.28327575 -195.63137236 142.42923145 -190 144 C-190 144.66 -190 145.32 -190 146 C-188.2984375 145.9690625 -188.2984375 145.9690625 -186.5625 145.9375 C-183 146 -183 146 -182 147 C-180.6119146 147.21380858 -179.21485529 147.37024849 -177.81640625 147.5 C-176.97142578 147.5825 -176.12644531 147.665 -175.25585938 147.75 C-174.36705078 147.8325 -173.47824219 147.915 -172.5625 148 C-170.81346178 148.16305673 -169.06474049 148.32956071 -167.31640625 148.5 C-166.53724854 148.5721875 -165.75809082 148.644375 -164.95532227 148.71875 C-163 149 -163 149 -161 150 C-158.6474616 150.0969531 -156.2920305 150.1297905 -153.9375 150.125 C-152.66777344 150.12757813 -151.39804688 150.13015625 -150.08984375 150.1328125 C-147.12899299 150.35435584 -147.12899299 150.35435584 -146 149 C-143.98405418 148.76572222 -141.961526 148.58663876 -139.9375 148.4375 C-138.83277344 148.35371094 -137.72804688 148.26992188 -136.58984375 148.18359375 C-135.73519531 148.12300781 -134.88054687 148.06242188 -134 148 C-134 147.34 -134 146.68 -134 146 C-132.906875 145.566875 -131.81375 145.13375 -130.6875 144.6875 C-127.86209702 143.49126084 -126.07431202 142.29266065 -124 140 C-123.34 140 -122.68 140 -122 140 C-121.67 138.68 -121.34 137.36 -121 136 C-120.34 136 -119.68 136 -119 136 C-118.67 134.02 -118.34 132.04 -118 130 C-117.34 130 -116.68 130 -116 130 C-116.01160156 129.36191406 -116.02320313 128.72382813 -116.03515625 128.06640625 C-116.04417969 127.24011719 -116.05320313 126.41382813 -116.0625 125.5625 C-116.07410156 124.73878906 -116.08570313 123.91507812 -116.09765625 123.06640625 C-116 121 -116 121 -115 120 C-114.76321284 117.30764224 -114.57801975 114.63501844 -114.4375 111.9375 C-114.37272461 110.79958008 -114.37272461 110.79958008 -114.30664062 109.63867188 C-114.20026367 107.75934562 -114.09960066 105.87969756 -114 104 C-114.66 104 -115.32 104 -116 104 C-116.06058594 103.00097656 -116.12117187 102.00195312 -116.18359375 100.97265625 C-116.26738281 99.68230469 -116.35117188 98.39195312 -116.4375 97.0625 C-116.51871094 95.77472656 -116.59992188 94.48695313 -116.68359375 93.16015625 C-116.64919188 90.13976043 -116.64919188 90.13976043 -118 89 C-118.37548773 86.18677552 -118.70657723 83.3844018 -119 80.5625 C-119.36887187 75.11631411 -119.36887187 75.11631411 -121 70 C-121.20692194 67.7324804 -121.36671198 65.46053676 -121.5 63.1875 C-121.76128772 58.35535467 -121.76128772 58.35535467 -122.5234375 53.58984375 C-123.2117263 49.84938902 -123.14442587 46.16952048 -123.125 42.375 C-123.12886719 41.611875 -123.13273438 40.84875 -123.13671875 40.0625 C-123.13097136 36.78648638 -123.04287441 34.12862324 -122 31 C-121.87408351 29.29313196 -121.77272565 27.58438295 -121.6875 25.875 C-121.21014804 20.23628001 -119.72472864 15.9262304 -117 11 C-116.484375 9.989375 -115.96875 8.97875 -115.4375 7.9375 C-111.44182657 4.76145189 -106.91036246 5.6190236 -102 6 C-102 6.66 -102 7.32 -102 8 C-101.41734375 8.11472656 -100.8346875 8.22945312 -100.234375 8.34765625 C-97.83476865 9.04824062 -96.27139067 9.98192595 -94.25 11.4375 C-93.32960937 12.08525391 -93.32960937 12.08525391 -92.390625 12.74609375 C-91.93171875 13.15988281 -91.4728125 13.57367188 -91 14 C-91 14.66 -91 15.32 -91 16 C-90.34 16 -89.68 16 -89 16 C-89 16.66 -89 17.32 -89 18 C-88.38125 18.309375 -87.7625 18.61875 -87.125 18.9375 C-85.75 19.625 -84.375 20.3125 -83 21 C-83 21.66 -83 22.32 -83 23 C-81.68 23.33 -80.36 23.66 -79 24 C-79 24.66 -79 25.32 -79 26 C-78.38125 26.309375 -77.7625 26.61875 -77.125 26.9375 C-75.75 27.625 -74.375 28.3125 -73 29 C-73 29.66 -73 30.32 -73 31 C-71.35 31.33 -69.7 31.66 -68 32 C-68 32.66 -68 33.32 -68 34 C-67.29875 34.2475 -66.5975 34.495 -65.875 34.75 C-62.60485452 36.17180238 -59.858878 37.87246288 -57 40 C-57 40.66 -57 41.32 -57 42 C-55.68 42 -54.36 42 -53 42 C-53 42.66 -53 43.32 -53 44 C-50.03 44.495 -50.03 44.495 -47 45 C-47 45.66 -47 46.32 -47 47 C-46.154375 47.12375 -45.30875 47.2475 -44.4375 47.375 C-40.84763202 48.02770327 -37.49175125 48.95247463 -34 50 C-34 50.66 -34 51.32 -34 52 C-28.39 52 -22.78 52 -17 52 C-17 51.34 -17 50.68 -17 50 C-15.9275 49.608125 -14.855 49.21625 -13.75 48.8125 C-9.03561076 46.78388402 -6.82426247 43.85459056 -4.75 39.1875 C-4.5025 38.465625 -4.255 37.74375 -4 37 C-3.34 37 -2.68 37 -2 37 C-1.93941406 36.36191406 -1.87882813 35.72382813 -1.81640625 35.06640625 C-1.73261719 34.24011719 -1.64882813 33.41382813 -1.5625 32.5625 C-1.44068359 31.32693359 -1.44068359 31.32693359 -1.31640625 30.06640625 C-1 28 -1 28 0 27 C0.08758003 25.00035018 0.10696576 22.9976389 0.09765625 20.99609375 C0.09282227 19.17368164 0.09282227 19.17368164 0.08789062 17.31445312 C0.07951172 16.03505859 0.07113281 14.75566406 0.0625 13.4375 C0.05573242 11.51260742 0.05573242 11.51260742 0.04882812 9.54882812 C0.03699545 6.36583978 0.02051068 3.18294238 0 0 Z " fill="#08ADC1" transform="translate(348,216)"/>
<path d="M0 0 C-0.83203125 1.93359375 -0.83203125 1.93359375 -2 4 C-4.6875 5.0625 -4.6875 5.0625 -8 6 C-18.63926721 9.27362068 -25.24559709 18.43464721 -30.4440918 27.81665039 C-32.63668553 31.98661044 -34.20341783 36.08835567 -35.35546875 40.64453125 C-36.05329076 43.19475352 -37.01505412 45.51123445 -38.0625 47.9375 C-39.93041517 52.44331064 -40.86484919 56.84177745 -41.60546875 61.65234375 C-42 64 -42 64 -43 67 C-43.165 68.19625 -43.33 69.3925 -43.5 70.625 C-44 74 -44 74 -45 75 C-45.21321728 76.32668532 -45.36997463 77.66259619 -45.5 79 C-45.5825 79.804375 -45.665 80.60875 -45.75 81.4375 C-45.8325 82.283125 -45.915 83.12875 -46 84 C-46.16264043 85.66706438 -46.32910377 87.33376171 -46.5 89 C-46.5721875 89.7425 -46.644375 90.485 -46.71875 91.25 C-47 93 -47 93 -48 94 C-48.103125 95.134375 -48.20625 96.26875 -48.3125 97.4375 C-49 101 -49 101 -50.6532135 102.12240601 C-60.5329275 105.81698055 -70.61148273 106.42111247 -81.04658699 106.34955978 C-83.2904914 106.33551285 -85.53354145 106.34243427 -87.77745056 106.35440063 C-94.14539861 106.38494422 -100.51312821 106.38053558 -106.88110352 106.36035156 C-110.80731484 106.34933405 -114.73287364 106.3628222 -118.65899467 106.39024734 C-120.13589523 106.39562059 -121.61286388 106.39179976 -123.08970833 106.37784958 C-133.4157333 106.28135412 -144.10672998 106.98301338 -152.32362366 113.9781189 C-156.01286014 117.86295007 -158.22209882 121.98004374 -160 127 C-163.1919063 122.21214055 -163.2750456 117.73243006 -162.3984375 112.2109375 C-162.06070313 110.94507813 -161.72296875 109.67921875 -161.375 108.375 C-161.19549805 107.69566406 -161.01599609 107.01632813 -160.83105469 106.31640625 C-158.94921927 99.40458824 -156.55074485 92.69047829 -154 86 C-153.34 86 -152.68 86 -152 86 C-152 84.68 -152 83.36 -152 82 C-151.34 82 -150.68 82 -150 82 C-149.81824219 81.41992188 -149.63648438 80.83984375 -149.44921875 80.2421875 C-147.9581894 75.60852707 -146.31666424 71.30237645 -144 67 C-143.34 67 -142.68 67 -142 67 C-141.731875 66.236875 -141.46375 65.47375 -141.1875 64.6875 C-140.03396359 62.07686496 -139.01370135 60.92614911 -137 59 C-136.67 58.01 -136.34 57.02 -136 56 C-135.34 56 -134.68 56 -134 56 C-133.67 54.68 -133.34 53.36 -133 52 C-132.34 52 -131.68 52 -131 52 C-131 51.34 -131 50.68 -131 50 C-129.68799596 48.64567325 -128.35368596 47.31266518 -127 46 C-126.505 45.01 -126.505 45.01 -126 44 C-125.34 44 -124.68 44 -124 44 C-123.67 43.01 -123.34 42.02 -123 41 C-122.34 41 -121.68 41 -121 41 C-121 40.34 -121 39.68 -121 39 C-119.34928604 37.97388051 -117.68029994 36.97691857 -116 36 C-115.443125 35.443125 -114.88625 34.88625 -114.3125 34.3125 C-113.879375 33.879375 -113.44625 33.44625 -113 33 C-112.34 33 -111.68 33 -111 33 C-110.67 32.01 -110.34 31.02 -110 30 C-107.4375 28.8125 -107.4375 28.8125 -105 28 C-105 27.34 -105 26.68 -105 26 C-102.91796875 24.4921875 -102.91796875 24.4921875 -100.1875 22.875 C-99.29417969 22.33617187 -98.40085937 21.79734375 -97.48046875 21.2421875 C-95 20 -95 20 -92 20 C-92 19.34 -92 18.68 -92 18 C-90.39967863 17.15930585 -88.79458829 16.32768495 -87.1875 15.5 C-86.29417969 15.0359375 -85.40085937 14.571875 -84.48046875 14.09375 C-82 13 -82 13 -79 13 C-79 12.34 -79 11.68 -79 11 C-75.535 10.505 -75.535 10.505 -72 10 C-72 9.34 -72 8.68 -72 8 C-71.04287109 7.80083984 -71.04287109 7.80083984 -70.06640625 7.59765625 C-69.24011719 7.42105469 -68.41382813 7.24445313 -67.5625 7.0625 C-66.73878906 6.88847656 -65.91507812 6.71445313 -65.06640625 6.53515625 C-63.02338796 6.19247006 -63.02338796 6.19247006 -62 5 C-60.96875 4.855625 -59.9375 4.71125 -58.875 4.5625 C-55.02116581 4.10199364 -55.02116581 4.10199364 -51.5 2.9375 C-47.84974167 1.95975223 -44.76039651 1.84651443 -41 2 C-41 1.34 -41 0.68 -41 0 C-27.37441188 -1.34811473 -13.60395798 -1.75534942 0 0 Z " fill="#8CBE55" transform="translate(241,110)"/>
<path d="M0 0 C1.4540625 0.0309375 1.4540625 0.0309375 2.9375 0.0625 C4.22009208 2.62768415 4.06405354 4.43986773 4.06613445 7.31339169 C4.0693589 8.43369367 4.07258335 9.55399565 4.0759055 10.70824617 C4.0743569 11.94936853 4.0728083 13.19049089 4.07121277 14.46922302 C4.07347833 15.77963548 4.07574388 17.09004794 4.07807809 18.44016987 C4.08421892 22.08977079 4.08405983 25.73934889 4.08288372 29.3889538 C4.08268028 33.32016839 4.08819293 37.25137552 4.09294128 41.18258667 C4.10126078 48.88897761 4.10399671 56.5953609 4.10455366 64.30175596 C4.10502819 70.56312612 4.10707975 76.82449375 4.11025429 83.08586311 C4.11906423 100.82219773 4.12367311 118.55852628 4.12292381 136.2948631 C4.12288386 137.2517697 4.1228439 138.2086763 4.12280273 139.19458008 C4.12276185 140.15264949 4.12272097 141.11071889 4.12267885 142.09782071 C4.12227224 157.63150708 4.13184486 173.16516923 4.1459411 188.6988486 C4.16028735 204.63323299 4.16721226 220.56760556 4.16634732 236.50199658 C4.16601476 245.45419116 4.16878786 254.40636034 4.17952538 263.35854912 C4.18860736 270.97955244 4.19082465 278.60051886 4.18401595 286.22152524 C4.18073911 290.11247362 4.18073574 294.00335109 4.1893692 297.89429283 C4.19861826 302.10584732 4.19248866 306.31723591 4.18473816 310.52879333 C4.18988172 311.76768497 4.19502529 313.00657661 4.20032471 314.28301042 C4.19572592 315.40592015 4.19112712 316.52882988 4.18638897 317.68576717 C4.18660634 318.65866568 4.18682371 319.63156418 4.18704766 320.63394445 C3.9375 323.0625 3.9375 323.0625 1.9375 326.0625 C0.6175 326.0625 -0.7025 326.0625 -2.0625 326.0625 C-2.0625 325.4025 -2.0625 324.7425 -2.0625 324.0625 C-2.7225 324.0625 -3.3825 324.0625 -4.0625 324.0625 C-4.08536469 282.93123209 -4.10299737 241.79996501 -4.11356533 200.66869203 C-4.11481611 195.81810913 -4.11611042 190.96752624 -4.11743164 186.11694336 C-4.11769395 185.1512371 -4.11795626 184.18553084 -4.11822652 183.19056075 C-4.12258358 167.53254056 -4.13047132 151.87452403 -4.1396528 136.21650601 C-4.14898835 120.16241524 -4.1545554 104.10832639 -4.15658849 88.05423301 C-4.15796393 78.13968053 -4.16231561 68.22513837 -4.17041647 58.31058907 C-4.17568271 51.52144449 -4.17730457 44.73230529 -4.17600138 37.94315881 C-4.17535781 34.02008663 -4.17637765 30.09703255 -4.18170547 26.17396355 C-4.18742602 21.93099153 -4.18550129 17.68805858 -4.18275452 13.44508362 C-4.18566736 12.19122016 -4.1885802 10.9373567 -4.19158131 9.64549738 C-4.18959026 8.51836956 -4.18759921 7.39124174 -4.18554783 6.22995853 C-4.18592755 5.24914092 -4.18630727 4.26832331 -4.1866985 3.25778395 C-3.99088249 -0.2033831 -3.54318127 0.07230982 0 0 Z " fill="#000000" transform="translate(439.0625,93.9375)"/>
<path d="M0 0 C-0.140625 1.75390625 -0.140625 1.75390625 -1 4 C-3.546875 5.96484375 -3.546875 5.96484375 -6.75 7.9375 C-11.07126074 10.61434009 -14.48658164 13.33018146 -18 17 C-19.84312021 18.72024553 -21.69744918 20.428556 -23.5625 22.125 C-24.49191406 22.97320312 -25.42132813 23.82140625 -26.37890625 24.6953125 C-29 27 -29 27 -31.21484375 28.4921875 C-33.168408 29.90241451 -33.168408 29.90241451 -33.91015625 32.28125 C-35.40010695 35.99811626 -37.79667105 38.53208012 -40.4375 41.5 C-44.62870617 46.24746349 -48.38801112 50.68380055 -50.375 56.8125 C-51.73685018 60.63144495 -53.64573259 63.79729747 -55.87109375 67.171875 C-57.14738076 69.11165037 -57.14738076 69.11165037 -58.125 71.9375 C-58.41375 72.618125 -58.7025 73.29875 -59 74 C-60.485 74.495 -60.485 74.495 -62 75 C-61.01 71.7 -60.02 68.4 -59 65 C-58.34 65 -57.68 65 -57 65 C-57 63.68 -57 62.36 -57 61 C-56.34 61 -55.68 61 -55 61 C-54.81824219 60.41992188 -54.63648437 59.83984375 -54.44921875 59.2421875 C-52.9581894 54.60852707 -51.31666424 50.30237645 -49 46 C-48.34 46 -47.68 46 -47 46 C-46.731875 45.236875 -46.46375 44.47375 -46.1875 43.6875 C-45.03396359 41.07686496 -44.01370135 39.92614911 -42 38 C-41.67 37.01 -41.34 36.02 -41 35 C-40.34 35 -39.68 35 -39 35 C-38.67 33.68 -38.34 32.36 -38 31 C-37.34 31 -36.68 31 -36 31 C-36 30.34 -36 29.68 -36 29 C-34.68799596 27.64567325 -33.35368596 26.31266518 -32 25 C-31.67 24.34 -31.34 23.68 -31 23 C-30.34 23 -29.68 23 -29 23 C-28.505 21.515 -28.505 21.515 -28 20 C-27.34 20 -26.68 20 -26 20 C-26 19.34 -26 18.68 -26 18 C-24.34928604 16.97388051 -22.68029994 15.97691857 -21 15 C-20.443125 14.443125 -19.88625 13.88625 -19.3125 13.3125 C-18.879375 12.879375 -18.44625 12.44625 -18 12 C-17.34 12 -16.68 12 -16 12 C-15.67 11.01 -15.34 10.02 -15 9 C-12.4375 7.8125 -12.4375 7.8125 -10 7 C-10 6.34 -10 5.68 -10 5 C-8.3203125 3.7109375 -8.3203125 3.7109375 -6.125 2.375 C-5.40570313 1.92898437 -4.68640625 1.48296875 -3.9453125 1.0234375 C-2 0 -2 0 0 0 Z " fill="#A6C854" transform="translate(146,131)"/>
<path d="M0 0 C0.33 0 0.66 0 1 0 C1.3896932 2.57197511 1.39528873 4.36876373 -0.0078125 6.609375 C-0.90502477 7.78058623 -1.80491809 8.94974694 -2.70703125 10.1171875 C-4.40763588 12.59359666 -5.22489147 15.12632284 -6.18359375 17.953125 C-7.37513681 20.94053441 -9.10593131 23.49515106 -10.87109375 26.171875 C-12.14738076 28.11165037 -12.14738076 28.11165037 -13.125 30.9375 C-13.558125 31.9584375 -13.558125 31.9584375 -14 33 C-15.485 33.495 -15.485 33.495 -17 34 C-16.01 30.7 -15.02 27.4 -14 24 C-13.34 24 -12.68 24 -12 24 C-12 22.68 -12 21.36 -12 20 C-11.34 20 -10.68 20 -10 20 C-9.81824219 19.41992188 -9.63648437 18.83984375 -9.44921875 18.2421875 C-7.9581894 13.60852707 -6.31666424 9.30237645 -4 5 C-3.34 5 -2.68 5 -2 5 C-1.34 3.35 -0.68 1.7 0 0 Z " fill="#B8D052" transform="translate(101,172)"/>
<path d="M0 0 C0.66 0 1.32 0 2 0 C1.875 2.1875 1.875 2.1875 1 5 C-0.98260426 6.68732277 -2.9832342 8.35366057 -5 10 C-5.309375 10.77730469 -5.61875 11.55460938 -5.9375 12.35546875 C-7.18160966 15.4520211 -8.81789342 17.35606122 -11.0625 19.8125 C-11.77535156 20.60269531 -12.48820312 21.39289063 -13.22265625 22.20703125 C-13.80917969 22.79871094 -14.39570312 23.39039063 -15 24 C-15.33 24 -15.66 24 -16 24 C-16 22.35 -16 20.7 -16 19 C-15.34 18.67 -14.68 18.34 -14 18 C-13.67 17.01 -13.34 16.02 -13 15 C-12.34 15 -11.68 15 -11 15 C-10.67 13.68 -10.34 12.36 -10 11 C-9.34 11 -8.68 11 -8 11 C-8 10.34 -8 9.68 -8 9 C-6.68799596 7.64567325 -5.35368596 6.31266518 -4 5 C-3.67 4.34 -3.34 3.68 -3 3 C-2.34 3 -1.68 3 -1 3 C-0.67 2.01 -0.34 1.02 0 0 Z " fill="#B1CD53" transform="translate(118,151)"/>
<path d="M0 0 C0 0.66 0 1.32 0 2 C-1.65 2.33 -3.3 2.66 -5 3 C-5 3.66 -5 4.32 -5 5 C-8.64793184 6.27253436 -12.1936543 7.32829194 -16 8 C-16 8.66 -16 9.32 -16 10 C-18.31 10.33 -20.62 10.66 -23 11 C-22.01 10.67 -21.02 10.34 -20 10 C-20 9.34 -20 8.68 -20 8 C-18.39967863 7.15930585 -16.79458829 6.32768495 -15.1875 5.5 C-13.84751953 4.80390625 -13.84751953 4.80390625 -12.48046875 4.09375 C-10 3 -10 3 -7 3 C-7 2.34 -7 1.68 -7 1 C-4 0 -4 0 0 0 Z " fill="#A8C954" transform="translate(169,120)"/>
<path d="M0 0 C5.94 0 11.88 0 18 0 C18 0.99 18 1.98 18 3 C12.06 3 6.12 3 0 3 C0 2.01 0 1.02 0 0 Z " fill="#9DC455" transform="translate(213,109)"/>
<path d="M0 0 C1.50433594 0.01353516 1.50433594 0.01353516 3.0390625 0.02734375 C3.80992187 0.03894531 4.58078125 0.05054688 5.375 0.0625 C5.045 0.7225 4.715 1.3825 4.375 2.0625 C-0.93805555 3.16103814 -6.15483613 3.18523961 -11.5625 3.125 C-12.34173828 3.12048828 -13.12097656 3.11597656 -13.92382812 3.11132812 C-15.82425268 3.09966908 -17.72463706 3.08173877 -19.625 3.0625 C-19.625 2.7325 -19.625 2.4025 -19.625 2.0625 C-18.78195313 2.00191406 -17.93890625 1.94132813 -17.0703125 1.87890625 C-15.97460938 1.79511719 -14.87890625 1.71132812 -13.75 1.625 C-12.65945312 1.54378906 -11.56890625 1.46257812 -10.4453125 1.37890625 C-6.68152772 0.95665339 -3.93104747 -0.04570985 0 0 Z " fill="#A5C853" transform="translate(176.625,212.9375)"/>
<path d="M0 0 C3.3 0 6.6 0 10 0 C9.34 1.32 8.68 2.64 8 4 C5.36 4 2.72 4 0 4 C0 2.68 0 1.36 0 0 Z " fill="#80BA56" transform="translate(231,110)"/>
<path d="M0 0 C1.4540625 0.0309375 1.4540625 0.0309375 2.9375 0.0625 C2.9375 0.7225 2.9375 1.3825 2.9375 2.0625 C0.2975 2.3925 -2.3425 2.7225 -5.0625 3.0625 C-5.0625 3.7225 -5.0625 4.3825 -5.0625 5.0625 C-7.7025 5.0625 -10.3425 5.0625 -13.0625 5.0625 C-13.0625 4.4025 -13.0625 3.7425 -13.0625 3.0625 C-12.10537109 2.86333984 -12.10537109 2.86333984 -11.12890625 2.66015625 C-10.30261719 2.48355469 -9.47632813 2.30695313 -8.625 2.125 C-7.80128906 1.95097656 -6.97757813 1.77695313 -6.12890625 1.59765625 C-3.08568002 0.80952394 -3.50902177 0.07161269 0 0 Z " fill="#98C354" transform="translate(182.0625,114.9375)"/>
<path d="M0 0 C0.66 0 1.32 0 2 0 C2.61279038 4.90232302 0.77382858 9.02943602 -2 13 C-2.99 13.33 -3.98 13.66 -5 14 C-4.01 10.7 -3.02 7.4 -2 4 C-1.34 4 -0.68 4 0 4 C0 2.68 0 1.36 0 0 Z " fill="#C5D551" transform="translate(89,192)"/>
<path d="M0 0 C1.23593891 3.70781672 0.5678132 4.67510253 -0.9375 8.1875 C-1.31777344 9.08855469 -1.69804687 9.98960937 -2.08984375 10.91796875 C-2.54037109 11.94857422 -2.54037109 11.94857422 -3 13 C-4.20930281 9.02902696 -3.56147135 6.86258703 -2 3 C-1.34 2.01 -0.68 1.02 0 0 Z " fill="#9BC454" transform="translate(204,150)"/>
<path d="M0 0 C0 0.66 0 1.32 0 2 C-1.65 2.33 -3.3 2.66 -5 3 C-5 3.66 -5 4.32 -5 5 C-6.32 5 -7.64 5 -9 5 C-9 4.34 -9 3.68 -9 3 C-8.34 3 -7.68 3 -7 3 C-7 2.34 -7 1.68 -7 1 C-4 0 -4 0 0 0 Z " fill="#9BC454" transform="translate(169,120)"/>
<path d="M0 0 C0.33 0 0.66 0 1 0 C1.28571429 7.42857143 1.28571429 7.42857143 -1 11 C-1.33 11 -1.66 11 -2 11 C-1.85892253 9.54119891 -1.71197585 8.08296449 -1.5625 6.625 C-1.48128906 5.81289062 -1.40007812 5.00078125 -1.31640625 4.1640625 C-1 2 -1 2 0 0 Z " fill="#C3D451" transform="translate(83,208)"/>
</svg>
