<?xml version="1.0" encoding="UTF-8"?>
<svg width="2458px" height="512px" viewBox="0 0 2458 512" version="1.1" xmlns="http://www.w3.org/2000/svg" xmlns:xlink="http://www.w3.org/1999/xlink">
    <title>EBSY Logo</title>
    <desc>Custom EBSY branding logo</desc>
    <g id="Logo" stroke="none" stroke-width="1" fill="none" fill-rule="evenodd">
        <g id="ebsy_logo" fill-rule="nonzero">
            <!-- Logo Icon Container -->
            <g id="logo-icon" transform="translate(0, 0)">
                <circle id="background-circle" fill="#4c59da" cx="256" cy="256" r="256"></circle>
                <!-- Three horizontal bars scaled and centered -->
                <g id="bars" transform="translate(116, 150) scale(1.2, 1.2)">
                    <rect x="0" y="0" width="120" height="36" fill="#ffffff" rx="4"></rect>
                    <rect x="0" y="52" width="120" height="36" fill="#ffffff" rx="4"></rect>
                    <rect x="0" y="104" width="120" height="36" fill="#ffffff" rx="4"></rect>
                </g>
            </g>
            <!-- Brand Text -->
            <g id="brand-text" transform="translate(600, 0)">
                <path d="M100 120 L100 400 L450 400 L450 350 L170 350 L170 280 L420 280 L420 230 L170 230 L170 180 L440 180 L440 120 Z" fill="#4c59da" stroke="#ffffff" stroke-width="4"></path>
                <path d="M500 120 L500 400 L850 400 L850 350 L570 350 L570 280 L650 280 C720 280 780 250 780 200 C780 150 720 120 650 120 Z M570 180 L570 230 L630 230 C650 230 660 220 660 205 C660 190 650 180 630 180 Z" fill="#4c59da" stroke="#ffffff" stroke-width="4"></path>
                <path d="M850 280 C850 200 910 120 1000 120 C1070 120 1120 150 1150 200 L1100 230 C1080 200 1050 180 1000 180 C940 180 900 220 900 260 C900 300 940 340 1000 340 C1050 340 1080 320 1100 290 L1150 320 C1120 370 1070 400 1000 400 C910 400 850 320 850 280 Z" fill="#4c59da" stroke="#ffffff" stroke-width="4"></path>
                <path d="M1200 120 L1250 120 L1350 240 L1450 120 L1500 120 L1500 400 L1450 400 L1450 220 L1375 320 L1325 320 L1250 220 L1250 400 L1200 400 Z" fill="#4c59da" stroke="#ffffff" stroke-width="4"></path>
            </g>
        </g>
    </g>
</svg>
