<svg width="144" height="37" viewBox="0 0 144 37" fill="none" xmlns="http://www.w3.org/2000/svg">
  <path d="M35.6982 5.66488C34.0133 3.97953 31.5714 3.13686 28.9727 3.13686C26.374 3.13686 23.9305 3.97953 22.2473 5.66488C20.5624 7.34876 19.7201 9.79169 19.7201 12.3913C19.7201 14.9909 20.5624 17.4354 22.2473 19.1193C23.9321 20.8047 26.374 21.6473 28.9727 21.6473C31.5714 21.6473 34.0149 20.8047 35.6982 19.1193C37.3831 17.4354 38.2254 14.9925 38.2254 12.3913C38.2254 9.79169 37.3831 7.34876 35.6982 5.66488Z" fill="#8A57DE"/>
  <path d="M13.1462 16.8652C15.0274 16.8652 16.5486 15.3435 16.5486 13.4616C16.5486 11.5797 15.0274 10.0581 13.1462 10.0581C11.265 10.0581 9.74375 11.5797 9.74375 13.4616C9.74375 15.3435 11.265 16.8652 13.1462 16.8652Z" fill="#8A57DE"/>
  <path d="M6.33987 29.0288C8.22104 29.0288 9.74229 27.5071 9.74229 25.6252C9.74229 23.7433 8.22104 22.2217 6.33987 22.2217C4.4587 22.2217 2.93745 23.7433 2.93745 25.6252C2.93745 27.5071 4.4587 29.0288 6.33987 29.0288Z" fill="#8A57DE"/>
  <path d="M13.1462 34.6095C15.0274 34.6095 16.5486 33.0878 16.5486 31.2059C16.5486 29.324 15.0274 27.8024 13.1462 27.8024C11.265 27.8024 9.74375 29.324 9.74375 31.2059C9.74375 33.0878 11.265 34.6095 13.1462 34.6095Z" fill="#8A57DE"/>
  <path d="M65.978 9.42664H60.0891V25.4272H65.978V18.9675C65.978 16.4778 67.5361 14.6534 70.0249 14.6534C72.5136 14.6534 73.4937 16.4778 73.4937 18.9675V25.4272H79.2629V17.2679C79.2629 13.1507 77.1159 9.03379 71.9851 9.03379C69.4963 9.03379 67.1475 10.081 65.978 11.5868V9.42664Z" fill="#8A57DE"/>
  <path d="M51.7827 9.42664H56.6339V25.4272H51.7827V9.42664Z" fill="#8A57DE"/>
  <path d="M54.245 3.06479C52.3891 3.06479 50.8883 4.5706 50.8883 6.40966C50.8883 8.24871 52.3891 9.75452 54.245 9.75452C56.1009 9.75452 57.6017 8.24871 57.6017 6.40966C57.6017 4.5706 56.1009 3.06479 54.245 3.06479Z" fill="#8A57DE"/>
  <path d="M87.6041 9.42664H81.7153V25.4272H87.6041V18.9675C87.6041 16.4778 89.1623 14.6534 91.651 14.6534C94.1398 14.6534 95.1199 16.4778 95.1199 18.9675V25.4272H100.889V17.2679C100.889 13.1507 98.7422 9.03379 93.6113 9.03379C91.1226 9.03379 88.7737 10.081 87.6041 11.5868V9.42664Z" fill="#8A57DE"/>
  <path d="M123.527 17.4259C123.527 13.3088 120.551 9.03378 114.899 9.03378C109.169 9.03378 105.773 13.3088 105.773 17.3864C105.773 21.4641 109.129 25.818 115.018 25.818C118.208 25.818 120.787 24.5694 122.425 22.5075L118.523 19.5644C117.662 20.453 116.602 21.03 115.018 21.03C113.03 21.03 111.859 20.0188 111.348 18.4735H123.488C123.527 18.1595 123.527 17.7665 123.527 17.4259ZM111.387 15.0464C111.859 13.4222 112.951 12.411 114.939 12.411C116.798 12.411 117.977 13.3833 118.484 15.0464H111.387Z" fill="#8A57DE"/>
  <path d="M135.971 9.42664H132.741V4.88672H126.892V9.42664H124.799V13.8188H126.892V25.4271H132.741V13.8188H135.971V9.42664Z" fill="#8A57DE"/>
  <path d="M144 9.42664H139.188V25.4272H144V9.42664Z" fill="#8A57DE"/>
  <path d="M141.594 3.06479C139.738 3.06479 138.237 4.5706 138.237 6.40966C138.237 8.24871 139.738 9.75452 141.594 9.75452C143.45 9.75452 144.951 8.24871 144.951 6.40966C144.951 4.5706 143.45 3.06479 141.594 3.06479Z" fill="#8A57DE"/>
</svg>