<?xml version="1.0" encoding="utf-8"?>
<!-- Generator: Adobe Illustrator 17.0.0, SVG Export Plug-In . SVG Version: 6.00 Build 0)  -->
<svg version="1.2" baseProfile="tiny" id="Layer_1" xmlns="http://www.w3.org/2000/svg" xmlns:xlink="http://www.w3.org/1999/xlink"
	 x="0px" y="0px" width="300px" height="86.236px" viewBox="0 0 300 86.236" xml:space="preserve">
<g>
	<g>
		<g>
			<path fill="#F9A400" d="M62.445,43.647h-6.865c0-10.307-8.385-18.692-18.691-18.692v-6.865
				C50.981,18.091,62.445,29.556,62.445,43.647z"/>
		</g>
		<g>
			<path fill="#F9A400" d="M62.445,43.647h-6.865c0-10.307-8.385-18.692-18.691-18.692v-6.865
				C50.981,18.091,62.445,29.556,62.445,43.647z"/>
		</g>
		<g>
			<path fill="#007EE5" d="M36.889,69.203c-14.092,0-25.556-11.464-25.556-25.556h6.865c0,10.306,8.385,18.691,18.692,18.691V69.203
				z"/>
		</g>
		<g>
			<path fill="#008C44" d="M36.889,69.203v-6.865c10.306,0,18.691-8.385,18.691-18.691h6.865
				C62.445,57.739,50.981,69.203,36.889,69.203z"/>
		</g>
		<g>
			<path fill="#F1352C" d="M18.198,43.647h-6.865c0-14.092,11.464-25.556,25.556-25.556v6.865
				C26.583,24.956,18.198,33.341,18.198,43.647z"/>
		</g>
	</g>
	<g>
		<g>
			<path fill="#007EE5" d="M92.709,34.816L92.709,34.816c-2.254-1.292-4.874-1.947-7.786-1.947c-2.491,0-4.867,0.468-7.064,1.392
				c-1.405,0.591-2.709,1.337-3.897,2.23v-2.564h-7.017v34.825h7.017v-23.89c1.265-1.649,2.775-2.951,4.497-3.874
				c1.805-0.966,3.695-1.457,5.617-1.457c2.721,0,4.827,0.813,6.436,2.484c1.597,1.66,2.407,4.038,2.407,7.066v19.671h7.017V48.87
				c0-3.176-0.636-6.008-1.89-8.416C96.776,38.015,94.98,36.118,92.709,34.816z"/>
		</g>
		<g>
			<path fill="#007EE5" d="M127.847,35.43c-2.566-1.559-5.515-2.349-8.763-2.349c-3.429,0-6.562,0.811-9.31,2.409
				c-2.753,1.602-4.923,3.823-6.449,6.6c-1.519,2.764-2.29,5.876-2.29,9.251c0,3.374,0.769,6.497,2.287,9.282
				c1.527,2.804,3.697,5.038,6.451,6.64c2.746,1.598,5.879,2.409,9.31,2.409c3.769,0,7.124-0.899,9.974-2.673
				c2.892-1.8,4.876-4.241,5.899-7.256l0.497-1.465h-7.464l-0.303,0.624c-0.656,1.353-1.68,2.393-3.131,3.18
				c-1.475,0.8-3.268,1.207-5.329,1.207c-3.167,0-5.662-0.925-7.628-2.829c-1.713-1.656-2.795-3.662-3.287-6.106h26.302l1.211,0.598
				l0.173-1.587c0.052-0.476,0.077-1.185,0.077-2.167c0-3.412-0.732-6.531-2.176-9.269C132.443,39.173,130.408,36.986,127.847,35.43
				z M128.844,48.396h-20.53c0.492-2.407,1.564-4.404,3.257-6.078c1.942-1.921,4.353-2.855,7.372-2.855
				c2.868,0,5.136,0.895,6.935,2.736C127.442,43.799,128.436,45.879,128.844,48.396z"/>
		</g>
		<g>
			<polygon fill="#007EE5" points="172.958,40.492 146.167,40.492 146.167,18.541 138.938,18.541 138.938,68.753 146.167,68.753 
				146.167,47.297 172.958,47.297 172.958,68.753 180.186,68.753 180.186,18.541 172.958,18.541 			"/>
		</g>
		<g>
			<path fill="#007EE5" d="M212.341,36.344c-3.007-2.167-6.588-3.263-10.678-3.263c-3.244,0-6.283,0.824-9.034,2.448
				c-2.744,1.62-4.944,3.858-6.539,6.651c-1.595,2.792-2.404,5.874-2.404,9.161c0,3.335,0.809,6.441,2.404,9.231
				c1.596,2.794,3.796,5.032,6.539,6.651c2.749,1.625,5.789,2.448,9.034,2.448c4.091,0,7.672-1.096,10.678-3.263v2.345h7.017V33.928
				h-7.017V36.344z M212.341,58.04c-1.217,1.642-2.668,2.917-4.316,3.791c-1.734,0.921-3.661,1.388-5.726,1.388
				c-2.137,0-4.103-0.539-5.847-1.602c-1.755-1.069-3.155-2.523-4.162-4.324c-1.007-1.799-1.517-3.802-1.517-5.952
				c0-2.103,0.51-4.082,1.518-5.882c1.005-1.798,2.405-3.252,4.162-4.324c1.744-1.063,3.711-1.602,5.846-1.602
				c2.063,0,3.99,0.467,5.726,1.389c1.648,0.875,3.099,2.15,4.316,3.791V58.04z"/>
		</g>
		<g>
			<path fill="#007EE5" d="M242.01,48.483l-6.512-1.132c-5.482-0.843-5.482-3.209-5.482-3.986c0-1.234,0.562-2.186,1.768-2.997
				c1.312-0.882,3.146-1.329,5.451-1.329c2.541,0,4.579,0.496,6.058,1.475c1.411,0.935,2.234,2.269,2.516,4.08l0.147,0.938h6.598
				l-0.097-1.198c-0.31-3.831-1.99-6.739-4.993-8.646c-2.875-1.824-6.316-2.749-10.229-2.749c-4.129,0-7.532,0.963-10.115,2.862
				c-2.688,1.976-4.051,4.64-4.051,7.916c0,5.455,3.57,8.768,10.591,9.845l7.45,1.276c1.511,0.205,2.703,0.685,3.543,1.426
				c0.77,0.681,1.144,1.54,1.144,2.628c0,1.371-0.614,2.411-1.932,3.27c-1.432,0.935-3.401,1.408-5.852,1.408
				c-2.865,0-5.124-0.552-6.715-1.641c-1.563-1.069-2.545-2.58-3.002-4.621l-0.194-0.866h-6.68l0.178,1.263
				c0.559,3.968,2.316,7.023,5.221,9.079c2.837,2.009,6.556,3.027,11.051,3.027c4.262,0,7.803-0.984,10.525-2.923
				c2.837-2.022,4.276-4.808,4.276-8.278C252.671,53.071,249.085,49.665,242.01,48.483z"/>
		</g>
		<g>
			<path fill="#007EE5" d="M286.776,40.454c-1.27-2.439-3.065-4.336-5.337-5.639c-2.254-1.291-4.874-1.946-7.786-1.946
				c-2.491,0-4.867,0.468-7.064,1.392c-1.405,0.591-2.709,1.337-3.897,2.23V16.424h-7.017v52.33h7.017v-23.89
				c1.265-1.649,2.776-2.951,4.497-3.874c1.805-0.966,3.695-1.457,5.617-1.457c2.721,0,4.827,0.813,6.436,2.484
				c1.597,1.66,2.407,4.038,2.407,7.066v19.671h7.017V48.87C288.667,45.694,288.031,42.862,286.776,40.454z"/>
		</g>
	</g>
</g>
</svg>
