<svg width="2559" height="581" viewBox="0 0 2559 581" fill="none" xmlns="http://www.w3.org/2000/svg">
<path d="M256 546C397.385 546 512 431.385 512 290C512 148.615 397.385 34 256 34C114.615 34 0 148.615 0 290C0 431.385 114.615 546 256 546Z" fill="#2781F6"/>
<path d="M367 410H247.99C182.388 410 129 356.608 129 290.989C129 225.392 182.388 172 247.992 172C313.612 172 367 225.392 367 290.989V410Z" fill="white" stroke="white" stroke-width="6"/>
<path d="M707.875 470.625C683.5 470.625 662.016 465.156 643.422 454.219C624.984 443.281 610.609 428.125 600.297 408.75C590.141 389.375 585.062 366.953 585.062 341.484C585.062 316.016 590.141 293.516 600.297 273.984C610.609 254.453 624.984 239.219 643.422 228.281C662.016 217.344 683.5 211.875 707.875 211.875C723.812 211.875 738.5 214.297 751.938 219.141C765.531 223.828 777.328 230.469 787.328 239.062C797.484 247.656 805.609 257.812 811.703 269.531C817.797 281.25 821.469 294.219 822.719 308.438H759.438C758.5 301.875 756.625 296.016 753.812 290.859C751.156 285.547 747.641 281.016 743.266 277.266C739.047 273.359 734.047 270.391 728.266 268.359C722.641 266.172 716.156 265.078 708.812 265.078C696.781 265.078 686.391 268.203 677.641 274.453C668.891 280.703 662.172 289.531 657.484 300.938C652.953 312.344 650.688 325.859 650.688 341.484C650.688 356.953 652.953 370.391 657.484 381.797C662.172 393.203 668.812 402.031 677.406 408.281C686.156 414.375 696.625 417.422 708.812 417.422C716.156 417.422 722.641 416.406 728.266 414.375C733.891 412.344 738.734 409.453 742.797 405.703C747.016 401.797 750.453 397.188 753.109 391.875C755.766 386.406 757.719 380.312 758.969 373.594H822.719C821.781 387.656 818.266 400.625 812.172 412.5C806.234 424.219 798.188 434.453 788.031 443.203C777.875 451.797 766 458.516 752.406 463.359C738.812 468.203 723.969 470.625 707.875 470.625ZM911.209 326.484V465H846.053V115.781H911.209V281.25H898.319C906.288 259.375 917.459 242.422 931.834 230.391C946.366 218.359 964.725 212.344 986.913 212.344C1004.41 212.344 1019.65 216.172 1032.62 223.828C1045.74 231.328 1055.98 242.344 1063.32 256.875C1070.66 271.406 1074.33 289.141 1074.33 310.078V465H1009.18V321.562C1009.18 304.219 1005.04 291.094 996.756 282.188C988.631 273.281 977.069 268.828 962.069 268.828C952.069 268.828 943.241 270.859 935.584 274.922C927.928 278.984 921.913 285.234 917.538 293.672C913.319 302.109 911.209 313.047 911.209 326.484ZM1185.79 468.984C1169.39 468.984 1154.78 466.25 1141.97 460.781C1129.15 455.312 1119 447.109 1111.5 436.172C1104.15 425.234 1100.48 411.562 1100.48 395.156C1100.48 381.094 1103.06 369.453 1108.22 360.234C1113.53 350.859 1120.64 343.438 1129.54 337.969C1138.61 332.344 1149 328.125 1160.72 325.312C1172.43 322.344 1184.62 320.156 1197.28 318.75C1212.59 317.188 1224.7 315.781 1233.61 314.531C1242.51 313.125 1248.92 311.094 1252.83 308.438C1256.73 305.781 1258.68 301.719 1258.68 296.25V294.609C1258.68 288.047 1256.97 282.344 1253.53 277.5C1250.09 272.5 1245.25 268.594 1239 265.781C1232.75 262.969 1225.17 261.562 1216.26 261.562C1207.36 261.562 1199.47 262.969 1192.59 265.781C1185.87 268.594 1180.48 272.578 1176.42 277.734C1172.51 282.734 1170.25 288.594 1169.62 295.312H1107.98C1109.08 278.438 1114.08 263.828 1122.98 251.484C1132.04 239.141 1144.54 229.531 1160.48 222.656C1176.58 215.781 1195.72 212.344 1217.9 212.344C1234.47 212.344 1249.23 214.297 1262.2 218.203C1275.33 222.109 1286.34 227.734 1295.25 235.078C1304.31 242.422 1311.18 251.328 1315.87 261.797C1320.56 272.109 1322.9 283.75 1322.9 296.719V465H1259.39V430.078H1258.45C1254.23 437.891 1248.92 444.766 1242.51 450.703C1236.26 456.484 1228.45 461.016 1219.08 464.297C1209.86 467.422 1198.76 468.984 1185.79 468.984ZM1203.14 422.812C1214.86 422.812 1224.86 420.703 1233.14 416.484C1241.58 412.109 1247.98 406.25 1252.36 398.906C1256.89 391.562 1259.15 383.281 1259.15 374.062V348.281C1257.12 349.531 1254.39 350.703 1250.95 351.797C1247.67 352.734 1243.68 353.672 1239 354.609C1234.47 355.547 1229.47 356.484 1224 357.422C1218.68 358.359 1213.14 359.219 1207.36 360C1199.23 361.25 1191.81 363.203 1185.09 365.859C1178.37 368.516 1172.98 372.109 1168.92 376.641C1165.01 381.016 1163.06 386.719 1163.06 393.75C1163.06 399.688 1164.7 404.922 1167.98 409.453C1171.42 413.828 1176.11 417.188 1182.04 419.531C1187.98 421.719 1195.01 422.812 1203.14 422.812ZM1496.24 217.5V269.062H1337.57V217.5H1496.24ZM1380.69 150H1445.61V390.703C1445.61 399.297 1447.33 405.234 1450.77 408.516C1454.21 411.797 1460.69 413.438 1470.22 413.438C1474.13 413.438 1478.66 413.438 1483.82 413.438C1489.13 413.438 1493.27 413.438 1496.24 413.438V465C1492.02 465 1486.32 465 1479.13 465C1472.1 465 1464.99 465 1457.8 465C1431.39 465 1411.94 459.766 1399.44 449.297C1386.94 438.828 1380.69 422.656 1380.69 400.781V150ZM1584.03 465L1507.62 217.5H1575.82L1599.73 307.031C1604.26 324.688 1608.63 342.891 1612.85 361.641C1617.07 380.391 1621.29 398.828 1625.51 416.953H1616.6C1621.13 398.828 1625.67 380.391 1630.2 361.641C1634.88 342.891 1639.57 324.688 1644.26 307.031L1669.1 217.5H1728.17L1752.54 307.031C1757.38 324.688 1762.07 342.891 1766.6 361.641C1771.13 380.391 1775.67 398.828 1780.2 416.953H1771.06C1775.43 398.828 1779.65 380.391 1783.71 361.641C1787.93 342.891 1792.23 324.688 1796.6 307.031L1820.51 217.5H1889.42L1813.01 465H1745.74L1716.45 364.688C1713.63 354.844 1710.9 344.844 1708.24 334.688C1705.59 324.375 1702.93 314.062 1700.28 303.75C1697.78 293.281 1695.12 282.969 1692.31 272.812H1704.96C1702.31 282.969 1699.57 293.281 1696.76 303.75C1694.1 314.062 1691.45 324.375 1688.79 334.688C1686.29 344.844 1683.56 354.844 1680.59 364.688L1650.82 465H1584.03ZM2009.78 470.625C1985.09 470.625 1963.38 465.234 1944.62 454.453C1926.03 443.672 1911.5 428.594 1901.03 409.219C1890.72 389.844 1885.56 367.266 1885.56 341.484C1885.56 315.703 1890.72 293.125 1901.03 273.75C1911.5 254.219 1926.03 239.062 1944.62 228.281C1963.38 217.344 1985.09 211.875 2009.78 211.875C2034.62 211.875 2056.34 217.344 2074.94 228.281C2093.53 239.062 2107.98 254.219 2118.3 273.75C2128.77 293.125 2134 315.703 2134 341.484C2134 367.266 2128.77 389.844 2118.3 409.219C2107.98 428.594 2093.53 443.672 2074.94 454.453C2056.34 465.234 2034.62 470.625 2009.78 470.625ZM2009.78 417.188C2021.66 417.188 2031.97 414.219 2040.72 408.281C2049.47 402.188 2056.27 393.438 2061.11 382.031C2065.95 370.625 2068.38 357.109 2068.38 341.484C2068.38 325.547 2065.95 311.953 2061.11 300.703C2056.27 289.297 2049.47 280.547 2040.72 274.453C2031.97 268.359 2021.66 265.312 2009.78 265.312C1998.06 265.312 1987.75 268.359 1978.84 274.453C1970.09 280.547 1963.3 289.297 1958.45 300.703C1953.61 311.953 1951.19 325.547 1951.19 341.484C1951.19 357.266 1953.61 370.859 1958.45 382.266C1963.3 393.516 1970.09 402.188 1978.84 408.281C1987.75 414.219 1998.06 417.188 2009.78 417.188ZM2271.94 470.625C2247.26 470.625 2225.54 465.234 2206.79 454.453C2188.19 443.672 2173.66 428.594 2163.19 409.219C2152.88 389.844 2147.72 367.266 2147.72 341.484C2147.72 315.703 2152.88 293.125 2163.19 273.75C2173.66 254.219 2188.19 239.062 2206.79 228.281C2225.54 217.344 2247.26 211.875 2271.94 211.875C2296.79 211.875 2318.51 217.344 2337.1 228.281C2355.69 239.062 2370.15 254.219 2380.46 273.75C2390.93 293.125 2396.16 315.703 2396.16 341.484C2396.16 367.266 2390.93 389.844 2380.46 409.219C2370.15 428.594 2355.69 443.672 2337.1 454.453C2318.51 465.234 2296.79 470.625 2271.94 470.625ZM2271.94 417.188C2283.82 417.188 2294.13 414.219 2302.88 408.281C2311.63 402.188 2318.43 393.438 2323.27 382.031C2328.12 370.625 2330.54 357.109 2330.54 341.484C2330.54 325.547 2328.12 311.953 2323.27 300.703C2318.43 289.297 2311.63 280.547 2302.88 274.453C2294.13 268.359 2283.82 265.312 2271.94 265.312C2260.22 265.312 2249.91 268.359 2241.01 274.453C2232.26 280.547 2225.46 289.297 2220.62 300.703C2215.77 311.953 2213.35 325.547 2213.35 341.484C2213.35 357.266 2215.77 370.859 2220.62 382.266C2225.46 393.516 2232.26 402.188 2241.01 408.281C2249.91 414.219 2260.22 417.188 2271.94 417.188ZM2558.48 217.5V269.062H2399.81V217.5H2558.48ZM2442.93 150H2507.86V390.703C2507.86 399.297 2509.57 405.234 2513.01 408.516C2516.45 411.797 2522.93 413.438 2532.47 413.438C2536.37 413.438 2540.9 413.438 2546.06 413.438C2551.37 413.438 2555.51 413.438 2558.48 413.438V465C2554.26 465 2548.56 465 2541.37 465C2534.34 465 2527.23 465 2520.04 465C2493.64 465 2474.18 459.766 2461.68 449.297C2449.18 438.828 2442.93 422.656 2442.93 400.781V150Z" fill="white"/>
</svg>
