<?xml version="1.0" encoding="UTF-8"?>
<svg width="14" height="14" viewBox="0 0 14 14" fill="none" xmlns="http://www.w3.org/2000/svg">
<g clip-path="url(#clip0_1689_4131)">
<path d="M8.3125 2.625C9.04833 2.81877 9.71954 3.20437 10.2576 3.74242C10.7956 4.28046 11.1812 4.95167 11.375 5.6875" stroke="white" stroke-width="0.9" stroke-linecap="round" stroke-linejoin="round"/>
<path d="M7.875 4.375C8.77844 4.61672 9.38328 5.22156 9.625 6.125" stroke="white" stroke-width="0.9" stroke-linecap="round" stroke-linejoin="round"/>
<path d="M8.55258 8.38556C8.61317 8.34524 8.68286 8.32067 8.75534 8.31408C8.82781 8.3075 8.90079 8.31909 8.96766 8.34782L11.5467 9.50337C11.6336 9.54052 11.7062 9.60481 11.7535 9.68664C11.8008 9.76846 11.8204 9.86341 11.8092 9.95727C11.7243 10.5922 11.4116 11.1747 10.9293 11.5964C10.4471 12.0181 9.82811 12.2503 9.1875 12.2498C7.21495 12.2498 5.3232 11.4662 3.92839 10.0714C2.53359 8.67658 1.75 6.78482 1.75 4.81227C1.74951 4.17167 1.9817 3.55268 2.40339 3.07044C2.82507 2.5882 3.40755 2.27552 4.0425 2.19056C4.13636 2.1794 4.23131 2.19895 4.31314 2.24627C4.39496 2.29359 4.45926 2.36614 4.49641 2.45306L5.65195 5.03431C5.68035 5.1006 5.69191 5.17289 5.68561 5.24474C5.67931 5.31658 5.65535 5.38575 5.61586 5.4461L4.44719 6.83571C4.40573 6.89826 4.38122 6.9705 4.37604 7.04537C4.37087 7.12023 4.3852 7.19516 4.41766 7.26282C4.86992 8.18868 5.82695 9.13423 6.75555 9.58212C6.82357 9.61443 6.89884 9.62845 6.97393 9.62279C7.04902 9.61713 7.12134 9.59199 7.18375 9.54985L8.55258 8.38556Z" stroke="white" stroke-width="0.9" stroke-linecap="round" stroke-linejoin="round"/>
</g>
<defs>
<clipPath id="clip0_1689_4131">
<rect width="14" height="14" fill="white"/>
</clipPath>
</defs>
</svg>
