<?xml version="1.0" encoding="UTF-8"?>
<svg width="504px" height="470px" viewBox="0 0 504 470" version="1.1" xmlns="http://www.w3.org/2000/svg" xmlns:xlink="http://www.w3.org/1999/xlink">
    <!-- Generator: Sketch 44 (41411) - http://www.bohemiancoding.com/sketch -->
    <title>canned</title>
    <desc>Created with Sketch.</desc>
    <defs></defs>
    <g id="Page-1" stroke="none" stroke-width="1" fill="none" fill-rule="evenodd">
        <g id="canned" fill-rule="nonzero">
            <path d="M329.386,362.733 L39.253,362.733 C20.48,362.733 5.12,347.373 5.12,328.6 L5.12,38.467 C5.12,19.694 20.48,4.334 39.253,4.334 L465.92,4.334 C484.693,4.334 500.053,19.694 500.053,38.467 L500.053,328.6 C500.053,347.373 484.693,362.733 465.92,362.733 L431.787,362.733 L431.787,465.133 L329.386,362.733 Z" id="Shape" fill="#B9ECFF"></path>
            <path d="M431.786,469.4 C430.933,469.4 429.226,468.547 428.373,468.547 L308.907,349.08 C307.2,347.373 307.2,344.813 308.907,343.107 C310.614,341.4 313.174,341.4 314.88,343.107 L426.667,454.894 L426.667,362.734 C426.667,360.174 428.374,358.467 430.934,358.467 L465.067,358.467 C481.28,358.467 494.934,344.814 494.934,328.6 L494.934,38.467 C494.934,22.254 481.281,8.6 465.067,8.6 L38.4,8.6 C22.187,8.6 8.533,22.253 8.533,38.467 L8.533,328.6 C8.533,344.813 22.186,358.467 38.4,358.467 L285.867,358.467 C288.427,358.467 290.134,360.174 290.134,362.734 C290.134,365.294 288.427,367.001 285.867,367.001 L38.4,367.001 C17.067,367 0,349.933 0,328.6 L0,38.467 C0,17.134 17.067,0.067 38.4,0.067 L465.067,0.067 C486.4,0.067 503.467,17.134 503.467,38.467 L503.467,328.6 C503.467,349.933 486.4,367 465.067,367 L435.2,367 L435.2,465.133 C435.2,466.84 434.347,468.546 432.64,469.4 C432.64,469.4 432.64,469.4 431.786,469.4 Z M397.653,264.6 L295.253,264.6 C292.693,264.6 290.986,262.893 290.986,260.333 C290.986,257.773 292.693,256.066 295.253,256.066 L397.653,256.066 C400.213,256.066 401.92,257.773 401.92,260.333 C401.92,262.893 400.213,264.6 397.653,264.6 Z M261.12,264.6 L107.52,264.6 C104.96,264.6 103.253,262.893 103.253,260.333 C103.253,257.773 104.96,256.066 107.52,256.066 L261.12,256.066 C263.68,256.066 265.387,257.773 265.387,260.333 C265.387,262.893 263.68,264.6 261.12,264.6 Z M380.586,213.4 L278.186,213.4 C275.626,213.4 273.919,211.693 273.919,209.133 C273.919,206.573 275.626,204.866 278.186,204.866 L380.586,204.866 C383.146,204.866 384.853,206.573 384.853,209.133 C384.853,211.693 383.147,213.4 380.586,213.4 Z M244.053,213.4 L107.52,213.4 C104.96,213.4 103.253,211.693 103.253,209.133 C103.253,206.573 104.96,204.866 107.52,204.866 L244.053,204.866 C246.613,204.866 248.32,206.573 248.32,209.133 C248.32,211.693 246.613,213.4 244.053,213.4 Z M397.653,162.2 L346.453,162.2 C343.893,162.2 342.186,160.493 342.186,157.933 C342.186,155.373 343.893,153.666 346.453,153.666 L397.653,153.666 C400.213,153.666 401.92,155.373 401.92,157.933 C401.92,160.493 400.213,162.2 397.653,162.2 Z M312.32,162.2 L244.053,162.2 C241.493,162.2 239.786,160.493 239.786,157.933 C239.786,155.373 241.493,153.666 244.053,153.666 L312.32,153.666 C314.88,153.666 316.587,155.373 316.587,157.933 C316.586,160.493 314.88,162.2 312.32,162.2 Z M209.92,162.2 L107.52,162.2 C104.96,162.2 103.253,160.493 103.253,157.933 C103.253,155.373 104.96,153.666 107.52,153.666 L209.92,153.666 C212.48,153.666 214.187,155.373 214.187,157.933 C214.186,160.493 212.48,162.2 209.92,162.2 Z M380.586,111 L209.92,111 C207.36,111 205.653,109.293 205.653,106.733 C205.653,104.173 207.36,102.466 209.92,102.466 L380.587,102.466 C383.147,102.466 384.854,104.173 384.854,106.733 C384.853,109.293 383.147,111 380.586,111 Z M175.786,111 L107.52,111 C104.96,111 103.253,109.293 103.253,106.733 C103.253,104.173 104.96,102.466 107.52,102.466 L175.787,102.466 C178.347,102.466 180.054,104.173 180.054,106.733 C180.053,109.293 178.346,111 175.786,111 Z" id="Shape" fill="#6C6C6C"></path>
        </g>
    </g>
</svg>