<svg width="16" height="16" viewBox="0 0 16 16" fill="none" xmlns="http://www.w3.org/2000/svg">
<g clip-path="url(#clip0_2509_32388)">
<path fill-rule="evenodd" clip-rule="evenodd" d="M2.50002 2.11133H13.5C13.7652 2.11133 14.0196 2.21668 14.2071 2.40422C14.3947 2.59176 14.5 2.84611 14.5 3.11133V12.0002C14.5 12.2654 14.3947 12.5198 14.2071 12.7073C14.0196 12.8949 13.7652 13.0002 13.5 13.0002H5.18752L3.14627 14.7596L3.14064 14.764C2.96174 14.916 2.73477 14.9997 2.50002 15.0002C2.35425 15 2.21029 14.968 2.07814 14.9065C1.90473 14.8271 1.75793 14.6994 1.65537 14.5386C1.55281 14.3779 1.49886 14.1909 1.50002 14.0002V3.11133C1.50002 2.84611 1.60537 2.59176 1.79291 2.40422C1.98045 2.21668 2.2348 2.11133 2.50002 2.11133ZM5.64095 6.85959C5.64095 5.68549 6.72332 4.85959 7.89095 4.85959C9.05858 4.85959 10.1409 5.68549 10.1409 6.85959C10.1409 7.86328 9.34998 8.6125 8.39095 8.80885V8.85959C8.39095 9.13573 8.16709 9.35959 7.89095 9.35959C7.61481 9.35959 7.39095 9.13573 7.39095 8.85959V8.35959C7.39095 8.08345 7.61481 7.85959 7.89095 7.85959C8.65645 7.85959 9.14095 7.34236 9.14095 6.85959C9.14095 6.37682 8.65645 5.85959 7.89095 5.85959C7.12545 5.85959 6.64095 6.37682 6.64095 6.85959C6.64095 7.13573 6.41709 7.35959 6.14095 7.35959C5.86481 7.35959 5.64095 7.13573 5.64095 6.85959ZM7.89095 10.8596C8.16709 10.8596 8.39095 10.6357 8.39095 10.3596C8.39095 10.0834 8.16709 9.85959 7.89095 9.85959C7.61481 9.85959 7.39095 10.0834 7.39095 10.3596C7.39095 10.6357 7.61481 10.8596 7.89095 10.8596Z" fill="#262626"/>
</g>
<defs>
<clipPath id="clip0_2509_32388">
<rect width="16" height="16" fill="white"/>
</clipPath>
</defs>
</svg>
