<?xml version="1.0" encoding="UTF-8"?>
<svg width="505px" height="504px" viewBox="0 0 505 504" version="1.1" xmlns="http://www.w3.org/2000/svg" xmlns:xlink="http://www.w3.org/1999/xlink">
    <!-- Generator: Sketch 42 (36781) - http://www.bohemiancoding.com/sketch -->
    <title>chat (2)</title>
    <desc>Created with Sketch.</desc>
    <defs></defs>
    <g id="Page-1" stroke="none" stroke-width="1" fill="none" fill-rule="evenodd">
        <g id="chat-(2)" fill-rule="nonzero">
            <g id="Layer_1">
                <g id="Group" transform="translate(4.000000, 4.000000)">
                    <path d="M273.333,324.96 L274.186,461.493 C274.186,480.266 256.266,495.626 239.199,495.626 L30.987,495.626 C13.92,495.626 0.267,480.266 0.267,461.493 L0.267,307.893 C0.267,289.12 13.92,273.76 30.987,273.76 L324.534,273.76 L273.333,324.96 Z" id="Shape" fill="#ECF4F7"></path>
                    <path d="M495.2,333.493 L495.2,350.56 C495.2,354.827 491.787,359.093 486.667,359.093 C486.667,376.16 478.134,393.226 478.134,393.226 C469.601,410.293 460.214,427.359 426.934,427.359 C393.654,427.359 384.267,410.292 375.734,393.226 C375.734,393.226 367.201,376.159 367.201,359.093 C362.081,359.093 358.668,354.826 358.668,350.56 L358.668,333.493 C358.668,329.226 362.081,324.96 367.201,324.96 L367.201,316.427 C367.201,292.534 385.974,273.76 409.868,273.76 L444,273.76 C467.893,273.76 486.667,292.533 486.667,316.427 L486.667,324.96 C491.787,324.96 495.2,329.227 495.2,333.493 Z M136.8,60.427 L136.8,77.494 C136.8,81.761 132.533,86.027 128.267,86.027 C128.267,103.094 119.734,120.16 119.734,120.16 C111.201,137.227 101.814,154.293 68.534,154.293 C35.254,154.293 25.867,137.226 17.334,120.16 C17.334,120.16 8.801,103.093 8.801,86.027 C4.534,86.027 0.268,81.76 0.268,77.494 L0.268,60.427 C0.268,56.16 4.535,51.894 8.801,51.894 L8.801,43.36 C8.801,19.467 27.574,0.693 51.468,0.693 L85.6,0.693 C109.493,0.693 128.267,19.466 128.267,43.36 L128.267,51.893 C132.533,51.893 136.8,56.16 136.8,60.427 Z" id="Shape" fill="#FFD0A1"></path>
                    <path d="M222.133,51.893 L170.933,0.693 L461.066,0.693 C479.839,0.693 495.199,16.053 495.199,34.826 L495.199,188.426 C495.199,207.199 479.839,222.559 461.066,222.559 L256.266,222.559 C237.493,222.559 222.133,207.199 222.133,188.426 L222.133,51.893 L222.133,51.893 Z" id="Shape" fill="#3EC1FF"></path>
                </g>
                <path d="M243.2,503.893 L34.987,503.893 C15.36,503.893 0,486.827 0,465.493 L0,311.893 C0,290.56 16.213,273.493 34.987,273.493 L328.534,273.493 C330.241,273.493 331.947,274.346 332.801,276.053 C333.654,277.76 332.801,279.466 331.948,280.32 L264.535,348.587 C262.828,350.294 260.268,350.294 258.562,348.587 C256.855,346.88 256.855,344.32 258.562,342.614 L319.149,282.027 L35.84,282.027 C21.333,282.027 9.387,295.68 9.387,311.894 L9.387,465.494 C9.387,481.707 21.334,495.361 35.84,495.361 L244.053,495.361 C258.56,495.361 274.773,482.561 274.773,465.494 L273.92,371.627 C273.92,369.067 275.627,367.36 278.187,367.36 L278.187,367.36 C280.747,367.36 282.454,369.067 282.454,371.627 L283.307,465.494 C282.453,487.68 261.12,503.893 243.2,503.893 Z M430.933,435.627 C394.24,435.627 384,414.294 376.32,398.934 C376.32,398.081 368.64,382.721 367.787,366.507 C362.667,364.8 359.254,359.68 359.254,354.56 L359.254,337.493 C359.254,331.52 362.667,327.253 367.787,325.546 L367.787,320.426 C367.787,294.826 389.12,273.493 414.72,273.493 L448.853,273.493 C474.453,273.493 495.786,294.826 495.786,320.426 L495.786,325.546 C500.906,327.253 504.319,332.373 504.319,337.493 L504.319,354.56 C504.319,360.533 500.906,364.8 495.786,366.507 C494.933,382.72 487.253,398.08 487.253,398.934 C477.867,414.293 467.627,435.627 430.933,435.627 Z M413.867,282.027 C392.534,282.027 375.467,299.094 375.467,320.427 L375.467,328.96 C375.467,331.52 373.76,333.227 371.2,333.227 C368.64,333.227 366.933,334.934 366.933,337.494 L366.933,354.561 C366.933,357.121 368.64,358.828 371.2,358.828 C372.053,358.828 373.76,359.681 374.613,359.681 C375.466,359.681 375.466,361.388 375.466,363.094 C375.466,379.307 383.146,395.521 383.146,395.521 C392.533,414.294 401.066,427.094 430.933,427.094 C460.8,427.094 469.333,414.294 478.72,395.521 C478.72,395.521 486.4,379.308 486.4,363.094 C486.4,360.534 488.107,358.827 490.667,358.827 C493.227,358.827 494.934,357.12 494.934,354.56 L494.934,337.493 C494.934,334.933 493.227,333.226 490.667,333.226 C488.107,333.226 486.4,331.519 486.4,328.959 L486.4,320.426 C486.4,299.093 469.333,282.026 448,282.026 L413.867,282.026 L413.867,282.027 Z M209.067,418.56 L140.8,418.56 C138.24,418.56 136.533,416.853 136.533,414.293 C136.533,411.733 138.24,410.026 140.8,410.026 L209.067,410.026 C211.627,410.026 213.334,411.733 213.334,414.293 C213.333,416.853 211.627,418.56 209.067,418.56 Z M106.667,418.56 L72.533,418.56 C69.973,418.56 68.266,416.853 68.266,414.293 C68.266,411.733 69.973,410.026 72.533,410.026 L106.666,410.026 C109.226,410.026 110.933,411.733 110.933,414.293 C110.933,416.853 109.227,418.56 106.667,418.56 Z M174.933,367.36 L72.533,367.36 C69.973,367.36 68.266,365.653 68.266,363.093 C68.266,360.533 69.973,358.826 72.533,358.826 L174.933,358.826 C177.493,358.826 179.2,360.533 179.2,363.093 C179.2,365.653 177.493,367.36 174.933,367.36 Z M456.533,350.293 L448,350.293 C445.44,350.293 443.733,348.586 443.733,346.026 C443.733,343.466 445.44,341.759 448,341.759 L456.533,341.759 C459.093,341.759 460.8,343.466 460.8,346.026 C460.8,348.587 459.093,350.293 456.533,350.293 Z M413.867,350.293 L405.334,350.293 C402.774,350.293 401.067,348.586 401.067,346.026 C401.067,343.466 402.774,341.759 405.334,341.759 L413.867,341.759 C416.427,341.759 418.134,343.466 418.134,346.026 C418.133,348.587 416.427,350.293 413.867,350.293 Z M465.067,230.827 L260.267,230.827 C238.934,230.827 221.867,213.76 221.867,192.427 L221.867,98.56 C221.867,96 223.574,94.293 226.134,94.293 C228.694,94.293 230.4,96 230.4,98.56 L230.4,192.427 C230.4,208.64 244.053,222.294 260.267,222.294 L465.067,222.294 C481.28,222.294 494.934,208.641 494.934,192.427 L494.934,38.827 C494.934,22.614 481.281,8.96 465.067,8.96 L185.173,8.96 L245.76,69.547 C247.467,71.254 247.467,73.814 245.76,75.52 C244.053,77.226 241.493,77.227 239.787,75.52 L171.52,7.254 C170.667,6.401 169.813,3.841 170.667,2.987 C171.52,1.28 173.227,0.427 174.934,0.427 L465.067,0.427 C486.4,0.427 503.467,17.494 503.467,38.827 L503.467,192.427 C503.467,213.76 486.4,230.827 465.067,230.827 Z M72.533,162.56 C35.84,162.56 25.6,141.227 17.92,125.867 C17.92,125.014 10.24,109.654 9.387,93.44 C4.267,91.733 0.854,86.613 0.854,81.493 L0.854,64.427 C0.854,58.454 4.267,54.187 9.387,52.48 L9.387,47.36 C9.387,21.76 30.72,0.427 56.32,0.427 L90.453,0.427 C116.053,0.427 137.386,21.76 137.386,47.36 L137.386,52.48 C142.506,54.187 145.919,59.307 145.919,64.427 L145.919,81.494 C145.919,87.467 142.506,91.734 137.386,93.441 C136.533,109.654 128.853,125.014 128.853,125.868 C119.467,141.227 109.227,162.56 72.533,162.56 Z M55.467,8.96 C34.134,8.96 17.067,26.027 17.067,47.36 L17.067,55.893 C17.067,58.453 15.36,60.16 12.8,60.16 C10.24,60.16 8.533,61.867 8.533,64.427 L8.533,81.494 C8.533,84.054 10.24,85.761 12.8,85.761 C15.36,85.761 17.067,87.468 17.067,90.028 C17.067,106.241 24.747,122.455 24.747,122.455 C34.134,141.228 42.667,154.028 72.534,154.028 C102.401,154.028 110.934,141.228 120.321,122.455 C120.321,122.455 128.001,106.242 128.001,90.028 C128.001,87.468 129.708,85.761 132.268,85.761 C134.828,85.761 136.535,84.054 136.535,81.494 L136.535,64.427 C136.535,61.867 134.828,60.16 132.268,60.16 C129.708,60.16 128.001,58.453 128.001,55.893 L128.001,47.36 C128.001,26.027 110.934,8.96 89.601,8.96 L55.467,8.96 Z M430.933,145.493 L362.666,145.493 C360.106,145.493 358.399,143.786 358.399,141.226 C358.399,138.666 360.106,136.959 362.666,136.959 L430.933,136.959 C433.493,136.959 435.2,138.666 435.2,141.226 C435.2,143.786 433.493,145.493 430.933,145.493 Z M328.533,145.493 L294.4,145.493 C291.84,145.493 290.133,143.786 290.133,141.226 C290.133,138.666 291.84,136.959 294.4,136.959 L328.533,136.959 C331.093,136.959 332.8,138.666 332.8,141.226 C332.8,143.786 331.093,145.493 328.533,145.493 Z M396.8,94.293 L294.4,94.293 C291.84,94.293 290.133,92.586 290.133,90.026 C290.133,87.466 291.84,85.759 294.4,85.759 L396.8,85.759 C399.36,85.759 401.067,87.466 401.067,90.026 C401.067,92.587 399.36,94.293 396.8,94.293 Z M98.133,77.227 L89.6,77.227 C87.04,77.227 85.333,75.52 85.333,72.96 C85.333,70.4 87.04,68.693 89.6,68.693 L98.133,68.693 C100.693,68.693 102.4,70.4 102.4,72.96 C102.4,75.52 100.693,77.227 98.133,77.227 Z M55.467,77.227 L46.934,77.227 C44.374,77.227 42.667,75.52 42.667,72.96 C42.667,70.4 44.374,68.693 46.934,68.693 L55.467,68.693 C58.027,68.693 59.734,70.4 59.734,72.96 C59.734,75.52 58.027,77.227 55.467,77.227 Z" id="Shape" fill="#51565F"></path>
            </g>
        </g>
    </g>
</svg>