<svg width="32" height="32" viewBox="0 0 32 32" fill="none" xmlns="http://www.w3.org/2000/svg">
<rect width="32" height="32" rx="4" fill="#F0F0F0"/>
<path d="M25.375 15.3672V15.3516C25.3763 15.333 25.3736 15.3144 25.3672 15.2969V15.2734C25.3672 15.2578 25.3594 15.2422 25.3594 15.2266V15.2109L25.3438 15.1484H25.3359L24.2422 12.4297C24.155 12.1917 23.9963 11.9866 23.7879 11.8425C23.5795 11.6985 23.3315 11.6225 23.0781 11.625H20.375V11C20.375 10.8342 20.3092 10.6753 20.1919 10.5581C20.0747 10.4408 19.9158 10.375 19.75 10.375H7.875C7.54348 10.375 7.22554 10.5067 6.99112 10.7411C6.7567 10.9755 6.625 11.2935 6.625 11.625V20.375C6.625 20.7065 6.7567 21.0245 6.99112 21.2589C7.22554 21.4933 7.54348 21.625 7.875 21.625H8.89062C9.02831 22.1628 9.34106 22.6394 9.77957 22.9798C10.2181 23.3202 10.7574 23.5049 11.3125 23.5049C11.8676 23.5049 12.4069 23.3202 12.8454 22.9798C13.2839 22.6394 13.5967 22.1628 13.7344 21.625H18.2656C18.4033 22.1628 18.7161 22.6394 19.1546 22.9798C19.5931 23.3202 20.1324 23.5049 20.6875 23.5049C21.2426 23.5049 21.7819 23.3202 22.2204 22.9798C22.6589 22.6394 22.9717 22.1628 23.1094 21.625H24.125C24.4565 21.625 24.7745 21.4933 25.0089 21.2589C25.2433 21.0245 25.375 20.7065 25.375 20.375V15.375V15.3672ZM20.375 12.875H23.0781L23.8281 14.75H20.375V12.875ZM7.875 11.625H19.125V16.625H7.875V11.625ZM11.3125 22.25C11.0653 22.25 10.8236 22.1767 10.618 22.0393C10.4125 21.902 10.2523 21.7068 10.1577 21.4784C10.063 21.2499 10.0383 20.9986 10.0865 20.7561C10.1347 20.5137 10.2538 20.2909 10.4286 20.1161C10.6034 19.9413 10.8262 19.8222 11.0686 19.774C11.3111 19.7258 11.5624 19.7505 11.7909 19.8452C12.0193 19.9398 12.2145 20.1 12.3518 20.3055C12.4892 20.5111 12.5625 20.7528 12.5625 21C12.5625 21.3315 12.4308 21.6495 12.1964 21.8839C11.962 22.1183 11.644 22.25 11.3125 22.25ZM20.6875 22.25C20.4403 22.25 20.1986 22.1767 19.993 22.0393C19.7875 21.902 19.6273 21.7068 19.5327 21.4784C19.438 21.2499 19.4133 20.9986 19.4615 20.7561C19.5097 20.5137 19.6288 20.2909 19.8036 20.1161C19.9784 19.9413 20.2012 19.8222 20.4436 19.774C20.6861 19.7258 20.9374 19.7505 21.1659 19.8452C21.3943 19.9398 21.5895 20.1 21.7268 20.3055C21.8642 20.5111 21.9375 20.7528 21.9375 21C21.9375 21.3315 21.8058 21.6495 21.5714 21.8839C21.337 22.1183 21.019 22.25 20.6875 22.25Z" fill="#262626"/>
</svg>
