<svg width="13" height="14" viewBox="0 0 13 14" fill="none" xmlns="http://www.w3.org/2000/svg">
<path d="M2.7998 6.40062C2.7998 4.70364 2.7998 3.85515 3.32699 3.32797C3.85417 2.80078 4.70266 2.80078 6.39964 2.80078H8.19956C9.89653 2.80078 10.745 2.80078 11.2722 3.32797C11.7994 3.85515 11.7994 4.70364 11.7994 6.40062V9.40049C11.7994 11.0975 11.7994 11.9459 11.2722 12.4731C10.745 13.0003 9.89653 13.0003 8.19956 13.0003H6.39964C4.70266 13.0003 3.85417 13.0003 3.32699 12.4731C2.7998 11.9459 2.7998 11.0975 2.7998 9.40049V6.40062Z" stroke="white"/>
<path d="M2.79992 11.1995C1.80585 11.1995 1 10.3937 1 9.39963V5.79979C1 3.53714 1 2.40583 1.70291 1.70291C2.40583 1 3.53714 1 5.79979 1H8.19968C9.19378 1 9.9996 1.80585 9.9996 2.79992" stroke="white"/>
</svg>
