<?xml version="1.0" encoding="iso-8859-1"?>
<!-- Generator: Adobe Illustrator 19.0.0, SVG Export Plug-In . SVG Version: 6.00 Build 0)  -->
<svg version="1.1" id="Layer_1" xmlns="http://www.w3.org/2000/svg" xmlns:xlink="http://www.w3.org/1999/xlink" x="0px" y="0px"
	 viewBox="0 0 503.467 503.467" style="enable-background:new 0 0 503.467 503.467;" xml:space="preserve">
<g transform="translate(5 1)">
	<polygon style="fill:#F2EDDA;" points="408.867,105.667 169.933,105.667 118.733,105.667 118.733,156.867 135.8,165.4 
		118.733,173.933 118.733,327.533 135.8,319 144.333,344.6 374.733,344.6 383.267,327.533 391.8,344.6 460.067,344.6 
		460.067,310.467 425.933,293.4 460.067,276.333 460.067,105.667 	"/>
	<path style="fill:#AE938D;" d="M67.533,54.467V498.2H33.4V20.333c0-9.387,7.68-17.067,17.067-17.067s17.067,7.68,17.067,17.067
		V54.467z"/>
</g>
<path style="fill:#51565F;" d="M499.2,503.467H362.667c-2.56,0-4.267-1.707-4.267-4.267c0-2.56,1.707-4.267,4.267-4.267H499.2
	c2.56,0,4.267,1.707,4.267,4.267C503.467,501.76,501.76,503.467,499.2,503.467z M328.533,503.467h-17.067
	c-2.56,0-4.267-1.707-4.267-4.267c0-2.56,1.707-4.267,4.267-4.267h17.067c2.56,0,4.267,1.707,4.267,4.267
	C332.8,501.76,331.093,503.467,328.533,503.467z M260.267,503.467h-85.333c-2.56,0-4.267-1.707-4.267-4.267
	c0-2.56,1.707-4.267,4.267-4.267h85.333c2.56,0,4.267,1.707,4.267,4.267C264.533,501.76,262.827,503.467,260.267,503.467z
	 M123.733,503.467H4.267C1.707,503.467,0,501.76,0,499.2c0-2.56,1.707-4.267,4.267-4.267h29.867v-473.6
	C34.133,9.387,43.52,0,55.467,0S76.8,9.387,76.8,21.333V51.2h422.4c2.56,0,4.267,1.707,4.267,4.267c0,2.56-1.707,4.267-4.267,4.267
	h-81.067V102.4h46.933c2.56,0,4.267,1.707,4.267,4.267v170.667c0,1.707-0.853,3.413-2.56,3.413L440.32,294.4l26.453,13.653
	c1.707,0.853,2.56,2.56,2.56,3.413V345.6c0,2.56-1.707,4.267-4.267,4.267H396.8c-1.707,0-3.413-0.853-3.413-2.56l-5.12-9.387
	l-5.12,9.387c-0.853,1.707-2.56,2.56-3.413,2.56h-230.4c-1.707,0-3.413-0.853-4.267-2.56l-6.827-21.333l-12.8,5.973
	c-1.707,0.853-2.56,0.853-4.267,0c-0.853-0.853-1.707-2.56-1.707-3.413v-153.6c0-1.707,0.853-3.413,2.56-3.413l9.387-5.12
	l-9.387-5.12c-1.707-0.853-2.56-2.56-2.56-3.413v-51.2c0-2.56,1.707-4.267,4.267-4.267h46.933V59.734H72.533
	c-2.56,0-4.267-1.707-4.267-4.267V21.334c0-6.827-5.973-12.8-12.8-12.8s-12.8,5.973-12.8,12.8v473.6h25.6V89.6
	c0-2.56,1.707-4.267,4.267-4.267c2.56,0,4.267,1.707,4.267,4.267v405.333h46.933c2.56,0,4.267,1.707,4.267,4.267
	C128,501.76,126.293,503.467,123.733,503.467z M399.36,341.333h61.44v-27.307l-31.573-16.213c-1.707-0.853-2.56-2.56-2.56-3.413
	c0-0.853,0.853-3.413,2.56-3.413l31.573-16.213v-163.84h-46.933c-2.56,0-4.267-1.707-4.267-4.267V59.733H179.2v46.933
	c0,2.56-1.707,4.267-4.267,4.267H128v44.373l14.507,7.68c1.707,0.853,2.56,2.56,2.56,3.413c0,0.853-0.853,3.413-2.56,3.413
	L128,177.493v144.213l11.093-5.12c0.853-0.853,2.56-0.853,3.413,0c0.853,0.853,1.707,1.707,2.56,2.56l7.68,23.04h224.427
	l7.68-14.507c1.707-2.56,5.973-2.56,7.68,0L399.36,341.333z M260.267,281.6H192c-2.56,0-4.267-1.707-4.267-4.267
	s1.707-4.267,4.267-4.267h68.267c2.56,0,4.267,1.707,4.267,4.267S262.827,281.6,260.267,281.6z M362.667,264.533
	c-0.853,0-2.56,0-3.413-0.853c-1.707-1.707-1.707-4.267,0-5.973l26.453-26.453H327.68c-2.56,0-4.267-1.707-4.267-4.267
	c0-2.56,1.707-4.267,4.267-4.267h58.027l-26.453-26.453c-1.707-1.707-1.707-4.267,0-5.973c1.707-1.707,4.267-1.707,5.973,0
	l34.133,34.133l0,0l0,0l0,0l0,0l0,0c0,0,0.853,0.853,0.853,1.707c0,0.853,0,0.853,0,1.707l0,0l0,0l0,0l0,0l0,0l0,0l0,0l0,0l0,0
	c0,0.853,0,0.853,0,1.707c0,0.853-0.853,0.853-0.853,1.707l0,0l0,0l0,0l0,0l0,0l-34.133,34.133
	C365.227,264.533,363.52,264.533,362.667,264.533z M277.333,230.4H192c-2.56,0-4.267-1.707-4.267-4.267s1.707-4.267,4.267-4.267
	h85.333c2.56,0,4.267,1.707,4.267,4.267S279.893,230.4,277.333,230.4z M243.2,179.2H192c-2.56,0-4.267-1.707-4.267-4.267
	c0-2.56,1.707-4.267,4.267-4.267h51.2c2.56,0,4.267,1.707,4.267,4.267C247.467,177.493,245.76,179.2,243.2,179.2z M379.733,110.933
	H209.067c-2.56,0-4.267-1.707-4.267-4.267s1.707-4.267,4.267-4.267h170.667c2.56,0,4.267,1.707,4.267,4.267
	S382.293,110.933,379.733,110.933z"/>
<g>
</g>
<g>
</g>
<g>
</g>
<g>
</g>
<g>
</g>
<g>
</g>
<g>
</g>
<g>
</g>
<g>
</g>
<g>
</g>
<g>
</g>
<g>
</g>
<g>
</g>
<g>
</g>
<g>
</g>
</svg>
