<svg width="495" height="384" viewBox="0 0 495 384" fill="none" xmlns="http://www.w3.org/2000/svg">
<g id="No Chat History">
<path id="Fill 1" fill-rule="evenodd" clip-rule="evenodd" d="M266.903 0C221.687 0 180.128 15.7196 147.313 42.0198H94.2771C87.3866 42.0198 81.749 47.6925 81.749 54.6257C81.749 61.559 87.3866 67.2317 94.2771 67.2317H121.268H129.178C136.068 67.2317 141.706 72.9043 141.706 79.8376C141.706 83.3 140.294 86.4599 138.023 88.7374C135.759 91.0233 132.619 92.4435 129.178 92.4435H112.303H102.986H57.5281C50.6376 92.4435 45 98.1162 45 105.049C45 111.983 50.6376 117.655 57.5281 117.655H90.071C80.2473 140.886 74.8059 166.446 74.8059 193.291C74.8059 203.031 75.5242 212.603 76.9023 221.957C77.4786 225.865 78.1718 229.739 78.982 233.571C102.618 229.932 127.691 227.008 153.866 224.873L155.837 226.68L157.692 224.571C189.137 222.108 222.144 220.797 256.187 220.797C328.516 220.797 396.201 226.714 454.072 237C456.302 227.268 457.806 217.259 458.516 207.023C458.841 202.485 459 197.905 459 193.291C459 86.5356 372.999 0 266.903 0Z" fill="#43484C"/>
<path id="Fill 3" fill-rule="evenodd" clip-rule="evenodd" d="M20.2465 91.4282H12.6678C5.7005 91.4282 0 97.1882 0 104.228C0 111.268 5.7005 117.028 12.6678 117.028H20.2465C27.2137 117.028 32.9142 111.268 32.9142 104.228C32.9142 97.1882 27.2137 91.4282 20.2465 91.4282Z" fill="#43484C"/>
<g id="Group 7">
<mask id="mask0_201_141" style="mask-type:luminance" maskUnits="userSpaceOnUse" x="78" y="219" width="417" height="165">
<path id="Clip 6" fill-rule="evenodd" clip-rule="evenodd" d="M495 219V384H286.5H78V219H495Z" fill="white"/>
</mask>
<g mask="url(#mask0_201_141)">
<path id="Fill 5" fill-rule="evenodd" clip-rule="evenodd" d="M495 279.775C495 286.675 489.336 292.321 482.413 292.321H402.016C398.559 292.321 395.405 293.734 393.131 296.009C390.849 298.276 389.43 301.421 389.43 304.867C389.43 311.768 395.094 317.413 402.016 317.413H416.954C420.41 317.413 423.566 318.827 425.84 321.102C428.122 323.369 429.54 326.514 429.54 329.96C429.54 336.86 423.876 342.506 416.954 342.506H382.608C350.344 366.662 310.251 380.981 266.802 380.981C174.004 380.981 96.5026 315.699 78 228.695C101.747 225.073 126.937 222.162 153.235 220.038L155.215 221.836L157.079 219.736C188.671 217.286 221.833 215.981 256.036 215.981C328.703 215.981 396.705 221.869 454.847 232.107C452.02 244.302 448.026 256.045 442.991 267.228H482.413C485.879 267.228 489.017 268.642 491.3 270.917C493.582 273.184 495 276.328 495 279.775Z" fill="#34393D"/>
</g>
</g>
<path id="Fill 8" fill-rule="evenodd" clip-rule="evenodd" d="M459 206.12C458.285 216.665 456.771 226.975 454.525 237C396.235 226.404 328.06 220.31 255.208 220.31C220.919 220.31 187.673 221.66 156 224.196L177.965 198.615L212.134 221.028L258.388 208.19L337.959 220.31L372.503 208.19L381.252 220.31L402.126 204.736L421.632 222.707L452.396 198L459 206.12Z" fill="#55575E"/>
<path id="Fill 10" fill-rule="evenodd" clip-rule="evenodd" d="M344.905 216.502C353.565 203.915 358.526 188.987 358.397 173.012C358.043 128.578 318.46 92.8734 269.986 93.2602C221.512 93.6478 182.505 129.983 182.86 174.416C183.214 218.849 222.798 254.555 271.271 254.168C288.59 254.03 304.7 249.3 318.238 241.253L354.454 249.78L344.905 216.502Z" fill="#686B73"/>
<path id="Fill 12" fill-rule="evenodd" clip-rule="evenodd" d="M245.029 171.813C245.069 176.862 241.008 180.988 235.959 181.028C230.909 181.069 226.783 177.008 226.743 171.959C226.703 166.909 230.763 162.784 235.813 162.743C240.861 162.703 244.987 166.763 245.029 171.813Z" fill="#BEC0D6"/>
<path id="Fill 14" fill-rule="evenodd" clip-rule="evenodd" d="M277.942 171.812C277.982 176.862 273.922 180.988 268.872 181.028C263.822 181.068 259.696 177.008 259.657 171.959C259.616 166.909 263.677 162.783 268.726 162.743C273.775 162.703 277.901 166.763 277.942 171.812Z" fill="#BEC0D6"/>
<path id="Fill 16" fill-rule="evenodd" clip-rule="evenodd" d="M310.856 171.812C310.897 176.861 306.836 180.987 301.786 181.028C296.737 181.068 292.611 177.008 292.571 171.958C292.53 166.908 296.591 162.783 301.641 162.743C306.689 162.702 310.815 166.763 310.856 171.812Z" fill="#BEC0D6"/>
<path id="Fill 20" fill-rule="evenodd" clip-rule="evenodd" d="M173.714 235.887C173.714 241.693 175.571 247.099 178.763 251.649L175.376 263.789L188.564 260.581C193.523 263.465 199.402 265.143 205.714 265.143C223.388 265.143 237.714 252.044 237.714 235.887C237.714 219.728 223.388 206.629 205.714 206.629C188.041 206.629 173.714 219.728 173.714 235.887Z" fill="url(#paint0_linear_201_141)"/>
<g id="Frame 148">
<path id="Fill 26" fill-rule="evenodd" clip-rule="evenodd" d="M189 234.658C189 236.677 190.637 238.314 192.657 238.314C194.676 238.314 196.314 236.677 196.314 234.658C196.314 232.638 194.676 231 192.657 231C190.637 231 189 232.638 189 234.658Z" fill="#0D0D0D"/>
<path id="Fill 24" fill-rule="evenodd" clip-rule="evenodd" d="M202.314 234.658C202.314 236.677 203.951 238.314 205.971 238.314C207.99 238.314 209.628 236.677 209.628 234.658C209.628 232.638 207.99 231 205.971 231C203.951 231 202.314 232.638 202.314 234.658Z" fill="#0D0D0D"/>
<path id="Fill 22" fill-rule="evenodd" clip-rule="evenodd" d="M215.629 234.658C215.629 236.677 217.265 238.314 219.285 238.314C221.305 238.314 222.943 236.677 222.943 234.658C222.943 232.638 221.305 231 219.285 231C217.265 231 215.629 232.638 215.629 234.658Z" fill="#0D0D0D"/>
</g>
<path id="Fill 28" fill-rule="evenodd" clip-rule="evenodd" d="M153.6 223.557C127.481 225.685 102.461 228.601 78.8755 232.228C78.0671 228.408 77.3754 224.546 76.8003 220.65L117.229 190.171L153.6 223.557Z" fill="#55575E"/>
<path id="Fill 30" fill-rule="evenodd" clip-rule="evenodd" d="M336.457 286.171C336.457 289.706 304.529 292.571 265.143 292.571C225.757 292.571 193.829 289.706 193.829 286.171C193.829 282.638 225.757 279.771 265.143 279.771C304.529 279.771 336.457 282.638 336.457 286.171Z" fill="#686B73"/>
<path id="Fill 32" fill-rule="evenodd" clip-rule="evenodd" d="M453.486 345.599C446.446 345.599 440.686 339.839 440.686 332.799C440.686 325.76 446.446 320 453.486 320C460.526 320 466.286 325.76 466.286 332.799C466.286 339.839 460.526 345.599 453.486 345.599Z" fill="#34393D"/>
</g>
<defs>
<linearGradient id="paint0_linear_201_141" x1="205.714" y1="177.372" x2="147.434" y2="241.115" gradientUnits="userSpaceOnUse">
<stop stop-color="#9DC9FB"/>
<stop offset="1" stop-color="#9DC9FB"/>
</linearGradient>
</defs>
</svg>
