<svg width="120" height="120" viewBox="0 0 120 120" fill="none" xmlns="http://www.w3.org/2000/svg">
<path d="M42.4834 68.6832C42.7774 69.425 42.8429 70.2378 42.6714 71.0172L40.5414 77.5971C40.4728 77.9308 40.4905 78.2765 40.5929 78.6014C40.6954 78.9263 40.8791 79.2197 41.1267 79.4536C41.3743 79.6876 41.6776 79.8545 42.0078 79.9384C42.3379 80.0223 42.6841 80.0205 43.0134 79.9331L49.8393 77.9371C50.5747 77.7912 51.3364 77.855 52.0373 78.1211C56.308 80.1155 61.146 80.5375 65.6975 79.3125C70.249 78.0876 74.2217 75.2944 76.9145 71.4259C79.6073 67.5573 80.8473 62.862 80.4157 58.1683C79.984 53.4747 77.9085 49.0843 74.5553 45.7717C71.202 42.4592 66.7866 40.4375 62.088 40.0632C57.3894 39.6889 52.7096 40.9861 48.8742 43.726C45.0388 46.4659 42.2944 50.4724 41.1252 55.0385C39.9559 59.6047 40.4369 64.4371 42.4834 68.6832Z" stroke="#B9BBC6" stroke-width="3" stroke-linecap="round" stroke-linejoin="round"/>
<path d="M53.8503 25.6371C58.2429 24.787 62.7578 24.787 67.1503 25.6371" stroke="#E4E4E9" stroke-width="4" stroke-linecap="round" stroke-linejoin="round"/>
<path d="M67.1503 94.3621C62.7578 95.2121 58.2429 95.2121 53.8503 94.3621" stroke="#E4E4E9" stroke-width="4" stroke-linecap="round" stroke-linejoin="round"/>
<path d="M80.1311 31.02C83.8462 33.5373 87.0426 36.7456 89.5461 40.47" stroke="#E4E4E9" stroke-width="4" stroke-linecap="round" stroke-linejoin="round"/>
<path d="M26.1371 66.6503C25.287 62.2578 25.287 57.7429 26.1371 53.3503" stroke="#E4E4E9" stroke-width="4" stroke-linecap="round" stroke-linejoin="round"/>
<path d="M89.4798 79.635C86.9625 83.3502 83.7542 86.5465 80.0298 89.05" stroke="#E4E4E9" stroke-width="4" stroke-linecap="round" stroke-linejoin="round"/>
<path d="M94.8621 53.3503C95.7121 57.7429 95.7121 62.2578 94.8621 66.6503" stroke="#E4E4E9" stroke-width="4" stroke-linecap="round" stroke-linejoin="round"/>
<path d="M31.5249 40.3696C34.0422 36.6544 37.2504 33.4581 40.9749 30.9546" stroke="#E4E4E9" stroke-width="4" stroke-linecap="round" stroke-linejoin="round"/>
<path d="M40.0717 91.9083L29.9007 94.8833C29.3241 95.0365 28.718 95.0397 28.1398 94.8927C27.5616 94.7457 27.0306 94.4534 26.5972 94.0434C26.1638 93.6335 25.8423 93.1196 25.6634 92.5505C25.4844 91.9814 25.4539 91.376 25.5747 90.7918L28.9522 80.3618" stroke="#E4E4E9" stroke-width="4" stroke-linecap="round" stroke-linejoin="round"/>
</svg>
