<?xml version="1.0" encoding="UTF-8"?>
<svg width="504px" height="504px" viewBox="0 0 504 504" version="1.1" xmlns="http://www.w3.org/2000/svg" xmlns:xlink="http://www.w3.org/1999/xlink">
    <!-- Generator: Sketch 44 (41411) - http://www.bohemiancoding.com/sketch -->
    <title>billboard</title>
    <desc>Created with Sketch.</desc>
    <defs></defs>
    <g id="Page-1" stroke="none" stroke-width="1" fill="none" fill-rule="evenodd">
        <g id="billboard">
            <g id="Layer_1" fill-rule="nonzero">
                <g id="Group" transform="translate(4.000000, 4.000000)">
                    <path d="M95.84,325.387 C100.107,342.454 102.667,359.52 102.667,375.734 C102.667,405.601 81.334,426.934 51.467,426.934 C22.454,426.934 0.267,404.747 0.267,375.734 C0.267,324.534 25.867,256.267 51.467,256.267 C69.387,256.267 86.453,288.693 95.84,325.387 Z M478.133,461.067 C487.52,461.067 495.2,468.747 495.2,478.134 C495.2,487.521 487.52,495.201 478.133,495.201 L409.866,495.201 C400.479,495.201 392.799,487.521 392.799,478.134 C392.799,468.747 400.479,461.067 409.866,461.067 C413.279,461.067 416.693,461.92 419.253,463.627 C421.813,452.533 432.053,444 444,444 C455.947,444 466.187,452.533 468.747,463.627 C471.307,461.92 474.72,461.067 478.133,461.067 Z" id="Shape" fill="#50DD8E"></path>
                    <path d="M392.8,478.133 L392.8,495.2 L358.667,495.2 L358.667,324.533 L392.8,324.533 L392.8,478.133 Z M102.667,375.733 C102.667,359.52 100.107,341.6 95.84,325.386 L98.4,324.533 L136.8,324.533 L136.8,495.2 L102.667,495.2 L102.667,375.733 Z" id="Shape" fill="#AAB1BA"></path>
                    <path d="M461.066,0.267 C479.839,0.267 495.199,15.627 495.199,34.4 L495.199,290.4 C495.199,309.173 479.839,324.533 461.066,324.533 L392.8,324.533 L358.667,324.533 L136.8,324.533 L98.4,324.533 L95.84,325.386 C86.453,288.693 68.533,256.266 51.467,256.266 C25.867,256.266 0.267,324.533 0.267,375.733 L0.267,34.4 C0.267,15.627 15.627,0.267 34.4,0.267 L119.733,0.267 L375.733,0.267 L461.066,0.267 Z" id="Shape" fill="#B9ECFF"></path>
                </g>
                <path d="M482.133,503.467 C479.573,503.467 477.866,501.76 477.866,499.2 C477.866,496.64 479.573,494.933 482.133,494.933 C488.96,494.933 494.933,488.96 494.933,482.133 C494.933,475.306 488.96,469.333 482.133,469.333 C479.573,469.333 477.013,470.186 475.306,471.04 C474.453,471.893 472.746,471.893 471.039,471.04 C469.332,470.187 468.479,469.333 468.479,467.627 C465.919,458.24 457.386,451.414 447.999,451.414 C438.612,451.414 429.226,458.241 427.519,467.627 C427.519,469.334 426.666,470.187 424.959,471.04 C423.252,471.893 422.399,471.04 420.692,471.04 C418.985,469.333 416.425,469.333 413.865,469.333 C407.038,469.333 401.065,475.306 401.065,482.133 C401.065,488.96 407.038,494.933 413.865,494.933 C416.425,494.933 418.132,496.64 418.132,499.2 C418.132,501.76 416.425,503.467 413.865,503.467 L4.267,503.467 C1.707,503.467 0,501.76 0,499.2 C0,496.64 1.707,494.933 4.267,494.933 L51.2,494.933 L51.2,435.2 C22.187,433.493 0,409.6 0,379.733 C0,331.093 24.747,256 55.467,256 C86.187,256 110.934,331.093 110.934,379.733 C110.934,410.453 89.601,433.493 59.734,435.2 L59.734,494.933 L102.4,494.933 L102.4,456.533 C102.4,453.973 104.107,452.266 106.667,452.266 C109.227,452.266 110.934,453.973 110.934,456.533 L110.934,494.933 L136.534,494.933 L136.534,362.667 C136.534,360.107 138.241,358.4 140.801,358.4 C143.361,358.4 145.068,360.107 145.068,362.667 L145.068,494.934 L358.4,494.934 L358.4,362.667 C358.4,360.107 360.107,358.4 362.667,358.4 C365.227,358.4 366.934,360.107 366.934,362.667 L366.934,494.934 L392.534,494.934 L392.534,362.667 C392.534,360.107 394.241,358.4 396.801,358.4 C399.361,358.4 401.068,360.107 401.068,362.667 L401.068,465.067 C406.188,460.8 413.868,459.947 420.695,461.654 C424.962,450.561 436.055,443.734 448.002,443.734 C459.949,443.734 471.042,450.561 475.309,461.654 C477.869,460.801 479.576,460.801 482.136,460.801 C494.083,460.801 503.469,470.188 503.469,482.134 C503.469,494.08 494.08,503.467 482.133,503.467 Z M55.467,264.533 C34.134,264.533 8.534,327.68 8.534,379.733 C8.534,406.186 29.014,426.666 55.467,426.666 C82.774,426.666 102.4,407.039 102.4,379.733 C102.4,327.68 76.8,264.533 55.467,264.533 Z M46.933,392.533 C40.106,392.533 34.133,386.56 34.133,379.733 C34.133,377.173 35.84,375.466 38.4,375.466 C40.96,375.466 42.667,377.173 42.667,379.733 C42.667,382.293 44.374,384 46.934,384 C49.494,384 51.201,385.707 51.201,388.267 C51.2,390.827 49.493,392.533 46.933,392.533 Z M72.533,375.467 C69.973,375.467 68.266,373.76 68.266,371.2 C68.266,368.64 66.559,366.933 63.999,366.933 C61.439,366.933 59.732,365.226 59.732,362.666 C59.732,360.106 61.44,358.4 64,358.4 C70.827,358.4 76.8,364.373 76.8,371.2 C76.8,373.76 75.093,375.467 72.533,375.467 Z M465.067,332.8 L132.267,332.8 C129.707,332.8 128,331.093 128,328.533 C128,325.973 129.707,324.266 132.267,324.266 L465.067,324.266 C481.28,324.266 494.934,310.613 494.934,294.399 L494.934,38.399 C494.934,22.186 481.281,8.532 465.067,8.532 L384,8.532 L384,34.132 L413.867,34.132 C416.427,34.132 418.134,35.839 418.134,38.399 C418.134,40.959 416.427,42.666 413.867,42.666 L345.6,42.666 C343.04,42.666 341.333,40.959 341.333,38.399 C341.333,35.839 343.04,34.132 345.6,34.132 L375.467,34.132 L375.467,8.532 L128,8.532 L128,34.132 L157.867,34.132 C160.427,34.132 162.134,35.839 162.134,38.399 C162.134,40.959 160.427,42.666 157.867,42.666 L89.6,42.666 C87.04,42.666 85.333,40.959 85.333,38.399 C85.333,35.839 87.04,34.132 89.6,34.132 L119.467,34.132 L119.467,8.532 L38.4,8.532 C22.187,8.533 8.533,22.187 8.533,38.4 L8.533,260.267 C8.533,262.827 6.826,264.534 4.266,264.534 C1.706,264.534 0,262.827 0,260.267 L0,38.4 C0,17.067 17.067,0 38.4,0 L465.067,0 C486.4,0 503.467,17.067 503.467,38.4 L503.467,294.4 C503.467,315.733 486.4,332.8 465.067,332.8 Z M46.933,332.8 C44.373,332.8 42.666,331.093 42.666,328.533 C42.666,321.706 48.639,315.733 55.466,315.733 C58.026,315.733 59.733,317.44 59.733,320 C59.733,322.56 58.026,324.267 55.466,324.267 C52.906,324.267 51.199,325.974 51.199,328.534 C51.2,331.093 49.493,332.8 46.933,332.8 Z" id="Shape" fill="#6C6C6C"></path>
            </g>
            <text id="NO-INBOXES" font-family="HoboStd, Hobo Std" font-size="64" font-weight="400" fill="#6C6C6C">
                <tspan x="60" y="195">NO INBOXES</tspan>
            </text>
        </g>
    </g>
</svg>