<svg width="20" height="20" viewBox="0 0 20 20" fill="none" xmlns="http://www.w3.org/2000/svg">
<path d="M18.125 9.99074C18.1256 10.2135 18.0667 10.4323 17.9543 10.6246C17.8419 10.8169 17.6803 10.9756 17.486 11.0845L4.36799 18.5853C4.17951 18.6921 3.96668 18.7487 3.75002 18.7493C3.55021 18.7489 3.35341 18.7006 3.17612 18.6085C2.99883 18.5163 2.84621 18.383 2.73105 18.2198C2.61589 18.0565 2.54156 17.868 2.51427 17.67C2.48699 17.4721 2.50755 17.2705 2.57424 17.0822L4.71096 10.8361C4.73201 10.7743 4.77189 10.7206 4.825 10.6826C4.8781 10.6447 4.94177 10.6243 5.00705 10.6243H10.625C10.7107 10.6245 10.7955 10.6071 10.8742 10.5731C10.9528 10.5392 11.0237 10.4894 11.0823 10.4269C11.1409 10.3644 11.186 10.2905 11.2149 10.2098C11.2437 10.1292 11.2557 10.0434 11.25 9.95793C11.2358 9.79722 11.1615 9.64779 11.0418 9.53957C10.9222 9.43135 10.766 9.37234 10.6047 9.37434H5.01252C4.94733 9.37445 4.88374 9.35418 4.83064 9.31636C4.77755 9.27853 4.73761 9.22505 4.71643 9.1634L2.57268 2.9134C2.48919 2.67391 2.48054 2.41469 2.54786 2.17016C2.61518 1.92563 2.75529 1.70737 2.94959 1.54435C3.14388 1.38134 3.38317 1.28128 3.63568 1.25747C3.88818 1.23367 4.14196 1.28723 4.3633 1.41106L17.4883 8.90246C17.6814 9.01116 17.842 9.16922 17.9539 9.36044C18.0658 9.55167 18.1249 9.76919 18.125 9.99074Z" fill="#262626"/>
</svg>
