<svg width="16" height="16" viewBox="0 0 16 16" fill="none" xmlns="http://www.w3.org/2000/svg">
<g clip-path="url(#clip0_2509_32384)">
<path d="M1.5 4.99995C1.5002 4.91237 1.5234 4.82639 1.56727 4.7506C1.61115 4.6748 1.67416 4.61186 1.75 4.56808L7.75 1.06808C7.82645 1.02349 7.91337 1 8.00187 1C8.09038 1 8.1773 1.02349 8.25375 1.06808L14.2537 4.56808C14.3292 4.61211 14.3918 4.67516 14.4354 4.75093C14.4789 4.82671 14.5018 4.91257 14.5018 4.99995C14.5018 5.08733 14.4789 5.17319 14.4354 5.24897C14.3918 5.32474 14.3292 5.38779 14.2537 5.43183L8.25375 8.93183C8.1773 8.97641 8.09038 8.9999 8.00187 8.9999C7.91337 8.9999 7.82645 8.97641 7.75 8.93183L1.75 5.43183C1.67416 5.38804 1.61115 5.3251 1.56727 5.24931C1.5234 5.17351 1.5002 5.08753 1.5 4.99995ZM13.75 7.56808L8 10.9212L2.25 7.56808C2.13615 7.51139 2.00498 7.50022 1.88319 7.53684C1.7614 7.57345 1.65814 7.65511 1.59442 7.76517C1.53071 7.87524 1.51133 8.00545 1.54023 8.1293C1.56914 8.25315 1.64415 8.36133 1.75 8.43183L7.75 11.9318C7.82645 11.9764 7.91337 11.9999 8.00187 11.9999C8.09038 11.9999 8.1773 11.9764 8.25375 11.9318L14.2537 8.43183C14.3114 8.39922 14.362 8.35549 14.4025 8.30318C14.4431 8.25087 14.4729 8.19102 14.4902 8.1271C14.5075 8.06319 14.5119 7.99647 14.5032 7.93084C14.4945 7.8652 14.4728 7.80195 14.4394 7.74475C14.4061 7.68756 14.3617 7.63755 14.3089 7.59765C14.256 7.55775 14.1958 7.52873 14.1317 7.5123C14.0675 7.49586 14.0007 7.49233 13.9352 7.5019C13.8697 7.51148 13.8068 7.53397 13.75 7.56808ZM14.5 12H13.5V11C13.5 10.8673 13.4473 10.7402 13.3536 10.6464C13.2598 10.5526 13.1326 10.5 13 10.5C12.8674 10.5 12.7402 10.5526 12.6464 10.6464C12.5527 10.7402 12.5 10.8673 12.5 11V12H11.5C11.3674 12 11.2402 12.0526 11.1464 12.1464C11.0527 12.2402 11 12.3673 11 12.5C11 12.6326 11.0527 12.7597 11.1464 12.8535C11.2402 12.9473 11.3674 13 11.5 13H12.5V14C12.5 14.1326 12.5527 14.2597 12.6464 14.3535C12.7402 14.4473 12.8674 14.5 13 14.5C13.1326 14.5 13.2598 14.4473 13.3536 14.3535C13.4473 14.2597 13.5 14.1326 13.5 14V13H14.5C14.6326 13 14.7598 12.9473 14.8536 12.8535C14.9473 12.7597 15 12.6326 15 12.5C15 12.3673 14.9473 12.2402 14.8536 12.1464C14.7598 12.0526 14.6326 12 14.5 12ZM8.75 13.485L8 13.9225L2.25 10.5681C2.13615 10.5114 2.00498 10.5002 1.88319 10.5368C1.7614 10.5735 1.65814 10.6551 1.59442 10.7652C1.53071 10.8752 1.51133 11.0054 1.54023 11.1293C1.56914 11.2531 1.64415 11.3613 1.75 11.4318L7.75 14.9318C7.82645 14.9764 7.91337 14.9999 8.00187 14.9999C8.09038 14.9999 8.1773 14.9764 8.25375 14.9318L9.25375 14.3487C9.31138 14.3161 9.36196 14.2724 9.40255 14.2201C9.44314 14.1678 9.47294 14.1079 9.49022 14.044C9.50749 13.9801 9.5119 13.9133 9.50319 13.8477C9.49447 13.7821 9.47281 13.7188 9.43945 13.6616C9.40609 13.6044 9.36171 13.5544 9.30887 13.5145C9.25603 13.4746 9.1958 13.4456 9.13166 13.4292C9.06752 13.4127 9.00075 13.4092 8.93523 13.4188C8.86972 13.4284 8.80675 13.4508 8.75 13.485Z" fill="black"/>
</g>
<defs>
<clipPath id="clip0_2509_32384">
<rect width="16" height="16" fill="white"/>
</clipPath>
</defs>
</svg>
