<svg width="22" height="22" viewBox="0 0 22 22" fill="none" xmlns="http://www.w3.org/2000/svg">
<rect width="22" height="21.9537" rx="10.9769" fill="white"/>
<path d="M4.29882 10.9163C4.29849 12.0926 4.60824 13.2411 5.19723 14.2535L4.24249 17.7124L7.80987 16.7842C8.79656 17.3172 9.90207 17.5965 11.0255 17.5966H11.0284C14.7371 17.5966 17.756 14.6021 17.7576 10.9216C17.7583 9.13812 17.0589 7.46105 15.7883 6.19931C14.5179 4.93768 12.8284 4.24251 11.0282 4.2417C7.3191 4.2417 4.30041 7.23596 4.29888 10.9163" fill="url(#paint0_linear_207_289)"/>
<path d="M4.05852 10.914C4.05813 12.1326 4.37898 13.3223 4.98897 14.3708L4 17.9537L7.69529 16.9923C8.71346 17.5432 9.85982 17.8336 11.0263 17.834H11.0293C14.871 17.834 17.9984 14.7319 18 10.9196C18.0007 9.07201 17.2762 7.33466 15.9602 6.02772C14.644 4.72095 12.894 4.00076 11.0293 4C7.18697 4 4.0601 7.1017 4.05857 10.914H4.05852ZM6.25914 14.1903L6.12116 13.9729C5.54115 13.0578 5.23501 12.0003 5.23545 10.9145C5.2367 7.74576 7.83567 5.16775 11.0315 5.16775C12.5792 5.1684 14.0336 5.76704 15.1276 6.85318C16.2215 7.93943 16.8235 9.38338 16.8231 10.9191C16.8216 14.0879 14.2226 16.6662 11.0293 16.6662H11.027C9.98724 16.6657 8.96748 16.3886 8.07816 15.865L7.86652 15.7405L5.67366 16.3109L6.25914 14.1902V14.1903Z" fill="url(#paint1_linear_207_289)"/>
<path d="M9.28713 8.02358C9.15665 7.73582 9.01933 7.73001 8.89524 7.72497C8.79363 7.72063 8.67748 7.72095 8.56143 7.72095C8.44527 7.72095 8.25655 7.76431 8.09702 7.93714C7.93733 8.11013 7.48737 8.52818 7.48737 9.37843C7.48737 10.2287 8.11151 11.0505 8.19852 11.1659C8.28564 11.2811 9.40345 13.0818 11.1738 13.7745C12.6451 14.3502 12.9445 14.2357 13.2638 14.2068C13.5832 14.178 14.2944 13.7889 14.4395 13.3853C14.5847 12.9818 14.5847 12.6359 14.5411 12.5637C14.4976 12.4916 14.3814 12.4484 14.2073 12.362C14.033 12.2756 13.1767 11.8575 13.0171 11.7998C12.8574 11.7422 12.7413 11.7134 12.6251 11.8864C12.509 12.0592 12.1755 12.4484 12.0738 12.5637C11.9722 12.6792 11.8706 12.6936 11.6964 12.6071C11.5222 12.5204 10.9612 12.3381 10.2957 11.7494C9.77795 11.2913 9.42839 10.7256 9.32678 10.5526C9.22517 10.3798 9.3159 10.2862 9.40323 10.2C9.48149 10.1226 9.57747 9.99823 9.66464 9.89736C9.75148 9.79643 9.78047 9.72442 9.83855 9.60916C9.89668 9.4938 9.86758 9.39287 9.82411 9.30643C9.78047 9.21998 9.44201 8.36533 9.28713 8.02364" fill="white"/>
<defs>
<linearGradient id="paint0_linear_207_289" x1="11" y1="17.7124" x2="11" y2="4.2417" gradientUnits="userSpaceOnUse">
<stop stop-color="#1FAF38"/>
<stop offset="1" stop-color="#60D669"/>
</linearGradient>
<linearGradient id="paint1_linear_207_289" x1="11" y1="17.9537" x2="11" y2="4" gradientUnits="userSpaceOnUse">
<stop stop-color="#F9F9F9"/>
<stop offset="1" stop-color="white"/>
</linearGradient>
</defs>
</svg>
